<svg width="57" height="54" viewBox="0 0 57 54" fill="none" xmlns="http://www.w3.org/2000/svg">
<g clip-path="url(#clip0_1124_18309)">
<rect width="56.3945" height="53.1165" transform="translate(0.605469 0.217041)" fill="white"/>
<mask id="mask0_1124_18309" style="mask-type:alpha" maskUnits="userSpaceOnUse" x="0" y="0" width="58" height="54">
<path fill-rule="evenodd" clip-rule="evenodd" d="M2.6563 22.8035C1.346 21.5692 0.609144 19.8957 0.607422 18.1503V6.8027C0.609144 5.05727 1.346 3.38377 2.6563 2.14947C3.96659 0.915167 5.74327 0.220887 7.59645 0.218994H19.6467C21.4998 0.220887 23.2765 0.915167 24.5868 2.14947C25.8971 3.38377 26.634 5.05727 26.6357 6.8027V18.1503C26.634 19.8957 25.8971 21.5692 24.5868 22.8035C23.2765 24.0378 21.4998 24.7321 19.6467 24.734H7.59645C5.74327 24.7321 3.96659 24.0378 2.6563 22.8035ZM5.72268 5.03758C5.22572 5.50584 4.94621 6.14062 4.94547 6.8027V18.1503C4.94621 18.8124 5.22572 19.4472 5.72268 19.9154C6.21964 20.3837 6.89349 20.6472 7.59645 20.6482H19.6467C20.3496 20.6472 21.0235 20.3837 21.5204 19.9154C22.0174 19.4472 22.2969 18.8124 22.2976 18.1503V6.8027C22.2969 6.14062 22.0174 5.50584 21.5204 5.03758C21.0235 4.56931 20.3496 4.3058 19.6467 4.30483H7.59645C6.89349 4.3058 6.21964 4.56931 5.72268 5.03758ZM2.6563 51.4051C1.346 50.1708 0.609144 48.4973 0.607422 46.7519V35.4043C0.609144 33.6588 1.346 31.9853 2.6563 30.751C3.96659 29.5167 5.74327 28.8225 7.59645 28.8206H19.6467C21.4998 28.8225 23.2765 29.5167 24.5868 30.751C25.8971 31.9853 26.634 33.6588 26.6357 35.4043V46.7519C26.634 48.4973 25.8971 50.1708 24.5868 51.4051C23.2765 52.6394 21.4998 53.3337 19.6467 53.3356H7.59645C5.74327 53.3337 3.96659 52.6394 2.6563 51.4051ZM5.72268 33.6391C5.22572 34.1074 4.94621 34.7422 4.94547 35.4043V46.7519C4.94621 47.4139 5.22572 48.0487 5.72268 48.517C6.21964 48.9852 6.89349 49.2488 7.59645 49.2497H19.6467C20.3496 49.2488 21.0235 48.9852 21.5204 48.517C22.0174 48.0487 22.2969 47.4139 22.2976 46.7519V35.4043C22.2969 34.7422 22.0174 34.1074 21.5204 33.6391C21.0235 33.1709 20.3496 32.9074 19.6467 32.9064H7.59645C6.89349 32.9074 6.21964 33.1709 5.72268 33.6391ZM43.9927 0.218994C41.4187 0.218994 38.9026 0.937884 36.7624 2.28476C34.6222 3.63163 32.9542 5.54599 31.9692 7.78575C30.9842 10.0255 30.7264 12.4901 31.2286 14.8678C31.7307 17.2455 32.9702 19.4296 34.7903 21.1439C36.6103 22.8581 38.9292 24.0255 41.4537 24.4985C43.9782 24.9714 46.5949 24.7287 48.973 23.8009C51.351 22.8732 53.3835 21.3021 54.8135 19.2864C56.2435 17.2707 57.0068 14.9008 57.0068 12.4765C57.003 9.2267 55.6307 6.11103 53.1909 3.81307C50.7511 1.51512 47.4431 0.222563 43.9927 0.218994ZM43.9927 20.6482C42.2767 20.6482 40.5993 20.1689 39.1725 19.271C37.7457 18.3731 36.6337 17.0968 35.977 15.6037C35.3203 14.1105 35.1485 12.4674 35.4833 10.8823C35.818 9.29713 36.6444 7.84108 37.8577 6.69825C39.0711 5.55542 40.617 4.77715 42.3 4.46184C43.983 4.14654 45.7275 4.30836 47.3129 4.92686C48.8982 5.54535 50.2532 6.59274 51.2066 7.93656C52.1599 9.28038 52.6688 10.8603 52.6688 12.4765C52.6663 14.6431 51.7515 16.7202 50.1249 18.2522C48.4984 19.7842 46.293 20.6459 43.9927 20.6482ZM33.0274 30.751C34.3377 29.5167 36.1144 28.8225 37.9675 28.8206H50.0178C51.8709 28.8225 53.6476 29.5167 54.9579 30.751C56.2682 31.9853 57.0051 33.6588 57.0068 35.4043V46.7519C57.0051 48.4973 56.2682 50.1708 54.9579 51.4051C53.6476 52.6394 51.8709 53.3337 50.0178 53.3356H37.9675C36.1144 53.3337 34.3377 52.6394 33.0274 51.4051C31.7171 50.1708 30.9802 48.4973 30.9785 46.7519V35.4043C30.9802 33.6588 31.7171 31.9853 33.0274 30.751ZM52.6687 46.7519V35.4043C52.668 34.7422 52.3885 34.1074 51.8915 33.6391C51.3946 33.1709 50.7207 32.9074 50.0178 32.9064H37.9675C37.2646 32.9074 36.5907 33.1709 36.0938 33.6391C35.5968 34.1074 35.3173 34.7422 35.3166 35.4043V46.7519C35.3173 47.4139 35.5968 48.0487 36.0938 48.517C36.5907 48.9852 37.2646 49.2488 37.9675 49.2497H50.0178C50.7207 49.2488 51.3946 48.9852 51.8915 48.517C52.3885 48.0487 52.668 47.4139 52.6687 46.7519Z" fill="#BDBDBD"/>
</mask>
<g mask="url(#mask0_1124_18309)">
<rect x="-6.60547" y="-8.35718" width="72.2086" height="71.305" fill="url(#paint0_linear_1124_18309)"/>
</g>
</g>
<defs>
<linearGradient id="paint0_linear_1124_18309" x1="13.1702" y1="-0.295065" x2="76.4924" y2="7.30336" gradientUnits="userSpaceOnUse">
<stop stop-color="#8800E1"/>
<stop offset="1" stop-color="#4A00E0" stop-opacity="0.97"/>
</linearGradient>
<clipPath id="clip0_1124_18309">
<rect width="56.3945" height="53.1165" fill="white" transform="translate(0.605469 0.217041)"/>
</clipPath>
</defs>
</svg>
