<svg width="79" height="86" viewBox="0 0 79 86" fill="none" xmlns="http://www.w3.org/2000/svg">
<path d="M16.9874 0.902539L18.3582 4.75692C18.417 4.92194 18.533 5.05276 18.6798 5.11884L22.1044 6.66179C22.5881 6.87977 22.5881 7.65058 22.1044 7.86855L18.6798 9.4115C18.5332 9.47758 18.417 9.6084 18.3582 9.77342L16.9874 13.6278C16.7939 14.1723 16.1089 14.1723 15.9153 13.6278L14.5445 9.77342C14.4857 9.6084 14.3697 9.47758 14.2229 9.4115L10.7984 7.86855C10.3146 7.65058 10.3146 6.87977 10.7984 6.66179L14.2229 5.11884C14.3695 5.05276 14.4857 4.92194 14.5445 4.75692L15.9153 0.902539C16.1091 0.358008 16.7939 0.358008 16.9874 0.902539Z" fill="#FFB803"/>
<path d="M68.5456 56.3336L69.5624 59.1927C69.6059 59.3151 69.6921 59.4122 69.801 59.4612L72.3412 60.6057C72.7001 60.7674 72.7001 61.3391 72.3412 61.5008L69.801 62.6453C69.6922 62.6943 69.6061 62.7914 69.5624 62.9138L68.5456 65.7729C68.402 66.1768 67.894 66.1768 67.7502 65.7729L66.7333 62.9138C66.6898 62.7914 66.6037 62.6943 66.4949 62.6453L63.9547 61.5008C63.5958 61.3391 63.5958 60.7674 63.9547 60.6057L66.4949 59.4612C66.6037 59.4122 66.6898 59.3151 66.7333 59.1927L67.7502 56.3336C67.894 55.9295 68.402 55.9295 68.5456 56.3336Z" fill="#FFB803"/>
<path d="M4.95182 14.1018L5.96867 16.9609C6.01217 17.0832 6.09833 17.1804 6.20707 17.2293L8.74727 18.3738C9.1062 18.5355 9.1062 19.1073 8.74727 19.269L6.20707 20.4135C6.09833 20.4625 6.01217 20.5596 5.96867 20.682L4.95182 23.5411C4.80822 23.945 4.30021 23.945 4.15644 23.5411L3.1396 20.682C3.0961 20.5596 3.00994 20.4625 2.90103 20.4135L0.360991 19.269C0.00206541 19.1073 0.00206541 18.5355 0.360991 18.3738L2.9012 17.2293C3.00994 17.1804 3.0961 17.0832 3.13976 16.9609L4.15661 14.1018C4.30021 13.6978 4.80822 13.6978 4.95182 14.1018Z" fill="#FFB803"/>
<path d="M4.92808 5.11134C4.92808 5.82437 4.35001 6.40261 3.63697 6.40261C2.92394 6.40261 2.3457 5.82454 2.3457 5.11134C2.3457 4.3983 2.92377 3.82007 3.63697 3.82007C4.35001 3.82023 4.92808 4.3983 4.92808 5.11134Z" fill="#FFB803"/>
<path d="M76.5064 53.7862C77.8226 53.7862 78.8897 52.7191 78.8897 51.4028C78.8897 50.0866 77.8226 49.0195 76.5064 49.0195C75.1901 49.0195 74.123 50.0866 74.123 51.4028C74.123 52.7191 75.1901 53.7862 76.5064 53.7862Z" fill="#FFB803"/>
<path d="M15.8167 70.8761V69.0547L17.031 64.8047L17.6381 55.6975L20.6738 53.269L25.531 54.4833L27.3524 58.1261L27.9595 70.269L29.781 70.8761L32.8167 68.4475L43.7453 58.1261L44.3524 55.0904L20.0667 30.8047L8.53097 41.7333L3.67383 55.6975L8.53097 66.6261L15.8167 70.8761Z" fill="#FFB803"/>
<path d="M78.9291 42.7689C78.6786 41.882 77.7572 41.3656 76.8696 41.6168L48.9328 49.5086L26.4508 27.0265L33.3944 2.5722C33.6461 1.68568 33.1314 0.762796 32.2449 0.51095C31.3584 0.259769 30.4356 0.773919 30.1838 1.66044L23.6846 24.5499C23.0816 24.2387 22.4093 24.0731 21.7112 24.0731C20.5592 24.0731 19.4763 24.5215 18.6618 25.3361C17.1922 26.8057 17.0073 29.0806 18.1067 30.7534L8.06604 40.794C0.490244 48.3699 0.490244 60.6969 8.06604 68.2731C10.1724 70.3795 12.6469 71.898 15.2837 72.8328V76.8227H4.31242C1.93458 76.8227 0 78.7573 0 81.1351C0 83.513 1.93458 85.4475 4.31242 85.4475H40.3318C42.7097 85.4475 44.6443 83.513 44.6443 81.1351C44.6443 78.7573 42.7097 76.8227 40.3318 76.8227H29.3607V72.4326C31.6097 71.4871 33.7159 70.1019 35.5449 68.2731L45.5856 58.2324C46.3013 58.7029 47.1274 58.9382 47.9533 58.9382C49.0576 58.9382 50.162 58.5176 51.0027 57.6771C51.8171 56.8626 52.2657 55.7797 52.2657 54.6277C52.2657 53.7646 52.0139 52.9403 51.545 52.2386L77.777 44.8283C78.6638 44.578 79.1798 43.6559 78.9291 42.7689ZM41.3067 81.135C41.3067 81.6723 40.8694 82.1098 40.3318 82.1098H4.31242C3.77486 82.1098 3.33758 81.6723 3.33758 81.135C3.33758 80.5976 3.77486 80.1601 4.31242 80.1601H40.3318C40.8694 80.1601 41.3067 80.5976 41.3067 81.135ZM18.621 76.8227V58.9121C18.621 56.8713 20.2813 55.2109 22.3221 55.2109C24.363 55.2109 26.0233 56.8713 26.0233 58.9121V76.8227H18.621ZM33.1849 65.913C32.0392 67.0587 30.7511 68.0099 29.3607 68.751V58.9121C29.3607 55.031 26.2032 51.8735 22.3221 51.8735C18.441 51.8735 15.2836 55.031 15.2836 58.9121V69.254C13.4954 68.4615 11.8505 67.3377 10.4259 65.913C7.38637 62.8734 5.71243 58.8322 5.71243 54.5334C5.71243 50.2348 7.38637 46.1936 10.4259 43.1539L20.4033 33.1765L43.1624 55.9354L33.1849 65.913ZM48.6426 55.3172C48.2626 55.6972 47.644 55.6972 47.2638 55.3172L21.0216 29.0751C20.6416 28.6949 20.6414 28.0764 21.0216 27.6963C21.2057 27.5122 21.4505 27.4108 21.7109 27.4108C21.9713 27.4108 22.216 27.5122 22.4002 27.6963L48.6424 53.9386C48.8265 54.1227 48.928 54.3676 48.928 54.6279C48.9281 54.8884 48.8267 55.1331 48.6426 55.3172Z" fill="#FFB803"/>
<path d="M16.784 44.6243C16.3567 44.6243 15.9295 44.4613 15.6036 44.1352C14.9522 43.4833 14.9525 42.4267 15.6043 41.7751L16.0568 41.3226C16.7086 40.6711 17.765 40.6711 18.4169 41.3226C19.0687 41.9743 19.0687 43.0309 18.4169 43.6826L17.9637 44.1359C17.6378 44.4614 17.2108 44.6243 16.784 44.6243Z" fill="#E4E3E3"/>
<path d="M12.3426 49.0638C11.9154 49.0638 11.4884 48.9008 11.1625 48.5751C10.5109 47.9234 10.5109 46.8668 11.1625 46.215L12.4319 44.9456C13.0837 44.2942 14.14 44.2942 14.792 44.9456C15.4436 45.5974 15.4436 46.6539 14.792 47.3057L13.5226 48.5751C13.1967 48.9009 12.7697 49.0638 12.3426 49.0638Z" fill="#EEEAEA"/>
</svg>
