<svg width="56" height="59" viewBox="0 0 56 59" fill="none" xmlns="http://www.w3.org/2000/svg">
<path d="M28 2.96094C12.536 2.96094 0 15.4969 0 30.9609C0 37.3707 2.15531 43.276 5.77851 47.9955L8.1368 50.6942C13.2089 55.7994 20.235 58.9609 28 58.9609C30.9216 58.9609 33.7383 58.5128 36.3861 57.6828L49.3151 49.1158C53.4829 44.2272 56 37.8885 56 30.9609C56 15.4969 43.464 2.96094 28 2.96094Z" fill="#FEE903"/>
<path d="M7.71622 46.0605L5.78125 47.9954C6.51005 48.9448 7.29748 49.8467 8.13965 50.6944L10.2448 48.5892L7.71622 46.0605Z" fill="#596C97"/>
<path d="M38.4068 38.2055C38.3956 38.2168 38.3852 38.2287 38.3739 38.24L38.3572 38.2567C37.8036 38.8103 37.1215 39.1028 36.3846 39.1028C36.3843 39.1028 36.3842 39.1028 36.3841 39.1028C35.4647 39.1027 34.5559 38.6327 34.0121 37.8761C33.4871 37.1457 33.363 36.253 33.6624 35.3624C34.0729 34.1409 34.736 33.168 35.0946 32.6969C35.2014 32.5566 35.2462 32.3831 35.2208 32.2082C35.1953 32.0324 35.1016 31.8772 34.9568 31.7712C34.849 31.6922 34.7196 31.6504 34.5827 31.6504C34.4007 31.6504 34.2214 31.7254 34.0906 31.856L31.11 34.8366C30.6994 35.2472 30.1529 35.4734 29.5712 35.4734C29.4404 35.4734 29.309 35.4616 29.1804 35.4384L29.1259 35.4286L19.1504 44.2482C20.5934 45.4289 22.6345 46.2386 24.2671 46.6766C25.2502 46.9403 26.1512 47.4463 26.871 48.166L36.3889 57.684C41.4776 56.0887 45.9399 53.0793 49.3179 49.117L38.4068 38.2055Z" fill="#D6694B"/>
<path d="M10.5467 41.4336L7.54565 44.4346C7.09937 44.8809 7.09937 45.6046 7.54565 46.0509L10.2547 48.7599C10.701 49.2062 11.4246 49.2062 11.8709 48.7599L14.8719 45.7589L10.5467 41.4336Z" fill="#9FACDB"/>
<path d="M9.93811 44.4346L11.7429 42.6298L10.5467 41.4336L7.54565 44.4346C7.09937 44.8809 7.09937 45.6046 7.54565 46.0509L10.2547 48.7599C10.701 49.2062 11.4246 49.2062 11.8709 48.7599L12.259 48.3718L9.93799 46.0507C9.49182 45.6046 9.49182 44.8809 9.93811 44.4346Z" fill="#8D9CC9"/>
<path d="M30.0261 16.6602L27.5037 19.5132L30.0741 22.0836C31.1425 23.152 31.1425 24.8904 30.0741 25.9589C29.5566 26.4764 28.8684 26.7614 28.1365 26.7614C27.4046 26.7614 26.7164 26.4764 26.1988 25.9589L25.9537 25.7138L25.7921 25.8754C26.8606 26.9438 26.8606 28.6822 25.7921 29.7507C25.2746 30.2683 24.5864 30.5533 23.8545 30.5533C23.1226 30.5533 22.4344 30.2683 21.9168 29.7507L21.7982 29.6319L21.6366 29.7935C22.1541 30.3111 22.4391 30.9992 22.4391 31.7311C22.4391 32.463 22.1541 33.1511 21.6366 33.6687C21.119 34.1863 20.4308 34.4714 19.6989 34.4714C18.967 34.4714 18.2788 34.1863 17.7613 33.6687L17.5997 33.8303L17.9634 34.1941C18.481 34.7117 18.7661 35.3998 18.7661 36.1318C18.7661 36.8638 18.481 37.5518 17.9634 38.0694C17.446 38.5869 16.7577 38.8719 16.0258 38.8719C15.294 38.8719 14.6057 38.5869 14.0882 38.0694L12.501 36.4822L9.89602 39.4286C9.49602 39.8811 9.51705 40.5667 9.94413 40.9938L15.3121 46.3618C15.7392 46.7888 16.4248 46.8099 16.8773 46.4099L29.2721 35.4514C28.8034 35.3876 28.37 35.1763 28.0298 34.836L27.5544 34.3605C27.143 33.9491 26.9164 33.4022 26.9164 32.8204C26.9164 32.2386 27.143 31.6917 27.5544 31.2803L33.525 25.3095C33.9365 24.8981 34.4834 24.6716 35.0653 24.6716C35.647 24.6716 36.194 24.8981 36.6054 25.3095L38.374 27.0781C38.4318 27.1359 38.4869 27.1959 38.5428 27.2552L39.646 26.2799L30.0261 16.6602Z" fill="#596C97"/>
<path d="M30.048 22.0556L32.4945 19.2884L29.9504 16.7441L27.5039 19.5113L30.048 22.0556Z" fill="#465A82"/>
<path d="M14.6896 39.4288L15.2743 38.7676C14.8304 38.6417 14.4234 38.4047 14.0882 38.0696L12.501 36.4824L9.89602 39.4288C9.49602 39.8813 9.51705 40.5669 9.94413 40.994L15.3121 46.362C15.7392 46.7891 16.4248 46.8101 16.8773 46.4101L18.6164 44.8726L14.7377 40.994C14.3106 40.5669 14.2896 39.8813 14.6896 39.4288Z" fill="#465A82"/>
<path d="M52.81 3.49647C48.7444 -0.569134 42.1529 -0.569134 38.0873 3.49647C35.8722 5.71155 34.867 8.67624 35.0656 11.5738L44.7327 21.2409C47.6303 21.4395 50.595 20.4342 52.81 18.2192C56.8755 14.1536 56.8755 7.56207 52.81 3.49647Z" fill="#8D9CC9"/>
<path d="M39.5258 2.37656L41.9474 4.79816C45.4474 2.28228 50.1564 2.20079 53.7331 4.55736C53.4522 4.18891 53.146 3.83348 52.8094 3.49668C49.1796 -0.133037 43.538 -0.519208 39.4766 2.33211C39.4931 2.34685 39.51 2.36079 39.5258 2.37656Z" fill="#7A84AF"/>
<path d="M40.2301 6.34569L37.894 4.00958C37.8422 3.95781 37.7972 3.90204 37.7573 3.84375C35.8149 5.97038 34.9135 8.70718 35.0531 11.4007L37.6302 13.9778C37.4429 11.2705 38.3093 8.50455 40.2301 6.34569Z" fill="#7A84AF"/>
<path d="M48.0921 18.7975C48.8496 18.7975 49.4636 18.1835 49.4636 17.4261C49.4636 16.6687 48.8496 16.0547 48.0921 16.0547C47.3347 16.0547 46.7207 16.6687 46.7207 17.4261C46.7207 18.1835 47.3347 18.7975 48.0921 18.7975Z" fill="#596C97"/>
<path d="M45.0199 15.7253C45.7773 15.7253 46.3913 15.1113 46.3913 14.3539C46.3913 13.5964 45.7773 12.9824 45.0199 12.9824C44.2624 12.9824 43.6484 13.5964 43.6484 14.3539C43.6484 15.1113 44.2624 15.7253 45.0199 15.7253Z" fill="#596C97"/>
<path d="M41.9496 12.655C42.707 12.655 43.321 12.041 43.321 11.2835C43.321 10.5261 42.707 9.91211 41.9496 9.91211C41.1921 9.91211 40.5781 10.5261 40.5781 11.2835C40.5781 12.041 41.1921 12.655 41.9496 12.655Z" fill="#596C97"/>
<path d="M38.8792 9.58465C39.6367 9.58465 40.2507 8.97064 40.2507 8.21323C40.2507 7.45581 39.6367 6.8418 38.8792 6.8418C38.1218 6.8418 37.5078 7.45581 37.5078 8.21323C37.5078 8.97064 38.1218 9.58465 38.8792 9.58465Z" fill="#596C97"/>
<path d="M43.8683 20.2178C44.1132 20.1629 44.3462 20.0415 44.5369 19.8509C45.0724 19.3153 45.0724 18.447 44.5369 17.9114C44.0013 17.3759 43.133 17.3759 42.5974 17.9114C42.4068 18.1021 42.2853 18.3351 42.2305 18.58L43.8683 20.2178Z" fill="#596C97"/>
<path d="M40.7961 17.1457C41.0411 17.0907 41.2741 16.9694 41.4647 16.7787C42.0003 16.2432 42.0003 15.3749 41.4647 14.8392C40.9292 14.3035 40.0608 14.3037 39.5252 14.8392C39.3345 15.0298 39.2132 15.2629 39.1582 15.5078L40.7961 17.1457Z" fill="#596C97"/>
<path d="M37.7258 14.0754C37.9708 14.0204 38.2038 13.8991 38.3944 13.7084C38.93 13.1729 38.93 12.3045 38.3944 11.7689C37.8589 11.2332 36.9905 11.2333 36.4549 11.7689C36.2642 11.9595 36.1429 12.1925 36.0879 12.4375L37.7258 14.0754Z" fill="#596C97"/>
<path d="M40.7148 27.5113L28.7957 15.5921C28.3494 15.1459 28.3494 14.4222 28.7957 13.9759L32.4036 10.3679C32.8499 9.92163 33.5736 9.92163 34.0199 10.3679L45.939 22.2871C46.3852 22.7334 46.3852 23.4571 45.939 23.9033L42.331 27.5113C41.8848 27.9576 41.1611 27.9576 40.7148 27.5113Z" fill="#9FACDB"/>
<path d="M32.3535 15.5921C31.9072 15.1459 31.9072 14.4222 32.3535 13.9759L34.9906 11.3388L34.0198 10.3679C33.5735 9.92163 32.8498 9.92163 32.4035 10.3679L28.7957 13.9759C28.3494 14.4222 28.3494 15.1459 28.7957 15.5921L40.7148 27.5113C41.1611 27.9576 41.8848 27.9576 42.3311 27.5113L43.3019 26.5405L32.3535 15.5921Z" fill="#8D9CC9"/>
<path d="M32.8836 25.9511C32.8388 25.3179 32.5767 24.6974 32.0927 24.2134C31.7299 23.8505 31.2896 23.614 30.8255 23.498C30.9923 24.3619 30.7419 25.2912 30.0742 25.9588C29.5567 26.4763 28.8685 26.7614 28.1366 26.7614C27.4723 26.7614 26.8444 26.5258 26.347 26.0954L26.1407 26.3017C26.8442 27.3651 26.7282 28.8149 25.7924 29.7505C25.2749 30.2681 24.5867 30.5531 23.8548 30.5531C23.6005 30.5531 23.3517 30.5179 23.1133 30.4513C23.1108 31.1537 23.3771 31.857 23.9131 32.3929C24.7272 33.2071 25.9268 33.3978 26.9238 32.9694C26.9205 32.9198 26.9165 32.8704 26.9165 32.8202C26.9165 32.2384 27.1431 31.6915 27.5546 31.2801L32.8836 25.9511Z" fill="#8D9CC9"/>
<path d="M26.52 28.4336C26.4086 28.9168 26.1679 29.376 25.7921 29.7519C25.3657 30.1783 24.8234 30.4464 24.2363 30.5278C24.2955 30.9023 24.4674 31.2624 24.7561 31.551C25.4356 32.2305 26.5102 32.2739 27.2403 31.6817C27.3287 31.5385 27.4322 31.4035 27.5543 31.2816L27.6926 31.1433C28.089 30.4352 27.9879 29.5235 27.3857 28.9214C27.1379 28.6734 26.8371 28.5122 26.52 28.4336Z" fill="white"/>
<path d="M22.12 33.0176C21.9938 33.2546 21.8317 33.4741 21.6364 33.6693C21.1188 34.1869 20.4306 34.472 19.6987 34.472C19.6976 34.472 19.6965 34.4719 19.6954 34.4719C19.6002 35.044 19.7716 35.6519 20.213 36.0932C20.9392 36.8194 22.1165 36.8194 22.8427 36.0932C23.5689 35.3671 23.5689 34.1897 22.8427 33.4635C22.6324 33.2535 22.3839 33.106 22.12 33.0176Z" fill="#A2E62E"/>
<path d="M30.1562 22.0026L25.763 17.6095C24.6483 16.4948 22.8408 16.4948 21.7261 17.6095C20.6114 18.7242 20.6114 20.5316 21.7261 21.6464L21.4811 21.4014C20.3663 20.2866 18.5589 20.2866 17.4442 21.4014C16.3294 22.5161 16.3294 24.3236 17.4442 25.4383L17.3254 25.3196C16.2107 24.2048 14.4034 24.2048 13.2885 25.3196C12.1738 26.4343 12.1738 28.2416 13.2885 29.3565L13.6523 29.7202C12.5375 28.6055 10.7301 28.6055 9.61535 29.7202C8.50061 30.835 8.50061 32.6424 9.61535 33.7572L14.0084 38.1502C15.1231 39.2649 16.9306 39.2649 18.0453 38.1502C19.16 37.0354 19.16 35.228 18.0453 34.1133L17.6815 33.7495C18.7963 34.8642 20.6037 34.8642 21.7184 33.7495C22.8332 32.6348 22.8332 30.8273 21.7184 29.7126L21.8372 29.8313C22.9519 30.9461 24.7594 30.9461 25.8741 29.8313C26.9888 28.7166 26.9888 26.9092 25.8741 25.7944L26.1191 26.0394C27.2339 27.1542 29.0413 27.1542 30.1561 26.0394C31.2708 24.9247 31.2709 23.1174 30.1562 22.0026Z" fill="#D6694B"/>
<path d="M28.5012 26.0393L24.1082 21.6463C22.9934 20.5315 22.9934 18.7241 24.1082 17.6094C24.3548 17.3627 24.6355 17.1709 24.9349 17.0334C23.881 16.5494 22.5928 16.7413 21.7247 17.6094C20.61 18.7241 20.61 20.5314 21.7247 21.6463L26.1178 26.0393C26.9859 26.9074 28.2739 27.0992 29.3279 26.6153C29.0285 26.4778 28.7478 26.2859 28.5012 26.0393Z" fill="#C4573A"/>
<path d="M24.202 29.8321L19.809 25.4391C18.6942 24.3243 18.6942 22.517 19.809 21.4022C20.0578 21.1534 20.3413 20.9604 20.6437 20.8227C19.5912 20.3434 18.3075 20.5362 17.4415 21.4022C16.3268 22.5169 16.3268 24.3243 17.4415 25.4391L21.8346 29.8321C22.7005 30.698 23.9842 30.891 25.0367 30.4115C24.7343 30.2738 24.4508 30.0809 24.202 29.8321Z" fill="#C4573A"/>
<path d="M20.044 33.75L15.651 29.357C14.5363 28.2423 14.5363 26.4348 15.651 25.3201C15.9004 25.0707 16.1845 24.8777 16.4876 24.7399C15.4355 24.2616 14.1527 24.4547 13.2872 25.3201C12.1725 26.4348 12.1725 28.2423 13.2872 29.357L17.6803 33.75C18.5457 34.6155 19.8284 34.8085 20.8806 34.3303C20.5774 34.1924 20.2933 33.9993 20.044 33.75Z" fill="#C4573A"/>
<path d="M16.3862 38.1506L11.9932 33.7576C10.8784 32.6428 10.8784 30.8354 11.9932 29.7206C12.2404 29.4736 12.5216 29.2814 12.8217 29.1438C11.7681 28.661 10.4811 28.853 9.6134 29.7206C8.49866 30.8354 8.49866 32.6428 9.6134 33.7576L14.0064 38.1506C14.8741 39.0182 16.1611 39.2102 17.2148 38.7274C16.9147 38.5898 16.6333 38.3978 16.3862 38.1506Z" fill="#C4573A"/>
<path d="M37.8927 2.37517C37.442 2.82591 37.442 3.55677 37.8927 4.00751L52.2965 18.4113C52.7473 18.862 53.4781 18.862 53.9289 18.4113C54.3796 17.9605 54.3796 17.2297 53.9289 16.7789L39.5251 2.37517C39.0743 1.92442 38.3435 1.92442 37.8927 2.37517Z" fill="#596C97"/>
<path d="M43.891 4.57294C44.6484 4.57294 45.2624 3.95893 45.2624 3.20151C45.2624 2.44409 44.6484 1.83008 43.891 1.83008C43.1335 1.83008 42.5195 2.44409 42.5195 3.20151C42.5195 3.95893 43.1335 4.57294 43.891 4.57294Z" fill="#596C97"/>
<path d="M46.9613 7.64325C47.7187 7.64325 48.3327 7.02924 48.3327 6.27182C48.3327 5.5144 47.7187 4.90039 46.9613 4.90039C46.2039 4.90039 45.5898 5.5144 45.5898 6.27182C45.5898 7.02924 46.2039 7.64325 46.9613 7.64325Z" fill="#596C97"/>
<path d="M50.0335 10.7136C50.791 10.7136 51.405 10.0996 51.405 9.34213C51.405 8.58471 50.791 7.9707 50.0335 7.9707C49.2761 7.9707 48.6621 8.58471 48.6621 9.34213C48.6621 10.0996 49.2761 10.7136 50.0335 10.7136Z" fill="#596C97"/>
<path d="M53.1039 13.7858C53.8613 13.7858 54.4753 13.1718 54.4753 12.4144C54.4753 11.657 53.8613 11.043 53.1039 11.043C52.3464 11.043 51.7324 11.657 51.7324 12.4144C51.7324 13.1718 52.3464 13.7858 53.1039 13.7858Z" fill="#596C97"/>
<path d="M47.4466 0.77733C46.911 1.31287 46.911 2.18122 47.4466 2.71687C47.9821 3.25253 48.8505 3.25242 49.3861 2.71687C49.7514 2.35162 49.867 1.83173 49.7341 1.36807C49.037 1.05333 48.3124 0.819387 47.5742 0.666016C47.5301 0.700416 47.4872 0.736758 47.4466 0.77733Z" fill="#596C97"/>
<path d="M51.4867 6.19012C52.2441 6.19012 52.8581 5.57611 52.8581 4.8187C52.8581 4.06128 52.2441 3.44727 51.4867 3.44727C50.7292 3.44727 50.1152 4.06128 50.1152 4.8187C50.1152 5.57611 50.7292 6.19012 51.4867 6.19012Z" fill="#596C97"/>
<path d="M53.5872 6.91879C53.0517 7.45434 53.0517 8.32268 53.5872 8.85833C54.1227 9.39399 54.9911 9.39388 55.5268 8.85833C55.5673 8.81776 55.6038 8.77479 55.6382 8.73068C55.4849 7.99251 55.2509 7.26794 54.9361 6.57079C54.4723 6.43799 53.9525 6.55365 53.5872 6.91879Z" fill="#596C97"/>
<path d="M36.6848 25.228C35.7896 24.3328 34.3381 24.3328 33.4429 25.228L27.4722 31.1988C26.577 32.094 26.577 33.5454 27.4722 34.4406L27.9477 34.9162C28.8429 35.8114 30.2944 35.8114 31.1896 34.9162L34.1701 31.9356C34.3617 31.744 34.6694 31.702 34.888 31.8622C35.1374 32.0451 35.1828 32.3892 35.0022 32.6264C34.6229 33.1247 33.9646 34.0991 33.5526 35.3247C32.5624 38.2705 36.2392 40.5339 38.4365 38.3364L38.4533 38.3196C41.5801 35.1929 41.5801 30.1234 38.4533 26.9965L36.6848 25.228Z" fill="#C4573A"/>
<path d="M30.52 35.2639L30.0444 34.7884C29.1492 33.8932 29.1492 32.4418 30.0444 31.5466L36.0152 25.5758C36.1914 25.3996 36.3897 25.2594 36.6005 25.1525C35.7008 24.3368 34.311 24.3605 33.4429 25.2286L27.4722 31.1994C26.577 32.0946 26.577 33.546 27.4722 34.4412L27.9477 34.9167C28.6667 35.6357 29.744 35.7759 30.6042 35.34C30.5761 35.3146 30.5469 35.291 30.52 35.2639Z" fill="#A74B30"/>
</svg>
