<svg width="49" height="47" viewBox="0 0 49 47" fill="none" xmlns="http://www.w3.org/2000/svg">
<g clip-path="url(#clip0_1345_18369)">
<path d="M17.8633 34.4888V43.5715C17.8633 44.206 18.2879 44.7681 18.9168 44.9678C19.074 45.0168 19.2353 45.0403 19.3945 45.0403C19.8723 45.0403 20.3337 44.8249 20.6277 44.441L26.1667 37.2109L17.8633 34.4888Z" fill="url(#paint0_linear_1345_18369)"/>
<path d="M48.357 0.272382C47.8874 -0.0468265 47.2708 -0.0899098 46.7604 0.166632L0.822882 23.177C0.279799 23.4493 -0.0407425 24.0054 0.00417414 24.591C0.0511325 25.1785 0.457424 25.6798 1.03522 25.8698L13.8058 30.0567L41.0029 7.75126L19.9574 32.0718L41.3602 39.0885C41.5194 39.1394 41.6868 39.1668 41.8543 39.1668C42.1319 39.1668 42.4075 39.0944 42.6505 38.9534C43.0384 38.7262 43.3018 38.3443 43.3692 37.9155L48.9838 1.6863C49.0675 1.13797 48.8265 0.593549 48.357 0.272382Z" fill="url(#paint1_linear_1345_18369)"/>
</g>
<defs>
<linearGradient id="paint0_linear_1345_18369" x1="17.8633" y1="36.4164" x2="26.3302" y2="36.5801" gradientUnits="userSpaceOnUse">
<stop offset="0.0500767" stop-color="#FA7558"/>
<stop offset="1" stop-color="#F95A63"/>
</linearGradient>
<linearGradient id="paint1_linear_1345_18369" x1="-9.98687e-08" y1="7.15548" x2="49.9364" y2="8.68956" gradientUnits="userSpaceOnUse">
<stop offset="0.0500767" stop-color="#FA7558"/>
<stop offset="1" stop-color="#F95A63"/>
</linearGradient>
<clipPath id="clip0_1345_18369">
<rect width="49" height="47" fill="white"/>
</clipPath>
</defs>
</svg>
