<svg width="47" height="44" viewBox="0 0 47 44" fill="none" xmlns="http://www.w3.org/2000/svg">
<g clip-path="url(#clip0_1345_18338)">
<path d="M36.777 27.4314C32.6567 27.4314 29.3047 30.5695 29.3047 34.4266C29.3047 38.2839 32.6567 41.4219 36.777 41.4219C40.8972 41.4219 44.2492 38.2838 44.2492 34.4266C44.2492 30.5695 40.8971 27.4314 36.777 27.4314ZM39.7266 35.7158H36.777C36.0164 35.7158 35.4 35.1386 35.4 34.4267V31.6653C35.4 30.9534 36.0164 30.3762 36.777 30.3762C37.5373 30.3762 38.1539 30.9534 38.1539 31.6653V33.1376H39.7267C40.4872 33.1376 41.1036 33.7148 41.1036 34.4267C41.1035 35.1386 40.4872 35.7158 39.7266 35.7158Z" fill="#FA695D"/>
<path d="M0 39.258C0 41.8721 2.2717 43.9989 5.06407 43.9989H36.7738C31.1351 43.9989 26.5477 39.7042 26.5477 34.4254C26.5477 29.1466 31.1352 24.8521 36.7738 24.8521C42.4125 24.8521 47 29.1466 47 34.4254V13.6228H0V39.258ZM37.2749 18.3259C37.5319 18.0861 37.8862 17.9486 38.2488 17.9486C38.6113 17.9486 38.9658 18.0861 39.2219 18.3259C39.479 18.5657 39.6258 18.8982 39.6258 19.2377C39.6258 19.5771 39.4789 19.9089 39.2219 20.1486C38.9658 20.3884 38.6114 20.5268 38.2488 20.5268C37.8862 20.5268 37.5318 20.3884 37.2749 20.1486C37.0187 19.9089 36.8719 19.5772 36.8719 19.2377C36.8719 18.8982 37.0187 18.5657 37.2749 18.3259ZM31.375 18.3259C31.6321 18.0861 31.9863 17.9486 32.3489 17.9486C32.7115 17.9486 33.0659 18.0861 33.3229 18.3259C33.579 18.5665 33.7259 18.8982 33.7259 19.2377C33.7259 19.5762 33.579 19.9089 33.3229 20.1486C33.0658 20.3884 32.7115 20.5268 32.3489 20.5268C31.9863 20.5268 31.632 20.3884 31.375 20.1486C31.119 19.9089 30.972 19.5763 30.972 19.2377C30.972 18.8982 31.119 18.5657 31.375 18.3259ZM27.4231 25.6718C27.167 25.9115 26.8118 26.0491 26.4501 26.0491C26.0875 26.0491 25.7331 25.9115 25.4761 25.6718C25.22 25.432 25.0731 25.0995 25.0731 24.76C25.0731 24.4206 25.22 24.0888 25.4761 23.849C25.7322 23.6093 26.0875 23.471 26.4501 23.471C26.8127 23.471 27.167 23.6093 27.4231 23.849C27.6792 24.0888 27.827 24.4205 27.827 24.76C27.8271 25.0995 27.6792 25.432 27.4231 25.6718ZM25.4761 18.3259C25.7322 18.0861 26.0875 17.9486 26.4501 17.9486C26.8127 17.9486 27.167 18.0861 27.4231 18.3259C27.6792 18.5657 27.827 18.8982 27.827 19.2377C27.827 19.5771 27.6792 19.9089 27.4231 20.1486C27.167 20.3884 26.8128 20.5268 26.4501 20.5268C26.0874 20.5268 25.7322 20.3884 25.4761 20.1486C25.22 19.9089 25.0723 19.5772 25.0723 19.2377C25.0723 18.8982 25.22 18.5657 25.4761 18.3259ZM19.5764 18.3259C19.8334 18.0861 20.1878 17.9486 20.5503 17.9486C20.9129 17.9486 21.2673 18.0861 21.5234 18.3259C21.7805 18.5657 21.9272 18.8982 21.9272 19.2377C21.9272 19.5771 21.7804 19.9089 21.5234 20.1486C21.2673 20.3884 20.913 20.5268 20.5503 20.5268C20.1878 20.5268 19.8334 20.3884 19.5764 20.1486C19.3203 19.9089 19.1733 19.5772 19.1733 19.2377C19.1733 18.8982 19.3203 18.5657 19.5764 18.3259ZM19.5764 23.849C19.8325 23.6093 20.1878 23.471 20.5503 23.471C20.9129 23.471 21.2673 23.6093 21.5243 23.849C21.7804 24.0888 21.9272 24.4205 21.9272 24.76C21.9272 25.0995 21.7804 25.432 21.5243 25.6718C21.2672 25.9115 20.912 26.0491 20.5503 26.0491C20.1878 26.0491 19.8334 25.9115 19.5764 25.6718C19.3203 25.432 19.1733 25.0995 19.1733 24.76C19.1733 24.4206 19.3203 24.0888 19.5764 23.849ZM19.5764 29.3715C19.8325 29.1317 20.1878 28.9941 20.5503 28.9941C20.9129 28.9941 21.2673 29.1317 21.5243 29.3715C21.7804 29.6112 21.9272 29.9437 21.9272 30.2832C21.9272 30.6226 21.7804 30.9552 21.5243 31.195C21.2672 31.4347 20.912 31.5722 20.5503 31.5722C20.1878 31.5722 19.8334 31.4347 19.5764 31.195C19.3203 30.9552 19.1733 30.6226 19.1733 30.2832C19.1733 29.9437 19.3203 29.6112 19.5764 29.3715ZM19.5764 34.8947C19.8325 34.6549 20.1878 34.5174 20.5503 34.5174C20.9129 34.5174 21.2673 34.6549 21.5243 34.8947C21.7804 35.1344 21.9272 35.467 21.9272 35.8065C21.9272 36.1451 21.7804 36.4776 21.5243 36.7174C21.2672 36.9572 20.9129 37.0955 20.5503 37.0955C20.1878 37.0955 19.8325 36.9572 19.5764 36.7174C19.3203 36.4776 19.1733 36.146 19.1733 35.8065C19.1733 35.4669 19.3203 35.1344 19.5764 34.8947ZM13.6765 18.3259C13.9336 18.0861 14.2879 17.9486 14.6505 17.9486C15.0131 17.9486 15.3684 18.0861 15.6245 18.3259C15.8806 18.5657 16.0275 18.8982 16.0275 19.2377C16.0275 19.5762 15.8806 19.9089 15.6245 20.1486C15.3684 20.3884 15.0131 20.5268 14.6505 20.5268C14.2879 20.5268 13.9336 20.3884 13.6765 20.1486C13.4204 19.9089 13.2736 19.5763 13.2736 19.2377C13.2736 18.8982 13.4204 18.5657 13.6765 18.3259ZM13.6776 23.849C13.9336 23.6093 14.2879 23.471 14.6506 23.471C15.0132 23.471 15.3684 23.6093 15.6246 23.849C15.8807 24.0888 16.0276 24.4214 16.0276 24.76C16.0276 25.0995 15.8807 25.432 15.6246 25.6718C15.3675 25.9115 15.0132 26.0491 14.6506 26.0491C14.289 26.0491 13.9337 25.9115 13.6776 25.6718C13.4204 25.432 13.2736 25.0995 13.2736 24.76C13.2736 24.4206 13.4204 24.0888 13.6776 23.849ZM13.6776 29.3715C13.9336 29.1317 14.2879 28.9941 14.6506 28.9941C15.0132 28.9941 15.3684 29.1317 15.6246 29.3715C15.8807 29.6121 16.0276 29.9437 16.0276 30.2832C16.0276 30.6226 15.8807 30.9544 15.6246 31.195C15.3675 31.4347 15.0132 31.5722 14.6506 31.5722C14.289 31.5722 13.9337 31.4347 13.6776 31.195C13.4204 30.9552 13.2736 30.6226 13.2736 30.2832C13.2736 29.9437 13.4204 29.6112 13.6776 29.3715ZM13.6776 34.8947C13.9336 34.6549 14.2879 34.5174 14.6506 34.5174C15.0132 34.5174 15.3676 34.6549 15.6246 34.8947C15.8807 35.1344 16.0276 35.467 16.0276 35.8065C16.0276 36.1451 15.8807 36.4776 15.6246 36.7174C15.3675 36.9572 15.0132 37.0955 14.6506 37.0955C14.288 37.0955 13.9337 36.9572 13.6776 36.7174C13.4204 36.4776 13.2736 36.146 13.2736 35.8065C13.2736 35.4669 13.4204 35.1344 13.6776 34.8947ZM7.77777 23.849C8.03388 23.6093 8.38913 23.471 8.75173 23.471C9.11332 23.471 9.46866 23.6093 9.72478 23.849C9.98089 24.0888 10.1287 24.4205 10.1287 24.76C10.1287 25.0995 9.98089 25.432 9.72478 25.6718C9.46866 25.9115 9.11341 26.0491 8.75173 26.0491C8.38913 26.0491 8.03388 25.9115 7.77777 25.6718C7.52165 25.432 7.37478 25.0995 7.37478 24.76C7.37478 24.4206 7.52165 24.0888 7.77777 23.849ZM7.77777 29.3715C8.03388 29.1317 8.38822 28.9941 8.7509 28.9941C9.11341 28.9941 9.46866 29.1317 9.72478 29.3715C9.98089 29.6112 10.1279 29.9437 10.1279 30.2832C10.1279 30.6226 9.98089 30.9552 9.72478 31.195C9.46866 31.4347 9.11341 31.5722 8.7509 31.5722C8.38923 31.5722 8.03388 31.4347 7.77777 31.195C7.52165 30.9552 7.37478 30.6226 7.37478 30.2832C7.37478 29.9437 7.52165 29.6112 7.77777 29.3715ZM7.77777 34.8947C8.03388 34.6549 8.38913 34.5174 8.7509 34.5174C9.11341 34.5174 9.46866 34.6549 9.72478 34.8947C9.98089 35.1344 10.1287 35.467 10.1287 35.8065C10.1287 36.1459 9.98089 36.4776 9.72478 36.7174C9.46866 36.9572 9.11341 37.0955 8.7509 37.0955C8.38923 37.0955 8.03388 36.9572 7.77777 36.7174C7.52165 36.4776 7.37395 36.1451 7.37395 35.8065C7.37386 35.467 7.52165 35.1344 7.77777 34.8947Z" fill="#FA695D"/>
<path d="M41.9357 2.76143H38.6465V1.28906C38.6465 0.577156 38.0299 0 37.2695 0C36.509 0 35.8926 0.577156 35.8926 1.28906V2.76143H33.1387V1.28906C33.1387 0.577156 32.5221 0 31.7617 0C31.0012 0 30.3848 0.577156 30.3848 1.28906V2.76143H27.6309V1.28906C27.6309 0.577156 27.0143 0 26.2539 0C25.4934 0 24.877 0.577156 24.877 1.28906V2.76143H22.123V1.28906C22.123 0.577156 21.5064 0 20.7461 0C19.9856 0 19.3691 0.577156 19.3691 1.28906V2.76143H16.6152V1.28906C16.6152 0.577156 15.9986 0 15.2383 0C14.4777 0 13.8613 0.577156 13.8613 1.28906V2.76143H11.1074V1.28906C11.1074 0.577156 10.4908 0 9.73047 0C8.96993 0 8.35352 0.577156 8.35352 1.28906V2.76143H5.06407C2.2717 2.76143 0 4.88821 0 7.50235V11.0458H47V7.50235C47 4.88821 44.7282 2.76143 41.9357 2.76143Z" fill="#FA695D"/>
</g>
<defs>
<clipPath id="clip0_1345_18338">
<rect width="47" height="44" fill="white"/>
</clipPath>
</defs>
</svg>
