<svg width="57" height="54" viewBox="0 0 57 54" fill="none" xmlns="http://www.w3.org/2000/svg">
<g clip-path="url(#clip0_1345_18344)">
<rect width="56.3945" height="53.1165" transform="translate(0.605469 0.217102)" fill="white"/>
<mask id="mask0_1345_18344" style="mask-type:alpha" maskUnits="userSpaceOnUse" x="0" y="0" width="58" height="54">
<path fill-rule="evenodd" clip-rule="evenodd" d="M2.65825 22.8036C1.34796 21.5693 0.611097 19.8958 0.609375 18.1504V6.80276C0.611097 5.05733 1.34796 3.38384 2.65825 2.14953C3.96854 0.915228 5.74522 0.220948 7.5984 0.219055H19.6486C21.5018 0.220948 23.2785 0.915228 24.5888 2.14953C25.8991 3.38384 26.6359 5.05733 26.6376 6.80276V18.1504C26.6359 19.8958 25.8991 21.5693 24.5888 22.8036C23.2785 24.0379 21.5018 24.7322 19.6486 24.7341H7.5984C5.74522 24.7322 3.96854 24.0379 2.65825 22.8036ZM5.72463 5.03764C5.22767 5.5059 4.94817 6.14068 4.94742 6.80276V18.1504C4.94817 18.8124 5.22767 19.4472 5.72463 19.9155C6.22159 20.3837 6.89545 20.6473 7.5984 20.6482H19.6486C20.3516 20.6473 21.0254 20.3837 21.5224 19.9155C22.0194 19.4472 22.2989 18.8124 22.2996 18.1504V6.80276C22.2989 6.14068 22.0194 5.5059 21.5224 5.03764C21.0254 4.56938 20.3516 4.30586 19.6486 4.30489H7.5984C6.89545 4.30586 6.22159 4.56938 5.72463 5.03764ZM2.65825 51.4042C1.34796 50.1699 0.611097 48.4964 0.609375 46.7509V35.4034C0.611097 33.6579 1.34796 31.9844 2.65825 30.7501C3.96854 29.5158 5.74522 28.8215 7.5984 28.8196H19.6486C21.5018 28.8215 23.2785 29.5158 24.5888 30.7501C25.8991 31.9844 26.6359 33.6579 26.6376 35.4034V46.7509C26.6359 48.4964 25.8991 50.1699 24.5888 51.4042C23.2785 52.6385 21.5018 53.3328 19.6486 53.3346H7.5984C5.74522 53.3328 3.96854 52.6385 2.65825 51.4042ZM5.72463 33.6382C5.22767 34.1065 4.94817 34.7413 4.94742 35.4034V46.7509C4.94817 47.413 5.22767 48.0478 5.72463 48.5161C6.22159 48.9843 6.89545 49.2478 7.5984 49.2488H19.6486C20.3516 49.2478 21.0254 48.9843 21.5224 48.5161C22.0194 48.0478 22.2989 47.413 22.2996 46.7509V35.4034C22.2989 34.7413 22.0194 34.1065 21.5224 33.6382C21.0254 33.17 20.3516 32.9064 19.6486 32.9055H7.5984C6.89545 32.9064 6.22159 33.17 5.72463 33.6382ZM43.9946 0.219055C41.4207 0.219055 38.9045 0.937945 36.7643 2.28482C34.6242 3.63169 32.9561 5.54605 31.9711 7.78581C30.9861 10.0256 30.7284 12.4902 31.2305 14.8679C31.7327 17.2456 32.9722 19.4297 34.7922 21.1439C36.6123 22.8582 38.9312 24.0256 41.4557 24.4985C43.9802 24.9715 46.5969 24.7287 48.9749 23.801C51.3529 22.8733 53.3855 21.3022 54.8155 19.2865C56.2455 17.2707 57.0087 14.9009 57.0087 12.4766C57.005 9.22676 55.6326 6.11109 53.1928 3.81314C50.753 1.51518 47.445 0.222624 43.9946 0.219055ZM43.9946 20.6482C42.2786 20.6482 40.6012 20.169 39.1744 19.271C37.7477 18.3731 36.6356 17.0969 35.979 15.6037C35.3223 14.1105 35.1505 12.4675 35.4852 10.8823C35.82 9.29719 36.6463 7.84114 37.8597 6.69831C39.0731 5.55549 40.619 4.77721 42.302 4.46191C43.985 4.1466 45.7295 4.30843 47.3148 4.92692C48.9002 5.54541 50.2552 6.5928 51.2085 7.93662C52.1619 9.28044 52.6707 10.8604 52.6707 12.4766C52.6683 14.6431 51.7534 16.7203 50.1269 18.2523C48.5003 19.7843 46.2949 20.6459 43.9946 20.6482ZM33.0293 30.7501C34.3396 29.5158 36.1163 28.8215 37.9695 28.8196H50.0197C51.8729 28.8215 53.6496 29.5158 54.9599 30.7501C56.2702 31.9844 57.007 33.6579 57.0087 35.4034V46.7509C57.007 48.4964 56.2702 50.1699 54.9599 51.4042C53.6496 52.6385 51.8729 53.3328 50.0197 53.3346H37.9695C36.1163 53.3328 34.3396 52.6385 33.0293 51.4042C31.719 50.1699 30.9822 48.4964 30.9805 46.7509V35.4034C30.9822 33.6579 31.719 31.9844 33.0293 30.7501ZM52.6707 46.7509V35.4034C52.6699 34.7413 52.3904 34.1065 51.8935 33.6382C51.3965 33.17 50.7227 32.9064 50.0197 32.9055H37.9695C37.2665 32.9064 36.5927 33.17 36.0957 33.6382C35.5988 34.1065 35.3193 34.7413 35.3185 35.4034V46.7509C35.3193 47.413 35.5988 48.0478 36.0957 48.5161C36.5927 48.9843 37.2665 49.2478 37.9695 49.2488H50.0197C50.7227 49.2478 51.3965 48.9843 51.8935 48.5161C52.3904 48.0478 52.6699 47.413 52.6707 46.7509Z" fill="#BDBDBD"/>
</mask>
<g mask="url(#mask0_1345_18344)">
<rect x="-6.60547" y="-8.35712" width="72.2086" height="71.305" fill="url(#paint0_linear_1345_18344)"/>
</g>
</g>
<defs>
<linearGradient id="paint0_linear_1345_18344" x1="-6.60547" y1="4.66976" x2="67.0068" y2="6.50025" gradientUnits="userSpaceOnUse">
<stop offset="0.0500767" stop-color="#FA7558"/>
<stop offset="1" stop-color="#F95A63"/>
</linearGradient>
<clipPath id="clip0_1345_18344">
<rect width="56.3945" height="53.1165" fill="white" transform="translate(0.605469 0.217102)"/>
</clipPath>
</defs>
</svg>
