<svg width="57" height="57" viewBox="0 0 57 57" fill="none" xmlns="http://www.w3.org/2000/svg">
<path d="M31.7125 36.7414L56.9204 11.8411H42.0389C41.9607 10.6528 41.5161 9.54825 40.7583 8.6255L48.9037 1.83768L46.9239 0.190247L38.7786 6.97806C37.5622 6.28367 36.0942 5.87588 34.5087 5.87588C30.4682 5.87588 27.1966 8.52064 26.9813 11.8435H0.996094L26.162 36.6622V51.4542L17.7734 53.7844V56.1146H40.1012V53.7844L31.7125 51.4542V36.7414ZM17.751 21.1619L13.0338 16.5015H27.3504L21.758 21.1619H17.751ZM25.7118 21.1619L30.2417 17.387C31.4581 18.0814 32.9261 18.4891 34.5115 18.4891C36.6814 18.4891 38.6248 17.7179 40.0033 16.4992H44.8883L40.1683 21.1619H25.7118Z" fill="url(#paint0_linear_1345_18363)"/>
<defs>
<linearGradient id="paint0_linear_1345_18363" x1="0.996094" y1="10.4072" x2="58.0084" y2="11.8072" gradientUnits="userSpaceOnUse">
<stop offset="0.0500767" stop-color="#FA7558"/>
<stop offset="1" stop-color="#F95A63"/>
</linearGradient>
</defs>
</svg>
