<svg width="44" height="44" viewBox="0 0 44 44" fill="none" xmlns="http://www.w3.org/2000/svg">
<path d="M20.7608 41.5216C9.31325 41.5216 0 32.2084 0 20.7608C0 9.31325 9.31325 0 20.7608 0C32.2084 0 41.5216 9.31325 41.5216 20.7608C41.5216 32.2084 32.2084 41.5216 20.7608 41.5216Z" fill="#FDBF00"/>
<path d="M20.7617 0V41.5216C32.2093 41.5216 41.5225 32.2084 41.5225 20.7608C41.5225 9.31325 32.2093 0 20.7617 0Z" fill="#FF9100"/>
<path d="M25.7075 35.4385L15.1681 35.4247C14.8454 35.4243 14.5362 35.2956 14.3084 35.0673L6.43716 27.1753C6.20935 26.947 6.08163 26.6372 6.08203 26.3147L6.09671 15.1685C6.09712 14.8458 6.22574 14.5365 6.4541 14.3087L14.3461 6.43748C14.5742 6.21 14.8832 6.08228 15.2051 6.08228H15.2068L25.7075 6.09606L28.1404 7.38445L30.5733 9.82376L31.9674 12.9496L33.0062 12.2632L35.0839 14.3464C35.3118 14.5747 35.4395 14.8844 35.4391 15.207L35.4244 26.3532C35.424 26.6759 35.2954 26.9852 35.067 27.213L33.0062 29.2684L31.7897 28.7135L30.5733 31.6949L28.1404 34.1214L25.7075 35.4385Z" fill="#FFDE46"/>
<path d="M35.085 14.3461L33.0073 12.2629L31.9686 12.9494L30.5744 9.82362L28.1415 7.38431L25.7086 6.09584L20.7617 6.08936V35.4318L25.7086 35.4383L28.1415 34.1211L30.5744 31.6946L31.7909 28.7133L33.0073 29.2681L35.0682 27.2127C35.2965 26.9849 35.4252 26.6757 35.4256 26.353L35.4403 15.2068C35.4407 14.8841 35.3129 14.5745 35.085 14.3461Z" fill="#FFCD00"/>
<path d="M30.5742 31.6947L33.0071 29.2682V12.263L30.5742 9.82373V31.6947Z" fill="#FDBF00"/>
<path d="M28.1399 34.1212V7.38433L27.2123 6.45415C26.9845 6.22578 26.6752 6.09716 26.3526 6.09676L25.707 6.09595V35.4384L26.314 35.4392H26.3157C26.6377 35.4392 26.9466 35.3115 27.1746 35.084L28.1399 34.1212Z" fill="#FDBF00"/>
<g clip-path="url(#clip0_1345_18376)" filter="url(#filter0_d_1345_18376)">
<path d="M20.3579 14.5601L18.845 16.3197L17.7762 15.0367L13.7131 19.757H10.7031L17.8255 11.4346L20.3579 14.5601Z" fill="#FFFBEC"/>
<path d="M30.8193 19.7906L27.8586 19.8232L24.0097 15.0535L17.5624 22.5865L16.082 20.7459L24.0759 11.4346L30.8193 19.7906Z" fill="#FFFBEC"/>
<path d="M25.4246 20.662L17.4633 30.0868L10.7031 21.6657H13.6145L17.4801 26.4353L23.9601 18.853L25.4246 20.662Z" fill="#FFFBEC"/>
<path d="M30.8216 21.7153L23.7002 30.0871L21.1836 26.9291L22.6797 25.1695L23.7002 26.4356L27.779 21.7153H30.8216Z" fill="#FFFBEC"/>
</g>
<defs>
<filter id="filter0_d_1345_18376" x="10.3284" y="10.6851" width="21.6162" height="20.1514" filterUnits="userSpaceOnUse" color-interpolation-filters="sRGB">
<feFlood flood-opacity="0" result="BackgroundImageFix"/>
<feColorMatrix in="SourceAlpha" type="matrix" values="0 0 0 0 0 0 0 0 0 0 0 0 0 0 0 0 0 0 127 0" result="hardAlpha"/>
<feOffset dx="0.374755"/>
<feGaussianBlur stdDeviation="0.374755"/>
<feColorMatrix type="matrix" values="0 0 0 0 0 0 0 0 0 0 0 0 0 0 0 0 0 0 0.25 0"/>
<feBlend mode="normal" in2="BackgroundImageFix" result="effect1_dropShadow_1345_18376"/>
<feBlend mode="normal" in="SourceGraphic" in2="effect1_dropShadow_1345_18376" result="shape"/>
</filter>
<clipPath id="clip0_1345_18376">
<rect width="20.1158" height="18.6523" fill="white" transform="translate(10.7031 11.4346)"/>
</clipPath>
</defs>
</svg>
