<svg width="67" height="67" viewBox="0 0 67 67" fill="none" xmlns="http://www.w3.org/2000/svg">
<path fill-rule="evenodd" clip-rule="evenodd" d="M42.0811 10C42.3403 10 42.5815 10.1374 42.7201 10.3642C42.8591 10.5909 42.8758 10.8758 42.7644 11.1184L36.4689 24.8833H47.3758C47.5465 24.8833 47.712 24.9432 47.8457 25.053C48.173 25.322 48.2279 25.8149 47.9682 26.1539L24.5203 56.7039C24.3143 56.9724 23.9637 57.0709 23.6549 56.9471C23.2653 56.7909 23.0718 56.3371 23.2226 55.9336L31.901 32.7167H23.1716C23.1255 32.7167 23.0797 32.7123 23.0345 32.7036C22.6722 32.6345 22.418 32.3084 22.4151 31.9405H22.4151L22.4151 31.9403C22.4147 31.8912 22.4188 31.8412 22.4278 31.7911L26.2097 10.6411C26.2759 10.2696 26.5887 9.9999 26.9535 10H42.0811ZM17.9811 33.0566H10V33.9434H17.9811V33.0566ZM49.0189 33.0566H57V33.9434H49.0189V33.0566ZM55.9567 10.8868L50.7925 16.0511L51.8357 17.0943L57 11.9301L55.9567 10.8868ZM10 55.0699L15.1643 49.9057L16.2075 50.9489L11.0433 56.1132L10 55.0699ZM51.8357 49.9057L50.7925 50.9489L55.9567 56.1132L57 55.0699L51.8357 49.9057ZM10 11.9301L11.0433 10.8868L16.2075 16.0511L15.1643 17.0943L10 11.9301Z" fill="url(#paint0_linear_1345_18351)"/>
<defs>
<linearGradient id="paint0_linear_1345_18351" x1="10" y1="18.5865" x2="57.9144" y2="19.7631" gradientUnits="userSpaceOnUse">
<stop offset="0.0500767" stop-color="#FA7558"/>
<stop offset="1" stop-color="#F95A63"/>
</linearGradient>
</defs>
</svg>
