<svg width="47" height="47" viewBox="0 0 47 47" fill="none" xmlns="http://www.w3.org/2000/svg">
<path d="M23.3711 0C10.4614 0 -0.00390625 10.4577 -0.00390625 23.358C-0.00390625 36.2583 10.4614 46.716 23.3711 46.716C36.2807 46.716 46.7461 36.2583 46.7461 23.358C46.7324 10.4635 36.2751 0.0137841 23.3711 0ZM33.2152 24.1023C33.0534 24.4266 32.7903 24.6896 32.4656 24.8513V24.8596L19.1085 31.5334C18.2836 31.9452 17.2808 31.611 16.8686 30.7867C16.7514 30.5524 16.691 30.2937 16.6925 30.0318V16.6844C16.6921 15.7629 17.4392 15.0156 18.3614 15.0151C18.6207 15.015 18.8766 15.0752 19.1085 15.1911L32.4656 21.8648C33.2909 22.2758 33.6266 23.2776 33.2152 24.1023Z" fill="url(#paint0_linear_1345_18373)"/>
<defs>
<linearGradient id="paint0_linear_1345_18373" x1="-0.00390635" y1="8.53467" x2="47.6556" y2="9.70582" gradientUnits="userSpaceOnUse">
<stop offset="0.0500767" stop-color="#FA7558"/>
<stop offset="1" stop-color="#F95A63"/>
</linearGradient>
</defs>
</svg>
