<svg width="283" height="200" viewBox="0 0 283 200" fill="none" xmlns="http://www.w3.org/2000/svg">
<path d="M233.386 129.566C222.59 126.535 202.204 137.558 191.422 118.598C184.533 106.483 209.934 108.284 191.422 86.7452C172.91 65.2067 142.002 71.0085 130.432 77.0757C93.8812 21.3333 8.94687 68.3546 2.89891 92.623C-3.65327 118.915 42.9011 125.025 26.8493 137.759C2.24161 157.28 25.7105 187.612 58.8409 191.803C89.1104 195.631 176.008 209.878 216.978 185.862C233.386 176.243 242.414 169.875 245.833 161.533C253.276 143.37 253.477 133.399 233.386 129.566Z" fill="#A6EAEA" fill-opacity="0.56"/>
<ellipse cx="47.1363" cy="33.8707" rx="24.9125" ry="25.5851" transform="rotate(25.7657 47.1363 33.8707)" fill="#CCF2F2"/>
<ellipse cx="211.413" cy="35.0368" rx="8.41341" ry="8.64058" transform="rotate(-163.141 211.413 35.0368)" fill="#CCF2F2"/>
<ellipse cx="244.391" cy="82.3275" rx="31.6822" ry="23.2024" transform="rotate(-155.55 244.391 82.3275)" fill="#CCF2F2"/>
<path d="M23.679 107.322C24.2397 105.597 26.681 105.597 27.2417 107.322L30.756 118.138C31.0068 118.91 31.726 119.433 32.5374 119.433L43.91 119.433C45.7244 119.433 46.4789 121.754 45.0109 122.821L35.8103 129.506C35.1538 129.982 34.8792 130.828 35.1299 131.6L38.6442 142.416C39.2049 144.141 37.2298 145.576 35.7619 144.51L26.5613 137.825C25.9048 137.348 25.0159 137.348 24.3594 137.825L15.1588 144.51C13.6909 145.576 11.7158 144.141 12.2765 142.416L15.7908 131.6C16.0416 130.828 15.7669 129.982 15.1104 129.506L5.90979 122.821C4.44186 121.754 5.19628 119.433 7.01074 119.433L18.3833 119.433C19.1948 119.433 19.9139 118.91 20.1647 118.138L23.679 107.322Z" fill="#FFD568"/>
<path d="M74.3161 107.39C74.8731 105.656 77.3256 105.656 77.8826 107.39L81.3343 118.132C81.5832 118.907 82.3039 119.433 83.1176 119.433L94.3317 119.433C96.1411 119.433 96.8988 121.744 95.4407 122.815L86.3324 129.507C85.6832 129.984 85.4117 130.822 85.6581 131.589L89.1287 142.391C89.6843 144.12 87.7002 145.548 86.2364 144.473L77.2083 137.84C76.5485 137.355 75.6502 137.355 74.9904 137.84L65.9623 144.473C64.4984 145.548 62.5144 144.12 63.07 142.391L66.5406 131.589C66.787 130.822 66.5154 129.984 65.8663 129.507L56.758 122.815C55.2999 121.744 56.0576 119.433 57.867 119.433L69.0811 119.433C69.8948 119.433 70.6155 118.907 70.8644 118.132L74.3161 107.39Z" fill="#FFD568"/>
<path d="M175.59 107.39C176.146 105.656 178.599 105.656 179.156 107.39L182.608 118.132C182.857 118.907 183.577 119.433 184.391 119.433L195.605 119.433C197.415 119.433 198.172 121.744 196.714 122.815L187.606 129.507C186.957 129.984 186.685 130.822 186.932 131.589L190.402 142.391C190.958 144.12 188.974 145.548 187.51 144.473L178.482 137.84C177.822 137.355 176.924 137.355 176.264 137.84L167.236 144.473C165.772 145.548 163.788 144.12 164.343 142.391L167.814 131.589C168.06 130.822 167.789 129.984 167.14 129.507L158.031 122.815C156.573 121.744 157.331 119.433 159.14 119.433L170.355 119.433C171.168 119.433 171.889 118.907 172.138 118.132L175.59 107.39Z" fill="#FFD568"/>
<path d="M124.952 107.322C125.513 105.597 127.954 105.597 128.515 107.322L132.029 118.138C132.28 118.91 132.999 119.433 133.811 119.433L145.183 119.433C146.998 119.433 147.752 121.754 146.284 122.821L137.084 129.506C136.427 129.982 136.153 130.828 136.403 131.6L139.918 142.416C140.478 144.141 138.503 145.576 137.035 144.51L127.835 137.825C127.178 137.348 126.289 137.348 125.633 137.825L116.432 144.51C114.964 145.576 112.989 144.141 113.55 142.416L117.064 131.6C117.315 130.828 117.04 129.982 116.384 129.506L107.183 122.821C105.715 121.754 106.47 119.433 108.284 119.433L119.657 119.433C120.468 119.433 121.187 118.91 121.438 118.138L124.952 107.322Z" fill="#FFD568"/>
<path d="M226.232 107.322C226.792 105.597 229.234 105.597 229.794 107.322L233.309 118.138C233.56 118.91 234.279 119.433 235.09 119.433L246.463 119.433C248.277 119.433 249.032 121.754 247.564 122.821L238.363 129.506C237.707 129.982 237.432 130.828 237.683 131.6L241.197 142.416C241.758 144.141 239.783 145.576 238.315 144.51L229.114 137.825C228.458 137.348 227.569 137.348 226.912 137.825L217.712 144.51C216.244 145.576 214.269 144.141 214.829 142.416L218.344 131.6C218.594 130.828 218.32 129.982 217.663 129.506L208.463 122.821C206.995 121.754 207.749 119.433 209.563 119.433L220.936 119.433C221.747 119.433 222.467 118.91 222.717 118.138L226.232 107.322Z" fill="#FFD568"/>
</svg>
