<svg width="50" height="50" viewBox="0 0 50 50" fill="none" xmlns="http://www.w3.org/2000/svg">
<g clip-path="url(#clip0_1312_21092)">
<path d="M23.7811 15.446L21.5877 17.9755L20.0381 16.1312L14.1473 22.9168H9.7832L20.1096 10.953L23.7811 15.446Z" fill="url(#paint0_linear_1312_21092)"/>
<path d="M38.9478 22.9651L34.6553 23.012L29.075 16.1554L19.7273 26.9843L17.5811 24.3384L29.1709 10.9531L38.9478 22.9651Z" fill="url(#paint1_linear_1312_21092)"/>
<path d="M31.1271 24.2178L19.5845 37.7662L9.7832 25.6606H14.0042L19.6088 32.5171L29.0037 21.6173L31.1271 24.2178Z" fill="url(#paint2_linear_1312_21092)"/>
<path d="M38.9482 25.7316L28.6233 37.7663L24.9746 33.2265L27.1438 30.697L28.6233 32.5171L34.5369 25.7316H38.9482Z" fill="url(#paint3_linear_1312_21092)"/>
</g>
<defs>
<linearGradient id="paint0_linear_1312_21092" x1="11.5704" y1="10.1419" x2="15.9061" y2="25.1563" gradientUnits="userSpaceOnUse">
<stop offset="0.177083" stop-color="#B3B3B3"/>
<stop offset="0.421123" stop-color="white"/>
<stop offset="0.703125" stop-color="#C4C3C2"/>
</linearGradient>
<linearGradient id="paint1_linear_1312_21092" x1="20.309" y1="9.86633" x2="25.5009" y2="30.3467" gradientUnits="userSpaceOnUse">
<stop offset="0.177083" stop-color="#B3B3B3"/>
<stop offset="0.421123" stop-color="white"/>
<stop offset="0.703125" stop-color="#C4C3C2"/>
</linearGradient>
<linearGradient id="paint2_linear_1312_21092" x1="12.5083" y1="20.5225" x2="17.7769" y2="41.1323" gradientUnits="userSpaceOnUse">
<stop offset="0.177083" stop-color="#B3B3B3"/>
<stop offset="0.421123" stop-color="white"/>
<stop offset="0.703125" stop-color="#C4C3C2"/>
</linearGradient>
<linearGradient id="paint3_linear_1312_21092" x1="26.7587" y1="24.9157" x2="31.1484" y2="40.0011" gradientUnits="userSpaceOnUse">
<stop offset="0.177083" stop-color="#B3B3B3"/>
<stop offset="0.421123" stop-color="white"/>
<stop offset="0.703125" stop-color="#C4C3C2"/>
</linearGradient>
<clipPath id="clip0_1312_21092">
<rect width="29.1649" height="26.8132" fill="white" transform="translate(9.7832 10.953)"/>
</clipPath>
</defs>
</svg>
