<svg width="79" height="85" viewBox="0 0 79 85" fill="none" xmlns="http://www.w3.org/2000/svg">
<path d="M16.9933 0.455273L18.3641 4.30966C18.4229 4.47468 18.5389 4.6055 18.6857 4.67157L22.1102 6.21452C22.594 6.4325 22.594 7.20331 22.1102 7.42129L18.6857 8.96424C18.5391 9.03031 18.4229 9.16113 18.3641 9.32615L16.9933 13.1805C16.7997 13.7251 16.1147 13.7251 15.9212 13.1805L14.5504 9.32615C14.4916 9.16113 14.3756 9.03031 14.2288 8.96424L10.8042 7.42129C10.3205 7.20331 10.3205 6.4325 10.8042 6.21452L14.2288 4.67157C14.3754 4.6055 14.4916 4.47468 14.5504 4.30966L15.9212 0.455273C16.1149 -0.0892578 16.7997 -0.0892578 16.9933 0.455273Z" fill="#FFB803"/>
<path d="M68.5514 55.8861L69.5683 58.7452C69.6118 58.8676 69.6979 58.9647 69.8068 59.0136L72.347 60.1582C72.706 60.3199 72.706 60.8916 72.347 61.0533L69.8068 62.1978C69.6981 62.2468 69.6119 62.3439 69.5683 62.4663L68.5514 65.3254C68.4078 65.7293 67.8998 65.7293 67.756 65.3254L66.7392 62.4663C66.6957 62.3439 66.6095 62.2468 66.5008 62.1978L63.9606 61.0533C63.6017 60.8916 63.6017 60.3199 63.9606 60.1582L66.5008 59.0136C66.6095 58.9647 66.6957 58.8676 66.7392 58.7452L67.756 55.8861C67.8998 55.482 68.4078 55.482 68.5514 55.8861Z" fill="#FFB803"/>
<path d="M4.95768 13.6545L5.97453 16.5136C6.01802 16.636 6.10419 16.7331 6.21293 16.7821L8.75313 17.9266C9.11206 18.0883 9.11206 18.66 8.75313 18.8217L6.21293 19.9663C6.10419 20.0152 6.01802 20.1123 5.97453 20.2347L4.95768 23.0938C4.81408 23.4977 4.30607 23.4977 4.1623 23.0938L3.14546 20.2347C3.10196 20.1123 3.0158 20.0152 2.90689 19.9663L0.366851 18.8217C0.00792478 18.66 0.00792478 18.0883 0.366851 17.9266L2.90706 16.7821C3.0158 16.7331 3.10196 16.636 3.14562 16.5136L4.16247 13.6545C4.30607 13.2506 4.81408 13.2506 4.95768 13.6545Z" fill="#FFB803"/>
<path d="M4.93394 4.66407C4.93394 5.37711 4.35587 5.95534 3.64283 5.95534C2.92979 5.95534 2.35156 5.37727 2.35156 4.66407C2.35156 3.95103 2.92963 3.3728 3.64283 3.3728C4.35587 3.37297 4.93394 3.95103 4.93394 4.66407Z" fill="#FFB803"/>
<path d="M76.5122 53.3389C77.8285 53.3389 78.8955 52.2719 78.8955 50.9556C78.8955 49.6393 77.8285 48.5723 76.5122 48.5723C75.196 48.5723 74.1289 49.6393 74.1289 50.9556C74.1289 52.2719 75.196 53.3389 76.5122 53.3389Z" fill="#FFB803"/>
<path d="M15.8225 70.4279V68.6064L17.0368 64.3564L17.644 55.2493L20.6797 52.8207L25.5368 54.035L27.3583 57.6779L27.9654 69.8207L29.7868 70.4279L32.8225 67.9993L43.7511 57.6779L44.3583 54.6422L20.0725 30.3564L8.53683 41.285L3.67969 55.2493L8.53683 66.1779L15.8225 70.4279Z" fill="#FFB803"/>
<path d="M78.937 42.3216C78.6864 41.4348 77.7651 40.9183 76.8774 41.1695L48.9406 49.0614L26.4586 26.5792L33.4022 2.12494C33.6539 1.23841 33.1392 0.31553 32.2527 0.0636848C31.3662 -0.187497 30.4435 0.326654 30.1916 1.21318L23.6924 24.1026C23.0895 23.7915 22.4171 23.6258 21.719 23.6258C20.567 23.6258 19.4841 24.0742 18.6696 24.8888C17.2001 26.3584 17.0151 28.6333 18.1145 30.3061L8.07385 40.3467C0.498057 47.9227 0.498057 60.2497 8.07385 67.8258C10.1803 69.9322 12.6547 71.4507 15.2915 72.3856V76.3754H4.32023C1.94239 76.3754 0.0078125 78.31 0.0078125 80.6879C0.0078125 83.0657 1.94239 85.0003 4.32023 85.0003H40.3396C42.7175 85.0003 44.6521 83.0657 44.6521 80.6879C44.6521 78.31 42.7175 76.3754 40.3396 76.3754H29.3685V71.9853C31.6175 71.0399 33.7238 69.6546 35.5528 67.8258L45.5934 57.7852C46.3091 58.2557 47.1352 58.4909 47.9611 58.4909C49.0654 58.4909 50.1698 58.0704 51.0105 57.2298C51.8249 56.4154 52.2735 55.3325 52.2735 54.1805C52.2735 53.3174 52.0217 52.4931 51.5528 51.7913L77.7848 44.3811C78.6717 44.1307 79.1876 43.2087 78.937 42.3216ZM41.3145 80.6877C41.3145 81.2251 40.8772 81.6625 40.3396 81.6625H4.32023C3.78268 81.6625 3.34539 81.2251 3.34539 80.6877C3.34539 80.1503 3.78268 79.7128 4.32023 79.7128H40.3396C40.8772 79.7128 41.3145 80.1503 41.3145 80.6877ZM18.6288 76.3754V58.4648C18.6288 56.424 20.2891 54.7637 22.3299 54.7637C24.3708 54.7637 26.0311 56.424 26.0311 58.4648V76.3754H18.6288ZM33.1927 65.4657C32.047 66.6114 30.7589 67.5627 29.3685 68.3037V58.4648C29.3685 54.5837 26.2111 51.4263 22.3299 51.4263C18.4488 51.4263 15.2914 54.5837 15.2914 58.4648V68.8068C13.5032 68.0142 11.8583 66.8905 10.4338 65.4657C7.39418 62.4261 5.72024 58.385 5.72024 54.0862C5.72024 49.7875 7.39418 45.7464 10.4338 42.7066L20.4111 32.7293L43.1702 55.4882L33.1927 65.4657ZM48.6504 54.8699C48.2704 55.2499 47.6518 55.2499 47.2716 54.8699L21.0294 28.6278C20.6494 28.2477 20.6492 27.6291 21.0294 27.2491C21.2135 27.065 21.4584 26.9635 21.7187 26.9635C21.9792 26.9635 22.2239 27.065 22.408 27.2491L48.6502 53.4913C48.8343 53.6754 48.9358 53.9203 48.9358 54.1806C48.9359 54.4411 48.8345 54.6858 48.6504 54.8699Z" fill="#FFB803"/>
<path d="M16.7898 44.177C16.3625 44.177 15.9354 44.014 15.6095 43.6879C14.958 43.036 14.9584 41.9795 15.6101 41.3279L16.0627 40.8753C16.7145 40.2239 17.7708 40.2239 18.4228 40.8753C19.0746 41.5271 19.0746 42.5836 18.4228 43.2354L17.9696 43.6886C17.6437 44.0142 17.2167 44.177 16.7898 44.177Z" fill="#E4E3E3"/>
<path d="M12.3484 48.6165C11.9213 48.6165 11.4943 48.4535 11.1684 48.1278C10.5168 47.4762 10.5168 46.4195 11.1684 45.7677L12.4378 44.4983C13.0895 43.8469 14.1459 43.8469 14.7978 44.4983C15.4494 45.1501 15.4494 46.2067 14.7978 46.8584L13.5285 48.1278C13.2026 48.4537 12.7756 48.6165 12.3484 48.6165Z" fill="#EEEAEA"/>
</svg>
