<svg width="54" height="56" viewBox="0 0 54 56" fill="none" xmlns="http://www.w3.org/2000/svg">
<path d="M45.7367 13.3147C46.2176 39.8831 29.2131 50.8791 24.8343 53.2668C24.1905 53.6178 23.4211 53.6513 22.7507 53.3542C18.2705 51.3681 1.2348 41.9205 1.89773 13.3148L1.89844 13.3147C7.38786 12.4176 11.3953 7.84956 11.373 2.51491L11.3722 2.32617H36.2622L36.2613 2.51562C36.2394 7.85027 40.2472 12.418 45.7367 13.3147Z" fill="white"/>
<path d="M34.2797 43.828C33.6359 44.179 32.8665 44.2125 32.1962 43.9154C27.7159 41.9293 10.6802 32.4817 11.3432 3.87597L11.3439 3.87586L11.3582 3.09375C11.1019 8.17808 7.18925 12.453 1.89844 13.3176L1.89773 13.3178C1.2348 41.9235 18.2705 51.3711 22.7507 53.3572C23.4211 53.6544 24.1905 53.6208 24.8343 53.2698C27.0899 52.0399 32.6955 48.5255 37.5358 41.7755C36.176 42.742 35.0382 43.4144 34.2797 43.828C35.0382 43.4144 33.6359 44.179 34.2797 43.828Z" fill="#E6E7E8"/>
<path d="M21.987 55.0739C6.02268 47.6017 -0.369307 29.9126 0.0163985 13.2723C0.0373173 12.3699 0.696613 11.6098 1.58719 11.4614C6.03996 10.7338 9.59099 6.93398 9.49039 2.33525C9.48592 1.3074 10.3425 0.447266 11.3706 0.447266H36.2607C37.2888 0.447266 38.1455 1.3074 38.1412 2.33525C38.0406 6.93057 41.5872 10.7333 46.0385 11.4603C46.9352 11.6067 47.5989 12.3735 47.6154 13.2817C47.7149 18.7797 47.0845 24.0105 45.7419 28.8289L42.119 27.8199C43.2447 23.7807 43.83 19.4137 43.8633 14.819C38.9938 13.42 35.1743 9.27547 34.4902 4.20725H13.1412C12.4567 9.27923 8.63189 13.426 3.75769 14.822C3.73184 29.2605 9.36523 45.3655 23.5114 51.6367C23.6465 51.6966 23.8 51.6897 23.9325 51.6174C24.9467 51.0643 26.5546 50.0907 28.4545 48.5933L30.7827 51.5462C28.6769 53.2057 26.8744 54.2959 25.7331 54.9183C25.105 55.2609 23.6006 55.8291 21.987 55.0739Z" fill="#3E4D6C"/>
<path d="M34.9103 37.5288H12.0078V33.8202C12.0078 27.5251 17.1109 22.4219 23.4061 22.4219H23.512C29.807 22.4219 34.9103 27.525 34.9103 33.8202V37.5288Z" fill="white"/>
<path d="M23.4614 23.8971C27.4118 23.8971 30.6142 20.7 30.6142 16.7562C30.6142 12.8123 27.4118 9.61523 23.4614 9.61523C19.511 9.61523 16.3086 12.8123 16.3086 16.7562C16.3086 20.7 19.511 23.8971 23.4614 23.8971Z" fill="white"/>
<path d="M30.4292 22.4911C31.7184 20.9313 32.4937 18.9331 32.4937 16.7573C32.4937 11.7831 28.4414 7.73633 23.4605 7.73633C18.4796 7.73633 14.4274 11.7832 14.4274 16.7573C14.4274 18.9334 15.2029 20.932 16.4926 22.492C12.6796 24.8274 10.1289 29.0297 10.1289 33.8184V37.5291C10.1289 38.5674 10.9708 39.4091 12.0094 39.4091H34.9117C35.9502 39.4091 36.7922 38.5674 36.7922 37.5291V33.8184C36.7921 29.0298 34.2421 24.8266 30.4292 22.4911ZM23.4605 11.4963C26.3678 11.4963 28.7329 13.8564 28.7329 16.7573C28.7329 19.6582 26.3678 22.0182 23.4605 22.0182C20.5534 22.0182 18.1882 19.6582 18.1882 16.7573C18.1882 13.8564 20.5533 11.4963 23.4605 11.4963ZM33.0312 35.6492H13.8897V33.8186C13.8897 29.8419 16.3432 26.4289 19.8154 25.0085C22.1195 26.0276 24.8015 26.0276 27.1056 25.0085C30.5778 26.4289 33.0312 29.8419 33.0312 33.8186V35.6492Z" fill="#3E4D6C"/>
<path d="M42.2096 53.7857C48.366 53.7857 53.3568 48.8188 53.3568 42.6917C53.3568 36.5646 48.366 31.5977 42.2096 31.5977C36.0532 31.5977 31.0625 36.5646 31.0625 42.6917C31.0625 48.8188 36.0532 53.7857 42.2096 53.7857Z" fill="#0795FE"/>
<path d="M38.8027 47.4572L35.2676 43.3696L38.1124 40.9103L40.3161 43.4583L46.4762 37.2148L49.1536 39.8554L41.5638 47.5478C41.2099 47.9065 39.9199 48.4867 38.8027 47.4572Z" fill="white"/>
</svg>
