<svg width="106" height="106" viewBox="0 0 106 106" fill="none" xmlns="http://www.w3.org/2000/svg">
<path d="M80.1463 98.05V7.95C82.5594 7.95 84.4553 8.59042 85.8342 9.87125C87.213 11.1521 87.9024 13.1617 87.9024 15.9V90.1C87.9024 92.8383 87.213 94.8479 85.8342 96.1288C84.4553 97.4096 82.5594 98.05 80.1463 98.05ZM7.7561 106C5.60163 106 3.77033 105.227 2.2622 103.681C0.754065 102.135 0 100.258 0 98.05V7.95C0 5.74167 0.754065 3.86458 2.2622 2.31875C3.77033 0.772917 5.60163 0 7.7561 0H59.4634C61.6179 0 63.4492 0.772917 64.9573 2.31875C66.4655 3.86458 67.2195 5.74167 67.2195 7.95V98.05C67.2195 100.258 66.4655 102.135 64.9573 103.681C63.4492 105.227 61.6179 106 59.4634 106H7.7561ZM100.829 89.9675V16.165C102.553 16.165 103.846 16.5404 104.707 17.2912C105.569 18.0421 106 19.4333 106 21.465V84.6675C106 86.6992 105.569 88.0904 104.707 88.8413C103.846 89.5921 102.553 89.9675 100.829 89.9675ZM7.7561 98.05H59.4634V7.95H7.7561V98.05Z" fill="url(#paint0_linear_1628_20449)"/>
<defs>
<linearGradient id="paint0_linear_1628_20449" x1="-2.16042e-07" y1="19.3654" x2="108.062" y2="22.0189" gradientUnits="userSpaceOnUse">
<stop offset="0.0500767" stop-color="#FA7558"/>
<stop offset="1" stop-color="#F95A63"/>
</linearGradient>
</defs>
</svg>
