<svg width="247" height="190" viewBox="0 0 247 190" fill="none" xmlns="http://www.w3.org/2000/svg">
<path d="M49.1293 86.3614C41.8313 51.4379 70.2585 31.4749 83.5835 27.1601C138.597 0.509991 166.008 30.3961 170.958 43.5308C174.917 54.0386 180.286 55.7138 187.519 55.7138C199.13 55.7138 211.123 65.7763 217.062 72.7814C223.001 79.7866 221.134 101.019 213.647 108.443C221.769 106.349 233.063 112.44 244.485 139.852C255.906 167.263 223.879 182.682 197.037 188.393C167.531 189.535 99.5737 193.723 62.0738 181.35C49.1293 177.079 41.8312 166.906 39.0565 157.515C33.0153 137.068 44.7333 111.886 61.0406 107.571C75.7675 99.2474 53.3568 98.8205 49.1293 86.3614Z" fill="#A6EAEA" fill-opacity="0.56"/>
<ellipse cx="198.852" cy="26.5332" rx="18.7958" ry="19.3033" transform="rotate(-34.2343 198.852 26.5332)" fill="#CCF2F2"/>
<circle cx="132.331" cy="103.302" r="78.7609" fill="#4183E7"/>
<path d="M80.0622 68.1281C79.1395 66.8116 78.6412 65.6644 78.2375 64.4306C77.429 61.9597 73.2932 60.9654 70.6939 60.9104C67.9429 60.8521 68.6096 58.0912 70.1125 55.7862C79.6069 41.2236 97.6287 32.327 110.387 28.1181C112.723 27.3474 114.262 30.064 112.523 31.8035C112.346 31.9801 112.144 32.1288 111.923 32.2447L105.567 35.574C104.695 36.0307 104.149 36.9335 104.149 37.9177C104.149 39.8623 106.205 41.1286 108.127 40.8334C110.284 40.5021 112.257 40.9406 112.257 43.4593C112.257 47.1239 121.899 48.373 128.472 48.6218C130.13 48.6846 131.765 48.3287 133.359 47.8707C137.652 46.6375 145.099 45.4201 152.795 46.934C159.525 48.2578 158.643 53.0751 156.159 57.2205C154.342 60.2537 150.794 61.6052 147.258 61.6052H139.859C134.511 61.6052 130.868 65.9498 126.721 69.3271C126.209 69.7443 125.744 69.8082 125.383 69.3268C124.825 68.5826 123.875 67.6268 122.825 66.6617C120.131 64.1862 116.378 63.3213 112.776 63.9603L103.981 65.5207C98.5399 66.4861 94.1753 71.5273 96.4473 76.5648C96.6646 77.0465 96.903 77.5372 97.164 78.0466C97.6737 79.0408 98.5008 79.8325 99.4926 80.3467C101.689 81.4855 102.891 83.9188 102.461 86.3551L100.749 96.0566C100.454 97.7296 100.834 99.4514 101.807 100.844C104.457 104.641 110.269 104.458 113.824 101.49C115.253 100.297 116.818 99.2753 118.434 98.6691C121.867 97.3816 126.059 101.921 129.182 106.604C131.506 110.087 134.982 112.768 139.117 113.43L146.92 114.678C151.868 115.47 154.757 120.698 152.795 125.309C150.221 131.679 144.688 144.42 143.143 144.42C141.213 144.42 135.229 148.667 135.229 151.369C135.229 153.252 131.129 159.859 128.285 164.127C127.545 165.238 127.235 166.583 127.441 167.902C128.165 172.548 122.826 175.753 118.959 173.077C116.06 171.071 113.478 169.411 112.257 168.936C108.782 167.585 103.184 161.601 103.184 156.582C103.184 153.718 98.666 148.785 94.4641 144.907C91.8245 142.471 90.8267 138.658 92.2205 135.348C93.5761 132.129 92.6088 128.503 89.9293 126.262C89.7117 126.08 89.496 125.896 89.2819 125.707C85.4878 122.37 87.1888 116.37 91.9642 114.719C92.0401 114.693 92.1161 114.667 92.1922 114.641C97.7468 112.761 101.713 107.029 97.9841 102.503C97.7187 102.181 97.4407 101.855 97.1489 101.521C95.4949 99.6303 94.4174 97.2896 94.2458 94.7834C93.8388 88.837 93.3636 84.2423 92.0442 78.9227C90.9421 74.4796 86.5757 72.1999 82.4712 70.173C82.4119 70.1437 82.3526 70.1139 82.2933 70.0835C81.4013 69.6263 80.6375 68.9489 80.0622 68.1281Z" fill="#5DF05A"/>
<path d="M173.47 69.4032L174.693 66.903C175.586 65.0774 177.232 64.6831 177.916 66.597C179.104 69.9196 179.854 75.2312 178.276 75.8885C177.385 76.2597 176.161 75.9021 174.973 75.2877C172.87 74.2002 172.429 71.5299 173.47 69.4032Z" fill="#5DF05A"/>
<path d="M177.119 49.0537C176.636 46.8775 177.148 45.0974 177.958 43.7738C179.064 41.9672 181.51 42.1453 183.137 43.5024C199.533 57.1825 206.824 75.8102 209.088 86.4847C209.575 88.7766 207.024 91.1589 207.009 88.816C207.007 88.6403 207.018 88.449 207.041 88.2411C207.324 85.6952 204.282 85.7616 202.334 86.1863C202.003 86.2585 201.658 86.2476 201.339 86.1303C200.061 85.6593 200.811 83.1212 199.546 82.6171C199.106 82.442 198.307 82.3657 197.003 82.4498C195.869 82.523 194.626 82.6048 193.353 82.6896C189.107 82.9725 186.429 78.1957 188.895 74.7282C190.568 71.7039 193.798 65.4236 193.335 64.497C192.98 63.7867 191.846 63.9385 190.959 64.222C190.476 64.3763 189.992 64.5372 189.489 64.5988C187.592 64.8307 184.625 65.0355 183.683 64.497C182.899 64.049 182.135 61.0695 181.627 58.4597C181.304 56.8 180.247 55.3258 179.247 53.9626C178.432 52.8518 177.606 51.2415 177.119 49.0537Z" fill="#5DF05A"/>
<ellipse cx="18.7329" cy="169.087" rx="13.3377" ry="13.6978" transform="rotate(-34.2343 18.7329 169.087)" fill="#CCF2F2"/>
<ellipse cx="55.015" cy="22.6213" rx="6.3477" ry="6.51909" transform="rotate(-34.2343 55.015 22.6213)" fill="#CCF2F2"/>
<ellipse cx="26.6331" cy="49.9392" rx="23.9034" ry="17.5056" transform="rotate(-68.9393 26.6331 49.9392)" fill="#CCF2F2"/>
</svg>
