<svg width="364" height="259" viewBox="0 0 364 259" fill="none" xmlns="http://www.w3.org/2000/svg">
<path d="M61.9373 114.885C52.6213 70.3046 94.0863 59.3046 152.119 59.3046C188.9 26.6104 219.514 53.1285 225.831 69.8951C230.886 83.3084 216.598 105.622 225.831 105.622C240.653 105.622 266.597 105.943 274.178 114.885C281.76 123.827 305.976 129.052 294.068 153.846C277.448 188.447 303.058 174.552 319.69 192.85C345.187 220.901 293.386 247.524 259.122 254.814C221.458 256.272 134.709 261.618 86.8395 245.823C70.3158 240.371 60.9996 227.386 57.4577 215.398C49.7459 189.297 52.5635 162.896 73.38 157.388C92.1791 146.762 67.3337 130.789 61.9373 114.885Z" fill="#A6EAEA" fill-opacity="0.56"/>
<path d="M253.408 101.169C248.842 107.26 257.55 118.179 262.711 123.065C277.496 121.628 282.703 113.47 282.846 109.243C282.146 99.3499 273.533 99.585 269.274 101.425C266.13 96.7705 259.146 93.5136 253.408 101.169Z" fill="#E65C68"/>
<path d="M178.866 70.4877C177.913 72.8168 175.117 74.8988 173.837 75.6487L173.705 75.9134V93.7785C174.552 95.8959 177.146 96.8663 178.337 97.0869C184.689 97.2633 197.605 97.5104 198.452 97.0869C199.51 96.5576 200.569 96.0282 200.701 94.1755C200.807 92.6934 199.246 91.8817 198.452 91.6612C201.363 91.6612 202.554 90.7348 202.819 88.3528C203.03 86.4472 201.231 85.5297 200.304 85.3091C201.495 85.4856 203.613 85.0445 203.613 82.2654C203.613 79.3992 201.319 78.9571 200.304 79.0894C200.569 78.9571 202.554 78.4277 202.819 75.9134C203.03 73.9019 201.231 72.8697 200.04 72.7374H191.835C190.909 72.7374 189.585 71.9433 188.262 70.4877C187.203 69.3231 187.997 64.0033 188.527 61.4889C188.262 57.6512 185.351 56.7249 184.557 56.5925C183.921 56.4867 183.498 56.9896 183.365 57.2542C182.263 60.6949 179.819 68.1586 178.866 70.4877Z" fill="white"/>
<rect x="166.559" y="72.8691" width="7.14606" height="24.3495" rx="1.83451" fill="#22A3DB"/>
<ellipse cx="331.271" cy="160.761" rx="23.9931" ry="24.641" transform="rotate(25.7657 331.271 160.761)" fill="#CCF2F2"/>
<ellipse cx="260.299" cy="80.6729" rx="8.10293" ry="8.32172" transform="rotate(25.7657 260.299 80.6729)" fill="#CCF2F2"/>
<ellipse cx="250.305" cy="35.4426" rx="30.513" ry="22.3461" transform="rotate(33.357 250.305 35.4426)" fill="#CCF2F2"/>
<ellipse cx="185.907" cy="162.654" rx="19.3442" ry="23.431" fill="#DC8D46"/>
<path d="M156.918 196.071L176.879 187.049C177.492 186.772 178.157 186.629 178.83 186.629H193.538C194.096 186.629 194.651 186.728 195.175 186.921L215.298 194.335C216.986 194.957 218.176 196.481 218.37 198.27L224.456 254.488C224.531 255.181 224.032 255.803 223.338 255.865C212.941 256.792 197.307 256.31 189.718 256.833C181.491 257.401 164.297 257.118 151.818 255.827C151.374 255.781 151.049 255.394 151.074 254.948L154.139 200.123C154.238 198.36 155.309 196.798 156.918 196.071Z" fill="#505255"/>
<path d="M184.035 228.08L189.303 234.298L190.289 256.266" stroke="#696969" stroke-width="0.83932"/>
<circle cx="183.896" cy="237.583" r="1.39976" fill="#FFB74D" stroke="#CE8C2B" stroke-width="0.947392"/>
<circle cx="183.896" cy="246.597" r="1.39976" fill="#FFB74D" stroke="#CE8C2B" stroke-width="0.947392"/>
<path d="M165.131 219.508L166.828 253.429" stroke="#696969" stroke-width="0.83932" stroke-linecap="round"/>
<path d="M209.936 216.213C209.941 215.981 210.132 215.797 210.364 215.801C210.596 215.806 210.78 215.998 210.775 216.229L209.936 216.213ZM210.775 216.229L210.038 253.415L209.199 253.399L209.936 216.213L210.775 216.229Z" fill="#696969"/>
<path d="M181.542 218.881L179.41 191.205L182.367 193.617L185.394 200.114L189.082 193.617H190.556H192.046L192.391 215L189.517 220.045L185.749 225.538L183.569 222.187L181.542 218.881Z" fill="white"/>
<path d="M186.07 205.418V227.918" stroke="#E0E0E0" stroke-width="0.473696" stroke-linecap="round"/>
<path d="M179.094 176.822H192.716L194.896 195.894H176.914L179.094 176.822Z" fill="#DC8D46"/>
<path d="M182.091 196.44L180.184 197.53L184.815 200.527L182.908 196.168L182.091 196.44Z" fill="#D9D9D9"/>
<path d="M189.989 196.985L191.896 198.348L190.534 201.345L188.899 196.713L189.989 196.985Z" fill="#D9D9D9"/>
<path d="M172.824 189.898L178.273 186.629L184.568 211.099L186.174 231.311L177.183 213.602L170.645 202.159L174.106 199.773H170.645L172.824 189.898Z" fill="#7D7777"/>
<path d="M200.616 189.626L194.077 186.629L186.687 210.933L186.687 232.946L192.151 222.818L196.529 213.329L201.434 201.341L197.264 199.502H201.434L200.616 189.626Z" fill="#7D7777"/>
<path d="M186.177 196.167L178.255 186.086L176.369 201.066L181.278 197.155L186.177 196.167Z" fill="white"/>
<path d="M185.906 196.165L193.868 186.629L195.273 201.449L190.707 197.537L185.906 196.165Z" fill="white"/>
<path d="M181.271 240.031L184.813 200.525H187.265L195.167 240.031L188.628 247.932L181.271 240.031Z" fill="#F24141"/>
<path d="M186.648 201.187C186.352 201.441 185.916 201.448 185.615 201.199C184.074 199.923 183.299 198.806 182.678 196.947C182.503 196.422 182.907 195.894 183.461 195.894L188.877 195.894C189.411 195.894 189.815 196.386 189.67 196.9C189.242 198.421 188.557 199.546 186.648 201.187Z" fill="#F24141"/>
<ellipse cx="205.248" cy="164.016" rx="3.81435" ry="4.63171" fill="#DC8D46"/>
<ellipse cx="166.563" cy="164.017" rx="3.81435" ry="4.63171" transform="rotate(8.40649 166.563 164.017)" fill="#DC8D46"/>
<path d="M167.686 163.202C156.705 137.183 172.995 129.899 186.721 130.778C204.975 129.416 204.471 144.149 200.043 147.665C195.616 151.181 177.839 150.897 171.937 149.579C168.274 148.761 168.907 159.931 167.686 163.202Z" fill="#2E2E2E"/>
<path d="M207.155 139.769C205.248 137.044 202.796 135.955 201.161 137.044C199.328 139.518 199.366 147.589 200.344 150.667C201.321 153.746 203.663 158.353 205.632 159.636C206.868 159.636 207.599 160.19 208.245 161.293C211.503 148.101 209.709 143.417 207.155 139.769Z" fill="#2E2E2E"/>
<path d="M203.614 163.746L202.252 155.027L205.794 157.752L203.614 163.746Z" fill="#2E2E2E"/>
<path d="M225.121 158.534C224.98 148.337 233.132 139.956 243.329 139.815L254.349 139.662C264.546 139.521 272.927 147.673 273.068 157.87L273.552 192.802C268.369 195.262 261.919 197.711 249.386 197.711C236.853 197.711 235.103 195.564 225.605 193.466L225.121 158.534Z" fill="#905848"/>
<ellipse cx="248.717" cy="166.113" rx="17.1646" ry="20.7064" transform="rotate(-0.793469 248.717 166.113)" fill="#FFD5B0"/>
<path d="M228.925 173.198C247.199 170.547 258.306 156.715 261.575 150.13C257.931 142.823 244.284 141.105 235.105 147.227C227.761 152.124 227.925 166.581 228.925 173.198Z" fill="#905848"/>
<path d="M244.007 196.152L254.794 196.002C257.586 196.509 259.701 197.236 261.972 198.355C265.538 200.112 266.273 200.422 268.029 202.523C269.784 204.624 271.188 207.127 272.16 209.891C273.133 212.654 273.655 215.623 273.697 218.628L274.18 250.569C263.827 254.383 262.192 254.111 251.839 255.473C243.735 255.473 238.217 256.018 225.749 256.018L225.749 219.292C225.665 213.225 226.662 206.474 230.415 202.062C234.736 199.277 237.979 197.325 244.007 196.152Z" fill="#F7931E"/>
<path d="M243.733 196.169L242.989 196.179C242.825 197.801 241.48 204.552 245.501 208.174C246.405 209.126 247.669 209.734 249.043 209.879C251.546 209.994 253.429 207.923 253.864 207.447C256.532 204.512 255.432 199.71 255.377 196.022L254.131 196.022L243.733 196.169Z" fill="#FFD5B0"/>
<path d="M233.038 200.435L234.673 256.015C233.284 255.562 231.676 256.015 231.676 256.015L229.997 256.015C229.997 256.015 226.034 256.333 224.655 255.198L224.655 218.962C224.601 215.323 225.206 208.829 227.211 206.225C229.216 203.621 229.523 202.023 233.038 200.435Z" fill="#FFD5B0"/>
<path d="M265.605 200.488L266.006 253.293C267.382 252.829 271.663 251.659 271.663 251.659L273.09 251.114C273.09 251.114 273.919 251.136 275.542 250.296L274.561 217.527C274.517 214.092 273.737 207.981 271.663 205.578C269.588 203.175 269.162 201.892 265.605 200.488Z" fill="#FFD5B0"/>
<path d="M244.16 179.799L253.653 179.668L255.436 198.717L242.905 198.89L244.16 179.799Z" fill="#FFD5B0"/>
<ellipse cx="120.586" cy="173.367" rx="19.4231" ry="23.431" transform="rotate(-0.793469 120.586 173.367)" fill="#FFC490"/>
<path d="M130.744 170.326C126.119 167.551 122.647 163.808 121.878 161.21C121.622 159.131 121.878 154.475 124.954 152.479C128.799 149.985 135.977 152.168 138.028 161.21C138.948 165.269 140.827 171.152 139.684 174.026C138.79 176.274 134.997 176.767 134.135 177.725L130.744 170.326Z" fill="#E8D3EA"/>
<ellipse cx="140.072" cy="175.704" rx="4.31623" ry="5.24114" fill="#FFC490"/>
<ellipse cx="100.946" cy="177.863" rx="4.31623" ry="5.24114" transform="rotate(-7.55238 100.946 177.863)" fill="#FFC490"/>
<path d="M123.903 166.893C126.217 165.91 129.882 163.41 130.953 162.283C134.488 157.674 133.691 151.982 132.566 150.549C131.601 149.319 126.716 144.689 114.825 147.455C104.679 149.814 99.6641 155.809 99.664 162.283C99.0207 164.742 104.013 182.326 106.868 177.957C110.082 173.04 121.01 168.123 123.903 166.893Z" fill="#E58BED"/>
<path d="M94.6044 202.696L103.078 201.796L103.623 233.128C102.039 235.861 93.4481 238.333 90.0002 237.488C87.0394 236.016 84.7393 232.733 85.0955 229.041L94.6044 202.696Z" fill="#F8F8F8"/>
<rect x="92.1484" y="207.451" width="10.3119" height="6.5685" rx="1.67864" transform="rotate(-56.5863 92.1484 207.451)" fill="#FFC490"/>
<path d="M94.6323 237.215C93.5418 222.23 97.0845 208.607 114.252 203.817C114.797 213.239 128.096 212.419 127.602 203.817C136.809 206.973 137.987 209.159 142.585 213.783C149.478 221.906 148.467 229.403 148.851 235.58C148.851 243.089 148.851 251.11 147.488 255.197C139.042 256.014 132.503 254.379 118.881 252.744C112.614 251.992 100.627 251.382 95.7222 248.113C94.9046 245.661 94.8709 240.493 94.6323 237.215Z" fill="#F8F8F8"/>
<path d="M110.982 205.882C111.618 209.424 115.401 215.848 122.425 215.145C130.599 214.328 130.872 206.972 131.416 205.609" stroke="#E0E0E0" stroke-width="0.41966" stroke-dasharray="1.26 1.26"/>
<circle cx="101.992" cy="194.439" r="5.99397" fill="#4F4F4F"/>
<path d="M97.2995 197.031C97.3389 196.941 97.4084 196.868 97.4968 196.825C98.5257 196.334 99.5735 196.105 101.1 196.595C101.149 196.611 101.197 196.638 101.237 196.671C102.753 197.953 102.924 198.753 102.935 199.909C102.935 199.998 102.907 200.085 102.854 200.157L94.0824 212.109C93.962 212.273 93.7411 212.327 93.5585 212.237L91.5014 211.222C91.3 211.123 91.2124 210.883 91.3028 210.677L97.2995 197.031Z" fill="#D9D9D9"/>
<rect x="94.9238" y="195.76" width="6.94392" height="4.29286" rx="2.0983" transform="rotate(30 94.9238 195.76)" fill="#FFC490"/>
<rect x="97.1152" y="199.898" width="5.77009" height="3.56717" rx="1.78359" transform="rotate(2.0811 97.1152 199.898)" fill="#FFC490"/>
<rect x="92.0273" y="199.131" width="6.94392" height="4.29286" rx="2.0983" transform="rotate(30 92.0273 199.131)" fill="#FFC490"/>
<rect x="90.7969" y="204.186" width="5.6135" height="3.03103" rx="1.51551" transform="rotate(13.8293 90.7969 204.186)" fill="#FFC490"/>
<path d="M137.953 224.135H148.034L148.306 239.665L148.034 255.739L143.402 255.467L138.77 254.922L137.953 224.135Z" fill="#F8F8F8"/>
<circle cx="101.128" cy="112.714" r="16.9105" transform="rotate(-15.0796 101.128 112.714)" fill="#FFD450"/>
<path d="M110.121 112.793L94.3775 117.035C94.1041 117.109 93.9809 117.425 94.1475 117.654C95.7981 119.923 99.7069 123.329 104.534 121.796C109.357 120.263 110.588 115.7 110.63 113.176C110.634 112.909 110.378 112.724 110.121 112.793Z" fill="#972727"/>
<path d="M99.5772 121.818C100.321 119.937 104.756 117.378 108.208 119.493C107.259 120.746 104.017 123.015 99.5772 121.818Z" fill="#FF7070"/>
<path d="M94.4152 113.958C94.722 113.728 95.1507 113.996 95.079 114.372L93.66 121.817C93.6395 121.925 93.5785 122.021 93.4865 122.08C92.3797 122.797 90.2672 123.599 89.1336 122.946C87.8209 122.392 87.3005 120.818 87.9631 118.875C87.9895 118.798 88.0397 118.731 88.1051 118.682L94.4152 113.958Z" fill="#95BAFF"/>
<path d="M108.232 110.234C107.851 110.189 107.615 110.636 107.866 110.926L112.833 116.65C112.905 116.733 113.006 116.785 113.116 116.79C114.432 116.854 116.662 116.486 117.314 115.352C118.171 114.213 117.83 112.591 116.281 111.244C116.22 111.191 116.142 111.158 116.061 111.148L108.232 110.234Z" fill="#95BAFF"/>
<path d="M97.4132 108.416C95.6861 108.496 92.2723 109.584 92.4346 113.298" stroke="#4F4F4F" stroke-width="1.67864" stroke-linecap="round"/>
<path d="M103.006 107.094C104.492 106.211 107.942 105.242 109.849 108.433" stroke="#4F4F4F" stroke-width="1.67864" stroke-linecap="round"/>
<path d="M92.0639 104.146C90.6555 105.109 87.8317 107.938 87.8037 111.548" stroke="#4F4F4F" stroke-width="0.41966" stroke-linecap="round"/>
<path d="M103.967 100.963C105.666 100.808 109.645 101.19 111.967 103.955" stroke="#4F4F4F" stroke-width="0.41966" stroke-linecap="round"/>
<ellipse cx="23.8416" cy="124.957" rx="17.0257" ry="17.4854" transform="rotate(25.7657 23.8416 124.957)" fill="#CCF2F2"/>
<path d="M115.602 188.443L126.805 188.288L128.015 204.457C128.015 213.548 114.662 213.548 114.095 204.457L115.602 188.443Z" fill="#FFC490"/>
<rect x="91.209" y="211" width="3.01591" height="0.683907" transform="rotate(26.0521 91.209 211)" fill="#4F4F4F"/>
<rect x="91.4551" y="211.705" width="1.86677" height="0.839665" transform="rotate(26.0521 91.4551 211.705)" fill="#4F4F4F"/>
<rect x="91.6133" y="212.66" width="0.62017" height="0.480049" transform="rotate(26.0521 91.6133 212.66)" fill="#4F4F4F"/>
</svg>
