<svg width="94" height="103" viewBox="0 0 94 103" fill="none" xmlns="http://www.w3.org/2000/svg">
<g clip-path="url(#clip0_1312_17783)" filter="url(#filter0_d_1312_17783)">
<path d="M51.9219 61.9951H42.0781C40.6998 61.9951 39.6172 63.0778 39.6172 64.4561V81.8467C39.6172 82.6832 40.0603 83.4707 40.7984 83.9631C41.1924 84.2092 41.635 84.3076 42.0781 84.3076C42.472 84.3076 42.8166 84.209 43.1608 84.0615L53.0045 79.1396C53.8414 78.6967 54.3828 77.86 54.3828 76.9248V64.4561C54.3828 63.0778 53.3002 61.9951 51.9219 61.9951Z" fill="#FD3018"/>
<path d="M54.3828 64.4561V76.9248C54.3828 77.86 53.8414 78.6967 53.0045 79.1396L47 82.142V61.9951H51.9219C53.3002 61.9951 54.3828 63.0778 54.3828 64.4561Z" fill="#E61E14"/>
<path d="M32.2344 39.6826H22.3906C21.0304 39.6826 19.9297 38.5819 19.9297 37.2217V27.3779C19.9297 26.0177 21.0304 24.917 22.3906 24.917H32.2344C33.5946 24.917 34.6953 26.0177 34.6953 27.3779V37.2217C34.6953 38.5819 33.5946 39.6826 32.2344 39.6826Z" fill="#19DEC1"/>
<path d="M56.8438 19.9951H42.0781C40.6998 19.9951 39.6172 21.0778 39.6172 22.4561V37.2217C39.6172 38.5996 40.6998 39.6826 42.0781 39.6826H56.8438C58.222 39.6826 59.3047 38.5996 59.3047 37.2217V22.4561C59.3047 21.0778 58.222 19.9951 56.8438 19.9951Z" fill="#19DEC1"/>
<path d="M81.4531 24.917H71.6094C70.2491 24.917 69.1484 23.8163 69.1484 22.4561V12.6123C69.1484 11.2521 70.2491 10.1514 71.6094 10.1514H81.4531C82.8134 10.1514 83.9141 11.2521 83.9141 12.6123V22.4561C83.9141 23.8163 82.8134 24.917 81.4531 24.917Z" fill="#17CEB4"/>
<path d="M22.3906 19.9951H12.5469C11.1866 19.9951 10.0859 18.8944 10.0859 17.5342V2.76855C10.0859 1.40831 11.1866 0.307617 12.5469 0.307617H22.3906C23.7509 0.307617 24.8516 1.40831 24.8516 2.76855V17.5342C24.8516 18.8944 23.7509 19.9951 22.3906 19.9951Z" fill="#19DEC1"/>
<path d="M61.7656 0.307617H42.0781C40.6998 0.307617 39.6172 1.39027 39.6172 2.76855V12.6123C39.6172 13.9903 40.6998 15.0732 42.0781 15.0732H61.7656C63.1439 15.0732 64.2266 13.9903 64.2266 12.6123V2.76855C64.2266 1.39027 63.1439 0.307617 61.7656 0.307617Z" fill="#19DEC1"/>
<path d="M32.2344 19.9951C30.8741 19.9951 29.7734 18.8944 29.7734 17.5342V12.6123C29.7734 11.2521 30.8741 10.1514 32.2344 10.1514C33.5946 10.1514 34.6953 11.2521 34.6953 12.6123V17.5342C34.6953 18.8944 33.5946 19.9951 32.2344 19.9951Z" fill="#17ACE8"/>
<path d="M66.6875 39.6826C65.3273 39.6826 64.2266 38.5819 64.2266 37.2217V32.2998C64.2266 30.9396 65.3273 29.8389 66.6875 29.8389C68.0477 29.8389 69.1484 30.9396 69.1484 32.2998V37.2217C69.1484 38.5819 68.0477 39.6826 66.6875 39.6826Z" fill="#1689FC"/>
<path d="M76.5312 34.7607C77.8904 34.7607 78.9922 33.6589 78.9922 32.2998C78.9922 30.9407 77.8904 29.8389 76.5312 29.8389C75.1721 29.8389 74.0703 30.9407 74.0703 32.2998C74.0703 33.6589 75.1721 34.7607 76.5312 34.7607Z" fill="#1689FC"/>
<path d="M12.5469 29.8389C13.906 29.8389 15.0078 28.7371 15.0078 27.3779C15.0078 26.0188 13.906 24.917 12.5469 24.917C11.1877 24.917 10.0859 26.0188 10.0859 27.3779C10.0859 28.7371 11.1877 29.8389 12.5469 29.8389Z" fill="#17ACE8"/>
<path d="M73.2342 48.9357L54.3832 64.4561H39.6176L20.7667 48.9357C19.9793 48.2467 19.7332 47.1637 20.0778 46.1795C20.422 45.2443 21.3571 44.6045 22.3909 44.6045H71.6096C72.6434 44.6045 73.5785 45.2443 73.9228 46.1795C74.2674 47.1637 74.0215 48.2467 73.2342 48.9357Z" fill="#FD4E26"/>
<path d="M73.2338 48.9357L54.3828 64.4561H47V44.6045H71.6094C72.6431 44.6045 73.5783 45.2443 73.9225 46.1795C74.267 47.1637 74.0211 48.2467 73.2338 48.9357Z" fill="#FD3018"/>
<path d="M59.3047 22.4561V37.2217C59.3047 38.5996 58.222 39.6826 56.8438 39.6826H47V19.9951H56.8438C58.222 19.9951 59.3047 21.0778 59.3047 22.4561Z" fill="#17CEB4"/>
<path d="M64.2266 2.76855V12.6123C64.2266 13.9903 63.1439 15.0732 61.7656 15.0732H47V0.307617H61.7656C63.1439 0.307617 64.2266 1.39027 64.2266 2.76855Z" fill="#17CEB4"/>
</g>
<defs>
<filter id="filter0_d_1312_17783" x="-4.33333" y="0.307617" width="102.667" height="102.667" filterUnits="userSpaceOnUse" color-interpolation-filters="sRGB">
<feFlood flood-opacity="0" result="BackgroundImageFix"/>
<feColorMatrix in="SourceAlpha" type="matrix" values="0 0 0 0 0 0 0 0 0 0 0 0 0 0 0 0 0 0 127 0" result="hardAlpha"/>
<feOffset dy="9.33333"/>
<feGaussianBlur stdDeviation="4.66667"/>
<feColorMatrix type="matrix" values="0 0 0 0 0 0 0 0 0 0 0 0 0 0 0 0 0 0 0.25 0"/>
<feBlend mode="normal" in2="BackgroundImageFix" result="effect1_dropShadow_1312_17783"/>
<feBlend mode="normal" in="SourceGraphic" in2="effect1_dropShadow_1312_17783" result="shape"/>
</filter>
<clipPath id="clip0_1312_17783">
<rect width="84" height="84" fill="white" transform="translate(5 0.307617)"/>
</clipPath>
</defs>
</svg>
