<svg width="93" height="87" viewBox="0 0 93 87" fill="none" xmlns="http://www.w3.org/2000/svg">
<path d="M25.2683 59.7363C23.9777 58.3932 21.7177 58.2263 20.2426 59.3463L20.2038 59.3212L16.8655 62.6596C16.1335 63.3893 15.7322 64.3629 15.7322 65.3982C15.6882 67.483 17.5238 69.3145 19.6064 69.2724C20.8188 69.292 21.8985 68.6859 22.6893 67.7947L25.2683 65.2158C25.8087 64.6753 26.1713 64.0027 26.3218 63.2707C26.592 62.0047 26.1925 60.647 25.2683 59.7363Z" fill="#F53D3D"/>
<path d="M15.9825 48.3873C14.4714 46.876 12.016 46.8776 10.503 48.3873C10.1514 48.7408 7.98329 50.9075 7.58196 51.3106C4.09702 55.0927 9.27507 60.2728 13.0592 56.7901C13.0592 56.7901 15.5944 54.2547 15.9825 53.8668C17.4945 52.3573 17.4945 49.8991 15.9825 48.3873Z" fill="#F53D3D"/>
<path d="M33.1901 68.5722C32.1548 68.5722 31.1812 68.9758 30.4492 69.7078L27.5259 72.6311C27.5122 72.6447 27.4985 72.6584 27.4848 72.6744C26.02 74.1217 26.0419 76.6845 27.5259 78.1106C29.0377 79.6201 31.4958 79.6201 33.0054 78.1106L35.931 75.185C38.354 72.7681 36.6123 68.5592 33.1901 68.5722Z" fill="#F53D3D"/>
<path d="M59.1896 25.5705C53.2084 29.342 45.1887 28.626 39.9828 23.4202L33.2059 16.6455L41.6634 8.18796C32.5795 -2.00599 16.6062 -2.65268 6.9369 7.08226C-2.78481 16.7378 -2.16161 32.6922 8.01091 41.7789C15.4191 37.6384 24.529 43.4216 23.9295 51.8577C28.8348 52.3878 32.9876 56.8339 33.2125 61.7404C37.8252 61.6417 42.4072 65.0963 43.5307 69.6529C47.3709 68.6236 51.6749 69.8987 54.305 72.9411L54.3825 72.8499C58.1954 75.139 62.2292 70.4371 59.3535 67.0124L59.3604 67.0033C59.3011 66.9462 43.9617 51.6069 43.9617 51.6069C45.167 50.4015 47.593 47.9755 48.7981 46.7704L64.0212 61.9935C67.8031 65.4778 72.9843 60.2963 69.4985 56.514L54.2776 41.2909C55.483 40.0856 57.909 37.6596 59.1141 36.4544C62.5354 39.8755 70.8356 48.1762 74.3372 51.6775C75.7788 53.1793 78.3749 53.1786 79.8167 51.6775C81.3262 50.1657 81.3262 47.7076 79.8167 46.198L59.1896 25.5705Z" fill="#F53D3D"/>
<path d="M86.0624 7.08015C76.7931 -2.18687 61.7113 -2.18687 52.442 7.08015C50.6397 8.88362 44.5831 14.9416 42.8809 16.6436L44.8191 18.5818C48.1893 21.9521 53.6711 21.9521 57.0391 18.5818L59.4584 16.1625C60.7447 17.4629 84.3567 41.0346 85.0203 41.7449C95.1684 32.6548 95.7697 16.7232 86.0624 7.08015Z" fill="#F53D3D"/>
<path d="M48.9966 77.2738C47.4845 75.764 45.0282 75.7622 43.5171 77.2738L40.5938 80.1971C39.0895 81.6391 39.0902 84.2343 40.5938 85.6766C42.0379 87.1774 44.6301 87.1765 46.0733 85.6766L48.9966 82.7533C50.4977 81.313 50.4977 78.7106 48.9966 77.2738Z" fill="#F53D3D"/>
</svg>
