<svg width="156" height="161" viewBox="0 0 156 161" fill="none" xmlns="http://www.w3.org/2000/svg">
<path d="M72.5681 103.413H9.86401L0 109.604V128.471L11.3587 134.353H80.896L84.1729 128.471V109.604L72.5681 103.413Z" fill="#FFC73A"/>
<path d="M84.1832 109.286V128.153L74.3424 136.769H42.4062V100.386H60.4168L84.1832 109.286Z" fill="#FF9400"/>
<path d="M84.1832 90.1049H42.4062V109.286H84.1832V90.1049Z" fill="#FFC73A"/>
<path d="M84.1832 128.155H42.4062V147.337H84.1832V128.155Z" fill="#FFC73A"/>
<path d="M84.1729 90.7351H0V109.602H84.1729V90.7351Z" fill="#FFE56A"/>
<path d="M84.1729 128.47H0V147.337H84.1729V128.47Z" fill="#FFE56A"/>
<path d="M127.388 128.47H43.2148V147.337H127.388V128.47Z" fill="#FDBF00"/>
<path d="M83.8688 90.1049H42.0918V109.286H83.8688V90.1049Z" fill="#FFC73A"/>
<path d="M83.5563 127.526H41.7793V146.708H83.5563V127.526Z" fill="#FFC73A"/>
<path d="M51.1232 63.6445H6.94905L0 68.0828V81.6093L8.00204 85.8264H56.9901L59.2986 81.6093V68.0828L51.1232 63.6445Z" fill="#FFC73A"/>
<path d="M59.2986 41.029V54.5555L54.7858 59.2221H7.78294L0 54.5555V41.029L6.73671 37.6473H53.3471L59.2986 41.029Z" fill="#FFC73A"/>
<path d="M53.3529 37.6473L59.3043 41.029V54.5555L54.7915 59.2221H29.873V37.6473H53.3529Z" fill="#FF9400"/>
<path d="M59.2986 13.7503V27.2768L52.3659 33.4539H10.2249L0 27.2768V13.7503L12.9062 7.37012H42.5555L59.2986 13.7503Z" fill="#FFC73A"/>
<path d="M59.3043 13.7503V27.2768L52.3716 33.4539H29.873V7.37012H42.5612L59.3043 13.7503Z" fill="#FF9400"/>
<path d="M59.3043 67.8586V81.3851L52.3716 87.5622H29.873V61.4784H42.5612L59.3043 67.8586Z" fill="#FF9400"/>
<path d="M59.2986 0H0V13.7519H59.2986V0Z" fill="#FFE56A"/>
<path d="M59.3043 0H29.873V13.7519H59.3043V0Z" fill="#FFC73A"/>
<path d="M59.3043 54.1042H29.873V67.8562H59.3043V54.1042Z" fill="#FFC73A"/>
<path d="M59.2986 27.2773H0V41.0293H59.2986V27.2773Z" fill="#FFE56A"/>
<path d="M59.3043 27.2773H29.873V41.0293H59.3043V27.2773Z" fill="#FFC73A"/>
<path d="M59.3043 81.3844H29.873V95.1363H59.3043V81.3844Z" fill="#FFC73A"/>
<path d="M59.2986 54.5576H0V68.0841H59.2986V54.5576Z" fill="#FFE56A"/>
<path d="M59.2986 81.6062H0V95.1327H59.2986V81.6062Z" fill="#FFE56A"/>
<path d="M59.0778 54.1042H29.6465V67.8562H59.0778V54.1042Z" fill="#FFC73A"/>
<path d="M58.8551 80.931H29.4238V94.683H58.8551V80.931Z" fill="#FFC73A"/>
<path d="M119.581 100.236H77.4061L70.7715 104.675V118.201L78.4114 122.418H125.183L127.387 118.201V104.675L119.581 100.236Z" fill="#FFC73A"/>
<path d="M127.387 77.6208V91.1473L123.078 95.8139H78.2023L70.7715 91.1473V77.6208L77.2034 74.2391H121.705L127.387 77.6208Z" fill="#FFC73A"/>
<path d="M121.714 74.2391L127.396 77.6208V91.1473L123.088 95.8139H99.2969V74.2391H121.714Z" fill="#FF9400"/>
<path d="M127.387 50.3421V63.8686L120.768 70.0457H80.5337L70.7715 63.8686V50.3421L83.0937 43.9619H111.401L127.387 50.3421Z" fill="#FFC73A"/>
<path d="M127.396 50.3421V63.8686L120.777 70.0457H99.2969V43.9619H111.411L127.396 50.3421Z" fill="#FF9400"/>
<path d="M127.396 104.45V117.977L120.777 124.154H99.2969V98.0702H111.411L127.396 104.45Z" fill="#FF9400"/>
<path d="M127.387 36.5946H70.7715V50.3465H127.387V36.5946Z" fill="#FFE56A"/>
<path d="M127.396 36.5918H99.2969V50.3437H127.396V36.5918Z" fill="#FFC73A"/>
<path d="M127.396 90.696H99.2969V104.448H127.396V90.696Z" fill="#FFC73A"/>
<path d="M127.387 63.8691H70.7715V77.6211H127.387V63.8691Z" fill="#FFE56A"/>
<path d="M127.396 63.8691H99.2969V77.6211H127.396V63.8691Z" fill="#FFC73A"/>
<path d="M127.396 117.976H99.2969V131.728H127.396V117.976Z" fill="#FFC73A"/>
<path d="M127.387 91.1494H70.7715V104.676H127.387V91.1494Z" fill="#FFE56A"/>
<path d="M127.387 118.204H70.7715V131.73H127.387V118.204Z" fill="#FFE56A"/>
<path d="M127.172 90.696H99.0723V104.448H127.172V90.696Z" fill="#FFC73A"/>
<path d="M126.971 117.523H98.8711V131.275H126.971V117.523Z" fill="#FFC73A"/>
<path d="M147.886 114.874H105.711L99.0762 119.312V132.838L106.716 137.056H153.488L155.692 132.838V119.312L147.886 114.874Z" fill="#FFC73A"/>
<path d="M155.692 92.2581V105.785L151.383 110.451H106.507L99.0762 105.785V92.2581L105.508 88.8765H150.009L155.692 92.2581Z" fill="#FFC73A"/>
<path d="M150.019 88.8765L155.701 92.2581V105.785L151.393 110.451H127.602V88.8765H150.019Z" fill="#FF9400"/>
<path d="M155.692 64.9793V78.5058L149.073 84.6829H108.838L99.0762 78.5058V64.9793L111.398 58.5991H139.706L155.692 64.9793Z" fill="#FFC73A"/>
<path d="M155.701 64.9793V78.5058L149.082 84.6829H127.602V58.5991H139.716L155.701 64.9793Z" fill="#FF9400"/>
<path d="M155.701 119.088V132.614L149.082 138.791H127.602V112.708H139.716L155.701 119.088Z" fill="#FF9400"/>
<path d="M155.692 51.2278H99.0762V64.9797H155.692V51.2278Z" fill="#FFE56A"/>
<path d="M155.701 51.2292H127.602V64.9812H155.701V51.2292Z" fill="#FFC73A"/>
<path d="M155.701 105.332H127.602V119.084H155.701V105.332Z" fill="#FFC73A"/>
<path d="M155.692 78.5051H99.0762V92.2571H155.692V78.5051Z" fill="#FFE56A"/>
<path d="M155.701 78.5051H127.602V92.2571H155.701V78.5051Z" fill="#FFC73A"/>
<path d="M155.701 132.614H127.602V146.366H155.701V132.614Z" fill="#FFC73A"/>
<path d="M155.692 105.787H99.0762V119.313H155.692V105.787Z" fill="#FFE56A"/>
<path d="M155.692 132.835H99.0762V146.362H155.692V132.835Z" fill="#FFE56A"/>
<path d="M155.477 105.332H127.377V119.084H155.477V105.332Z" fill="#FFC73A"/>
<path d="M155.275 132.16H127.176V145.912H155.275V132.16Z" fill="#FFC73A"/>
<g clip-path="url(#clip0_1312_18216)">
<path d="M52.0506 158.969C30.756 158.969 13.4316 141.054 13.4316 119.033C13.4316 97.0126 30.756 79.0977 52.0506 79.0977C73.3452 79.0977 90.6696 97.0126 90.6696 119.033C90.6696 141.054 73.3452 158.969 52.0506 158.969Z" fill="#FDBF00"/>
<path d="M52.043 79.099V158.97C73.3376 158.97 90.662 141.055 90.662 119.035C90.662 97.014 73.3376 79.099 52.043 79.099Z" fill="#FF9100"/>
<path d="M61.259 147.27L41.6538 147.243C41.0535 147.242 40.4783 146.995 40.0546 146.555L25.4126 131.374C24.9888 130.935 24.7512 130.339 24.752 129.719L24.7793 108.278C24.78 107.657 25.0193 107.062 25.4441 106.624L40.1247 91.4831C40.5489 91.0455 41.1237 90.7998 41.7226 90.7998H41.7258L61.259 90.8263L65.7846 93.3047L70.3103 97.9969L72.9037 104.01L74.836 102.689L78.7009 106.697C79.1248 107.136 79.3624 107.732 79.3616 108.352L79.3343 129.793C79.3336 130.414 79.0943 131.009 78.6695 131.447L74.836 135.401L72.5731 134.333L70.3103 140.068L65.7846 144.736L61.259 147.27Z" fill="#FFDE46"/>
<path d="M78.6871 106.694L74.8221 102.687L72.8898 104.007L70.2965 97.9943L65.7708 93.302L61.2452 90.8235L52.043 90.811V147.254L61.2452 147.267L65.7708 144.733L70.2965 140.065L72.5593 134.33L74.8221 135.398L78.6557 131.444C79.0805 131.006 79.3197 130.411 79.3205 129.79L79.3478 108.349C79.3486 107.729 79.111 107.133 78.6871 106.694Z" fill="#FFCD00"/>
<path d="M70.3027 140.063L74.8284 135.395V102.684L70.3027 97.9915V140.063Z" fill="#FDBF00"/>
<path d="M65.7776 144.733V93.302L64.052 91.5127C63.6282 91.0734 63.053 90.8259 62.4528 90.8252L61.252 90.8236V147.267L62.381 147.268H62.3841C62.9832 147.268 63.5578 147.023 63.982 146.585L65.7776 144.733Z" fill="#FDBF00"/>
<g clip-path="url(#clip1_1312_18216)" filter="url(#filter0_d_1312_18216)">
<path d="M51.3132 107.103L48.4989 110.488L46.5107 108.02L38.9527 117.1H33.3535L46.6025 101.091L51.3132 107.103Z" fill="#FFFBEC"/>
<path d="M70.7637 117.166L65.2563 117.229L58.0966 108.054L46.1033 122.544L43.3496 119.004L58.2196 101.093L70.7637 117.166Z" fill="#FFFBEC"/>
<path d="M60.7383 118.843L45.9288 136.973L33.3535 120.774H38.7691L45.96 129.949L58.0139 115.364L60.7383 118.843Z" fill="#FFFBEC"/>
<path d="M70.7781 120.868L57.5309 136.972L52.8496 130.897L55.6327 127.512L57.5309 129.948L65.1183 120.868H70.7781Z" fill="#FFFBEC"/>
</g>
</g>
<g clip-path="url(#clip2_1312_18216)">
<path d="M87.4491 158.969C66.1545 158.969 48.8301 141.054 48.8301 119.033C48.8301 97.0125 66.1545 79.0975 87.4491 79.0975C108.744 79.0975 126.068 97.0125 126.068 119.033C126.068 141.054 108.744 158.969 87.4491 158.969Z" fill="#FDBF00"/>
<path d="M87.4395 79.0989V158.97C108.734 158.97 126.058 141.055 126.058 119.034C126.058 97.0139 108.734 79.0989 87.4395 79.0989Z" fill="#FF9100"/>
<path d="M96.6574 147.269L77.0522 147.243C76.452 147.242 75.8768 146.994 75.453 146.555L60.811 131.374C60.3872 130.935 60.1496 130.339 60.1504 129.719L60.1777 108.278C60.1785 107.657 60.4177 107.062 60.8425 106.624L75.5232 91.4828C75.9474 91.0453 76.5221 90.7996 77.121 90.7996H77.1242L96.6574 90.8261L101.183 93.3044L105.709 97.9967L108.302 104.009L110.234 102.689L114.099 106.696C114.523 107.136 114.761 107.731 114.76 108.352L114.733 129.793C114.732 130.414 114.493 131.008 114.068 131.447L110.234 135.4L107.972 134.333L105.709 140.068L101.183 144.736L96.6574 147.269Z" fill="#FFDE46"/>
<path d="M114.084 106.693L110.219 102.686L108.286 104.007L105.693 97.994L101.167 93.3018L96.6416 90.8233L87.4395 90.8108V147.254L96.6416 147.267L101.167 144.733L105.693 140.065L107.956 134.33L110.219 135.398L114.052 131.444C114.477 131.006 114.716 130.411 114.717 129.79L114.744 108.349C114.745 107.728 114.507 107.133 114.084 106.693Z" fill="#FFCD00"/>
<path d="M105.699 140.062L110.225 135.395V102.684L105.699 97.9913V140.062Z" fill="#FDBF00"/>
<path d="M101.174 144.733V93.3018L99.4485 91.5125C99.0247 91.0732 98.4495 90.8258 97.8492 90.825L96.6484 90.8235V147.267L97.7774 147.268H97.7806C98.3797 147.268 98.9543 147.023 99.3785 146.585L101.174 144.733Z" fill="#FDBF00"/>
<g clip-path="url(#clip3_1312_18216)" filter="url(#filter1_d_1312_18216)">
<path d="M86.7136 107.103L83.8993 110.488L81.9111 108.02L74.3531 117.1H68.7539L82.0029 101.091L86.7136 107.103Z" fill="#FFFBEC"/>
<path d="M106.164 117.166L100.657 117.229L93.497 108.054L81.5037 122.544L78.75 119.004L93.62 101.093L106.164 117.166Z" fill="#FFFBEC"/>
<path d="M96.1386 118.843L81.3292 136.973L68.7539 120.774H74.1695L81.3604 129.949L93.4143 115.364L96.1386 118.843Z" fill="#FFFBEC"/>
<path d="M106.177 120.868L92.9294 136.972L88.248 130.897L91.0311 127.512L92.9294 129.948L100.517 120.868H106.177Z" fill="#FFFBEC"/>
</g>
</g>
<defs>
<filter id="filter0_d_1312_18216" x="31.1219" y="96.6278" width="46.3455" height="44.8062" filterUnits="userSpaceOnUse" color-interpolation-filters="sRGB">
<feFlood flood-opacity="0" result="BackgroundImageFix"/>
<feColorMatrix in="SourceAlpha" type="matrix" values="0 0 0 0 0 0 0 0 0 0 0 0 0 0 0 0 0 0 127 0" result="hardAlpha"/>
<feOffset dx="2.23164"/>
<feGaussianBlur stdDeviation="2.23164"/>
<feColorMatrix type="matrix" values="0 0 0 0 0 0 0 0 0 0 0 0 0 0 0 0 0 0 0.25 0"/>
<feBlend mode="normal" in2="BackgroundImageFix" result="effect1_dropShadow_1312_18216"/>
<feBlend mode="normal" in="SourceGraphic" in2="effect1_dropShadow_1312_18216" result="shape"/>
</filter>
<filter id="filter1_d_1312_18216" x="66.5223" y="96.6278" width="46.3455" height="44.8062" filterUnits="userSpaceOnUse" color-interpolation-filters="sRGB">
<feFlood flood-opacity="0" result="BackgroundImageFix"/>
<feColorMatrix in="SourceAlpha" type="matrix" values="0 0 0 0 0 0 0 0 0 0 0 0 0 0 0 0 0 0 127 0" result="hardAlpha"/>
<feOffset dx="2.23164"/>
<feGaussianBlur stdDeviation="2.23164"/>
<feColorMatrix type="matrix" values="0 0 0 0 0 0 0 0 0 0 0 0 0 0 0 0 0 0 0.25 0"/>
<feBlend mode="normal" in2="BackgroundImageFix" result="effect1_dropShadow_1312_18216"/>
<feBlend mode="normal" in="SourceGraphic" in2="effect1_dropShadow_1312_18216" result="shape"/>
</filter>
<clipPath id="clip0_1312_18216">
<rect width="77.238" height="79.8711" fill="white" transform="translate(13.4316 79.0977)"/>
</clipPath>
<clipPath id="clip1_1312_18216">
<rect width="37.4193" height="35.8796" fill="white" transform="translate(33.3535 101.091)"/>
</clipPath>
<clipPath id="clip2_1312_18216">
<rect width="77.238" height="79.8711" fill="white" transform="translate(48.8301 79.0977)"/>
</clipPath>
<clipPath id="clip3_1312_18216">
<rect width="37.4192" height="35.8796" fill="white" transform="translate(68.7539 101.091)"/>
</clipPath>
</defs>
</svg>
