<svg width="85" height="86" viewBox="0 0 85 86" fill="none" xmlns="http://www.w3.org/2000/svg">
<path d="M70.8812 58.9622C73.5315 55.8104 75.4969 52.4094 76.9281 48.2417C78.2254 44.4641 78.8637 40.4699 78.8637 36.4777C78.8637 16.3931 62.5819 0.111328 42.4973 0.111328C22.4127 0.111328 6.13086 16.3931 6.13086 36.4777C6.13086 40.7488 6.87893 45.0127 8.35248 49.0225C10.1486 53.9095 13.1474 58.373 16.8849 61.9457C20.0355 64.9574 23.186 67.9689 26.3366 70.9806L40.1223 84.1582C41.4509 85.4283 43.5437 85.4283 44.8725 84.1582C48.8376 80.3679 56.4415 73.0994 57.1263 72.4448C60.6327 69.093 64.1391 65.7413 67.6455 62.3894C68.8232 61.2637 69.8992 60.13 70.8812 58.9622Z" fill="#FB2B3A"/>
<path d="M78.8621 36.478C78.8621 40.4707 78.2238 44.4649 76.9265 48.2419C75.4958 52.409 73.5295 55.8112 70.8802 58.9619C69.8979 60.1308 68.8215 61.2637 67.6441 62.3898C64.1375 65.7423 60.6309 69.0931 57.1244 72.4457C56.4399 73.0994 48.8364 80.3693 44.8711 84.1582C43.5413 85.4298 41.4502 85.4298 40.1204 84.1582L39.5762 83.6379C39.9988 83.4787 40.3976 83.234 40.7433 82.9038C44.7084 79.1132 52.3119 71.845 52.9965 71.1896C56.5031 67.8387 60.0097 64.4862 63.5163 61.1353C64.6937 60.0093 65.7701 58.8764 66.7524 57.7074C69.4015 54.5551 71.368 51.1546 72.7987 46.9875C74.096 43.2088 74.7343 39.2144 74.7343 35.2236C74.7343 19.5836 64.8615 6.24868 51.0063 1.11298C66.9853 4.94462 78.8621 19.3251 78.8621 36.478Z" fill="#DD1D35"/>
<path d="M42.4886 62.9086C57.2884 62.9086 69.2859 50.9111 69.2859 36.1114C69.2859 21.3116 57.2884 9.31409 42.4886 9.31409C27.6889 9.31409 15.6914 21.3116 15.6914 36.1114C15.6914 50.9111 27.6889 62.9086 42.4886 62.9086Z" fill="#F3EAE6"/>
<path d="M58.7639 38.6676H58.5526V30.1546H26.4468V38.6676H26.2355C24.2663 38.6676 22.6699 40.264 22.6699 42.2332C22.6699 44.2024 24.2663 45.7988 26.2355 45.7988H26.4468V45.913C26.4468 52.3129 31.6349 57.5012 38.0348 57.5012H46.9642C53.3641 57.5012 58.5521 52.3131 58.5521 45.913V45.7988H58.7634C60.7326 45.7988 62.329 44.2024 62.329 42.2332C62.3292 40.264 60.7329 38.6676 58.7639 38.6676Z" fill="#FED2A4"/>
<path d="M38.6543 48.7594C42.49 52.5951 42.49 52.5951 46.3257 48.7594" stroke="#444444" stroke-width="1.53427" stroke-linecap="round" stroke-linejoin="round"/>
<path d="M62.3514 42.2339C62.3514 44.2031 60.7539 45.7988 58.7847 45.7988H58.5734V45.9136C58.5734 52.3131 53.3854 57.5012 46.9859 57.5012H44.1406C50.5401 57.5012 55.7281 52.3131 55.7281 45.9136V30.1546H58.5734V38.6671H58.7847C59.7684 38.6671 60.6609 39.066 61.3059 39.7126C61.9523 40.3577 62.3514 41.2483 62.3514 42.2339Z" fill="#FFBD86"/>
<path d="M55.0254 15.029C54.1294 15.029 53.312 15.3657 52.6923 15.919C52.553 16.0433 52.3438 16.0377 52.2017 15.9167C51.447 15.2749 50.4696 14.8874 49.4014 14.8874C48.8159 14.8874 48.2313 15.0067 47.6881 15.2239C47.4182 15.3317 47.1579 15.4641 46.9127 15.6201C46.7896 15.6983 46.6702 15.7823 46.5554 15.8722C46.4313 15.9693 46.2688 16.104 46.1185 16.2458C45.9398 16.4143 45.6519 16.3775 45.5218 16.1691L45.5191 16.1646C44.8496 15.0926 43.4492 14.6249 42.2292 14.7078C41.1702 14.78 40.0472 15.2328 39.4653 16.1646L39.4626 16.1691C39.3325 16.3775 39.0446 16.4143 38.8659 16.2458C38.7158 16.1042 38.5533 15.9696 38.429 15.8722C38.3141 15.7823 38.1948 15.6983 38.0716 15.6201C37.8262 15.4643 37.5662 15.3317 37.2963 15.2239C36.7531 15.0067 36.1685 14.8874 35.583 14.8874C34.5148 14.8874 33.5374 15.2751 32.7827 15.9167C32.6404 16.0377 32.4312 16.0433 32.2921 15.919C31.6724 15.3657 30.855 15.029 29.959 15.029C28.4179 15.029 26.4538 16.3294 26.4531 18.0121V39.3967C26.4531 39.7408 26.8721 39.9085 27.1101 39.6601C28.2907 38.4279 30.697 36.3397 31.218 32.8074C31.3016 32.2408 31.8408 31.8596 32.3999 31.9828C33.1319 32.1439 33.9804 32.3298 34.0707 32.3451C36.4045 32.7427 38.8448 32.9811 41.2956 33.0065L42.4924 32.9955L43.6892 33.0065C46.1398 32.9811 48.5804 32.7424 50.9141 32.3451C51.0045 32.3298 51.8529 32.1439 52.5849 31.9828C53.1443 31.8596 53.6833 32.241 53.7669 32.8074C54.2878 36.34 56.6942 38.4279 57.8748 39.6601C58.1128 39.9087 58.5317 39.7408 58.5317 39.3967V18.0121C58.5306 16.3294 56.5665 15.029 55.0254 15.029Z" fill="#FEA613"/>
<path d="M58.5291 18.0136V39.3983C58.5291 39.7421 58.1106 39.9105 57.8728 39.6624C57.3146 39.0796 56.4819 38.5602 55.7043 37.3439V18.0138C55.7031 16.8195 54.714 15.818 53.5898 15.3373C54.027 15.14 54.5122 15.0305 55.0228 15.0305C56.5641 15.0303 58.528 16.3307 58.5291 18.0136Z" fill="#FE9901"/>
<path d="M36.5274 38.4885C35.5963 38.4885 34.8418 39.2432 34.8418 40.1741V42.0658C34.8418 42.9967 35.5963 43.7514 36.5274 43.7514C37.4585 43.7514 38.213 42.9967 38.213 42.0658V40.1741C38.213 39.2432 37.4585 38.4885 36.5274 38.4885Z" fill="#444444"/>
<path d="M47.1973 38.4885C46.2662 38.4885 45.5117 39.2432 45.5117 40.1741V42.0658C45.5117 42.9967 46.2662 43.7514 47.1973 43.7514C48.1284 43.7514 48.8829 42.9967 48.8829 42.0658V40.1741C48.8829 39.2432 48.1284 38.4885 47.1973 38.4885Z" fill="#444444"/>
</svg>
