<svg width="87" height="88" viewBox="0 0 87 88" fill="none" xmlns="http://www.w3.org/2000/svg">
<circle cx="43.5" cy="43.6113" r="43.5" fill="#0075EA"/>
<g clip-path="url(#clip0_1312_18008)">
<path d="M49.6808 20.4636C45.8989 18.131 41.4174 16.8484 36.7881 16.8484C24.1863 16.8484 13.5938 26.2372 13.5938 38.2586C13.5938 42.4734 14.9031 46.5139 17.3902 50.0034L13.9159 60.9114C13.5488 62.0636 14.4119 63.2371 15.6162 63.2371C15.8915 63.2371 16.1687 63.1735 16.4244 63.0434L26.9906 57.671C27.4184 57.8552 27.8516 58.0266 28.2892 58.1858C25.8429 54.3674 24.5367 49.9842 24.5367 45.3953C24.5367 31.7289 36.0361 21.2223 49.6808 20.4636Z" fill="white"/>
<path d="M70.6976 57.1401C73.1848 53.6506 74.4941 49.6102 74.4941 45.3953C74.4941 33.3695 63.8971 23.9852 51.2998 23.9852C38.698 23.9852 28.1055 33.3739 28.1055 45.3953C28.1055 57.4212 38.7025 66.8055 51.2998 66.8055C54.6799 66.8055 58.0478 66.1167 61.0967 64.8074L71.6635 70.1801C72.3047 70.5061 73.0793 70.4151 73.6275 69.9492C74.1757 69.4833 74.3905 68.7337 74.1722 68.0482L70.6976 57.1401ZM44.0441 47.1795C43.0588 47.1795 42.26 46.3807 42.26 45.3953C42.26 44.41 43.0588 43.6111 44.0441 43.6111C45.0295 43.6111 45.8283 44.41 45.8283 45.3953C45.8283 46.3807 45.0295 47.1795 44.0441 47.1795ZM51.1809 47.1795C50.1955 47.1795 49.3967 46.3807 49.3967 45.3953C49.3967 44.41 50.1955 43.6111 51.1809 43.6111C52.1662 43.6111 52.965 44.41 52.965 45.3953C52.965 46.3807 52.1662 47.1795 51.1809 47.1795ZM58.3176 47.1795C57.3322 47.1795 56.5334 46.3807 56.5334 45.3953C56.5334 44.41 57.3322 43.6111 58.3176 43.6111C59.3029 43.6111 60.1018 44.41 60.1018 45.3953C60.1018 46.3807 59.3029 47.1795 58.3176 47.1795Z" fill="white"/>
</g>
<defs>
<clipPath id="clip0_1312_18008">
<rect width="60.9" height="60.9" fill="white" transform="translate(13.5938 13.1611)"/>
</clipPath>
</defs>
</svg>
