<svg width="77" height="69" viewBox="0 0 77 69" fill="none" xmlns="http://www.w3.org/2000/svg">
<path d="M76.1743 29.5501L66.595 17.0714C65.9862 16.2784 65.0553 15.8235 64.0405 15.8235C63.0258 15.8235 62.0949 16.2784 61.486 17.0714L51.9068 29.5501C51.1764 30.5016 51.0608 31.7535 51.6054 32.8171C52.1497 33.8809 53.244 34.5416 54.4613 34.5416H57.6543C57.6543 46.583 47.6274 56.3794 35.3027 56.3794C22.978 56.3794 12.9511 46.583 12.9511 34.5416C12.9511 22.5003 22.978 12.7038 35.3027 12.7038C39.0827 12.7038 42.8493 13.6732 46.1948 15.5072C47.4571 16.1996 49.0375 15.9754 50.0463 14.9617L54.645 10.342C55.3157 9.66839 55.6397 8.73477 55.5271 7.80136C55.4145 6.86795 54.8768 6.03375 54.0638 5.53106C48.4512 2.05989 41.9637 0.225098 35.3027 0.225098C15.9353 0.225098 0.178711 15.6195 0.178711 34.5416C0.178711 53.4638 15.9353 68.8582 35.3027 68.8582C54.6701 68.8582 70.4267 53.4638 70.4267 34.5416H73.6198C74.837 34.5416 75.9314 33.8809 76.4757 32.8171C77.0202 31.7535 76.9046 30.5016 76.1743 29.5501Z" fill="#FF1F3D"/>
<path d="M76.4738 32.8172C77.0183 31.7536 76.9027 30.5017 76.1723 29.5502L66.5931 17.0715C65.9843 16.2785 65.0534 15.8236 64.0386 15.8236C63.0238 15.8236 62.0929 16.2785 61.4841 17.0715L51.9049 29.5502C51.1745 30.5017 51.0589 31.7536 51.6034 32.8172C52.1477 33.881 53.2421 34.5417 54.4593 34.5417H57.6524C57.6524 46.5831 47.6255 56.3795 35.3008 56.3795V68.8583C54.6682 68.8583 70.4248 53.4639 70.4248 34.5417H73.6179C74.8351 34.5417 75.9295 33.881 76.4738 32.8172Z" fill="#FF1F3D"/>
<path d="M46.1948 15.5072C47.4571 16.1996 49.0375 15.9754 50.0463 14.9617L54.645 10.342C55.3158 9.66839 55.6398 8.73477 55.5272 7.80136C55.4145 6.86795 54.8768 6.03375 54.0639 5.53106C48.4513 2.05989 41.9637 0.225098 35.3027 0.225098V12.7038C39.0827 12.7038 42.8493 13.6732 46.1948 15.5072Z" fill="#FF1F3D"/>
</svg>
