<svg width="86" height="86" viewBox="0 0 86 86" fill="none" xmlns="http://www.w3.org/2000/svg">
<path d="M42.522 85.2984C31.2524 85.3341 20.4372 80.858 12.4887 72.8689L11.9079 72.2269C-3.96931 55.8451 -3.96931 29.8158 11.9079 13.434V13.4226L12.4887 12.792C28.9963 -3.79453 55.8245 -3.85871 72.4111 12.6489C72.4589 12.6966 72.5066 12.7442 72.5542 12.792L73.1349 13.434C89.0122 29.8158 89.0122 55.8451 73.1349 72.2269V72.2383L72.5542 72.8689C64.6063 80.8578 53.7915 85.3339 42.522 85.2984ZM15.8521 70.6453C30.7996 84.9548 54.3762 84.9182 69.2793 70.5624L69.771 70.0263C84.7914 55.123 84.8863 30.8652 69.983 15.8447C69.9127 15.7738 69.8419 15.703 69.771 15.6327L69.1902 15.0104C54.271 0.628935 30.6364 0.665606 15.762 15.0931L15.2703 15.6293C0.249873 30.5325 0.155005 54.7906 15.0583 69.8108C15.1286 69.8818 15.1994 69.9525 15.2703 70.0229L15.8521 70.6453Z" fill="url(#paint0_linear_1312_17840)"/>
<path d="M42.5243 28.0598C31.2554 28.0969 20.4402 23.6228 12.4909 15.6354L11.9102 15.0578V13.4202L12.4909 12.7896C28.9986 -3.79695 55.8268 -3.86112 72.4133 12.6465C72.4612 12.6941 72.5088 12.7418 72.5564 12.7896L73.1372 13.3672V15.0545L72.5566 15.6322C64.6081 23.6206 53.7933 28.0959 42.5243 28.0598ZM16.7131 14.2104C31.386 27.4184 53.6628 27.4184 68.3356 14.2104C53.6903 0.930651 31.3585 0.930651 16.7131 14.2104Z" fill="url(#paint1_linear_1312_17840)"/>
<path d="M42.5243 85.2964C31.2546 85.332 20.4394 80.8559 12.4909 72.8668L11.9102 72.2892V70.6609L12.4847 70.0304C28.9888 53.4402 55.817 53.3707 72.4071 69.8747C72.4591 69.9265 72.511 69.9783 72.5628 70.0304L73.1374 70.6079V72.29L72.5566 72.8676C64.6083 80.8563 53.7935 85.332 42.5243 85.2964ZM16.7079 71.4396C31.3826 84.6546 53.6671 84.6546 68.3418 71.4396C53.689 58.168 31.3609 58.168 16.7079 71.4396Z" fill="url(#paint2_linear_1312_17840)"/>
<path d="M42.5224 85.3076C30.0576 85.3076 20.2881 66.6397 20.2881 42.8136C20.2881 18.9875 30.0576 0.321621 42.5224 0.321621C54.9873 0.321621 64.7567 18.9895 64.7567 42.8126C64.7567 66.6358 54.9875 85.3076 42.5224 85.3076ZM42.5224 4.26577C32.6046 4.26577 24.231 21.9172 24.231 42.8136C24.231 63.71 32.6046 81.3636 42.5224 81.3636C52.4402 81.3636 60.8138 63.7102 60.8138 42.8136C60.8138 21.917 52.4402 4.26577 42.5224 4.26577Z" fill="url(#paint3_linear_1312_17840)"/>
<path d="M2.00488 40.8296H83.0738V44.7737H2.00488V40.8296Z" fill="url(#paint4_linear_1312_17840)"/>
<path d="M40.5645 2.26721H44.5086V83.3362H40.5645V2.26721Z" fill="url(#paint5_linear_1312_17840)"/>
<defs>
<linearGradient id="paint0_linear_1312_17840" x1="23.2906" y1="9.91929" x2="97.8927" y2="18.7649" gradientUnits="userSpaceOnUse">
<stop stop-color="#8800E1"/>
<stop offset="1" stop-color="#4A00E0" stop-opacity="0.97"/>
</linearGradient>
<linearGradient id="paint1_linear_1312_17840" x1="28.6784" y1="3.44545" x2="79.6594" y2="16.773" gradientUnits="userSpaceOnUse">
<stop stop-color="#8800E1"/>
<stop offset="1" stop-color="#4A00E0" stop-opacity="0.97"/>
</linearGradient>
<linearGradient id="paint2_linear_1312_17840" x1="28.6784" y1="60.6801" x2="79.6601" y2="74.0069" gradientUnits="userSpaceOnUse">
<stop stop-color="#8800E1"/>
<stop offset="1" stop-color="#4A00E0" stop-opacity="0.97"/>
</linearGradient>
<linearGradient id="paint3_linear_1312_17840" x1="32.4667" y1="9.93058" x2="71.8728" y2="12.3738" gradientUnits="userSpaceOnUse">
<stop stop-color="#8800E1"/>
<stop offset="1" stop-color="#4A00E0" stop-opacity="0.97"/>
</linearGradient>
<linearGradient id="paint4_linear_1312_17840" x1="24.2072" y1="41.2755" x2="34.6105" y2="66.6135" gradientUnits="userSpaceOnUse">
<stop stop-color="#8800E1"/>
<stop offset="1" stop-color="#4A00E0" stop-opacity="0.97"/>
</linearGradient>
<linearGradient id="paint5_linear_1312_17840" x1="41.6446" y1="11.4333" x2="45.1531" y2="11.4535" gradientUnits="userSpaceOnUse">
<stop stop-color="#8800E1"/>
<stop offset="1" stop-color="#4A00E0" stop-opacity="0.97"/>
</linearGradient>
</defs>
</svg>
