<svg width="60" height="61" viewBox="0 0 60 61" fill="none" xmlns="http://www.w3.org/2000/svg">
<path d="M28.112 57.0509C12.611 57.0509 0 44.2544 0 28.5254C0 12.7964 12.611 0 28.112 0C43.613 0 56.224 12.7964 56.224 28.5254C56.224 44.2544 43.613 57.0509 28.112 57.0509Z" fill="#FDBF00"/>
<path d="M28.1113 -0.00012207V57.0507C43.6124 57.0507 56.2233 44.2543 56.2233 28.5253C56.2233 12.7963 43.6124 -0.00012207 28.1113 -0.00012207Z" fill="#FF9100"/>
<path d="M34.811 48.6926L20.5397 48.6735C20.1028 48.673 19.6841 48.4962 19.3756 48.1825L8.7172 37.3389C8.40873 37.0251 8.23578 36.5996 8.23633 36.1564L8.25621 20.8414C8.25675 20.398 8.43092 19.9732 8.74015 19.6602L19.4267 8.84502C19.7355 8.53246 20.1538 8.35696 20.5898 8.35696H20.5921L34.811 8.37591L38.1053 10.1462L41.3997 13.4978L43.2875 17.7926L44.6941 16.8495L47.5075 19.7119C47.8161 20.0256 47.989 20.4511 47.9885 20.8943L47.9686 36.2094C47.968 36.6527 47.7939 37.0776 47.4846 37.3906L44.6941 40.2147L43.0469 39.4523L41.3997 43.5488L38.1053 46.8828L34.811 48.6926Z" fill="#FFDE46"/>
<path d="M47.5064 19.7116L44.693 16.8493L43.2864 17.7926L41.3986 13.4977L38.1043 10.1461L34.8099 8.37574L28.1113 8.36682V48.6835L34.8099 48.6924L38.1043 46.8826L41.3986 43.5486L43.0458 39.4522L44.693 40.2146L47.4836 37.3904C47.7928 37.0774 47.967 36.6526 47.9675 36.2092L47.9874 20.8942C47.9879 20.4508 47.815 20.0255 47.5064 19.7116V19.7116Z" fill="#FFCD00"/>
<path d="M41.4004 43.5487L44.6948 40.2147V16.8495L41.4004 13.4978V43.5487Z" fill="#FDBF00"/>
<path d="M38.1049 46.8828V10.1461L36.8488 8.86806C36.5403 8.55428 36.1216 8.37756 35.6847 8.377L34.8105 8.37589V48.6926L35.6324 48.6937H35.6347C36.0708 48.6937 36.489 48.5182 36.7978 48.2056L38.1049 46.8828Z" fill="#FDBF00"/>
<g clip-path="url(#clip0_1143_18042)" filter="url(#filter0_d_1143_18042)">
<path d="M27.5676 20.0054L25.519 22.4232L24.0717 20.6604L18.57 27.1461H14.4941L24.1385 15.711L27.5676 20.0054Z" fill="#FFFBEC"/>
<path d="M41.733 27.1922L37.7239 27.2369L32.5122 20.6834L23.7819 31.0337L21.7773 28.5048L32.6017 15.711L41.733 27.1922Z" fill="#FFFBEC"/>
<path d="M34.4284 28.3895L23.6481 41.3393L14.4941 29.7686H18.4364L23.6708 36.3221L32.4452 25.904L34.4284 28.3895Z" fill="#FFFBEC"/>
<path d="M41.7343 29.8367L32.0913 41.3396L28.6836 37.0004L30.7095 34.5827L32.0913 36.3224L37.6144 29.8367H41.7343Z" fill="#FFFBEC"/>
</g>
<defs>
<filter id="filter0_d_1143_18042" x="14.1194" y="14.9615" width="28.7373" height="27.1273" filterUnits="userSpaceOnUse" color-interpolation-filters="sRGB">
<feFlood flood-opacity="0" result="BackgroundImageFix"/>
<feColorMatrix in="SourceAlpha" type="matrix" values="0 0 0 0 0 0 0 0 0 0 0 0 0 0 0 0 0 0 127 0" result="hardAlpha"/>
<feOffset dx="0.374755"/>
<feGaussianBlur stdDeviation="0.374755"/>
<feColorMatrix type="matrix" values="0 0 0 0 0 0 0 0 0 0 0 0 0 0 0 0 0 0 0.25 0"/>
<feBlend mode="normal" in2="BackgroundImageFix" result="effect1_dropShadow_1143_18042"/>
<feBlend mode="normal" in="SourceGraphic" in2="effect1_dropShadow_1143_18042" result="shape"/>
</filter>
<clipPath id="clip0_1143_18042">
<rect width="27.2387" height="25.6283" fill="white" transform="translate(14.4941 15.711)"/>
</clipPath>
</defs>
</svg>
