<svg width="975" height="415" viewBox="0 0 975 415" fill="none" xmlns="http://www.w3.org/2000/svg">
<g clip-path="url(#clip0_1730_19541)">
<path opacity="0.5" d="M312.973 331.077H268.503V409.125H160.682V331.077H0V251.35L167.814 5.87463H268.503V249.671H312.973V331.077ZM160.682 249.671V202.674C160.682 193.862 161.102 182.113 161.521 167.007C162.36 151.901 162.78 144.348 163.199 143.509H160.262C153.969 157.776 146.837 170.784 138.866 183.372L94.3954 249.671H160.682Z" fill="url(#paint0_linear_1730_19541)"/>
<path opacity="0.5" d="M632.659 208.129C632.659 279.464 620.493 331.916 596.999 365.066C573.085 398.215 536.586 415 487.081 415C438.834 415 402.754 397.796 378.002 362.968C353.668 328.14 341.502 276.527 341.502 208.129C341.502 136.375 353.249 83.9231 377.582 50.3539C401.495 16.7846 437.995 0 487.5 0C535.327 0 571.827 17.6239 596.16 52.452C620.493 87.2801 632.659 138.893 632.659 208.129ZM449.742 208.129C449.742 253.868 452.679 285.339 458.133 302.123C464.006 319.328 473.236 327.72 486.661 327.72C500.086 327.72 509.736 318.908 515.609 301.284C521.063 283.66 524 252.609 524 208.129C524 163.231 521.063 132.179 515.609 114.135C509.736 96.092 500.506 87.2801 487.081 87.2801C473.656 87.2801 464.006 96.092 458.552 113.296C452.679 130.501 449.742 161.972 449.742 208.129Z" fill="url(#paint1_linear_1730_19541)"/>
<path opacity="0.5" d="M975.001 331.077H930.53V409.125H822.709V331.077H662.027V251.35L829.841 5.87463H930.53V249.671H975.001V331.077ZM823.129 249.671V202.674C823.129 193.862 823.548 182.113 823.968 167.007C824.807 151.901 825.227 144.348 825.646 143.509H822.709C816.416 157.776 809.284 170.784 801.313 183.372L756.423 250.091H823.129V249.671Z" fill="url(#paint2_linear_1730_19541)"/>
</g>
<g clip-path="url(#clip1_1730_19541)">
<path d="M662.936 52.5253C655.054 70.1403 633.379 57.3513 589.163 73.2772C552.276 86.5488 536.906 109.794 526.345 104.003C515.783 98.1313 536.749 71.1055 590.108 49.7905C629.833 33.8646 672.158 32.0146 662.936 52.5253Z" fill="#231F20"/>
<path d="M320.946 55.9842C329.143 73.4383 350.581 60.2471 395.113 75.2883C432.237 87.8359 448.079 110.84 458.483 104.727C468.887 98.6945 447.448 72.0709 393.695 51.8016C353.734 36.7605 311.33 35.7148 320.946 55.9842Z" fill="#231F20"/>
<path d="M609.104 230.767C642.274 230.767 669.163 203.326 669.163 169.476C669.163 135.626 642.274 108.186 609.104 108.186C575.934 108.186 549.045 135.626 549.045 169.476C549.045 203.326 575.934 230.767 609.104 230.767Z" fill="white"/>
<path d="M644.492 120.009C650.64 129.661 654.187 141.083 654.187 153.47C654.187 187.333 627.31 214.76 594.127 214.76C580.886 214.76 568.669 210.337 558.738 202.937C569.457 219.747 587.98 230.767 609.103 230.767C642.285 230.767 669.162 203.339 669.162 169.476C669.083 149.126 659.389 131.109 644.492 120.009Z" fill="#EFEFEF"/>
<path d="M609.103 233.582C574.502 233.582 546.285 204.787 546.285 169.476C546.285 134.166 574.502 105.37 609.103 105.37C643.704 105.37 671.921 134.166 671.921 169.476C671.921 204.787 643.783 233.582 609.103 233.582ZM609.103 111.001C577.497 111.001 551.802 137.222 551.802 169.476C551.802 201.73 577.497 227.952 609.103 227.952C640.709 227.952 666.403 201.73 666.403 169.476C666.482 137.222 640.709 111.001 609.103 111.001Z" fill="#231F20"/>
<path d="M639.053 190.389C651.851 190.389 662.226 179.802 662.226 166.742C662.226 153.681 651.851 143.094 639.053 143.094C626.255 143.094 615.881 153.681 615.881 166.742C615.881 179.802 626.255 190.389 639.053 190.389Z" fill="#231F20"/>
<path d="M633.3 172.131C638.524 172.131 642.758 167.809 642.758 162.478C642.758 157.148 638.524 152.826 633.3 152.826C628.076 152.826 623.842 157.148 623.842 162.478C623.842 167.809 628.076 172.131 633.3 172.131Z" fill="white"/>
<path d="M366.817 228.756C399.987 228.756 426.876 201.315 426.876 167.465C426.876 133.616 399.987 106.175 366.817 106.175C333.647 106.175 306.758 133.616 306.758 167.465C306.758 201.315 333.647 228.756 366.817 228.756Z" fill="white"/>
<path d="M402.129 117.999C408.276 127.651 411.823 139.072 411.823 151.459C411.823 185.322 384.946 212.75 351.764 212.75C338.523 212.75 326.306 208.326 316.375 200.926C327.094 217.736 345.616 228.756 366.74 228.756C399.922 228.756 426.799 201.328 426.799 167.465C426.799 147.116 417.104 129.098 402.129 117.999Z" fill="#EFEFEF"/>
<path d="M366.818 231.571C332.217 231.571 304 202.856 304 167.465C304 132.075 332.217 103.36 366.818 103.36C401.419 103.36 429.635 132.155 429.635 167.465C429.635 202.776 401.498 231.571 366.818 231.571ZM366.818 108.99C335.212 108.99 309.517 135.211 309.517 167.465C309.517 199.719 335.212 225.941 366.818 225.941C398.424 225.941 424.118 199.719 424.118 167.465C424.118 135.211 398.424 108.99 366.818 108.99Z" fill="#231F20"/>
<path d="M396.69 188.459C409.488 188.459 419.862 177.871 419.862 164.811C419.862 151.751 409.488 141.164 396.69 141.164C383.892 141.164 373.518 151.751 373.518 164.811C373.518 177.871 383.892 188.459 396.69 188.459Z" fill="#231F20"/>
<path d="M391.015 170.12C396.238 170.12 400.473 165.798 400.473 160.468C400.473 155.137 396.238 150.816 391.015 150.816C385.791 150.816 381.557 155.137 381.557 160.468C381.557 165.798 385.791 170.12 391.015 170.12Z" fill="white"/>
<path d="M353.812 383.109C353.339 383.109 352.866 383.028 352.394 382.948C349.241 382.143 347.27 378.926 348.059 375.628C348.768 372.652 364.295 346.672 389.359 319.968C412.531 295.275 449.655 264.227 494.502 256.586C566.935 244.119 597.28 279.188 598.541 280.716C600.669 283.21 600.354 287.071 597.911 289.242C595.467 291.414 591.684 291.092 589.556 288.599C589.477 288.518 582.699 280.716 567.96 274.362C554.246 268.49 530.758 262.699 496.472 268.571C455.566 275.568 421.201 304.123 399.527 326.805C375.172 352.302 360.906 376.272 359.329 379.328C358.384 381.58 356.177 383.109 353.812 383.109Z" fill="#231F20"/>
<path d="M600.198 264.871C606.346 275.086 608.632 287.634 606.582 299.457C605.952 302.836 605.006 306.133 603.745 309.351C603.351 310.316 604.139 311.442 605.006 311.683C606.031 312.005 606.898 311.281 607.292 310.396C612.021 298.573 612.178 284.899 608.001 272.914C606.819 269.456 605.242 266.158 603.43 263.021C602.168 260.849 599.016 262.78 600.198 264.871Z" fill="#231F20"/>
<path d="M336.946 357.128C331.586 369.515 331.665 383.752 337.103 396.058C337.497 397.024 338.837 397.185 339.625 396.702C340.571 396.139 340.729 395.093 340.256 394.128C335.369 383.189 335.369 369.998 340.098 359.059C340.492 358.094 340.335 357.048 339.468 356.485C338.68 356.002 337.34 356.163 336.946 357.128Z" fill="#231F20"/>
<path d="M454.464 55.582C458.247 56.0646 460.69 60.1667 462.345 63.1428C464.789 67.4862 467.153 71.9101 468.966 76.4948C472.434 84.9403 474.168 94.2707 471.409 103.199C470.069 107.623 467.547 111.484 464.001 114.299C463.212 114.942 463.37 116.31 464.001 116.953C464.789 117.757 465.813 117.596 466.602 116.953C473.853 111.162 476.927 101.268 476.533 92.1794C476.06 81.1599 470.936 70.8644 465.735 61.4537C463.212 56.9494 459.902 52.3646 454.542 51.7212C453.518 51.6407 452.73 52.6864 452.73 53.5711C452.651 54.7777 453.518 55.4211 454.464 55.582Z" fill="#231F20"/>
<path d="M522.562 120.009C515.626 117.918 510.424 111.966 507.823 105.29C504.67 97.1662 505.143 88.238 507.429 79.9534C508.848 74.7252 510.897 69.7383 513.262 64.8318C513.656 63.947 513.498 62.821 512.631 62.2579C511.843 61.7753 510.582 62.0166 510.109 62.9014C505.695 72.1513 501.991 82.1251 501.912 92.501C501.833 101.107 504.592 109.794 510.266 116.229C513.34 119.688 517.202 122.262 521.537 123.549C523.823 124.272 524.769 120.653 522.562 120.009Z" fill="#231F20"/>
</g>
<defs>
<linearGradient id="paint0_linear_1730_19541" x1="-22.4234" y1="213.61" x2="279.24" y2="112.733" gradientUnits="userSpaceOnUse">
<stop offset="0.0149939" stop-color="#FB775F"/>
<stop offset="0.369648" stop-color="#DA3A74"/>
<stop offset="0.546875" stop-color="#CE2595"/>
<stop offset="1" stop-color="#A937DF"/>
</linearGradient>
<linearGradient id="paint1_linear_1730_19541" x1="320.642" y1="213.788" x2="606.536" y2="127.366" gradientUnits="userSpaceOnUse">
<stop offset="0.0149939" stop-color="#FB775F"/>
<stop offset="0.369648" stop-color="#DA3A74"/>
<stop offset="0.546875" stop-color="#CE2595"/>
<stop offset="1" stop-color="#A937DF"/>
</linearGradient>
<linearGradient id="paint2_linear_1730_19541" x1="639.604" y1="213.61" x2="941.267" y2="112.733" gradientUnits="userSpaceOnUse">
<stop offset="0.0149939" stop-color="#FB775F"/>
<stop offset="0.369648" stop-color="#DA3A74"/>
<stop offset="0.546875" stop-color="#CE2595"/>
<stop offset="1" stop-color="#A937DF"/>
</linearGradient>
<clipPath id="clip0_1730_19541">
<rect width="975" height="415" fill="white"/>
</clipPath>
<clipPath id="clip1_1730_19541">
<rect width="368" height="359.459" fill="white" transform="translate(304 37.4844)"/>
</clipPath>
</defs>
</svg>
