<svg width="115" height="129" viewBox="0 0 115 129" fill="none" xmlns="http://www.w3.org/2000/svg">
<path d="M64.6966 94.4541H49.4737C47.3422 94.4541 45.668 96.1064 45.668 98.2099V124.751C45.668 126.027 46.3533 127.229 47.4947 127.981C48.1039 128.356 48.7884 128.506 49.4737 128.506C50.0829 128.506 50.6157 128.356 51.148 128.131L66.3709 120.619C67.6651 119.943 68.5023 118.666 68.5023 117.239V98.2099C68.5023 96.1064 66.8281 94.4541 64.6966 94.4541Z" fill="#FD3018"/>
<path d="M68.5031 98.2099V117.239C68.5031 118.666 67.6659 119.943 66.3717 120.619L57.0859 125.201V94.4541H64.6974C66.8289 94.4541 68.5031 96.1064 68.5031 98.2099Z" fill="#E61E14"/>
<path d="M34.2513 60.4018H19.0284C16.9248 60.4018 15.2227 58.722 15.2227 56.646V41.623C15.2227 39.547 16.9248 37.8672 19.0284 37.8672H34.2513C36.3549 37.8672 38.057 39.547 38.057 41.623V56.646C38.057 58.722 36.3549 60.4018 34.2513 60.4018Z" fill="#19DEC1"/>
<path d="M72.3081 30.3564H49.4737C47.3422 30.3564 45.668 32.0087 45.668 34.1122V56.6468C45.668 58.7498 47.3422 60.4026 49.4737 60.4026H72.3081C74.4395 60.4026 76.1138 58.7498 76.1138 56.6468V34.1122C76.1138 32.0087 74.4395 30.3564 72.3081 30.3564Z" fill="#19DEC1"/>
<path d="M110.365 37.8667H95.1417C93.0381 37.8667 91.3359 36.1868 91.3359 34.1109V19.0878C91.3359 17.0119 93.0381 15.332 95.1417 15.332H110.365C112.468 15.332 114.17 17.0119 114.17 19.0878V34.1109C114.17 36.1868 112.468 37.8667 110.365 37.8667Z" fill="#17CEB4"/>
<path d="M19.0286 30.3557H3.80573C1.70218 30.3557 0 28.6759 0 26.6V4.06534C0 1.9894 1.70218 0.30957 3.80573 0.30957H19.0286C21.1322 0.30957 22.8344 1.9894 22.8344 4.06534V26.6C22.8344 28.6759 21.1322 30.3557 19.0286 30.3557Z" fill="#19DEC1"/>
<path d="M79.9195 0.30957H49.4737C47.3422 0.30957 45.668 1.96186 45.668 4.06534V19.0884C45.668 21.1914 47.3422 22.8442 49.4737 22.8442H79.9195C82.051 22.8442 83.7253 21.1914 83.7253 19.0884V4.06534C83.7253 1.96186 82.051 0.30957 79.9195 0.30957Z" fill="#19DEC1"/>
<path d="M34.251 30.3551C32.1475 30.3551 30.4453 28.6753 30.4453 26.5993V19.0878C30.4453 17.0119 32.1475 15.332 34.251 15.332C36.3546 15.332 38.0568 17.0119 38.0568 19.0878V26.5993C38.0568 28.6753 36.3546 30.3551 34.251 30.3551Z" fill="#17ACE8"/>
<path d="M87.5323 60.4021C85.4287 60.4021 83.7266 58.7223 83.7266 56.6463V49.1348C83.7266 47.0589 85.4287 45.379 87.5323 45.379C89.6358 45.379 91.338 47.0589 91.338 49.1348V56.6463C91.338 58.7223 89.6358 60.4021 87.5323 60.4021Z" fill="#1689FC"/>
<path d="M102.755 52.8906C104.857 52.8906 106.561 51.2091 106.561 49.1348C106.561 47.0605 104.857 45.379 102.755 45.379C100.653 45.379 98.9492 47.0605 98.9492 49.1348C98.9492 51.2091 100.653 52.8906 102.755 52.8906Z" fill="#1689FC"/>
<path d="M3.80573 45.3787C5.90758 45.3787 7.61146 43.6972 7.61146 41.623C7.61146 39.5487 5.90758 37.8672 3.80573 37.8672C1.70388 37.8672 0 39.5487 0 41.623C0 43.6972 1.70388 45.3787 3.80573 45.3787Z" fill="#17ACE8"/>
<path d="M97.6578 74.5235L68.5056 98.2099H45.6713L16.5191 74.5235C15.3016 73.4719 14.921 71.8191 15.4538 70.317C15.9861 68.8898 17.4323 67.9133 19.0309 67.9133H95.1455C96.7442 67.9133 98.1903 68.8898 98.7226 70.317C99.2557 71.8191 98.8754 73.4719 97.6578 74.5235Z" fill="#FD4E26"/>
<path d="M97.6553 74.5232L68.5031 98.2096H57.0859V67.9131H95.1432C96.7419 67.9131 98.1881 68.8896 98.7204 70.3168C99.2532 71.8188 98.8728 73.4716 97.6553 74.5232Z" fill="#FD3018"/>
<path d="M76.1146 34.1122V56.6468C76.1146 58.7498 74.4403 60.4026 72.3089 60.4026H57.0859V30.3564H72.3089C74.4403 30.3564 76.1146 32.0087 76.1146 34.1122Z" fill="#17CEB4"/>
<path d="M83.726 4.06534V19.0884C83.726 21.1914 82.0518 22.8442 79.9203 22.8442H57.0859V0.30957H79.9203C82.0518 0.30957 83.726 1.96186 83.726 4.06534Z" fill="#17CEB4"/>
</svg>
