<svg width="103" height="65" viewBox="0 0 103 65" fill="none" xmlns="http://www.w3.org/2000/svg">
<path d="M81.9959 40.1089L81.6121 39.2126L81.5045 37.2174L47.1425 13.3968L45.2162 12.04L44.6847 11.8203C42.7954 11.0389 40.7986 10.5482 38.7623 10.365L33.1983 9.86414C32.4695 9.79856 31.7375 9.76483 31.0063 9.78717C29.6877 9.82742 28.3741 9.56299 27.169 9.0104L23.1898 7.1857L22.0418 7.94475L11.9695 30.7091L12.4461 31.9427L20.1053 37.1413L22.5232 38.9654L24.0892 39.053L47.9397 57.1245L48.1181 58.7178L51.3954 61.3113C53.2154 62.7515 55.851 62.682 57.5102 61.059C59.1248 59.4797 59.3004 57.026 58.1119 55.2521L59.7553 56.5526C61.6293 58.0357 64.3587 57.9096 65.9987 56.1713C67.5872 54.4877 67.6341 51.9403 66.2623 50.2058L67.1853 50.9361C68.9725 52.3502 71.5521 52.3143 73.2186 50.76C74.9904 49.1077 75.1259 46.4299 73.7112 44.6144L75.0972 45.7113C77.0347 47.2445 79.8451 46.9623 81.4377 45.06C82.6321 43.6333 82.7672 41.6876 81.9959 40.1089Z" fill="#F1AFA2"/>
<path d="M13.7873 26.5995L11.9691 30.7093L12.4457 31.9429L20.1048 37.1415L22.5228 38.9655L24.0888 39.0532L47.9393 57.1247L48.1177 58.718L51.395 61.3114C53.215 62.7517 55.8506 62.6822 57.5097 61.0592C57.6505 60.9215 57.7761 60.7752 57.895 60.6253L13.7873 26.5995Z" fill="#D79689"/>
<path d="M1.24728 27.3995L12.5476 1.35887C12.8965 0.554757 13.8313 0.185705 14.6354 0.534784L22.8101 4.08216C23.6142 4.43104 23.9833 5.36587 23.6344 6.16998L12.3339 32.2107C11.985 33.0148 11.0502 33.3838 10.2461 33.0347L2.07136 29.4876C1.26725 29.1385 0.898196 28.2038 1.24728 27.3995Z" fill="#1A73CB"/>
<path d="M6.58743 30.0953L18.1147 3.53132C18.3432 3.0051 18.8176 2.66296 19.3448 2.57832L14.6353 0.534674C13.8312 0.185792 12.8964 0.554845 12.5475 1.35876L1.24717 27.3997C0.89828 28.204 1.26734 29.1386 2.07144 29.4877L6.62502 31.4635C6.41854 31.0503 6.38914 30.5523 6.58743 30.0953Z" fill="#4CABFF"/>
<path d="M22.2064 45.3052C20.5591 43.8104 20.4355 41.2631 21.9304 39.6159L25.8432 35.3244C27.338 33.6771 29.8852 33.5536 31.5325 35.0484C33.1798 36.5432 33.3034 39.0904 31.8085 40.7377L27.8957 45.0291C26.4009 46.6764 23.8537 46.8 22.2064 45.3052Z" fill="#FFDECF" fill-opacity="0.6"/>
<path d="M28.1673 50.7192C26.5201 49.2244 26.3965 46.6772 27.8913 45.0299L31.8041 40.7385C33.2989 39.0912 35.8462 38.9676 37.4935 40.4624C39.1407 41.9573 39.2643 44.5045 37.7695 46.1518L33.8567 50.4432C32.3618 52.0907 29.8146 52.2143 28.1673 50.7192Z" fill="#FFDECF" fill-opacity="0.6"/>
<path d="M34.14 56.1323C32.4927 54.6375 32.3691 52.0903 33.864 50.443L37.7768 46.1516C39.2716 44.5043 41.8188 44.3807 43.4661 45.8755C45.1134 47.3703 45.237 49.9176 43.7422 51.5648L39.8293 55.8563C38.3345 57.5038 35.7873 57.6271 34.14 56.1323Z" fill="#FFDECF" fill-opacity="0.6"/>
<path d="M40.1009 61.5465C38.4536 60.0517 38.3301 57.5045 39.8249 55.8572L43.7377 51.5658C45.2325 49.9185 47.7798 49.7949 49.4271 51.2897C51.0743 52.7845 51.1979 55.3318 49.7031 56.979L45.7903 61.2705C44.2954 62.9178 41.7482 63.0413 40.1009 61.5465Z" fill="#FFDECF" fill-opacity="0.6"/>
<path d="M26.0748 40.3997L29.9876 36.1083C30.4296 35.6212 30.9647 35.2711 31.5401 35.0529C31.5387 35.0517 31.5378 35.0505 31.5364 35.0492C29.8892 33.5544 27.3419 33.678 25.8471 35.3253L21.9343 39.6167C20.4395 41.264 20.563 43.8112 22.2101 45.306C23.3703 46.3591 24.976 46.6053 26.347 46.0856C24.7035 44.5901 24.581 42.0457 26.0748 40.3997Z" fill="#FFCEBE" fill-opacity="0.6"/>
<path d="M32.0475 45.8128L35.9603 41.5214C36.4023 41.0343 36.9373 40.6841 37.5127 40.466C37.5114 40.4647 37.5104 40.4635 37.5091 40.4625C35.8618 38.9675 33.3146 39.091 31.8198 40.7383L27.9069 45.0298C26.4121 46.677 26.5357 49.2243 28.183 50.7191C29.3432 51.7721 30.9488 52.0184 32.3199 51.4986C30.6762 50.0032 30.5537 47.4587 32.0475 45.8128Z" fill="#FFCEBE" fill-opacity="0.6"/>
<path d="M38.0123 51.2269L41.9252 46.9355C42.3672 46.4484 42.9022 46.0983 43.4776 45.8801C43.4763 45.8788 43.4753 45.8776 43.474 45.8764C41.8267 44.3816 39.2794 44.5052 37.7846 46.1522L33.8718 50.4439C32.377 52.0912 32.5005 54.6384 34.1476 56.1332C35.3078 57.186 36.9135 57.4325 38.2845 56.9126C36.641 55.4173 36.5185 52.8728 38.0123 51.2269Z" fill="#FFCEBE" fill-opacity="0.6"/>
<path d="M43.9693 56.64L47.8822 52.3486C48.3242 51.8615 48.8592 51.5113 49.4346 51.2932C49.4333 51.2919 49.4323 51.2907 49.431 51.2895C47.7837 49.7947 45.2365 49.9182 43.7417 51.5653L39.8288 55.8568C38.334 57.5041 38.4576 60.0513 40.1047 61.5461C41.2649 62.5989 42.8705 62.8453 44.2416 62.3256C42.598 60.8304 42.4756 58.2859 43.9693 56.64Z" fill="#FFCEBE" fill-opacity="0.6"/>
<path d="M82.8615 10.0665L81.4206 9.22107L75.4688 11.1932C73.8183 11.7402 72.0548 11.854 70.3476 11.5243L53.1097 8.19379C51.1649 7.81794 49.1559 8.39844 47.7167 9.75953C44.7511 12.5642 39.1661 17.5053 33.1158 21.107C31.764 21.9117 31.5048 23.7714 32.6081 24.8928C34.9022 27.2244 39.7182 29.3293 48.4023 22.0426C49.2021 21.3715 50.3919 21.4403 51.088 22.2183C53.459 24.8668 59.3339 30.0083 68.3997 28.7618L81.6145 39.2192L90.2675 34.0642L90.7141 33.1639L82.8615 10.0665Z" fill="#FFDECF" fill-opacity="0.6"/>
<path d="M35.2848 25.417C41.3352 21.8151 46.9201 16.8742 49.8858 14.0695C51.325 12.7084 53.3339 12.1279 55.2788 12.5038L72.5167 15.8343C74.2239 16.164 75.9873 16.0502 77.6379 15.5032L83.5897 13.5311L84.1514 13.8605L82.8615 10.0665L81.4206 9.22107L75.4688 11.1932C73.8183 11.7402 72.0548 11.854 70.3476 11.5243L53.1097 8.19379C51.1649 7.81794 49.1559 8.39844 47.7167 9.75953C44.7511 12.5642 39.1661 17.5053 33.1158 21.107C31.764 21.9117 31.5048 23.7714 32.6081 24.8928C33.098 25.3907 33.7035 25.8781 34.4366 26.266C34.6372 25.9301 34.9196 25.6344 35.2848 25.417Z" fill="#FFCEBE" fill-opacity="0.6"/>
<path d="M101.926 30.7897L92.4031 4.04788C92.1091 3.22212 91.2012 2.79102 90.3755 3.08522L81.9807 6.07466C81.1549 6.36866 80.7238 7.27655 81.0178 8.10231L90.5408 34.8444C90.8348 35.6701 91.7427 36.1012 92.5685 35.807L100.963 32.8176C101.789 32.5234 102.22 31.6157 101.926 30.7897Z" fill="#8620EB"/>
<path d="M96.642 33.5974L86.6705 5.59568C86.5254 5.18789 86.5508 4.76178 86.7071 4.39216L81.9778 6.07634C81.152 6.37034 80.7209 7.27823 81.0149 8.10398L90.5379 34.846C90.8319 35.6718 91.7398 36.1029 92.5656 35.8087L97.0363 34.2166C96.8658 34.0471 96.7282 33.8393 96.642 33.5974Z" fill="#610FC7"/>
<path d="M65.8208 56.352L56.8563 48.9187C55.9928 48.2026 54.712 48.3223 53.9959 49.1858C53.2798 50.0496 53.3994 51.3302 54.263 52.0463L58.1334 55.2556L59.7687 56.5497C61.5727 57.9774 64.1665 57.9092 65.8208 56.352Z" fill="#D79689"/>
<path d="M60.7935 43.0461C60.0795 43.9117 60.2023 45.1921 61.0677 45.906L66.3481 50.2622L67.1985 50.935C68.9857 52.3491 71.5653 52.3132 73.2318 50.759C73.2481 50.7437 73.2618 50.727 73.2778 50.7118L63.6534 42.7721C62.788 42.0579 61.5074 42.1809 60.7935 43.0461Z" fill="#D79689"/>
<path d="M70.5209 36.6952C69.6559 35.9812 68.3754 36.1032 67.6611 36.9684C66.9469 37.8336 67.0691 39.1139 67.9343 39.8283L73.7895 44.6625L75.1144 45.711C76.9168 47.1373 79.4731 46.9905 81.1032 45.432L70.5209 36.6952Z" fill="#D79689"/>
</svg>
