<svg width="142" height="131" viewBox="0 0 142 131" fill="none" xmlns="http://www.w3.org/2000/svg">
<path d="M38.3068 89.76C36.35 87.7504 32.9236 87.5007 30.6872 89.1766L30.6284 89.139L25.5671 94.1339C24.4573 95.2257 23.8488 96.6825 23.8488 98.2315C23.7821 101.351 26.5652 104.091 29.7226 104.028C31.5608 104.058 33.1978 103.151 34.3967 101.817L38.3068 97.9586C39.1262 97.15 39.6759 96.1435 39.904 95.0483C40.3137 93.154 39.708 91.1227 38.3068 89.76Z" fill="#F53D3D"/>
<path d="M24.2333 72.7803C21.9422 70.519 18.2195 70.5214 15.9257 72.7803C15.3926 73.3092 12.1055 76.5511 11.497 77.1543C6.21338 82.8131 14.064 90.5637 19.8012 85.3528C19.8012 85.3528 23.6449 81.5592 24.2333 80.9789C26.5258 78.7203 26.5258 75.0424 24.2333 72.7803Z" fill="#F53D3D"/>
<path d="M50.319 102.982C48.7494 102.982 47.2732 103.586 46.1634 104.681L41.7313 109.055C41.7106 109.075 41.6898 109.096 41.6691 109.12C39.4482 111.285 39.4814 115.12 41.7313 117.254C44.0234 119.512 47.7503 119.512 50.0389 117.254L54.4745 112.876C58.1481 109.26 55.5075 102.963 50.319 102.982Z" fill="#F53D3D"/>
<path d="M89.7392 38.6416C80.6709 44.2848 68.512 43.2135 60.6192 35.4243L50.3445 25.2878L63.1672 12.6334C49.3948 -2.61909 25.1771 -3.58668 10.5173 10.979C-4.22214 25.426 -3.27729 49.2974 12.1456 62.8931C23.3773 56.6979 37.1891 65.351 36.2803 77.9733C43.7174 78.7666 50.0136 85.4189 50.3545 92.7601C57.348 92.6124 64.2949 97.7813 65.9983 104.599C71.8205 103.059 78.346 104.967 82.3335 109.519L82.4511 109.382C88.2318 112.808 94.3476 105.772 89.9877 100.648L89.9981 100.635C89.9082 100.549 66.6517 77.598 66.6517 77.598C68.4792 75.7945 72.1573 72.1647 73.9844 70.3616L97.0646 93.1388C102.798 98.3521 110.654 90.5994 105.369 84.9402L82.292 62.163C84.1195 60.3595 87.7976 56.7297 89.6247 54.9265C94.8119 60.0453 107.396 72.4649 112.705 77.7038C114.891 79.9508 118.827 79.9498 121.013 77.7038C123.301 75.4417 123.301 71.7638 121.013 69.5052L89.7392 38.6416Z" fill="#F53D3D"/>
<path d="M130.484 10.9756C116.431 -2.88998 93.5651 -2.88998 79.5116 10.9756C76.7791 13.674 67.5964 22.7382 65.0156 25.2847L67.9542 28.1848C73.064 33.2274 81.3751 33.2274 86.4813 28.1848L90.1494 24.5649C92.0996 26.5106 127.898 61.7792 128.905 62.842C144.29 49.2411 145.202 25.4038 130.484 10.9756Z" fill="#F53D3D"/>
<path d="M74.2819 116.001C71.9895 113.742 68.2654 113.739 65.9743 116.001L61.5422 120.375C59.2615 122.533 59.2625 126.416 61.5422 128.574C63.7316 130.819 67.6618 130.818 69.8498 128.574L74.2819 124.2C76.5578 122.045 76.5578 118.151 74.2819 116.001Z" fill="#F53D3D"/>
</svg>
