<svg width="75" height="75" viewBox="0 0 75 75" fill="none" xmlns="http://www.w3.org/2000/svg">
<path d="M37.5 56.5625L43.3333 43.3333L56.5625 37.5L43.3333 31.6667L37.5 18.4375L31.6667 31.6667L18.4375 37.5L31.6667 43.3333L37.5 56.5625ZM6.25 75C4.58333 75 3.125 74.375 1.875 73.125C0.625 71.875 0 70.4167 0 68.75V6.25C0 4.58333 0.625 3.125 1.875 1.875C3.125 0.625 4.58333 0 6.25 0H68.75C70.4167 0 71.875 0.625 73.125 1.875C74.375 3.125 75 4.58333 75 6.25V68.75C75 70.4167 74.375 71.875 73.125 73.125C71.875 74.375 70.4167 75 68.75 75H6.25ZM6.25 68.75H68.75V6.25H6.25V68.75Z" fill="url(#paint0_linear_1628_20601)"/>
<defs>
<linearGradient id="paint0_linear_1628_20601" x1="20.5402" y1="8.47989" x2="86.3335" y2="16.2761" gradientUnits="userSpaceOnUse">
<stop stop-color="#8800E1"/>
<stop offset="1" stop-color="#4A00E0" stop-opacity="0.97"/>
</linearGradient>
</defs>
</svg>
