<svg width="127" height="137" viewBox="0 0 127 137" fill="none" xmlns="http://www.w3.org/2000/svg">
<path d="M63.4985 137L47.2321 118.557L24.8278 121.728L20.9158 99.4374L0.933594 88.8308L10.8661 68.5L0.933861 48.1691L20.9161 37.5626L24.8278 15.2718L47.2321 18.4428L63.4985 0L79.7648 18.4428L102.169 15.2718L106.081 37.5626L126.063 48.1691L116.131 68.5L126.063 88.8308L106.081 99.4374L102.169 121.728L79.7648 118.557L63.4985 137Z" fill="#FF5959"/>
<path d="M79.7624 118.557L102.167 121.728L106.079 99.4374L126.061 88.8308L116.128 68.5L126.061 48.1691L106.079 37.5626L102.167 15.2718L79.7624 18.4428L63.4961 0V137L79.7624 118.557Z" fill="#E63A57"/>
<path d="M41.7539 84.5526L79.5331 46.7734L85.2078 52.4482L47.4287 90.2274L41.7539 84.5526Z" fill="#ECF2FF"/>
<path d="M79.5527 72.5139C72.9131 72.5139 67.5117 77.9153 67.5117 84.5549C67.5117 91.1946 72.9131 96.596 79.5527 96.596C86.1924 96.596 91.5938 91.1946 91.5938 84.5549C91.5938 77.9153 86.1924 72.5139 79.5527 72.5139ZM79.5527 88.5686C77.3396 88.5686 75.5391 86.7681 75.5391 84.5549C75.5391 82.3418 77.3396 80.5413 79.5527 80.5413C81.7659 80.5413 83.5664 82.3418 83.5664 84.5549C83.5664 86.7681 81.7659 88.5686 79.5527 88.5686Z" fill="#D9E5FF"/>
<path d="M47.4434 40.4043C40.8037 40.4043 35.4023 45.8056 35.4023 52.4453C35.4023 59.085 40.8037 64.4863 47.4434 64.4863C54.083 64.4863 59.4844 59.085 59.4844 52.4453C59.4844 45.8056 54.083 40.4043 47.4434 40.4043ZM47.4434 56.459C45.2302 56.459 43.4297 54.6585 43.4297 52.4453C43.4297 50.2322 45.2302 48.4316 47.4434 48.4316C49.6565 48.4316 51.457 50.2322 51.457 52.4453C51.457 54.6585 49.6565 56.459 47.4434 56.459Z" fill="#ECF2FF"/>
<path d="M63.4961 74.1754L85.2264 52.4451L79.5508 46.7695L63.4961 62.8242V74.1754Z" fill="#D9E5FF"/>
</svg>
