<svg width="102" height="100" viewBox="0 0 102 100" fill="none" xmlns="http://www.w3.org/2000/svg">
<path d="M43.572 61.6559L35.7644 69.3611L30.1271 74.9224L25.2539 70.1132L30.7428 64.6943L38.6968 56.8447L43.572 61.6559Z" fill="#ECF4FF"/>
<path d="M43.5753 61.6559L35.7676 69.3611C34.5768 68.4426 33.4286 67.4418 32.3332 66.3609C31.7825 65.8174 31.2541 65.2619 30.7461 64.6943L38.7001 56.8447L43.5753 61.6559Z" fill="#D2E5FD"/>
<path d="M32.0636 73.5103C32.0636 74.7256 31.643 75.945 30.7894 76.9397L26.1093 82.2102L14.7894 94.9566L13.1751 95.5328L12.78 97.2194L12.1157 97.9675C10.0815 100.336 6.43166 100.484 4.20642 98.2904L1.57474 95.6932C-0.648471 93.4972 -0.498089 89.8953 1.90192 87.8878L2.51381 87.3585L3.89489 86.7085L4.80876 85.3737L17.8688 74.0778L23.2094 69.4591C25.3452 67.6742 28.5093 67.8026 30.4887 69.756C31.5352 70.7888 32.0636 72.1465 32.0636 73.5103Z" fill="#BC492E"/>
<path d="M32.0659 73.5103C32.0659 74.7256 31.6453 75.945 30.7917 76.9397L26.1116 82.2102C26.2396 81.6908 26.3026 81.1613 26.3026 80.6298C26.3026 78.8991 25.63 77.1723 24.303 75.8627C22.5695 74.152 20.1146 73.5424 17.8711 74.0778L23.2117 69.4591C25.3475 67.6742 28.5116 67.8026 30.491 69.756C31.5375 70.7888 32.0659 72.1465 32.0659 73.5103Z" fill="#C22806"/>
<path d="M90.0635 63.0938C82.1258 70.9273 71.5056 74.4971 61.1211 73.8052C69.8188 73.2256 78.35 69.6558 84.9972 63.0938C99.5843 48.6982 99.5843 25.3601 84.9972 10.9666C78.35 4.40455 69.8188 0.834739 61.1211 0.255146C71.5056 -0.436754 82.1258 3.13305 90.0635 10.9666C104.648 25.3601 104.648 48.6982 90.0635 63.0938Z" fill="#004281"/>
<path d="M84.99 63.0938C78.3427 69.6558 69.8116 73.2256 61.1138 73.8052C52.4161 73.2256 43.8849 69.6558 37.2356 63.0938C22.6506 48.6982 22.6506 25.3601 37.2356 10.9666C43.8849 4.40453 52.4161 0.834719 61.1138 0.255127C69.8116 0.834719 78.3427 4.40453 84.99 10.9666C99.577 25.3601 99.577 48.6982 84.99 63.0938Z" fill="#0055A3"/>
<path d="M83.3967 56.513C77.1498 62.678 68.6776 65.3112 60.5286 64.4087C54.4584 63.7389 48.5671 61.1057 43.9114 56.513C33.0087 45.7515 33.0087 28.3056 43.9114 17.546C48.5671 12.9534 54.4584 10.3202 60.5286 9.65031C68.6776 8.74783 77.1498 11.3811 83.3967 17.546C94.2994 28.3056 94.2994 45.7515 83.3967 56.513Z" fill="#ECF4FF"/>
<path d="M83.3877 56.513C77.1408 62.678 68.6686 65.3112 60.5195 64.4087C66.5897 63.7389 72.481 61.1057 77.1367 56.513C88.0394 45.7515 88.0394 28.3056 77.1367 17.546C72.481 12.9534 66.5897 10.3202 60.5195 9.65031C68.6686 8.74783 77.1408 11.3811 83.3877 17.546C94.2904 28.3056 94.2904 45.7515 83.3877 56.513Z" fill="#D2E5FD"/>
<path d="M74.9094 42.1524L65.8235 51.119C64.8867 52.0435 63.4966 52.2441 62.3607 51.7226C62.0457 51.5782 61.749 51.3757 61.4868 51.119L52.4009 42.1524C49.2795 39.0699 49.1901 34.0521 52.2891 30.9476C55.1017 28.1298 59.5176 27.839 62.6634 30.0732C63.2548 30.4923 64.0575 30.4923 64.6469 30.0732C65.1346 29.7262 65.6548 29.4414 66.1934 29.2148C66.7603 28.9782 67.3517 28.8077 67.9512 28.7054C70.4467 28.2802 73.1069 29.0283 75.0232 30.9476C78.1223 34.0521 78.0308 39.0699 74.9094 42.1524Z" fill="#FD4755"/>
<path d="M74.8993 42.1524L65.8134 51.119C64.8765 52.0435 63.4865 52.2441 62.3505 51.7226C62.0355 51.5782 61.7388 51.3757 61.4767 51.119L60.5195 50.1744L68.6483 42.1524C71.7697 39.0699 71.8612 34.0521 68.7621 30.9476C68.002 30.1855 67.1221 29.6079 66.1832 29.2148C66.7502 28.9782 67.3416 28.8077 67.9411 28.7054C70.4366 28.2802 73.0967 29.0283 75.0131 30.9476C78.1122 34.0521 78.0207 39.0699 74.8993 42.1524Z" fill="#FB2B3A"/>
<path d="M14.7881 94.9564L12.7783 97.2186C12.758 97.2046 12.7377 97.1865 12.7174 97.1665L2.59504 87.4458C2.56456 87.4177 2.53814 87.3876 2.51172 87.3575L4.80606 85.3721L14.7881 94.9564Z" fill="#FE646F"/>
</svg>
