<svg width="73" height="60" viewBox="0 0 73 60" fill="none" xmlns="http://www.w3.org/2000/svg">
<path d="M23.0205 40.1873C22.2013 39.3347 20.7667 39.2288 19.8303 39.9398L19.8057 39.9239L17.6867 42.0429C17.222 42.5061 16.9673 43.1242 16.9673 43.7813C16.9394 45.1047 18.1046 46.2673 19.4265 46.2405C20.1961 46.253 20.8815 45.8682 21.3835 45.3026L23.0205 43.6655C23.3636 43.3225 23.5937 42.8955 23.6892 42.4308C23.8608 41.6272 23.6072 40.7654 23.0205 40.1873Z" fill="#F53D3D"/>
<path d="M17.1283 32.9848C16.1691 32.0254 14.6105 32.0264 13.6501 32.9848C13.4269 33.2091 12.0506 34.5845 11.7959 34.8404C9.58375 37.2411 12.8706 40.5293 15.2727 38.3186C15.2727 38.3186 16.8819 36.7092 17.1283 36.463C18.0881 35.5048 18.0881 33.9444 17.1283 32.9848Z" fill="#F53D3D"/>
<path d="M28.0488 45.7966C27.3917 45.7966 26.7736 46.0529 26.309 46.5175L24.4533 48.3731C24.4446 48.3818 24.436 48.3905 24.4273 48.4006C23.4974 49.3193 23.5113 50.9461 24.4533 51.8513C25.413 52.8095 26.9733 52.8095 27.9316 51.8513L29.7886 49.9943C31.3267 48.4601 30.2211 45.7884 28.0488 45.7966Z" fill="#F53D3D"/>
<path d="M44.5542 18.4997C40.7576 20.8938 35.6669 20.4393 32.3623 17.1347L28.0605 12.8344L33.4291 7.46577C27.6629 0.994945 17.5235 0.584448 11.3858 6.7639C5.21471 12.893 5.61029 23.0204 12.0675 28.7883C16.77 26.16 22.5527 29.831 22.1722 35.186C25.2859 35.5226 27.922 38.3448 28.0647 41.4593C30.9928 41.3966 33.9013 43.5895 34.6144 46.4819C37.0521 45.8285 39.7841 46.638 41.4536 48.5691L41.5028 48.5112C43.9231 49.9643 46.4837 46.9797 44.6583 44.8058L44.6626 44.8C44.625 44.7638 34.888 35.0268 34.888 35.0268C35.6531 34.2617 37.1931 32.7217 37.958 31.9568L47.6212 41.6199C50.0218 43.8316 53.3107 40.5426 51.098 38.1417L41.4363 28.4785C42.2014 27.7134 43.7413 26.1735 44.5063 25.4085C46.6781 27.5801 51.9468 32.8491 54.1695 35.0717C55.0846 36.025 56.7325 36.0245 57.6477 35.0717C58.6059 34.112 58.6059 32.5517 57.6477 31.5935L44.5542 18.4997Z" fill="#F53D3D"/>
<path d="M61.6115 6.76339C55.7276 0.880954 46.1542 0.880954 40.2703 6.76339C39.1263 7.90818 35.2817 11.7536 34.2012 12.834L35.4315 14.0643C37.5708 16.2037 41.0505 16.2037 43.1884 14.0643L44.7241 12.5286C45.5406 13.3541 60.5288 28.3166 60.95 28.7675C67.3918 22.9974 67.7735 12.8845 61.6115 6.76339Z" fill="#F53D3D"/>
<path d="M38.0831 51.3203C37.1232 50.3619 35.5641 50.3608 34.6048 51.3203L32.7492 53.1759C31.7943 54.0913 31.7948 55.7386 32.7492 56.6541C33.6659 57.6068 35.3113 57.6063 36.2274 56.6541L38.0831 54.7985C39.0359 53.8843 39.0359 52.2323 38.0831 51.3203Z" fill="#F53D3D"/>
</svg>
