<svg width="68" height="61" viewBox="0 0 68 61" fill="none" xmlns="http://www.w3.org/2000/svg">
<path d="M65.8792 8.60811C63.0313 2.79653 54.8276 -1.9584 45.2849 0.810025C40.725 2.11972 36.7465 4.9284 33.9995 8.77718C31.2525 4.9284 27.2741 2.11972 22.7141 0.810025C13.1502 -1.91614 4.96776 2.79653 2.11984 8.60811C-1.87575 16.7443 -0.218002 25.8949 7.05057 35.8063C12.7464 43.5621 20.8864 51.4236 32.7031 60.5531C33.0765 60.8427 33.5366 61 34.0102 61C34.4837 61 34.9438 60.8427 35.3172 60.5531C47.1127 51.4448 55.2739 43.6467 60.9697 35.8063C68.2171 25.8949 69.8748 16.7443 65.8792 8.60811Z" fill="#EB5757"/>
</svg>
