<svg width="86" height="82" viewBox="0 0 86 82" fill="none" xmlns="http://www.w3.org/2000/svg">
<path d="M63.4204 57.3225C65.7155 54.6345 67.4176 51.7339 68.657 48.1795C69.7804 44.9576 70.3332 41.5511 70.3332 38.1464C70.3332 21.017 56.2334 7.13086 38.8404 7.13086C21.4475 7.13086 7.34766 21.017 7.34766 38.1464C7.34766 41.789 7.99547 45.4256 9.27155 48.8453C10.827 53.0133 13.4238 56.82 16.6605 59.867C19.3889 62.4356 22.1171 65.004 24.8455 67.5725L36.7837 78.8112C37.9342 79.8944 39.7466 79.8944 40.8973 78.8112C44.331 75.5786 50.9158 69.3796 51.5089 68.8213C54.5454 65.9627 57.5819 63.1041 60.6184 60.2455C61.6383 59.2854 62.57 58.3185 63.4204 57.3225Z" fill="#FB2B3A"/>
<path d="M70.3329 37.6516C70.3329 41.0974 69.7729 44.5444 68.6349 47.8041C67.3798 51.4004 65.6549 54.3365 63.3308 57.0556C62.469 58.0644 61.5247 59.0421 60.4919 60.014C57.4157 62.9072 54.3395 65.7991 51.2634 68.6924C50.6629 69.2566 43.9927 75.5306 40.5141 78.8006C39.3476 79.8979 37.5131 79.8979 36.3465 78.8006L35.8691 78.3516C36.2399 78.2142 36.5898 78.003 36.893 77.718C40.3714 74.4466 47.0416 68.174 47.6422 67.6084C50.7184 64.7165 53.7946 61.8232 56.8707 58.9314C57.9036 57.9595 58.8479 56.9818 59.7096 55.973C62.0336 53.2525 63.7587 50.3178 65.0138 46.7215C66.1518 43.4604 66.7118 40.0132 66.7118 36.569C66.7118 23.0714 58.0508 11.5631 45.8963 7.13086C59.914 10.4376 70.3329 22.8483 70.3329 37.6516Z" fill="#DD1D35"/>
<path d="M38.8419 60.6076C51.6405 60.6076 62.0158 50.2323 62.0158 37.4337C62.0158 24.6351 51.6405 14.2598 38.8419 14.2598C26.0433 14.2598 15.668 24.6351 15.668 37.4337C15.668 50.2323 26.0433 60.6076 38.8419 60.6076Z" fill="#F3EAE6"/>
<path d="M52.9264 39.9628H52.7435V32.5898H24.9371V39.9628H24.7541C23.0486 39.9628 21.666 41.3454 21.666 43.0509C21.666 44.7564 23.0486 46.139 24.7541 46.139H24.9371V46.2379C24.9371 51.7808 29.4304 56.2743 34.9733 56.2743H42.7069C48.2498 56.2743 52.7431 51.781 52.7431 46.2379V46.139H52.9261C54.6316 46.139 56.0142 44.7564 56.0142 43.0509C56.0144 41.3454 54.6318 39.9628 52.9264 39.9628Z" fill="#FED2A4"/>
<path d="M35.5078 48.7012C38.8298 52.0232 38.8298 52.0232 42.1519 48.7012" stroke="#444444" stroke-width="1.82334" stroke-linecap="round" stroke-linejoin="round"/>
<path d="M56.0319 43.0515C56.0319 44.757 54.6483 46.139 52.9428 46.139H52.7598V46.2385C52.7598 51.781 48.2665 56.2743 42.724 56.2743H40.2598C45.8022 56.2743 50.2955 51.781 50.2955 46.2385V32.5898H52.7598V39.9624H52.9428C53.7948 39.9624 54.5677 40.3079 55.1264 40.8679C55.6862 41.4266 56.0319 42.198 56.0319 43.0515Z" fill="#FFBD86"/>
<path d="M49.6894 19.4874C48.9133 19.4874 48.2054 19.779 47.6688 20.2582C47.5481 20.3659 47.3668 20.361 47.2438 20.2563C46.5902 19.7004 45.7437 19.3648 44.8185 19.3648C44.3114 19.3648 43.8051 19.4681 43.3347 19.6562C43.1009 19.7496 42.8755 19.8643 42.6631 19.9993C42.5565 20.0671 42.4531 20.1399 42.3536 20.2177C42.2462 20.3018 42.1055 20.4184 41.9752 20.5413C41.8205 20.6872 41.5711 20.6553 41.4584 20.4749L41.4561 20.471C40.8762 19.5425 39.6634 19.1374 38.6068 19.2093C37.6896 19.2717 36.717 19.664 36.213 20.471L36.2107 20.4749C36.098 20.6553 35.8486 20.6872 35.6939 20.5413C35.5639 20.4186 35.4231 20.302 35.3155 20.2177C35.216 20.1399 35.1127 20.0671 35.006 19.9993C34.7934 19.8645 34.5682 19.7496 34.3344 19.6562C33.864 19.4681 33.3577 19.3648 32.8506 19.3648C31.9255 19.3648 31.0789 19.7006 30.4253 20.2563C30.3021 20.361 30.1209 20.3659 30.0004 20.2582C29.4637 19.779 28.7558 19.4874 27.9797 19.4874C26.645 19.4874 24.9439 20.6137 24.9434 22.071V40.592C24.9434 40.89 25.3062 41.0352 25.5123 40.8201C26.5348 39.7528 28.6189 37.9443 29.0701 34.885C29.1425 34.3943 29.6095 34.0642 30.0938 34.1709C30.7278 34.3104 31.4626 34.4714 31.5408 34.4846C33.5621 34.829 35.6756 35.0355 37.7982 35.0575L38.8348 35.0479L39.8713 35.0575C41.9937 35.0355 44.1074 34.8288 46.1287 34.4846C46.2069 34.4714 46.9417 34.3104 47.5757 34.1709C48.0602 34.0642 48.527 34.3945 48.5994 34.885C49.0506 37.9445 51.1347 39.7528 52.1572 40.8201C52.3633 41.0354 52.7262 40.89 52.7262 40.592V22.071C52.7252 20.6137 51.0241 19.4874 49.6894 19.4874Z" fill="#FEA613"/>
<path d="M52.7231 22.0719V40.5928C52.7231 40.8906 52.3607 41.0364 52.1548 40.8215C51.6712 40.3168 50.9501 39.867 50.2766 38.8135V22.0721C50.2756 21.0377 49.419 20.1703 48.4453 19.754C48.8239 19.5831 49.2442 19.4883 49.6864 19.4883C51.0213 19.4881 52.7222 20.6143 52.7231 22.0719Z" fill="#FE9901"/>
<path d="M33.6669 39.8066C32.8605 39.8066 32.207 40.4603 32.207 41.2665V42.9049C32.207 43.7111 32.8605 44.3648 33.6669 44.3648C34.4733 44.3648 35.1268 43.7111 35.1268 42.9049V41.2665C35.1268 40.4603 34.4733 39.8066 33.6669 39.8066Z" fill="#444444"/>
<path d="M42.9071 39.8066C42.1007 39.8066 41.4473 40.4603 41.4473 41.2665V42.9049C41.4473 43.7111 42.1007 44.3648 42.9071 44.3648C43.7136 44.3648 44.367 43.7111 44.367 42.9049V41.2665C44.367 40.4603 43.7136 39.8066 42.9071 39.8066Z" fill="#444444"/>
</svg>
