<svg width="132" height="132" viewBox="0 0 132 132" fill="none" xmlns="http://www.w3.org/2000/svg">
<g clip-path="url(#clip0_1628_20380)">
<path d="M66 6.54077C31.1154 6.54077 2.83594 34.449 2.83594 68.8757C2.83594 83.1453 7.69802 96.2921 15.8715 106.799L21.1914 112.807C32.6334 124.172 48.4832 131.211 66 131.211C72.5907 131.211 78.9448 130.213 84.9178 128.365L114.084 109.293C123.486 98.4097 129.164 84.2981 129.164 68.8757C129.164 34.449 100.885 6.54077 66 6.54077Z" fill="#FEE903"/>
<path d="M20.24 102.49L15.875 106.798C17.5191 108.911 19.2954 110.919 21.1952 112.806L25.9441 108.12L20.24 102.49Z" fill="#596C97"/>
<path d="M89.475 85.0022C89.4498 85.0274 89.4263 85.0539 89.4008 85.0791L89.3631 85.1162C88.1143 86.3487 86.5754 87 84.913 87C84.9125 87 84.9123 87 84.912 87C82.8379 86.9997 80.7878 85.9533 79.5611 84.269C78.3767 82.6429 78.0967 80.6556 78.7722 78.6728C79.6983 75.9535 81.1941 73.7875 82.0031 72.7388C82.2439 72.4264 82.345 72.0401 82.2877 71.6509C82.2302 71.2595 82.0188 70.914 81.6922 70.6779C81.4491 70.5021 81.1572 70.409 80.8484 70.409C80.4377 70.409 80.0331 70.5759 79.7382 70.8667L73.0145 77.5022C72.0881 78.4164 70.8553 78.9199 69.543 78.9199C69.2481 78.9199 68.9516 78.8937 68.6616 78.842L68.5386 78.8201L46.0352 98.4549C49.2903 101.083 53.8948 102.886 57.5777 103.861C59.7954 104.448 61.828 105.575 63.4517 107.177L84.9228 128.366C96.4022 124.815 106.468 118.115 114.089 109.294L89.475 85.0022Z" fill="#D6694B"/>
<path d="M26.6265 92.1906L19.8566 98.8716C18.8499 99.8651 18.8499 101.476 19.8566 102.47L25.9678 108.501C26.9746 109.494 28.607 109.494 29.6138 108.501L36.3837 101.82L26.6265 92.1906Z" fill="#9FACDB"/>
<path d="M25.2537 98.8716L29.3251 94.8537L26.6265 92.1906L19.8566 98.8716C18.8499 99.8651 18.8499 101.476 19.8566 102.47L25.9678 108.501C26.9746 109.494 28.607 109.494 29.6138 108.501L30.4893 107.637L25.2534 102.469C24.2469 101.476 24.2469 99.8651 25.2537 98.8716Z" fill="#8D9CC9"/>
<path d="M70.565 37.0371L64.8748 43.3887L70.6733 49.111C73.0836 51.4897 73.0836 55.3598 70.6733 57.7384C69.5059 58.8905 67.9534 59.525 66.3023 59.525C64.6513 59.525 63.0988 58.8905 61.9311 57.7384L61.3784 57.1927L61.0138 57.5524C63.4241 59.9311 63.4241 63.8012 61.0138 66.1798C59.8465 67.3321 58.2939 67.9667 56.6429 67.9667C54.9918 67.9667 53.4393 67.3321 52.2717 66.1798L52.0041 65.9155L51.6395 66.2752C52.8069 67.4275 53.4499 68.9595 53.4499 70.5888C53.4499 72.2182 52.8069 73.7501 51.6395 74.9024C50.4719 76.0547 48.9193 76.6892 47.2683 76.6892C45.6173 76.6892 44.0647 76.0547 42.8973 74.9024L42.5328 75.2622L43.3534 76.072C44.5211 77.2243 45.164 78.7562 45.164 80.3858C45.164 82.0154 44.5211 83.5471 43.3534 84.6994C42.186 85.8515 40.6335 86.486 38.9825 86.486C37.3314 86.486 35.7789 85.8515 34.6115 84.6994L31.031 81.1659L25.1544 87.7253C24.2521 88.7326 24.2995 90.2589 25.263 91.2097L37.3724 103.16C38.3359 104.111 39.8825 104.158 40.9032 103.267L68.8642 78.871C67.8069 78.729 66.829 78.2586 66.0618 77.5011L64.9893 76.4424C64.0612 75.5265 63.5499 74.3091 63.5499 73.0138C63.5499 71.7185 64.0612 70.501 64.9893 69.5851L78.4582 56.2928C79.3863 55.3768 80.6202 54.8725 81.9327 54.8725C83.245 54.8725 84.4789 55.3768 85.407 56.2928L89.3967 60.23C89.5271 60.3588 89.6514 60.4923 89.7775 60.6244L92.2661 58.4531L70.565 37.0371Z" fill="#596C97"/>
<path d="M70.6181 49.0509L76.1371 42.8905L70.3979 37.2264L64.8789 43.3868L70.6181 49.0509Z" fill="#465A82"/>
<path d="M35.972 87.7252L37.291 86.2531C36.2896 85.973 35.3716 85.4453 34.6154 84.6993L31.0349 81.1658L25.1583 87.7252C24.256 88.7325 24.3034 90.2588 25.2669 91.2096L37.3763 103.16C38.3398 104.111 39.8864 104.158 40.9071 103.267L44.8302 99.8444L36.0806 91.2096C35.1171 90.2588 35.0697 88.7325 35.972 87.7252Z" fill="#465A82"/>
<path d="M121.963 7.73163C112.792 -1.3194 97.9223 -1.3194 88.7509 7.73163C83.754 12.663 81.4863 19.2631 81.9343 25.7139L103.742 47.2352C110.278 47.6774 116.966 45.4392 121.963 40.5081C131.134 31.4571 131.134 16.7827 121.963 7.73163Z" fill="#8D9CC9"/>
<path d="M91.9978 5.23996L97.4606 10.631C105.356 5.03006 115.979 4.84865 124.048 10.095C123.414 9.27469 122.723 8.48342 121.964 7.73362C113.776 -0.347026 101.049 -1.20674 91.8867 5.14099C91.9241 5.17381 91.9623 5.20485 91.9978 5.23996Z" fill="#7A84AF"/>
<path d="M93.5853 14.0748L88.3153 8.87406C88.1986 8.7588 88.097 8.63464 88.007 8.50488C83.6252 13.2393 81.5919 19.3321 81.9066 25.3284L87.7203 31.0658C87.2978 25.0386 89.2522 18.881 93.5853 14.0748Z" fill="#7A84AF"/>
<path d="M111.32 41.7929C113.029 41.7929 114.414 40.426 114.414 38.7398C114.414 37.0536 113.029 35.6866 111.32 35.6866C109.612 35.6866 108.227 37.0536 108.227 38.7398C108.227 40.426 109.612 41.7929 111.32 41.7929Z" fill="#596C97"/>
<path d="M104.391 34.9548C106.099 34.9548 107.484 33.5879 107.484 31.9017C107.484 30.2155 106.099 28.8486 104.391 28.8486C102.682 28.8486 101.297 30.2155 101.297 31.9017C101.297 33.5879 102.682 34.9548 104.391 34.9548Z" fill="#596C97"/>
<path d="M97.4688 28.1209C99.1774 28.1209 100.562 26.754 100.562 25.0678C100.562 23.3816 99.1774 22.0146 97.4688 22.0146C95.7601 22.0146 94.375 23.3816 94.375 25.0678C94.375 26.754 95.7601 28.1209 97.4688 28.1209Z" fill="#596C97"/>
<path d="M90.5391 21.2841C92.2477 21.2841 93.6328 19.9172 93.6328 18.231C93.6328 16.5448 92.2477 15.1779 90.5391 15.1779C88.8304 15.1779 87.4453 16.5448 87.4453 18.231C87.4453 19.9172 88.8304 21.2841 90.5391 21.2841Z" fill="#596C97"/>
<path d="M101.796 44.9552C102.349 44.8328 102.874 44.5626 103.304 44.1382C104.513 42.946 104.513 41.0128 103.304 39.8206C102.096 38.6283 100.138 38.6283 98.9294 39.8206C98.4994 40.245 98.2253 40.7637 98.1016 41.309L101.796 44.9552Z" fill="#596C97"/>
<path d="M94.8669 38.1188C95.4193 37.9964 95.945 37.7262 96.375 37.3018C97.5832 36.1095 97.5832 34.1764 96.375 32.9839C95.1669 31.7914 93.2081 31.7916 91.9997 32.9839C91.5697 33.4083 91.2959 33.9271 91.1719 34.4723L94.8669 38.1188Z" fill="#596C97"/>
<path d="M87.9411 31.282C88.4936 31.1596 89.0192 30.8894 89.4493 30.465C90.6574 29.2727 90.6574 27.3396 89.4493 26.1471C88.2412 24.9546 86.2823 24.9548 85.0739 26.1471C84.6439 26.5715 84.3701 27.0903 84.2461 27.6355L87.9411 31.282Z" fill="#596C97"/>
<path d="M94.6782 61.1929L67.7902 34.6578C66.7835 33.6643 66.7835 32.0532 67.7902 31.0597L75.9294 23.0274C76.9361 22.0338 78.5686 22.0338 79.5753 23.0274L106.463 49.5625C107.47 50.556 107.47 52.167 106.463 53.1606L98.324 61.1929C97.3175 62.1864 95.685 62.1864 94.6782 61.1929Z" fill="#9FACDB"/>
<path d="M75.8162 34.6578C74.8094 33.6643 74.8094 32.0532 75.8162 31.0597L81.7652 25.1888L79.5751 23.0274C78.5683 22.0338 76.9359 22.0338 75.9291 23.0274L67.7902 31.0597C66.7835 32.0532 66.7835 33.6643 67.7902 34.6578L94.6782 61.1929C95.685 62.1864 97.3175 62.1864 98.3242 61.1929L100.514 59.0315L75.8162 34.6578Z" fill="#8D9CC9"/>
<path d="M77.017 57.7218C76.9159 56.3123 76.3248 54.9307 75.2329 53.8532C74.4144 53.0454 73.4213 52.519 72.3743 52.2607C72.7505 54.184 72.1856 56.2527 70.6794 57.7391C69.5121 58.8911 67.9595 59.5257 66.3085 59.5257C64.8098 59.5257 63.3934 59.0013 62.2714 58.0431L61.8061 58.5024C63.3929 60.8698 63.1312 64.0973 61.0202 66.1803C59.8529 67.3326 58.3003 67.9671 56.6493 67.9671C56.0757 67.9671 55.5144 67.8888 54.9766 67.7404C54.9709 69.3041 55.5716 70.8699 56.7808 72.0629C58.6174 73.8755 61.3234 74.3001 63.5726 73.3462C63.5651 73.2358 63.5561 73.1259 63.5561 73.0142C63.5561 71.7189 64.0673 70.5015 64.9955 69.5855L77.017 57.7218Z" fill="#8D9CC9"/>
<path d="M62.6594 63.2441C62.4081 64.3199 61.8651 65.3422 61.0174 66.179C60.0555 67.1282 58.8322 67.7251 57.5078 67.9063C57.6414 68.74 58.0291 69.5418 58.6803 70.1842C60.2133 71.697 62.6373 71.7937 64.2844 70.4753C64.4837 70.1565 64.7173 69.856 64.9926 69.5845L65.3046 69.2766C66.1989 67.7002 65.9708 65.6706 64.6124 64.33C64.0534 63.7779 63.3749 63.4192 62.6594 63.2441Z" fill="white"/>
<path d="M52.7301 73.4512C52.4455 73.9789 52.0799 74.4676 51.6393 74.9022C50.4716 76.0545 48.9191 76.689 47.2681 76.689C47.2655 76.689 47.2632 76.6888 47.2606 76.6888C47.0458 77.9624 47.4326 79.3157 48.4282 80.2983C50.0664 81.915 52.7224 81.915 54.3605 80.2983C55.9986 78.6817 55.9986 76.0606 54.3605 74.4439C53.8861 73.9763 53.3254 73.6481 52.7301 73.4512Z" fill="#A2E62E"/>
<path d="M70.8599 48.9315L60.9496 39.1512C58.4349 36.6696 54.3576 36.6696 51.8429 39.1512C49.3282 41.6329 49.3282 45.6565 51.8429 48.1384L51.2901 47.5929C48.7754 45.1112 44.6981 45.1112 42.1834 47.5929C39.6687 50.0746 39.6687 54.0984 42.1834 56.5801L41.9156 56.3157C39.4009 53.834 35.3238 53.834 32.8088 56.3157C30.2941 58.7974 30.2941 62.821 32.8088 65.3029L33.6295 66.1128C31.1148 63.6311 27.0375 63.6311 24.5227 66.1128C22.008 68.5944 22.008 72.6182 24.5227 75.0999L34.4328 84.8799C36.9475 87.3616 41.0248 87.3616 43.5395 84.8799C46.0542 82.3982 46.0542 78.3744 43.5395 75.8927L42.7189 75.0829C45.2336 77.5646 49.3109 77.5646 51.8256 75.0829C54.3403 72.6012 54.3403 68.5774 51.8256 66.0957L52.0935 66.3601C54.6082 68.8417 58.6855 68.8417 61.2002 66.3601C63.7149 63.8784 63.7149 59.8546 61.2002 57.3729L61.753 57.9184C64.2677 60.4001 68.345 60.4001 70.8597 57.9184C73.3744 55.4367 73.3746 51.4132 70.8599 48.9315Z" fill="#D6694B"/>
<path d="M67.1298 57.9171L57.2197 48.1371C54.705 45.6555 54.705 41.6317 57.2197 39.15C57.7761 38.6009 58.4093 38.1737 59.0848 37.8677C56.7072 36.7902 53.8014 37.2173 51.8431 39.15C49.3284 41.6317 49.3284 45.6552 51.8431 48.1371L61.7531 57.9171C63.7115 59.8498 66.617 60.2767 68.9948 59.1994C68.3194 58.8934 67.6862 58.4662 67.1298 57.9171Z" fill="#C4573A"/>
<path d="M57.4336 66.3581L47.5235 56.5782C45.0088 54.0965 45.0088 50.0729 47.5235 47.591C48.0848 47.0371 48.7244 46.6076 49.4066 46.301C47.0324 45.234 44.1364 45.6632 42.1829 47.591C39.6682 50.0727 39.6682 54.0965 42.1829 56.5782L52.093 66.3581C54.0464 68.2859 56.9422 68.7154 59.3166 67.6481C58.6345 67.3415 57.9948 66.912 57.4336 66.3581Z" fill="#C4573A"/>
<path d="M48.0503 75.0819L38.1402 65.3019C35.6255 62.8202 35.6255 58.7964 38.1402 56.3147C38.7028 55.7596 39.3437 55.3298 40.0274 55.023C37.654 53.9582 34.7603 54.3882 32.8079 56.3147C30.2932 58.7964 30.2932 62.8202 32.8079 65.3019L42.718 75.0819C44.6704 77.0086 47.5638 77.4384 49.9375 76.3736C49.2535 76.0667 48.6126 75.6368 48.0503 75.0819Z" fill="#C4573A"/>
<path d="M39.8012 84.8787L29.8912 75.0987C27.3765 72.617 27.3765 68.5932 29.8912 66.1115C30.4488 65.5615 31.0833 65.1338 31.7603 64.8274C29.3835 63.7525 26.4801 64.1799 24.5227 66.1115C22.008 68.5932 22.008 72.617 24.5227 75.0987L34.4328 84.8787C36.3901 86.8103 39.2933 87.2377 41.6704 86.1628C40.9934 85.8564 40.3586 85.429 39.8012 84.8787Z" fill="#C4573A"/>
<path d="M88.3134 5.23771C87.2966 6.24117 87.2966 7.86824 88.3134 8.8717L120.806 40.9381C121.823 41.9415 123.472 41.9415 124.489 40.9381C125.505 39.9346 125.505 38.3075 124.489 37.3041L91.9957 5.23771C90.9789 4.23424 89.3302 4.23424 88.3134 5.23771Z" fill="#596C97"/>
<path d="M101.848 10.1298C103.556 10.1298 104.941 8.76284 104.941 7.07664C104.941 5.39044 103.556 4.0235 101.848 4.0235C100.139 4.0235 98.7539 5.39044 98.7539 7.07664C98.7539 8.76284 100.139 10.1298 101.848 10.1298Z" fill="#596C97"/>
<path d="M108.777 16.9646C110.486 16.9646 111.871 15.5977 111.871 13.9115C111.871 12.2253 110.486 10.8583 108.777 10.8583C107.069 10.8583 105.684 12.2253 105.684 13.9115C105.684 15.5977 107.069 16.9646 108.777 16.9646Z" fill="#596C97"/>
<path d="M115.703 23.8005C117.412 23.8005 118.797 22.4336 118.797 20.7474C118.797 19.0612 117.412 17.6942 115.703 17.6942C113.994 17.6942 112.609 19.0612 112.609 20.7474C112.609 22.4336 113.994 23.8005 115.703 23.8005Z" fill="#596C97"/>
<path d="M122.633 30.6386C124.341 30.6386 125.727 29.2716 125.727 27.5854C125.727 25.8992 124.341 24.5323 122.633 24.5323C120.924 24.5323 119.539 25.8992 119.539 27.5854C119.539 29.2716 120.924 30.6386 122.633 30.6386Z" fill="#596C97"/>
<path d="M109.867 1.67848C108.659 2.87073 108.659 4.80387 109.867 5.99638C111.075 7.18888 113.034 7.18863 114.242 5.99638C115.066 5.18323 115.327 4.02583 115.027 2.99362C113.455 2.29292 111.82 1.77211 110.155 1.43066C110.055 1.50725 109.959 1.58816 109.867 1.67848Z" fill="#596C97"/>
<path d="M118.984 13.7274C120.693 13.7274 122.078 12.3604 122.078 10.6742C122.078 8.98803 120.693 7.62109 118.984 7.62109C117.276 7.62109 115.891 8.98803 115.891 10.6742C115.891 12.3604 117.276 13.7274 118.984 13.7274Z" fill="#596C97"/>
<path d="M123.719 15.3522C122.51 16.5444 122.51 18.4776 123.719 19.6701C124.927 20.8626 126.886 20.8623 128.094 19.6701C128.185 19.5798 128.268 19.4841 128.345 19.3859C128 17.7425 127.472 16.1295 126.762 14.5775C125.715 14.2818 124.543 14.5393 123.719 15.3522Z" fill="#596C97"/>
<path d="M85.5898 56.1128C83.5704 54.1199 80.2962 54.1199 78.2767 56.1128L64.8076 69.4052C62.7881 71.3981 62.7881 74.6293 64.8076 76.6223L65.8803 77.681C67.8998 79.6739 71.174 79.6739 73.1934 77.681L79.9172 71.0455C80.3493 70.619 81.0436 70.5254 81.5365 70.8821C82.0993 71.2892 82.2017 72.0553 81.7943 72.5835C80.9386 73.6928 79.4536 75.8621 78.5242 78.5905C76.2903 85.1484 84.5846 90.1874 89.5416 85.2952L89.5795 85.2578C96.633 78.2969 96.633 67.011 89.5795 60.0498L85.5898 56.1128Z" fill="#C4573A"/>
<path d="M71.6829 78.4537L70.6101 77.395C68.5907 75.4021 68.5907 72.1708 70.6101 70.1779L84.0793 56.8856C84.4769 56.4932 84.9242 56.1811 85.3998 55.9432C83.3701 54.1273 80.2351 54.18 78.2767 56.1126L64.8076 69.405C62.7881 71.3979 62.7881 74.6291 64.8076 76.6221L65.8803 77.6807C67.5022 79.2813 69.9324 79.5935 71.8729 78.6231C71.8095 78.5664 71.7437 78.514 71.6829 78.4537Z" fill="#A74B30"/>
</g>
<defs>
<clipPath id="clip0_1628_20380">
<rect width="132" height="130.267" fill="white" transform="translate(0 0.943359)"/>
</clipPath>
</defs>
</svg>
