<svg width="115" height="115" viewBox="0 0 115 115" fill="none" xmlns="http://www.w3.org/2000/svg">
<path fill-rule="evenodd" clip-rule="evenodd" d="M78.0981 6.48593e-08C78.729 6.48593e-08 79.3162 0.334434 79.6536 0.886501C79.9919 1.43857 80.0327 2.13199 79.7615 2.72267L64.4355 36.2324H90.9876C91.403 36.2324 91.8061 36.378 92.1315 36.6455C92.9284 37.3003 93.0619 38.5002 92.4296 39.3255L35.3476 113.697C34.8461 114.351 33.9926 114.591 33.2409 114.289C32.2923 113.909 31.8212 112.804 32.1883 111.822L53.3153 55.302H32.0642C31.9521 55.302 31.8405 55.2913 31.7305 55.2703C30.8484 55.1019 30.2297 54.3082 30.2227 53.4124H30.2226L30.2227 53.4121C30.2217 53.2924 30.2317 53.1708 30.2535 53.0487L39.4603 1.56061C39.6214 0.656235 40.383 -0.000238241 41.271 6.48593e-08H78.0981ZM19.4295 56.1296H0V58.2884H19.4295V56.1296ZM94.9882 56.1296H114.418V58.2884H94.9882V56.1296ZM111.877 2.15883L99.3046 14.7309L101.844 17.2706L114.416 4.6986L111.877 2.15883ZM0 109.719L12.572 97.1473L15.1118 99.6871L2.53978 112.259L0 109.719ZM101.844 97.1473L99.3046 99.6871L111.877 112.259L114.416 109.719L101.844 97.1473ZM0 4.6986L2.53977 2.15883L15.1118 14.7309L12.572 17.2706L0 4.6986Z" fill="url(#paint0_linear_1606_19559)"/>
<defs>
<linearGradient id="paint0_linear_1606_19559" x1="-2.33198e-07" y1="20.9033" x2="116.644" y2="23.7675" gradientUnits="userSpaceOnUse">
<stop offset="0.0500767" stop-color="#FA7558"/>
<stop offset="1" stop-color="#F95A63"/>
</linearGradient>
</defs>
</svg>
