<svg width="85" height="85" viewBox="0 0 85 85" fill="none" xmlns="http://www.w3.org/2000/svg">
<path d="M70.8831 58.8509C73.5334 55.6991 75.4989 52.2981 76.9301 48.1304C78.2273 44.3527 78.8657 40.3586 78.8657 36.3664C78.8657 16.2818 62.5838 0 42.4992 0C22.4146 0 6.13281 16.2818 6.13281 36.3664C6.13281 40.6375 6.88088 44.9014 8.35444 48.9112C10.1506 53.7982 13.1493 58.2617 16.8868 61.8343C20.0375 64.846 23.188 67.8576 26.3386 70.8692L40.1242 84.0469C41.4528 85.3169 43.5456 85.3169 44.8744 84.0469C48.8396 80.2566 56.4434 72.9881 57.1282 72.3335C60.6346 68.9817 64.1411 65.63 67.6475 62.2781C68.8252 61.1524 69.9012 60.0186 70.8831 58.8509Z" fill="#FB2B3A"/>
<path d="M78.8641 36.367C78.8641 40.3597 78.2257 44.3538 76.9285 48.1309C75.4978 52.298 73.5315 55.7002 70.8822 58.8508C69.8999 60.0197 68.8234 61.1526 67.646 62.2787C64.1395 65.6312 60.6329 68.9821 57.1263 72.3346C56.4418 72.9884 48.8383 80.2582 44.873 84.0472C43.5432 85.3187 41.4521 85.3187 40.1223 84.0472L39.5781 83.5269C40.0008 83.3677 40.3996 83.123 40.7452 82.7928C44.7103 79.0022 52.3138 71.734 52.9985 71.0786C56.5051 67.7277 60.0117 64.3752 63.5182 61.0243C64.6956 59.8982 65.7721 58.7653 66.7544 57.5964C69.4035 54.4441 71.3699 51.0436 72.8007 46.8764C74.0979 43.0978 74.7362 39.1034 74.7362 35.1126C74.7362 19.4725 64.8635 6.13765 51.0083 1.00195C66.9873 4.8336 78.8641 19.2141 78.8641 36.367Z" fill="#DD1D35"/>
<path d="M42.4886 62.7977C57.2884 62.7977 69.2859 50.8001 69.2859 36.0004C69.2859 21.2007 57.2884 9.20312 42.4886 9.20312C27.6889 9.20312 15.6914 21.2007 15.6914 36.0004C15.6914 50.8001 27.6889 62.7977 42.4886 62.7977Z" fill="#F3EAE6"/>
<path d="M58.7619 38.5559H58.5506V30.043H26.4448V38.5559H26.2336C24.2643 38.5559 22.668 40.1523 22.668 42.1216C22.668 44.0908 24.2643 45.6872 26.2336 45.6872H26.4448V45.8013C26.4448 52.2012 31.6329 57.3895 38.0328 57.3895H46.9622C53.3621 57.3895 58.5502 52.2015 58.5502 45.8013V45.6872H58.7615C60.7307 45.6872 62.3271 44.0908 62.3271 42.1216C62.3273 40.1523 60.7309 38.5559 58.7619 38.5559Z" fill="#FED2A4"/>
<path d="M38.6523 48.6475C42.488 52.4831 42.488 52.4831 46.3237 48.6475" stroke="#444444" stroke-width="1.53427" stroke-linecap="round" stroke-linejoin="round"/>
<path d="M62.3514 42.1222C62.3514 44.0915 60.7539 45.6872 58.7847 45.6872H58.5734V45.802C58.5734 52.2015 53.3854 57.3895 46.9859 57.3895H44.1406C50.5401 57.3895 55.7281 52.2015 55.7281 45.802V30.043H58.5734V38.5555H58.7847C59.7684 38.5555 60.6609 38.9544 61.3059 39.601C61.9523 40.246 62.3514 41.1367 62.3514 42.1222Z" fill="#FFBD86"/>
<path d="M55.0254 14.9174C54.1294 14.9174 53.312 15.2541 52.6923 15.8074C52.553 15.9317 52.3438 15.9261 52.2017 15.8052C51.447 15.1633 50.4696 14.7758 49.4014 14.7758C48.8159 14.7758 48.2313 14.8952 47.6881 15.1123C47.4182 15.2202 47.1579 15.3525 46.9127 15.5085C46.7896 15.5867 46.6702 15.6708 46.5554 15.7607C46.4313 15.8578 46.2688 15.9924 46.1185 16.1342C45.9398 16.3028 45.6519 16.2659 45.5218 16.0576L45.5191 16.0531C44.8496 14.981 43.4492 14.5133 42.2292 14.5963C41.1702 14.6684 40.0472 15.1213 39.4653 16.0531L39.4626 16.0576C39.3325 16.2659 39.0446 16.3028 38.8659 16.1342C38.7158 15.9926 38.5533 15.858 38.429 15.7607C38.3141 15.6708 38.1948 15.5867 38.0716 15.5085C37.8262 15.3528 37.5662 15.2202 37.2963 15.1123C36.7531 14.8952 36.1685 14.7758 35.583 14.7758C34.5148 14.7758 33.5374 15.1635 32.7827 15.8052C32.6404 15.9261 32.4312 15.9317 32.2921 15.8074C31.6724 15.2541 30.855 14.9174 29.959 14.9174C28.4179 14.9174 26.4538 16.2178 26.4531 17.9005V39.2852C26.4531 39.6293 26.8721 39.7969 27.1101 39.5486C28.2907 38.3163 30.697 36.2282 31.218 32.6958C31.3016 32.1292 31.8408 31.7481 32.3999 31.8712C33.1319 32.0324 33.9804 32.2182 34.0707 32.2335C36.4045 32.6311 38.8448 32.8695 41.2956 32.8949L42.4924 32.8839L43.6892 32.8949C46.1398 32.8695 48.5804 32.6309 50.9141 32.2335C51.0045 32.2182 51.8529 32.0324 52.5849 31.8712C53.1443 31.7481 53.6833 32.1295 53.7669 32.6958C54.2878 36.2284 56.6942 38.3163 57.8748 39.5486C58.1128 39.7971 58.5317 39.6293 58.5317 39.2852V17.9005C58.5306 16.2178 56.5665 14.9174 55.0254 14.9174Z" fill="#FEA613"/>
<path d="M58.5252 17.902V39.2867C58.5252 39.6306 58.1067 39.7989 57.8689 39.5508C57.3107 38.968 56.478 38.4486 55.7004 37.2323V17.9022C55.6992 16.7079 54.7101 15.7065 53.5859 15.2257C54.0231 15.0284 54.5083 14.9189 55.0189 14.9189C56.5602 14.9187 58.5241 16.2191 58.5252 17.902Z" fill="#FE9901"/>
<path d="M36.5254 38.377C35.5943 38.377 34.8398 39.1317 34.8398 40.0626V41.9543C34.8398 42.8852 35.5943 43.6399 36.5254 43.6399C37.4566 43.6399 38.2111 42.8852 38.2111 41.9543V40.0626C38.2111 39.1317 37.4566 38.377 36.5254 38.377Z" fill="#444444"/>
<path d="M47.1934 38.377C46.2623 38.377 45.5078 39.1317 45.5078 40.0626V41.9543C45.5078 42.8852 46.2623 43.6399 47.1934 43.6399C48.1245 43.6399 48.879 42.8852 48.879 41.9543V40.0626C48.879 39.1317 48.1245 38.377 47.1934 38.377Z" fill="#444444"/>
</svg>
