<svg width="127" height="113" viewBox="0 0 127 113" fill="none" xmlns="http://www.w3.org/2000/svg">
<rect y="17.0732" width="126.996" height="35.8937" rx="7.0736" fill="#E83E3E"/>
<path d="M103.449 17.0732H119.927C123.834 17.0732 127.001 20.2402 127.001 24.1468V45.8933C127.001 49.8 123.834 52.9669 119.927 52.9669H103.449V17.0732Z" fill="#CD2727"/>
<path d="M10.9609 52.9678H116.173V98.0117C116.173 105.825 109.839 112.159 102.026 112.159H25.1082C17.2949 112.159 10.9609 105.825 10.9609 98.0117V52.9678Z" fill="#E83E3E"/>
<rect x="54.9805" y="53.1104" width="23.5514" height="59.0492" fill="#FFCE36"/>
<rect x="50.8984" y="17.0732" width="31.7184" height="35.8937" fill="#FFCE36"/>
<path d="M28.707 3.5368C28.707 1.58348 30.2905 0 32.2438 0H56.889C60.5379 0 63.496 2.95806 63.496 6.607V17.0738H35.314C31.6651 17.0738 28.707 14.1158 28.707 10.4668V3.5368Z" fill="#FFC73A"/>
<path d="M98.293 4.04754C98.293 2.09422 96.7095 0.510742 94.7562 0.510742H70.111C66.4621 0.510742 63.504 3.4688 63.504 7.11775V17.5846H91.686C95.3349 17.5846 98.293 14.6265 98.293 10.9775V4.04754Z" fill="#FFC73A"/>
<rect width="14.8283" height="29.7367" transform="matrix(0.85345 0.521175 -0.531231 0.847227 45.6914 9.38489)" fill="#FFCE36"/>
<path d="M37.0695 30.1329L35.9832 38.6578L29.7736 34.8214L37.0695 30.1329Z" fill="#E83E3E"/>
<path d="M43.3765 33.7052L42.4614 42.336L35.9095 38.288L43.3765 33.7052Z" fill="#E83E3E"/>
<rect width="14.8283" height="29.7367" transform="matrix(-0.85345 0.521175 0.531231 0.847227 85.6523 9.38489)" fill="#FFCE36"/>
<path d="M94.2743 30.1317L95.3606 38.6566L101.57 34.8202L94.2743 30.1317Z" fill="#E83E3E"/>
<path d="M87.9633 33.703L88.8784 42.3338L95.4304 38.2858L87.9633 33.703Z" fill="#E83E3E"/>
<path d="M116.19 53.1921L103.438 53.1104L103.564 111.235C109.542 109.238 114.888 104.996 116.19 96.8837V53.1921Z" fill="#CD2727"/>
<path d="M10.8359 52.8271H116.003" stroke="#CD2727" stroke-width="0.707361"/>
</svg>
