<svg width="87" height="87" viewBox="0 0 87 87" fill="none" xmlns="http://www.w3.org/2000/svg">
<circle cx="43.4805" cy="43.4805" r="43.4805" fill="#4550B4"/>
<g clip-path="url(#clip0_1628_21188)">
<path d="M38.1147 32.7831C35.464 32.7831 34.5149 35.8325 34.4748 35.9614C34.2485 36.7156 33.5517 37.2363 32.7663 37.2363C32.7629 37.2363 32.7593 37.2363 32.7541 37.2363C31.9669 37.2311 31.2754 36.7156 31.0543 35.9614C31.009 35.8152 30.0581 32.7831 27.4144 32.7831C25.0982 32.7831 23.8477 34.7406 23.8477 36.5832C23.8477 39.2792 26.7404 41.6269 31.1171 45.1797C31.6465 45.6082 32.1969 46.0541 32.7646 46.5207C33.3323 46.0539 33.8826 45.6081 34.412 45.1797C38.7887 41.6269 41.6815 39.2792 41.6815 36.5832C41.6815 34.7406 40.431 32.7831 38.1147 32.7831Z" fill="white"/>
<path d="M57.7347 16.7313H29.2006C20.3499 16.7313 13.0312 23.9311 13.0312 32.7817V43.482C13.0312 51.7302 19.4024 58.5433 27.4172 59.4332V68.4494C27.4172 69.1703 27.8508 69.8217 28.5179 70.0968C29.1757 70.3714 29.9473 70.2242 30.4615 69.7102L40.6393 59.5325H57.7347C66.5854 59.5325 73.904 52.3327 73.904 43.482V32.7817C73.904 23.9311 66.5854 16.7313 57.7347 16.7313ZM36.6615 47.9475C35.796 48.6493 34.8764 49.3966 33.9081 50.2029C33.5789 50.478 33.1731 50.6157 32.7673 50.6157C32.3616 50.6157 31.9558 50.4781 31.6266 50.2029C30.6582 49.3966 29.7387 48.6494 28.8731 47.9475C23.887 43.9018 20.2837 40.9777 20.2837 36.5819C20.2837 32.4509 23.4168 29.215 27.4172 29.215C29.9616 29.215 31.6701 30.4637 32.7673 31.7978C33.8646 30.4637 35.5731 29.215 38.1175 29.215C42.1178 29.215 45.251 32.4509 45.251 36.5819C45.251 40.9777 41.6476 43.9018 36.6615 47.9475ZM61.3014 45.2654H54.1679C53.1822 45.2654 52.3845 44.4678 52.3845 43.482C52.3845 42.4963 53.1822 41.6987 54.1679 41.6987H55.9513V37.0869L55.4288 37.6095C54.7322 38.3061 53.6035 38.3061 52.9069 37.6095C52.2104 36.9129 52.2104 35.7842 52.9069 35.0877L56.4737 31.5209C56.9822 31.0088 57.7486 30.8556 58.4173 31.1343C59.0843 31.4094 59.5181 32.0608 59.5181 32.7817V41.6987H61.3014C62.2872 41.6987 63.0848 42.4963 63.0848 43.482C63.0848 44.4678 62.2872 45.2654 61.3014 45.2654Z" fill="white"/>
</g>
<defs>
<clipPath id="clip0_1628_21188">
<rect width="60.8727" height="60.8727" fill="white" transform="translate(13.0312 13.0449)"/>
</clipPath>
</defs>
</svg>
