<svg width="82" height="82" viewBox="0 0 82 82" fill="none" xmlns="http://www.w3.org/2000/svg">
<ellipse cx="40.5195" cy="40.5194" rx="40.5195" ry="40.5194" fill="#0075EA"/>
<path d="M46.2707 18.9592C42.7479 16.7865 38.5735 15.5918 34.2614 15.5918C22.523 15.5918 12.6562 24.3372 12.6562 35.535C12.6562 39.461 13.8759 43.2246 16.1926 46.475L12.9563 56.6356C12.6144 57.7089 13.4183 58.802 14.5401 58.802C14.7966 58.802 15.0547 58.7427 15.293 58.6215L25.1351 53.6172C25.5337 53.7888 25.9372 53.9485 26.3448 54.0967C24.0661 50.54 22.8494 46.4572 22.8494 42.1827C22.8494 29.4526 33.5609 19.666 46.2707 18.9592Z" fill="white"/>
<path d="M65.8457 53.1214C68.1625 49.871 69.3821 46.1074 69.3821 42.1813C69.3821 30.9795 59.5111 22.2382 47.777 22.2382C36.0387 22.2382 26.1719 30.9836 26.1719 42.1813C26.1719 53.3832 36.0429 62.1245 47.777 62.1245C50.9255 62.1245 54.0626 61.4829 56.9026 60.2633L66.7454 65.2679C67.3427 65.5715 68.0642 65.4868 68.5748 65.0528C69.0855 64.6188 69.2856 63.9206 69.0822 63.2821L65.8457 53.1214ZM41.0185 43.8433C40.1006 43.8433 39.3565 43.0992 39.3565 42.1813C39.3565 41.2635 40.1006 40.5194 41.0185 40.5194C41.9363 40.5194 42.6804 41.2635 42.6804 42.1813C42.6804 43.0992 41.9363 43.8433 41.0185 43.8433ZM47.6662 43.8433C46.7484 43.8433 46.0043 43.0992 46.0043 42.1813C46.0043 41.2635 46.7484 40.5194 47.6662 40.5194C48.584 40.5194 49.3281 41.2635 49.3281 42.1813C49.3281 43.0992 48.584 43.8433 47.6662 43.8433ZM54.3139 43.8433C53.3961 43.8433 52.652 43.0992 52.652 42.1813C52.652 41.2635 53.3961 40.5194 54.3139 40.5194C55.2317 40.5194 55.9758 41.2635 55.9758 42.1813C55.9758 43.0992 55.2317 43.8433 54.3139 43.8433Z" fill="white"/>
</svg>
