<svg width="90" height="138" viewBox="0 0 90 138" fill="none" xmlns="http://www.w3.org/2000/svg">
<path d="M57.075 75.5081V59.173H44.8439H32.6128V75.5081C22.7461 80.1757 16.3047 89.9928 16.3047 100.857V114.858H44.8439H73.3831V100.857C73.3831 89.9928 66.9416 80.1757 57.075 75.5081Z" fill="#F3F5F9"/>
<path d="M73.3868 100.856C73.3868 89.9927 66.9454 80.1756 57.0787 75.508V59.1729H44.8477V114.858H73.3868V100.856Z" fill="#D8DBF0"/>
<path d="M44.8439 4.02258H16.3047V32.4554L24.8664 40.5024H44.8439H64.2636L73.3831 32.4554V4.02258H44.8439Z" fill="#F3F5F9"/>
<path d="M73.3868 32.4554V4.02258H44.8477V40.5024H64.2674L73.3868 32.4554Z" fill="#D8DBF0"/>
<path d="M44.8439 104.88C36.7844 104.88 26.7003 107.711 16.3047 114.858V133.313H44.8439H73.3831V114.858C62.9769 107.704 52.9009 104.88 44.8439 104.88Z" fill="#FFE666"/>
<path d="M73.3868 114.858C62.9806 107.704 52.9047 104.88 44.8477 104.88V133.313H73.3868V114.858Z" fill="#FFC44D"/>
<path d="M85.6176 0H44.8473H4.07703C1.82352 0 0 1.79958 0 4.02351C0 6.24744 1.82352 8.04702 4.07703 8.04702H44.8473H85.6176C87.8711 8.04702 89.6946 6.24744 89.6946 4.02351C89.6946 1.79958 87.8711 0 85.6176 0Z" fill="#755BAA"/>
<path d="M89.695 4.02351C89.695 1.79958 87.8714 0 85.6179 0H44.8477V8.04702H85.6179C87.8714 8.04702 89.695 6.24744 89.695 4.02351Z" fill="#9088B8"/>
<path d="M85.6176 129.288H44.8473H4.07703C1.82352 129.288 0 131.088 0 133.312C0 135.536 1.82352 137.335 4.07703 137.335H44.8473H85.6176C87.8711 137.335 89.6946 135.536 89.6946 133.312C89.6946 131.088 87.8711 129.288 85.6176 129.288Z" fill="#755BAA"/>
<path d="M89.695 133.312C89.695 131.088 87.8714 129.288 85.6179 129.288H44.8477V137.335H85.6179C87.8714 137.335 89.695 135.536 89.695 133.312Z" fill="#9088B8"/>
<path d="M44.8439 32.4569H16.3047V36.4804C16.3047 52.0087 29.109 64.645 44.8439 64.645C60.5788 64.645 73.3831 52.0087 73.3831 36.4804V32.4569H44.8439Z" fill="#FFE666"/>
<path d="M73.3868 36.4804V32.4569H44.8477V64.645C60.5825 64.645 73.3868 52.0087 73.3868 36.4804Z" fill="#FFC44D"/>
</svg>
