<svg width="117" height="121" viewBox="0 0 117 121" fill="none" xmlns="http://www.w3.org/2000/svg">
<path d="M99.8208 28.726C100.864 86.4199 63.9922 110.298 54.4974 115.483C53.1015 116.245 51.4332 116.318 49.9796 115.673C40.2649 111.36 3.32601 90.8443 4.76348 28.7263L4.76501 28.726C16.6679 26.7781 25.3574 16.8584 25.309 5.27411L25.3072 4.86426H79.2769L79.2751 5.27564C79.2274 16.8599 87.9177 26.7788 99.8208 28.726Z" fill="white"/>
<path d="M74.9782 94.9823C73.5823 95.7446 71.9139 95.8174 70.4604 95.1722C60.7457 90.8593 23.8068 70.3438 25.2443 8.22573L25.2458 8.22547L25.2769 6.52711C24.7211 17.5678 16.2372 26.851 4.76501 28.7285L4.76348 28.7288C3.32601 90.8468 40.2649 111.362 49.9796 115.675C51.4332 116.321 53.1015 116.248 54.4974 115.485C59.3883 112.815 71.5432 105.183 82.0384 90.5253C79.0901 92.624 76.6229 94.0843 74.9782 94.9823C76.6229 94.0843 73.5823 95.7446 74.9782 94.9823Z" fill="#E6E7E8"/>
<path d="M48.3274 119.406C13.7115 103.18 -0.148435 64.7678 0.687901 28.6329C0.73326 26.6735 2.16283 25.0229 4.09389 24.7006C13.749 23.1206 21.4487 14.8692 21.2306 4.883C21.2209 2.65101 23.0784 0.783203 25.3076 0.783203H79.2775C81.5067 0.783203 83.3643 2.65101 83.3549 4.883C83.1368 14.8618 90.8272 23.1196 100.479 24.6983C102.423 25.0163 103.862 26.6812 103.898 28.6534C104.114 40.5924 102.747 51.9514 99.8357 62.4146L91.9802 60.2234C94.421 51.4522 95.6902 41.9692 95.7624 31.9916C85.2037 28.9537 76.9219 19.9538 75.4385 8.94808H29.1468C27.6627 19.962 19.3691 28.9668 8.80026 31.9983C8.74419 63.3517 20.9592 98.3241 51.6328 111.942C51.9258 112.072 52.2586 112.057 52.5458 111.9C54.745 110.699 58.2315 108.585 62.351 105.333L67.3993 111.746C62.8334 115.349 58.9249 117.717 56.4502 119.068C55.0882 119.812 51.8262 121.046 48.3274 119.406Z" fill="#3E4D6C"/>
<path d="M76.3436 81.3011H26.6836V73.2477C26.6836 59.5779 37.7489 48.4961 51.3988 48.4961H51.6284C65.2781 48.4961 76.3436 59.5777 76.3436 73.2477V81.3011Z" fill="white"/>
<path d="M51.5136 51.699C60.0793 51.699 67.0233 44.7564 67.0233 36.1923C67.0233 27.6281 60.0793 20.6855 51.5136 20.6855C42.9478 20.6855 36.0039 27.6281 36.0039 36.1923C36.0039 44.7564 42.9478 51.699 51.5136 51.699Z" fill="white"/>
<path d="M66.6232 48.6449C69.4186 45.2576 71.0997 40.9184 71.0997 36.1937C71.0997 25.3921 62.3131 16.6045 51.5128 16.6045C40.7126 16.6045 31.9259 25.3923 31.9259 36.1937C31.9259 40.9192 33.6075 45.2591 36.404 48.6467C28.1362 53.718 22.6055 62.8435 22.6055 73.2424V81.3001C22.6055 83.5548 24.431 85.3825 26.6829 85.3825H76.3427C78.5946 85.3825 80.4202 83.5548 80.4202 81.3001V73.2424C80.4199 62.8437 74.8907 53.7165 66.6232 48.6449ZM51.5128 24.7694C57.8167 24.7694 62.945 29.8943 62.945 36.1937C62.945 42.493 57.8167 47.618 51.5128 47.618C45.2092 47.618 40.0806 42.493 40.0806 36.1937C40.0806 29.8943 45.209 24.7694 51.5128 24.7694ZM72.2653 77.2179H30.7601V73.2426C30.7601 64.6072 36.0801 57.1959 43.6089 54.1113C48.605 56.3244 54.4204 56.3244 59.4165 54.1113C66.9453 57.1959 72.2653 64.6072 72.2653 73.2426V77.2179Z" fill="#3E4D6C"/>
<path d="M92.1746 116.606C105.524 116.606 116.345 105.82 116.345 92.5148C116.345 79.2097 105.524 68.4238 92.1746 68.4238C78.8255 68.4238 68.0039 79.2097 68.0039 92.5148C68.0039 105.82 78.8255 116.606 92.1746 116.606Z" fill="#0795FE"/>
<path d="M84.7865 102.862L77.1211 93.9852L83.2896 88.6449L88.0679 94.1779L101.425 80.6201L107.23 86.3542L90.7733 103.058C90.0061 103.837 87.2088 105.097 84.7865 102.862Z" fill="white"/>
</svg>
