<svg width="114" height="106" viewBox="0 0 114 106" fill="none" xmlns="http://www.w3.org/2000/svg">
<path d="M24.6539 14.2317H111.285C111.287 8.32892 106.438 3.54284 100.456 3.54492H13.825C7.84373 3.54284 2.99398 8.32892 2.99609 14.2317V71.9131C2.99398 77.8158 7.84373 82.6019 13.825 82.5998V24.9184C13.8229 19.0157 18.6726 14.2296 24.6539 14.2317Z" fill="#D4E1F4"/>
<path d="M75.5829 29.5412L51.5965 52.1702L38.7646 39.5068C37.7103 38.4663 36.0013 38.4663 34.947 39.5068C33.8927 40.5462 33.8927 42.2327 34.947 43.2732L49.6475 57.7807C50.1551 58.2858 50.8488 58.5655 51.569 58.5551C52.268 58.5624 52.9406 58.2931 53.4376 57.8079L79.3456 33.388C80.4221 32.3631 80.4528 30.6704 79.4132 29.6079C78.3737 28.5455 76.6595 28.5153 75.5829 29.5412Z" fill="#1AE5BE"/>
<path d="M100.464 0.873047H13.833C6.35853 0.876178 0.300048 6.85513 0.296875 14.2315V71.9129C0.300048 79.2903 6.35853 85.2693 13.833 85.2714H41.8803L53.1957 103.733C53.1957 103.76 53.2232 103.76 53.2232 103.786C53.991 104.988 55.3308 105.714 56.7701 105.71C58.2072 105.708 59.5439 104.982 60.3159 103.786C60.3159 103.76 60.3434 103.76 60.3434 103.733L71.6599 85.2714H100.464C107.939 85.2693 113.997 79.2903 114 71.9129V14.2315C113.997 6.85513 107.939 0.876178 100.464 0.873047ZM108.586 71.9129C108.573 76.3348 104.944 79.9155 100.464 79.928H70.1159C69.1684 79.9311 68.2874 80.4154 67.7883 81.2106L56.7426 99.2445L45.6969 81.2106C45.202 80.4101 44.319 79.9238 43.3693 79.928H13.833C9.3534 79.9155 5.72402 76.3348 5.71133 71.9129V14.2315C5.72402 9.81069 9.3534 6.22895 13.833 6.21643H100.464C104.944 6.22895 108.573 9.81069 108.586 14.2315V71.9129Z" fill="#0635C9"/>
</svg>
