<svg width="139" height="136" viewBox="0 0 139 136" fill="none" xmlns="http://www.w3.org/2000/svg">
<path d="M69.5 135.805C107.884 135.805 139 105.404 139 67.9023C139 30.4009 107.884 0 69.5 0C31.1162 0 0 30.4009 0 67.9023C0 105.404 31.1162 135.805 69.5 135.805Z" fill="white"/>
<path d="M69.5 0V135.805C107.884 135.805 139 105.404 139 67.9023C139 30.4009 107.884 0 69.5 0Z" fill="white"/>
<path d="M129.692 59.7871L114.387 39.8498C113.414 38.5828 111.927 37.8561 110.306 37.8561C108.684 37.8561 107.197 38.5828 106.224 39.8498L90.9194 59.7871C89.7525 61.3074 89.5678 63.3074 90.4378 65.0067C91.3075 66.7064 93.056 67.7621 95.0007 67.7621H100.102C100.102 87.0006 84.0823 102.652 64.3911 102.652C44.6999 102.652 28.6799 87.0006 28.6799 67.7621C28.6799 48.5236 44.6999 32.8718 64.3911 32.8718C70.4304 32.8718 76.4482 34.4206 81.7933 37.3507C83.8102 38.4569 86.3351 38.0987 87.9469 36.4791L95.2942 29.0983C96.3659 28.022 96.8835 26.5304 96.7036 25.0391C96.5237 23.5478 95.6646 22.215 94.3657 21.4118C85.3985 15.8659 75.0334 12.9345 64.3911 12.9345C33.4478 12.9345 8.27344 37.5301 8.27344 67.7621C8.27344 97.994 33.4478 122.59 64.3911 122.59C95.3344 122.59 120.509 97.994 120.509 67.7621H125.61C127.555 67.7621 129.304 66.7064 130.173 65.0067C131.043 63.3074 130.859 61.3074 129.692 59.7871Z" fill="#FF1F3D"/>
<path d="M130.169 65.0071C131.039 63.3077 130.854 61.3077 129.687 59.7875L114.382 39.8502C113.41 38.5832 111.922 37.8564 110.301 37.8564C108.68 37.8564 107.193 38.5832 106.22 39.8502L90.9151 59.7875C89.7482 61.3077 89.5635 63.3077 90.4335 65.0071C91.3031 66.7067 93.0516 67.7624 94.9963 67.7624H100.098C100.098 87.0009 84.0779 102.653 64.3867 102.653V122.59C95.33 122.59 120.504 97.9943 120.504 67.7624H125.606C127.551 67.7624 129.299 66.7067 130.169 65.0071Z" fill="#FF1F3D"/>
<path d="M81.789 37.3507C83.8058 38.4569 86.3308 38.0987 87.9426 36.4791L95.2899 29.0983C96.3616 28.022 96.8792 26.5304 96.6993 25.0391C96.5194 23.5478 95.6603 22.215 94.3614 21.4118C85.3941 15.8659 75.029 12.9345 64.3867 12.9345V32.8718C70.426 32.8718 76.4439 34.4206 81.789 37.3507Z" fill="#FF1F3D"/>
</svg>
