<svg width="82" height="82" viewBox="0 0 82 82" fill="none" xmlns="http://www.w3.org/2000/svg">
<circle cx="41" cy="41" r="41" fill="#02B54A"/>
<path d="M63.0387 38.3094L57.9937 31.5828C57.6731 31.1553 57.1829 30.9102 56.6484 30.9102C56.114 30.9102 55.6238 31.1553 55.3031 31.5828L50.2582 38.3094C49.8736 38.8223 49.8127 39.4971 50.0995 40.0704C50.3861 40.6438 50.9625 41 51.6035 41H53.2852C53.2852 47.4908 48.0045 52.7715 41.5137 52.7715C35.0229 52.7715 29.7422 47.4908 29.7422 41C29.7422 34.5092 35.0229 29.2285 41.5137 29.2285C43.5044 29.2285 45.4881 29.7511 47.25 30.7396C47.9148 31.1129 48.7471 30.992 49.2784 30.4456L51.7003 27.9554C52.0535 27.5923 52.2242 27.089 52.1648 26.5859C52.1055 26.0827 51.8224 25.6331 51.3942 25.3621C48.4383 23.491 45.0217 22.502 41.5137 22.502C31.3138 22.502 23.0156 30.8002 23.0156 41C23.0156 51.1998 31.3138 59.498 41.5137 59.498C51.7135 59.498 60.0117 51.1998 60.0117 41H61.6934C62.3344 41 62.9108 40.6438 63.1974 40.0704C63.4842 39.4971 63.4233 38.8223 63.0387 38.3094V38.3094Z" fill="#F9F9F9"/>
<path d="M63.1994 40.0704C63.4861 39.4971 63.4253 38.8223 63.0406 38.3094L57.9957 31.5828C57.6751 31.1553 57.1848 30.9102 56.6504 30.9102C56.116 30.9102 55.6257 31.1553 55.3051 31.5828L50.2602 38.3094C49.8755 38.8223 49.8146 39.4971 50.1014 40.0704C50.3881 40.6438 50.9644 41 51.6055 41H53.2871C53.2871 47.4908 48.0064 52.7715 41.5156 52.7715V59.498C51.7154 59.498 60.0137 51.1998 60.0137 41H61.6953C62.3363 41 62.9127 40.6438 63.1994 40.0704Z" fill="#F9F9F9"/>
<path d="M47.2519 30.7396C47.9167 31.1129 48.749 30.992 49.2803 30.4456L51.7022 27.9554C52.0555 27.5923 52.2261 27.089 52.1668 26.5859C52.1075 26.0827 51.8243 25.6331 51.3962 25.3621C48.4403 23.491 45.0236 22.502 41.5156 22.502V29.2285C43.5064 29.2285 45.49 29.7511 47.2519 30.7396V30.7396Z" fill="#F9F9F9"/>
</svg>
