<svg width="120" height="118" viewBox="0 0 120 118" fill="none" xmlns="http://www.w3.org/2000/svg">
<path d="M59.5315 117.427C43.7538 117.476 28.6124 111.292 17.4844 100.254L16.6713 99.3671C-5.5571 76.7333 -5.5571 40.7704 16.6713 18.1365V18.1209L17.4844 17.2496C40.5953 -5.66699 78.1552 -5.75566 101.377 17.0519C101.444 17.1177 101.51 17.1835 101.577 17.2496L102.39 18.1365C124.618 40.7704 124.618 76.7333 102.39 99.3671V99.3828L101.577 100.254C90.4498 111.292 75.3088 117.476 59.5315 117.427ZM22.1932 97.1818C43.1199 116.952 76.1275 116.902 96.992 97.0672L97.6804 96.3265C118.709 75.7356 118.842 42.2201 97.9772 21.4673C97.8788 21.3693 97.7797 21.2715 97.6804 21.1743L96.8673 20.3146C75.9802 0.444636 42.8914 0.495302 22.067 20.4289L21.3787 21.1696C0.349826 41.7605 0.21701 75.2763 21.0818 96.0289C21.1803 96.1269 21.2794 96.2246 21.3787 96.3218L22.1932 97.1818Z" fill="url(#paint0_linear_1628_20488)"/>
<path d="M59.536 38.3434C43.7594 38.3946 28.618 32.2131 17.4889 21.1775L16.6758 20.3795V18.1168L17.4889 17.2456C40.5998 -5.67102 78.1597 -5.75969 101.381 17.0479C101.448 17.1137 101.515 17.1795 101.581 17.2456L102.395 18.0436V20.3748L101.582 21.173C90.4537 32.21 75.3128 38.3933 59.536 38.3434ZM23.4 19.2086C43.9422 37.4573 75.13 37.4573 95.6723 19.2086C75.1685 0.860806 43.9037 0.860806 23.4 19.2086Z" fill="url(#paint1_linear_1628_20488)"/>
<path d="M59.536 117.423C43.7583 117.473 28.6169 111.288 17.4889 100.25L16.6758 99.4522V97.2025L17.4802 96.3313C40.5861 73.4098 78.146 73.3137 101.372 96.1162C101.445 96.1878 101.518 96.2594 101.59 96.3313L102.395 97.1293V99.4533L101.582 100.251C90.454 111.289 75.3131 117.473 59.536 117.423ZM23.3927 98.2784C43.9375 116.537 75.1362 116.537 95.6809 98.2784C75.1668 79.9419 43.907 79.9419 23.3927 98.2784Z" fill="url(#paint2_linear_1628_20488)"/>
<path d="M59.5346 117.439C42.0837 117.439 28.4062 91.6471 28.4062 58.728C28.4062 25.809 42.0837 0.0195312 59.5346 0.0195312C76.9856 0.0195312 90.663 25.8117 90.663 58.7266C90.663 91.6416 76.9859 117.439 59.5346 117.439ZM59.5346 5.46891C45.6496 5.46891 33.9264 29.8568 33.9264 58.728C33.9264 87.5993 45.6496 111.99 59.5346 111.99C73.4197 111.99 85.1428 87.5996 85.1428 58.728C85.1428 29.8565 73.4197 5.46891 59.5346 5.46891Z" fill="url(#paint3_linear_1628_20488)"/>
<path d="M2.80469 55.9863H116.302V61.4357H2.80469V55.9863Z" fill="url(#paint4_linear_1628_20488)"/>
<path d="M56.793 2.70813H62.3149V114.716H56.793V2.70813Z" fill="url(#paint5_linear_1628_20488)"/>
<defs>
<linearGradient id="paint0_linear_1628_20488" x1="32.6072" y1="13.2805" x2="137.012" y2="25.8246" gradientUnits="userSpaceOnUse">
<stop stop-color="#8800E1"/>
<stop offset="1" stop-color="#4A00E0" stop-opacity="0.97"/>
</linearGradient>
<linearGradient id="paint1_linear_1628_20488" x1="40.1515" y1="4.33535" x2="111.404" y2="23.21" gradientUnits="userSpaceOnUse">
<stop stop-color="#8800E1"/>
<stop offset="1" stop-color="#4A00E0" stop-opacity="0.97"/>
</linearGradient>
<linearGradient id="paint2_linear_1628_20488" x1="40.1516" y1="83.4127" x2="111.405" y2="102.286" gradientUnits="userSpaceOnUse">
<stop stop-color="#8800E1"/>
<stop offset="1" stop-color="#4A00E0" stop-opacity="0.97"/>
</linearGradient>
<linearGradient id="paint3_linear_1628_20488" x1="45.4565" y1="13.2956" x2="100.62" y2="16.7614" gradientUnits="userSpaceOnUse">
<stop stop-color="#8800E1"/>
<stop offset="1" stop-color="#4A00E0" stop-opacity="0.97"/>
</linearGradient>
<linearGradient id="paint4_linear_1628_20488" x1="33.8882" y1="56.6025" x2="48.1267" y2="91.7426" gradientUnits="userSpaceOnUse">
<stop stop-color="#8800E1"/>
<stop offset="1" stop-color="#4A00E0" stop-opacity="0.97"/>
</linearGradient>
<linearGradient id="paint5_linear_1628_20488" x1="58.3052" y1="15.3723" x2="63.2172" y2="15.401" gradientUnits="userSpaceOnUse">
<stop stop-color="#8800E1"/>
<stop offset="1" stop-color="#4A00E0" stop-opacity="0.97"/>
</linearGradient>
</defs>
</svg>
