<svg width="125" height="125" viewBox="0 0 125 125" fill="none" xmlns="http://www.w3.org/2000/svg">
<g clip-path="url(#clip0_1628_20358)">
<path d="M56.1931 107.82C55.5608 107.82 54.9285 107.656 54.3621 107.329C46.3149 102.684 32.9744 92.4809 21.3101 80.1606C11.5886 69.8918 0 54.8342 0 41.4126C0 24.4277 13.8184 10.6093 30.803 10.6093C37.1814 10.6093 43.3018 12.5427 48.5027 16.2004C51.5369 18.3342 54.1299 20.9587 56.1931 23.9592C58.2561 20.9587 60.8491 18.3342 63.8833 16.2004C69.0842 12.5427 75.2046 10.6093 81.583 10.6093C98.5679 10.6093 112.386 24.4277 112.386 41.4126C112.386 47.2402 109.954 54.0376 105.158 61.6159C101.302 67.7097 95.9375 74.3152 89.2146 81.2492C76.9521 93.8967 63.5935 104.114 58.0242 107.329C57.4578 107.656 56.8254 107.82 56.1931 107.82Z" fill="#FF3F5C"/>
<path d="M81.5813 10.6093C75.2029 10.6093 69.0825 12.5427 63.8816 16.2004C60.8474 18.3342 58.2544 20.9587 56.1914 23.9592V107.82C56.8237 107.82 57.4561 107.656 58.0225 107.329C63.5918 104.113 76.9504 93.8962 89.2129 81.249C95.9358 74.3149 101.3 67.7094 105.156 61.6157C109.953 54.0373 112.385 47.24 112.385 41.4123C112.385 24.4277 98.5662 10.6093 81.5813 10.6093Z" fill="#BF065A"/>
<path d="M92.0391 110.728C108.219 110.728 121.336 97.6118 121.336 81.4316C121.336 65.2514 108.219 52.1347 92.0391 52.1347C75.8588 52.1347 62.7422 65.2514 62.7422 81.4316C62.7422 97.6118 75.8588 110.728 92.0391 110.728Z" fill="#FFF4F4"/>
<path fill-rule="evenodd" clip-rule="evenodd" d="M92.0391 52.1347V110.728C108.175 110.728 121.336 97.5678 121.336 81.4316C121.336 65.2954 108.175 52.1347 92.0391 52.1347Z" fill="#F6EFEA"/>
<path d="M96.7102 89.763C95.773 89.763 94.8357 89.4053 94.1209 88.6902L89.4517 84.021C88.7649 83.3343 88.3789 82.4029 88.3789 81.4317V72.3985C88.3789 70.376 90.0186 68.7364 92.041 68.7364C94.0635 68.7364 95.7031 70.376 95.7031 72.3985V79.9148L99.2996 83.5113C100.73 84.9412 100.73 87.26 99.2996 88.6902C98.5847 89.4053 97.6475 89.763 96.7102 89.763Z" fill="#392E6E"/>
<path d="M92.041 48.4727C73.8674 48.4727 59.082 63.2581 59.082 81.4317C59.082 99.6053 73.8674 114.391 92.041 114.391C110.215 114.391 125 99.6053 125 81.4317C125 63.2581 110.215 48.4727 92.041 48.4727ZM112.564 96.7757L112.24 96.4509C110.81 95.021 108.491 95.021 107.061 96.4509C105.63 97.8809 105.63 100.2 107.061 101.63L107.386 101.955C104.03 104.47 100.04 106.181 95.7036 106.804V106.334C95.7036 104.312 94.064 102.672 92.0415 102.672C90.0191 102.672 88.3794 104.312 88.3794 106.334V106.804C84.0427 106.181 80.0525 104.47 76.6973 101.955L77.0225 101.63C78.4524 100.2 78.4522 97.8809 77.022 96.4507C75.592 95.0208 73.2732 95.0208 71.843 96.4512L71.5183 96.7759C69.0034 93.4207 67.2922 89.4307 66.6692 85.0938H67.1387C69.1611 85.0938 70.8008 83.4541 70.8008 81.4317C70.8008 79.4092 69.1611 77.7696 67.1387 77.7696H66.6689C67.292 73.4329 69.0029 69.4429 71.5178 66.0877L71.8425 66.4124C72.5576 67.1275 73.4949 67.4851 74.4319 67.4851C75.3689 67.4851 76.3064 67.1275 77.0212 66.4124C78.4514 64.9824 78.4514 62.6636 77.0212 61.2334L76.6963 60.9085C80.0515 58.3936 84.0415 56.6824 88.3782 56.0594V56.5288C88.3782 58.5513 90.0178 60.1909 92.0403 60.1909C94.0628 60.1909 95.7024 58.5513 95.7024 56.5288V56.0594C100.039 56.6824 104.029 58.3933 107.385 60.9082L107.06 61.2329C105.63 62.6629 105.63 64.9817 107.06 66.4119C107.775 67.127 108.712 67.4846 109.649 67.4846C110.586 67.4846 111.524 67.127 112.239 66.4119L112.563 66.0869C115.078 69.4422 116.79 73.4322 117.413 77.7688H116.943C114.921 77.7688 113.281 79.4085 113.281 81.4309C113.281 83.4534 114.921 85.093 116.943 85.093H117.413C116.79 89.4302 115.079 93.4204 112.564 96.7757Z" fill="#B8DC38"/>
<path d="M99.2976 83.5114L95.7012 79.9148V72.3984C95.7012 70.3759 94.0615 68.7363 92.0391 68.7363V86.6106L94.1187 88.6902C94.8337 89.4052 95.771 89.7629 96.708 89.7629C97.645 89.7629 98.5825 89.4052 99.2974 88.6902C100.728 87.2602 100.728 84.9414 99.2976 83.5114Z" fill="#2B2256"/>
<path d="M92.0391 48.4726V60.1911C94.0615 60.1909 95.7009 58.5515 95.7009 56.529V56.0595C100.038 56.6826 104.028 58.3935 107.383 60.9084L107.058 61.2331C105.628 62.6631 105.628 64.9819 107.058 66.4121C107.773 67.1272 108.711 67.4848 109.648 67.4848C110.585 67.4848 111.522 67.1272 112.237 66.4121L112.562 66.0871C115.077 69.4423 116.788 73.4323 117.411 77.769H116.942C114.919 77.769 113.28 79.4087 113.28 81.4311C113.28 83.4536 114.919 85.0932 116.942 85.0932H117.411C116.788 89.4299 115.077 93.4201 112.562 96.7754L112.238 96.4506C110.808 95.0207 108.489 95.0207 107.059 96.4506C105.628 97.8806 105.628 100.199 107.059 101.63L107.384 101.955C104.028 104.469 100.038 106.181 95.7017 106.804V106.334C95.7017 104.311 94.062 102.672 92.0396 102.672C92.0396 102.672 92.0396 102.672 92.0393 102.672V114.391C110.213 114.391 124.998 99.6052 124.998 81.4316C124.998 63.258 110.213 48.4726 92.0391 48.4726Z" fill="#00CC71"/>
</g>
<defs>
<clipPath id="clip0_1628_20358">
<rect width="125" height="125" fill="white"/>
</clipPath>
</defs>
</svg>
