<svg width="75" height="76" viewBox="0 0 75 76" fill="none" xmlns="http://www.w3.org/2000/svg">
<path d="M45.6915 66.0522V15.6127C47.0424 15.6127 48.1038 15.9712 48.8757 16.6882C49.6476 17.4052 50.0335 18.5302 50.0335 20.0632V61.6017C50.0335 63.1346 49.6476 64.2596 48.8757 64.9767C48.1038 65.6937 47.0424 66.0522 45.6915 66.0522ZM5.16622 70.5028C3.96011 70.5028 2.93491 70.0701 2.09064 69.2047C1.24636 68.3393 0.824219 67.2885 0.824219 66.0522V15.6127C0.824219 14.3764 1.24636 13.3256 2.09064 12.4602C2.93491 11.5948 3.96011 11.1621 5.16622 11.1621H34.1129C35.319 11.1621 36.3442 11.5948 37.1885 12.4602C38.0327 13.3256 38.4549 14.3764 38.4549 15.6127V66.0522C38.4549 67.2885 38.0327 68.3393 37.1885 69.2047C36.3442 70.0701 35.319 70.5028 34.1129 70.5028H5.16622ZM57.2702 61.5275V20.2116C58.2351 20.2116 58.9588 20.4217 59.4412 20.8421C59.9237 21.2624 60.1649 22.0412 60.1649 23.1786V58.5605C60.1649 59.6978 59.9237 60.4767 59.4412 60.897C58.9588 61.3173 58.2351 61.5275 57.2702 61.5275ZM5.16622 66.0522H34.1129V15.6127H5.16622V66.0522Z" fill="url(#paint0_linear_1124_18183)"/>
<defs>
<linearGradient id="paint0_linear_1124_18183" x1="0.824219" y1="22.0032" x2="61.3193" y2="23.4887" gradientUnits="userSpaceOnUse">
<stop offset="0.0500767" stop-color="#FA7558"/>
<stop offset="1" stop-color="#F95A63"/>
</linearGradient>
</defs>
</svg>
