<svg width="116" height="117" viewBox="0 0 116 117" fill="none" xmlns="http://www.w3.org/2000/svg">
<path d="M98.2275 70.4839L89.0779 65.3972L83.5938 88.5948L106.925 111.792L112.344 114.806C113.798 115.614 115.481 114.186 114.889 112.646L99.0201 71.3932C98.8719 71.0081 98.5913 70.6861 98.2275 70.4839Z" fill="#FFBE3B"/>
<path d="M78.1477 59.3203L68.332 80.0371L87.071 100.754L106.924 111.792L89.0774 65.3968L78.1477 59.3203Z" fill="#FFD45E"/>
<path d="M78.1436 59.3203L57.5009 70.7965L46.793 93.8643L57.5009 116.932C57.8029 116.932 58.1051 116.856 58.3769 116.705L87.0669 100.754L78.1436 59.3203Z" fill="#FFE88C"/>
<path d="M36.8626 59.3203L18.1289 80.0371L27.9393 100.754L56.6293 116.705C56.9013 116.856 57.2033 116.932 57.5052 116.932V70.7965L36.8626 59.3203Z" fill="#FFD45E"/>
<path d="M36.8621 59.3201L27.9388 100.754L2.66632 114.805C1.21218 115.613 -0.470401 114.185 0.121869 112.645L15.9901 71.3928C16.1384 71.0074 16.4187 70.6857 16.7828 70.4832L36.8621 59.3201Z" fill="#FFE88C"/>
<path d="M57.5039 0.480469V88.5423C58.7755 88.5423 59.8887 87.884 60.5209 86.8961C60.5252 86.8961 84.696 49.0694 84.696 49.0694C87.8182 44.18 89.6278 38.3902 89.6278 32.1827C89.6278 14.6742 75.2454 0.480469 57.5039 0.480469Z" fill="#FC5E32"/>
<path d="M59.8493 86.8961C59.8526 86.8961 78.6523 49.0694 78.6523 49.0694C81.0806 44.18 82.4881 38.3902 82.4881 32.1827C82.4881 14.6742 71.3019 0.480469 57.5028 0.480469C39.7611 0.480469 25.3789 14.6742 25.3789 32.1827C25.3789 38.3902 27.1883 44.1803 30.3129 49.0694C30.3105 49.0694 54.4813 86.8961 54.4813 86.8961C55.1178 87.884 56.2312 88.5423 57.5026 88.5423C58.4918 88.5423 59.3577 87.884 59.8493 86.8961Z" fill="#FF7D4A"/>
<path d="M57.5029 49.7951C67.3593 49.7951 75.3495 41.9098 75.3495 32.1828C75.3495 22.4557 67.3593 14.5704 57.5029 14.5704C47.6465 14.5704 39.6562 22.4557 39.6562 32.1828C39.6562 41.9098 47.6465 49.7951 57.5029 49.7951Z" fill="white"/>
<path d="M57.5039 21.6154V42.7502C63.4178 42.7502 68.2119 38.019 68.2119 32.1828C68.2119 26.3465 63.4178 21.6154 57.5039 21.6154Z" fill="#FF7D4A"/>
<path d="M61.0703 32.1828C61.0703 26.3465 59.4722 21.6154 57.5009 21.6154C51.587 21.6154 46.793 26.3465 46.793 32.1828C46.793 38.019 51.587 42.7502 57.5009 42.7502C59.4722 42.7502 61.0703 38.019 61.0703 32.1828Z" fill="#FF9A6B"/>
</svg>
