<svg width="83" height="82" viewBox="0 0 83 82" fill="none" xmlns="http://www.w3.org/2000/svg">
<path d="M40.5158 72.9903C32.1632 73.0168 24.1473 69.6993 18.2562 63.778L17.8257 63.3022C6.05809 51.1606 6.05809 31.8687 17.8257 19.727V19.7186L18.2562 19.2512C30.491 6.95784 50.3751 6.91028 62.6685 19.1451C62.7039 19.1805 62.7393 19.2158 62.7746 19.2512L63.205 19.727C74.9726 31.8687 74.9726 51.1606 63.205 63.3022V63.3106L62.7746 63.778C56.8839 69.6991 48.8683 73.0166 40.5158 72.9903ZM20.749 62.13C31.8276 72.7357 49.3017 72.7085 60.3473 62.0685L60.7117 61.6712C71.8444 50.6254 71.9147 32.6464 60.8689 21.5137C60.8168 21.4612 60.7643 21.4087 60.7117 21.3566L60.2813 20.8954C49.2237 10.2364 31.7066 10.2635 20.6822 20.9567L20.3178 21.3541C9.1852 32.3998 9.11488 50.379 20.1607 61.5115C20.2128 61.5641 20.2652 61.6165 20.3178 61.6687L20.749 62.13Z" fill="url(#paint0_linear_1124_18372)"/>
<path d="M40.5182 30.5689C32.1661 30.5964 24.1503 27.2804 18.2586 21.3604L17.8281 20.9323V19.7186L18.2586 19.2512C30.4934 6.95784 50.3775 6.91028 62.6709 19.1451C62.7063 19.1805 62.7416 19.2158 62.777 19.2512L63.2074 19.6793V20.9298L62.7771 21.3581C56.886 27.2787 48.8704 30.5956 40.5182 30.5689ZM21.3879 20.3043C32.2629 30.0936 48.7736 30.0936 59.6487 20.3043C48.794 10.4618 32.2425 10.4618 21.3879 20.3043Z" fill="url(#paint1_linear_1124_18372)"/>
<path d="M40.5182 72.9904C32.1656 73.0168 24.1497 69.6993 18.2586 63.7781L17.8281 63.35V62.1432L18.254 61.6758C30.4862 49.3798 50.3703 49.3282 62.6663 61.5604C62.7049 61.5988 62.7433 61.6372 62.7817 61.6758L63.2075 62.1039V63.3506L62.7771 63.7786C56.8861 69.6996 48.8705 73.0168 40.5182 72.9904ZM21.384 62.7203C32.2604 72.5148 48.7769 72.5148 59.6532 62.7203C48.7931 52.8838 32.2443 52.8838 21.384 62.7203Z" fill="url(#paint2_linear_1124_18372)"/>
<path d="M40.5184 73.0003C31.2799 73.0003 24.0391 59.1643 24.0391 41.5053C24.0391 23.8462 31.2799 10.0117 40.5184 10.0117C49.7568 10.0117 56.9976 23.8477 56.9976 41.5045C56.9976 59.1614 49.757 73.0003 40.5184 73.0003ZM40.5184 12.935C33.1677 12.935 26.9614 26.0176 26.9614 41.5053C26.9614 56.9929 33.1677 70.0772 40.5184 70.0772C47.8691 70.0772 54.0753 56.9931 54.0753 41.5053C54.0753 26.0174 47.8691 12.935 40.5184 12.935Z" fill="url(#paint3_linear_1124_18372)"/>
<path d="M10.4883 40.0352H70.5736V42.9584H10.4883V40.0352Z" fill="url(#paint4_linear_1124_18372)"/>
<path d="M39.0645 11.4512H41.9877V71.5366H39.0645V11.4512Z" fill="url(#paint5_linear_1124_18372)"/>
<defs>
<linearGradient id="paint0_linear_1124_18372" x1="26.2622" y1="17.122" x2="81.5545" y2="23.6781" gradientUnits="userSpaceOnUse">
<stop stop-color="#8800E1"/>
<stop offset="1" stop-color="#4A00E0" stop-opacity="0.97"/>
</linearGradient>
<linearGradient id="paint1_linear_1124_18372" x1="30.2561" y1="12.3256" x2="68.0414" y2="22.2036" gradientUnits="userSpaceOnUse">
<stop stop-color="#8800E1"/>
<stop offset="1" stop-color="#4A00E0" stop-opacity="0.97"/>
</linearGradient>
<linearGradient id="paint2_linear_1124_18372" x1="30.2562" y1="54.7457" x2="68.0419" y2="64.6231" gradientUnits="userSpaceOnUse">
<stop stop-color="#8800E1"/>
<stop offset="1" stop-color="#4A00E0" stop-opacity="0.97"/>
</linearGradient>
<linearGradient id="paint3_linear_1124_18372" x1="33.0654" y1="17.1335" x2="62.2718" y2="18.9444" gradientUnits="userSpaceOnUse">
<stop stop-color="#8800E1"/>
<stop offset="1" stop-color="#4A00E0" stop-opacity="0.97"/>
</linearGradient>
<linearGradient id="paint4_linear_1124_18372" x1="26.9438" y1="40.3657" x2="34.6544" y2="59.1453" gradientUnits="userSpaceOnUse">
<stop stop-color="#8800E1"/>
<stop offset="1" stop-color="#4A00E0" stop-opacity="0.97"/>
</linearGradient>
<linearGradient id="paint5_linear_1124_18372" x1="39.8651" y1="18.2447" x2="42.4654" y2="18.2597" gradientUnits="userSpaceOnUse">
<stop stop-color="#8800E1"/>
<stop offset="1" stop-color="#4A00E0" stop-opacity="0.97"/>
</linearGradient>
</defs>
</svg>
