<svg width="53" height="53" viewBox="0 0 53 53" fill="none" xmlns="http://www.w3.org/2000/svg">
<path fill-rule="evenodd" clip-rule="evenodd" d="M36.1766 3.00438e-08C36.4688 3.00438e-08 36.7408 0.154915 36.8971 0.41064C37.0539 0.666365 37.0727 0.987567 36.9471 1.26118L29.8479 16.7833H42.1472C42.3396 16.7833 42.5263 16.8508 42.6771 16.9747C43.0462 17.278 43.108 17.8338 42.8152 18.2161L16.374 52.6661C16.1417 52.9689 15.7463 53.0799 15.3981 52.9404C14.9587 52.7641 14.7405 52.2525 14.9105 51.7975L24.6969 25.6167H14.8531C14.8012 25.6167 14.7494 25.6117 14.6985 25.602C14.2899 25.524 14.0033 25.1563 14 24.7414H14L14 24.7412C13.9996 24.6858 14.0042 24.6295 14.0143 24.5729L18.279 0.722898C18.3536 0.303977 18.7064 -0.000110357 19.1178 3.00438e-08H36.1766ZM9 26H0V27H9V26ZM44 26H53V27H44V26ZM51.8235 1L46 6.82354L47.1765 8L53 2.17646L51.8235 1ZM0 50.8235L5.82354 45L7 46.1765L1.17646 52L0 50.8235ZM47.1765 45L46 46.1765L51.8235 52L53 50.8235L47.1765 45ZM0 2.17646L1.17646 1L7 6.82354L5.82354 8L0 2.17646Z" fill="url(#paint0_linear_1124_18323)"/>
<defs>
<linearGradient id="paint0_linear_1124_18323" x1="14.5151" y1="5.99246" x2="61.009" y2="11.5017" gradientUnits="userSpaceOnUse">
<stop stop-color="#8800E1"/>
<stop offset="1" stop-color="#4A00E0" stop-opacity="0.97"/>
</linearGradient>
</defs>
</svg>
