<svg width="59" height="55" viewBox="0 0 59 55" fill="none" xmlns="http://www.w3.org/2000/svg">
<g clip-path="url(#clip0_1124_18297)">
<path d="M45.5885 34.4922C40.5307 34.4922 36.416 38.3677 36.416 43.1313C36.416 47.8951 40.5308 51.7706 45.5885 51.7706C50.6463 51.7706 54.7611 47.895 54.7611 43.1313C54.7611 38.3677 50.6462 34.4922 45.5885 34.4922ZM49.2093 44.7234H45.5885C44.655 44.7234 43.8983 44.0106 43.8983 43.1314V39.7211C43.8983 38.8418 44.655 38.1291 45.5885 38.1291C46.5219 38.1291 47.2788 38.8418 47.2788 39.7211V41.5394H49.2094C50.143 41.5394 50.8997 42.2522 50.8997 43.1314C50.8996 44.0106 50.143 44.7234 49.2093 44.7234Z" fill="url(#paint0_linear_1124_18297)"/>
<path d="M0.441406 49.097C0.441406 52.3255 3.23001 54.9521 6.65776 54.9521H45.5829C38.6611 54.9521 33.0298 49.6482 33.0298 43.1288C33.0298 36.6095 38.6612 31.3057 45.5829 31.3057C52.5045 31.3057 58.1359 36.6095 58.1359 43.1288V17.4375H0.441406V49.097ZM46.1979 23.2459C46.5134 22.9497 46.9484 22.7799 47.3935 22.7799C47.8385 22.7799 48.2735 22.9497 48.5879 23.2459C48.9036 23.542 49.0837 23.9527 49.0837 24.3719C49.0837 24.791 48.9034 25.2008 48.5879 25.4969C48.2735 25.793 47.8386 25.9639 47.3935 25.9639C46.9484 25.9639 46.5133 25.793 46.1979 25.4969C45.8835 25.2008 45.7032 24.7911 45.7032 24.3719C45.7032 23.9527 45.8835 23.542 46.1979 23.2459ZM38.9555 23.2459C39.2712 22.9497 39.706 22.7799 40.1511 22.7799C40.5962 22.7799 41.0312 22.9497 41.3467 23.2459C41.6611 23.543 41.8414 23.9527 41.8414 24.3719C41.8414 24.79 41.6611 25.2008 41.3467 25.4969C41.0311 25.793 40.5962 25.9639 40.1511 25.9639C39.706 25.9639 39.2711 25.793 38.9555 25.4969C38.6413 25.2008 38.4609 24.7901 38.4609 24.3719C38.4609 23.9527 38.6413 23.542 38.9555 23.2459ZM34.1045 32.318C33.7901 32.6141 33.3541 32.784 32.91 32.784C32.4649 32.784 32.0299 32.6141 31.7144 32.318C31.4 32.0219 31.2197 31.6113 31.2197 31.192C31.2197 30.7728 31.4 30.363 31.7144 30.0669C32.0288 29.7708 32.4649 29.6 32.91 29.6C33.3551 29.6 33.7901 29.7708 34.1045 30.0669C34.4189 30.363 34.6003 30.7727 34.6003 31.192C34.6004 31.6113 34.4189 32.0219 34.1045 32.318ZM31.7144 23.2459C32.0288 22.9497 32.4649 22.7799 32.91 22.7799C33.3551 22.7799 33.7901 22.9497 34.1045 23.2459C34.4189 23.542 34.6003 23.9527 34.6003 24.3719C34.6003 24.791 34.4189 25.2008 34.1045 25.4969C33.7901 25.793 33.3552 25.9639 32.91 25.9639C32.4648 25.9639 32.0288 25.793 31.7144 25.4969C31.4 25.2008 31.2187 24.7911 31.2187 24.3719C31.2187 23.9527 31.4 23.542 31.7144 23.2459ZM24.4723 23.2459C24.7878 22.9497 25.2228 22.7799 25.6678 22.7799C26.1129 22.7799 26.5479 22.9497 26.8623 23.2459C27.1779 23.542 27.358 23.9527 27.358 24.3719C27.358 24.791 27.1777 25.2008 26.8623 25.4969C26.5479 25.793 26.113 25.9639 25.6678 25.9639C25.2228 25.9639 24.7877 25.793 24.4723 25.4969C24.1579 25.2008 23.9775 24.7911 23.9775 24.3719C23.9775 23.9527 24.1579 23.542 24.4723 23.2459ZM24.4723 30.0669C24.7867 29.7708 25.2228 29.6 25.6678 29.6C26.1129 29.6 26.5479 29.7708 26.8634 30.0669C27.1777 30.363 27.358 30.7727 27.358 31.192C27.358 31.6113 27.1777 32.0219 26.8634 32.318C26.5478 32.6141 26.1117 32.784 25.6678 32.784C25.2228 32.784 24.7877 32.6141 24.4723 32.318C24.1579 32.0219 23.9775 31.6113 23.9775 31.192C23.9775 30.7728 24.1579 30.363 24.4723 30.0669ZM24.4723 36.8872C24.7867 36.591 25.2228 36.4211 25.6678 36.4211C26.1129 36.4211 26.5479 36.591 26.8634 36.8872C27.1777 37.1833 27.358 37.5939 27.358 38.0131C27.358 38.4323 27.1777 38.8431 26.8634 39.1392C26.5478 39.4353 26.1117 39.6051 25.6678 39.6051C25.2228 39.6051 24.7877 39.4353 24.4723 39.1392C24.1579 38.8431 23.9775 38.4323 23.9775 38.0131C23.9775 37.5939 24.1579 37.1833 24.4723 36.8872ZM24.4723 43.7083C24.7867 43.4122 25.2228 43.2424 25.6678 43.2424C26.1129 43.2424 26.5479 43.4122 26.8634 43.7083C27.1777 44.0044 27.358 44.4152 27.358 44.8344C27.358 45.2526 27.1777 45.6633 26.8634 45.9594C26.5478 46.2555 26.1129 46.4264 25.6678 46.4264C25.2228 46.4264 24.7867 46.2555 24.4723 45.9594C24.1579 45.6633 23.9775 45.2537 23.9775 44.8344C23.9775 44.4151 24.1579 44.0044 24.4723 43.7083ZM17.2299 23.2459C17.5455 22.9497 17.9804 22.7799 18.4255 22.7799C18.8706 22.7799 19.3067 22.9497 19.6211 23.2459C19.9355 23.542 20.1158 23.9527 20.1158 24.3719C20.1158 24.79 19.9355 25.2008 19.6211 25.4969C19.3067 25.793 18.8706 25.9639 18.4255 25.9639C17.9804 25.9639 17.5455 25.793 17.2299 25.4969C16.9156 25.2008 16.7353 24.7901 16.7353 24.3719C16.7354 23.9527 16.9156 23.542 17.2299 23.2459ZM17.2312 30.0669C17.5455 29.7708 17.9804 29.6 18.4256 29.6C18.8707 29.6 19.3068 29.7708 19.6212 30.0669C19.9356 30.363 20.1159 30.7738 20.1159 31.192C20.1159 31.6113 19.9356 32.0219 19.6212 32.318C19.3057 32.6141 18.8707 32.784 18.4256 32.784C17.9818 32.784 17.5456 32.6141 17.2312 32.318C16.9156 32.0219 16.7354 31.6113 16.7354 31.192C16.7354 30.7728 16.9156 30.363 17.2312 30.0669ZM17.2312 36.8872C17.5455 36.591 17.9804 36.4211 18.4256 36.4211C18.8707 36.4211 19.3068 36.591 19.6212 36.8872C19.9356 37.1843 20.1159 37.5939 20.1159 38.0131C20.1159 38.4323 19.9356 38.8421 19.6212 39.1392C19.3057 39.4353 18.8707 39.6051 18.4256 39.6051C17.9818 39.6051 17.5456 39.4353 17.2312 39.1392C16.9156 38.8431 16.7354 38.4323 16.7354 38.0131C16.7354 37.5939 16.9156 37.1833 17.2312 36.8872ZM17.2312 43.7083C17.5455 43.4122 17.9804 43.2424 18.4256 43.2424C18.8707 43.2424 19.3058 43.4122 19.6212 43.7083C19.9356 44.0044 20.1159 44.4152 20.1159 44.8344C20.1159 45.2526 19.9356 45.6633 19.6212 45.9594C19.3057 46.2555 18.8707 46.4264 18.4256 46.4264C17.9805 46.4264 17.5456 46.2555 17.2312 45.9594C16.9156 45.6633 16.7354 45.2537 16.7354 44.8344C16.7354 44.4151 16.9156 44.0044 17.2312 43.7083ZM9.98895 30.0669C10.3033 29.7708 10.7394 29.6 11.1845 29.6C11.6284 29.6 12.0646 29.7708 12.379 30.0669C12.6934 30.363 12.8748 30.7727 12.8748 31.192C12.8748 31.6113 12.6934 32.0219 12.379 32.318C12.0646 32.6141 11.6285 32.784 11.1845 32.784C10.7394 32.784 10.3033 32.6141 9.98895 32.318C9.67456 32.0219 9.49426 31.6113 9.49426 31.192C9.49426 30.7728 9.67456 30.363 9.98895 30.0669ZM9.98895 36.8872C10.3033 36.591 10.7383 36.4211 11.1835 36.4211C11.6285 36.4211 12.0646 36.591 12.379 36.8872C12.6934 37.1833 12.8738 37.5939 12.8738 38.0131C12.8738 38.4323 12.6934 38.8431 12.379 39.1392C12.0646 39.4353 11.6285 39.6051 11.1835 39.6051C10.7395 39.6051 10.3033 39.4353 9.98895 39.1392C9.67456 38.8431 9.49426 38.4323 9.49426 38.0131C9.49426 37.5939 9.67456 37.1833 9.98895 36.8872ZM9.98895 43.7083C10.3033 43.4122 10.7394 43.2424 11.1835 43.2424C11.6285 43.2424 12.0646 43.4122 12.379 43.7083C12.6934 44.0044 12.8748 44.4152 12.8748 44.8344C12.8748 45.2536 12.6934 45.6633 12.379 45.9594C12.0646 46.2555 11.6285 46.4264 11.1835 46.4264C10.7395 46.4264 10.3033 46.2555 9.98895 45.9594C9.67456 45.6633 9.49325 45.2526 9.49325 44.8344C9.49314 44.4152 9.67456 44.0044 9.98895 43.7083Z" fill="url(#paint1_linear_1124_18297)"/>
<path d="M51.9193 4.02366H47.8816V2.20528C47.8816 1.32607 47.1247 0.613281 46.1914 0.613281C45.2578 0.613281 44.5011 1.32607 44.5011 2.20528V4.02366H41.1205V2.20528C41.1205 1.32607 40.3636 0.613281 39.4303 0.613281C38.4967 0.613281 37.74 1.32607 37.74 2.20528V4.02366H34.3595V2.20528C34.3595 1.32607 33.6026 0.613281 32.6692 0.613281C31.7356 0.613281 30.9789 1.32607 30.9789 2.20528V4.02366H27.5984V2.20528C27.5984 1.32607 26.8415 0.613281 25.9081 0.613281C24.9745 0.613281 24.2179 1.32607 24.2179 2.20528V4.02366H20.8373V2.20528C20.8373 1.32607 20.0804 0.613281 19.147 0.613281C18.2135 0.613281 17.4568 1.32607 17.4568 2.20528V4.02366H14.0762V2.20528C14.0762 1.32607 13.3193 0.613281 12.386 0.613281C11.4524 0.613281 10.6957 1.32607 10.6957 2.20528V4.02366H6.65776C3.23001 4.02366 0.441406 6.65024 0.441406 9.87871V14.2549H58.1359V9.87871C58.1359 6.65024 55.3472 4.02366 51.9193 4.02366Z" fill="url(#paint2_linear_1124_18297)"/>
</g>
<defs>
<linearGradient id="paint0_linear_1124_18297" x1="41.4402" y1="36.4458" x2="57.5049" y2="38.4669" gradientUnits="userSpaceOnUse">
<stop stop-color="#8800E1"/>
<stop offset="1" stop-color="#4A00E0" stop-opacity="0.97"/>
</linearGradient>
<linearGradient id="paint1_linear_1124_18297" x1="16.2422" y1="21.6791" x2="65.9153" y2="30.7313" gradientUnits="userSpaceOnUse">
<stop stop-color="#8800E1"/>
<stop offset="1" stop-color="#4A00E0" stop-opacity="0.97"/>
</linearGradient>
<linearGradient id="paint2_linear_1124_18297" x1="16.2422" y1="2.15567" x2="57.2626" y2="22.7131" gradientUnits="userSpaceOnUse">
<stop stop-color="#8800E1"/>
<stop offset="1" stop-color="#4A00E0" stop-opacity="0.97"/>
</linearGradient>
<clipPath id="clip0_1124_18297">
<rect width="57.6945" height="54.3402" fill="white" transform="translate(0.441406 0.613281)"/>
</clipPath>
</defs>
</svg>
