<svg width="57" height="54" viewBox="0 0 57 54" fill="none" xmlns="http://www.w3.org/2000/svg">
<g clip-path="url(#clip0_1124_17916)">
<rect width="56.3945" height="53.1165" transform="translate(0.605469 0.217094)" fill="white"/>
<mask id="mask0_1124_17916" style="mask-type:alpha" maskUnits="userSpaceOnUse" x="0" y="0" width="58" height="54">
<path fill-rule="evenodd" clip-rule="evenodd" d="M2.6563 22.8036C1.346 21.5693 0.609144 19.8958 0.607422 18.1503V6.80276C0.609144 5.05732 1.346 3.38383 2.6563 2.14952C3.96659 0.91522 5.74327 0.220941 7.59645 0.219048H19.6467C21.4998 0.220941 23.2765 0.91522 24.5868 2.14952C25.8971 3.38383 26.634 5.05732 26.6357 6.80276V18.1503C26.634 19.8958 25.8971 21.5693 24.5868 22.8036C23.2765 24.0379 21.4998 24.7322 19.6467 24.7341H7.59645C5.74327 24.7322 3.96659 24.0379 2.6563 22.8036ZM5.72268 5.03763C5.22572 5.50589 4.94621 6.14067 4.94547 6.80276V18.1503C4.94621 18.8124 5.22572 19.4472 5.72268 19.9155C6.21964 20.3837 6.89349 20.6472 7.59645 20.6482H19.6467C20.3496 20.6472 21.0235 20.3837 21.5204 19.9155C22.0174 19.4472 22.2969 18.8124 22.2976 18.1503V6.80276C22.2969 6.14067 22.0174 5.50589 21.5204 5.03763C21.0235 4.56937 20.3496 4.30585 19.6467 4.30488H7.59645C6.89349 4.30585 6.21964 4.56937 5.72268 5.03763ZM2.6563 51.4042C1.346 50.1699 0.609144 48.4964 0.607422 46.7509V35.4033C0.609144 33.6579 1.346 31.9844 2.6563 30.7501C3.96659 29.5158 5.74327 28.8215 7.59645 28.8196H19.6467C21.4998 28.8215 23.2765 29.5158 24.5868 30.7501C25.8971 31.9844 26.634 33.6579 26.6357 35.4033V46.7509C26.634 48.4964 25.8971 50.1699 24.5868 51.4042C23.2765 52.6385 21.4998 53.3327 19.6467 53.3346H7.59645C5.74327 53.3327 3.96659 52.6385 2.6563 51.4042ZM5.72268 33.6382C5.22572 34.1065 4.94621 34.7413 4.94547 35.4033V46.7509C4.94621 47.413 5.22572 48.0478 5.72268 48.5161C6.21964 48.9843 6.89349 49.2478 7.59645 49.2488H19.6467C20.3496 49.2478 21.0235 48.9843 21.5204 48.5161C22.0174 48.0478 22.2969 47.413 22.2976 46.7509V35.4033C22.2969 34.7413 22.0174 34.1065 21.5204 33.6382C21.0235 33.17 20.3496 32.9064 19.6467 32.9055H7.59645C6.89349 32.9064 6.21964 33.17 5.72268 33.6382ZM43.9927 0.219048C41.4187 0.219048 38.9026 0.937937 36.7624 2.28481C34.6222 3.63168 32.9542 5.54604 31.9692 7.7858C30.9842 10.0256 30.7264 12.4901 31.2286 14.8679C31.7307 17.2456 32.9702 19.4297 34.7903 21.1439C36.6103 22.8581 38.9292 24.0256 41.4537 24.4985C43.9782 24.9715 46.5949 24.7287 48.973 23.801C51.351 22.8733 53.3835 21.3022 54.8135 19.2864C56.2435 17.2707 57.0068 14.9009 57.0068 12.4765C57.003 9.22675 55.6307 6.11108 53.1909 3.81313C50.7511 1.51517 47.4431 0.222616 43.9927 0.219048ZM43.9927 20.6482C42.2767 20.6482 40.5993 20.169 39.1725 19.271C37.7457 18.3731 36.6337 17.0969 35.977 15.6037C35.3203 14.1105 35.1485 12.4675 35.4833 10.8823C35.818 9.29719 36.6444 7.84113 37.8577 6.69831C39.0711 5.55548 40.617 4.7772 42.3 4.4619C43.983 4.14659 45.7275 4.30842 47.3129 4.92691C48.8982 5.54541 50.2532 6.59279 51.2066 7.93661C52.1599 9.28044 52.6688 10.8603 52.6688 12.4765C52.6663 14.6431 51.7515 16.7203 50.1249 18.2523C48.4984 19.7843 46.293 20.6459 43.9927 20.6482ZM33.0274 30.7501C34.3377 29.5158 36.1144 28.8215 37.9675 28.8196H50.0178C51.8709 28.8215 53.6476 29.5158 54.9579 30.7501C56.2682 31.9844 57.0051 33.6579 57.0068 35.4033V46.7509C57.0051 48.4964 56.2682 50.1699 54.9579 51.4042C53.6476 52.6385 51.8709 53.3327 50.0178 53.3346H37.9675C36.1144 53.3327 34.3377 52.6385 33.0274 51.4042C31.7171 50.1699 30.9802 48.4964 30.9785 46.7509V35.4033C30.9802 33.6579 31.7171 31.9844 33.0274 30.7501ZM52.6687 46.7509V35.4033C52.668 34.7413 52.3885 34.1065 51.8915 33.6382C51.3946 33.17 50.7207 32.9064 50.0178 32.9055H37.9675C37.2646 32.9064 36.5907 33.17 36.0938 33.6382C35.5968 34.1065 35.3173 34.7413 35.3166 35.4033V46.7509C35.3173 47.413 35.5968 48.0478 36.0938 48.5161C36.5907 48.9843 37.2646 49.2478 37.9675 49.2488H50.0178C50.7207 49.2478 51.3946 48.9843 51.8915 48.5161C52.3885 48.0478 52.668 47.413 52.6687 46.7509Z" fill="#BDBDBD"/>
</mask>
<g mask="url(#mask0_1124_17916)">
<rect x="-6.60547" y="-8.35712" width="72.2086" height="71.305" fill="url(#paint0_linear_1124_17916)"/>
</g>
</g>
<defs>
<linearGradient id="paint0_linear_1124_17916" x1="-6.60547" y1="4.66975" x2="67.0068" y2="6.50025" gradientUnits="userSpaceOnUse">
<stop offset="0.0500767" stop-color="#FA7558"/>
<stop offset="1" stop-color="#F95A63"/>
</linearGradient>
<clipPath id="clip0_1124_17916">
<rect width="56.3945" height="53.1165" fill="white" transform="translate(0.605469 0.217094)"/>
</clipPath>
</defs>
</svg>
