<svg width="70" height="70" viewBox="0 0 70 70" fill="none" xmlns="http://www.w3.org/2000/svg">
<path d="M38.4475 45.7508L70 14.5833H51.373C51.275 13.0958 50.7185 11.7133 49.77 10.5583L59.9655 2.06208L57.4875 0L47.292 8.49625C45.7695 7.62708 43.932 7.11667 41.9475 7.11667C36.89 7.11667 32.795 10.4271 32.5255 14.5863H0L31.5 45.6517V64.1667L21 67.0833V70H48.9475V67.0833L38.4475 64.1667V45.7508ZM20.972 26.25L15.0675 20.4167H32.9875L25.9875 26.25H20.972ZM30.9365 26.25L36.6065 21.525C38.129 22.3942 39.9665 22.9046 41.951 22.9046C44.667 22.9046 47.0995 21.9392 48.825 20.4138H54.9395L49.0315 26.25H30.9365Z" fill="url(#paint0_linear_1124_17947)"/>
<defs>
<linearGradient id="paint0_linear_1124_17947" x1="-1.42669e-07" y1="12.7885" x2="71.3618" y2="14.5408" gradientUnits="userSpaceOnUse">
<stop offset="0.0500767" stop-color="#FA7558"/>
<stop offset="1" stop-color="#F95A63"/>
</linearGradient>
</defs>
</svg>
