<svg width="59" height="55" viewBox="0 0 59 55" fill="none" xmlns="http://www.w3.org/2000/svg">
<g clip-path="url(#clip0_1124_17904)">
<path d="M45.5885 34.4902C40.5307 34.4902 36.416 38.3658 36.416 43.1294C36.416 47.8932 40.5308 51.7686 45.5885 51.7686C50.6463 51.7686 54.7611 47.893 54.7611 43.1294C54.7611 38.3658 50.6462 34.4902 45.5885 34.4902ZM49.2093 44.7215H45.5885C44.655 44.7215 43.8983 44.0087 43.8983 43.1295V39.7191C43.8983 38.8399 44.655 38.1271 45.5885 38.1271C46.5219 38.1271 47.2788 38.8399 47.2788 39.7191V41.5375H49.2094C50.143 41.5375 50.8997 42.2503 50.8997 43.1295C50.8996 44.0087 50.143 44.7215 49.2093 44.7215Z" fill="#FA695D"/>
<path d="M0.441406 49.0961C0.441406 52.3245 3.23001 54.9511 6.65776 54.9511H45.5829C38.6611 54.9511 33.0298 49.6472 33.0298 43.1279C33.0298 36.6085 38.6612 31.3047 45.5829 31.3047C52.5045 31.3047 58.1359 36.6085 58.1359 43.1279V17.4365H0.441406V49.0961ZM46.1979 23.2449C46.5134 22.9488 46.9484 22.7789 47.3935 22.7789C47.8385 22.7789 48.2735 22.9488 48.5879 23.2449C48.9036 23.541 49.0837 23.9517 49.0837 24.3709C49.0837 24.7901 48.9034 25.1998 48.5879 25.496C48.2735 25.7921 47.8386 25.9629 47.3935 25.9629C46.9484 25.9629 46.5133 25.7921 46.1979 25.496C45.8835 25.1998 45.7032 24.7902 45.7032 24.3709C45.7032 23.9517 45.8835 23.541 46.1979 23.2449ZM38.9555 23.2449C39.2712 22.9488 39.706 22.7789 40.1511 22.7789C40.5962 22.7789 41.0312 22.9488 41.3467 23.2449C41.6611 23.542 41.8414 23.9517 41.8414 24.3709C41.8414 24.789 41.6611 25.1998 41.3467 25.496C41.0311 25.7921 40.5962 25.9629 40.1511 25.9629C39.706 25.9629 39.2711 25.7921 38.9555 25.496C38.6413 25.1998 38.4609 24.7891 38.4609 24.3709C38.4609 23.9517 38.6413 23.541 38.9555 23.2449ZM34.1045 32.317C33.7901 32.6131 33.3541 32.7831 32.91 32.7831C32.4649 32.7831 32.0299 32.6131 31.7144 32.317C31.4 32.0209 31.2197 31.6103 31.2197 31.1911C31.2197 30.7718 31.4 30.3621 31.7144 30.0659C32.0288 29.7698 32.4649 29.5991 32.91 29.5991C33.3551 29.5991 33.7901 29.7698 34.1045 30.0659C34.4189 30.3621 34.6003 30.7717 34.6003 31.1911C34.6004 31.6103 34.4189 32.0209 34.1045 32.317ZM31.7144 23.2449C32.0288 22.9488 32.4649 22.7789 32.91 22.7789C33.3551 22.7789 33.7901 22.9488 34.1045 23.2449C34.4189 23.541 34.6003 23.9517 34.6003 24.3709C34.6003 24.7901 34.4189 25.1998 34.1045 25.496C33.7901 25.7921 33.3552 25.9629 32.91 25.9629C32.4648 25.9629 32.0288 25.7921 31.7144 25.496C31.4 25.1998 31.2187 24.7902 31.2187 24.3709C31.2187 23.9517 31.4 23.541 31.7144 23.2449ZM24.4723 23.2449C24.7878 22.9488 25.2228 22.7789 25.6678 22.7789C26.1129 22.7789 26.5479 22.9488 26.8623 23.2449C27.1779 23.541 27.358 23.9517 27.358 24.3709C27.358 24.7901 27.1777 25.1998 26.8623 25.496C26.5479 25.7921 26.113 25.9629 25.6678 25.9629C25.2228 25.9629 24.7877 25.7921 24.4723 25.496C24.1579 25.1998 23.9775 24.7902 23.9775 24.3709C23.9775 23.9517 24.1579 23.541 24.4723 23.2449ZM24.4723 30.0659C24.7867 29.7698 25.2228 29.5991 25.6678 29.5991C26.1129 29.5991 26.5479 29.7698 26.8634 30.0659C27.1777 30.3621 27.358 30.7717 27.358 31.1911C27.358 31.6103 27.1777 32.0209 26.8634 32.317C26.5478 32.6131 26.1117 32.7831 25.6678 32.7831C25.2228 32.7831 24.7877 32.6131 24.4723 32.317C24.1579 32.0209 23.9775 31.6103 23.9775 31.1911C23.9775 30.7718 24.1579 30.3621 24.4723 30.0659ZM24.4723 36.8862C24.7867 36.5901 25.2228 36.4201 25.6678 36.4201C26.1129 36.4201 26.5479 36.5901 26.8634 36.8862C27.1777 37.1823 27.358 37.5929 27.358 38.0121C27.358 38.4314 27.1777 38.8421 26.8634 39.1382C26.5478 39.4343 26.1117 39.6041 25.6678 39.6041C25.2228 39.6041 24.7877 39.4343 24.4723 39.1382C24.1579 38.8421 23.9775 38.4314 23.9775 38.0121C23.9775 37.5929 24.1579 37.1823 24.4723 36.8862ZM24.4723 43.7074C24.7867 43.4112 25.2228 43.2414 25.6678 43.2414C26.1129 43.2414 26.5479 43.4112 26.8634 43.7074C27.1777 44.0035 27.358 44.4142 27.358 44.8334C27.358 45.2516 27.1777 45.6623 26.8634 45.9584C26.5478 46.2546 26.1129 46.4254 25.6678 46.4254C25.2228 46.4254 24.7867 46.2546 24.4723 45.9584C24.1579 45.6623 23.9775 45.2528 23.9775 44.8334C23.9775 44.4141 24.1579 44.0035 24.4723 43.7074ZM17.2299 23.2449C17.5455 22.9488 17.9804 22.7789 18.4255 22.7789C18.8706 22.7789 19.3067 22.9488 19.6211 23.2449C19.9355 23.541 20.1158 23.9517 20.1158 24.3709C20.1158 24.789 19.9355 25.1998 19.6211 25.496C19.3067 25.7921 18.8706 25.9629 18.4255 25.9629C17.9804 25.9629 17.5455 25.7921 17.2299 25.496C16.9156 25.1998 16.7353 24.7891 16.7353 24.3709C16.7354 23.9517 16.9156 23.541 17.2299 23.2449ZM17.2312 30.0659C17.5455 29.7698 17.9804 29.5991 18.4256 29.5991C18.8707 29.5991 19.3068 29.7698 19.6212 30.0659C19.9356 30.3621 20.1159 30.7728 20.1159 31.1911C20.1159 31.6103 19.9356 32.0209 19.6212 32.317C19.3057 32.6131 18.8707 32.7831 18.4256 32.7831C17.9818 32.7831 17.5456 32.6131 17.2312 32.317C16.9156 32.0209 16.7354 31.6103 16.7354 31.1911C16.7354 30.7718 16.9156 30.3621 17.2312 30.0659ZM17.2312 36.8862C17.5455 36.5901 17.9804 36.4201 18.4256 36.4201C18.8707 36.4201 19.3068 36.5901 19.6212 36.8862C19.9356 37.1833 20.1159 37.5929 20.1159 38.0121C20.1159 38.4314 19.9356 38.8411 19.6212 39.1382C19.3057 39.4343 18.8707 39.6041 18.4256 39.6041C17.9818 39.6041 17.5456 39.4343 17.2312 39.1382C16.9156 38.8421 16.7354 38.4314 16.7354 38.0121C16.7354 37.5929 16.9156 37.1823 17.2312 36.8862ZM17.2312 43.7074C17.5455 43.4112 17.9804 43.2414 18.4256 43.2414C18.8707 43.2414 19.3058 43.4112 19.6212 43.7074C19.9356 44.0035 20.1159 44.4142 20.1159 44.8334C20.1159 45.2516 19.9356 45.6623 19.6212 45.9584C19.3057 46.2546 18.8707 46.4254 18.4256 46.4254C17.9805 46.4254 17.5456 46.2546 17.2312 45.9584C16.9156 45.6623 16.7354 45.2528 16.7354 44.8334C16.7354 44.4141 16.9156 44.0035 17.2312 43.7074ZM9.98895 30.0659C10.3033 29.7698 10.7394 29.5991 11.1845 29.5991C11.6284 29.5991 12.0646 29.7698 12.379 30.0659C12.6934 30.3621 12.8748 30.7717 12.8748 31.1911C12.8748 31.6103 12.6934 32.0209 12.379 32.317C12.0646 32.6131 11.6285 32.7831 11.1845 32.7831C10.7394 32.7831 10.3033 32.6131 9.98895 32.317C9.67456 32.0209 9.49426 31.6103 9.49426 31.1911C9.49426 30.7718 9.67456 30.3621 9.98895 30.0659ZM9.98895 36.8862C10.3033 36.5901 10.7383 36.4201 11.1835 36.4201C11.6285 36.4201 12.0646 36.5901 12.379 36.8862C12.6934 37.1823 12.8738 37.5929 12.8738 38.0121C12.8738 38.4314 12.6934 38.8421 12.379 39.1382C12.0646 39.4343 11.6285 39.6041 11.1835 39.6041C10.7395 39.6041 10.3033 39.4343 9.98895 39.1382C9.67456 38.8421 9.49426 38.4314 9.49426 38.0121C9.49426 37.5929 9.67456 37.1823 9.98895 36.8862ZM9.98895 43.7074C10.3033 43.4112 10.7394 43.2414 11.1835 43.2414C11.6285 43.2414 12.0646 43.4112 12.379 43.7074C12.6934 44.0035 12.8748 44.4142 12.8748 44.8334C12.8748 45.2527 12.6934 45.6623 12.379 45.9584C12.0646 46.2546 11.6285 46.4254 11.1835 46.4254C10.7395 46.4254 10.3033 46.2546 9.98895 45.9584C9.67456 45.6623 9.49325 45.2516 9.49325 44.8334C9.49314 44.4142 9.67456 44.0035 9.98895 43.7074Z" fill="#FA695D"/>
<path d="M51.9193 4.02268H47.8816V2.2043C47.8816 1.3251 47.1247 0.612305 46.1914 0.612305C45.2578 0.612305 44.5011 1.3251 44.5011 2.2043V4.02268H41.1205V2.2043C41.1205 1.3251 40.3636 0.612305 39.4303 0.612305C38.4967 0.612305 37.74 1.3251 37.74 2.2043V4.02268H34.3595V2.2043C34.3595 1.3251 33.6026 0.612305 32.6692 0.612305C31.7356 0.612305 30.9789 1.3251 30.9789 2.2043V4.02268H27.5984V2.2043C27.5984 1.3251 26.8415 0.612305 25.9081 0.612305C24.9745 0.612305 24.2179 1.3251 24.2179 2.2043V4.02268H20.8373V2.2043C20.8373 1.3251 20.0804 0.612305 19.147 0.612305C18.2135 0.612305 17.4568 1.3251 17.4568 2.2043V4.02268H14.0762V2.2043C14.0762 1.3251 13.3193 0.612305 12.386 0.612305C11.4524 0.612305 10.6957 1.3251 10.6957 2.2043V4.02268H6.65776C3.23001 4.02268 0.441406 6.64927 0.441406 9.87773V14.2539H58.1359V9.87773C58.1359 6.64927 55.3472 4.02268 51.9193 4.02268Z" fill="#FA695D"/>
</g>
<defs>
<clipPath id="clip0_1124_17904">
<rect width="57.6945" height="54.3402" fill="white" transform="translate(0.441406 0.612305)"/>
</clipPath>
</defs>
</svg>
