<svg width="60" height="60" viewBox="0 0 60 60" fill="none" xmlns="http://www.w3.org/2000/svg">
<path d="M29.7858 0C13.3323 0 -0.00585938 13.3382 -0.00585938 29.7917C-0.00585938 46.2451 13.3323 59.5833 29.7858 59.5833C46.2393 59.5833 59.5775 46.2451 59.5775 29.7917C59.56 13.3455 46.2321 0.0175808 29.7858 0ZM42.3322 30.7409C42.126 31.1546 41.7907 31.49 41.3769 31.6962V31.7068L24.3531 40.2188C23.3017 40.7441 22.0237 40.3178 21.4983 39.2665C21.3489 38.9676 21.272 38.6377 21.2738 38.3036V21.2798C21.2733 20.1045 22.2256 19.1514 23.4009 19.1508C23.7314 19.1507 24.0575 19.2275 24.3531 19.3752L41.3769 27.8872C42.4287 28.4114 42.8565 29.6891 42.3322 30.7409Z" fill="url(#paint0_linear_1124_18033)"/>
<defs>
<linearGradient id="paint0_linear_1124_18033" x1="-0.0058595" y1="10.8854" x2="60.7366" y2="12.377" gradientUnits="userSpaceOnUse">
<stop offset="0.0500767" stop-color="#FA7558"/>
<stop offset="1" stop-color="#F95A63"/>
</linearGradient>
</defs>
</svg>
