<svg width="47" height="45" viewBox="0 0 47 45" fill="none" xmlns="http://www.w3.org/2000/svg">
<g clip-path="url(#clip0_1345_18496)">
<path d="M17.1367 33.0203V41.7165C17.1367 42.324 17.5441 42.8621 18.1472 43.0534C18.298 43.1003 18.4527 43.1228 18.6055 43.1228C19.0637 43.1228 19.5063 42.9165 19.7883 42.549L25.1012 35.6265L17.1367 33.0203Z" fill="url(#paint0_linear_1345_18496)"/>
<path d="M46.3832 0.260791C45.9328 -0.0448339 45.3414 -0.0860839 44.8518 0.159541L0.789295 22.1908C0.268379 22.4514 -0.0390796 22.9839 0.00400377 23.5445C0.0490454 24.107 0.438754 24.587 0.992962 24.7689L13.2423 28.7777L39.3293 7.42142L19.1428 30.707L39.672 37.4252C39.8248 37.4739 39.9853 37.5002 40.1459 37.5002C40.4123 37.5002 40.6766 37.4308 40.9097 37.2958C41.2818 37.0783 41.5344 36.7127 41.599 36.302L46.9844 1.61454C47.0647 1.08954 46.8336 0.568291 46.3832 0.260791Z" fill="url(#paint1_linear_1345_18496)"/>
</g>
<defs>
<linearGradient id="paint0_linear_1345_18496" x1="19.318" y1="34.1625" x2="26.3416" y2="34.8186" gradientUnits="userSpaceOnUse">
<stop stop-color="#8800E1"/>
<stop offset="1" stop-color="#4A00E0" stop-opacity="0.97"/>
</linearGradient>
<linearGradient id="paint1_linear_1345_18496" x1="12.8719" y1="4.23997" x2="53.7792" y2="10.3152" gradientUnits="userSpaceOnUse">
<stop stop-color="#8800E1"/>
<stop offset="1" stop-color="#4A00E0" stop-opacity="0.97"/>
</linearGradient>
<clipPath id="clip0_1345_18496">
<rect width="47" height="45" fill="white"/>
</clipPath>
</defs>
</svg>
