<svg width="48" height="45" viewBox="0 0 48 45" fill="none" xmlns="http://www.w3.org/2000/svg">
<path d="M37.321 28.0068C33.1398 28.0068 29.7383 31.2107 29.7383 35.1486C29.7383 39.0867 33.1399 42.2904 37.321 42.2904C41.5021 42.2904 44.9037 39.0866 44.9037 35.1486C44.9037 31.2107 41.502 28.0068 37.321 28.0068ZM40.3142 36.4647H37.321C36.5492 36.4647 35.9237 35.8755 35.9237 35.1487V32.3294C35.9237 31.6026 36.5492 31.0133 37.321 31.0133C38.0926 31.0133 38.7183 31.6026 38.7183 32.3294V33.8326H40.3143C41.086 33.8326 41.7116 34.4218 41.7116 35.1487C41.7115 35.8755 41.086 36.4647 40.3142 36.4647Z" fill="url(#paint0_linear_1345_18457)"/>
<path d="M0 40.0802C0 42.7491 2.30527 44.9204 5.1389 44.9204H37.3172C31.5952 44.9204 26.9399 40.5358 26.9399 35.1464C26.9399 29.7571 31.5953 25.3726 37.3172 25.3726C43.0392 25.3726 47.6945 29.7571 47.6945 35.1464V13.9081H0V40.0802ZM37.8257 18.7097C38.0865 18.4649 38.4461 18.3245 38.814 18.3245C39.1819 18.3245 39.5415 18.4649 39.8014 18.7097C40.0624 18.9545 40.2113 19.294 40.2113 19.6406C40.2113 19.9871 40.0623 20.3258 39.8014 20.5706C39.5415 20.8154 39.182 20.9566 38.814 20.9566C38.4461 20.9566 38.0864 20.8154 37.8257 20.5706C37.5658 20.3258 37.4167 19.9871 37.4167 19.6406C37.4167 19.294 37.5658 18.9545 37.8257 18.7097ZM31.8386 18.7097C32.0995 18.4649 32.459 18.3245 32.827 18.3245C33.1949 18.3245 33.5545 18.4649 33.8153 18.7097C34.0752 18.9554 34.2243 19.294 34.2243 19.6406C34.2243 19.9862 34.0752 20.3258 33.8153 20.5706C33.5544 20.8154 33.1949 20.9566 32.827 20.9566C32.459 20.9566 32.0994 20.8154 31.8386 20.5706C31.5788 20.3258 31.4297 19.9863 31.4297 19.6406C31.4297 19.294 31.5788 18.9545 31.8386 18.7097ZM27.8284 26.2094C27.5685 26.4542 27.208 26.5947 26.8409 26.5947C26.473 26.5947 26.1134 26.4542 25.8526 26.2094C25.5927 25.9646 25.4436 25.6252 25.4436 25.2786C25.4436 24.932 25.5927 24.5933 25.8526 24.3485C26.1125 24.1037 26.473 23.9625 26.8409 23.9625C27.2089 23.9625 27.5685 24.1037 27.8284 24.3485C28.0882 24.5933 28.2382 24.9319 28.2382 25.2786C28.2383 25.6252 28.0882 25.9646 27.8284 26.2094ZM25.8526 18.7097C26.1125 18.4649 26.473 18.3245 26.8409 18.3245C27.2089 18.3245 27.5685 18.4649 27.8284 18.7097C28.0882 18.9545 28.2382 19.294 28.2382 19.6406C28.2382 19.9871 28.0882 20.3258 27.8284 20.5706C27.5685 20.8154 27.209 20.9566 26.8409 20.9566C26.4729 20.9566 26.1125 20.8154 25.8526 20.5706C25.5927 20.3258 25.4428 19.9871 25.4428 19.6406C25.4428 19.294 25.5927 18.9545 25.8526 18.7097ZM19.8657 18.7097C20.1265 18.4649 20.4861 18.3245 20.854 18.3245C21.2219 18.3245 21.5816 18.4649 21.8415 18.7097C22.1023 18.9545 22.2513 19.294 22.2513 19.6406C22.2513 19.9871 22.1022 20.3258 21.8415 20.5706C21.5816 20.8154 21.222 20.9566 20.854 20.9566C20.4861 20.9566 20.1264 20.8154 19.8657 20.5706C19.6058 20.3258 19.4567 19.9871 19.4567 19.6406C19.4567 19.294 19.6058 18.9545 19.8657 18.7097ZM19.8657 24.3485C20.1256 24.1037 20.4861 23.9625 20.854 23.9625C21.2219 23.9625 21.5816 24.1037 21.8423 24.3485C22.1022 24.5933 22.2513 24.9319 22.2513 25.2786C22.2513 25.6252 22.1022 25.9646 21.8423 26.2094C21.5815 26.4542 21.221 26.5947 20.854 26.5947C20.4861 26.5947 20.1264 26.4542 19.8657 26.2094C19.6058 25.9646 19.4567 25.6252 19.4567 25.2786C19.4567 24.932 19.6058 24.5933 19.8657 24.3485ZM19.8657 29.9866C20.1256 29.7418 20.4861 29.6013 20.854 29.6013C21.2219 29.6013 21.5816 29.7418 21.8423 29.9866C22.1022 30.2314 22.2513 30.5708 22.2513 30.9174C22.2513 31.264 22.1022 31.6035 21.8423 31.8483C21.5815 32.0931 21.221 32.2335 20.854 32.2335C20.4861 32.2335 20.1264 32.0931 19.8657 31.8483C19.6058 31.6035 19.4567 31.264 19.4567 30.9174C19.4567 30.5708 19.6058 30.2314 19.8657 29.9866ZM19.8657 35.6255C20.1256 35.3807 20.4861 35.2403 20.854 35.2403C21.2219 35.2403 21.5816 35.3807 21.8423 35.6255C22.1022 35.8703 22.2513 36.2098 22.2513 36.5564C22.2513 36.9021 22.1022 37.2416 21.8423 37.4864C21.5815 37.7312 21.2219 37.8724 20.854 37.8724C20.4861 37.8724 20.1256 37.7312 19.8657 37.4864C19.6058 37.2416 19.4567 36.903 19.4567 36.5564C19.4567 36.2097 19.6058 35.8703 19.8657 35.6255ZM13.8786 18.7097C14.1395 18.4649 14.499 18.3245 14.867 18.3245C15.235 18.3245 15.5955 18.4649 15.8554 18.7097C16.1152 18.9545 16.2643 19.294 16.2643 19.6406C16.2643 19.9862 16.1152 20.3258 15.8554 20.5706C15.5955 20.8154 15.235 20.9566 14.867 20.9566C14.499 20.9566 14.1395 20.8154 13.8786 20.5706C13.6187 20.3258 13.4697 19.9863 13.4697 19.6406C13.4698 19.294 13.6187 18.9545 13.8786 18.7097ZM13.8797 24.3485C14.1395 24.1037 14.499 23.9625 14.8671 23.9625C15.235 23.9625 15.5955 24.1037 15.8554 24.3485C16.1153 24.5933 16.2644 24.9328 16.2644 25.2786C16.2644 25.6252 16.1153 25.9646 15.8554 26.2094C15.5946 26.4542 15.235 26.5947 14.8671 26.5947C14.5002 26.5947 14.1396 26.4542 13.8797 26.2094C13.6187 25.9646 13.4698 25.6252 13.4698 25.2786C13.4698 24.932 13.6187 24.5933 13.8797 24.3485ZM13.8797 29.9866C14.1395 29.7418 14.499 29.6013 14.8671 29.6013C15.235 29.6013 15.5955 29.7418 15.8554 29.9866C16.1153 30.2323 16.2644 30.5708 16.2644 30.9174C16.2644 31.264 16.1153 31.6027 15.8554 31.8483C15.5946 32.0931 15.235 32.2335 14.8671 32.2335C14.5002 32.2335 14.1396 32.0931 13.8797 31.8483C13.6187 31.6035 13.4698 31.264 13.4698 30.9174C13.4698 30.5708 13.6187 30.2314 13.8797 29.9866ZM13.8797 35.6255C14.1395 35.3807 14.499 35.2403 14.8671 35.2403C15.235 35.2403 15.5947 35.3807 15.8554 35.6255C16.1153 35.8703 16.2644 36.2098 16.2644 36.5564C16.2644 36.9021 16.1153 37.2416 15.8554 37.4864C15.5946 37.7312 15.235 37.8724 14.8671 37.8724C14.4991 37.8724 14.1396 37.7312 13.8797 37.4864C13.6187 37.2416 13.4698 36.903 13.4698 36.5564C13.4698 36.2097 13.6187 35.8703 13.8797 35.6255ZM7.8927 24.3485C8.15259 24.1037 8.5131 23.9625 8.88105 23.9625C9.24798 23.9625 9.60858 24.1037 9.86848 24.3485C10.1284 24.5933 10.2784 24.9319 10.2784 25.2786C10.2784 25.6252 10.1284 25.9646 9.86848 26.2094C9.60858 26.4542 9.24808 26.5947 8.88105 26.5947C8.5131 26.5947 8.15259 26.4542 7.8927 26.2094C7.6328 25.9646 7.48375 25.6252 7.48375 25.2786C7.48375 24.932 7.6328 24.5933 7.8927 24.3485ZM7.8927 29.9866C8.15259 29.7418 8.51217 29.6013 8.88022 29.6013C9.24808 29.6013 9.60858 29.7418 9.86848 29.9866C10.1284 30.2314 10.2775 30.5708 10.2775 30.9174C10.2775 31.264 10.1284 31.6035 9.86848 31.8483C9.60858 32.0931 9.24808 32.2335 8.88022 32.2335C8.51319 32.2335 8.15259 32.0931 7.8927 31.8483C7.6328 31.6035 7.48375 31.264 7.48375 30.9174C7.48375 30.5708 7.6328 30.2314 7.8927 29.9866ZM7.8927 35.6255C8.15259 35.3807 8.5131 35.2403 8.88022 35.2403C9.24808 35.2403 9.60858 35.3807 9.86848 35.6255C10.1284 35.8703 10.2784 36.2098 10.2784 36.5564C10.2784 36.9029 10.1284 37.2416 9.86848 37.4864C9.60858 37.7312 9.24808 37.8724 8.88022 37.8724C8.51319 37.8724 8.15259 37.7312 7.8927 37.4864C7.6328 37.2416 7.48292 36.9021 7.48292 36.5564C7.48282 36.2098 7.6328 35.8703 7.8927 35.6255Z" fill="url(#paint1_linear_1345_18457)"/>
<path d="M42.5554 2.81927H39.2176V1.31606C39.2176 0.589245 38.5919 0 37.8203 0C37.0485 0 36.423 0.589245 36.423 1.31606V2.81927H33.6284V1.31606C33.6284 0.589245 33.0026 0 32.2311 0C31.4593 0 30.8338 0.589245 30.8338 1.31606V2.81927H28.0392V1.31606C28.0392 0.589245 27.4134 0 26.6419 0C25.8701 0 25.2446 0.589245 25.2446 1.31606V2.81927H22.45V1.31606C22.45 0.589245 21.8242 0 21.0527 0C20.2809 0 19.6554 0.589245 19.6554 1.31606V2.81927H16.8608V1.31606C16.8608 0.589245 16.235 0 15.4635 0C14.6917 0 14.0662 0.589245 14.0662 1.31606V2.81927H11.2716V1.31606C11.2716 0.589245 10.6458 0 9.87426 0C9.10248 0 8.47695 0.589245 8.47695 1.31606V2.81927H5.1389C2.30527 2.81927 0 4.9906 0 7.65948V11.2772H47.6945V7.65948C47.6945 4.9906 45.3892 2.81927 42.5554 2.81927Z" fill="url(#paint2_linear_1345_18457)"/>
<defs>
<linearGradient id="paint0_linear_1345_18457" x1="33.8916" y1="29.6218" x2="47.1719" y2="31.2926" gradientUnits="userSpaceOnUse">
<stop stop-color="#8800E1"/>
<stop offset="1" stop-color="#4A00E0" stop-opacity="0.97"/>
</linearGradient>
<linearGradient id="paint1_linear_1345_18457" x1="13.0621" y1="17.4145" x2="54.1255" y2="24.8977" gradientUnits="userSpaceOnUse">
<stop stop-color="#8800E1"/>
<stop offset="1" stop-color="#4A00E0" stop-opacity="0.97"/>
</linearGradient>
<linearGradient id="paint2_linear_1345_18457" x1="13.0621" y1="1.27506" x2="46.9726" y2="18.2693" gradientUnits="userSpaceOnUse">
<stop stop-color="#8800E1"/>
<stop offset="1" stop-color="#4A00E0" stop-opacity="0.97"/>
</linearGradient>
</defs>
</svg>
