<svg width="54" height="52" viewBox="0 0 54 52" fill="none" xmlns="http://www.w3.org/2000/svg">
<g clip-path="url(#clip0_1345_18507)">
<rect width="56" height="52" fill="white"/>
<mask id="mask0_1345_18507" style="mask-type:alpha" maskUnits="userSpaceOnUse" x="0" y="0" width="57" height="53">
<path fill-rule="evenodd" clip-rule="evenodd" d="M43.0817 0.00177002C40.5258 0.00177002 38.0272 0.705549 35.902 2.02411C33.7768 3.34267 32.1205 5.21679 31.1423 7.40948C30.1642 9.60217 29.9083 12.0149 30.4069 14.3427C30.9056 16.6704 32.1364 18.8086 33.9437 20.4868C35.751 22.165 38.0537 23.3079 40.5606 23.7709C43.0674 24.2339 45.6658 23.9963 48.0272 23.0881C50.3886 22.1798 52.4069 20.6418 53.8269 18.6684C55.2469 16.695 56.0048 14.375 56.0048 12.0016C56.001 8.82014 54.6383 5.76996 52.2156 3.52031C49.7928 1.27065 46.508 0.0052639 43.0817 0.00177002ZM43.0817 20.0015C41.3778 20.0015 39.7121 19.5324 38.2953 18.6533C36.8785 17.7743 35.7742 16.5249 35.1221 15.0631C34.4701 13.6013 34.2994 11.9928 34.6319 10.4409C34.9643 8.8891 35.7848 7.46365 36.9897 6.34484C38.1946 5.22603 39.7297 4.46412 41.4009 4.15544C43.0722 3.84676 44.8044 4.00519 46.3787 4.61068C47.9529 5.21617 49.2985 6.24154 50.2452 7.55712C51.1918 8.8727 51.6971 10.4194 51.6971 12.0016C51.6947 14.1227 50.7863 16.1562 49.1711 17.656C47.5559 19.1558 45.3659 19.9993 43.0817 20.0015ZM2.03455 22.1116C0.733429 20.9033 0.00172404 19.265 1.36639e-05 17.5562V6.44714C0.00172404 4.73839 0.733429 3.10007 2.03455 1.89171C3.33568 0.683351 5.09993 0.00366439 6.94014 0.00181107H18.9061C20.7463 0.00366439 22.5105 0.683351 23.8117 1.89171C25.1128 3.10007 25.8445 4.73839 25.8462 6.44714V17.5562C25.8445 19.265 25.1128 20.9033 23.8117 22.1116C22.5105 23.32 20.7463 23.9997 18.9061 24.0015H6.94014C5.09993 23.9997 3.33568 23.32 2.03455 22.1116ZM5.07949 4.71911C4.586 5.17753 4.30845 5.79897 4.30771 6.44714V17.5562C4.30845 18.2044 4.586 18.8258 5.07949 19.2842C5.57297 19.7427 6.24211 20.0006 6.94014 20.0016H18.9061C19.6041 20.0006 20.2732 19.7427 20.7667 19.2842C21.2602 18.8258 21.5378 18.2044 21.5385 17.5562V6.44714C21.5378 5.79897 21.2602 5.17753 20.7667 4.71911C20.2732 4.26069 19.6041 4.00272 18.9061 4.00177H6.94014C6.24211 4.00272 5.57297 4.26069 5.07949 4.71911ZM2.03454 50.112C0.733415 48.9036 0.00171037 47.2653 0 45.5566V34.4475C0.00171037 32.7387 0.733415 31.1004 2.03454 29.8921C3.33567 28.6837 5.09992 28.004 6.94013 28.0022H18.906C20.7463 28.004 22.5105 28.6837 23.8116 29.8921C25.1128 31.1004 25.8445 32.7387 25.8462 34.4475V45.5566C25.8445 47.2653 25.1128 48.9036 23.8116 50.112C22.5105 51.3203 20.7463 52 18.906 52.0019H6.94013C5.09992 52 3.33567 51.3203 2.03454 50.112ZM5.07947 32.7195C4.58599 33.1779 4.30844 33.7993 4.3077 34.4475V45.5566C4.30844 46.2047 4.58599 46.8262 5.07947 47.2846C5.57296 47.743 6.24209 48.001 6.94013 48.0019H18.906C19.6041 48.001 20.2732 47.743 20.7667 47.2846C21.2602 46.8262 21.5377 46.2047 21.5385 45.5566V34.4475C21.5377 33.7993 21.2602 33.1779 20.7667 32.7195C20.2732 32.261 19.6041 32.0031 18.906 32.0021H6.94013C6.24209 32.0031 5.57296 32.261 5.07947 32.7195ZM32.1932 29.8921C33.4943 28.6837 35.2585 28.004 37.0988 28.0022H49.0647C50.9049 28.004 52.6691 28.6837 53.9703 29.8921C55.2714 31.1004 56.0031 32.7387 56.0048 34.4475V45.5566C56.0031 47.2653 55.2714 48.9036 53.9703 50.112C52.6691 51.3203 50.9049 52 49.0647 52.0019H37.0988C35.2585 52 33.4943 51.3203 32.1932 50.112C30.892 48.9036 30.1603 47.2653 30.1586 45.5566V34.4475C30.1603 32.7387 30.892 31.1004 32.1932 29.8921ZM51.6971 45.5566V34.4475C51.6964 33.7993 51.4188 33.1779 50.9253 32.7195C50.4318 32.261 49.7627 32.0031 49.0647 32.0021H37.0988C36.4007 32.0031 35.7316 32.261 35.2381 32.7195C34.7446 33.1779 34.4671 33.7993 34.4663 34.4475V45.5566C34.4671 46.2047 34.7446 46.8262 35.2381 47.2846C35.7316 47.743 36.4007 48.001 37.0988 48.0019H49.0647C49.7627 48.001 50.4318 47.743 50.9253 47.2846C51.4188 46.8262 51.6964 46.2047 51.6971 45.5566Z" fill="#BDBDBD"/>
</mask>
<g mask="url(#mask0_1345_18507)">
<rect x="-7.21094" y="-8.5744" width="72.2086" height="71.305" fill="url(#paint0_linear_1345_18507)"/>
</g>
</g>
<defs>
<linearGradient id="paint0_linear_1345_18507" x1="12.5648" y1="-0.512289" x2="75.8869" y2="7.08614" gradientUnits="userSpaceOnUse">
<stop stop-color="#8800E1"/>
<stop offset="1" stop-color="#4A00E0" stop-opacity="0.97"/>
</linearGradient>
<clipPath id="clip0_1345_18507">
<rect width="56" height="52" fill="white"/>
</clipPath>
</defs>
</svg>
