<svg width="63" height="63" viewBox="0 0 63 63" fill="none" xmlns="http://www.w3.org/2000/svg">
<path fill-rule="evenodd" clip-rule="evenodd" d="M39.3508 10C39.5879 10 39.8086 10.1257 39.9354 10.3332C40.0626 10.5406 40.0779 10.8012 39.976 11.0232L34.2162 23.6167H44.1949C44.351 23.6167 44.5025 23.6714 44.6248 23.7719C44.9243 24.018 44.9744 24.469 44.7368 24.7791L23.2845 52.7291C23.0961 52.9747 22.7753 53.0649 22.4928 52.9516C22.1363 52.8087 21.9593 52.3935 22.0972 52.0244L30.0371 30.7833H22.0506C22.0085 30.7833 21.9665 30.7793 21.9252 30.7714C21.5937 30.7081 21.3612 30.4098 21.3585 30.0732H21.3585L21.3585 30.0731C21.3582 30.0281 21.3619 29.9824 21.3701 29.9365L24.8301 10.5865C24.8907 10.2466 25.1769 9.99991 25.5107 10H39.3508ZM17.3019 31.0943H10V31.9057H17.3019V31.0943ZM45.6981 31.0943H53V31.9057H45.6981V31.0943ZM52.0455 10.8113L47.3208 15.5361L48.2752 16.4906L53 11.7658L52.0455 10.8113ZM10 51.2342L14.7248 46.5094L15.6792 47.4639L10.9545 52.1887L10 51.2342ZM48.2752 46.5094L47.3208 47.4639L52.0455 52.1887L53 51.2342L48.2752 46.5094ZM10 11.7658L10.9545 10.8113L15.6792 15.5361L14.7248 16.4906L10 11.7658Z" fill="url(#paint0_linear_1345_18461)"/>
<defs>
<linearGradient id="paint0_linear_1345_18461" x1="21.7764" y1="14.8618" x2="59.4979" y2="19.3316" gradientUnits="userSpaceOnUse">
<stop stop-color="#8800E1"/>
<stop offset="1" stop-color="#4A00E0" stop-opacity="0.97"/>
</linearGradient>
</defs>
</svg>
