<svg width="62" height="62" viewBox="0 0 62 62" fill="none" xmlns="http://www.w3.org/2000/svg">
<path d="M30.6411 54.8068C24.4252 54.8265 18.4599 52.3577 14.0758 47.9511L13.7555 47.5971C4.99817 38.5614 4.99817 24.2046 13.7555 15.169V15.1627L14.0758 14.8149C23.1808 5.66637 37.9783 5.63097 47.1269 14.736C47.1532 14.7623 47.1795 14.7885 47.2058 14.8149L47.5261 15.169C56.2834 24.2046 56.2834 38.5614 47.5261 47.5971V47.6033L47.2058 47.9511C42.822 52.3576 36.8569 54.8264 30.6411 54.8068ZM15.9309 46.7247C24.1755 54.6173 37.1795 54.5971 45.3995 46.679L45.6707 46.3833C53.9554 38.1632 54.0077 24.7834 45.7876 16.4987C45.7488 16.4595 45.7098 16.4205 45.6707 16.3817L45.3503 16.0385C37.1214 8.10619 24.0854 8.12642 15.8813 16.0841L15.6101 16.3798C7.32532 24.5999 7.273 37.9798 15.4931 46.2644C15.5319 46.3036 15.5709 46.3426 15.6101 46.3814L15.9309 46.7247Z" fill="url(#paint0_linear_1345_18487)"/>
<path d="M30.6434 23.2374C24.428 23.2578 18.4627 20.7901 14.0781 16.3846L13.7578 16.066V15.1627L14.0781 14.8149C23.1832 5.66637 37.9806 5.63097 47.1292 14.736C47.1556 14.7623 47.1818 14.7885 47.2081 14.8149L47.5284 15.1335V16.0641L47.2082 16.3828C42.8241 20.7889 36.859 23.2573 30.6434 23.2374ZM16.4069 15.5986C24.5 22.8837 36.787 22.8837 44.8801 15.5986C36.8022 8.27394 24.4848 8.27394 16.4069 15.5986Z" fill="url(#paint1_linear_1345_18487)"/>
<path d="M30.6434 54.8069C24.4275 54.8266 18.4622 52.3577 14.0781 47.9512L13.7578 47.6327V46.7346L14.0747 46.3867C23.1778 37.2362 37.9752 37.1979 47.1258 46.3009C47.1545 46.3295 47.183 46.3581 47.2116 46.3867L47.5285 46.7053V47.6331L47.2082 47.9517C42.8242 52.358 36.8591 54.8266 30.6434 54.8069ZM16.4041 47.164C24.4981 54.453 36.7895 54.453 44.8835 47.164C36.8015 39.8439 24.4861 39.8439 16.4041 47.164Z" fill="url(#paint2_linear_1345_18487)"/>
<path d="M30.6426 54.8142C23.7674 54.8142 18.3789 44.5177 18.3789 31.376C18.3789 18.2344 23.7674 7.93896 30.6426 7.93896C37.5177 7.93896 42.9062 18.2355 42.9062 31.3755C42.9062 44.5155 37.5178 54.8142 30.6426 54.8142ZM30.6426 10.1144C25.1723 10.1144 20.5537 19.8503 20.5537 31.376C20.5537 42.9017 25.1723 52.6388 30.6426 52.6388C36.1129 52.6388 40.7314 42.9018 40.7314 31.376C40.7314 19.8502 36.1129 10.1144 30.6426 10.1144Z" fill="url(#paint3_linear_1345_18487)"/>
<path d="M8.29688 30.282H53.0116V32.4574H8.29688V30.282Z" fill="url(#paint4_linear_1345_18487)"/>
<path d="M29.5625 9.01025H31.738V53.725H29.5625V9.01025Z" fill="url(#paint5_linear_1345_18487)"/>
<defs>
<linearGradient id="paint0_linear_1345_18487" x1="20.0338" y1="13.2304" x2="61.1816" y2="18.1093" gradientUnits="userSpaceOnUse">
<stop stop-color="#8800E1"/>
<stop offset="1" stop-color="#4A00E0" stop-opacity="0.97"/>
</linearGradient>
<linearGradient id="paint1_linear_1345_18487" x1="23.0065" y1="9.66101" x2="51.1259" y2="17.012" gradientUnits="userSpaceOnUse">
<stop stop-color="#8800E1"/>
<stop offset="1" stop-color="#4A00E0" stop-opacity="0.97"/>
</linearGradient>
<linearGradient id="paint2_linear_1345_18487" x1="23.0066" y1="41.2295" x2="51.1262" y2="48.5801" gradientUnits="userSpaceOnUse">
<stop stop-color="#8800E1"/>
<stop offset="1" stop-color="#4A00E0" stop-opacity="0.97"/>
</linearGradient>
<linearGradient id="paint3_linear_1345_18487" x1="25.0962" y1="13.2389" x2="46.8312" y2="14.5865" gradientUnits="userSpaceOnUse">
<stop stop-color="#8800E1"/>
<stop offset="1" stop-color="#4A00E0" stop-opacity="0.97"/>
</linearGradient>
<linearGradient id="paint4_linear_1345_18487" x1="20.5429" y1="30.528" x2="26.281" y2="44.5035" gradientUnits="userSpaceOnUse">
<stop stop-color="#8800E1"/>
<stop offset="1" stop-color="#4A00E0" stop-opacity="0.97"/>
</linearGradient>
<linearGradient id="paint5_linear_1345_18487" x1="30.1583" y1="14.0659" x2="32.0934" y2="14.0771" gradientUnits="userSpaceOnUse">
<stop stop-color="#8800E1"/>
<stop offset="1" stop-color="#4A00E0" stop-opacity="0.97"/>
</linearGradient>
</defs>
</svg>
