<svg width="556" height="103" viewBox="0 0 556 103" fill="none" xmlns="http://www.w3.org/2000/svg">
<g filter="url(#filter0_ddd_1312_19317)">
<rect x="6.00195" y="5" width="543.662" height="91.7601" rx="2.7597" fill="#FFC700"/>
</g>
<g clip-path="url(#clip0_1312_19317)">
<path d="M88.7069 77.395C88.3874 77.395 88.0681 77.2733 87.8245 77.0297L84.4612 73.6664C84.2271 73.4323 84.0957 73.1151 84.0957 72.7843C84.0957 72.4533 84.2271 72.1361 84.4612 71.9019L87.8245 68.5386C88.0584 68.305 88.3759 68.1731 88.7069 68.1731C89.0374 68.1731 89.3549 68.3045 89.5888 68.5386L92.9521 71.9019C93.1862 72.1361 93.3176 72.4533 93.3176 72.7843C93.3176 73.1151 93.1862 73.4325 92.9521 73.6664L89.5888 77.0297C89.3452 77.2733 89.0259 77.395 88.7069 77.395Z" fill="#FF9B04"/>
<path d="M70.6576 19.0813C70.3386 19.0813 70.0194 18.9596 69.7758 18.7158L66.4125 15.3524C65.925 14.8652 65.925 14.0754 66.4125 13.5882L69.7758 10.2249C70.0097 9.99076 70.3271 9.85938 70.6576 9.85938C70.9887 9.85938 71.3061 9.99076 71.54 10.2249L74.9033 13.5882C75.1375 13.8218 75.2688 14.1396 75.2688 14.4701C75.2688 14.8011 75.1375 15.1186 74.9033 15.3522L71.54 18.7158C71.2964 18.9596 70.9769 19.0813 70.6576 19.0813Z" fill="#FF9B04"/>
<path d="M48.2807 11.5975C46.2713 11.5975 44.6367 9.96288 44.6367 7.95378C44.6367 5.94443 46.2713 4.31006 48.2807 4.31006C50.2898 4.31006 51.9239 5.94443 51.9239 7.95378C51.9239 9.96288 50.2898 11.5975 48.2807 11.5975Z" fill="#FF9B04"/>
<path d="M82.5354 44.9197C78.8027 44.9197 75.7656 41.8827 75.7656 38.1499C75.7656 34.4167 78.8027 31.3801 82.5354 31.3801C86.2682 31.3801 89.3048 34.4167 89.3048 38.1499C89.3048 41.8827 86.2682 44.9197 82.5354 44.9197V44.9197Z" fill="#FF9B04"/>
<path d="M112.42 63.7262C113.073 63.7262 113.698 63.1526 113.668 62.4786C113.638 61.8028 113.12 61.231 112.42 61.231C111.768 61.231 111.143 61.8048 111.173 62.4786C111.203 63.1544 111.721 63.7262 112.42 63.7262Z" fill="#FF9B04"/>
<path d="M113.536 68.1254C114.188 68.1254 114.814 67.5515 114.783 66.8778C114.753 66.2017 114.235 65.6301 113.536 65.6301C112.883 65.6301 112.258 66.2037 112.288 66.8778C112.319 67.5536 112.836 68.1254 113.536 68.1254V68.1254Z" fill="#FF9B04"/>
<path d="M116.817 64.8415C117.47 64.8415 118.095 64.2674 118.065 63.5936C118.034 62.9177 117.516 62.3462 116.817 62.3462C116.164 62.3462 115.539 62.9198 115.569 63.5936C115.6 64.2697 116.118 64.8415 116.817 64.8415V64.8415Z" fill="#FF9B04"/>
<path d="M31.1957 78.9989C31.8483 78.9989 32.4735 78.4251 32.4433 77.7513C32.4129 77.0755 31.8951 76.5037 31.1957 76.5037C30.5434 76.5037 29.9179 77.0778 29.9483 77.7513C29.9785 78.4274 30.4961 78.9989 31.1957 78.9989V78.9989Z" fill="#FF9B04"/>
<path d="M32.3134 83.3981C32.9659 83.3981 33.5912 82.8242 33.5608 82.1505C33.5306 81.4744 33.0127 80.9031 32.3134 80.9031C31.6605 80.9031 31.0356 81.4767 31.0655 82.1505C31.0959 82.8265 31.6138 83.3981 32.3134 83.3981Z" fill="#FF9B04"/>
<path d="M35.5941 80.1139C36.247 80.1139 36.8719 79.5403 36.842 78.8665C36.8119 78.1904 36.294 77.6189 35.5941 77.6189C34.9418 77.6189 34.3164 78.1925 34.3468 78.8665C34.3769 79.5424 34.8948 80.1139 35.5941 80.1139Z" fill="#FF9B04"/>
<path d="M16.5073 6.83523C18.0881 6.83523 19.6033 5.44573 19.5297 3.8135C19.4566 2.17569 18.2021 0.790527 16.5073 0.790527C14.9265 0.790527 13.4119 2.18127 13.485 3.8135C13.5586 5.45006 14.8132 6.83523 16.5073 6.83523Z" fill="#FF9B04"/>
<path d="M5.85302 9.53689C7.43323 9.53689 8.94843 8.14615 8.87475 6.51392C8.80168 4.87735 7.54717 3.49219 5.85302 3.49219C4.27218 3.49219 2.7576 4.88169 2.83067 6.51392C2.90435 8.15172 4.15887 9.53689 5.85302 9.53689Z" fill="#FF9B04"/>
<path d="M13.8075 17.4923C15.389 17.4923 16.9029 16.1028 16.8299 14.4706C16.7568 12.8328 15.5017 11.4482 13.8075 11.4482C12.2273 11.4482 10.7121 12.8384 10.7858 14.4706C10.8589 16.1084 12.1134 17.4923 13.8075 17.4923Z" fill="#FF9B04"/>
<path d="M112.88 52.9645C112.635 52.3545 111.942 52.0583 111.332 52.3032C110.031 52.826 108.275 52.6489 106.749 51.842C106.187 51.5449 105.683 51.1822 105.253 50.7712C106.407 50.2958 107.313 49.496 107.871 48.4413L107.884 48.4157C108.335 47.5634 108.472 46.6009 108.268 45.7052C108.053 44.7574 107.461 43.9666 106.645 43.5348C104.999 42.6636 102.876 43.4361 101.913 45.2569L101.899 45.2823C101.341 46.337 101.19 47.5361 101.446 48.7569C100.864 48.633 100.281 48.4203 99.7192 48.1234C99.2904 47.8966 98.5369 47.2563 97.9664 46.6341C97.5215 46.1494 96.7687 46.1167 96.2843 46.5614C95.7999 47.0056 95.767 47.7588 96.2116 48.2432C96.8012 48.8864 97.7822 49.7923 98.6062 50.2282C99.8692 50.8966 101.234 51.251 102.556 51.2654C103.311 52.3496 104.372 53.2782 105.635 53.9468C106.932 54.6327 108.338 54.9832 109.678 54.9832C110.571 54.9832 111.435 54.8278 112.219 54.5131C112.829 54.2678 113.125 53.5745 112.88 52.9645V52.9645ZM104.004 46.3955L104.018 46.3702C104.283 45.8687 104.757 45.555 105.18 45.555C105.304 45.555 105.423 45.5821 105.532 45.6394C105.808 45.7857 105.91 46.0738 105.946 46.2326C106.023 46.5685 105.962 46.9582 105.78 47.3024L105.766 47.3278C105.412 47.9976 104.759 48.4825 103.902 48.7203C103.617 47.8781 103.65 47.0653 104.004 46.3955Z" fill="#FF9B04"/>
<path d="M37.2301 92.4278C37.4604 92.2414 38.0008 91.9719 38.4871 91.8008C38.866 91.6676 39.065 91.2527 38.9317 90.8737C38.7985 90.4951 38.3834 90.2961 38.0046 90.4293C37.5018 90.6062 36.7577 90.9397 36.3156 91.2976C35.637 91.8465 35.1107 92.5278 34.7854 93.2664C33.9954 93.4304 33.2192 93.8032 32.5408 94.3521C31.3806 95.2908 30.6712 96.6221 30.6428 97.9132C30.6338 98.3144 30.9521 98.647 31.3535 98.6558C31.3592 98.656 31.3645 98.656 31.3699 98.656C31.764 98.656 32.0877 98.3408 32.0965 97.945C32.1152 97.0892 32.6359 96.1455 33.4553 95.4824C33.7567 95.2384 34.0813 95.0424 34.4154 94.8997C34.4058 95.6616 34.6373 96.3622 35.0961 96.9294L35.1066 96.9422C35.8977 97.92 37.2607 98.1332 38.1448 97.4178C38.583 97.0631 38.8444 96.5196 38.8621 95.9264C38.8788 95.3659 38.6838 94.8051 38.3133 94.3471L38.3024 94.3337C37.8439 93.7671 37.207 93.3946 36.4599 93.2454C36.6692 92.9484 36.9287 92.6718 37.2301 92.4278ZM37.1722 95.2485L37.1832 95.2618C37.3328 95.4468 37.415 95.673 37.4086 95.8831C37.4057 95.9827 37.3786 96.1674 37.2301 96.2876C36.9736 96.4951 36.5188 96.3761 36.2362 96.0269L36.2257 96.0141C35.9346 95.6543 35.8193 95.1712 35.8913 94.6328C36.4327 94.6748 36.881 94.8885 37.1722 95.2485Z" fill="#FF9B04"/>
<path d="M23.9455 23.7469C21.5275 23.9388 19.3806 25.2417 18.0307 27.2515C17.3503 28.2648 16.9881 29.4155 16.8508 30.6195C16.7051 31.9031 17.0977 36.0146 15.229 36.2835C14.5843 36.3763 13.9502 36.831 13.9816 37.5312C14.0105 38.1753 14.5312 38.8179 15.229 38.7788C16.5778 38.7026 17.6575 37.946 18.3732 36.8234C19.0981 35.6857 19.2658 34.3434 19.2814 33.0225C19.2965 31.747 19.2835 30.5701 19.7093 29.3529C20.436 27.7433 22.0021 26.5412 23.7451 26.2554C24.4568 26.2135 25.2284 25.8163 25.1929 24.9945C25.165 24.3626 24.6423 23.6914 23.9455 23.7469V23.7469Z" fill="#FF9B04"/>
<path fill-rule="evenodd" clip-rule="evenodd" d="M106.181 93.5744L104.717 91.6693L102.511 91.8311L102.277 89.6321L100.398 88.4665L101.5 86.5496L100.666 84.5021L102.684 83.5994L103.212 81.4518L105.375 81.9083L107.082 80.2172L108.547 82.1223L110.752 81.9605L110.987 84.1595L112.866 85.3251L111.763 87.242L112.598 89.2895L110.58 90.1922L110.052 92.3398L107.889 91.8833L106.181 93.5744ZM108.339 84.8831L108.34 84.8825L108.856 85.4731L104.924 88.908L104.408 88.3174L106.668 86.3432L106.668 86.3423L108.339 84.8826L108.339 84.8831ZM106.921 88.4873C106.964 87.84 107.527 87.3489 108.174 87.3925C108.821 87.4362 109.312 87.9984 109.269 88.6457C109.225 89.2931 108.663 89.7842 108.016 89.7405C107.368 89.6968 106.877 89.1347 106.921 88.4873ZM107.703 88.5401C107.689 88.7559 107.853 88.9433 108.068 88.9579C108.284 88.9724 108.472 88.8087 108.486 88.5929C108.501 88.3771 108.337 88.1898 108.121 88.1752C107.905 88.1606 107.718 88.3244 107.703 88.5401ZM105.252 84.0506C104.605 84.0069 104.043 84.498 103.999 85.1454C103.955 85.7927 104.446 86.3549 105.094 86.3985C105.741 86.4422 106.303 85.9511 106.347 85.3037C106.391 84.6564 105.899 84.0942 105.252 84.0506ZM105.147 85.6159C104.931 85.6013 104.767 85.4139 104.782 85.1981C104.796 84.9824 104.984 84.8187 105.199 84.8332C105.415 84.8478 105.579 85.0352 105.564 85.2509C105.55 85.4667 105.362 85.6304 105.147 85.6159Z" fill="#FF9B04"/>
<path fill-rule="evenodd" clip-rule="evenodd" d="M42.706 37.1315L40.2922 34.3947L36.9676 34.8653L36.3871 31.5575L33.4219 29.9836L34.8958 26.9666L33.4219 23.9497L36.3871 22.3758L36.9676 19.068L40.2922 19.5385L42.706 16.8018L45.1198 19.5385L48.4444 19.068L49.0249 22.3758L51.9901 23.9497L50.5162 26.9666L51.9901 29.9836L49.0249 31.5575L48.4444 34.8653L45.1198 34.3947L42.706 37.1315ZM39.4805 29.3475L45.0866 23.7413L45.0872 23.7419L45.0875 23.7417L45.9297 24.5839L42.7051 27.8085V27.807L40.3226 30.1896L39.4805 29.3475ZM43.3008 29.3485C43.3008 28.3632 44.1023 27.5617 45.0876 27.5617C46.0729 27.5617 46.8744 28.3632 46.8744 29.3485C46.8744 30.3338 46.0729 31.1353 45.0876 31.1353C44.1023 31.1353 43.3008 30.3338 43.3008 29.3485ZM44.492 29.3485C44.492 29.6769 44.7592 29.9441 45.0876 29.9441C45.416 29.9441 45.6832 29.6769 45.6832 29.3485C45.6832 29.0201 45.416 28.7529 45.0876 28.7529C44.7592 28.7529 44.492 29.0201 44.492 29.3485ZM40.3219 22.7967C39.3367 22.7967 38.5352 23.5982 38.5352 24.5835C38.5352 25.5688 39.3367 26.3703 40.3219 26.3703C41.3072 26.3703 42.1087 25.5688 42.1087 24.5835C42.1087 23.5982 41.3072 22.7967 40.3219 22.7967ZM40.3219 25.1791C39.9935 25.1791 39.7264 24.9119 39.7264 24.5835C39.7264 24.2551 39.9935 23.9879 40.3219 23.9879C40.6504 23.9879 40.9175 24.2551 40.9175 24.5835C40.9175 24.9119 40.6504 25.1791 40.3219 25.1791Z" fill="#FF9B04"/>
<g clip-path="url(#clip1_1312_19317)">
<path d="M99.4038 16.6739L99.2701 16.3234C99.1932 16.1225 99.0747 15.9401 98.9222 15.7883C98.7698 15.6365 98.5869 15.5187 98.3856 15.4427C98.1844 15.3667 97.9693 15.3343 97.7546 15.3474C97.5399 15.3606 97.3303 15.4191 97.1399 15.5191C96.9935 15.5959 96.8239 15.6161 96.6636 15.5758C96.5032 15.5356 96.3633 15.4377 96.2705 15.3009C96.2188 15.2248 96.1832 15.1388 96.1661 15.0484C96.1489 14.9579 96.1505 14.8649 96.1708 14.7751C96.1911 14.6853 96.2297 14.6006 96.2841 14.5264C96.3385 14.4521 96.4075 14.3898 96.487 14.3433L96.711 14.212C97.1218 13.9711 97.5869 13.8382 98.0629 13.8257C98.5389 13.8132 99.0104 13.9215 99.4332 14.1405C99.8368 14.3496 100.184 14.6531 100.445 15.0252L103.865 19.9043C103.905 19.9616 103.927 20.0299 103.927 20.1C103.928 20.1702 103.907 20.2387 103.867 20.2964C103.827 20.354 103.77 20.398 103.704 20.4224C103.639 20.4468 103.567 20.4504 103.499 20.4327L103.45 20.42L99.4038 16.6739Z" fill="#FF9B04"/>
<path d="M100.096 16.2084C99.9005 15.6401 99.5031 15.1634 98.9793 14.8689C98.9571 14.8566 98.9349 14.845 98.9126 14.8347C98.4898 14.6157 98.0184 14.5073 97.5424 14.5198C97.0664 14.5322 96.6013 14.665 96.1905 14.9058L96.1563 14.9263C96.1556 15.0612 96.1958 15.193 96.2715 15.3046C96.3643 15.4414 96.5043 15.5393 96.6648 15.5795C96.8252 15.6197 96.9948 15.5994 97.1412 15.5224C97.3316 15.4224 97.5412 15.3639 97.7559 15.3508C97.9706 15.3376 98.1857 15.3701 98.3869 15.4461C98.5882 15.5221 98.7711 15.6399 98.9235 15.7917C99.076 15.9435 99.1945 16.1258 99.2714 16.3268L99.4051 16.6773L100.574 17.5726L100.096 16.2084Z" fill="#FF9B04"/>
<path d="M99.9226 16.2299C99.6622 15.8578 99.3156 15.5541 98.9124 15.3449C98.4895 15.126 98.0181 15.0178 97.5421 15.0303C97.0661 15.0428 96.601 15.1756 96.1902 15.4164L95.9655 15.548C95.8863 15.5945 95.8175 15.6568 95.7633 15.7309C95.7091 15.8051 95.6707 15.8895 95.6504 15.9791C95.6302 16.0687 95.6285 16.1615 95.6455 16.2518C95.6625 16.342 95.6979 16.4278 95.7494 16.5039C95.8423 16.6404 95.9822 16.7381 96.1424 16.7782C96.3027 16.8183 96.4721 16.7981 96.6184 16.7214C96.8088 16.6213 97.0183 16.5628 97.233 16.5496C97.4477 16.5364 97.6628 16.5689 97.8641 16.6449C98.0653 16.7209 98.2482 16.8387 98.4006 16.9905C98.553 17.1423 98.6715 17.3248 98.7482 17.5257L98.8823 17.8762C99.0447 18.3022 99.0444 18.7732 98.8813 19.1989C98.7183 19.6247 98.404 19.9754 97.9986 20.1839L96.0021 21.1907C95.8812 21.2529 95.7816 21.3499 95.7163 21.4692C95.651 21.5885 95.623 21.7246 95.6359 21.86C95.6721 22.2427 96.0397 22.5193 96.4224 22.4715L98.582 22.1979C98.9694 22.149 99.3628 22.1958 99.7279 22.3341C100.093 22.4724 100.419 22.698 100.676 22.9913L101.4 23.8144L103.461 26.3126C103.478 26.3332 103.5 26.3485 103.526 26.3565C103.551 26.3645 103.578 26.3649 103.604 26.3576C103.63 26.3503 103.653 26.3357 103.67 26.3156C103.687 26.2954 103.699 26.2706 103.702 26.2442L104.382 20.7978C104.392 20.7134 104.371 20.6281 104.323 20.5584L103.634 19.5766L99.9226 16.2299Z" fill="#FF9B04"/>
<path d="M93.199 12.9279C93.1507 12.9279 93.1035 12.9143 93.0626 12.8888C93.0217 12.8632 92.9888 12.8266 92.9678 12.7832L92.3204 11.4495C92.3051 11.4191 92.296 11.3859 92.2936 11.352C92.2912 11.318 92.2956 11.2839 92.3065 11.2517C92.3174 11.2194 92.3346 11.1897 92.3571 11.1642C92.3796 11.1386 92.407 11.1178 92.4376 11.1029C92.4682 11.0881 92.5015 11.0794 92.5355 11.0775C92.5695 11.0757 92.6035 11.0805 92.6356 11.0919C92.6677 11.1033 92.6972 11.1209 92.7224 11.1438C92.7476 11.1666 92.768 11.1943 92.7824 11.2251L93.4298 12.5589C93.4487 12.598 93.4574 12.6413 93.455 12.6847C93.4526 12.7281 93.4393 12.7702 93.4162 12.8071C93.3932 12.8439 93.3612 12.8743 93.3232 12.8955C93.2852 12.9166 93.2424 12.9277 93.199 12.9279V12.9279Z" fill="#FF9B04"/>
<path d="M95.6322 12.4144C95.5641 12.4144 95.4987 12.3873 95.4506 12.3391C95.4024 12.291 95.3753 12.2256 95.3753 12.1575V10.8238C95.3735 10.789 95.3788 10.7542 95.3909 10.7215C95.403 10.6888 95.4216 10.6589 95.4456 10.6337C95.4696 10.6084 95.4985 10.5883 95.5305 10.5745C95.5625 10.5608 95.597 10.5537 95.6318 10.5537C95.6667 10.5537 95.7012 10.5608 95.7332 10.5745C95.7652 10.5883 95.7941 10.6084 95.8181 10.6337C95.8421 10.6589 95.8607 10.6888 95.8727 10.7215C95.8848 10.7542 95.8901 10.789 95.8883 10.8238V12.1575C95.8883 12.2255 95.8614 12.2907 95.8133 12.3389C95.7653 12.387 95.7002 12.4142 95.6322 12.4144V12.4144Z" fill="#FF9B04"/>
<path d="M98.067 12.9279C98.0235 12.9277 97.9808 12.9166 97.9428 12.8955C97.9048 12.8743 97.8728 12.8439 97.8497 12.8071C97.8266 12.7702 97.8133 12.7281 97.8109 12.6847C97.8086 12.6413 97.8172 12.598 97.8361 12.5589L98.4835 11.2251C98.4983 11.1947 98.519 11.1676 98.5443 11.1452C98.5696 11.1228 98.5991 11.1056 98.6311 11.0946C98.663 11.0836 98.6968 11.079 98.7306 11.081C98.7643 11.0831 98.7973 11.0918 98.8277 11.1066C98.8581 11.1214 98.8853 11.1421 98.9077 11.1674C98.9301 11.1927 98.9472 11.2222 98.9582 11.2542C98.9693 11.2861 98.9739 11.32 98.9718 11.3537C98.9697 11.3874 98.961 11.4204 98.9462 11.4508L98.2988 12.7846C98.2775 12.8278 98.2445 12.8642 98.2035 12.8895C98.1625 12.9148 98.1152 12.9281 98.067 12.9279V12.9279Z" fill="#FF9B04"/>
<path d="M100.846 13.8017C100.807 13.8018 100.769 13.7929 100.734 13.7757C100.673 13.7461 100.626 13.6934 100.604 13.6293C100.582 13.5652 100.586 13.4949 100.615 13.4337L100.974 12.6961C100.988 12.6652 101.008 12.6376 101.034 12.6147C101.059 12.5918 101.088 12.5742 101.12 12.5628C101.153 12.5515 101.187 12.5466 101.221 12.5485C101.255 12.5504 101.288 12.559 101.318 12.5739C101.349 12.5888 101.376 12.6096 101.399 12.6351C101.421 12.6606 101.439 12.6904 101.45 12.7226C101.46 12.7549 101.465 12.789 101.462 12.8229C101.46 12.8569 101.451 12.89 101.436 12.9204L101.077 13.657C101.056 13.7004 101.023 13.737 100.982 13.7626C100.942 13.7882 100.894 13.8017 100.846 13.8017V13.8017Z" fill="#FF9B04"/>
<path d="M90.4197 13.8018C90.3715 13.8017 90.3243 13.7882 90.2834 13.7626C90.2425 13.737 90.2097 13.7005 90.1886 13.6571L89.8302 12.9194C89.8149 12.889 89.8058 12.8559 89.8034 12.8219C89.801 12.788 89.8054 12.7539 89.8163 12.7217C89.8272 12.6894 89.8444 12.6597 89.8669 12.6341C89.8894 12.6086 89.9168 12.5878 89.9474 12.5729C89.978 12.558 90.0113 12.5494 90.0453 12.5475C90.0792 12.5456 90.1133 12.5505 90.1453 12.5619C90.1774 12.5732 90.2069 12.5909 90.2321 12.6137C90.2574 12.6366 90.2778 12.6643 90.2922 12.6951L90.6506 13.4328C90.6801 13.4939 90.6841 13.5642 90.6619 13.6283C90.6396 13.6923 90.5929 13.745 90.5319 13.7747C90.4971 13.7922 90.4587 13.8015 90.4197 13.8018V13.8018Z" fill="#FF9B04"/>
<path d="M91.8556 16.6739L91.9893 16.3234C92.0662 16.1225 92.1847 15.9401 92.3372 15.7883C92.4896 15.6365 92.6725 15.5187 92.8738 15.4427C93.075 15.3667 93.2901 15.3343 93.5048 15.3474C93.7196 15.3606 93.9291 15.4191 94.1195 15.5191C94.2659 15.5959 94.4355 15.6161 94.5958 15.5758C94.7562 15.5356 94.8961 15.4377 94.9889 15.3009C95.0406 15.2248 95.0762 15.1388 95.0934 15.0484C95.1105 14.9579 95.1089 14.8649 95.0886 14.7751C95.0683 14.6853 95.0297 14.6006 94.9753 14.5264C94.921 14.4521 94.8519 14.3898 94.7724 14.3433L94.5484 14.212C94.1376 13.9711 93.6725 13.8382 93.1965 13.8257C92.7205 13.8132 92.249 13.9215 91.8262 14.1405C91.4226 14.3496 91.0756 14.6531 90.8146 15.0252L87.3948 19.9043C87.3543 19.9616 87.3324 20.0299 87.332 20.1C87.3317 20.1702 87.3529 20.2387 87.3928 20.2964C87.4327 20.354 87.4894 20.398 87.5551 20.4224C87.6209 20.4468 87.6925 20.4504 87.7604 20.4327L87.8096 20.42L91.8556 16.6739Z" fill="#FF9B04"/>
<path d="M91.1649 16.2084C91.3603 15.6401 91.7577 15.1634 92.2815 14.8689C92.3037 14.8566 92.3259 14.845 92.3482 14.8347C92.771 14.6157 93.2424 14.5073 93.7184 14.5198C94.1944 14.5322 94.6595 14.665 95.0703 14.9058L95.1045 14.9263C95.1052 15.0612 95.065 15.193 94.9893 15.3046C94.8965 15.4414 94.7565 15.5393 94.596 15.5795C94.4356 15.6197 94.266 15.5994 94.1196 15.5224C93.9292 15.4224 93.7197 15.3639 93.5049 15.3508C93.2902 15.3376 93.0751 15.3701 92.8739 15.4461C92.6726 15.5221 92.4897 15.6399 92.3373 15.7917C92.1848 15.9435 92.0663 16.1258 91.9894 16.3268L91.8557 16.6773L90.6875 17.5695L91.1649 16.2084Z" fill="#FF9B04"/>
<path d="M91.3365 16.2299C91.5969 15.8578 91.9435 15.5541 92.3467 15.3449C92.7696 15.126 93.241 15.0178 93.717 15.0303C94.193 15.0428 94.6581 15.1756 95.0689 15.4164L95.2936 15.548C95.3728 15.5945 95.4416 15.6568 95.4958 15.7309C95.55 15.8051 95.5884 15.8895 95.6087 15.9791C95.629 16.0687 95.6306 16.1615 95.6136 16.2518C95.5966 16.342 95.5612 16.4278 95.5097 16.5039C95.4168 16.6404 95.2769 16.7381 95.1167 16.7782C94.9564 16.8183 94.787 16.7981 94.6407 16.7214C94.4503 16.6213 94.2408 16.5628 94.0261 16.5496C93.8114 16.5364 93.5963 16.5689 93.395 16.6449C93.1938 16.7209 93.0109 16.8387 92.8585 16.9905C92.7061 17.1423 92.5876 17.3248 92.5109 17.5257L92.3768 17.8762C92.2144 18.3022 92.2147 18.7732 92.3778 19.1989C92.5408 19.6247 92.8551 19.9754 93.2605 20.1839L95.257 21.1901C95.378 21.2522 95.4775 21.3492 95.5428 21.4685C95.6081 21.5878 95.6361 21.7239 95.6233 21.8593C95.587 22.242 95.2194 22.5187 94.8367 22.4708L92.6771 22.1972C92.2897 22.1483 91.8963 22.1951 91.5312 22.3334C91.1662 22.4717 90.8405 22.6974 90.5828 22.9906L89.8605 23.8131L87.7984 26.3126C87.7815 26.3332 87.7589 26.3485 87.7335 26.3565C87.7081 26.3645 87.6809 26.3649 87.6552 26.3576C87.6296 26.3503 87.6066 26.3357 87.5891 26.3156C87.5717 26.2954 87.5605 26.2706 87.5569 26.2442L86.8777 20.7961C86.867 20.7117 86.8881 20.6264 86.9369 20.5567L87.6274 19.5752L91.3365 16.2299Z" fill="#FF9B04"/>
</g>
<g clip-path="url(#clip2_1312_19317)">
<path d="M12.5605 88.4453L12.7271 88.1091C12.8225 87.9163 12.876 87.7055 12.884 87.4905C12.892 87.2755 12.8544 87.0613 12.7736 86.8619C12.6928 86.6625 12.5706 86.4825 12.4152 86.3337C12.2598 86.185 12.0747 86.0708 11.8719 85.9988C11.7162 85.9435 11.5862 85.8327 11.507 85.6876C11.4277 85.5425 11.4046 85.3733 11.4421 85.2123C11.4629 85.1226 11.5019 85.0382 11.5566 84.9642C11.6114 84.8902 11.6808 84.8283 11.7605 84.7822C11.8403 84.7362 11.9286 84.707 12.0201 84.6965C12.1115 84.6861 12.2042 84.6945 12.2922 84.7214L12.5407 84.7967C12.9964 84.9348 13.4097 85.1862 13.742 85.5273C14.0743 85.8684 14.3147 86.2881 14.4409 86.7473C14.5613 87.1856 14.574 87.6465 14.4778 88.0907L13.216 93.9138C13.2014 93.9824 13.1661 94.0448 13.1149 94.0927C13.0636 94.1405 12.9989 94.1715 12.9294 94.1813C12.86 94.1912 12.7892 94.1794 12.7267 94.1477C12.6641 94.116 12.6129 94.0658 12.5798 94.0039L12.5557 93.9592L12.5605 88.4453Z" fill="#FF9B04"/>
<path d="M13.3746 88.6369C13.6594 88.1077 13.7397 87.4923 13.6005 86.9077C13.5944 86.883 13.5879 86.8588 13.5803 86.8355C13.4542 86.3764 13.2138 85.9566 12.8815 85.6155C12.5493 85.2744 12.1361 85.023 11.6804 84.8847L11.6421 84.8736C11.5427 84.9646 11.4731 85.0836 11.4426 85.2149C11.4051 85.376 11.4282 85.5452 11.5076 85.6903C11.587 85.8354 11.717 85.9461 11.8729 86.0014C12.0756 86.0734 12.2608 86.1876 12.4162 86.3363C12.5716 86.4851 12.6937 86.6651 12.7745 86.8645C12.8553 87.0639 12.893 87.2781 12.885 87.4931C12.8769 87.7081 12.8235 87.9189 12.7281 88.1117L12.5614 88.4479L12.6971 89.9137L13.3746 88.6369Z" fill="#FF9B04"/>
<path d="M13.2409 88.5253C13.3375 88.0814 13.3252 87.6208 13.2052 87.1827C13.0789 86.7236 12.8384 86.3039 12.5062 85.9628C12.1739 85.6218 11.7607 85.3704 11.305 85.2321L11.0558 85.1565C10.9679 85.1299 10.8755 85.1216 10.7843 85.1321C10.693 85.1426 10.6049 85.1718 10.5254 85.2177C10.4458 85.2636 10.3765 85.3254 10.3218 85.3991C10.2671 85.4729 10.2281 85.5571 10.2072 85.6465C10.17 85.8075 10.1932 85.9765 10.2725 86.1214C10.3518 86.2663 10.4817 86.3769 10.6373 86.4323C10.84 86.5043 11.0252 86.6184 11.1806 86.7671C11.336 86.9158 11.4582 87.0958 11.539 87.2952C11.6197 87.4946 11.6574 87.7088 11.6493 87.9238C11.6412 88.1388 11.5877 88.3496 11.4922 88.5424L11.3258 88.8787C11.1232 89.2872 10.7772 89.6066 10.3538 89.7758C9.93051 89.9451 9.45965 89.9523 9.03132 89.7961L6.93683 89.0133C6.80909 88.9667 6.67029 88.9594 6.53837 88.9925C6.40645 89.0255 6.28745 89.0973 6.19675 89.1986C5.94033 89.485 5.98668 89.9428 6.28159 90.1913L7.94834 91.5916C8.24712 91.8428 8.4798 92.1635 8.62603 92.5255C8.77227 92.8875 8.8276 93.2798 8.7872 93.6681L8.67364 94.7579L8.23805 97.9672C8.23435 97.9936 8.23846 98.0205 8.24985 98.0446C8.26124 98.0687 8.27943 98.089 8.30217 98.1029C8.32492 98.1168 8.35123 98.1237 8.37788 98.1229C8.40452 98.122 8.43034 98.1134 8.45215 98.0981L12.9131 94.9004C12.9823 94.851 13.0307 94.7776 13.0487 94.6944L13.3022 93.5222L13.2409 88.5253Z" fill="#FF9B04"/>
<path d="M11.1054 81.3456C11.0727 81.3102 11.0506 81.2663 11.0416 81.2189C11.0326 81.1715 11.0372 81.1225 11.0548 81.0776L11.5948 79.6969C11.6067 79.6651 11.6249 79.6359 11.6482 79.6111C11.6715 79.5863 11.6995 79.5664 11.7306 79.5525C11.7617 79.5386 11.7952 79.531 11.8293 79.5302C11.8633 79.5294 11.8971 79.5354 11.9288 79.5478C11.9605 79.5602 11.9895 79.5788 12.0139 79.6024C12.0384 79.6261 12.0579 79.6544 12.0713 79.6857C12.0848 79.717 12.0918 79.7506 12.0921 79.7846C12.0925 79.8187 12.086 79.8524 12.0732 79.884L11.5331 81.2646C11.5172 81.3051 11.4913 81.3408 11.4578 81.3686C11.4243 81.3963 11.3843 81.4151 11.3416 81.4232C11.2989 81.4312 11.2548 81.4284 11.2135 81.4148C11.1722 81.4012 11.135 81.3774 11.1054 81.3456V81.3456Z" fill="#FF9B04"/>
<path d="M13.1343 82.7848C13.0881 82.7348 13.0636 82.6684 13.0663 82.6004C13.069 82.5323 13.0986 82.4681 13.1486 82.4218L14.1281 81.5166C14.1524 81.4916 14.1816 81.4719 14.2138 81.4586C14.246 81.4453 14.2805 81.4387 14.3154 81.4391C14.3502 81.4396 14.3846 81.4472 14.4164 81.4613C14.4482 81.4755 14.4768 81.496 14.5005 81.5216C14.5241 81.5472 14.5423 81.5773 14.554 81.6102C14.5656 81.643 14.5704 81.6779 14.5682 81.7127C14.5659 81.7474 14.5566 81.7814 14.5408 81.8124C14.525 81.8435 14.503 81.871 14.4762 81.8933L13.4968 82.7986C13.4469 82.8447 13.3807 82.8692 13.3127 82.8666C13.2448 82.864 13.1806 82.8346 13.1343 82.7848V82.7848Z" fill="#FF9B04"/>
<path d="M14.4093 84.9214C14.3798 84.8894 14.359 84.8504 14.3487 84.8082C14.3385 84.766 14.3391 84.7218 14.3505 84.6799C14.3619 84.6379 14.3838 84.5995 14.414 84.5683C14.4443 84.5371 14.482 84.5141 14.5236 84.5014L15.9424 84.0716C15.9748 84.0618 16.0088 84.0586 16.0424 84.062C16.076 84.0653 16.1087 84.0753 16.1384 84.0913C16.1682 84.1073 16.1945 84.129 16.2159 84.1552C16.2373 84.1814 16.2533 84.2115 16.2631 84.2439C16.2728 84.2763 16.2761 84.3103 16.2727 84.3439C16.2693 84.3775 16.2593 84.4102 16.2433 84.4399C16.2273 84.4697 16.2056 84.496 16.1794 84.5174C16.1532 84.5388 16.1231 84.5548 16.0907 84.5646L14.6719 84.9944C14.6256 85.0081 14.5765 85.0085 14.5301 84.9956C14.4836 84.9827 14.4418 84.957 14.4093 84.9214V84.9214Z" fill="#FF9B04"/>
<path d="M15.6517 87.5552C15.6254 87.5267 15.6059 87.4926 15.5949 87.4554C15.5753 87.3904 15.5822 87.3203 15.6141 87.2605C15.646 87.2006 15.7004 87.1558 15.7653 87.1359L16.5503 86.8984C16.5827 86.8881 16.6169 86.8843 16.6508 86.8873C16.6847 86.8903 16.7176 86.9 16.7478 86.9158C16.7779 86.9317 16.8046 86.9533 16.8263 86.9796C16.8479 87.0058 16.8642 87.0361 16.874 87.0687C16.8839 87.1013 16.8872 87.1355 16.8837 87.1693C16.8802 87.2032 16.8701 87.236 16.8538 87.2659C16.8375 87.2958 16.8155 87.3222 16.7889 87.3435C16.7624 87.3648 16.7318 87.3806 16.6991 87.39L15.9149 87.6268C15.8687 87.6407 15.8196 87.6414 15.773 87.6288C15.7265 87.6161 15.6845 87.5906 15.6517 87.5552V87.5552Z" fill="#FF9B04"/>
<path d="M8.57556 79.8982C8.54284 79.8628 8.52073 79.8189 8.51177 79.7715C8.50281 79.7241 8.50735 79.6752 8.52487 79.6302L8.82332 78.8664C8.83526 78.8345 8.85341 78.8053 8.87673 78.7805C8.90005 78.7557 8.92806 78.7358 8.95914 78.7219C8.99022 78.708 9.02375 78.7005 9.05778 78.6997C9.09181 78.6989 9.12566 78.7048 9.15736 78.7172C9.18906 78.7296 9.21798 78.7482 9.24244 78.7719C9.2669 78.7955 9.28641 78.8238 9.29984 78.8551C9.31327 78.8864 9.32035 78.92 9.32066 78.9541C9.32097 78.9881 9.31452 79.0219 9.30167 79.0534L9.00322 79.8173C8.97835 79.8804 8.92948 79.9311 8.86731 79.9583C8.80515 79.9854 8.73475 79.9869 8.67153 79.9622C8.63505 79.9486 8.60221 79.9266 8.57556 79.8982V79.8982Z" fill="#FF9B04"/>
<path d="M7.43894 82.9024L7.78712 82.7627C7.98684 82.6827 8.20124 82.646 8.41618 82.6549C8.63113 82.6638 8.84175 82.7182 9.03416 82.8144C9.22657 82.9106 9.39642 83.0465 9.5325 83.2131C9.66859 83.3798 9.76783 83.5733 9.82368 83.7811C9.86664 83.9407 9.96688 84.0789 10.1053 84.1694C10.2437 84.2598 10.4105 84.2961 10.574 84.2714C10.665 84.2577 10.7523 84.2255 10.8303 84.1767C10.9084 84.1279 10.9756 84.0636 11.0278 83.9877C11.0799 83.9119 11.1159 83.8261 11.1336 83.7357C11.1512 83.6454 11.1501 83.5524 11.1302 83.4625L11.0746 83.2088C10.9728 82.7437 10.7547 82.3119 10.4407 81.9538C10.1268 81.5958 9.72728 81.3231 9.27943 81.1612C8.85198 81.0067 8.39352 80.9579 7.94311 81.0189L2.03887 81.8191C1.96934 81.8282 1.90429 81.8585 1.85254 81.9059C1.8008 81.9532 1.76486 82.0153 1.74959 82.0837C1.73432 82.1522 1.74047 82.2237 1.76719 82.2885C1.79392 82.3534 1.83993 82.4084 1.89899 82.4462L1.94171 82.4738L7.43894 82.9024Z" fill="#FF9B04"/>
<path d="M7.31564 82.0787C7.8656 81.8365 8.4854 81.8047 9.05724 81.9895C9.08137 81.9975 9.10499 82.0059 9.12762 82.0153C9.57545 82.1771 9.97499 82.4497 10.289 82.8078C10.6029 83.1658 10.8211 83.5975 10.9231 84.0626L10.9312 84.1017C10.8326 84.1936 10.7085 84.2536 10.5752 84.2738C10.4117 84.2985 10.2448 84.2621 10.1064 84.1716C9.96801 84.081 9.86782 83.9427 9.82496 83.783C9.7691 83.5752 9.66987 83.3816 9.53378 83.215C9.39769 83.0484 9.22785 82.9125 9.03544 82.8163C8.84302 82.7201 8.6324 82.6657 8.41746 82.6568C8.20251 82.6479 7.98812 82.6846 7.78839 82.7646L7.44021 82.9043L5.99206 82.652L7.31564 82.0787Z" fill="#FF9B04"/>
<path d="M7.41411 82.2195C7.86419 82.1581 8.32244 82.2066 8.74975 82.3606C9.19752 82.5226 9.59698 82.7954 9.91088 83.1534C10.2248 83.5114 10.4429 83.9431 10.5449 84.4082L10.6008 84.6626C10.6204 84.7523 10.6214 84.8451 10.6037 84.9353C10.5861 85.0254 10.5501 85.1109 10.4981 85.1866C10.446 85.2623 10.379 85.3265 10.3012 85.3753C10.2233 85.424 10.1363 85.4563 10.0455 85.4701C9.88216 85.4946 9.71551 85.4581 9.57729 85.3677C9.43907 85.2772 9.33895 85.1391 9.29598 84.9796C9.24019 84.7718 9.14099 84.5782 9.00493 84.4116C8.86887 84.245 8.69903 84.1091 8.50662 84.0129C8.31421 83.9167 8.10359 83.8623 7.88865 83.8535C7.67371 83.8446 7.45933 83.8814 7.25964 83.9614L6.91123 84.1009C6.48815 84.2708 6.14256 84.5907 5.94055 84.9994C5.73855 85.4081 5.69432 85.8769 5.81633 86.3162L6.43259 88.4653C6.46905 88.5963 6.46539 88.7352 6.4221 88.8641C6.3788 88.9931 6.29786 89.106 6.18971 89.1885C5.88408 89.4216 5.43138 89.3394 5.20679 89.0259L3.94186 87.2543C3.71483 86.9366 3.41346 86.6795 3.06409 86.5053C2.71472 86.331 2.32799 86.245 1.9377 86.2548L0.843471 86.2826L-2.39181 86.4648C-2.41842 86.4664 -2.44492 86.4602 -2.46805 86.447C-2.49118 86.4337 -2.50994 86.414 -2.52201 86.3902C-2.53408 86.3665 -2.53895 86.3397 -2.53601 86.3132C-2.53307 86.2867 -2.52245 86.2616 -2.50546 86.2411L1.03448 82.0444C1.08916 81.9792 1.16615 81.9368 1.25044 81.9254L2.43986 81.7662L7.41411 82.2195Z" fill="#FF9B04"/>
</g>
<g clip-path="url(#clip3_1312_19317)">
<path d="M17.9701 57.3025C17.9514 56.9897 17.692 56.7459 17.3787 56.7465H15.0128V54.972C15.0128 53.3387 13.6887 52.0146 12.0554 52.0146C10.422 52.0146 9.09798 53.3387 9.09798 54.972V56.7465H6.73207C6.41877 56.7459 6.15937 56.9897 6.14059 57.3025L5.62009 66.701C5.56456 67.6794 6.31271 68.5176 7.29112 68.5732C7.32554 68.5751 7.36003 68.5761 7.39452 68.576H16.7221C17.7021 68.5776 18.4978 67.7844 18.4994 66.8044C18.4995 66.7699 18.4985 66.7355 18.4966 66.701L17.9701 57.3025ZM10.2809 54.972C10.2809 53.992 11.0754 53.1976 12.0554 53.1976C13.0354 53.1976 13.8298 53.992 13.8298 54.972V56.7465H10.2809V54.972Z" fill="#FF9B04"/>
</g>
<g clip-path="url(#clip4_1312_19317)">
<path d="M30.9819 51.6951C30.9764 51.6039 30.9008 51.5328 30.8094 51.533H30.1193V51.0154C30.1193 50.539 29.7331 50.1528 29.2567 50.1528C28.7803 50.1528 28.3941 50.539 28.3941 51.0154V51.533H27.7041C27.6127 51.5328 27.537 51.6039 27.5316 51.6951L27.3798 54.4364C27.3636 54.7218 27.5818 54.9663 27.8671 54.9825C27.8772 54.983 27.8872 54.9833 27.8973 54.9833H30.6179C30.9037 54.9837 31.1358 54.7524 31.1363 54.4666C31.1363 54.4565 31.136 54.4464 31.1354 54.4364L30.9819 51.6951ZM28.7392 51.0154C28.7392 50.7296 28.9709 50.4979 29.2567 50.4979C29.5426 50.4979 29.7743 50.7296 29.7743 51.0154V51.533H28.7392V51.0154Z" fill="#FF9B04" fill-opacity="0.7"/>
</g>
<g clip-path="url(#clip5_1312_19317)">
<path d="M66.9608 90.3486C66.944 90.0688 66.7119 89.8507 66.4316 89.8512H64.3148V88.2635C64.3148 86.8021 63.1301 85.6174 61.6687 85.6174C60.2073 85.6174 59.0226 86.8021 59.0226 88.2635V89.8512H56.9057C56.6254 89.8507 56.3933 90.0688 56.3765 90.3486L55.9108 98.7579C55.8611 99.6333 56.5305 100.383 57.4059 100.433C57.4367 100.435 57.4676 100.436 57.4984 100.435H65.8442C66.721 100.437 67.433 99.7272 67.4344 98.8504C67.4345 98.8195 67.4336 98.7887 67.4318 98.7579L66.9608 90.3486ZM60.081 88.2635C60.081 87.3867 60.7918 86.6759 61.6687 86.6759C62.5455 86.6759 63.2563 87.3867 63.2563 88.2635V89.8512H60.081V88.2635Z" fill="#FF9B04"/>
</g>
<g clip-path="url(#clip6_1312_19317)">
<path d="M47.6986 25.2977L48.5709 27.7505C48.6083 27.8555 48.6822 27.9387 48.7756 27.9808L50.9548 28.9627C51.2627 29.1014 51.2627 29.5919 50.9548 29.7306L48.7756 30.7125C48.6823 30.7545 48.6083 30.8377 48.5709 30.9428L47.6986 33.3955C47.5754 33.742 47.1396 33.742 47.0164 33.3955L46.1441 30.9428C46.1067 30.8377 46.0328 30.7545 45.9394 30.7125L43.7602 29.7306C43.4523 29.5919 43.4523 29.1014 43.7602 28.9627L45.9394 27.9808C46.0327 27.9387 46.1067 27.8555 46.1441 27.7505L47.0164 25.2977C47.1397 24.9512 47.5754 24.9512 47.6986 25.2977V25.2977Z" fill="white"/>
<path d="M80.5048 60.5713L81.1519 62.3907C81.1796 62.4686 81.2344 62.5304 81.3037 62.5615L82.9202 63.2898C83.1486 63.3927 83.1486 63.7566 82.9202 63.8595L81.3037 64.5878C81.2345 64.619 81.1797 64.6808 81.1519 64.7586L80.5048 66.578C80.4134 66.8351 80.0902 66.8351 79.9987 66.578L79.3516 64.7586C79.3239 64.6808 79.2691 64.619 79.1999 64.5878L77.5834 63.8595C77.355 63.7566 77.355 63.3927 77.5834 63.2898L79.1999 62.5615C79.2691 62.5304 79.3239 62.4686 79.3516 62.3907L79.9987 60.5713C80.0902 60.3141 80.4134 60.3141 80.5048 60.5713Z" fill="white"/>
<path d="M40.038 33.6969L40.6851 35.5163C40.7128 35.5942 40.7676 35.656 40.8368 35.6872L42.4533 36.4155C42.6817 36.5184 42.6817 36.8822 42.4533 36.9851L40.8368 37.7134C40.7676 37.7446 40.7128 37.8064 40.6851 37.8843L40.038 39.7037C39.9466 39.9607 39.6234 39.9607 39.5319 39.7037L38.8848 37.8843C38.8571 37.8064 38.8023 37.7446 38.733 37.7134L37.1166 36.9851C36.8882 36.8822 36.8882 36.5184 37.1166 36.4155L38.7331 35.6872C38.8023 35.656 38.8571 35.5942 38.8849 35.5163L39.532 33.6969C39.6234 33.4399 39.9466 33.4399 40.038 33.6969V33.6969Z" fill="white"/>
<path d="M40.0242 27.976C40.0242 28.4297 39.6563 28.7977 39.2026 28.7977C38.7488 28.7977 38.3809 28.4299 38.3809 27.976C38.3809 27.5223 38.7487 27.1543 39.2026 27.1543C39.6563 27.1544 40.0242 27.5223 40.0242 27.976V27.976Z" fill="white"/>
<path d="M85.5713 58.9503C86.4089 58.9503 87.088 58.2712 87.088 57.4336C87.088 56.596 86.4089 55.917 85.5713 55.917C84.7337 55.917 84.0547 56.596 84.0547 57.4336C84.0547 58.2712 84.7337 58.9503 85.5713 58.9503Z" fill="white"/>
<path d="M46.9498 69.8253V68.6663L47.7225 65.9618L48.1089 60.1664L50.0407 58.6209L53.1316 59.3937L54.2906 61.7118L54.677 69.439L55.8361 69.8253L57.7679 68.2799L64.7223 61.7118L65.1087 59.78L49.6543 44.3257L42.3135 51.2801L39.2227 60.1664L42.3135 67.1208L46.9498 69.8253Z" fill="white"/>
<path d="M87.1117 51.9394C86.9523 51.375 86.366 51.0464 85.8011 51.2062L68.0234 56.2283L53.7169 41.9216L58.1354 26.36C58.2956 25.7959 57.9681 25.2086 57.404 25.0483C56.8398 24.8885 56.2526 25.2157 56.0924 25.7798L51.9566 40.3456C51.5729 40.1476 51.145 40.0422 50.7008 40.0422C49.9677 40.0422 49.2786 40.3275 48.7603 40.8459C47.8251 41.7811 47.7075 43.2288 48.407 44.2932L42.0176 50.6827C37.1967 55.5037 37.1967 63.348 42.0176 68.1691C43.3581 69.5095 44.9327 70.4759 46.6106 71.0707V73.6097H39.629C38.1158 73.6097 36.8848 74.8408 36.8848 76.3539C36.8848 77.8671 38.1158 79.0982 39.629 79.0982H62.5501C64.0633 79.0982 65.2944 77.8671 65.2944 76.3539C65.2944 74.8408 64.0633 73.6097 62.5501 73.6097H55.5686V70.816C56.9998 70.2144 58.3401 69.3329 59.504 68.1691L65.8934 61.7797C66.3488 62.0791 66.8745 62.2288 67.4001 62.2288C68.1028 62.2288 68.8056 61.9612 69.3406 61.4263C69.8589 60.908 70.1443 60.2189 70.1443 59.4858C70.1443 58.9366 69.9841 58.4121 69.6857 57.9655L86.3786 53.2499C86.9429 53.0906 87.2713 52.5039 87.1117 51.9394ZM63.1705 76.3538C63.1705 76.6958 62.8922 76.9742 62.5501 76.9742H39.629C39.2869 76.9742 39.0087 76.6958 39.0087 76.3538C39.0087 76.0119 39.2869 75.7335 39.629 75.7335H62.5501C62.8922 75.7335 63.1705 76.0119 63.1705 76.3538ZM48.7343 73.6097V62.2122C48.7343 60.9135 49.7909 59.857 51.0896 59.857C52.3883 59.857 53.4448 60.9135 53.4448 62.2122V73.6097H48.7343ZM58.0021 66.6673C57.2731 67.3963 56.4534 68.0017 55.5686 68.4733V62.2122C55.5686 59.7424 53.5593 57.7332 51.0896 57.7332C48.6198 57.7332 46.6105 59.7424 46.6105 62.2122V68.7934C45.4726 68.289 44.4259 67.5739 43.5194 66.6673C41.5851 64.733 40.5199 62.1614 40.5199 59.4258C40.5199 56.6904 41.5851 54.1187 43.5194 52.1844L49.8685 45.8352L64.3514 60.318L58.0021 66.6673ZM67.8387 59.9246C67.5969 60.1664 67.2033 60.1664 66.9613 59.9246L50.2619 43.2253C50.0201 42.9834 50.02 42.5897 50.2619 42.3479C50.3791 42.2307 50.5349 42.1662 50.7006 42.1662C50.8663 42.1662 51.0221 42.2307 51.1392 42.3479L67.8386 59.0473C67.9558 59.1645 68.0203 59.3203 68.0203 59.4859C68.0204 59.6517 67.9559 59.8074 67.8387 59.9246Z" fill="white"/>
<path d="M47.5619 53.1202C47.29 53.1202 47.0182 53.0165 46.8108 52.809C46.3962 52.3941 46.3964 51.7218 46.8112 51.3072L47.0992 51.0192C47.514 50.6046 48.1862 50.6046 48.601 51.0192C49.0158 51.4339 49.0158 52.1062 48.601 52.521L48.3126 52.8094C48.1053 53.0166 47.8335 53.1202 47.5619 53.1202V53.1202Z" fill="#E4E3E3"/>
<path d="M44.7377 55.945C44.4659 55.945 44.1942 55.8412 43.9868 55.634C43.5721 55.2193 43.5721 54.5469 43.9868 54.1321L44.7945 53.3243C45.2093 52.9098 45.8815 52.9098 46.2964 53.3243C46.711 53.7391 46.711 54.4114 46.2964 54.8262L45.4886 55.634C45.2812 55.8413 45.0095 55.945 44.7377 55.945V55.945Z" fill="#EEEAEA"/>
</g>
<path d="M86.8135 88.891C87.4618 88.891 88.0834 88.3204 88.0532 87.6508C88.0232 86.9794 87.5085 86.4111 86.8135 86.4111C86.1647 86.4111 85.5436 86.9812 85.5733 87.6508C85.6035 88.3227 86.1184 88.891 86.8135 88.891V88.891Z" fill="#FF9B04"/>
<path d="M82.4421 89.9989C83.0907 89.9989 83.7121 89.4288 83.6821 88.7592C83.6521 88.0873 83.1374 87.5195 82.4421 87.5195C81.7936 87.5195 81.1722 88.0896 81.2022 88.7592C81.2324 89.4311 81.7471 89.9989 82.4421 89.9989V89.9989Z" fill="#FF9B04"/>
<path d="M85.7056 93.2628C86.3544 93.2628 86.9755 92.6928 86.9458 92.0231C86.9155 91.3512 86.4006 90.7832 85.7056 90.7832C85.0573 90.7832 84.4357 91.3533 84.4659 92.0231C84.4959 92.6948 85.0105 93.2628 85.7056 93.2628V93.2628Z" fill="#FF9B04"/>
</g>
<path d="M169.032 58.6989H174.237V60.7366H166.507V45.3431H169.032V58.6989ZM177.633 46.9157C177.175 46.9157 176.792 46.7607 176.481 46.4506C176.171 46.1405 176.016 45.7566 176.016 45.2988C176.016 44.8411 176.171 44.4572 176.481 44.1471C176.792 43.837 177.175 43.682 177.633 43.682C178.076 43.682 178.453 43.837 178.763 44.1471C179.073 44.4572 179.228 44.8411 179.228 45.2988C179.228 45.7566 179.073 46.1405 178.763 46.4506C178.453 46.7607 178.076 46.9157 177.633 46.9157ZM178.874 48.5326V60.7366H176.349V48.5326H178.874ZM196.962 48.3332C197.922 48.3332 198.778 48.5326 199.531 48.9312C200.299 49.3299 200.897 49.9206 201.325 50.7031C201.768 51.4857 201.99 52.4308 201.99 53.5382V60.7366H199.487V53.9147C199.487 52.8221 199.214 51.9878 198.667 51.4119C198.121 50.8213 197.375 50.526 196.43 50.526C195.485 50.526 194.732 50.8213 194.171 51.4119C193.625 51.9878 193.352 52.8221 193.352 53.9147V60.7366H190.849V53.9147C190.849 52.8221 190.576 51.9878 190.029 51.4119C189.483 50.8213 188.737 50.526 187.792 50.526C186.847 50.526 186.094 50.8213 185.533 51.4119C184.987 51.9878 184.714 52.8221 184.714 53.9147V60.7366H182.189V48.5326H184.714V49.9279C185.127 49.4259 185.651 49.0346 186.286 48.754C186.921 48.4735 187.6 48.3332 188.324 48.3332C189.298 48.3332 190.17 48.5399 190.937 48.9534C191.705 49.3668 192.296 49.9648 192.709 50.7474C193.078 50.0091 193.654 49.4259 194.437 48.9977C195.219 48.5547 196.061 48.3332 196.962 48.3332ZM216.388 54.3356C216.388 54.7933 216.358 55.2067 216.299 55.5759H206.975C207.048 56.5504 207.41 57.333 208.06 57.9237C208.709 58.5143 209.507 58.8096 210.452 58.8096C211.81 58.8096 212.77 58.2411 213.331 57.1042H216.056C215.686 58.2264 215.015 59.1492 214.04 59.8728C213.08 60.5815 211.884 60.9359 210.452 60.9359C209.285 60.9359 208.237 60.6775 207.307 60.1607C206.391 59.6291 205.668 58.8908 205.136 57.9458C204.619 56.986 204.361 55.8786 204.361 54.6235C204.361 53.3684 204.612 52.2683 205.114 51.3233C205.631 50.3635 206.347 49.6252 207.262 49.1084C208.193 48.5916 209.256 48.3332 210.452 48.3332C211.604 48.3332 212.63 48.5842 213.531 49.0863C214.431 49.5883 215.133 50.2971 215.635 51.2126C216.137 52.1133 216.388 53.1543 216.388 54.3356ZM213.752 53.5382C213.737 52.6079 213.405 51.8623 212.755 51.3012C212.106 50.7401 211.301 50.4595 210.341 50.4595C209.47 50.4595 208.724 50.7401 208.104 51.3012C207.484 51.8475 207.115 52.5932 206.997 53.5382H213.752ZM221.398 44.3464V60.7366H218.873V44.3464H221.398ZM225.997 46.9157C225.54 46.9157 225.156 46.7607 224.846 46.4506C224.535 46.1405 224.38 45.7566 224.38 45.2988C224.38 44.8411 224.535 44.4572 224.846 44.1471C225.156 43.837 225.54 43.682 225.997 43.682C226.44 43.682 226.817 43.837 227.127 44.1471C227.437 44.4572 227.592 44.8411 227.592 45.2988C227.592 45.7566 227.437 46.1405 227.127 46.4506C226.817 46.7607 226.44 46.9157 225.997 46.9157ZM227.238 48.5326V60.7366H224.713V48.5326H227.238ZM235.47 48.3332C236.415 48.3332 237.249 48.5252 237.973 48.9091C238.711 49.2782 239.287 49.7434 239.7 50.3045V48.5326H242.247V60.9359C242.247 62.0581 242.011 63.0548 241.538 63.926C241.066 64.812 240.379 65.506 239.479 66.008C238.593 66.51 237.53 66.7611 236.289 66.7611C234.635 66.7611 233.262 66.3698 232.17 65.5872C231.077 64.8193 230.457 63.771 230.309 62.442H232.812C233.004 63.077 233.41 63.5864 234.03 63.9703C234.665 64.369 235.418 64.5683 236.289 64.5683C237.308 64.5683 238.128 64.2582 238.748 63.6381C239.383 63.0179 239.7 62.1172 239.7 60.9359V58.8982C239.272 59.4741 238.689 59.9614 237.95 60.36C237.227 60.744 236.4 60.9359 235.47 60.9359C234.407 60.9359 233.432 60.6701 232.546 60.1386C231.675 59.5922 230.981 58.8392 230.464 57.8794C229.962 56.9048 229.711 55.8048 229.711 54.5792C229.711 53.3536 229.962 52.2683 230.464 51.3233C230.981 50.3783 231.675 49.6474 232.546 49.1306C233.432 48.599 234.407 48.3332 235.47 48.3332ZM239.7 54.6235C239.7 53.7818 239.523 53.0509 239.169 52.4308C238.829 51.8106 238.379 51.3381 237.817 51.0132C237.256 50.6884 236.651 50.526 236.001 50.526C235.352 50.526 234.746 50.6884 234.185 51.0132C233.624 51.3233 233.166 51.7884 232.812 52.4086C232.472 53.014 232.302 53.7375 232.302 54.5792C232.302 55.4208 232.472 56.1591 232.812 56.7941C233.166 57.429 233.624 57.9163 234.185 58.2559C234.761 58.5808 235.366 58.7432 236.001 58.7432C236.651 58.7432 237.256 58.5808 237.817 58.2559C238.379 57.9311 238.829 57.4585 239.169 56.8384C239.523 56.2034 239.7 55.4651 239.7 54.6235ZM251.876 48.3332C252.806 48.3332 253.633 48.5326 254.357 48.9312C255.095 49.3299 255.671 49.9206 256.084 50.7031C256.513 51.4857 256.727 52.4308 256.727 53.5382V60.7366H254.224V53.9147C254.224 52.8221 253.951 51.9878 253.404 51.4119C252.858 50.8213 252.112 50.526 251.167 50.526C250.222 50.526 249.469 50.8213 248.908 51.4119C248.362 51.9878 248.089 52.8221 248.089 53.9147V60.7366H245.564V44.3464H248.089V49.9501C248.517 49.4333 249.056 49.0346 249.706 48.754C250.37 48.4735 251.094 48.3332 251.876 48.3332ZM262.893 50.5924V57.3478C262.893 57.8055 262.997 58.1378 263.203 58.3445C263.425 58.5365 263.794 58.6324 264.311 58.6324H265.861V60.7366H263.868C262.731 60.7366 261.86 60.4708 261.254 59.9392C260.649 59.4076 260.346 58.5438 260.346 57.3478V50.5924H258.906V48.5326H260.346V45.4982H262.893V48.5326H265.861V50.5924H262.893Z" fill="white"/>
<path d="M335.019 35.5525V37.4297H331.929V47.1475H329.603V37.4297H326.513V35.5525H335.019ZM342.098 47.2637C341.012 47.2637 340.016 47.009 339.108 46.4996C338.199 45.9902 337.48 45.287 336.948 44.3899C336.416 43.4818 336.151 42.4574 336.151 41.3168C336.151 40.1872 336.416 39.1739 336.948 38.2768C337.48 37.3687 338.199 36.66 339.108 36.1506C340.016 35.6411 341.012 35.3864 342.098 35.3864C343.194 35.3864 344.191 35.6411 345.088 36.1506C345.996 36.66 346.71 37.3687 347.231 38.2768C347.762 39.1739 348.028 40.1872 348.028 41.3168C348.028 42.4574 347.762 43.4818 347.231 44.3899C346.71 45.287 345.996 45.9902 345.088 46.4996C344.18 47.009 343.183 47.2637 342.098 47.2637ZM342.098 45.1873C342.795 45.1873 343.41 45.0322 343.942 44.7222C344.473 44.401 344.888 43.947 345.187 43.36C345.486 42.7731 345.636 42.092 345.636 41.3168C345.636 40.5416 345.486 39.866 345.187 39.2902C344.888 38.7032 344.473 38.2547 343.942 37.9446C343.41 37.6345 342.795 37.4795 342.098 37.4795C341.4 37.4795 340.78 37.6345 340.237 37.9446C339.706 38.2547 339.29 38.7032 338.991 39.2902C338.692 39.866 338.543 40.5416 338.543 41.3168C338.543 42.092 338.692 42.7731 338.991 43.36C339.29 43.947 339.706 44.401 340.237 44.7222C340.78 45.0322 341.4 45.1873 342.098 45.1873ZM358.213 39.1407C358.213 39.7608 358.064 40.3422 357.765 40.8849C357.477 41.4275 357.017 41.865 356.386 42.1972C355.766 42.5294 354.98 42.6955 354.027 42.6955H352.084V47.1475H349.758V35.5525H354.027C354.924 35.5525 355.689 35.7076 356.32 36.0177C356.951 36.3278 357.422 36.7541 357.732 37.2968C358.053 37.8394 358.213 38.454 358.213 39.1407ZM353.928 40.8184C354.57 40.8184 355.046 40.6745 355.356 40.3865C355.666 40.0875 355.821 39.6722 355.821 39.1407C355.821 38.0111 355.19 37.4463 353.928 37.4463H352.084V40.8184H353.928ZM372.278 39.1407C372.278 39.7608 372.129 40.3422 371.83 40.8849C371.542 41.4275 371.082 41.865 370.451 42.1972C369.831 42.5294 369.044 42.6955 368.092 42.6955H366.149V47.1475H363.823V35.5525H368.092C368.989 35.5525 369.753 35.7076 370.385 36.0177C371.016 36.3278 371.486 36.7541 371.796 37.2968C372.118 37.8394 372.278 38.454 372.278 39.1407ZM367.992 40.8184C368.635 40.8184 369.111 40.6745 369.421 40.3865C369.731 40.0875 369.886 39.6722 369.886 39.1407C369.886 38.0111 369.255 37.4463 367.992 37.4463H366.149V40.8184H367.992ZM379.91 47.1475L377.351 42.6291H376.255V47.1475H373.929V35.5525H378.282C379.179 35.5525 379.943 35.7131 380.574 36.0343C381.205 36.3444 381.676 36.7707 381.986 37.3134C382.307 37.8449 382.468 38.443 382.468 39.1074C382.468 39.8716 382.246 40.5637 381.803 41.1839C381.36 41.793 380.701 42.2138 379.827 42.4464L382.601 47.1475H379.91ZM376.255 40.8849H378.199C378.83 40.8849 379.3 40.7354 379.611 40.4364C379.921 40.1263 380.076 39.6999 380.076 39.1573C380.076 38.6257 379.921 38.2159 379.611 37.928C379.3 37.629 378.83 37.4795 378.199 37.4795H376.255V40.8849ZM389.953 47.2637C388.868 47.2637 387.871 47.009 386.963 46.4996C386.055 45.9902 385.335 45.287 384.804 44.3899C384.272 43.4818 384.006 42.4574 384.006 41.3168C384.006 40.1872 384.272 39.1739 384.804 38.2768C385.335 37.3687 386.055 36.66 386.963 36.1506C387.871 35.6411 388.868 35.3864 389.953 35.3864C391.05 35.3864 392.046 35.6411 392.943 36.1506C393.852 36.66 394.566 37.3687 395.086 38.2768C395.618 39.1739 395.884 40.1872 395.884 41.3168C395.884 42.4574 395.618 43.4818 395.086 44.3899C394.566 45.287 393.852 45.9902 392.943 46.4996C392.035 47.009 391.039 47.2637 389.953 47.2637ZM389.953 45.1873C390.651 45.1873 391.266 45.0322 391.797 44.7222C392.329 44.401 392.744 43.947 393.043 43.36C393.342 42.7731 393.492 42.092 393.492 41.3168C393.492 40.5416 393.342 39.866 393.043 39.2902C392.744 38.7032 392.329 38.2547 391.797 37.9446C391.266 37.6345 390.651 37.4795 389.953 37.4795C389.256 37.4795 388.636 37.6345 388.093 37.9446C387.561 38.2547 387.146 38.7032 386.847 39.2902C386.548 39.866 386.399 40.5416 386.399 41.3168C386.399 42.092 386.548 42.7731 386.847 43.36C387.146 43.947 387.561 44.401 388.093 44.7222C388.636 45.0322 389.256 45.1873 389.953 45.1873ZM404.774 35.5525V37.4297H399.94V40.4031H403.644V42.247H399.94V47.1475H397.614V35.5525H404.774ZM408.748 35.5525V47.1475H406.423V35.5525H408.748ZM413.372 45.3036H417.192V47.1475H411.046V35.5525H413.372V45.3036ZM420.996 37.4297V40.3367H424.9V42.1806H420.996V45.2537H425.398V47.1475H418.67V35.5359H425.398V37.4297H420.996ZM441.885 35.5525L437.633 47.1475H434.809L430.556 35.5525H433.048L436.237 44.772L439.41 35.5525H441.885ZM445.605 35.5525V47.1475H443.28V35.5525H445.605ZM451.906 47.2637C451.098 47.2637 450.367 47.1253 449.714 46.8485C449.071 46.5716 448.562 46.1729 448.185 45.6524C447.809 45.1319 447.615 44.5173 447.604 43.8085H450.096C450.129 44.2847 450.295 44.6613 450.594 44.9381C450.904 45.215 451.325 45.3534 451.857 45.3534C452.399 45.3534 452.826 45.226 453.136 44.9713C453.446 44.7056 453.601 44.3622 453.601 43.9414C453.601 43.5981 453.496 43.3157 453.285 43.0942C453.075 42.8727 452.809 42.7011 452.488 42.5793C452.178 42.4464 451.746 42.3024 451.192 42.1474C450.439 41.9259 449.824 41.7099 449.348 41.4995C448.883 41.278 448.479 40.9513 448.136 40.5194C447.803 40.0764 447.637 39.4895 447.637 38.7586C447.637 38.072 447.809 37.474 448.152 36.9645C448.496 36.4551 448.977 36.0675 449.597 35.8017C450.218 35.5249 450.926 35.3864 451.724 35.3864C452.92 35.3864 453.889 35.6799 454.631 36.2668C455.384 36.8427 455.799 37.6511 455.877 38.6921H453.318C453.296 38.2935 453.125 37.9668 452.804 37.7121C452.493 37.4463 452.078 37.3134 451.558 37.3134C451.104 37.3134 450.738 37.4297 450.461 37.6622C450.195 37.8948 450.063 38.2326 450.063 38.6755C450.063 38.9856 450.162 39.2459 450.362 39.4563C450.572 39.6556 450.827 39.8217 451.126 39.9546C451.436 40.0764 451.868 40.2204 452.421 40.3865C453.175 40.608 453.789 40.8295 454.265 41.051C454.742 41.2725 455.151 41.6047 455.495 42.0477C455.838 42.4907 456.01 43.0721 456.01 43.7919C456.01 44.4121 455.849 44.9879 455.528 45.5195C455.207 46.0511 454.736 46.4775 454.116 46.7986C453.496 47.1087 452.759 47.2637 451.906 47.2637ZM460.351 35.5525V47.1475H458.026V35.5525H460.351ZM469.227 41.2005C469.881 41.3223 470.418 41.649 470.839 42.1806C471.259 42.7122 471.47 43.3212 471.47 44.0079C471.47 44.628 471.315 45.1762 471.005 45.6524C470.706 46.1175 470.268 46.483 469.692 46.7488C469.117 47.0146 468.436 47.1475 467.649 47.1475H462.649V35.5525H467.433C468.22 35.5525 468.895 35.6799 469.46 35.9346C470.036 36.1893 470.468 36.5437 470.756 36.9978C471.055 37.4518 471.204 37.9668 471.204 38.5426C471.204 39.2182 471.021 39.783 470.656 40.237C470.302 40.6911 469.825 41.0122 469.227 41.2005ZM464.975 40.3367H467.101C467.655 40.3367 468.081 40.2149 468.38 39.9712C468.679 39.7165 468.829 39.3566 468.829 38.8915C468.829 38.4264 468.679 38.0664 468.38 37.8117C468.081 37.557 467.655 37.4297 467.101 37.4297H464.975V40.3367ZM467.317 45.2537C467.882 45.2537 468.319 45.1208 468.629 44.8551C468.95 44.5893 469.111 44.2127 469.111 43.7255C469.111 43.2271 468.945 42.8395 468.613 42.5626C468.28 42.2747 467.832 42.1307 467.267 42.1307H464.975V45.2537H467.317ZM475.649 35.5525V47.1475H473.323V35.5525H475.649ZM480.272 45.3036H484.093V47.1475H477.947V35.5525H480.272V45.3036ZM487.897 35.5525V47.1475H485.571V35.5525H487.897ZM498.085 35.5525V37.4297H494.995V47.1475H492.67V37.4297H489.58V35.5525H498.085ZM509.001 35.5525L505.081 43.1108V47.1475H502.755V43.1108L498.819 35.5525H501.443L503.935 40.8517L506.41 35.5525H509.001ZM516.627 35.5525V47.1475H514.301V35.5525H516.627ZM528.841 47.1475H526.516L521.25 39.1905V47.1475H518.924V35.5359H521.25L526.516 43.5095V35.5359H528.841V47.1475ZM393.807 60.5525L389.887 68.1108V72.1475H387.561V68.1108L383.624 60.5525H386.249L388.74 65.8517L391.215 60.5525H393.807ZM400.53 72.2637C399.445 72.2637 398.448 72.009 397.54 71.4996C396.632 70.9902 395.912 70.287 395.381 69.3899C394.849 68.4818 394.583 67.4574 394.583 66.3168C394.583 65.1872 394.849 64.1739 395.381 63.2768C395.912 62.3687 396.632 61.66 397.54 61.1506C398.448 60.6411 399.445 60.3864 400.53 60.3864C401.627 60.3864 402.623 60.6411 403.52 61.1506C404.429 61.66 405.143 62.3687 405.663 63.2768C406.195 64.1739 406.461 65.1872 406.461 66.3168C406.461 67.4574 406.195 68.4818 405.663 69.3899C405.143 70.287 404.429 70.9902 403.52 71.4996C402.612 72.009 401.616 72.2637 400.53 72.2637ZM400.53 70.1873C401.228 70.1873 401.843 70.0322 402.374 69.7222C402.906 69.401 403.321 68.947 403.62 68.36C403.919 67.7731 404.069 67.092 404.069 66.3168C404.069 65.5416 403.919 64.866 403.62 64.2902C403.321 63.7032 402.906 63.2547 402.374 62.9446C401.843 62.6345 401.228 62.4795 400.53 62.4795C399.833 62.4795 399.212 62.6345 398.67 62.9446C398.138 63.2547 397.723 63.7032 397.424 64.2902C397.125 64.866 396.975 65.5416 396.975 66.3168C396.975 67.092 397.125 67.7731 397.424 68.36C397.723 68.947 398.138 69.401 398.67 69.7222C399.212 70.0322 399.833 70.1873 400.53 70.1873ZM410.483 60.5525V67.7288C410.483 68.5151 410.688 69.1186 411.098 69.5394C411.508 69.9492 412.084 70.1541 412.826 70.1541C413.579 70.1541 414.16 69.9492 414.57 69.5394C414.98 69.1186 415.184 68.5151 415.184 67.7288V60.5525H417.527V67.7122C417.527 68.6978 417.311 69.5339 416.879 70.2205C416.458 70.8961 415.888 71.4055 415.168 71.7488C414.459 72.0921 413.667 72.2637 412.792 72.2637C411.929 72.2637 411.142 72.0921 410.433 71.7488C409.736 71.4055 409.182 70.8961 408.772 70.2205C408.363 69.5339 408.158 68.6978 408.158 67.7122V60.5525H410.483ZM425.754 72.1475L423.196 67.6291H422.099V72.1475H419.774V60.5525H424.126C425.023 60.5525 425.787 60.7131 426.418 61.0343C427.05 61.3444 427.52 61.7707 427.83 62.3134C428.151 62.8449 428.312 63.443 428.312 64.1074C428.312 64.8716 428.091 65.5637 427.648 66.1839C427.205 66.793 426.546 67.2138 425.671 67.4464L428.445 72.1475H425.754ZM422.099 65.8849H424.043C424.674 65.8849 425.145 65.7354 425.455 65.4364C425.765 65.1263 425.92 64.6999 425.92 64.1573C425.92 63.6257 425.765 63.2159 425.455 62.928C425.145 62.629 424.674 62.4795 424.043 62.4795H422.099V65.8849ZM441.483 69.9381H436.865L436.101 72.1475H433.659L437.829 60.5359H440.537L444.706 72.1475H442.248L441.483 69.9381ZM440.852 68.0776L439.174 63.227L437.497 68.0776H440.852ZM452.245 72.1475L449.687 67.6291H448.59V72.1475H446.265V60.5525H450.617C451.514 60.5525 452.278 60.7131 452.909 61.0343C453.541 61.3444 454.011 61.7707 454.321 62.3134C454.642 62.8449 454.803 63.443 454.803 64.1074C454.803 64.8716 454.582 65.5637 454.139 66.1839C453.696 66.793 453.037 67.2138 452.162 67.4464L454.936 72.1475H452.245ZM448.59 65.8849H450.534C451.165 65.8849 451.636 65.7354 451.946 65.4364C452.256 65.1263 452.411 64.6999 452.411 64.1573C452.411 63.6257 452.256 63.2159 451.946 62.928C451.636 62.629 451.165 62.4795 450.534 62.4795H448.59V65.8849ZM459.232 62.4297V65.3367H463.136V67.1806H459.232V70.2537H463.634V72.1475H456.906V60.5359H463.634V62.4297H459.232ZM472.857 69.9381H468.239L467.475 72.1475H465.033L469.203 60.5359H471.911L476.08 72.1475H473.622L472.857 69.9381ZM472.226 68.0776L470.548 63.227L468.871 68.0776H472.226Z" fill="white"/>
<defs>
<filter id="filter0_ddd_1312_19317" x="0.482546" y="0.170519" width="554.7" height="102.799" filterUnits="userSpaceOnUse" color-interpolation-filters="sRGB">
<feFlood flood-opacity="0" result="BackgroundImageFix"/>
<feColorMatrix in="SourceAlpha" type="matrix" values="0 0 0 0 0 0 0 0 0 0 0 0 0 0 0 0 0 0 127 0" result="hardAlpha"/>
<feOffset dy="0.689926"/>
<feGaussianBlur stdDeviation="2.7597"/>
<feColorMatrix type="matrix" values="0 0 0 0 0 0 0 0 0 0 0 0 0 0 0 0 0 0 0.1 0"/>
<feBlend mode="normal" in2="BackgroundImageFix" result="effect1_dropShadow_1312_19317"/>
<feColorMatrix in="SourceAlpha" type="matrix" values="0 0 0 0 0 0 0 0 0 0 0 0 0 0 0 0 0 0 127 0" result="hardAlpha"/>
<feOffset dy="1.37985"/>
<feGaussianBlur stdDeviation="1.37985"/>
<feColorMatrix type="matrix" values="0 0 0 0 0 0 0 0 0 0 0 0 0 0 0 0 0 0 0.12 0"/>
<feBlend mode="normal" in2="effect1_dropShadow_1312_19317" result="effect2_dropShadow_1312_19317"/>
<feColorMatrix in="SourceAlpha" type="matrix" values="0 0 0 0 0 0 0 0 0 0 0 0 0 0 0 0 0 0 127 0" result="hardAlpha"/>
<feOffset dy="0.689926"/>
<feGaussianBlur stdDeviation="0.689926"/>
<feColorMatrix type="matrix" values="0 0 0 0 0 0 0 0 0 0 0 0 0 0 0 0 0 0 0.16 0"/>
<feBlend mode="normal" in2="effect2_dropShadow_1312_19317" result="effect3_dropShadow_1312_19317"/>
<feBlend mode="normal" in="SourceGraphic" in2="effect3_dropShadow_1312_19317" result="shape"/>
</filter>
<clipPath id="clip0_1312_19317">
<rect width="111.768" height="92.33" fill="white" transform="translate(6.3457 5)"/>
</clipPath>
<clipPath id="clip1_1312_19317">
<rect width="17.5095" height="17.5095" fill="white" transform="translate(86.873 5)"/>
</clipPath>
<clipPath id="clip2_1312_19317">
<rect width="17.5095" height="17.5095" fill="white" transform="translate(12.6328 71.3208) rotate(47.2539)"/>
</clipPath>
<clipPath id="clip3_1312_19317">
<rect width="13.19" height="16.6611" fill="white" transform="translate(5.31055 51.915)"/>
</clipPath>
<clipPath id="clip4_1312_19317">
<rect width="3.84712" height="4.85953" fill="white" transform="translate(27.2871 50.1238)"/>
</clipPath>
<clipPath id="clip5_1312_19317">
<rect width="11.8016" height="14.9073" fill="white" transform="translate(55.6348 85.5283)"/>
</clipPath>
<clipPath id="clip6_1312_19317">
<rect width="54.0902" height="54.0902" fill="white" transform="translate(34.9785 25.0078)"/>
</clipPath>
</defs>
</svg>
