<svg width="80" height="86" viewBox="0 0 80 86" fill="none" xmlns="http://www.w3.org/2000/svg">
<path d="M15.8265 70.5396V68.7181L17.0407 64.4681L17.6479 55.361L20.6836 52.9324L25.5407 54.1467L27.3622 57.7896L27.9693 69.9324L29.7907 70.5396L32.8265 68.111L43.755 57.7896L44.3622 54.7539L20.0765 30.4681L8.54074 41.3967L3.68359 55.361L8.54074 66.2896L15.8265 70.5396Z" fill="#FFB803"/>
<path d="M78.9389 42.4328C78.6884 41.546 77.767 41.0295 76.8793 41.2807L48.9425 49.1726L26.4605 26.6904L33.4041 2.23614C33.6558 1.34962 33.1412 0.426737 32.2547 0.174891C31.3681 -0.0762908 30.4454 0.43786 30.1936 1.32438L23.6944 24.2138C23.0914 23.9027 22.4191 23.737 21.721 23.737C20.569 23.737 19.4861 24.1854 18.6716 25C17.202 26.4696 17.0171 28.7445 18.1164 30.4173L8.0758 40.4579C0.50001 48.0339 0.50001 60.3609 8.0758 67.937C10.1822 70.0434 12.6567 71.562 15.2935 72.4968V76.4866H4.32219C1.94435 76.4866 0.00976562 78.4212 0.00976562 80.7991C0.00976562 83.1769 1.94435 85.1115 4.32219 85.1115H40.3416C42.7194 85.1115 44.654 83.1769 44.654 80.7991C44.654 78.4212 42.7194 76.4866 40.3416 76.4866H29.3705V72.0965C31.6195 71.1511 33.7257 69.7658 35.5547 67.937L45.5953 57.8964C46.311 58.3669 47.1371 58.6021 47.9631 58.6021C49.0674 58.6021 50.1717 58.1816 51.0124 57.341C51.8269 56.5266 52.2755 55.4437 52.2755 54.2917C52.2755 53.4286 52.0236 52.6043 51.5548 51.9025L77.7868 44.4923C78.6736 44.2419 79.1896 43.3199 78.9389 42.4328ZM41.3164 80.7989C41.3164 81.3363 40.8792 81.7737 40.3416 81.7737H4.32219C3.78463 81.7737 3.34734 81.3363 3.34734 80.7989C3.34734 80.2615 3.78463 79.8241 4.32219 79.8241H40.3416C40.8792 79.8241 41.3164 80.2615 41.3164 80.7989ZM18.6307 76.4866V58.576C18.6307 56.5352 20.2911 54.8749 22.3319 54.8749C24.3727 54.8749 26.033 56.5352 26.033 58.576V76.4866H18.6307ZM33.1946 65.5769C32.049 66.7226 30.7608 67.6739 29.3705 68.415V58.576C29.3705 54.6949 26.213 51.5375 22.3319 51.5375C18.4508 51.5375 15.2933 54.6949 15.2933 58.576V68.918C13.5052 68.1254 11.8603 67.0017 10.4357 65.5769C7.39613 62.5373 5.7222 58.4962 5.7222 54.1974C5.7222 49.8987 7.39613 45.8576 10.4357 42.8178L20.4131 32.8405L43.1722 55.5994L33.1946 65.5769ZM48.6523 54.9811C48.2723 55.3612 47.6538 55.3612 47.2736 54.9811L21.0313 28.739C20.6513 28.3589 20.6512 27.7403 21.0313 27.3603C21.2154 27.1762 21.4603 27.0747 21.7206 27.0747C21.9811 27.0747 22.2258 27.1762 22.4099 27.3603L48.6522 53.6025C48.8363 53.7867 48.9377 54.0315 48.9377 54.2918C48.9379 54.5523 48.8365 54.797 48.6523 54.9811Z" fill="#FFB803"/>
<path d="M16.7938 44.2884C16.3664 44.2884 15.9393 44.1254 15.6134 43.7993C14.9619 43.1474 14.9623 42.0909 15.614 41.4392L16.0666 40.9867C16.7184 40.3352 17.7747 40.3352 18.4267 40.9867C19.0785 41.6385 19.0785 42.695 18.4267 43.3468L17.9735 43.8C17.6476 44.1255 17.2206 44.2884 16.7938 44.2884Z" fill="#E4E3E3"/>
<path d="M12.3523 48.7274C11.9252 48.7274 11.4982 48.5643 11.1723 48.2386C10.5207 47.587 10.5207 46.5303 11.1723 45.8786L12.4417 44.6092C13.0934 43.9577 14.1498 43.9577 14.8017 44.6092C15.4534 45.261 15.4534 46.3175 14.8017 46.9693L13.5324 48.2386C13.2065 48.5645 12.7795 48.7274 12.3523 48.7274Z" fill="#EEEAEA"/>
</svg>
