<svg width="554" height="103" viewBox="0 0 554 103" fill="none" xmlns="http://www.w3.org/2000/svg">
<g filter="url(#filter0_ddd_1312_18315)">
<rect x="5.74219" y="5" width="542.282" height="91.7601" rx="2.7597" fill="#53A9FF"/>
</g>
<g clip-path="url(#clip0_1312_18315)">
<path d="M88.7948 77.395C88.4753 77.395 88.156 77.2733 87.9124 77.0297L84.5491 73.6664C84.315 73.4323 84.1836 73.1151 84.1836 72.7843C84.1836 72.4533 84.315 72.1361 84.5491 71.9019L87.9124 68.5386C88.1463 68.305 88.4638 68.1731 88.7948 68.1731C89.1253 68.1731 89.4428 68.3045 89.6767 68.5386L93.04 71.9019C93.2741 72.1361 93.4055 72.4533 93.4055 72.7843C93.4055 73.1151 93.2741 73.4325 93.04 73.6664L89.6767 77.0297C89.4331 77.2733 89.1138 77.395 88.7948 77.395Z" fill="#0075EA"/>
<path d="M70.7436 19.0813C70.4246 19.0813 70.1053 18.9596 69.8617 18.7158L66.4984 15.3524C66.011 14.8652 66.011 14.0754 66.4984 13.5882L69.8617 10.2249C70.0956 9.99076 70.4131 9.85938 70.7436 9.85938C71.0746 9.85938 71.3921 9.99076 71.6259 10.2249L74.9893 13.5882C75.2234 13.8218 75.3548 14.1396 75.3548 14.4701C75.3548 14.8011 75.2234 15.1186 74.9893 15.3522L71.6259 18.7158C71.3823 18.9596 71.0628 19.0813 70.7436 19.0813Z" fill="#0075EA"/>
<path d="M48.3666 11.5975C46.3573 11.5975 44.7227 9.96288 44.7227 7.95378C44.7227 5.94443 46.3573 4.31006 48.3666 4.31006C50.3757 4.31006 52.0098 5.94443 52.0098 7.95378C52.0098 9.96288 50.3757 11.5975 48.3666 11.5975Z" fill="#0075EA"/>
<path d="M82.6214 44.9197C78.8886 44.9197 75.8516 41.8827 75.8516 38.1499C75.8516 34.4167 78.8886 31.3801 82.6214 31.3801C86.3541 31.3801 89.3907 34.4167 89.3907 38.1499C89.3907 41.8827 86.3541 44.9197 82.6214 44.9197V44.9197Z" fill="#0075EA"/>
<path d="M112.508 63.7262C113.161 63.7262 113.786 63.1526 113.756 62.4786C113.726 61.8028 113.208 61.231 112.508 61.231C111.856 61.231 111.23 61.8048 111.261 62.4786C111.291 63.1544 111.809 63.7262 112.508 63.7262Z" fill="#0075EA"/>
<path d="M113.624 68.1254C114.276 68.1254 114.901 67.5515 114.871 66.8778C114.841 66.2017 114.323 65.6301 113.624 65.6301C112.971 65.6301 112.346 66.2037 112.376 66.8778C112.406 67.5536 112.924 68.1254 113.624 68.1254V68.1254Z" fill="#0075EA"/>
<path d="M116.905 64.8415C117.558 64.8415 118.183 64.2674 118.153 63.5936C118.122 62.9177 117.604 62.3462 116.905 62.3462C116.252 62.3462 115.627 62.9198 115.657 63.5936C115.687 64.2697 116.206 64.8415 116.905 64.8415V64.8415Z" fill="#0075EA"/>
<path d="M31.2816 78.9989C31.9342 78.9989 32.5594 78.4251 32.5293 77.7513C32.4989 77.0755 31.981 76.5037 31.2816 76.5037C30.6293 76.5037 30.0039 77.0778 30.0343 77.7513C30.0644 78.4274 30.582 78.9989 31.2816 78.9989V78.9989Z" fill="#0075EA"/>
<path d="M32.3993 83.3981C33.0519 83.3981 33.6771 82.8242 33.6467 82.1505C33.6165 81.4744 33.0987 80.9031 32.3993 80.9031C31.7465 80.9031 31.1215 81.4767 31.1514 82.1505C31.1818 82.8265 31.6997 83.3981 32.3993 83.3981Z" fill="#0075EA"/>
<path d="M35.6801 80.1137C36.3329 80.1137 36.9579 79.5401 36.928 78.8663C36.8978 78.1902 36.3799 77.6187 35.6801 77.6187C35.0278 77.6187 34.4023 78.1922 34.4327 78.8663C34.4629 79.5421 34.9807 80.1137 35.6801 80.1137Z" fill="#0075EA"/>
<path d="M16.5952 6.83523C18.176 6.83523 19.6912 5.44573 19.6176 3.8135C19.5445 2.17569 18.29 0.790527 16.5952 0.790527C15.0144 0.790527 13.4998 2.18127 13.5729 3.8135C13.6465 5.45006 14.9011 6.83523 16.5952 6.83523Z" fill="#0075EA"/>
<path d="M5.94091 9.53689C7.52112 9.53689 9.03632 8.14615 8.96264 6.51392C8.88957 4.87735 7.63506 3.49219 5.94091 3.49219C4.36007 3.49219 2.84549 4.88169 2.91856 6.51392C2.99224 8.15172 4.24676 9.53689 5.94091 9.53689Z" fill="#0075EA"/>
<path d="M13.8954 17.4923C15.4769 17.4923 16.9908 16.1028 16.9178 14.4706C16.8447 12.8328 15.5896 11.4482 13.8954 11.4482C12.3152 11.4482 10.8 12.8384 10.8737 14.4706C10.9467 16.1084 12.2013 17.4923 13.8954 17.4923Z" fill="#0075EA"/>
<path d="M112.966 52.9645C112.721 52.3545 112.028 52.0583 111.418 52.3032C110.117 52.826 108.361 52.6489 106.835 51.842C106.273 51.5449 105.769 51.1822 105.339 50.7712C106.493 50.2958 107.399 49.496 107.957 48.4413L107.97 48.4157C108.421 47.5634 108.558 46.6009 108.354 45.7052C108.139 44.7574 107.547 43.9666 106.731 43.5348C105.085 42.6636 102.962 43.4361 101.999 45.2569L101.985 45.2823C101.427 46.337 101.276 47.5361 101.532 48.7569C100.95 48.633 100.367 48.4203 99.8051 48.1234C99.3763 47.8966 98.6228 47.2563 98.0523 46.6341C97.6074 46.1494 96.8547 46.1167 96.3703 46.5614C95.8858 47.0056 95.8529 47.7588 96.2976 48.2432C96.8871 48.8864 97.8682 49.7923 98.6921 50.2282C99.9551 50.8966 101.32 51.251 102.642 51.2654C103.397 52.3496 104.458 53.2782 105.721 53.9468C107.018 54.6327 108.424 54.9832 109.764 54.9832C110.657 54.9832 111.521 54.8278 112.305 54.5131C112.915 54.2678 113.211 53.5745 112.966 52.9645V52.9645ZM104.09 46.3955L104.103 46.3702C104.369 45.8687 104.843 45.555 105.265 45.555C105.39 45.555 105.509 45.5821 105.618 45.6394C105.894 45.7857 105.996 46.0738 106.032 46.2326C106.108 46.5685 106.048 46.9582 105.866 47.3024L105.852 47.3278C105.498 47.9976 104.845 48.4825 103.988 48.7203C103.702 47.8781 103.736 47.0653 104.09 46.3955Z" fill="#0075EA"/>
<path d="M37.318 92.4278C37.5483 92.2414 38.0887 91.9719 38.575 91.8008C38.9539 91.6676 39.1529 91.2527 39.0196 90.8737C38.8864 90.4951 38.4713 90.2961 38.0925 90.4293C37.5897 90.6062 36.8456 90.9397 36.4035 91.2976C35.7249 91.8465 35.1985 92.5278 34.8732 93.2664C34.0832 93.4304 33.3071 93.8032 32.6287 94.3521C31.4685 95.2908 30.7591 96.6221 30.7307 97.9132C30.7217 98.3144 31.04 98.647 31.4414 98.6558C31.4471 98.656 31.4524 98.656 31.4578 98.656C31.8519 98.656 32.1756 98.3408 32.1844 97.945C32.2031 97.0892 32.7238 96.1455 33.5432 95.4824C33.8446 95.2384 34.1692 95.0424 34.5033 94.8997C34.4937 95.6616 34.7252 96.3622 35.1839 96.9294L35.1945 96.9422C35.9856 97.92 37.3486 98.1332 38.2327 97.4178C38.6709 97.0631 38.9323 96.5196 38.95 95.9264C38.9667 95.3659 38.7717 94.8051 38.4011 94.3471L38.3903 94.3337C37.9318 93.7671 37.2949 93.3946 36.5478 93.2454C36.7571 92.9484 37.0166 92.6718 37.318 92.4278ZM37.2601 95.2485L37.2711 95.2618C37.4206 95.4468 37.5029 95.673 37.4965 95.8831C37.4936 95.9827 37.4665 96.1674 37.318 96.2876C37.0615 96.4951 36.6067 96.3761 36.3241 96.0269L36.3135 96.0141C36.0225 95.6543 35.9072 95.1712 35.9792 94.6328C36.5206 94.6748 36.9689 94.8885 37.2601 95.2485Z" fill="#0075EA"/>
<path d="M24.0334 23.7469C21.6153 23.9388 19.4685 25.2417 18.1186 27.2515C17.4382 28.2648 17.076 29.4155 16.9387 30.6195C16.793 31.9031 17.1856 36.0146 15.3169 36.2835C14.6722 36.3763 14.038 36.831 14.0695 37.5312C14.0984 38.1753 14.619 38.8179 15.3169 38.7788C16.6657 38.7026 17.7454 37.946 18.4611 36.8234C19.186 35.6857 19.3537 34.3434 19.3693 33.0225C19.3844 31.747 19.3713 30.5701 19.7972 29.3529C20.5239 27.7433 22.09 26.5412 23.833 26.2554C24.5446 26.2135 25.3163 25.8163 25.2808 24.9945C25.2529 24.3626 24.7302 23.6914 24.0334 23.7469V23.7469Z" fill="#0075EA"/>
<path fill-rule="evenodd" clip-rule="evenodd" d="M106.269 93.5744L104.805 91.6693L102.599 91.8311L102.365 89.6321L100.486 88.4665L101.588 86.5496L100.754 84.5021L102.772 83.5994L103.3 81.4518L105.463 81.9083L107.17 80.2172L108.635 82.1223L110.84 81.9605L111.075 84.1595L112.953 85.3251L111.851 87.242L112.686 89.2895L110.668 90.1922L110.14 92.3398L107.976 91.8833L106.269 93.5744ZM108.429 84.8833L108.43 84.8826L108.946 85.4732L105.014 88.9082L104.498 88.3176L106.758 86.3436L106.758 86.3424L108.429 84.8827L108.429 84.8833ZM107.009 88.4875C107.052 87.8402 107.615 87.3491 108.262 87.3927C108.909 87.4364 109.4 87.9985 109.357 88.6459C109.313 89.2933 108.751 89.7844 108.103 89.7407C107.456 89.697 106.965 89.1349 107.009 88.4875ZM107.791 88.5403C107.777 88.7561 107.94 88.9435 108.156 88.958C108.372 88.9726 108.559 88.8089 108.574 88.5931C108.589 88.3773 108.425 88.1899 108.209 88.1754C107.993 88.1608 107.806 88.3245 107.791 88.5403ZM105.34 84.0507C104.693 84.007 104.13 84.4981 104.087 85.1455C104.043 85.7928 104.534 86.355 105.182 86.3986C105.829 86.4423 106.391 85.9512 106.435 85.3039C106.478 84.6565 105.987 84.0944 105.34 84.0507ZM105.234 85.616C105.019 85.6014 104.855 85.414 104.869 85.1983C104.884 84.9825 105.071 84.8188 105.287 84.8333C105.503 84.8479 105.667 85.0353 105.652 85.2511C105.638 85.4668 105.45 85.6306 105.234 85.616Z" fill="#0075EA"/>
<path fill-rule="evenodd" clip-rule="evenodd" d="M42.7861 37.1315L40.3723 34.3947L37.0477 34.8653L36.4672 31.5575L33.502 29.9836L34.9759 26.9666L33.502 23.9497L36.4672 22.3758L37.0477 19.068L40.3723 19.5385L42.7861 16.8018L45.1999 19.5385L48.5245 19.068L49.105 22.3758L52.0702 23.9497L50.5963 26.9666L52.0702 29.9836L49.105 31.5575L48.5245 34.8653L45.1999 34.3947L42.7861 37.1315ZM39.5586 29.3477L45.1647 23.7416L45.1662 23.743L45.1675 23.7417L46.0098 24.5839L42.7852 27.8085V27.8053L40.4007 30.1898L39.5586 29.3477ZM43.3789 29.3486C43.3789 28.3633 44.1804 27.5618 45.1657 27.5618C46.151 27.5618 46.9525 28.3633 46.9525 29.3486C46.9525 30.3339 46.151 31.1354 45.1657 31.1354C44.1804 31.1354 43.3789 30.3339 43.3789 29.3486ZM44.5701 29.3486C44.5701 29.677 44.8373 29.9442 45.1657 29.9442C45.4941 29.9442 45.7613 29.677 45.7613 29.3486C45.7613 29.0202 45.4941 28.753 45.1657 28.753C44.8373 28.753 44.5701 29.0202 44.5701 29.3486ZM40.4001 22.7968C39.4148 22.7968 38.6133 23.5983 38.6133 24.5836C38.6133 25.5689 39.4148 26.3704 40.4001 26.3704C41.3854 26.3704 42.1869 25.5689 42.1869 24.5836C42.1869 23.5983 41.3854 22.7968 40.4001 22.7968ZM40.4001 25.1792C40.0717 25.1792 39.8045 24.912 39.8045 24.5836C39.8045 24.2552 40.0717 23.988 40.4001 23.988C40.7285 23.988 40.9957 24.2552 40.9957 24.5836C40.9957 24.912 40.7285 25.1792 40.4001 25.1792Z" fill="#0075EA"/>
<g clip-path="url(#clip1_1312_18315)">
<path d="M99.4858 16.6742L99.3521 16.3237C99.2753 16.1227 99.1567 15.9403 99.0043 15.7886C98.8518 15.6368 98.6689 15.519 98.4677 15.443C98.2664 15.367 98.0513 15.3345 97.8366 15.3477C97.6219 15.3608 97.4124 15.4193 97.2219 15.5193C97.0755 15.5961 96.906 15.6163 96.7456 15.5761C96.5853 15.5358 96.4453 15.438 96.3526 15.3011C96.3008 15.225 96.2652 15.139 96.2481 15.0486C96.2309 14.9581 96.2326 14.8651 96.2529 14.7753C96.2732 14.6855 96.3117 14.6009 96.3661 14.5266C96.4205 14.4523 96.4896 14.39 96.5691 14.3436L96.7931 14.2123C97.2038 13.9713 97.6689 13.8384 98.1449 13.8259C98.621 13.8134 99.0924 13.9217 99.5152 14.1408C99.9188 14.3498 100.266 14.6534 100.527 15.0255L103.947 19.9046C103.987 19.9618 104.009 20.0301 104.009 20.1003C104.01 20.1704 103.989 20.2389 103.949 20.2966C103.909 20.3543 103.852 20.3983 103.786 20.4227C103.721 20.4471 103.649 20.4506 103.581 20.4329L103.532 20.4203L99.4858 16.6742Z" fill="#0075EA"/>
<path d="M100.178 16.2084C99.9825 15.6401 99.5852 15.1634 99.0614 14.8689C99.0391 14.8566 99.0169 14.845 98.9947 14.8347C98.5718 14.6157 98.1004 14.5073 97.6244 14.5198C97.1484 14.5322 96.6833 14.665 96.2725 14.9058L96.2383 14.9263C96.2376 15.0612 96.2778 15.193 96.3535 15.3046C96.4464 15.4414 96.5864 15.5393 96.7468 15.5795C96.9072 15.6197 97.0768 15.5994 97.2232 15.5224C97.4137 15.4224 97.6232 15.3639 97.8379 15.3508C98.0526 15.3376 98.2677 15.3701 98.469 15.4461C98.6702 15.5221 98.8531 15.6399 99.0056 15.7917C99.158 15.9435 99.2766 16.1258 99.3534 16.3268L99.4871 16.6773L100.656 17.5726L100.178 16.2084Z" fill="#0075EA"/>
<path d="M100.005 16.2299C99.7442 15.8578 99.3976 15.5541 98.9944 15.3449C98.5715 15.126 98.1001 15.0178 97.6241 15.0303C97.1481 15.0428 96.683 15.1756 96.2722 15.4164L96.0476 15.548C95.9683 15.5945 95.8995 15.6568 95.8453 15.7309C95.7911 15.8051 95.7527 15.8895 95.7324 15.9791C95.7122 16.0687 95.7105 16.1615 95.7275 16.2518C95.7446 16.342 95.7799 16.4278 95.8314 16.5039C95.9243 16.6404 96.0642 16.7381 96.2245 16.7782C96.3847 16.8183 96.5541 16.7981 96.7004 16.7214C96.8908 16.6213 97.1003 16.5628 97.3151 16.5496C97.5298 16.5364 97.7448 16.5689 97.9461 16.6449C98.1473 16.7209 98.3302 16.8387 98.4826 16.9905C98.635 17.1423 98.7535 17.3248 98.8303 17.5257L98.9643 17.8762C99.1267 18.3022 99.1264 18.7732 98.9634 19.1989C98.8003 19.6247 98.486 19.9754 98.0806 20.1839L96.0841 21.1907C95.9632 21.2529 95.8636 21.3499 95.7984 21.4692C95.7331 21.5885 95.705 21.7246 95.7179 21.86C95.7541 22.2427 96.1218 22.5193 96.5044 22.4715L98.6641 22.1979C99.0514 22.149 99.4448 22.1958 99.8099 22.3341C100.175 22.4724 100.501 22.698 100.758 22.9913L101.482 23.8144L103.543 26.3126C103.56 26.3332 103.582 26.3485 103.608 26.3565C103.633 26.3645 103.66 26.3649 103.686 26.3576C103.712 26.3503 103.735 26.3357 103.752 26.3156C103.769 26.2954 103.781 26.2706 103.784 26.2442L104.464 20.7978C104.474 20.7134 104.453 20.6281 104.405 20.5584L103.716 19.5766L100.005 16.2299Z" fill="#0075EA"/>
<path d="M93.279 12.9279C93.2308 12.9279 93.1835 12.9143 93.1427 12.8888C93.1018 12.8632 93.0689 12.8266 93.0479 12.7832L92.4005 11.4495C92.3852 11.4191 92.3761 11.3859 92.3737 11.352C92.3713 11.318 92.3757 11.2839 92.3866 11.2517C92.3975 11.2194 92.4147 11.1897 92.4372 11.1642C92.4597 11.1386 92.4871 11.1178 92.5177 11.1029C92.5483 11.0881 92.5816 11.0794 92.6156 11.0775C92.6496 11.0757 92.6836 11.0805 92.7157 11.0919C92.7477 11.1033 92.7772 11.1209 92.8025 11.1438C92.8277 11.1666 92.8481 11.1943 92.8625 11.2251L93.5099 12.5589C93.5288 12.598 93.5374 12.6413 93.5351 12.6847C93.5327 12.7281 93.5194 12.7702 93.4963 12.8071C93.4733 12.8439 93.4412 12.8743 93.4032 12.8955C93.3652 12.9166 93.3225 12.9277 93.279 12.9279V12.9279Z" fill="#0075EA"/>
<path d="M95.7122 12.4144C95.6441 12.4144 95.5788 12.3873 95.5306 12.3391C95.4825 12.291 95.4554 12.2256 95.4554 12.1575V10.8238C95.4536 10.789 95.4589 10.7542 95.471 10.7215C95.4831 10.6888 95.5017 10.6589 95.5257 10.6337C95.5497 10.6084 95.5786 10.5883 95.6106 10.5745C95.6426 10.5608 95.6771 10.5537 95.7119 10.5537C95.7468 10.5537 95.7812 10.5608 95.8132 10.5745C95.8453 10.5883 95.8741 10.6084 95.8981 10.6337C95.9221 10.6589 95.9407 10.6888 95.9528 10.7215C95.9649 10.7542 95.9702 10.789 95.9684 10.8238V12.1575C95.9684 12.2255 95.9414 12.2907 95.8934 12.3389C95.8454 12.387 95.7802 12.4142 95.7122 12.4144V12.4144Z" fill="#0075EA"/>
<path d="M98.1471 12.9279C98.1036 12.9277 98.0608 12.9166 98.0228 12.8955C97.9849 12.8743 97.9528 12.8439 97.9298 12.8071C97.9067 12.7702 97.8934 12.7281 97.891 12.6847C97.8886 12.6413 97.8973 12.598 97.9162 12.5589L98.5636 11.2251C98.5784 11.1947 98.5991 11.1676 98.6244 11.1452C98.6497 11.1228 98.6792 11.1056 98.7111 11.0946C98.7431 11.0836 98.7769 11.079 98.8107 11.081C98.8444 11.0831 98.8774 11.0918 98.9078 11.1066C98.9382 11.1214 98.9653 11.1421 98.9877 11.1674C99.0101 11.1927 99.0273 11.2222 99.0383 11.2542C99.0493 11.2861 99.0539 11.32 99.0519 11.3537C99.0498 11.3874 99.0411 11.4204 99.0263 11.4508L98.3789 12.7846C98.3576 12.8278 98.3246 12.8642 98.2836 12.8895C98.2426 12.9148 98.1953 12.9281 98.1471 12.9279V12.9279Z" fill="#0075EA"/>
<path d="M100.928 13.8017C100.889 13.8018 100.851 13.7929 100.816 13.7757C100.755 13.7461 100.708 13.6934 100.686 13.6293C100.664 13.5652 100.668 13.4949 100.697 13.4337L101.056 12.6961C101.07 12.6652 101.091 12.6376 101.116 12.6147C101.141 12.5918 101.17 12.5742 101.203 12.5628C101.235 12.5515 101.269 12.5466 101.303 12.5485C101.337 12.5504 101.37 12.559 101.4 12.5739C101.431 12.5888 101.458 12.6096 101.481 12.6351C101.503 12.6606 101.521 12.6904 101.532 12.7226C101.542 12.7549 101.547 12.789 101.544 12.8229C101.542 12.8569 101.533 12.89 101.518 12.9204L101.159 13.657C101.138 13.7004 101.105 13.737 101.064 13.7626C101.024 13.7882 100.976 13.8017 100.928 13.8017V13.8017Z" fill="#0075EA"/>
<path d="M90.4998 13.8018C90.4516 13.8017 90.4044 13.7882 90.3635 13.7626C90.3226 13.737 90.2897 13.7005 90.2686 13.6571L89.9102 12.9194C89.8949 12.889 89.8858 12.8559 89.8834 12.8219C89.8811 12.788 89.8854 12.7539 89.8964 12.7217C89.9073 12.6894 89.9245 12.6597 89.947 12.6341C89.9695 12.6086 89.9968 12.5878 90.0275 12.5729C90.0581 12.558 90.0913 12.5494 90.1253 12.5475C90.1593 12.5456 90.1933 12.5505 90.2254 12.5619C90.2575 12.5732 90.287 12.5909 90.3122 12.6137C90.3374 12.6366 90.3578 12.6643 90.3723 12.6951L90.7307 13.4328C90.7601 13.4939 90.7642 13.5642 90.742 13.6283C90.7197 13.6923 90.673 13.745 90.612 13.7747C90.5772 13.7922 90.5388 13.8015 90.4998 13.8018V13.8018Z" fill="#0075EA"/>
<path d="M91.9377 16.6742L92.0714 16.3237C92.1482 16.1227 92.2668 15.9403 92.4192 15.7886C92.5717 15.6368 92.7545 15.519 92.9558 15.443C93.1571 15.367 93.3721 15.3345 93.5869 15.3477C93.8016 15.3608 94.0111 15.4193 94.2016 15.5193C94.348 15.5961 94.5175 15.6163 94.6779 15.5761C94.8382 15.5358 94.9781 15.438 95.0709 15.3011C95.1227 15.225 95.1582 15.139 95.1754 15.0486C95.1925 14.9581 95.1909 14.8651 95.1706 14.7753C95.1503 14.6855 95.1118 14.6009 95.0574 14.5266C95.003 14.4523 94.9339 14.39 94.8544 14.3436L94.6304 14.2123C94.2197 13.9713 93.7546 13.8384 93.2785 13.8259C92.8025 13.8134 92.3311 13.9217 91.9082 14.1408C91.5047 14.3498 91.1576 14.6534 90.8967 15.0255L87.4768 19.9046C87.4363 19.9618 87.4144 20.0301 87.4141 20.1003C87.4137 20.1704 87.4349 20.2389 87.4748 20.2966C87.5147 20.3543 87.5714 20.3983 87.6371 20.4227C87.7029 20.4471 87.7746 20.4506 87.8424 20.4329L87.8917 20.4203L91.9377 16.6742Z" fill="#0075EA"/>
<path d="M91.2469 16.2084C91.4423 15.6401 91.8397 15.1634 92.3635 14.8689C92.3857 14.8566 92.408 14.845 92.4302 14.8347C92.853 14.6157 93.3244 14.5073 93.8004 14.5198C94.2765 14.5322 94.7416 14.665 95.1524 14.9058L95.1866 14.9263C95.1872 15.0612 95.147 15.193 95.0713 15.3046C94.9785 15.4414 94.8385 15.5393 94.6781 15.5795C94.5177 15.6197 94.3481 15.5994 94.2017 15.5224C94.0112 15.4224 93.8017 15.3639 93.587 15.3508C93.3722 15.3376 93.1571 15.3701 92.9559 15.4461C92.7546 15.5221 92.5717 15.6399 92.4193 15.7917C92.2669 15.9435 92.1483 16.1258 92.0715 16.3268L91.9377 16.6773L90.7695 17.5695L91.2469 16.2084Z" fill="#0075EA"/>
<path d="M91.4185 16.2299C91.679 15.8578 92.0256 15.5541 92.4288 15.3449C92.8516 15.126 93.323 15.0178 93.799 15.0303C94.275 15.0428 94.7401 15.1756 95.1509 15.4164L95.3756 15.548C95.4548 15.5945 95.5237 15.6568 95.5779 15.7309C95.6321 15.8051 95.6705 15.8895 95.6907 15.9791C95.711 16.0687 95.7127 16.1615 95.6956 16.2518C95.6786 16.342 95.6432 16.4278 95.5918 16.5039C95.4988 16.6404 95.3589 16.7381 95.1987 16.7782C95.0385 16.8183 94.8691 16.7981 94.7228 16.7214C94.5323 16.6213 94.3228 16.5628 94.1081 16.5496C93.8934 16.5364 93.6783 16.5689 93.4771 16.6449C93.2758 16.7209 93.093 16.8387 92.9406 16.9905C92.7882 17.1423 92.6697 17.3248 92.5929 17.5257L92.4588 17.8762C92.2964 18.3022 92.2968 18.7732 92.4598 19.1989C92.6228 19.6247 92.9371 19.9754 93.3425 20.1839L95.339 21.1901C95.46 21.2522 95.5595 21.3492 95.6248 21.4685C95.6901 21.5878 95.7181 21.7239 95.7053 21.8593C95.669 22.242 95.3014 22.5187 94.9187 22.4708L92.7591 22.1972C92.3718 22.1483 91.9784 22.1951 91.6133 22.3334C91.2482 22.4717 90.9225 22.6974 90.6648 22.9906L89.9425 23.8131L87.8804 26.3126C87.8635 26.3332 87.841 26.3485 87.8155 26.3565C87.7901 26.3645 87.7629 26.3649 87.7372 26.3576C87.7116 26.3503 87.6886 26.3357 87.6712 26.3156C87.6537 26.2954 87.6425 26.2706 87.6389 26.2442L86.9598 20.7961C86.949 20.7117 86.9701 20.6264 87.0189 20.5567L87.7094 19.5752L91.4185 16.2299Z" fill="#0075EA"/>
</g>
<g clip-path="url(#clip2_1312_18315)">
<path d="M12.6542 88.4453L12.8209 88.1091C12.9163 87.9163 12.9697 87.7055 12.9777 87.4905C12.9857 87.2755 12.9481 87.0613 12.8673 86.8619C12.7865 86.6625 12.6644 86.4825 12.509 86.3337C12.3536 86.185 12.1684 86.0708 11.9657 85.9988C11.8099 85.9435 11.68 85.8327 11.6007 85.6876C11.5214 85.5425 11.4983 85.3733 11.5359 85.2123C11.5566 85.1226 11.5956 85.0382 11.6504 84.9642C11.7052 84.8902 11.7746 84.8283 11.8543 84.7822C11.934 84.7362 12.0224 84.707 12.1138 84.6965C12.2053 84.6861 12.2979 84.6945 12.386 84.7214L12.6345 84.7967C13.0902 84.9348 13.5035 85.1862 13.8358 85.5273C14.1681 85.8684 14.4085 86.2881 14.5346 86.7473C14.6551 87.1856 14.6677 87.6465 14.5715 88.0907L13.3097 93.9138C13.2952 93.9824 13.2599 94.0448 13.2086 94.0927C13.1574 94.1405 13.0926 94.1715 13.0232 94.1813C12.9537 94.1912 12.883 94.1794 12.8204 94.1477C12.7579 94.116 12.7066 94.0658 12.6736 94.0039L12.6494 93.9592L12.6542 88.4453Z" fill="#0075EA"/>
<path d="M13.4645 88.6369C13.7492 88.1077 13.8296 87.4923 13.6903 86.9077C13.6843 86.883 13.6777 86.8588 13.6702 86.8355C13.544 86.3764 13.3036 85.9566 12.9714 85.6155C12.6392 85.2744 12.2259 85.023 11.7702 84.8847L11.732 84.8736C11.6325 84.9646 11.563 85.0836 11.5324 85.2149C11.4949 85.376 11.5181 85.5452 11.5975 85.6903C11.6768 85.8354 11.8069 85.9461 11.9627 86.0014C12.1655 86.0734 12.3506 86.1876 12.506 86.3363C12.6614 86.4851 12.7836 86.6651 12.8644 86.8645C12.9452 87.0639 12.9828 87.2781 12.9748 87.4931C12.9668 87.7081 12.9133 87.9189 12.8179 88.1117L12.6513 88.4479L12.7869 89.9137L13.4645 88.6369Z" fill="#0075EA"/>
<path d="M13.3308 88.5253C13.4273 88.0814 13.4151 87.6208 13.295 87.1827C13.1687 86.7236 12.9283 86.3039 12.596 85.9628C12.2637 85.6218 11.8505 85.3704 11.3949 85.2321L11.1457 85.1565C11.0578 85.1299 10.9653 85.1216 10.8741 85.1321C10.7829 85.1426 10.6947 85.1718 10.6152 85.2177C10.5357 85.2636 10.4664 85.3254 10.4117 85.3991C10.3569 85.4729 10.3179 85.5571 10.297 85.6465C10.2598 85.8075 10.2831 85.9765 10.3624 86.1214C10.4417 86.2663 10.5715 86.3769 10.7271 86.4323C10.9299 86.5043 11.115 86.6184 11.2705 86.7671C11.4259 86.9158 11.548 87.0958 11.6288 87.2952C11.7096 87.4946 11.7472 87.7088 11.7391 87.9238C11.7311 88.1388 11.6776 88.3496 11.5821 88.5424L11.4157 88.8787C11.2131 89.2872 10.867 89.6066 10.4437 89.7758C10.0204 89.9451 9.54949 89.9523 9.12116 89.7961L7.02668 89.0133C6.89893 88.9667 6.76014 88.9594 6.62821 88.9925C6.49629 89.0255 6.37729 89.0973 6.28659 89.1986C6.03017 89.485 6.07653 89.9428 6.37143 90.1913L8.03819 91.5916C8.33697 91.8428 8.56965 92.1635 8.71588 92.5255C8.86211 92.8875 8.91745 93.2798 8.87705 93.6681L8.76349 94.7579L8.32789 97.9672C8.3242 97.9936 8.3283 98.0205 8.33969 98.0446C8.35109 98.0687 8.36927 98.089 8.39202 98.1029C8.41476 98.1168 8.44108 98.1237 8.46772 98.1229C8.49437 98.122 8.52018 98.1134 8.542 98.0981L13.0029 94.9004C13.0721 94.851 13.1205 94.7776 13.1385 94.6944L13.3921 93.5222L13.3308 88.5253Z" fill="#0075EA"/>
<path d="M11.1933 81.3456C11.1606 81.3102 11.1385 81.2663 11.1295 81.2189C11.1205 81.1715 11.1251 81.1225 11.1427 81.0776L11.6827 79.6969C11.6946 79.6651 11.7128 79.6359 11.7361 79.6111C11.7594 79.5863 11.7874 79.5664 11.8185 79.5525C11.8496 79.5386 11.8831 79.531 11.9172 79.5302C11.9512 79.5294 11.985 79.5354 12.0167 79.5478C12.0484 79.5602 12.0774 79.5788 12.1018 79.6024C12.1263 79.6261 12.1458 79.6544 12.1592 79.6857C12.1726 79.717 12.1797 79.7506 12.18 79.7846C12.1803 79.8187 12.1739 79.8524 12.161 79.884L11.621 81.2646C11.6051 81.3051 11.5792 81.3408 11.5457 81.3686C11.5122 81.3963 11.4722 81.4151 11.4295 81.4232C11.3868 81.4312 11.3427 81.4284 11.3014 81.4148C11.2601 81.4012 11.2229 81.3774 11.1933 81.3456V81.3456Z" fill="#0075EA"/>
<path d="M13.2222 82.7848C13.176 82.7348 13.1515 82.6684 13.1542 82.6004C13.1569 82.5323 13.1865 82.4681 13.2365 82.4218L14.216 81.5166C14.2403 81.4916 14.2694 81.4719 14.3016 81.4586C14.3338 81.4453 14.3684 81.4387 14.4033 81.4391C14.4381 81.4396 14.4725 81.4472 14.5043 81.4613C14.5361 81.4755 14.5647 81.496 14.5884 81.5216C14.612 81.5472 14.6302 81.5773 14.6419 81.6102C14.6535 81.643 14.6583 81.6779 14.6561 81.7127C14.6538 81.7474 14.6445 81.7814 14.6287 81.8124C14.6129 81.8435 14.5909 81.871 14.5641 81.8933L13.5847 82.7986C13.5348 82.8447 13.4686 82.8692 13.4006 82.8666C13.3327 82.864 13.2685 82.8346 13.2222 82.7848V82.7848Z" fill="#0075EA"/>
<path d="M14.4971 84.9214C14.4677 84.8894 14.4469 84.8504 14.4366 84.8082C14.4264 84.766 14.4269 84.7218 14.4384 84.6799C14.4498 84.6379 14.4716 84.5995 14.5019 84.5683C14.5322 84.5371 14.5699 84.5141 14.6114 84.5014L16.0303 84.0716C16.0627 84.0618 16.0966 84.0586 16.1303 84.062C16.1639 84.0653 16.1965 84.0753 16.2263 84.0913C16.2561 84.1073 16.2824 84.129 16.3038 84.1552C16.3252 84.1814 16.3412 84.2115 16.351 84.2439C16.3607 84.2763 16.364 84.3103 16.3606 84.3439C16.3572 84.3775 16.3472 84.4102 16.3312 84.4399C16.3152 84.4697 16.2935 84.496 16.2673 84.5174C16.2411 84.5388 16.211 84.5548 16.1786 84.5646L14.7598 84.9944C14.7135 85.0081 14.6644 85.0085 14.618 84.9956C14.5715 84.9827 14.5297 84.957 14.4971 84.9214V84.9214Z" fill="#0075EA"/>
<path d="M15.7416 87.5552C15.7152 87.5267 15.6958 87.4926 15.6848 87.4554C15.6651 87.3904 15.672 87.3203 15.7039 87.2605C15.7359 87.2006 15.7902 87.1558 15.8551 87.1359L16.6401 86.8984C16.6725 86.8881 16.7067 86.8843 16.7406 86.8873C16.7745 86.8903 16.8075 86.9 16.8376 86.9158C16.8677 86.9317 16.8944 86.9533 16.9161 86.9796C16.9378 87.0058 16.954 87.0361 16.9639 87.0687C16.9737 87.1013 16.977 87.1355 16.9736 87.1693C16.9701 87.2032 16.9599 87.236 16.9436 87.2659C16.9274 87.2958 16.9053 87.3222 16.8787 87.3435C16.8522 87.3648 16.8217 87.3806 16.789 87.39L16.0047 87.6268C15.9586 87.6407 15.9094 87.6414 15.8629 87.6288C15.8163 87.6161 15.7743 87.5906 15.7416 87.5552V87.5552Z" fill="#0075EA"/>
<path d="M8.66345 79.8982C8.63073 79.8628 8.60862 79.8189 8.59966 79.7715C8.5907 79.7241 8.59524 79.6752 8.61276 79.6302L8.91121 78.8664C8.92315 78.8345 8.94131 78.8053 8.96462 78.7805C8.98794 78.7557 9.01595 78.7358 9.04703 78.7219C9.07811 78.708 9.11164 78.7005 9.14567 78.6997C9.1797 78.6989 9.21355 78.7048 9.24525 78.7172C9.27695 78.7296 9.30587 78.7482 9.33033 78.7719C9.35479 78.7955 9.37431 78.8238 9.38773 78.8551C9.40116 78.8864 9.40824 78.92 9.40855 78.9541C9.40886 78.9881 9.40241 79.0219 9.38956 79.0534L9.09111 79.8173C9.06624 79.8804 9.01737 79.9311 8.9552 79.9583C8.89304 79.9854 8.82264 79.9869 8.75942 79.9622C8.72294 79.9486 8.6901 79.9266 8.66345 79.8982V79.8982Z" fill="#0075EA"/>
<path d="M7.52683 82.9024L7.87501 82.7627C8.07473 82.6827 8.28913 82.646 8.50407 82.6549C8.71902 82.6638 8.92964 82.7182 9.12205 82.8144C9.31446 82.9106 9.48431 83.0465 9.62039 83.2131C9.75648 83.3798 9.85572 83.5733 9.91157 83.7811C9.95453 83.9407 10.0548 84.0789 10.1932 84.1694C10.3315 84.2598 10.4984 84.2961 10.6619 84.2714C10.7529 84.2577 10.8402 84.2255 10.9182 84.1767C10.9963 84.1279 11.0635 84.0636 11.1157 83.9877C11.1678 83.9119 11.2038 83.8261 11.2215 83.7357C11.2391 83.6454 11.2379 83.5524 11.2181 83.4625L11.1625 83.2088C11.0606 82.7437 10.8426 82.3119 10.5286 81.9538C10.2147 81.5958 9.81517 81.3231 9.36732 81.1612C8.93987 81.0067 8.48141 80.9579 8.031 81.0189L2.12676 81.8191C2.05723 81.8282 1.99218 81.8585 1.94044 81.9059C1.88869 81.9532 1.85275 82.0153 1.83748 82.0837C1.82221 82.1522 1.82836 82.2237 1.85508 82.2885C1.88181 82.3534 1.92782 82.4084 1.98688 82.4462L2.0296 82.4738L7.52683 82.9024Z" fill="#0075EA"/>
<path d="M7.40353 82.0787C7.95349 81.8365 8.57329 81.8047 9.14513 81.9895C9.16926 81.9975 9.19289 82.0059 9.21551 82.0153C9.66334 82.1771 10.0629 82.4497 10.3768 82.8078C10.6908 83.1658 10.909 83.5975 11.011 84.0626L11.0191 84.1017C10.9205 84.1936 10.7964 84.2536 10.6631 84.2738C10.4996 84.2985 10.3327 84.2621 10.1943 84.1716C10.0559 84.081 9.95571 83.9427 9.91285 83.783C9.85699 83.5752 9.75776 83.3816 9.62167 83.215C9.48559 83.0484 9.31574 82.9125 9.12333 82.8163C8.93091 82.7201 8.7203 82.6657 8.50535 82.6568C8.2904 82.6479 8.07601 82.6846 7.87628 82.7646L7.5281 82.9043L6.07995 82.652L7.40353 82.0787Z" fill="#0075EA"/>
<path d="M7.502 82.2195C7.95209 82.1581 8.41033 82.2066 8.83764 82.3606C9.28541 82.5226 9.68487 82.7954 9.99877 83.1534C10.3127 83.5114 10.5308 83.9431 10.6328 84.4082L10.6887 84.6626C10.7083 84.7523 10.7093 84.8451 10.6916 84.9353C10.6739 85.0254 10.638 85.1109 10.5859 85.1866C10.5339 85.2623 10.4669 85.3265 10.3891 85.3753C10.3112 85.424 10.2242 85.4563 10.1334 85.4701C9.97005 85.4946 9.8034 85.4581 9.66518 85.3677C9.52696 85.2772 9.42684 85.1391 9.38387 84.9796C9.32808 84.7718 9.22888 84.5782 9.09282 84.4116C8.95676 84.245 8.78692 84.1091 8.59451 84.0129C8.4021 83.9167 8.19148 83.8623 7.97654 83.8535C7.7616 83.8446 7.54722 83.8814 7.34753 83.9614L6.99912 84.1009C6.57604 84.2708 6.23045 84.5907 6.02844 84.9994C5.82644 85.4081 5.78221 85.8769 5.90422 86.3162L6.52048 88.4653C6.55694 88.5963 6.55328 88.7352 6.50999 88.8641C6.46669 88.9931 6.38575 89.106 6.2776 89.1885C5.97197 89.4216 5.51927 89.3394 5.29468 89.0259L4.02975 87.2543C3.80272 86.9366 3.50135 86.6795 3.15198 86.5053C2.80261 86.331 2.41588 86.245 2.0256 86.2548L0.931361 86.2826L-2.30392 86.4648C-2.33053 86.4664 -2.35703 86.4602 -2.38016 86.447C-2.40329 86.4337 -2.42205 86.414 -2.43412 86.3902C-2.44619 86.3665 -2.45106 86.3397 -2.44812 86.3132C-2.44518 86.2867 -2.43456 86.2616 -2.41757 86.2411L1.12237 82.0444C1.17705 81.9792 1.25404 81.9368 1.33833 81.9254L2.52776 81.7662L7.502 82.2195Z" fill="#0075EA"/>
</g>
<g clip-path="url(#clip3_1312_18315)">
<path d="M18.0561 57.3025C18.0373 56.9897 17.7779 56.7459 17.4646 56.7465H15.0987V54.972C15.0987 53.3387 13.7746 52.0146 12.1413 52.0146C10.508 52.0146 9.18391 53.3387 9.18391 54.972V56.7465H6.818C6.50471 56.7459 6.24531 56.9897 6.22653 57.3025L5.70603 66.701C5.6505 67.6794 6.39865 68.5176 7.37706 68.5732C7.41148 68.5751 7.44597 68.5761 7.48046 68.576H16.8081C17.7881 68.5776 18.5838 67.7844 18.5853 66.8044C18.5854 66.7699 18.5845 66.7355 18.5825 66.701L18.0561 57.3025ZM10.3669 54.972C10.3669 53.992 11.1613 53.1976 12.1413 53.1976C13.1213 53.1976 13.9157 53.992 13.9157 54.972V56.7465H10.3669V54.972Z" fill="#0075EA"/>
</g>
<g clip-path="url(#clip4_1312_18315)">
<path d="M31.0678 51.6951C31.0623 51.6039 30.9867 51.5328 30.8953 51.533H30.2052V51.0154C30.2052 50.539 29.8191 50.1528 29.3427 50.1528C28.8663 50.1528 28.4801 50.539 28.4801 51.0154V51.533H27.79C27.6986 51.5328 27.623 51.6039 27.6175 51.6951L27.4657 54.4364C27.4495 54.7218 27.6677 54.9663 27.9531 54.9825C27.9631 54.983 27.9732 54.9833 27.9832 54.9833H30.7038C30.9897 54.9837 31.2217 54.7524 31.2222 54.4666C31.2222 54.4565 31.2219 54.4464 31.2214 54.4364L31.0678 51.6951ZM28.8251 51.0154C28.8251 50.7296 29.0568 50.4979 29.3427 50.4979C29.6285 50.4979 29.8602 50.7296 29.8602 51.0154V51.533H28.8251V51.0154Z" fill="#0075EA"/>
</g>
<g clip-path="url(#clip5_1312_18315)">
<path d="M67.0487 90.3489C67.0319 90.069 66.7998 89.8509 66.5195 89.8514H64.4027V88.2638C64.4027 86.8024 63.218 85.6177 61.7566 85.6177C60.2952 85.6177 59.1105 86.8024 59.1105 88.2638V89.8514H56.9936C56.7133 89.8509 56.4812 90.069 56.4644 90.3489L55.9987 98.7581C55.949 99.6336 56.6184 100.384 57.4938 100.433C57.5246 100.435 57.5555 100.436 57.5863 100.436H65.9321C66.8089 100.437 67.5209 99.7275 67.5223 98.8506C67.5224 98.8198 67.5215 98.7889 67.5197 98.7581L67.0487 90.3489ZM60.1689 88.2638C60.1689 87.3869 60.8797 86.6761 61.7566 86.6761C62.6334 86.6761 63.3442 87.3869 63.3442 88.2638V89.8514H60.1689V88.2638Z" fill="#0075EA"/>
</g>
<path d="M84.4854 86.8214C85.1336 86.8214 85.7553 86.2509 85.725 85.5812C85.6951 84.9098 85.1804 84.3416 84.4854 84.3416C83.8366 84.3416 83.2154 84.9116 83.2452 85.5812C83.2754 86.2531 83.7903 86.8214 84.4854 86.8214V86.8214Z" fill="#107DEB"/>
<path d="M80.114 87.9293C80.7626 87.9293 81.3839 87.3593 81.354 86.6896C81.324 86.0177 80.8093 85.45 80.114 85.45C79.4655 85.45 78.8441 86.02 78.8741 86.6896C78.9043 87.3615 79.419 87.9293 80.114 87.9293V87.9293Z" fill="#107DEB"/>
<path d="M83.3775 91.1932C84.0263 91.1932 84.6474 90.6232 84.6176 89.9536C84.5874 89.2816 84.0725 88.7136 83.3775 88.7136C82.7292 88.7136 82.1075 89.2837 82.1378 89.9536C82.1678 90.6252 82.6824 91.1932 83.3775 91.1932V91.1932Z" fill="#107DEB"/>
</g>
<g clip-path="url(#clip6_1312_18315)">
<path d="M63.7492 33.6412C60.7072 31.765 57.1026 30.7334 53.3789 30.7334C43.2427 30.7334 34.7227 38.2852 34.7227 47.9546C34.7227 51.3448 35.7758 54.5947 37.7764 57.4015L34.9817 66.1753C34.6865 67.1021 35.3807 68.046 36.3494 68.046C36.5709 68.046 36.7938 67.9948 36.9995 67.8901L45.4983 63.5689C45.8425 63.7171 46.1909 63.8549 46.5429 63.9829C44.5752 60.9116 43.5246 57.3861 43.5246 53.695C43.5246 42.7024 52.7741 34.2515 63.7492 33.6412Z" fill="white"/>
<path d="M80.6554 63.142C82.6559 60.3352 83.7091 57.0853 83.7091 53.6951C83.7091 44.0221 75.1854 36.4739 65.0528 36.4739C54.9166 36.4739 46.3965 44.0257 46.3965 53.6951C46.3965 63.368 54.9202 70.9163 65.0528 70.9163C67.7715 70.9163 70.4805 70.3622 72.9329 69.3092L81.4322 73.6306C81.948 73.8929 82.571 73.8197 83.012 73.4449C83.453 73.0702 83.6257 72.4672 83.4501 71.9159L80.6554 63.142ZM59.2167 55.1302C58.4242 55.1302 57.7816 54.4876 57.7816 53.6951C57.7816 52.9025 58.4242 52.26 59.2167 52.26C60.0093 52.26 60.6518 52.9025 60.6518 53.6951C60.6518 54.4876 60.0093 55.1302 59.2167 55.1302ZM64.9571 55.1302C64.1645 55.1302 63.522 54.4876 63.522 53.6951C63.522 52.9025 64.1645 52.26 64.9571 52.26C65.7497 52.26 66.3922 52.9025 66.3922 53.6951C66.3922 54.4876 65.7497 55.1302 64.9571 55.1302ZM70.6975 55.1302C69.9049 55.1302 69.2624 54.4876 69.2624 53.6951C69.2624 52.9025 69.9049 52.26 70.6975 52.26C71.4901 52.26 72.1326 52.9025 72.1326 53.6951C72.1326 54.4876 71.4901 55.1302 70.6975 55.1302Z" fill="white"/>
</g>
<path d="M179.095 44.7029V60.0469H176.578V49.5379L171.898 60.0469H170.154L165.451 49.5379V60.0469H162.934V44.7029H165.65L171.037 56.7352L176.402 44.7029H179.095ZM193.354 47.8821L185.891 65.765H183.286L185.759 59.8482L180.968 47.8821H183.772L187.194 57.1547L190.748 47.8821H193.354ZM199.668 60.2456C198.712 60.2456 197.851 60.0763 197.085 59.7378C196.335 59.3845 195.739 58.9136 195.297 58.3248C194.856 57.7214 194.62 57.0517 194.591 56.3158H197.196C197.24 56.8309 197.483 57.2651 197.924 57.6183C198.381 57.9569 198.947 58.1261 199.624 58.1261C200.331 58.1261 200.875 57.9937 201.258 57.7287C201.655 57.4491 201.854 57.0958 201.854 56.669C201.854 56.2127 201.633 55.8742 201.192 55.6534C200.765 55.4327 200.081 55.1898 199.139 54.9249C198.226 54.6747 197.483 54.4318 196.909 54.1963C196.335 53.9608 195.834 53.6002 195.407 53.1145C194.995 52.6288 194.789 51.9885 194.789 51.1937C194.789 50.5461 194.981 49.9574 195.363 49.4275C195.746 48.883 196.291 48.4561 196.997 48.147C197.718 47.8379 198.542 47.6834 199.47 47.6834C200.853 47.6834 201.965 48.0366 202.803 48.7431C203.657 49.4349 204.113 50.3842 204.172 51.5911H201.655C201.611 51.0466 201.39 50.6124 200.993 50.2886C200.596 49.9648 200.058 49.8029 199.381 49.8029C198.719 49.8029 198.211 49.928 197.858 50.1782C197.505 50.4284 197.328 50.7596 197.328 51.1717C197.328 51.4955 197.446 51.7678 197.681 51.9885C197.917 52.2093 198.204 52.3859 198.542 52.5184C198.881 52.6362 199.381 52.7907 200.044 52.982C200.927 53.2175 201.648 53.4604 202.207 53.7106C202.781 53.9461 203.274 54.2993 203.687 54.7703C204.099 55.2413 204.312 55.8668 204.327 56.6469C204.327 57.3387 204.135 57.9569 203.753 58.5014C203.37 59.046 202.826 59.4729 202.119 59.7819C201.427 60.091 200.61 60.2456 199.668 60.2456ZM209.983 49.9353V56.669C209.983 57.1253 210.086 57.4564 210.292 57.6625C210.513 57.8538 210.88 57.9495 211.396 57.9495H212.941V60.0469H210.954C209.821 60.0469 208.952 59.7819 208.349 59.2521C207.745 58.7222 207.444 57.8612 207.444 56.669V49.9353H206.009V47.8821H207.444V44.8575H209.983V47.8821H212.941V49.9353H209.983ZM226.41 53.6664C226.41 54.1227 226.381 54.5348 226.322 54.9028H217.027C217.101 55.8742 217.461 56.6543 218.109 57.243C218.756 57.8318 219.551 58.1261 220.493 58.1261C221.847 58.1261 222.804 57.5595 223.363 56.4261H226.079C225.711 57.5447 225.041 58.4646 224.07 59.1858C223.113 59.8923 221.921 60.2456 220.493 60.2456C219.33 60.2456 218.285 59.988 217.358 59.4729C216.446 58.943 215.724 58.2071 215.195 57.2651C214.679 56.3084 214.422 55.2045 214.422 53.9534C214.422 52.7024 214.672 51.6059 215.172 50.6639C215.688 49.7072 216.401 48.9713 217.314 48.4561C218.241 47.941 219.301 47.6834 220.493 47.6834C221.641 47.6834 222.664 47.9336 223.562 48.434C224.46 48.9345 225.159 49.641 225.659 50.5535C226.16 51.4513 226.41 52.489 226.41 53.6664ZM223.783 52.8716C223.768 51.9444 223.437 51.2011 222.789 50.6418C222.142 50.0825 221.339 49.8029 220.383 49.8029C219.514 49.8029 218.771 50.0825 218.153 50.6418C217.535 51.1864 217.167 51.9297 217.049 52.8716H223.783ZM231.404 49.6483C231.772 49.0301 232.257 48.5518 232.861 48.2133C233.479 47.86 234.208 47.6834 235.046 47.6834V50.2886H234.406C233.42 50.2886 232.669 50.5388 232.154 51.0392C231.654 51.5396 231.404 52.408 231.404 53.6444V60.0469H228.887V47.8821H231.404V49.6483ZM248.31 47.8821L240.848 65.765H238.243L240.716 59.8482L235.925 47.8821H238.729L242.151 57.1547L245.705 47.8821H248.31ZM255.106 52.3418C255.106 50.8405 255.452 49.4938 256.144 48.3016C256.85 47.1094 257.799 46.1821 258.992 45.5198C260.198 44.8427 261.516 44.5042 262.943 44.5042C264.577 44.5042 266.027 44.909 267.293 45.7185C268.573 46.5133 269.5 47.6466 270.075 49.1184H267.05C266.652 48.3089 266.101 47.7055 265.394 47.3081C264.688 46.9107 263.871 46.712 262.943 46.712C261.928 46.712 261.023 46.9401 260.228 47.3964C259.433 47.8527 258.808 48.5076 258.351 49.3613C257.91 50.215 257.689 51.2085 257.689 52.3418C257.689 53.4751 257.91 54.4686 258.351 55.3223C258.808 56.1759 259.433 56.8383 260.228 57.3092C261.023 57.7655 261.928 57.9937 262.943 57.9937C263.871 57.9937 264.688 57.795 265.394 57.3976C266.101 57.0002 266.652 56.3967 267.05 55.5872H270.075C269.5 57.059 268.573 58.1924 267.293 58.9871C266.027 59.7819 264.577 60.1793 262.943 60.1793C261.501 60.1793 260.184 59.8482 258.992 59.1858C257.799 58.5088 256.85 57.5742 256.144 56.382C255.452 55.1898 255.106 53.8431 255.106 52.3418ZM279.313 47.6834C280.24 47.6834 281.064 47.8821 281.785 48.2795C282.521 48.6769 283.095 49.2656 283.507 50.0457C283.934 50.8258 284.148 51.7678 284.148 52.8716V60.0469H281.653V53.247C281.653 52.1578 281.381 51.3262 280.836 50.7522C280.291 50.1635 279.548 49.8691 278.606 49.8691C277.664 49.8691 276.914 50.1635 276.354 50.7522C275.81 51.3262 275.537 52.1578 275.537 53.247V60.0469H273.02V43.7094H275.537V49.2951C275.964 48.7799 276.501 48.3825 277.149 48.1029C277.811 47.8232 278.533 47.6834 279.313 47.6834ZM286.519 53.9093C286.519 52.6877 286.769 51.6059 287.27 50.6639C287.785 49.7219 288.477 48.9933 289.345 48.4782C290.228 47.9483 291.2 47.6834 292.259 47.6834C293.216 47.6834 294.048 47.8747 294.754 48.2574C295.475 48.6254 296.049 49.089 296.476 49.6483V47.8821H299.015V60.0469H296.476V58.2365C296.049 58.8105 295.468 59.2889 294.732 59.6716C293.996 60.0542 293.157 60.2456 292.215 60.2456C291.17 60.2456 290.213 59.9806 289.345 59.4508C288.477 58.9062 287.785 58.1556 287.27 57.1989C286.769 56.2274 286.519 55.1309 286.519 53.9093ZM296.476 53.9534C296.476 53.1145 296.299 52.3859 295.946 51.7678C295.608 51.1496 295.159 50.6786 294.599 50.3548C294.04 50.031 293.437 49.8691 292.789 49.8691C292.142 49.8691 291.538 50.031 290.979 50.3548C290.419 50.6639 289.963 51.1275 289.61 51.7457C289.271 52.3491 289.102 53.0703 289.102 53.9093C289.102 54.7482 289.271 55.4842 289.61 56.1171C289.963 56.7499 290.419 57.2357 290.979 57.5742C291.553 57.898 292.156 58.0599 292.789 58.0599C293.437 58.0599 294.04 57.898 294.599 57.5742C295.159 57.2504 295.608 56.7794 295.946 56.1612C296.299 55.5283 296.476 54.7924 296.476 53.9534ZM305.257 49.9353V56.669C305.257 57.1253 305.36 57.4564 305.566 57.6625C305.787 57.8538 306.155 57.9495 306.67 57.9495H308.216V60.0469H306.229C305.095 60.0469 304.227 59.7819 303.623 59.2521C303.02 58.7222 302.718 57.8612 302.718 56.669V49.9353H301.283V47.8821H302.718V44.8575H305.257V47.8821H308.216V49.9353H305.257ZM314.951 60.2456C313.994 60.2456 313.133 60.0763 312.368 59.7378C311.617 59.3845 311.021 58.9136 310.579 58.3248C310.138 57.7214 309.902 57.0517 309.873 56.3158H312.478C312.522 56.8309 312.765 57.2651 313.207 57.6183C313.663 57.9569 314.23 58.1261 314.907 58.1261C315.613 58.1261 316.158 57.9937 316.54 57.7287C316.938 57.4491 317.136 57.0958 317.136 56.669C317.136 56.2127 316.916 55.8742 316.474 55.6534C316.047 55.4327 315.363 55.1898 314.421 54.9249C313.508 54.6747 312.765 54.4318 312.191 54.1963C311.617 53.9608 311.117 53.6002 310.69 53.1145C310.278 52.6288 310.072 51.9885 310.072 51.1937C310.072 50.5461 310.263 49.9574 310.646 49.4275C311.028 48.883 311.573 48.4561 312.279 48.147C313.001 47.8379 313.825 47.6834 314.752 47.6834C316.136 47.6834 317.247 48.0366 318.086 48.7431C318.939 49.4349 319.396 50.3842 319.455 51.5911H316.938C316.894 51.0466 316.673 50.6124 316.275 50.2886C315.878 49.9648 315.341 49.8029 314.664 49.8029C314.001 49.8029 313.494 49.928 313.14 50.1782C312.787 50.4284 312.611 50.7596 312.611 51.1717C312.611 51.4955 312.728 51.7678 312.964 51.9885C313.199 52.2093 313.486 52.3859 313.825 52.5184C314.163 52.6362 314.664 52.7907 315.326 52.982C316.209 53.2175 316.93 53.4604 317.49 53.7106C318.064 53.9461 318.557 54.2993 318.969 54.7703C319.381 55.2413 319.594 55.8668 319.609 56.6469C319.609 57.3387 319.418 57.9569 319.035 58.5014C318.652 59.046 318.108 59.4729 317.401 59.7819C316.71 60.091 315.893 60.2456 314.951 60.2456Z" fill="white"/>
<path d="M372.554 35.5525V47.1475H370.229V39.6058L367.122 47.1475H365.361L362.239 39.6058V47.1475H359.913V35.5525H362.554L366.242 44.174L369.93 35.5525H372.554ZM377.179 37.4297V40.3367H381.083V42.1806H377.179V45.2537H381.581V47.1475H374.854V35.5359H381.581V37.4297H377.179ZM387.698 47.2637C386.89 47.2637 386.159 47.1253 385.505 46.8485C384.863 46.5716 384.354 46.1729 383.977 45.6524C383.601 45.1319 383.407 44.5173 383.396 43.8085H385.887C385.921 44.2847 386.087 44.6613 386.386 44.9381C386.696 45.215 387.117 45.3534 387.648 45.3534C388.191 45.3534 388.617 45.226 388.927 44.9713C389.238 44.7056 389.393 44.3622 389.393 43.9414C389.393 43.5981 389.287 43.3157 389.077 43.0942C388.867 42.8727 388.601 42.7011 388.28 42.5793C387.969 42.4464 387.538 42.3024 386.984 42.1474C386.231 41.9259 385.616 41.7099 385.14 41.4995C384.675 41.278 384.271 40.9513 383.927 40.5194C383.595 40.0764 383.429 39.4895 383.429 38.7586C383.429 38.072 383.601 37.474 383.944 36.9645C384.287 36.4551 384.769 36.0675 385.389 35.8017C386.009 35.5249 386.718 35.3864 387.515 35.3864C388.711 35.3864 389.68 35.6799 390.422 36.2668C391.176 36.8427 391.591 37.6511 391.668 38.6921H389.11C389.088 38.2935 388.916 37.9668 388.595 37.7121C388.285 37.4463 387.87 37.3134 387.349 37.3134C386.895 37.3134 386.53 37.4297 386.253 37.6622C385.987 37.8948 385.854 38.2326 385.854 38.6755C385.854 38.9856 385.954 39.2459 386.153 39.4563C386.364 39.6556 386.618 39.8217 386.917 39.9546C387.228 40.0764 387.659 40.2204 388.213 40.3865C388.966 40.608 389.581 40.8295 390.057 41.051C390.533 41.2725 390.943 41.6047 391.286 42.0477C391.63 42.4907 391.801 43.0721 391.801 43.7919C391.801 44.4121 391.641 44.9879 391.32 45.5195C390.998 46.0511 390.528 46.4775 389.908 46.7986C389.287 47.1087 388.551 47.2637 387.698 47.2637ZM397.821 47.2637C397.012 47.2637 396.282 47.1253 395.628 46.8485C394.986 46.5716 394.476 46.1729 394.1 45.6524C393.723 45.1319 393.53 44.5173 393.518 43.8085H396.01C396.043 44.2847 396.21 44.6613 396.509 44.9381C396.819 45.215 397.239 45.3534 397.771 45.3534C398.314 45.3534 398.74 45.226 399.05 44.9713C399.36 44.7056 399.515 44.3622 399.515 43.9414C399.515 43.5981 399.41 43.3157 399.2 43.0942C398.989 42.8727 398.723 42.7011 398.402 42.5793C398.092 42.4464 397.66 42.3024 397.107 42.1474C396.354 41.9259 395.739 41.7099 395.263 41.4995C394.798 41.278 394.393 40.9513 394.05 40.5194C393.718 40.0764 393.552 39.4895 393.552 38.7586C393.552 38.072 393.723 37.474 394.067 36.9645C394.41 36.4551 394.892 36.0675 395.512 35.8017C396.132 35.5249 396.841 35.3864 397.638 35.3864C398.834 35.3864 399.803 35.6799 400.545 36.2668C401.298 36.8427 401.714 37.6511 401.791 38.6921H399.233C399.211 38.2935 399.039 37.9668 398.718 37.7121C398.408 37.4463 397.993 37.3134 397.472 37.3134C397.018 37.3134 396.653 37.4297 396.376 37.6622C396.11 37.8948 395.977 38.2326 395.977 38.6755C395.977 38.9856 396.077 39.2459 396.276 39.4563C396.486 39.6556 396.741 39.8217 397.04 39.9546C397.35 40.0764 397.782 40.2204 398.336 40.3865C399.089 40.608 399.704 40.8295 400.18 41.051C400.656 41.2725 401.066 41.6047 401.409 42.0477C401.752 42.4907 401.924 43.0721 401.924 43.7919C401.924 44.4121 401.763 44.9879 401.442 45.5195C401.121 46.0511 400.65 46.4775 400.03 46.7986C399.41 47.1087 398.674 47.2637 397.821 47.2637ZM411.05 44.9381H406.432L405.668 47.1475H403.226L407.395 35.5359H410.103L414.273 47.1475H411.814L411.05 44.9381ZM410.419 43.0776L408.741 38.227L407.063 43.0776H410.419ZM423.904 39.041C423.639 38.5537 423.273 38.1827 422.808 37.928C422.343 37.6733 421.8 37.5459 421.18 37.5459C420.493 37.5459 419.884 37.701 419.353 38.0111C418.821 38.3211 418.406 38.7641 418.107 39.34C417.808 39.9159 417.658 40.5803 417.658 41.3334C417.658 42.1086 417.808 42.7841 418.107 43.36C418.417 43.9359 418.843 44.3789 419.386 44.6889C419.929 44.999 420.56 45.1541 421.28 45.1541C422.166 45.1541 422.891 44.9215 423.456 44.4564C424.021 43.9802 424.392 43.3212 424.569 42.4796H420.582V40.7021H426.861V42.7288C426.706 43.5372 426.374 44.2847 425.865 44.9713C425.355 45.658 424.696 46.2117 423.888 46.6325C423.09 47.0423 422.193 47.2471 421.197 47.2471C420.078 47.2471 419.065 46.998 418.157 46.4996C417.26 45.9902 416.551 45.287 416.03 44.3899C415.521 43.4929 415.266 42.4741 415.266 41.3334C415.266 40.1927 415.521 39.1739 416.03 38.2768C416.551 37.3687 417.26 36.6655 418.157 36.1672C419.065 35.6577 420.073 35.403 421.18 35.403C422.487 35.403 423.622 35.7242 424.585 36.3665C425.549 36.9978 426.213 37.8892 426.579 39.041H423.904ZM430.907 37.4297V40.3367H434.811V42.1806H430.907V45.2537H435.31V47.1475H428.582V35.5359H435.31V37.4297H430.907ZM447.959 41.2005C448.613 41.3223 449.15 41.649 449.571 42.1806C449.992 42.7122 450.202 43.3212 450.202 44.0079C450.202 44.628 450.047 45.1762 449.737 45.6524C449.438 46.1175 449 46.483 448.425 46.7488C447.849 47.0146 447.168 47.1475 446.381 47.1475H441.381V35.5525H446.165C446.952 35.5525 447.627 35.6799 448.192 35.9346C448.768 36.1893 449.2 36.5437 449.488 36.9978C449.787 37.4518 449.936 37.9668 449.936 38.5426C449.936 39.2182 449.754 39.783 449.388 40.237C449.034 40.6911 448.557 41.0122 447.959 41.2005ZM443.707 40.3367H445.833C446.387 40.3367 446.813 40.2149 447.112 39.9712C447.411 39.7165 447.561 39.3566 447.561 38.8915C447.561 38.4264 447.411 38.0664 447.112 37.8117C446.813 37.557 446.387 37.4297 445.833 37.4297H443.707V40.3367ZM446.049 45.2537C446.614 45.2537 447.051 45.1208 447.361 44.8551C447.683 44.5893 447.843 44.2127 447.843 43.7255C447.843 43.2271 447.677 42.8395 447.345 42.5626C447.013 42.2747 446.564 42.1307 445.999 42.1307H443.707V45.2537H446.049ZM454.381 37.4297V40.3367H458.285V42.1806H454.381V45.2537H458.783V47.1475H452.056V35.5359H458.783V37.4297H454.381ZM468.056 35.5525V37.4297H463.222V40.4031H466.927V42.247H463.222V47.1475H460.897V35.5525H468.056ZM475.088 47.2637C474.002 47.2637 473.006 47.009 472.097 46.4996C471.189 45.9902 470.47 45.287 469.938 44.3899C469.406 43.4818 469.141 42.4574 469.141 41.3168C469.141 40.1872 469.406 39.1739 469.938 38.2768C470.47 37.3687 471.189 36.66 472.097 36.1506C473.006 35.6411 474.002 35.3864 475.088 35.3864C476.184 35.3864 477.181 35.6411 478.078 36.1506C478.986 36.66 479.7 37.3687 480.221 38.2768C480.752 39.1739 481.018 40.1872 481.018 41.3168C481.018 42.4574 480.752 43.4818 480.221 44.3899C479.7 45.287 478.986 45.9902 478.078 46.4996C477.17 47.009 476.173 47.2637 475.088 47.2637ZM475.088 45.1873C475.785 45.1873 476.4 45.0322 476.931 44.7222C477.463 44.401 477.878 43.947 478.177 43.36C478.476 42.7731 478.626 42.092 478.626 41.3168C478.626 40.5416 478.476 39.866 478.177 39.2902C477.878 38.7032 477.463 38.2547 476.931 37.9446C476.4 37.6345 475.785 37.4795 475.088 37.4795C474.39 37.4795 473.77 37.6345 473.227 37.9446C472.695 38.2547 472.28 38.7032 471.981 39.2902C471.682 39.866 471.533 40.5416 471.533 41.3168C471.533 42.092 471.682 42.7731 471.981 43.36C472.28 43.947 472.695 44.401 473.227 44.7222C473.77 45.0322 474.39 45.1873 475.088 45.1873ZM488.728 47.1475L486.17 42.6291H485.074V47.1475H482.748V35.5525H487.1C487.997 35.5525 488.762 35.7131 489.393 36.0343C490.024 36.3444 490.495 36.7707 490.805 37.3134C491.126 37.8449 491.286 38.443 491.286 39.1074C491.286 39.8716 491.065 40.5637 490.622 41.1839C490.179 41.793 489.52 42.2138 488.645 42.4464L491.419 47.1475H488.728ZM485.074 40.8849H487.017C487.649 40.8849 488.119 40.7354 488.429 40.4364C488.739 40.1263 488.894 39.6999 488.894 39.1573C488.894 38.6257 488.739 38.2159 488.429 37.928C488.119 37.629 487.649 37.4795 487.017 37.4795H485.074V40.8849ZM495.716 37.4297V40.3367H499.619V42.1806H495.716V45.2537H500.118V47.1475H493.39V35.5359H500.118V37.4297H495.716ZM398.38 60.5525V72.1475H396.055V64.6058L392.948 72.1475H391.187L388.064 64.6058V72.1475H385.739V60.5525H388.38L392.068 69.174L395.756 60.5525H398.38ZM407.789 69.9381H403.171L402.407 72.1475H399.965L404.135 60.5359H406.842L411.012 72.1475H408.553L407.789 69.9381ZM407.158 68.0776L405.48 63.227L403.802 68.0776H407.158ZM420.461 60.5525V62.4297H417.371V72.1475H415.046V62.4297H411.956V60.5525H420.461ZM421.593 66.3334C421.593 65.1927 421.848 64.1739 422.357 63.2768C422.878 62.3687 423.581 61.6655 424.467 61.1672C425.364 60.6577 426.366 60.403 427.474 60.403C428.769 60.403 429.904 60.7353 430.879 61.3997C431.853 62.0642 432.535 62.9834 432.922 64.1573H430.248C429.982 63.6035 429.605 63.1883 429.118 62.9114C428.642 62.6345 428.088 62.4961 427.457 62.4961C426.781 62.4961 426.178 62.6567 425.646 62.9778C425.126 63.2879 424.716 63.7309 424.417 64.3068C424.129 64.8826 423.985 65.5582 423.985 66.3334C423.985 67.0975 424.129 67.7731 424.417 68.36C424.716 68.9359 425.126 69.3844 425.646 69.7056C426.178 70.0156 426.781 70.1707 427.457 70.1707C428.088 70.1707 428.642 70.0322 429.118 69.7554C429.605 69.4675 429.982 69.0466 430.248 68.4929H432.922C432.535 69.6779 431.853 70.6026 430.879 71.267C429.915 71.9204 428.78 72.2471 427.474 72.2471C426.366 72.2471 425.364 71.998 424.467 71.4996C423.581 70.9902 422.878 70.287 422.357 69.3899C421.848 68.4929 421.593 67.4741 421.593 66.3334ZM444.527 60.5525V72.1475H442.201V67.2138H437.234V72.1475H434.909V60.5525H437.234V65.3201H442.201V60.5525H444.527ZM449.141 60.5525V72.1475H446.816V60.5525H449.141ZM461.356 72.1475H459.031L453.765 64.1905V72.1475H451.439V60.5359H453.765L459.031 68.5095V60.5359H461.356V72.1475ZM471.728 64.041C471.462 63.5537 471.096 63.1827 470.631 62.928C470.166 62.6733 469.624 62.5459 469.003 62.5459C468.317 62.5459 467.708 62.701 467.176 63.0111C466.645 63.3211 466.229 63.7641 465.93 64.34C465.631 64.9159 465.482 65.5803 465.482 66.3334C465.482 67.1086 465.631 67.7841 465.93 68.36C466.24 68.9359 466.667 69.3789 467.209 69.6889C467.752 69.999 468.383 70.1541 469.103 70.1541C469.989 70.1541 470.714 69.9215 471.279 69.4564C471.844 68.9802 472.215 68.3212 472.392 67.4796H468.405V65.7021H474.685V67.7288C474.53 68.5372 474.197 69.2847 473.688 69.9713C473.178 70.658 472.52 71.2117 471.711 71.6325C470.914 72.0423 470.017 72.2471 469.02 72.2471C467.902 72.2471 466.888 71.998 465.98 71.4996C465.083 70.9902 464.374 70.287 463.854 69.3899C463.344 68.4929 463.09 67.4741 463.09 66.3334C463.09 65.1927 463.344 64.1739 463.854 63.2768C464.374 62.3687 465.083 61.6655 465.98 61.1672C466.888 60.6577 467.896 60.403 469.003 60.403C470.31 60.403 471.445 60.7242 472.409 61.3665C473.372 61.9978 474.037 62.8892 474.402 64.041H471.728Z" fill="white"/>
<defs>
<filter id="filter0_ddd_1312_18315" x="0.22278" y="0.170519" width="553.32" height="102.799" filterUnits="userSpaceOnUse" color-interpolation-filters="sRGB">
<feFlood flood-opacity="0" result="BackgroundImageFix"/>
<feColorMatrix in="SourceAlpha" type="matrix" values="0 0 0 0 0 0 0 0 0 0 0 0 0 0 0 0 0 0 127 0" result="hardAlpha"/>
<feOffset dy="0.689926"/>
<feGaussianBlur stdDeviation="2.7597"/>
<feColorMatrix type="matrix" values="0 0 0 0 0 0 0 0 0 0 0 0 0 0 0 0 0 0 0.1 0"/>
<feBlend mode="normal" in2="BackgroundImageFix" result="effect1_dropShadow_1312_18315"/>
<feColorMatrix in="SourceAlpha" type="matrix" values="0 0 0 0 0 0 0 0 0 0 0 0 0 0 0 0 0 0 127 0" result="hardAlpha"/>
<feOffset dy="1.37985"/>
<feGaussianBlur stdDeviation="1.37985"/>
<feColorMatrix type="matrix" values="0 0 0 0 0 0 0 0 0 0 0 0 0 0 0 0 0 0 0.12 0"/>
<feBlend mode="normal" in2="effect1_dropShadow_1312_18315" result="effect2_dropShadow_1312_18315"/>
<feColorMatrix in="SourceAlpha" type="matrix" values="0 0 0 0 0 0 0 0 0 0 0 0 0 0 0 0 0 0 127 0" result="hardAlpha"/>
<feOffset dy="0.689926"/>
<feGaussianBlur stdDeviation="0.689926"/>
<feColorMatrix type="matrix" values="0 0 0 0 0 0 0 0 0 0 0 0 0 0 0 0 0 0 0.16 0"/>
<feBlend mode="normal" in2="effect2_dropShadow_1312_18315" result="effect3_dropShadow_1312_18315"/>
<feBlend mode="normal" in="SourceGraphic" in2="effect3_dropShadow_1312_18315" result="shape"/>
</filter>
<clipPath id="clip0_1312_18315">
<rect width="111.768" height="92.33" fill="white" transform="translate(6.43359 5)"/>
</clipPath>
<clipPath id="clip1_1312_18315">
<rect width="17.5095" height="17.5095" fill="white" transform="translate(86.9609 5)"/>
</clipPath>
<clipPath id="clip2_1312_18315">
<rect width="17.5095" height="17.5095" fill="white" transform="translate(12.7188 71.3208) rotate(47.2539)"/>
</clipPath>
<clipPath id="clip3_1312_18315">
<rect width="13.19" height="16.6611" fill="white" transform="translate(5.39648 51.915)"/>
</clipPath>
<clipPath id="clip4_1312_18315">
<rect width="3.84712" height="4.85953" fill="white" transform="translate(27.375 50.1238)"/>
</clipPath>
<clipPath id="clip5_1312_18315">
<rect width="11.8016" height="14.9073" fill="white" transform="translate(55.7207 85.5286)"/>
</clipPath>
<clipPath id="clip6_1312_18315">
<rect width="48.9847" height="48.9847" fill="white" transform="translate(34.7227 27.7676)"/>
</clipPath>
</defs>
</svg>
