<svg width="55" height="85" viewBox="0 0 55 85" fill="none" xmlns="http://www.w3.org/2000/svg">
<path d="M34.8041 46.3779V36.3568H27.3992H19.9943V46.3779C14.0208 49.2413 10.1211 55.2638 10.1211 61.9284V70.518H27.3992H44.6772V61.9284C44.6772 55.2638 40.7775 49.2413 34.8041 46.3779Z" fill="#F3F5F9"/>
<path d="M44.6804 61.9284C44.6804 55.2638 40.7807 49.2413 34.8072 46.3779V36.3568H27.4023V70.518H44.6804V61.9284Z" fill="#D8DBF0"/>
<path d="M27.3992 2.52454H10.1211V19.9672L15.3045 24.9038H27.3992H39.1561L44.6772 19.9672V2.52454H27.3992Z" fill="#F3F5F9"/>
<path d="M44.6804 19.9672V2.52454H27.4023V24.9038H39.1593L44.6804 19.9672Z" fill="#D8DBF0"/>
<path d="M27.3992 64.397C22.5198 64.397 16.4148 66.134 10.1211 70.5184V81.8396H27.3992H44.6772V70.5184C38.3772 66.1296 32.277 64.397 27.3992 64.397Z" fill="#FFE666"/>
<path d="M44.6804 70.5184C38.3803 66.1296 32.2802 64.397 27.4023 64.397V81.8396H44.6804V70.5184Z" fill="#FFC44D"/>
<path d="M52.0842 0.0565186H27.4013H2.7183C1.35399 0.0565186 0.25 1.16051 0.25 2.52481C0.25 3.88912 1.35399 4.99311 2.7183 4.99311H27.4013H52.0842C53.4485 4.99311 54.5525 3.88912 54.5525 2.52481C54.5525 1.16051 53.4485 0.0565186 52.0842 0.0565186Z" fill="#755BAA"/>
<path d="M54.5536 2.52481C54.5536 1.16051 53.4496 0.0565186 52.0853 0.0565186H27.4023V4.99311H52.0853C53.4496 4.99311 54.5536 3.88912 54.5536 2.52481Z" fill="#9088B8"/>
<path d="M52.0842 79.3709H27.4013H2.7183C1.35399 79.3709 0.25 80.4749 0.25 81.8392C0.25 83.2035 1.35399 84.3075 2.7183 84.3075H27.4013H52.0842C53.4485 84.3075 54.5525 83.2035 54.5525 81.8392C54.5525 80.4749 53.4485 79.3709 52.0842 79.3709Z" fill="#755BAA"/>
<path d="M54.5536 81.8392C54.5536 80.4748 53.4496 79.3708 52.0853 79.3708H27.4023V84.3075H52.0853C53.4496 84.3075 54.5536 83.2035 54.5536 81.8392Z" fill="#9088B8"/>
<path d="M27.3992 19.9677H10.1211V22.4359C10.1211 31.9621 17.873 39.714 27.3992 39.714C36.9253 39.714 44.6772 31.9621 44.6772 22.4359V19.9677H27.3992Z" fill="#FFE666"/>
<path d="M44.6804 22.4359V19.9677H27.4023V39.714C36.9285 39.714 44.6804 31.9621 44.6804 22.4359Z" fill="#FFC44D"/>
</svg>
