<svg width="554" height="104" viewBox="0 0 554 104" fill="none" xmlns="http://www.w3.org/2000/svg">
<g filter="url(#filter0_ddd_1312_18904)">
<rect x="6.10742" y="5.24854" width="542.282" height="91.7601" rx="2.7597" fill="#4AE187"/>
</g>
<path d="M81.1354 51.3226L75.678 44.046C75.3311 43.5836 74.8008 43.3184 74.2227 43.3184C73.6445 43.3184 73.1142 43.5836 72.7673 44.046L67.3099 51.3226C66.8938 51.8774 66.828 52.6074 67.1382 53.2276C67.4483 53.8479 68.0718 54.2332 68.7652 54.2332H70.5844C70.5844 61.2547 64.8719 66.9672 57.8504 66.9672C50.8289 66.9672 45.1164 61.2547 45.1164 54.2332C45.1164 47.2117 50.8289 41.4992 57.8504 41.4992C60.0039 41.4992 62.1497 42.0645 64.0557 43.1339C64.7749 43.5376 65.6752 43.4069 66.25 42.8158L68.8699 40.122C69.252 39.7292 69.4366 39.1848 69.3725 38.6405C69.3083 38.0962 69.002 37.6098 68.5388 37.3167C65.3412 35.2926 61.6452 34.2227 57.8504 34.2227C46.8166 34.2227 37.8398 43.1994 37.8398 54.2332C37.8398 65.267 46.8166 74.2437 57.8504 74.2437C68.8842 74.2437 77.8609 65.267 77.8609 54.2332H79.6801C80.3735 54.2332 80.997 53.8479 81.3071 53.2276C81.6173 52.6074 81.5515 51.8774 81.1354 51.3226V51.3226Z" fill="#F9F9F9"/>
<path d="M81.3083 53.2276C81.6185 52.6074 81.5527 51.8774 81.1366 51.3226L75.6791 44.046C75.3323 43.5836 74.8019 43.3184 74.2238 43.3184C73.6457 43.3184 73.1154 43.5836 72.7685 44.046L67.3111 51.3226C66.895 51.8774 66.8291 52.6074 67.1394 53.2276C67.4495 53.8479 68.0729 54.2332 68.7664 54.2332H70.5855C70.5855 61.2547 64.8731 66.9672 57.8516 66.9672V74.2438C68.8854 74.2438 77.8621 65.267 77.8621 54.2332H79.6812C80.3747 54.2332 80.9982 53.8479 81.3083 53.2276Z" fill="#F9F9F9"/>
<path d="M64.0569 43.1339C64.7761 43.5376 65.6764 43.4069 66.2512 42.8158L68.8711 40.122C69.2532 39.7292 69.4378 39.1848 69.3736 38.6405C69.3095 38.0962 69.0031 37.6098 68.54 37.3167C65.3424 35.2926 61.6464 34.2227 57.8516 34.2227V41.4992C60.0051 41.4992 62.1509 42.0645 64.0569 43.1339V43.1339Z" fill="#F9F9F9"/>
<g clip-path="url(#clip0_1312_18904)">
<path d="M88.4725 77.1967C88.153 77.1967 87.8338 77.0758 87.5902 76.8337L84.2269 73.4911C83.9927 73.2585 83.8613 72.9432 83.8613 72.6145C83.8613 72.2855 83.9927 71.9703 84.2269 71.7376L87.5902 68.395C87.8241 68.1628 88.1415 68.0317 88.4725 68.0317C88.803 68.0317 89.1205 68.1623 89.3544 68.395L92.7177 71.7376C92.9519 71.9703 93.0832 72.2855 93.0832 72.6145C93.0832 72.9432 92.9519 73.2587 92.7177 73.4911L89.3544 76.8337C89.1108 77.0758 88.7915 77.1967 88.4725 77.1967Z" fill="#07B04B"/>
<path d="M70.4213 19.2431C70.1023 19.2431 69.7831 19.1222 69.5395 18.8798L66.1761 15.5373C65.6887 15.0531 65.6887 14.2681 66.1761 13.784L69.5395 10.4414C69.7733 10.2087 70.0908 10.0781 70.4213 10.0781C70.7523 10.0781 71.0698 10.2087 71.3037 10.4414L74.667 13.784C74.9011 14.0161 75.0325 14.3319 75.0325 14.6604C75.0325 14.9893 74.9011 15.3048 74.667 15.537L71.3037 18.8798C71.0601 19.1222 70.7406 19.2431 70.4213 19.2431Z" fill="#07B04B"/>
<path d="M48.0424 11.8055C46.0331 11.8055 44.3984 10.1809 44.3984 8.18422C44.3984 6.18727 46.0331 4.56299 48.0424 4.56299C50.0515 4.56299 51.6856 6.18727 51.6856 8.18422C51.6856 10.1809 50.0515 11.8055 48.0424 11.8055Z" fill="#07B04B"/>
<path d="M82.2991 44.9219C78.5663 44.9219 75.5293 41.9036 75.5293 38.1938C75.5293 34.4836 78.5663 31.4658 82.2991 31.4658C86.0319 31.4658 89.0684 34.4836 89.0684 38.1938C89.0684 41.9036 86.0319 44.9219 82.2991 44.9219V44.9219Z" fill="#07B04B"/>
<path d="M112.184 63.6124C112.837 63.6124 113.462 63.0424 113.432 62.3725C113.401 61.7008 112.884 61.1326 112.184 61.1326C111.532 61.1326 110.906 61.7029 110.937 62.3725C110.967 63.0442 111.485 63.6124 112.184 63.6124Z" fill="#07B04B"/>
<path d="M113.298 67.9845C113.95 67.9845 114.575 67.4142 114.545 66.7446C114.515 66.0727 113.997 65.5046 113.298 65.5046C112.645 65.5046 112.02 66.0747 112.05 66.7446C112.08 67.4162 112.598 67.9845 113.298 67.9845V67.9845Z" fill="#07B04B"/>
<path d="M116.585 64.7208C117.237 64.7208 117.862 64.1503 117.832 63.4806C117.802 62.809 117.284 62.241 116.585 62.241C115.932 62.241 115.307 62.811 115.337 63.4806C115.367 64.1526 115.886 64.7208 116.585 64.7208V64.7208Z" fill="#07B04B"/>
<path d="M30.9574 78.7909C31.61 78.7909 32.2352 78.2206 32.2051 77.551C32.1746 76.8793 31.6568 76.311 30.9574 76.311C30.3051 76.311 29.6796 76.8816 29.7101 77.551C29.7402 78.2229 30.2578 78.7909 30.9574 78.7909V78.7909Z" fill="#07B04B"/>
<path d="M32.0731 83.163C32.7257 83.163 33.3509 82.5927 33.3205 81.923C33.2904 81.2511 32.7725 80.6833 32.0731 80.6833C31.4203 80.6833 30.7953 81.2534 30.8253 81.923C30.8557 82.5949 31.3735 83.163 32.0731 83.163Z" fill="#07B04B"/>
<path d="M35.3539 79.899C36.0067 79.899 36.6317 79.329 36.6018 78.6594C36.5716 77.9875 36.0538 77.4194 35.3539 77.4194C34.7016 77.4194 34.0761 77.9895 34.1065 78.6594C34.1367 79.331 34.6546 79.899 35.3539 79.899Z" fill="#07B04B"/>
<path d="M16.271 7.07258C17.8518 7.07258 19.367 5.69165 19.2933 4.0695C19.2203 2.4418 17.9658 1.06519 16.271 1.06519C14.6902 1.06519 13.1756 2.44734 13.2486 4.0695C13.3223 5.69596 14.5768 7.07258 16.271 7.07258Z" fill="#07B04B"/>
<path d="M5.61669 9.75739C7.19691 9.75739 8.71211 8.37524 8.63842 6.75308C8.56536 5.12662 7.31084 3.75 5.61669 3.75C4.03585 3.75 2.52127 5.13092 2.59434 6.75308C2.66802 8.38077 3.92254 9.75739 5.61669 9.75739Z" fill="#07B04B"/>
<path d="M13.5712 17.6638C15.1526 17.6638 16.6666 16.2828 16.5935 14.6607C16.5205 13.033 15.2653 11.657 13.5712 11.657C11.991 11.657 10.4758 13.0385 10.5495 14.6607C10.6225 16.2884 11.877 17.6638 13.5712 17.6638Z" fill="#07B04B"/>
<path d="M112.644 52.917C112.399 52.3108 111.706 52.0165 111.095 52.2598C109.795 52.7793 108.038 52.6033 106.513 51.8014C105.951 51.5062 105.447 51.1457 105.017 50.7373C106.17 50.2648 107.077 49.4699 107.635 48.4217L107.648 48.3963C108.099 47.5493 108.235 46.5927 108.032 45.7026C107.816 44.7605 107.225 43.9746 106.409 43.5456C104.763 42.6797 102.639 43.4474 101.676 45.257L101.663 45.2822C101.105 46.3304 100.954 47.5221 101.21 48.7354C100.628 48.6123 100.044 48.4009 99.4829 48.1059C99.054 47.8804 98.3006 47.2441 97.7301 46.6257C97.2851 46.144 96.5324 46.1115 96.048 46.5534C95.5636 46.9949 95.5306 47.7434 95.9753 48.2249C96.5649 48.8641 97.5459 49.7644 98.3699 50.1976C99.6329 50.8619 100.998 51.2141 102.319 51.2284C103.075 52.3059 104.136 53.2288 105.399 53.8932C106.696 54.5749 108.101 54.9232 109.442 54.9232C110.335 54.9232 111.199 54.7688 111.983 54.4561C112.593 54.2122 112.889 53.5233 112.644 52.917V52.917ZM103.768 46.3886L103.781 46.3634C104.047 45.865 104.521 45.5532 104.943 45.5532C105.067 45.5532 105.187 45.5801 105.295 45.6371C105.572 45.7826 105.674 46.0689 105.71 46.2267C105.786 46.5605 105.725 46.9478 105.544 47.2899L105.53 47.3151C105.175 47.9808 104.522 48.4627 103.666 48.699C103.38 47.862 103.413 47.0543 103.768 46.3886Z" fill="#07B04B"/>
<path d="M36.9938 92.1367C37.2241 91.9514 37.7644 91.6836 38.2508 91.5135C38.6297 91.3812 38.8287 90.9688 38.6954 90.5922C38.5622 90.2159 38.1471 90.0181 37.7683 90.1505C37.2655 90.3263 36.5214 90.6578 36.0793 91.0135C35.4007 91.5589 34.8743 92.236 34.549 92.9701C33.759 93.133 32.9829 93.5035 32.3044 94.049C31.1443 94.982 30.4349 96.3051 30.4064 97.5882C30.3975 97.9869 30.7158 98.3175 31.1172 98.3262C31.1229 98.3264 31.1282 98.3264 31.1336 98.3264C31.5277 98.3264 31.8513 98.0131 31.8601 97.6198C31.8789 96.7693 32.3996 95.8314 33.219 95.1724C33.5204 94.9299 33.845 94.7351 34.1791 94.5933C34.1695 95.3505 34.401 96.0468 34.8597 96.6104L34.8703 96.6232C35.6613 97.595 37.0243 97.8068 37.9085 97.0958C38.3467 96.7434 38.6081 96.2032 38.6258 95.6136C38.6425 95.0566 38.4475 94.4993 38.0769 94.0441L38.0661 94.0308C37.6076 93.4677 36.9707 93.0975 36.2236 92.9492C36.4329 92.654 36.6923 92.3791 36.9938 92.1367ZM36.9359 94.94L36.9469 94.9532C37.0964 95.137 37.1786 95.3619 37.1722 95.5706C37.1694 95.6696 37.1423 95.8531 36.9938 95.9726C36.7373 96.1788 36.2824 96.0605 35.9999 95.7136L35.9893 95.7008C35.6983 95.3432 35.583 94.8632 35.6549 94.328C36.1964 94.3698 36.6447 94.5822 36.9359 94.94Z" fill="#07B04B"/>
<path d="M23.7092 23.8799C21.2911 24.0707 19.1443 25.3655 17.7944 27.3629C17.114 28.3699 16.7518 29.5136 16.6145 30.7101C16.4688 31.9858 16.8614 36.0719 14.9926 36.3392C14.348 36.4314 13.7138 36.8833 13.7453 37.5791C13.7741 38.2193 14.2948 38.8579 14.9926 38.819C16.3415 38.7433 17.4212 37.9914 18.1369 36.8757C18.8618 35.745 19.0295 34.4111 19.0451 33.0982C19.0602 31.8306 19.0471 30.6611 19.473 29.4513C20.1997 27.8517 21.7658 26.657 23.5088 26.373C24.2204 26.3313 24.9921 25.9366 24.9566 25.1198C24.9287 24.4919 24.406 23.8248 23.7092 23.8799V23.8799Z" fill="#07B04B"/>
<path fill-rule="evenodd" clip-rule="evenodd" d="M105.941 93.2802L104.479 91.3867L102.275 91.5492L102.042 89.3627L100.166 88.205L101.268 86.2981L100.436 84.2626L102.453 83.3636L102.982 81.2277L105.144 81.6801L106.851 79.9973L108.313 81.8907L110.517 81.7282L110.75 83.9148L112.627 85.0724L111.524 86.9793L112.356 89.0148L110.339 89.9139L109.81 92.0498L107.648 91.5973L105.941 93.2802ZM108.329 84.8897L108.108 84.6375L107.224 85.4057L104.175 88.0525L104.69 88.6385L106.362 87.1867L106.362 87.1892L108.623 85.2246L108.623 85.2239L108.623 85.2238L108.329 84.8897ZM109.034 88.3773C108.99 89.0211 108.428 89.5098 107.781 89.4668C107.134 89.4238 106.644 88.8651 106.688 88.2214C106.732 87.5776 107.294 87.0889 107.941 87.1319C108.588 87.1749 109.078 87.7336 109.034 88.3773ZM107.47 88.2734C107.455 88.4879 107.619 88.6742 107.834 88.6885C108.05 88.7028 108.237 88.5399 108.252 88.3253C108.267 88.1108 108.103 87.9245 107.887 87.9102C107.672 87.8959 107.484 88.0588 107.47 88.2734ZM105.017 83.8105C104.37 83.7675 103.808 84.2562 103.764 84.9C103.72 85.5438 104.21 86.1024 104.857 86.1454C105.504 86.1884 106.066 85.6997 106.11 85.0559C106.154 84.4122 105.664 83.8535 105.017 83.8105ZM104.91 85.3671C104.695 85.3528 104.531 85.1666 104.546 84.952C104.561 84.7374 104.748 84.5745 104.964 84.5888C105.179 84.6031 105.343 84.7894 105.328 85.004C105.313 85.2185 105.126 85.3815 104.91 85.3671Z" fill="#07B04B"/>
<path fill-rule="evenodd" clip-rule="evenodd" d="M42.4677 37.1815L40.0539 34.4617L36.7293 34.9293L36.1488 31.6419L33.1836 30.0777L34.6575 27.0794L33.1836 24.0811L36.1488 22.5169L36.7293 19.2295L40.0539 19.6972L42.4677 16.9773L44.8815 19.6972L48.2062 19.2295L48.7866 22.5169L51.7518 24.0811L50.278 27.0794L51.7518 30.0777L48.7866 31.6419L48.2062 34.9293L44.8815 34.4617L42.4677 37.1815ZM44.8526 23.876L44.8542 23.8744L45.6963 24.7113L40.0901 30.2828L39.248 29.4459L42.4688 26.2451V26.2423L44.8511 23.8746L44.8526 23.876ZM43.0684 29.4468C43.0684 28.4676 43.8699 27.6711 44.8552 27.6711C45.8404 27.6711 46.6419 28.4676 46.6419 29.4468C46.6419 30.426 45.8404 31.2226 44.8552 31.2226C43.8699 31.2226 43.0684 30.426 43.0684 29.4468ZM44.2596 29.4468C44.2596 29.7732 44.5267 30.0387 44.8552 30.0387C45.1836 30.0387 45.4508 29.7732 45.4508 29.4468C45.4508 29.1204 45.1836 28.8549 44.8552 28.8549C44.5267 28.8549 44.2596 29.1204 44.2596 29.4468ZM40.0895 22.9355C39.1043 22.9355 38.3027 23.732 38.3027 24.7112C38.3027 25.6904 39.1043 26.487 40.0895 26.487C41.0748 26.487 41.8763 25.6904 41.8763 24.7112C41.8763 23.732 41.0748 22.9355 40.0895 22.9355ZM40.0895 25.3031C39.7611 25.3031 39.4939 25.0376 39.4939 24.7112C39.4939 24.3848 39.7611 24.1193 40.0895 24.1193C40.4179 24.1193 40.6851 24.3848 40.6851 24.7112C40.6851 25.0376 40.4179 25.3031 40.0895 25.3031Z" fill="#07B04B"/>
<g clip-path="url(#clip1_1312_18904)">
<path d="M99.1675 16.9227L99.0337 16.5722C98.9569 16.3713 98.8383 16.1889 98.6859 16.0371C98.5335 15.8853 98.3506 15.7675 98.1493 15.6915C97.9481 15.6155 97.733 15.583 97.5183 15.5962C97.3035 15.6094 97.094 15.6679 96.9035 15.7679C96.7571 15.8447 96.5876 15.8649 96.4272 15.8246C96.2669 15.7844 96.127 15.6865 96.0342 15.5497C95.9825 15.4735 95.9469 15.3876 95.9297 15.2971C95.9126 15.2067 95.9142 15.1137 95.9345 15.0239C95.9548 14.9341 95.9933 14.8494 96.0477 14.7751C96.1021 14.7009 96.1712 14.6386 96.2507 14.5921L96.4747 14.4608C96.8854 14.2199 97.3505 14.087 97.8266 14.0745C98.3026 14.062 98.774 14.1703 99.1969 14.3893C99.6005 14.5984 99.9475 14.9019 100.208 15.274L103.628 20.1531C103.669 20.2104 103.691 20.2787 103.691 20.3488C103.691 20.4189 103.67 20.4875 103.63 20.5451C103.59 20.6028 103.534 20.6468 103.468 20.6712C103.402 20.6956 103.331 20.6992 103.263 20.6815L103.213 20.6688L99.1675 16.9227Z" fill="#07B04B"/>
<path d="M99.8596 16.457C99.6642 15.8887 99.2668 15.412 98.743 15.1174C98.7208 15.1051 98.6985 15.0935 98.6763 15.0832C98.2535 14.8642 97.7821 14.7559 97.3061 14.7683C96.83 14.7807 96.3649 14.9136 95.9541 15.1544L95.9199 15.1749C95.9193 15.3097 95.9595 15.4416 96.0352 15.5531C96.128 15.69 96.268 15.7878 96.4284 15.828C96.5888 15.8682 96.7585 15.8479 96.9048 15.771C97.0953 15.671 97.3048 15.6125 97.5196 15.5993C97.7343 15.5861 97.9494 15.6186 98.1506 15.6946C98.3519 15.7706 98.5348 15.8884 98.6872 16.0402C98.8396 16.192 98.9582 16.3744 99.035 16.5753L99.1688 16.9258L100.337 17.8211L99.8596 16.457Z" fill="#07B04B"/>
<path d="M99.6863 16.4785C99.4258 16.1063 99.0793 15.8027 98.6761 15.5934C98.2532 15.3745 97.7818 15.2663 97.3058 15.2788C96.8298 15.2913 96.3647 15.4241 95.9539 15.6649L95.7292 15.7966C95.65 15.8431 95.5812 15.9053 95.527 15.9795C95.4728 16.0536 95.4343 16.1381 95.4141 16.2277C95.3938 16.3172 95.3922 16.41 95.4092 16.5003C95.4262 16.5905 95.4616 16.6764 95.5131 16.7524C95.606 16.889 95.7459 16.9866 95.9061 17.0267C96.0664 17.0668 96.2357 17.0466 96.382 16.9699C96.5725 16.8699 96.782 16.8113 96.9967 16.7981C97.2114 16.7849 97.4265 16.8174 97.6277 16.8934C97.829 16.9694 98.0118 17.0872 98.1642 17.2391C98.3167 17.3909 98.4351 17.5733 98.5119 17.7742L98.646 18.1248C98.8084 18.5508 98.808 19.0217 98.645 19.4475C98.482 19.8732 98.1677 20.2239 97.7623 20.4325L95.7658 21.4393C95.6448 21.5014 95.5453 21.5984 95.48 21.7177C95.4147 21.837 95.3867 21.9731 95.3995 22.1085C95.4358 22.4912 95.8034 22.7679 96.1861 22.72L98.3457 22.4464C98.733 22.3976 99.1265 22.4443 99.4915 22.5826C99.8566 22.7209 100.182 22.9466 100.44 23.2398L101.163 24.063L103.224 26.5611C103.241 26.5818 103.264 26.597 103.289 26.605C103.315 26.613 103.342 26.6134 103.368 26.6061C103.393 26.5989 103.416 26.5843 103.434 26.5641C103.451 26.544 103.462 26.5192 103.466 26.4928L104.145 21.0463C104.156 20.962 104.135 20.8766 104.086 20.8069L103.397 19.8251L99.6863 16.4785Z" fill="#07B04B"/>
<path d="M92.9587 13.1764C92.9105 13.1764 92.8632 13.1629 92.8223 13.1373C92.7815 13.1117 92.7486 13.0751 92.7275 13.0317L92.0802 11.698C92.0649 11.6676 92.0558 11.6345 92.0534 11.6005C92.051 11.5666 92.0554 11.5325 92.0663 11.5002C92.0772 11.468 92.0944 11.4382 92.1169 11.4127C92.1394 11.3872 92.1668 11.3663 92.1974 11.3515C92.228 11.3366 92.2613 11.328 92.2953 11.3261C92.3292 11.3242 92.3633 11.3291 92.3953 11.3404C92.4274 11.3518 92.4569 11.3694 92.4821 11.3923C92.5074 11.4152 92.5278 11.4428 92.5422 11.4737L93.1896 12.8074C93.2085 12.8465 93.2171 12.8898 93.2148 12.9333C93.2124 12.9767 93.1991 13.0188 93.176 13.0556C93.1529 13.0925 93.1209 13.1229 93.0829 13.144C93.0449 13.1651 93.0022 13.1763 92.9587 13.1764V13.1764Z" fill="#07B04B"/>
<path d="M95.3919 12.6629C95.3238 12.6629 95.2585 12.6358 95.2103 12.5877C95.1622 12.5395 95.1351 12.4742 95.1351 12.4061V11.0723C95.1333 11.0375 95.1386 11.0027 95.1507 10.97C95.1628 10.9374 95.1814 10.9075 95.2054 10.8822C95.2294 10.857 95.2582 10.8368 95.2903 10.8231C95.3223 10.8093 95.3568 10.8022 95.3916 10.8022C95.4264 10.8022 95.4609 10.8093 95.4929 10.8231C95.5249 10.8368 95.5538 10.857 95.5778 10.8822C95.6018 10.9075 95.6204 10.9374 95.6325 10.97C95.6446 11.0027 95.6499 11.0375 95.6481 11.0723V12.4061C95.6481 12.4741 95.6211 12.5393 95.5731 12.5874C95.5251 12.6356 95.4599 12.6627 95.3919 12.6629V12.6629Z" fill="#07B04B"/>
<path d="M97.8267 13.1764C97.7833 13.1763 97.7405 13.1651 97.7025 13.144C97.6645 13.1229 97.6325 13.0925 97.6095 13.0556C97.5864 13.0188 97.5731 12.9767 97.5707 12.9332C97.5683 12.8898 97.577 12.8465 97.5959 12.8074L98.2433 11.4737C98.2581 11.4433 98.2788 11.4161 98.3041 11.3937C98.3294 11.3713 98.3589 11.3541 98.3908 11.3431C98.4228 11.3321 98.4566 11.3275 98.4904 11.3296C98.5241 11.3316 98.5571 11.3403 98.5875 11.3552C98.6179 11.37 98.645 11.3906 98.6674 11.416C98.6898 11.4413 98.707 11.4708 98.718 11.5027C98.729 11.5347 98.7336 11.5685 98.7316 11.6022C98.7295 11.636 98.7208 11.669 98.706 11.6994L98.0586 13.0331C98.0373 13.0763 98.0042 13.1127 97.9632 13.138C97.9222 13.1634 97.8749 13.1767 97.8267 13.1764V13.1764Z" fill="#07B04B"/>
<path d="M100.606 14.0502C100.567 14.0503 100.529 14.0414 100.494 14.0243C100.433 13.9946 100.386 13.9419 100.364 13.8778C100.342 13.8137 100.346 13.7434 100.375 13.6823L100.733 12.9446C100.748 12.9138 100.768 12.8861 100.793 12.8633C100.819 12.8404 100.848 12.8228 100.88 12.8114C100.912 12.8 100.946 12.7951 100.98 12.797C101.014 12.7989 101.048 12.8076 101.078 12.8224C101.109 12.8373 101.136 12.8581 101.159 12.8836C101.181 12.9092 101.198 12.9389 101.209 12.9712C101.22 13.0034 101.225 13.0375 101.222 13.0715C101.22 13.1054 101.211 13.1386 101.195 13.169L100.837 13.9056C100.816 13.949 100.783 13.9855 100.742 14.0111C100.701 14.0367 100.654 14.0503 100.606 14.0502V14.0502Z" fill="#07B04B"/>
<path d="M90.1795 14.0503C90.1313 14.0503 90.084 14.0367 90.0432 14.0111C90.0023 13.9856 89.9694 13.949 89.9483 13.9056L89.5899 13.168C89.5746 13.1376 89.5655 13.1044 89.5631 13.0705C89.5607 13.0365 89.5651 13.0024 89.576 12.9702C89.5869 12.9379 89.6042 12.9082 89.6267 12.8827C89.6492 12.8571 89.6765 12.8363 89.7071 12.8215C89.7378 12.8066 89.771 12.7979 89.805 12.7961C89.839 12.7942 89.873 12.799 89.9051 12.8104C89.9372 12.8218 89.9667 12.8394 89.9919 12.8623C90.0171 12.8852 90.0375 12.9128 90.052 12.9436L90.4104 13.6813C90.4398 13.7424 90.4439 13.8127 90.4216 13.8768C90.3994 13.9409 90.3527 13.9936 90.2917 14.0233C90.2569 14.0408 90.2185 14.05 90.1795 14.0503V14.0503Z" fill="#07B04B"/>
<path d="M91.6193 16.9227L91.753 16.5722C91.8299 16.3713 91.9484 16.1889 92.1009 16.0371C92.2533 15.8853 92.4362 15.7675 92.6374 15.6915C92.8387 15.6155 93.0538 15.583 93.2685 15.5962C93.4832 15.6094 93.6927 15.6679 93.8832 15.7679C94.0296 15.8447 94.1992 15.8649 94.3595 15.8246C94.5199 15.7844 94.6598 15.6865 94.7525 15.5497C94.8043 15.4735 94.8399 15.3876 94.857 15.2971C94.8742 15.2067 94.8726 15.1137 94.8523 15.0239C94.832 14.9341 94.7934 14.8494 94.739 14.7751C94.6846 14.7009 94.6155 14.6386 94.5361 14.5921L94.3121 14.4608C93.9013 14.2199 93.4362 14.087 92.9602 14.0745C92.4842 14.062 92.0127 14.1703 91.5899 14.3893C91.1863 14.5984 90.8392 14.9019 90.5783 15.274L87.1585 20.1531C87.118 20.2104 87.0961 20.2787 87.0957 20.3488C87.0953 20.4189 87.1166 20.4875 87.1565 20.5451C87.1964 20.6028 87.253 20.6468 87.3188 20.6712C87.3845 20.6956 87.4562 20.6992 87.5241 20.6815L87.5733 20.6688L91.6193 16.9227Z" fill="#07B04B"/>
<path d="M90.9266 16.457C91.122 15.8887 91.5194 15.412 92.0432 15.1174C92.0654 15.1051 92.0877 15.0935 92.1099 15.0832C92.5327 14.8642 93.0041 14.7559 93.4801 14.7683C93.9562 14.7807 94.4213 14.9136 94.8321 15.1544L94.8663 15.1749C94.8669 15.3097 94.8267 15.4416 94.751 15.5531C94.6582 15.69 94.5182 15.7878 94.3578 15.828C94.1973 15.8682 94.0277 15.8479 93.8814 15.771C93.6909 15.671 93.4814 15.6125 93.2666 15.5993C93.0519 15.5861 92.8368 15.6186 92.6356 15.6946C92.4343 15.7706 92.2514 15.8884 92.099 16.0402C91.9465 16.192 91.828 16.3744 91.7511 16.5753L91.6174 16.9258L90.4492 17.8181L90.9266 16.457Z" fill="#07B04B"/>
<path d="M91.1002 16.4785C91.3606 16.1063 91.7072 15.8027 92.1104 15.5934C92.5333 15.3745 93.0047 15.2663 93.4807 15.2788C93.9567 15.2913 94.4218 15.4241 94.8326 15.6649L95.0573 15.7966C95.1365 15.8431 95.2053 15.9053 95.2595 15.9795C95.3137 16.0536 95.3521 16.1381 95.3724 16.2277C95.3926 16.3172 95.3943 16.41 95.3773 16.5003C95.3602 16.5905 95.3249 16.6764 95.2734 16.7524C95.1805 16.889 95.0406 16.9866 94.8803 17.0267C94.7201 17.0668 94.5507 17.0466 94.4044 16.9699C94.214 16.8699 94.0045 16.8113 93.7898 16.7981C93.575 16.7849 93.36 16.8174 93.1587 16.8934C92.9575 16.9694 92.7746 17.0872 92.6222 17.2391C92.4698 17.3909 92.3513 17.5733 92.2745 17.7742L92.1405 18.1248C91.9781 18.5508 91.9784 19.0217 92.1414 19.4475C92.3045 19.8732 92.6188 20.2239 93.0242 20.4325L95.0207 21.4386C95.1416 21.5007 95.2412 21.5977 95.3065 21.717C95.3717 21.8363 95.3998 21.9725 95.3869 22.1078C95.3507 22.4905 94.983 22.7672 94.6004 22.7193L92.4407 22.4457C92.0534 22.3969 91.66 22.4436 91.2949 22.582C90.9298 22.7203 90.6042 22.9459 90.3464 23.2391L89.6242 24.0616L87.562 26.5611C87.5451 26.5818 87.5226 26.597 87.4972 26.605C87.4717 26.613 87.4445 26.6134 87.4189 26.6061C87.3932 26.5989 87.3703 26.5843 87.3528 26.5641C87.3353 26.544 87.3241 26.5192 87.3206 26.4928L86.6414 21.0446C86.6307 20.9602 86.6518 20.8749 86.7006 20.8052L87.391 19.8237L91.1002 16.4785Z" fill="#07B04B"/>
</g>
<g clip-path="url(#clip2_1312_18904)">
<path d="M12.3261 88.6938L12.4928 88.3577C12.5882 88.1648 12.6416 87.954 12.6496 87.739C12.6576 87.524 12.62 87.3098 12.5392 87.1104C12.4584 86.911 12.3363 86.731 12.1809 86.5823C12.0254 86.4335 11.8403 86.3194 11.6376 86.2474C11.4818 86.192 11.3519 86.0812 11.2726 85.9361C11.1933 85.7911 11.1702 85.6219 11.2077 85.4609C11.2285 85.3712 11.2675 85.2867 11.3223 85.2127C11.377 85.1387 11.4465 85.0768 11.5262 85.0308C11.6059 84.9847 11.6942 84.9556 11.7857 84.9451C11.8772 84.9346 11.9698 84.9431 12.0579 84.9699L12.3063 85.0453C12.7621 85.1834 13.1754 85.4347 13.5076 85.7758C13.8399 86.1169 14.0804 86.5366 14.2065 86.9958C14.3269 87.4341 14.3396 87.895 14.2434 88.3392L12.9816 94.1623C12.967 94.2309 12.9317 94.2934 12.8805 94.3412C12.8292 94.3891 12.7645 94.42 12.6951 94.4299C12.6256 94.4397 12.5548 94.428 12.4923 94.3962C12.4298 94.3645 12.3785 94.3143 12.3454 94.2524L12.3213 94.2077L12.3261 88.6938Z" fill="#07B04B"/>
<path d="M13.1403 88.8852C13.425 88.356 13.5053 87.7406 13.3661 87.156C13.3601 87.1313 13.3535 87.1071 13.3459 87.0838C13.2198 86.6247 12.9794 86.2049 12.6472 85.8638C12.3149 85.5227 11.9017 85.2713 11.446 85.133L11.4077 85.1218C11.3083 85.2129 11.2387 85.3319 11.2082 85.4632C11.1707 85.6243 11.1939 85.7935 11.2732 85.9386C11.3526 86.0837 11.4827 86.1944 11.6385 86.2497C11.8412 86.3217 12.0264 86.4359 12.1818 86.5846C12.3372 86.7334 12.4593 86.9134 12.5401 87.1128C12.6209 87.3122 12.6586 87.5264 12.6506 87.7414C12.6426 87.9564 12.5891 88.1672 12.4937 88.36L12.3271 88.6961L12.4627 90.162L13.1403 88.8852Z" fill="#07B04B"/>
<path d="M13.0065 88.7736C13.1031 88.3297 13.0908 87.8691 12.9708 87.431C12.8445 86.9719 12.604 86.5522 12.2718 86.2111C11.9395 85.8701 11.5263 85.6187 11.0706 85.4804L10.8215 85.4048C10.7335 85.3782 10.6411 85.3699 10.5499 85.3804C10.4586 85.3909 10.3705 85.42 10.291 85.466C10.2114 85.5119 10.1422 85.5737 10.0874 85.6474C10.0327 85.7212 9.99371 85.8054 9.97281 85.8948C9.93558 86.0558 9.95883 86.2248 10.0381 86.3697C10.1175 86.5146 10.2473 86.6252 10.4029 86.6806C10.6056 86.7526 10.7908 86.8667 10.9462 87.0154C11.1017 87.1641 11.2238 87.3441 11.3046 87.5435C11.3854 87.7429 11.423 87.9571 11.4149 88.1721C11.4069 88.3871 11.3533 88.5979 11.2579 88.7907L11.0914 89.127C10.8888 89.5355 10.5428 89.8548 10.1195 90.0241C9.69614 90.1934 9.22527 90.2006 8.79694 90.0444L6.70246 89.2616C6.57471 89.215 6.43592 89.2077 6.30399 89.2408C6.17207 89.2738 6.05308 89.3456 5.96237 89.4469C5.70595 89.7333 5.75231 90.1911 6.04721 90.4396L7.71397 91.8398C8.01275 92.0911 8.24543 92.4118 8.39166 92.7738C8.53789 93.1358 8.59323 93.528 8.55283 93.9164L8.43927 95.0062L8.00367 98.2155C7.99998 98.2419 8.00408 98.2688 8.01547 98.2929C8.02687 98.317 8.04505 98.3373 8.0678 98.3512C8.09055 98.3651 8.11686 98.372 8.1435 98.3712C8.17015 98.3703 8.19596 98.3617 8.21778 98.3464L12.6787 95.1486C12.7479 95.0993 12.7963 95.0258 12.8143 94.9427L13.0679 93.7705L13.0065 88.7736Z" fill="#07B04B"/>
<path d="M10.8672 81.5939C10.8344 81.5585 10.8123 81.5146 10.8033 81.4672C10.7944 81.4198 10.7989 81.3708 10.8165 81.3259L11.3565 79.9452C11.3685 79.9133 11.3866 79.8842 11.4099 79.8594C11.4333 79.8346 11.4613 79.8146 11.4923 79.8008C11.5234 79.7869 11.557 79.7793 11.591 79.7785C11.625 79.7777 11.6589 79.7837 11.6906 79.7961C11.7223 79.8085 11.7512 79.8271 11.7756 79.8507C11.8001 79.8744 11.8196 79.9027 11.833 79.934C11.8465 79.9653 11.8535 79.9989 11.8539 80.0329C11.8542 80.067 11.8477 80.1007 11.8349 80.1322L11.2948 81.5129C11.2789 81.5534 11.253 81.5891 11.2195 81.6169C11.186 81.6446 11.146 81.6634 11.1033 81.6714C11.0606 81.6795 11.0166 81.6767 10.9753 81.6631C10.9339 81.6495 10.8968 81.6257 10.8672 81.5939V81.5939Z" fill="#07B04B"/>
<path d="M12.8961 83.0331C12.8498 82.983 12.8253 82.9167 12.828 82.8486C12.8307 82.7806 12.8603 82.7164 12.9103 82.6701L13.8898 81.7649C13.9141 81.7399 13.9433 81.7202 13.9755 81.7069C14.0077 81.6936 14.0422 81.687 14.0771 81.6874C14.1119 81.6879 14.1463 81.6955 14.1781 81.7096C14.21 81.7238 14.2386 81.7443 14.2622 81.7699C14.2859 81.7955 14.3041 81.8256 14.3157 81.8585C14.3273 81.8913 14.3322 81.9262 14.3299 81.9609C14.3276 81.9957 14.3183 82.0297 14.3025 82.0607C14.2867 82.0918 14.2647 82.1193 14.238 82.1416L13.2585 83.0468C13.2086 83.093 13.1424 83.1175 13.0744 83.1149C13.0065 83.1123 12.9423 83.0829 12.8961 83.0331V83.0331Z" fill="#07B04B"/>
<path d="M14.171 85.1697C14.1416 85.1377 14.1207 85.0987 14.1105 85.0565C14.1002 85.0143 14.1008 84.9701 14.1122 84.9282C14.1236 84.8862 14.1455 84.8478 14.1757 84.8166C14.206 84.7854 14.2437 84.7624 14.2853 84.7497L15.7041 84.3199C15.7365 84.3101 15.7705 84.3069 15.8041 84.3102C15.8377 84.3136 15.8704 84.3236 15.9001 84.3396C15.9299 84.3556 15.9563 84.3773 15.9776 84.4035C15.999 84.4297 16.015 84.4598 16.0248 84.4922C16.0345 84.5246 16.0378 84.5585 16.0344 84.5922C16.031 84.6258 16.021 84.6584 16.005 84.6882C15.989 84.718 15.9673 84.7443 15.9411 84.7657C15.9149 84.7871 15.8848 84.8031 15.8524 84.8129L14.4336 85.2427C14.3874 85.2564 14.3382 85.2568 14.2918 85.2439C14.2454 85.231 14.2035 85.2053 14.171 85.1697V85.1697Z" fill="#07B04B"/>
<path d="M15.4154 87.8035C15.389 87.775 15.3696 87.7409 15.3586 87.7037C15.3389 87.6387 15.3458 87.5686 15.3778 87.5087C15.4097 87.4489 15.4641 87.4041 15.529 87.3842L16.3139 87.1467C16.3464 87.1364 16.3805 87.1326 16.4144 87.1356C16.4483 87.1386 16.4813 87.1483 16.5114 87.1641C16.5416 87.1799 16.5682 87.2016 16.5899 87.2279C16.6116 87.2541 16.6278 87.2844 16.6377 87.317C16.6476 87.3496 16.6509 87.3838 16.6474 87.4176C16.6439 87.4515 16.6337 87.4843 16.6175 87.5142C16.6012 87.5441 16.5791 87.5705 16.5526 87.5918C16.526 87.6131 16.4955 87.6289 16.4628 87.6383L15.6786 87.8751C15.6324 87.889 15.5832 87.8897 15.5367 87.8771C15.4902 87.8644 15.4481 87.8389 15.4154 87.8035V87.8035Z" fill="#07B04B"/>
<path d="M8.34118 80.1465C8.30846 80.1111 8.28636 80.0672 8.2774 80.0198C8.26844 79.9724 8.27298 79.9235 8.2905 79.8785L8.58895 79.1147C8.60089 79.0828 8.61904 79.0536 8.64236 79.0288C8.66567 79.004 8.69369 78.9841 8.72477 78.9702C8.75585 78.9563 8.78938 78.9488 8.82341 78.948C8.85744 78.9472 8.89128 78.9531 8.92299 78.9655C8.95469 78.9779 8.98361 78.9965 9.00807 79.0202C9.03253 79.0438 9.05204 79.0721 9.06547 79.1034C9.07889 79.1347 9.08597 79.1683 9.08628 79.2024C9.0866 79.2364 9.08014 79.2702 9.06729 79.3017L8.76884 80.0656C8.74397 80.1287 8.6951 80.1794 8.63294 80.2065C8.57077 80.2337 8.50038 80.2351 8.43716 80.2105C8.40067 80.1968 8.36783 80.1749 8.34118 80.1465V80.1465Z" fill="#07B04B"/>
<path d="M7.20456 83.1507L7.55274 83.011C7.75246 82.931 7.96686 82.8943 8.18181 82.9032C8.39675 82.9121 8.60737 82.9665 8.79978 83.0627C8.9922 83.1589 9.16204 83.2948 9.29813 83.4614C9.43421 83.6281 9.53345 83.8216 9.58931 84.0294C9.63226 84.189 9.7325 84.3272 9.87089 84.4177C10.0093 84.5081 10.1761 84.5444 10.3396 84.5197C10.4306 84.506 10.5179 84.4738 10.596 84.425C10.674 84.3762 10.7412 84.3119 10.7934 84.236C10.8456 84.1602 10.8816 84.0744 10.8992 83.984C10.9168 83.8937 10.9157 83.8007 10.8958 83.7108L10.8402 83.4571C10.7384 82.992 10.5203 82.5602 10.2064 82.2021C9.89244 81.8441 9.4929 81.5714 9.04505 81.4095C8.61761 81.255 8.15914 81.2062 7.70874 81.2672L1.80449 82.0674C1.73496 82.0765 1.66991 82.1068 1.61817 82.1542C1.56642 82.2015 1.53048 82.2636 1.51522 82.332C1.49995 82.4005 1.50609 82.472 1.53282 82.5368C1.55954 82.6016 1.60555 82.6567 1.66462 82.6945L1.70734 82.7221L7.20456 83.1507Z" fill="#07B04B"/>
<path d="M7.07932 82.327C7.62928 82.0848 8.24907 82.053 8.82091 82.2378C8.84504 82.2458 8.86867 82.2542 8.89129 82.2635C9.33912 82.4254 9.73866 82.698 10.0526 83.0561C10.3666 83.4141 10.5847 83.8458 10.6867 84.3109L10.6949 84.35C10.5963 84.4419 10.4722 84.5019 10.3389 84.522C10.1754 84.5468 10.0085 84.5104 9.87008 84.4199C9.73168 84.3293 9.63149 84.191 9.58863 84.0313C9.53278 83.8235 9.43354 83.6299 9.29745 83.4633C9.16137 83.2967 8.99152 83.1608 8.79911 83.0646C8.60669 82.9684 8.39608 82.914 8.18113 82.9051C7.96618 82.8962 7.75179 82.9329 7.55206 83.0128L7.20389 83.1526L5.75573 82.9003L7.07932 82.327Z" fill="#07B04B"/>
<path d="M7.17779 82.4678C7.62787 82.4064 8.08611 82.4549 8.51342 82.6089C8.96119 82.7709 9.36065 83.0436 9.67456 83.4017C9.98846 83.7597 10.2066 84.1914 10.3086 84.6565L10.3644 84.9109C10.3841 85.0006 10.3851 85.0934 10.3674 85.1836C10.3497 85.2737 10.3138 85.3592 10.2617 85.4349C10.2097 85.5106 10.1427 85.5748 10.0648 85.6236C9.98701 85.6723 9.9 85.7046 9.80919 85.7184C9.64583 85.7429 9.47918 85.7064 9.34096 85.616C9.20274 85.5255 9.10262 85.3874 9.05965 85.2279C9.00386 85.0201 8.90466 84.8265 8.7686 84.6599C8.63254 84.4933 8.46271 84.3574 8.27029 84.2612C8.07788 84.165 7.86726 84.1106 7.65232 84.1018C7.43738 84.0929 7.223 84.1297 7.02331 84.2097L6.6749 84.3492C6.25183 84.5191 5.90623 84.839 5.70422 85.2477C5.50222 85.6564 5.45799 86.1252 5.58 86.5645L6.19627 88.7136C6.23272 88.8446 6.22906 88.9835 6.18577 89.1124C6.14247 89.2414 6.06153 89.3543 5.95338 89.4368C5.64775 89.6699 5.19505 89.5877 4.97046 89.2742L3.70553 87.5025C3.47851 87.1849 3.17713 86.9278 2.82776 86.7535C2.47839 86.5793 2.09166 86.4933 1.70138 86.5031L0.607142 86.5309L-2.62814 86.7131C-2.65475 86.7147 -2.68125 86.7085 -2.70438 86.6953C-2.72751 86.682 -2.74627 86.6623 -2.75834 86.6385C-2.77041 86.6147 -2.77528 86.588 -2.77234 86.5615C-2.7694 86.535 -2.75878 86.5099 -2.74179 86.4894L0.798153 82.2927C0.852831 82.2275 0.929826 82.1851 1.01411 82.1737L2.20354 82.0145L7.17779 82.4678Z" fill="#07B04B"/>
</g>
<g clip-path="url(#clip3_1312_18904)">
<path d="M17.7358 57.551C17.717 57.2382 17.4576 56.9944 17.1443 56.995H14.7784V55.2206C14.7784 53.5872 13.4543 52.2632 11.821 52.2632C10.1877 52.2632 8.8636 53.5872 8.8636 55.2206V56.995H6.49769C6.18439 56.9944 5.92499 57.2382 5.90621 57.551L5.38571 66.9496C5.33019 67.928 6.07833 68.7662 7.05675 68.8217C7.09117 68.8237 7.12566 68.8246 7.16015 68.8246H16.4877C17.4678 68.8261 18.2634 68.033 18.265 67.053C18.2651 67.0185 18.2641 66.984 18.2622 66.9496L17.7358 57.551ZM10.0466 55.2206C10.0466 54.2406 10.841 53.4461 11.821 53.4461C12.801 53.4461 13.5954 54.2406 13.5954 55.2206V56.995H10.0466V55.2206Z" fill="#07B04B"/>
</g>
<g clip-path="url(#clip4_1312_18904)">
<path d="M30.7417 51.9437C30.7362 51.8524 30.6605 51.7813 30.5691 51.7815H29.8791V51.2639C29.8791 50.7876 29.4929 50.4014 29.0165 50.4014C28.5401 50.4014 28.1539 50.7876 28.1539 51.2639V51.7815H27.4638C27.3725 51.7813 27.2968 51.8524 27.2913 51.9437L27.1395 54.6849C27.1233 54.9703 27.3415 55.2148 27.6269 55.231C27.6369 55.2316 27.647 55.2318 27.6571 55.2318H30.3776C30.6635 55.2323 30.8956 55.0009 30.896 54.7151C30.896 54.705 30.8958 54.695 30.8952 54.6849L30.7417 51.9437ZM28.4989 51.2639C28.4989 50.9781 28.7307 50.7464 29.0165 50.7464C29.3023 50.7464 29.534 50.9781 29.534 51.2639V51.7815H28.4989V51.2639Z" fill="#07B04B"/>
</g>
<g clip-path="url(#clip5_1312_18904)">
<path d="M66.7226 90.5974C66.7058 90.3176 66.4737 90.0994 66.1933 90.0999H64.0765V88.5123C64.0765 87.0509 62.8918 85.8662 61.4304 85.8662C59.969 85.8662 58.7843 87.0509 58.7843 88.5123V90.0999H56.6674C56.3871 90.0994 56.155 90.3176 56.1382 90.5974L55.6725 99.0067C55.6228 99.8821 56.2922 100.632 57.1677 100.682C57.1984 100.683 57.2293 100.684 57.2602 100.684H65.6059C66.4828 100.686 67.1947 99.976 67.1961 99.0992C67.1962 99.0683 67.1953 99.0375 67.1936 99.0067L66.7226 90.5974ZM59.8427 88.5123C59.8427 87.6354 60.5536 86.9246 61.4304 86.9246C62.3072 86.9246 63.018 87.6354 63.018 88.5123V90.0999H59.8427V88.5123Z" fill="#07B04B"/>
</g>
<path d="M85.5459 85.6901C86.1942 85.6901 86.8158 85.1195 86.7856 84.4499C86.7556 83.7785 86.2409 83.2102 85.5459 83.2102C84.8971 83.2102 84.276 83.7803 84.3057 84.4499C84.3359 85.1218 84.8509 85.6901 85.5459 85.6901V85.6901Z" fill="#07B04B"/>
<path d="M81.1746 86.798C81.8231 86.798 82.4445 86.2279 82.4145 85.5583C82.3845 84.8864 81.8699 84.3186 81.1746 84.3186C80.526 84.3186 79.9047 84.8887 79.9346 85.5583C79.9649 86.2302 80.4795 86.798 81.1746 86.798V86.798Z" fill="#07B04B"/>
<path d="M84.438 90.0619C85.0868 90.0619 85.7079 89.4918 85.6782 88.8222C85.648 88.1503 85.133 87.5823 84.438 87.5823C83.7897 87.5823 83.1681 88.1523 83.1983 88.8222C83.2283 89.4939 83.743 90.0619 84.438 90.0619V90.0619Z" fill="#07B04B"/>
</g>
<path d="M339.43 35.8011V42.9773C339.43 43.7636 339.635 44.3671 340.045 44.788C340.454 45.1977 341.03 45.4026 341.772 45.4026C342.525 45.4026 343.107 45.1977 343.516 44.788C343.926 44.3671 344.131 43.7636 344.131 42.9773V35.8011H346.473V42.9607C346.473 43.9463 346.257 44.7824 345.825 45.469C345.405 46.1446 344.834 46.654 344.114 46.9973C343.406 47.3406 342.614 47.5123 341.739 47.5123C340.875 47.5123 340.089 47.3406 339.38 46.9973C338.682 46.654 338.129 46.1446 337.719 45.469C337.309 44.7824 337.104 43.9463 337.104 42.9607V35.8011H339.43ZM358.637 47.396H356.312L351.046 39.439V47.396H348.72V35.7845H351.046L356.312 43.758V35.7845H358.637V47.396ZM364.989 35.8011C366.207 35.8011 367.276 36.0392 368.195 36.5154C369.125 36.9916 369.839 37.6727 370.338 38.5586C370.847 39.4335 371.102 40.4523 371.102 41.6151C371.102 42.778 370.847 43.7968 370.338 44.6717C369.839 45.5355 369.125 46.2055 368.195 46.6817C367.276 47.1579 366.207 47.396 364.989 47.396H360.936V35.8011H364.989ZM364.906 45.4192C366.124 45.4192 367.065 45.087 367.73 44.4225C368.394 43.758 368.727 42.8223 368.727 41.6151C368.727 40.408 368.394 39.4667 367.73 38.7912C367.065 38.1046 366.124 37.7612 364.906 37.7612H363.261V45.4192H364.906ZM378.225 47.5123C377.14 47.5123 376.143 47.2576 375.235 46.7481C374.327 46.2387 373.607 45.5355 373.075 44.6385C372.544 43.7304 372.278 42.706 372.278 41.5653C372.278 40.4357 372.544 39.4224 373.075 38.5254C373.607 37.6173 374.327 36.9085 375.235 36.3991C376.143 35.8897 377.14 35.635 378.225 35.635C379.321 35.635 380.318 35.8897 381.215 36.3991C382.123 36.9085 382.837 37.6173 383.358 38.5254C383.89 39.4224 384.155 40.4357 384.155 41.5653C384.155 42.706 383.89 43.7304 383.358 44.6385C382.837 45.5355 382.123 46.2387 381.215 46.7481C380.307 47.2576 379.31 47.5123 378.225 47.5123ZM378.225 45.4358C378.923 45.4358 379.537 45.2808 380.069 44.9707C380.6 44.6495 381.016 44.1955 381.315 43.6085C381.614 43.0216 381.763 42.3405 381.763 41.5653C381.763 40.7901 381.614 40.1146 381.315 39.5387C381.016 38.9517 380.6 38.5032 380.069 38.1932C379.537 37.8831 378.923 37.728 378.225 37.728C377.527 37.728 376.907 37.8831 376.364 38.1932C375.833 38.5032 375.418 38.9517 375.119 39.5387C374.82 40.1146 374.67 40.7901 374.67 41.5653C374.67 42.3405 374.82 43.0216 375.119 43.6085C375.418 44.1955 375.833 44.6495 376.364 44.9707C376.907 45.2808 377.527 45.4358 378.225 45.4358ZM399.063 35.8011L395.143 43.3594V47.396H392.817V43.3594L388.88 35.8011H391.505L393.997 41.1002L396.472 35.8011H399.063ZM405.787 47.5123C404.701 47.5123 403.705 47.2576 402.797 46.7481C401.888 46.2387 401.169 45.5355 400.637 44.6385C400.105 43.7304 399.84 42.706 399.84 41.5653C399.84 40.4357 400.105 39.4224 400.637 38.5254C401.169 37.6173 401.888 36.9085 402.797 36.3991C403.705 35.8897 404.701 35.635 405.787 35.635C406.883 35.635 407.88 35.8897 408.777 36.3991C409.685 36.9085 410.399 37.6173 410.92 38.5254C411.451 39.4224 411.717 40.4357 411.717 41.5653C411.717 42.706 411.451 43.7304 410.92 44.6385C410.399 45.5355 409.685 46.2387 408.777 46.7481C407.869 47.2576 406.872 47.5123 405.787 47.5123ZM405.787 45.4358C406.484 45.4358 407.099 45.2808 407.631 44.9707C408.162 44.6495 408.577 44.1955 408.876 43.6085C409.175 43.0216 409.325 42.3405 409.325 41.5653C409.325 40.7901 409.175 40.1146 408.876 39.5387C408.577 38.9517 408.162 38.5032 407.631 38.1932C407.099 37.8831 406.484 37.728 405.787 37.728C405.089 37.728 404.469 37.8831 403.926 38.1932C403.395 38.5032 402.979 38.9517 402.68 39.5387C402.381 40.1146 402.232 40.7901 402.232 41.5653C402.232 42.3405 402.381 43.0216 402.68 43.6085C402.979 44.1955 403.395 44.6495 403.926 44.9707C404.469 45.2808 405.089 45.4358 405.787 45.4358ZM415.74 35.8011V42.9773C415.74 43.7636 415.945 44.3671 416.354 44.788C416.764 45.1977 417.34 45.4026 418.082 45.4026C418.835 45.4026 419.416 45.1977 419.826 44.788C420.236 44.3671 420.441 43.7636 420.441 42.9773V35.8011H422.783V42.9607C422.783 43.9463 422.567 44.7824 422.135 45.469C421.714 46.1446 421.144 46.654 420.424 46.9973C419.715 47.3406 418.924 47.5123 418.049 47.5123C417.185 47.5123 416.399 47.3406 415.69 46.9973C414.992 46.654 414.438 46.1446 414.029 45.469C413.619 44.7824 413.414 43.9463 413.414 42.9607V35.8011H415.74ZM431.01 47.396L428.452 42.8776H427.356V47.396H425.03V35.8011H429.382C430.279 35.8011 431.043 35.9617 431.675 36.2828C432.306 36.5929 432.777 37.0193 433.087 37.5619C433.408 38.0935 433.568 38.6915 433.568 39.356C433.568 40.1201 433.347 40.8123 432.904 41.4324C432.461 42.0415 431.802 42.4623 430.927 42.6949L433.701 47.396H431.01ZM427.356 41.1334H429.299C429.93 41.1334 430.401 40.9839 430.711 40.6849C431.021 40.3748 431.176 39.9484 431.176 39.4058C431.176 38.8742 431.021 38.4645 430.711 38.1765C430.401 37.8775 429.93 37.728 429.299 37.728H427.356V41.1334ZM441.956 35.8011V47.396H439.63V35.8011H441.956ZM456.895 35.8011V47.396H454.569V39.8543L451.463 47.396H449.702L446.579 39.8543V47.396H444.253V35.8011H446.895L450.582 44.4225L454.27 35.8011H456.895ZM467.649 39.3892C467.649 40.0094 467.5 40.5908 467.201 41.1334C466.913 41.6761 466.453 42.1135 465.822 42.4457C465.202 42.778 464.416 42.9441 463.463 42.9441H461.52V47.396H459.194V35.8011H463.463C464.36 35.8011 465.124 35.9561 465.756 36.2662C466.387 36.5763 466.858 37.0027 467.168 37.5453C467.489 38.0879 467.649 38.7026 467.649 39.3892ZM463.364 41.067C464.006 41.067 464.482 40.923 464.792 40.6351C465.102 40.3361 465.257 39.9208 465.257 39.3892C465.257 38.2596 464.626 37.6948 463.364 37.6948H461.52V41.067H463.364ZM471.593 35.8011V42.9773C471.593 43.7636 471.798 44.3671 472.208 44.788C472.617 45.1977 473.193 45.4026 473.935 45.4026C474.688 45.4026 475.27 45.1977 475.679 44.788C476.089 44.3671 476.294 43.7636 476.294 42.9773V35.8011H478.636V42.9607C478.636 43.9463 478.42 44.7824 477.988 45.469C477.568 46.1446 476.997 46.654 476.277 46.9973C475.569 47.3406 474.777 47.5123 473.902 47.5123C473.038 47.5123 472.252 47.3406 471.543 46.9973C470.845 46.654 470.292 46.1446 469.882 45.469C469.472 44.7824 469.267 43.9463 469.267 42.9607V35.8011H471.593ZM483.209 45.5521H487.03V47.396H480.883V35.8011H483.209V45.5521ZM492.511 47.5123C491.703 47.5123 490.972 47.3738 490.318 47.097C489.676 46.8201 489.167 46.4214 488.79 45.9009C488.414 45.3805 488.22 44.7658 488.209 44.0571H490.701C490.734 44.5333 490.9 44.9098 491.199 45.1866C491.509 45.4635 491.93 45.6019 492.461 45.6019C493.004 45.6019 493.43 45.4746 493.74 45.2199C494.051 44.9541 494.206 44.6108 494.206 44.19C494.206 43.8466 494.1 43.5642 493.89 43.3428C493.68 43.1213 493.414 42.9496 493.093 42.8278C492.783 42.6949 492.351 42.5509 491.797 42.3959C491.044 42.1744 490.429 41.9585 489.953 41.748C489.488 41.5266 489.084 41.1999 488.74 40.768C488.408 40.325 488.242 39.738 488.242 39.0071C488.242 38.3205 488.414 37.7225 488.757 37.2131C489.1 36.7036 489.582 36.316 490.202 36.0503C490.822 35.7734 491.531 35.635 492.328 35.635C493.525 35.635 494.494 35.9284 495.236 36.5154C495.989 37.0912 496.404 37.8997 496.481 38.9407H493.923C493.901 38.542 493.729 38.2153 493.408 37.9606C493.098 37.6948 492.683 37.5619 492.162 37.5619C491.708 37.5619 491.343 37.6782 491.066 37.9108C490.8 38.1433 490.667 38.4811 490.667 38.9241C490.667 39.2341 490.767 39.4944 490.966 39.7048C491.177 39.9041 491.431 40.0703 491.73 40.2032C492.041 40.325 492.472 40.4689 493.026 40.6351C493.779 40.8565 494.394 41.078 494.87 41.2995C495.346 41.521 495.756 41.8532 496.099 42.2962C496.443 42.7392 496.614 43.3206 496.614 44.0404C496.614 44.6606 496.454 45.2365 496.133 45.7681C495.811 46.2996 495.341 46.726 494.721 47.0472C494.1 47.3572 493.364 47.5123 492.511 47.5123ZM500.956 35.8011V47.396H498.631V35.8011H500.956ZM513.669 35.8011L509.417 47.396H506.593L502.34 35.8011H504.832L508.021 45.0205L511.194 35.8011H513.669ZM517.389 37.6782V40.5852H521.293V42.4291H517.389V45.5023H521.791V47.396H515.064V35.7845H521.791V37.6782H517.389ZM404.108 72.5123C403.299 72.5123 402.568 72.3738 401.915 72.097C401.273 71.8201 400.763 71.4214 400.387 70.9009C400.01 70.3805 399.816 69.7658 399.805 69.0571H402.297C402.33 69.5333 402.496 69.9098 402.795 70.1866C403.106 70.4635 403.526 70.6019 404.058 70.6019C404.601 70.6019 405.027 70.4746 405.337 70.2199C405.647 69.9541 405.802 69.6108 405.802 69.19C405.802 68.8466 405.697 68.5642 405.487 68.3428C405.276 68.1213 405.01 67.9496 404.689 67.8278C404.379 67.6949 403.947 67.5509 403.393 67.3959C402.64 67.1744 402.026 66.9585 401.55 66.748C401.084 66.5266 400.68 66.1999 400.337 65.768C400.005 65.325 399.839 64.738 399.839 64.0071C399.839 63.3205 400.01 62.7225 400.354 62.2131C400.697 61.7036 401.179 61.316 401.799 61.0503C402.419 60.7734 403.128 60.635 403.925 60.635C405.121 60.635 406.09 60.9284 406.832 61.5154C407.585 62.0912 408 62.8997 408.078 63.9407H405.52C405.498 63.542 405.326 63.2153 405.005 62.9606C404.695 62.6948 404.279 62.5619 403.759 62.5619C403.305 62.5619 402.939 62.6782 402.663 62.9108C402.397 63.1433 402.264 63.4811 402.264 63.9241C402.264 64.2341 402.364 64.4944 402.563 64.7048C402.773 64.9041 403.028 65.0703 403.327 65.2032C403.637 65.325 404.069 65.4689 404.623 65.6351C405.376 65.8565 405.99 66.078 406.467 66.2995C406.943 66.521 407.353 66.8532 407.696 67.2962C408.039 67.7392 408.211 68.3206 408.211 69.0404C408.211 69.6606 408.05 70.2365 407.729 70.7681C407.408 71.2996 406.937 71.726 406.317 72.0472C405.697 72.3572 404.961 72.5123 404.108 72.5123ZM425.726 60.8011L422.486 72.396H419.746L417.569 64.14L415.294 72.396L412.569 72.4126L409.446 60.8011H411.938L413.981 69.8046L416.34 60.8011H418.932L421.158 69.7547L423.217 60.8011H425.726ZM429.57 60.8011V72.396H427.244V60.8011H429.57ZM440.323 64.3892C440.323 65.0094 440.173 65.5908 439.874 66.1334C439.587 66.6761 439.127 67.1135 438.496 67.4457C437.876 67.778 437.089 67.9441 436.137 67.9441H434.193V72.396H431.868V60.8011H436.137C437.034 60.8011 437.798 60.9561 438.429 61.2662C439.06 61.5763 439.531 62.0027 439.841 62.5453C440.162 63.0879 440.323 63.7026 440.323 64.3892ZM436.037 66.067C436.679 66.067 437.156 65.923 437.466 65.6351C437.776 65.3361 437.931 64.9208 437.931 64.3892C437.931 63.2596 437.3 62.6948 436.037 62.6948H434.193V66.067H436.037ZM444.3 62.6782V65.5852H448.204V67.4291H444.3V70.5023H448.702V72.396H441.974V60.7845H448.702V62.6782H444.3ZM454.819 72.5123C454.01 72.5123 453.279 72.3738 452.626 72.097C451.984 71.8201 451.474 71.4214 451.098 70.9009C450.721 70.3805 450.527 69.7658 450.516 69.0571H453.008C453.041 69.5333 453.207 69.9098 453.506 70.1866C453.816 70.4635 454.237 70.6019 454.769 70.6019C455.312 70.6019 455.738 70.4746 456.048 70.2199C456.358 69.9541 456.513 69.6108 456.513 69.19C456.513 68.8466 456.408 68.5642 456.197 68.3428C455.987 68.1213 455.721 67.9496 455.4 67.8278C455.09 67.6949 454.658 67.5509 454.104 67.3959C453.351 67.1744 452.737 66.9585 452.261 66.748C451.795 66.5266 451.391 66.1999 451.048 65.768C450.716 65.325 450.55 64.738 450.55 64.0071C450.55 63.3205 450.721 62.7225 451.064 62.2131C451.408 61.7036 451.89 61.316 452.51 61.0503C453.13 60.7734 453.839 60.635 454.636 60.635C455.832 60.635 456.801 60.9284 457.543 61.5154C458.296 62.0912 458.711 62.8997 458.789 63.9407H456.231C456.209 63.542 456.037 63.2153 455.716 62.9606C455.406 62.6948 454.99 62.5619 454.47 62.5619C454.016 62.5619 453.65 62.6782 453.373 62.9108C453.108 63.1433 452.975 63.4811 452.975 63.9241C452.975 64.2341 453.074 64.4944 453.274 64.7048C453.484 64.9041 453.739 65.0703 454.038 65.2032C454.348 65.325 454.78 65.4689 455.334 65.6351C456.087 65.8565 456.701 66.078 457.178 66.2995C457.654 66.521 458.064 66.8532 458.407 67.2962C458.75 67.7392 458.922 68.3206 458.922 69.0404C458.922 69.6606 458.761 70.2365 458.44 70.7681C458.119 71.2996 457.648 71.726 457.028 72.0472C456.408 72.3572 455.671 72.5123 454.819 72.5123Z" fill="white"/>
<path d="M175.576 62.365L172.043 56.2274H170.123V62.365H167.606V47.021H172.905C174.082 47.021 175.075 47.2271 175.885 47.6392C176.709 48.0513 177.32 48.6033 177.717 49.295C178.13 49.9868 178.336 50.7595 178.336 51.6132C178.336 52.614 178.041 53.5266 177.453 54.3508C176.878 55.1603 175.988 55.7123 174.781 56.0066L178.578 62.365H175.576ZM170.123 54.2183H172.905C173.846 54.2183 174.553 53.9828 175.024 53.5119C175.51 53.0409 175.753 52.408 175.753 51.6132C175.753 50.8184 175.517 50.2002 175.046 49.7587C174.575 49.3024 173.861 49.0743 172.905 49.0743H170.123V54.2183ZM186.832 62.5637C185.684 62.5637 184.646 62.3061 183.719 61.791C182.792 61.2611 182.063 60.5252 181.533 59.5832C181.003 58.6265 180.738 57.5226 180.738 56.2716C180.738 55.0352 181.011 53.9387 181.555 52.982C182.1 52.0253 182.843 51.2894 183.785 50.7742C184.727 50.2591 185.78 50.0015 186.942 50.0015C188.105 50.0015 189.157 50.2591 190.099 50.7742C191.041 51.2894 191.785 52.0253 192.329 52.982C192.874 53.9387 193.146 55.0352 193.146 56.2716C193.146 57.5079 192.866 58.6044 192.307 59.5611C191.748 60.5178 190.982 61.2611 190.011 61.791C189.054 62.3061 187.995 62.5637 186.832 62.5637ZM186.832 60.378C187.479 60.378 188.083 60.2235 188.642 59.9144C189.216 59.6053 189.68 59.1417 190.033 58.5235C190.386 57.9053 190.563 57.1547 190.563 56.2716C190.563 55.3885 190.394 54.6452 190.055 54.0417C189.717 53.4235 189.268 52.9599 188.708 52.6508C188.149 52.3417 187.546 52.1872 186.898 52.1872C186.251 52.1872 185.647 52.3417 185.088 52.6508C184.543 52.9599 184.109 53.4235 183.785 54.0417C183.461 54.6452 183.299 55.3885 183.299 56.2716C183.299 57.5815 183.631 58.5971 184.293 59.3183C184.97 60.0248 185.816 60.378 186.832 60.378ZM198.151 46.0275V62.365H195.634V46.0275H198.151ZM203.972 46.0275V62.365H201.455V46.0275H203.972ZM209.793 52.0106C210.22 51.4218 210.802 50.9435 211.538 50.5755C212.288 50.1929 213.12 50.0015 214.032 50.0015C215.107 50.0015 216.078 50.2591 216.947 50.7742C217.815 51.2894 218.499 52.0253 219 52.982C219.5 53.924 219.75 55.0058 219.75 56.2274C219.75 57.449 219.5 58.5456 219 59.517C218.499 60.4737 217.808 61.2243 216.925 61.7689C216.056 62.2988 215.092 62.5637 214.032 62.5637C213.09 62.5637 212.251 62.3797 211.516 62.0117C210.794 61.6438 210.22 61.1728 209.793 60.5988V62.365H207.277V46.0275H209.793V52.0106ZM217.189 56.2274C217.189 55.3885 217.013 54.6673 216.66 54.0638C216.321 53.4456 215.865 52.982 215.291 52.6729C214.732 52.3491 214.128 52.1872 213.48 52.1872C212.848 52.1872 212.244 52.3491 211.67 52.6729C211.111 52.9967 210.655 53.4677 210.301 54.0859C209.963 54.7041 209.793 55.4326 209.793 56.2716C209.793 57.1105 209.963 57.8464 210.301 58.4793C210.655 59.0975 211.111 59.5685 211.67 59.8923C212.244 60.2161 212.848 60.378 213.48 60.378C214.128 60.378 214.732 60.2161 215.291 59.8923C215.865 59.5538 216.321 59.0681 216.66 58.4352C217.013 57.8023 217.189 57.0664 217.189 56.2274ZM221.4 56.2274C221.4 55.0058 221.651 53.924 222.151 52.982C222.666 52.04 223.358 51.3115 224.226 50.7963C225.109 50.2664 226.081 50.0015 227.141 50.0015C228.097 50.0015 228.929 50.1929 229.635 50.5755C230.357 50.9435 230.931 51.4071 231.357 51.9664V50.2002H233.896V62.365H231.357V60.5546C230.931 61.1286 230.349 61.607 229.613 61.9897C228.877 62.3723 228.038 62.5637 227.096 62.5637C226.051 62.5637 225.095 62.2988 224.226 61.7689C223.358 61.2243 222.666 60.4737 222.151 59.517C221.651 58.5456 221.4 57.449 221.4 56.2274ZM231.357 56.2716C231.357 55.4326 231.181 54.7041 230.828 54.0859C230.489 53.4677 230.04 52.9967 229.481 52.6729C228.922 52.3491 228.318 52.1872 227.67 52.1872C227.023 52.1872 226.419 52.3491 225.86 52.6729C225.301 52.982 224.845 53.4456 224.491 54.0638C224.153 54.6673 223.984 55.3885 223.984 56.2274C223.984 57.0664 224.153 57.8023 224.491 58.4352C224.845 59.0681 225.301 59.5538 225.86 59.8923C226.434 60.2161 227.038 60.378 227.67 60.378C228.318 60.378 228.922 60.2161 229.481 59.8923C230.04 59.5685 230.489 59.0975 230.828 58.4793C231.181 57.8464 231.357 57.1105 231.357 56.2716ZM236.363 56.2716C236.363 55.0205 236.613 53.924 237.114 52.982C237.629 52.0253 238.335 51.2894 239.233 50.7742C240.131 50.2591 241.161 50.0015 242.324 50.0015C243.796 50.0015 245.01 50.3548 245.967 51.0612C246.938 51.753 247.593 52.7465 247.932 54.0417H245.216C244.996 53.4383 244.642 52.9673 244.157 52.6288C243.671 52.2902 243.06 52.121 242.324 52.121C241.294 52.121 240.47 52.4889 239.851 53.2249C239.248 53.9461 238.946 54.9616 238.946 56.2716C238.946 57.5815 239.248 58.6044 239.851 59.3404C240.47 60.0763 241.294 60.4442 242.324 60.4442C243.781 60.4442 244.745 59.804 245.216 58.5235H247.932C247.579 59.7598 246.916 60.746 245.945 61.4819C244.973 62.2031 243.767 62.5637 242.324 62.5637C241.161 62.5637 240.131 62.3061 239.233 61.791C238.335 61.2611 237.629 60.5252 237.114 59.5832C236.613 58.6265 236.363 57.5226 236.363 56.2716ZM255.253 56.2936L260.861 62.365H257.461L252.957 57.1326V62.365H250.44V46.0275H252.957V55.5209L257.372 50.2002H260.861L255.253 56.2936Z" fill="white"/>
<defs>
<filter id="filter0_ddd_1312_18904" x="0.588015" y="0.419054" width="553.32" height="102.799" filterUnits="userSpaceOnUse" color-interpolation-filters="sRGB">
<feFlood flood-opacity="0" result="BackgroundImageFix"/>
<feColorMatrix in="SourceAlpha" type="matrix" values="0 0 0 0 0 0 0 0 0 0 0 0 0 0 0 0 0 0 127 0" result="hardAlpha"/>
<feOffset dy="0.689926"/>
<feGaussianBlur stdDeviation="2.7597"/>
<feColorMatrix type="matrix" values="0 0 0 0 0 0 0 0 0 0 0 0 0 0 0 0 0 0 0.1 0"/>
<feBlend mode="normal" in2="BackgroundImageFix" result="effect1_dropShadow_1312_18904"/>
<feColorMatrix in="SourceAlpha" type="matrix" values="0 0 0 0 0 0 0 0 0 0 0 0 0 0 0 0 0 0 127 0" result="hardAlpha"/>
<feOffset dy="1.37985"/>
<feGaussianBlur stdDeviation="1.37985"/>
<feColorMatrix type="matrix" values="0 0 0 0 0 0 0 0 0 0 0 0 0 0 0 0 0 0 0.12 0"/>
<feBlend mode="normal" in2="effect1_dropShadow_1312_18904" result="effect2_dropShadow_1312_18904"/>
<feColorMatrix in="SourceAlpha" type="matrix" values="0 0 0 0 0 0 0 0 0 0 0 0 0 0 0 0 0 0 127 0" result="hardAlpha"/>
<feOffset dy="0.689926"/>
<feGaussianBlur stdDeviation="0.689926"/>
<feColorMatrix type="matrix" values="0 0 0 0 0 0 0 0 0 0 0 0 0 0 0 0 0 0 0.16 0"/>
<feBlend mode="normal" in2="effect2_dropShadow_1312_18904" result="effect3_dropShadow_1312_18904"/>
<feBlend mode="normal" in="SourceGraphic" in2="effect3_dropShadow_1312_18904" result="shape"/>
</filter>
<clipPath id="clip0_1312_18904">
<rect width="111.768" height="91.7601" fill="white" transform="translate(6.10742 5.24854)"/>
</clipPath>
<clipPath id="clip1_1312_18904">
<rect width="17.5095" height="17.5095" fill="white" transform="translate(86.6367 5.24854)"/>
</clipPath>
<clipPath id="clip2_1312_18904">
<rect width="17.5095" height="17.5095" fill="white" transform="translate(12.3965 71.5693) rotate(47.2539)"/>
</clipPath>
<clipPath id="clip3_1312_18904">
<rect width="13.19" height="16.6611" fill="white" transform="translate(5.07422 52.1636)"/>
</clipPath>
<clipPath id="clip4_1312_18904">
<rect width="3.84712" height="4.85953" fill="white" transform="translate(27.0508 50.3723)"/>
</clipPath>
<clipPath id="clip5_1312_18904">
<rect width="11.8016" height="14.9073" fill="white" transform="translate(55.3965 85.7771)"/>
</clipPath>
</defs>
</svg>
