<svg width="87" height="88" viewBox="0 0 87 88" fill="none" xmlns="http://www.w3.org/2000/svg">
<circle cx="43.5" cy="43.6113" r="43.5" fill="#02B54A"/>
<path d="M66.8814 40.7563L61.5289 33.6196C61.1887 33.1661 60.6686 32.9059 60.1016 32.9059C59.5345 32.9059 59.0144 33.1661 58.6742 33.6196L53.3217 40.7563C52.9136 41.3005 52.849 42.0164 53.1533 42.6247C53.4574 43.2331 54.0689 43.611 54.749 43.611H56.5332C56.5332 50.4976 50.9305 56.1003 44.0439 56.1003C37.1574 56.1003 31.5547 50.4976 31.5547 43.611C31.5547 36.7244 37.1574 31.1218 44.0439 31.1218C46.1561 31.1218 48.2607 31.6762 50.13 32.725C50.8354 33.121 51.7184 32.9928 52.2821 32.413L54.8517 29.771C55.2265 29.3858 55.4075 28.8518 55.3446 28.318C55.2817 27.7842 54.9812 27.3071 54.5269 27.0196C51.3908 25.0344 47.7659 23.985 44.0439 23.985C33.2222 23.985 24.418 32.7893 24.418 43.611C24.418 54.4328 33.2222 63.237 44.0439 63.237C54.8657 63.237 63.6699 54.4328 63.6699 43.611H65.4541C66.1342 43.611 66.7457 43.2331 67.0499 42.6247C67.3541 42.0164 67.2895 41.3005 66.8814 40.7563Z" fill="#F9F9F9"/>
<path d="M67.0489 42.6247C67.3531 42.0164 67.2886 41.3005 66.8805 40.7563L61.5279 33.6196C61.1877 33.1661 60.6676 32.9059 60.1006 32.9059C59.5336 32.9059 59.0134 33.1661 58.6732 33.6196L53.3207 40.7563C52.9126 41.3005 52.848 42.0164 53.1523 42.6247C53.4564 43.2331 54.0679 43.611 54.748 43.611H56.5322C56.5322 50.4976 50.9295 56.1003 44.043 56.1003V63.237C54.8647 63.237 63.6689 54.4328 63.6689 43.611H65.4531C66.1332 43.611 66.7447 43.2331 67.0489 42.6247Z" fill="#F9F9F9"/>
<path d="M50.129 32.725C50.8344 33.121 51.7174 32.9928 52.2811 32.413L54.8507 29.771C55.2255 29.3858 55.4065 28.8518 55.3436 28.318C55.2807 27.7842 54.9802 27.3071 54.526 27.0196C51.3899 25.0344 47.7649 23.985 44.043 23.985V31.1218C46.1551 31.1218 48.2597 31.6762 50.129 32.725Z" fill="#F9F9F9"/>
</svg>
