<svg width="99" height="61" viewBox="0 0 99 61" fill="none" xmlns="http://www.w3.org/2000/svg">
<path d="M79.6644 37.0483L79.2588 36.1739L79.0874 34.2024L44.6267 11.7679L42.6941 10.489L42.166 10.2892C40.2887 9.57862 38.3157 9.15948 36.314 9.046L30.8449 8.73565C30.1285 8.69502 29.4099 8.68604 28.6941 8.73253C27.4032 8.81631 26.1072 8.59835 24.9079 8.09151L20.9481 6.41788L19.8481 7.20753L10.7285 30.0776L11.2363 31.2829L18.9138 36.1737L21.3436 37.8987L22.8812 37.9333L46.851 55.0273L47.0783 56.5985L50.3757 59.0566C52.2068 60.4216 54.7874 60.2649 56.3598 58.603C57.89 56.9858 57.9811 54.5511 56.7579 52.8347L58.4113 54.0673C60.2968 55.473 62.9675 55.2571 64.5172 53.4817C66.0185 51.7622 65.9804 49.239 64.5787 47.5677L65.5074 48.2599C67.3055 49.6001 69.8323 49.4786 71.4142 47.8845C73.096 46.1898 73.1405 43.5345 71.6941 41.7845L73.0887 42.8241C75.0379 44.2773 77.7828 43.9042 79.2808 41.9681C80.4042 40.5159 80.4725 38.5855 79.6644 37.0483Z" fill="#F1AFA2"/>
<path d="M12.3748 25.9491L10.7285 30.078L11.2363 31.2833L18.9138 36.1741L21.3436 37.8991L22.8812 37.9337L46.851 55.0276L47.0783 56.5989L50.3757 59.0569C52.2068 60.4219 54.7874 60.2653 56.3598 58.6034C56.4932 58.4624 56.6115 58.3134 56.7231 58.161L12.3748 25.9491Z" fill="#D79689"/>
<path d="M0.109068 27.1565L10.3241 1.00217C10.6394 0.194556 11.5434 -0.201928 12.3429 0.116822L20.4712 3.35588C21.2707 3.67444 21.6632 4.58752 21.3479 5.39514L11.1327 31.5494C10.8173 32.3571 9.91336 32.7535 9.11381 32.4348L0.985566 29.1959C0.186025 28.8772 -0.206495 27.9643 0.109068 27.1565Z" fill="#1A73CB"/>
<path d="M5.43528 29.6452L15.8554 2.96525C16.0619 2.43673 16.5155 2.08224 17.0295 1.98087L12.3467 0.114856C11.5472 -0.203699 10.6432 0.192785 10.3279 1.00021L0.112867 27.1547C-0.202502 27.9625 0.190018 28.8754 0.989559 29.1942L5.51726 30.9983C5.30128 30.5961 5.25603 30.1042 5.43528 29.6452Z" fill="#4CABFF"/>
<path d="M21.243 44.184C19.5794 42.7592 19.3742 40.2418 20.7848 38.5613L24.4777 34.1828C25.8883 32.5023 28.3805 32.2951 30.0441 33.7199C31.7078 35.1447 31.913 37.6621 30.5024 39.3426L26.8094 43.7211C25.3989 45.4016 22.9067 45.6088 21.243 44.184Z" fill="#FFDECF"/>
<path d="M27.2704 49.3438C25.6067 47.919 25.4015 45.4016 26.8121 43.7211L30.5051 39.3426C31.9156 37.6621 34.4078 37.4549 36.0715 38.8797C37.7351 40.3045 37.9403 42.8219 36.5297 44.5024L32.8368 48.8809C31.4262 50.5615 28.934 50.7688 27.2704 49.3438Z" fill="#FFDECF"/>
<path d="M33.2918 54.5037C31.6282 53.0789 31.423 50.5615 32.8336 48.881L36.5266 44.5025C37.9371 42.822 40.4293 42.6148 42.093 44.0396C43.7567 45.4644 43.9618 47.9818 42.5513 49.6623L38.8583 54.0408C37.4477 55.7214 34.9555 55.9285 33.2918 54.5037Z" fill="#FFDECF"/>
<path d="M39.3192 59.6638C37.6555 58.239 37.4504 55.7216 38.8609 54.0412L42.5539 49.6627C43.9644 47.9822 46.4567 47.775 48.1203 49.1998C49.784 50.6246 49.9891 53.142 48.5786 54.8224L44.8856 59.2009C43.4751 60.8814 40.9829 61.0886 39.3192 59.6638Z" fill="#FFDECF"/>
<path d="M24.8683 39.1984L28.5613 34.8199C28.9784 34.323 29.4912 33.9586 30.0478 33.7234C30.0465 33.7223 30.0455 33.7211 30.0442 33.7199C28.3805 32.2951 25.8883 32.5023 24.4777 34.1828L20.7848 38.5613C19.3742 40.2418 19.5794 42.7592 21.2428 44.184C22.4146 45.1877 23.9963 45.3779 25.3227 44.8178C23.6627 43.3922 23.4587 40.8775 24.8683 39.1984Z" fill="#FFCEBE"/>
<path d="M30.8898 44.3586L34.5828 39.9801C34.9998 39.4833 35.5126 39.1188 36.0693 38.8836C36.068 38.8825 36.067 38.8813 36.0656 38.8803C34.402 37.4553 31.9098 37.6625 30.4992 39.343L26.8062 43.7215C25.3957 45.402 25.6008 47.9194 27.2645 49.3442C28.4363 50.3479 30.0179 50.5381 31.3444 49.978C29.6842 48.5524 29.4802 46.0377 30.8898 44.3586Z" fill="#FFCEBE"/>
<path d="M36.9172 49.5181L40.6101 45.1396C41.0272 44.6428 41.54 44.2783 42.0967 44.0431C42.0953 44.042 42.0944 44.0408 42.093 44.0396C40.4293 42.6148 37.9371 42.8221 36.5266 44.5023L32.8336 48.881C31.423 50.5615 31.6282 53.0789 33.2917 54.5037C34.4634 55.5072 36.0451 55.6976 37.3716 55.1373C35.7116 53.7119 35.5076 51.1972 36.9172 49.5181Z" fill="#FFCEBE"/>
<path d="M42.9426 54.6784L46.6355 50.2998C47.0526 49.803 47.5654 49.4385 48.1221 49.2034C48.1207 49.2022 48.1198 49.201 48.1184 49.1998C46.4547 47.775 43.9625 47.9823 42.552 49.6625L38.859 54.0411C37.4484 55.7215 37.6536 58.2389 39.3171 59.6637C40.4888 60.6672 42.0705 60.8577 43.3969 60.2975C41.737 58.8721 41.533 56.3575 42.9426 54.6784Z" fill="#FFCEBE"/>
<path d="M79.5166 7.27402L78.0767 6.48516L72.309 8.63574C70.7095 9.23223 68.9851 9.40371 67.3012 9.13418L50.2981 6.41191C48.3798 6.10469 46.4301 6.74629 45.0646 8.1416C42.2509 11.0168 36.9406 16.0941 31.1302 19.8611C29.832 20.7027 29.6394 22.5523 30.7576 23.6256C33.0827 25.8572 37.8719 27.7803 46.1418 20.2777C46.9035 19.5867 48.0718 19.6152 48.7797 20.3621C51.1907 22.9049 57.1177 27.7986 65.961 26.2625L79.2566 36.1738L87.5664 30.7824L87.9744 29.8764L79.5166 7.27402Z" fill="#FFDECF"/>
<path d="M33.3981 24.0552C39.2086 20.288 44.5188 15.2108 47.3326 12.3356C48.6981 10.9403 50.6477 10.2987 52.566 10.6059L69.5691 13.3282C71.253 13.5977 72.9774 13.4262 74.5769 12.8298L80.3446 10.6792L80.9059 10.9866L79.5166 7.2739L78.0767 6.48503L72.309 8.63562C70.7095 9.2321 68.9851 9.40359 67.3012 9.13406L50.2981 6.41179C48.3798 6.10457 46.4301 6.74617 45.0646 8.14148C42.2509 11.0167 36.9406 16.094 31.1302 19.861C29.832 20.7026 29.6394 22.5522 30.7576 23.6255C31.2541 24.102 31.8636 24.5643 32.5949 24.9239C32.7803 24.5846 33.0474 24.2825 33.3981 24.0552Z" fill="#FFCEBE"/>
<path d="M98.8927 27.1562L88.6777 1.0019C88.3623 0.194281 87.4584 -0.202202 86.6588 0.116548L78.5306 3.35561C77.731 3.67417 77.3385 4.58725 77.6539 5.39487L87.8689 31.5494C88.1842 32.357 89.0882 32.7535 89.8877 32.4347L98.016 29.1957C98.8157 28.8769 99.2083 27.964 98.8927 27.1562Z" fill="#8620EB"/>
<path d="M93.8096 30.1082L83.1136 2.72166C82.9579 2.32283 82.9688 1.90018 83.1097 1.52908L78.5306 3.35389C77.731 3.67244 77.3385 4.58553 77.6539 5.39315L87.8689 31.5476C88.1842 32.3553 89.0882 32.7517 89.8877 32.433L94.2165 30.708C94.0438 30.5459 93.9021 30.3447 93.8096 30.1082Z" fill="#610FC7"/>
<path d="M64.3373 53.6696L55.3068 46.6102C54.4369 45.9302 53.1857 46.0913 52.5124 46.97C51.8391 47.8489 51.9986 49.1126 52.8686 49.7927L56.7675 52.8405L58.4128 54.0671C60.2279 55.4202 62.7675 55.2663 64.3373 53.6696Z" fill="#D79689"/>
<path d="M58.9723 40.6643C58.3012 41.5449 58.4638 42.8082 59.3354 43.4861L64.654 47.6223L65.5096 48.26C67.3077 49.6002 69.8345 49.4787 71.4164 47.8846C71.4318 47.869 71.4448 47.852 71.4599 47.8363L61.766 40.2977C60.8943 39.6195 59.6435 39.784 58.9723 40.6643Z" fill="#D79689"/>
<path d="M68.2898 34.0521C67.4185 33.3742 66.1677 33.5377 65.4961 34.418C64.8248 35.2982 64.9868 36.5615 65.8583 37.2398L71.7559 41.8301L73.0889 42.8238C74.9023 44.1756 77.4026 43.9451 78.9487 42.348L68.2898 34.0521Z" fill="#D79689"/>
</svg>
