<svg width="554" height="104" viewBox="0 0 554 104" fill="none" xmlns="http://www.w3.org/2000/svg">
<g filter="url(#filter0_ddd_1312_19205)">
<rect x="5.95703" y="5.71167" width="542.282" height="91.7601" rx="2.7597" fill="#FFC289"/>
</g>
<g clip-path="url(#clip0_1312_19205)">
<path d="M88.3241 77.6599C88.0046 77.6599 87.6853 77.5389 87.4417 77.2968L84.0784 73.9543C83.8443 73.7216 83.7129 73.4063 83.7129 73.0776C83.7129 72.7486 83.8443 72.4334 84.0784 72.2007L87.4417 68.8581C87.6756 68.626 87.9931 68.4949 88.3241 68.4949C88.6546 68.4949 88.9721 68.6254 89.206 68.8581L92.5693 72.2007C92.8034 72.4334 92.9348 72.7486 92.9348 73.0776C92.9348 73.4063 92.8034 73.7218 92.5693 73.9543L89.206 77.2968C88.9624 77.5389 88.6431 77.6599 88.3241 77.6599Z" fill="#FF8E26"/>
<path d="M70.2729 19.706C69.9539 19.706 69.6346 19.5851 69.391 19.3427L66.0277 16.0002C65.5402 15.516 65.5402 14.731 66.0277 14.2468L69.391 10.9043C69.6249 10.6716 69.9424 10.541 70.2729 10.541C70.6039 10.541 70.9214 10.6716 71.1552 10.9043L74.5186 14.2468C74.7527 14.479 74.8841 14.7948 74.8841 15.1233C74.8841 15.4522 74.7527 15.7677 74.5186 15.9999L71.1552 19.3427C70.9116 19.5851 70.5921 19.706 70.2729 19.706Z" fill="#FF8E26"/>
<path d="M47.892 12.2683C45.8827 12.2683 44.248 10.6438 44.248 8.64711C44.248 6.65016 45.8827 5.02588 47.892 5.02588C49.9011 5.02588 51.5352 6.65016 51.5352 8.64711C51.5352 10.6438 49.9011 12.2683 47.892 12.2683Z" fill="#FF8E26"/>
<path d="M82.1507 45.385C78.4179 45.385 75.3809 42.3667 75.3809 38.657C75.3809 34.9468 78.4179 31.929 82.1507 31.929C85.8834 31.929 88.92 34.9468 88.92 38.657C88.92 42.3667 85.8834 45.385 82.1507 45.385V45.385Z" fill="#FF8E26"/>
<path d="M112.034 64.0756C112.686 64.0756 113.311 63.5055 113.281 62.8356C113.251 62.164 112.733 61.5957 112.034 61.5957C111.381 61.5957 110.756 62.166 110.786 62.8356C110.816 63.5073 111.334 64.0756 112.034 64.0756Z" fill="#FF8E26"/>
<path d="M113.147 68.4476C113.799 68.4476 114.425 67.8773 114.394 67.2077C114.364 66.5358 113.846 65.9678 113.147 65.9678C112.494 65.9678 111.869 66.5378 111.899 67.2077C111.93 67.8794 112.448 68.4476 113.147 68.4476V68.4476Z" fill="#FF8E26"/>
<path d="M116.434 65.184C117.087 65.184 117.712 64.6134 117.682 63.9438C117.651 63.2721 117.134 62.7041 116.434 62.7041C115.782 62.7041 115.156 63.2742 115.187 63.9438C115.217 64.6157 115.735 65.184 116.434 65.184V65.184Z" fill="#FF8E26"/>
<path d="M30.809 79.2538C31.4616 79.2538 32.0868 78.6835 32.0566 78.0139C32.0262 77.3422 31.5083 76.7739 30.809 76.7739C30.1567 76.7739 29.5312 77.3445 29.5616 78.0139C29.5918 78.6858 30.1094 79.2538 30.809 79.2538V79.2538Z" fill="#FF8E26"/>
<path d="M31.9247 83.6259C32.5773 83.6259 33.2025 83.0555 33.1721 82.3859C33.1419 81.714 32.6241 81.1462 31.9247 81.1462C31.2719 81.1462 30.6469 81.7163 30.6768 82.3859C30.7072 83.0578 31.2251 83.6259 31.9247 83.6259Z" fill="#FF8E26"/>
<path d="M35.2055 80.3619C35.8583 80.3619 36.4833 79.7919 36.4534 79.1223C36.4232 78.4503 35.9053 77.8823 35.2055 77.8823C34.5532 77.8823 33.9277 78.4524 33.9581 79.1223C33.9883 79.7939 34.5061 80.3619 35.2055 80.3619Z" fill="#FF8E26"/>
<path d="M16.1225 7.53571C17.7034 7.53571 19.2186 6.15479 19.1449 4.53263C19.0718 2.90494 17.8173 1.52832 16.1225 1.52832C14.5417 1.52832 13.0271 2.91048 13.1002 4.53263C13.1739 6.15909 14.4284 7.53571 16.1225 7.53571Z" fill="#FF8E26"/>
<path d="M5.46825 10.2205C7.04847 10.2205 8.56367 8.83837 8.48999 7.21621C8.41692 5.58975 7.1624 4.21313 5.46825 4.21313C3.88742 4.21313 2.37283 5.59406 2.4459 7.21621C2.51959 8.84391 3.7741 10.2205 5.46825 10.2205Z" fill="#FF8E26"/>
<path d="M13.4228 18.1269C15.0042 18.1269 16.5182 16.746 16.4451 15.1238C16.372 13.4961 15.1169 12.1201 13.4228 12.1201C11.8425 12.1201 10.3273 13.5017 10.401 15.1238C10.4741 16.7515 11.7286 18.1269 13.4228 18.1269Z" fill="#FF8E26"/>
<path d="M112.496 53.3802C112.25 52.7739 111.557 52.4796 110.947 52.723C109.646 53.2425 107.89 53.0665 106.364 52.2646C105.803 51.9693 105.298 51.6089 104.868 51.2004C106.022 50.7279 106.928 49.933 107.486 48.8849L107.5 48.8594C107.951 48.0124 108.087 47.0558 107.883 46.1657C107.668 45.2237 107.076 44.4378 106.26 44.0087C104.615 43.1428 102.491 43.9105 101.528 45.7201L101.515 45.7454C100.956 46.7936 100.805 47.9853 101.061 49.1985C100.48 49.0754 99.8959 48.864 99.3344 48.569C98.9056 48.3435 98.1521 47.7072 97.5816 47.0888C97.1367 46.6071 96.384 46.5747 95.8995 47.0166C95.4151 47.458 95.3822 48.2066 95.8269 48.688C96.4164 49.3273 97.3975 50.2276 98.2214 50.6608C99.4844 51.325 100.849 51.6772 102.171 51.6915C102.926 52.769 103.987 53.6919 105.251 54.3564C106.548 55.038 107.953 55.3864 109.294 55.3864C110.186 55.3864 111.05 55.232 111.834 54.9192C112.445 54.6754 112.74 53.9864 112.496 53.3802V53.3802ZM103.619 46.8517L103.633 46.8265C103.898 46.3281 104.373 46.0164 104.795 46.0164C104.919 46.0164 105.039 46.0433 105.147 46.1003C105.424 46.2457 105.526 46.532 105.561 46.6898C105.638 47.0236 105.577 47.411 105.395 47.753L105.382 47.7782C105.027 48.4439 104.374 48.9258 103.517 49.1622C103.232 48.3251 103.265 47.5174 103.619 46.8517Z" fill="#FF8E26"/>
<path d="M36.8434 92.5998C37.0737 92.4145 37.6141 92.1467 38.1004 91.9766C38.4793 91.8443 38.6783 91.4319 38.545 91.0553C38.4118 90.679 37.9967 90.4813 37.6179 90.6136C37.1151 90.7895 36.371 91.1209 35.9289 91.4766C35.2503 92.0221 34.7239 92.6991 34.3986 93.4332C33.6086 93.5962 32.8325 93.9667 32.154 94.5122C30.9939 95.4452 30.2845 96.7682 30.256 98.0513C30.2471 98.4501 30.5654 98.7806 30.9668 98.7893C30.9725 98.7895 30.9778 98.7895 30.9832 98.7895C31.3773 98.7895 31.701 98.4763 31.7097 98.083C31.7285 97.2324 32.2492 96.2945 33.0686 95.6355C33.37 95.3931 33.6946 95.1983 34.0287 95.0564C34.0191 95.8136 34.2506 96.5099 34.7093 97.0736L34.7199 97.0863C35.511 98.0581 36.874 98.2699 37.7581 97.559C38.1963 97.2065 38.4577 96.6664 38.4754 96.0768C38.4921 95.5198 38.2971 94.9624 37.9265 94.5073L37.9157 94.4939C37.4572 93.9309 36.8203 93.5606 36.0732 93.4123C36.2825 93.1172 36.542 92.8423 36.8434 92.5998ZM36.7855 95.4031L36.7965 95.4163C36.946 95.6001 37.0283 95.825 37.0219 96.0337C37.019 96.1327 36.9919 96.3163 36.8434 96.4357C36.5869 96.6419 36.1321 96.5237 35.8495 96.1767L35.8389 96.164C35.5479 95.8063 35.4326 95.3263 35.5046 94.7912C36.046 94.8329 36.4943 95.0453 36.7855 95.4031Z" fill="#FF8E26"/>
<path d="M23.5608 24.3428C21.1427 24.5336 18.9958 25.8284 17.6459 27.8258C16.9655 28.8328 16.6033 29.9765 16.4661 31.173C16.3204 32.4487 16.713 36.5348 14.8442 36.8021C14.1996 36.8943 13.5654 37.3462 13.5968 38.042C13.6257 38.6822 14.1464 39.3208 14.8442 39.2819C16.1931 39.2062 17.2728 38.4543 17.9885 37.3386C18.7134 36.2079 18.8811 34.874 18.8966 33.5611C18.9117 32.2935 18.8987 31.1239 19.3245 29.9142C20.0512 28.3146 21.6174 27.1199 23.3604 26.8359C24.072 26.7942 24.8437 26.3994 24.8081 25.5827C24.7803 24.9548 24.2576 24.2877 23.5608 24.3428V24.3428Z" fill="#FF8E26"/>
<path fill-rule="evenodd" clip-rule="evenodd" d="M105.791 93.7432L104.328 91.8498L102.125 92.0123L101.892 89.8257L100.015 88.668L101.118 86.7611L100.285 84.7256L102.303 83.8266L102.832 81.6906L104.993 82.1431L106.701 80.4602L108.163 82.3536L110.367 82.1911L110.6 84.3776L112.476 85.5353L111.373 87.4422L112.206 89.4777L110.189 90.3768L109.66 92.5127L107.498 92.0603L105.791 93.7432ZM107.956 85.1018L107.957 85.1011L108.472 85.687L107.892 86.1906L106.21 87.6524L106.21 87.6515L104.539 89.1017L104.024 88.5158L106.285 86.5534L106.285 86.5523L107.955 85.1007L107.956 85.1018ZM106.533 88.6845C106.577 88.0407 107.14 87.552 107.786 87.595C108.433 87.638 108.924 88.1967 108.88 88.8404C108.836 89.4842 108.274 89.9729 107.627 89.9299C106.98 89.887 106.489 89.3283 106.533 88.6845ZM107.315 88.7365C107.301 88.9511 107.464 89.1373 107.68 89.1516C107.896 89.166 108.083 89.003 108.098 88.7885C108.112 88.5739 107.949 88.3876 107.733 88.3733C107.518 88.359 107.33 88.5219 107.315 88.7365ZM104.867 84.2736C104.22 84.2306 103.657 84.7193 103.613 85.3631C103.569 86.0068 104.06 86.5655 104.707 86.6085C105.354 86.6515 105.916 86.1628 105.96 85.519C106.004 84.8752 105.513 84.3165 104.867 84.2736ZM104.76 85.8302C104.544 85.8159 104.381 85.6296 104.396 85.415C104.41 85.2005 104.598 85.0375 104.813 85.0519C105.029 85.0662 105.192 85.2524 105.178 85.467C105.163 85.6816 104.976 85.8445 104.76 85.8302Z" fill="#FF8E26"/>
<path fill-rule="evenodd" clip-rule="evenodd" d="M42.3232 37.6447L39.9094 34.9248L36.5848 35.3925L36.0043 32.1051L33.0391 30.5409L34.513 27.5426L33.0391 24.5442L36.0043 22.98L36.5848 19.6927L39.9094 20.1603L42.3232 17.4404L44.737 20.1603L48.0616 19.6927L48.6421 22.98L51.6073 24.5442L50.1334 27.5426L51.6073 30.5409L48.6421 32.1051L48.0616 35.3925L44.737 34.9248L42.3232 37.6447ZM44.7043 24.3391L44.706 24.3374L45.5481 25.1743L39.9419 30.7459L39.0998 29.909L42.3205 26.7081V26.7054L44.7029 24.3377L44.7043 24.3391ZM42.9201 29.91C42.9201 28.9308 43.7217 28.1342 44.7069 28.1342C45.6922 28.1342 46.4937 28.9308 46.4937 29.91C46.4937 30.8892 45.6922 31.6858 44.7069 31.6858C43.7217 31.6858 42.9201 30.8892 42.9201 29.91ZM44.1113 29.91C44.1113 30.2364 44.3785 30.5019 44.7069 30.5019C45.0354 30.5019 45.3025 30.2364 45.3025 29.91C45.3025 29.5836 45.0354 29.3181 44.7069 29.3181C44.3785 29.3181 44.1113 29.5836 44.1113 29.91ZM39.9413 23.3986C38.956 23.3986 38.1545 24.1952 38.1545 25.1744C38.1545 26.1536 38.956 26.9501 39.9413 26.9501C40.9266 26.9501 41.7281 26.1536 41.7281 25.1744C41.7281 24.1952 40.9266 23.3986 39.9413 23.3986ZM39.9413 25.7663C39.6129 25.7663 39.3457 25.5007 39.3457 25.1744C39.3457 24.848 39.6129 24.5824 39.9413 24.5824C40.2697 24.5824 40.5369 24.848 40.5369 25.1744C40.5369 25.5007 40.2697 25.7663 39.9413 25.7663Z" fill="#FF8E26"/>
<g clip-path="url(#clip1_1312_19205)">
<path d="M99.0171 17.3856L98.8834 17.0351C98.8065 16.8341 98.688 16.6518 98.5355 16.5C98.3831 16.3482 98.2002 16.2304 97.9989 16.1544C97.7977 16.0784 97.5826 16.0459 97.3679 16.0591C97.1531 16.0722 96.9436 16.1307 96.7531 16.2307C96.6068 16.3076 96.4372 16.3278 96.2769 16.2875C96.1165 16.2473 95.9766 16.1494 95.8838 16.0126C95.8321 15.9364 95.7965 15.8505 95.7793 15.76C95.7622 15.6696 95.7638 15.5766 95.7841 15.4868C95.8044 15.397 95.843 15.3123 95.8973 15.238C95.9517 15.1638 96.0208 15.1015 96.1003 15.055L96.3243 14.9237C96.7351 14.6828 97.2002 14.5498 97.6762 14.5373C98.1522 14.5248 98.6237 14.6332 99.0465 14.8522C99.4501 15.0612 99.7971 15.3648 100.058 15.7369L103.478 20.616C103.518 20.6732 103.54 20.7416 103.541 20.8117C103.541 20.8818 103.52 20.9504 103.48 21.008C103.44 21.0657 103.383 21.1097 103.318 21.1341C103.252 21.1585 103.18 21.1621 103.112 21.1443L103.063 21.1317L99.0171 17.3856Z" fill="#FF8E26"/>
<path d="M99.7092 16.9199C99.5138 16.3516 99.1164 15.8749 98.5926 15.5803C98.5704 15.568 98.5481 15.5564 98.5259 15.5461C98.1031 15.3271 97.6317 15.2187 97.1557 15.2312C96.6797 15.2436 96.2145 15.3764 95.8037 15.6173L95.7695 15.6378C95.7689 15.7726 95.8091 15.9044 95.8848 16.016C95.9776 16.1529 96.1176 16.2507 96.278 16.2909C96.4385 16.3311 96.6081 16.3108 96.7544 16.2338C96.9449 16.1339 97.1544 16.0753 97.3692 16.0622C97.5839 16.049 97.799 16.0815 98.0002 16.1575C98.2015 16.2335 98.3844 16.3513 98.5368 16.5031C98.6893 16.6549 98.8078 16.8373 98.8847 17.0382L99.0184 17.3887L100.187 18.284L99.7092 16.9199Z" fill="#FF8E26"/>
<path d="M99.5359 16.9414C99.2755 16.5692 98.9289 16.2655 98.5257 16.0563C98.1028 15.8374 97.6314 15.7292 97.1554 15.7417C96.6794 15.7542 96.2143 15.887 95.8035 16.1278L95.5788 16.2595C95.4996 16.3059 95.4308 16.3682 95.3766 16.4423C95.3224 16.5165 95.284 16.601 95.2637 16.6906C95.2434 16.7801 95.2418 16.8729 95.2588 16.9632C95.2758 17.0534 95.3112 17.1392 95.3627 17.2153C95.4556 17.3519 95.5955 17.4495 95.7557 17.4896C95.916 17.5297 96.0854 17.5095 96.2317 17.4328C96.4221 17.3327 96.6316 17.2742 96.8463 17.261C97.061 17.2478 97.2761 17.2803 97.4773 17.3563C97.6786 17.4323 97.8615 17.5501 98.0139 17.7019C98.1663 17.8538 98.2848 18.0362 98.3615 18.2371L98.4956 18.5877C98.658 19.0137 98.6577 19.4846 98.4946 19.9103C98.3316 20.3361 98.0173 20.6868 97.6119 20.8954L95.6154 21.9022C95.4944 21.9643 95.3949 22.0613 95.3296 22.1806C95.2643 22.2999 95.2363 22.436 95.2491 22.5714C95.2854 22.9541 95.653 23.2308 96.0357 23.1829L98.1953 22.9093C98.5827 22.8605 98.9761 22.9072 99.3411 23.0455C99.7062 23.1838 100.032 23.4095 100.29 23.7027L101.013 24.5259L103.074 27.024C103.091 27.0447 103.113 27.0599 103.139 27.0679C103.164 27.0759 103.192 27.0763 103.217 27.069C103.243 27.0618 103.266 27.0472 103.283 27.027C103.301 27.0069 103.312 26.9821 103.315 26.9556L103.995 21.5092C104.006 21.4249 103.985 21.3395 103.936 21.2698L103.247 20.288L99.5359 16.9414Z" fill="#FF8E26"/>
<path d="M92.8083 13.6395C92.7601 13.6396 92.7128 13.626 92.672 13.6004C92.6311 13.5748 92.5982 13.5383 92.5772 13.4949L91.9298 12.1611C91.9145 12.1307 91.9054 12.0976 91.903 12.0636C91.9006 12.0297 91.905 11.9956 91.9159 11.9634C91.9268 11.9311 91.944 11.9014 91.9665 11.8758C91.989 11.8503 92.0164 11.8295 92.047 11.8146C92.0776 11.7997 92.1109 11.7911 92.1449 11.7892C92.1789 11.7873 92.2129 11.7922 92.245 11.8036C92.277 11.8149 92.3065 11.8326 92.3318 11.8554C92.357 11.8783 92.3774 11.906 92.3918 11.9368L93.0392 13.2705C93.0581 13.3097 93.0667 13.353 93.0644 13.3964C93.062 13.4398 93.0487 13.4819 93.0256 13.5188C93.0026 13.5556 92.9705 13.586 92.9325 13.6071C92.8945 13.6283 92.8518 13.6394 92.8083 13.6395V13.6395Z" fill="#FF8E26"/>
<path d="M95.2415 13.1258C95.1734 13.1258 95.1081 13.0987 95.0599 13.0506C95.0118 13.0024 94.9847 12.9371 94.9847 12.8689V11.5352C94.9829 11.5004 94.9882 11.4656 95.0003 11.4329C95.0124 11.4003 95.031 11.3704 95.055 11.3451C95.079 11.3198 95.1079 11.2997 95.1399 11.286C95.1719 11.2722 95.2064 11.2651 95.2412 11.2651C95.276 11.2651 95.3105 11.2722 95.3425 11.286C95.3746 11.2997 95.4034 11.3198 95.4274 11.3451C95.4514 11.3704 95.47 11.4003 95.4821 11.4329C95.4942 11.4656 95.4995 11.5004 95.4977 11.5352V12.8689C95.4977 12.9369 95.4707 13.0022 95.4227 13.0503C95.3747 13.0985 95.3095 13.1256 95.2415 13.1258V13.1258Z" fill="#FF8E26"/>
<path d="M97.6763 13.6393C97.6329 13.6392 97.5901 13.628 97.5521 13.6069C97.5141 13.5858 97.4821 13.5554 97.4591 13.5185C97.436 13.4816 97.4227 13.4395 97.4203 13.3961C97.4179 13.3527 97.4266 13.3094 97.4455 13.2703L98.0929 11.9365C98.1077 11.9062 98.1284 11.879 98.1537 11.8566C98.179 11.8342 98.2085 11.817 98.2404 11.806C98.2724 11.795 98.3062 11.7904 98.34 11.7925C98.3737 11.7945 98.4067 11.8032 98.4371 11.8181C98.4675 11.8329 98.4946 11.8535 98.517 11.8788C98.5394 11.9042 98.5566 11.9336 98.5676 11.9656C98.5786 11.9976 98.5832 12.0314 98.5812 12.0651C98.5791 12.0989 98.5704 12.1319 98.5556 12.1623L97.9082 13.496C97.8869 13.5392 97.8539 13.5756 97.8129 13.6009C97.7719 13.6263 97.7245 13.6396 97.6763 13.6393V13.6393Z" fill="#FF8E26"/>
<path d="M100.455 14.5131C100.417 14.5132 100.378 14.5043 100.344 14.4871C100.283 14.4575 100.236 14.4048 100.213 14.3407C100.191 14.2766 100.195 14.2063 100.225 14.1452L100.583 13.4075C100.597 13.3767 100.618 13.349 100.643 13.3261C100.668 13.3033 100.698 13.2856 100.73 13.2743C100.762 13.2629 100.796 13.258 100.83 13.2599C100.864 13.2618 100.897 13.2704 100.928 13.2853C100.958 13.3002 100.986 13.321 101.008 13.3465C101.031 13.3721 101.048 13.4018 101.059 13.4341C101.07 13.4663 101.074 13.5004 101.072 13.5343C101.069 13.5683 101.06 13.6014 101.045 13.6318L100.687 14.3685C100.666 14.4119 100.633 14.4484 100.592 14.474C100.551 14.4996 100.504 14.5132 100.455 14.5131V14.5131Z" fill="#FF8E26"/>
<path d="M90.0291 14.5132C89.9809 14.5132 89.9337 14.4996 89.8928 14.474C89.8519 14.4484 89.819 14.4119 89.7979 14.3685L89.4395 13.6309C89.4242 13.6005 89.4151 13.5673 89.4127 13.5334C89.4104 13.4994 89.4147 13.4653 89.4257 13.4331C89.4366 13.4008 89.4538 13.3711 89.4763 13.3455C89.4988 13.32 89.5261 13.2992 89.5568 13.2843C89.5874 13.2695 89.6206 13.2608 89.6546 13.2589C89.6886 13.257 89.7226 13.2619 89.7547 13.2733C89.7868 13.2847 89.8163 13.3023 89.8415 13.3252C89.8667 13.348 89.8871 13.3757 89.9016 13.4065L90.26 14.1442C90.2894 14.2053 90.2935 14.2756 90.2712 14.3397C90.249 14.4038 90.2023 14.4564 90.1413 14.4862C90.1065 14.5037 90.0681 14.5129 90.0291 14.5132V14.5132Z" fill="#FF8E26"/>
<path d="M91.4689 17.3856L91.6026 17.0351C91.6795 16.8341 91.798 16.6518 91.9505 16.5C92.1029 16.3482 92.2858 16.2304 92.487 16.1544C92.6883 16.0784 92.9034 16.0459 93.1181 16.0591C93.3328 16.0722 93.5424 16.1307 93.7328 16.2307C93.8792 16.3076 94.0488 16.3278 94.2091 16.2875C94.3695 16.2473 94.5094 16.1494 94.6022 16.0126C94.6539 15.9364 94.6895 15.8505 94.7066 15.76C94.7238 15.6696 94.7222 15.5766 94.7019 15.4868C94.6816 15.397 94.643 15.3123 94.5886 15.238C94.5342 15.1638 94.4652 15.1015 94.3857 15.055L94.1617 14.9237C93.7509 14.6828 93.2858 14.5498 92.8098 14.5373C92.3338 14.5248 91.8623 14.6332 91.4395 14.8522C91.0359 15.0612 90.6889 15.3648 90.4279 15.7369L87.0081 20.616C86.9676 20.6732 86.9457 20.7416 86.9453 20.8117C86.945 20.8818 86.9662 20.9504 87.0061 21.008C87.046 21.0657 87.1026 21.1097 87.1684 21.1341C87.2341 21.1585 87.3058 21.1621 87.3737 21.1443L87.4229 21.1317L91.4689 17.3856Z" fill="#FF8E26"/>
<path d="M90.7762 16.9199C90.9716 16.3516 91.369 15.8749 91.8928 15.5803C91.915 15.568 91.9373 15.5564 91.9595 15.5461C92.3823 15.3271 92.8537 15.2187 93.3297 15.2312C93.8058 15.2436 94.2709 15.3764 94.6817 15.6173L94.7159 15.6378C94.7165 15.7726 94.6763 15.9044 94.6006 16.016C94.5078 16.1529 94.3678 16.2507 94.2074 16.2909C94.047 16.3311 93.8774 16.3108 93.731 16.2338C93.5405 16.1339 93.331 16.0753 93.1163 16.0622C92.9015 16.049 92.6864 16.0815 92.4852 16.1575C92.2839 16.2335 92.101 16.3513 91.9486 16.5031C91.7962 16.6549 91.6776 16.8373 91.6008 17.0382L91.467 17.3887L90.2988 18.281L90.7762 16.9199Z" fill="#FF8E26"/>
<path d="M90.9498 16.9414C91.2102 16.5692 91.5568 16.2655 91.96 16.0563C92.3829 15.8374 92.8543 15.7292 93.3303 15.7417C93.8063 15.7542 94.2714 15.887 94.6822 16.1278L94.9069 16.2595C94.9861 16.3059 95.0549 16.3682 95.1091 16.4423C95.1633 16.5165 95.2017 16.601 95.222 16.6906C95.2422 16.7801 95.2439 16.8729 95.2269 16.9632C95.2099 17.0534 95.1745 17.1392 95.123 17.2153C95.0301 17.3519 94.8902 17.4495 94.73 17.4896C94.5697 17.5297 94.4003 17.5095 94.254 17.4328C94.0636 17.3327 93.8541 17.2742 93.6394 17.261C93.4247 17.2478 93.2096 17.2803 93.0083 17.3563C92.8071 17.4323 92.6242 17.5501 92.4718 17.7019C92.3194 17.8538 92.2009 18.0362 92.1242 18.2371L91.9901 18.5877C91.8277 19.0137 91.828 19.4846 91.9911 19.9103C92.1541 20.3361 92.4684 20.6868 92.8738 20.8954L94.8703 21.9015C94.9912 21.9636 95.0908 22.0606 95.1561 22.1799C95.2214 22.2992 95.2494 22.4354 95.2365 22.5707C95.2003 22.9534 94.8327 23.2301 94.45 23.1822L92.2904 22.9086C91.903 22.8598 91.5096 22.9065 91.1445 23.0448C90.7794 23.1832 90.4538 23.4088 90.1961 23.702L89.4738 24.5245L87.4116 27.024C87.3948 27.0447 87.3722 27.0599 87.3468 27.0679C87.3213 27.0759 87.2941 27.0763 87.2685 27.069C87.2428 27.0618 87.2199 27.0472 87.2024 27.027C87.1849 27.0069 87.1737 26.9821 87.1702 26.9556L86.491 21.5075C86.4803 21.4231 86.5014 21.3378 86.5502 21.2681L87.2406 20.2866L90.9498 16.9414Z" fill="#FF8E26"/>
</g>
<g clip-path="url(#clip2_1312_19205)">
<path d="M12.1777 89.1569L12.3443 88.8208C12.4397 88.628 12.4932 88.4171 12.5012 88.2021C12.5092 87.9872 12.4715 87.7729 12.3907 87.5735C12.31 87.3742 12.1878 87.1942 12.0324 87.0454C11.877 86.8966 11.6918 86.7825 11.4891 86.7105C11.3333 86.6551 11.2034 86.5443 11.1241 86.3993C11.0449 86.2542 11.0218 86.085 11.0593 85.924C11.0801 85.8343 11.1191 85.7498 11.1738 85.6759C11.2286 85.6019 11.298 85.5399 11.3777 85.4939C11.4575 85.4478 11.5458 85.4187 11.6373 85.4082C11.7287 85.3978 11.8214 85.4062 11.9094 85.433L12.1579 85.5084C12.6136 85.6465 13.0269 85.8979 13.3592 86.239C13.6915 86.5801 13.9319 86.9998 14.0581 87.459C14.1785 87.8972 14.1912 88.3581 14.095 88.8023L12.8332 94.6254C12.8186 94.694 12.7833 94.7565 12.732 94.8044C12.6808 94.8522 12.6161 94.8832 12.5466 94.893C12.4772 94.9028 12.4064 94.8911 12.3439 94.8594C12.2813 94.8276 12.2301 94.7774 12.197 94.7156L12.1729 94.6708L12.1777 89.1569Z" fill="#FF8E26"/>
<path d="M12.9899 89.3483C13.2746 88.8191 13.355 88.2037 13.2157 87.6192C13.2097 87.5945 13.2031 87.5703 13.1956 87.547C13.0694 87.0878 12.829 86.6681 12.4968 86.3269C12.1645 85.9858 11.7513 85.7344 11.2956 85.5962L11.2574 85.585C11.1579 85.676 11.0884 85.795 11.0578 85.9263C11.0203 86.0874 11.0435 86.2566 11.1228 86.4017C11.2022 86.5468 11.3323 86.6576 11.4881 86.7129C11.6908 86.7849 11.876 86.899 12.0314 87.0478C12.1868 87.1965 12.309 87.3765 12.3898 87.5759C12.4706 87.7753 12.5082 87.9895 12.5002 88.2045C12.4922 88.4195 12.4387 88.6303 12.3433 88.8232L12.1767 89.1593L12.3123 90.6251L12.9899 89.3483Z" fill="#FF8E26"/>
<path d="M12.8562 89.2367C12.9527 88.7928 12.9404 88.3322 12.8204 87.8941C12.6941 87.435 12.4537 87.0153 12.1214 86.6743C11.7891 86.3332 11.3759 86.0818 10.9203 85.9435L10.6711 85.8679C10.5832 85.8413 10.4907 85.833 10.3995 85.8435C10.3082 85.8541 10.2201 85.8832 10.1406 85.9291C10.0611 85.975 9.99178 86.0368 9.93706 86.1106C9.88233 86.1843 9.84332 86.2685 9.82242 86.358C9.78519 86.5189 9.80844 86.6879 9.88775 86.8328C9.96706 86.9777 10.0969 87.0884 10.2525 87.1437C10.4553 87.2157 10.6404 87.3298 10.7959 87.4785C10.9513 87.6273 11.0734 87.8073 11.1542 88.0066C11.235 88.206 11.2726 88.4203 11.2645 88.6352C11.2565 88.8502 11.203 89.061 11.1075 89.2538L10.9411 89.5902C10.7385 89.9986 10.3924 90.318 9.96907 90.4872C9.54575 90.6565 9.07488 90.6637 8.64655 90.5076L6.55207 89.7248C6.42432 89.6781 6.28553 89.6709 6.1536 89.7039C6.02168 89.7369 5.90269 89.8087 5.81198 89.9101C5.55556 90.1964 5.60192 90.6542 5.89682 90.9027L7.56358 92.303C7.86236 92.5543 8.09504 92.8749 8.24127 93.2369C8.3875 93.5989 8.44284 93.9912 8.40244 94.3795L8.28888 95.4694L7.85328 98.6786C7.84959 98.705 7.85369 98.7319 7.86508 98.7561C7.87648 98.7802 7.89466 98.8004 7.91741 98.8143C7.94015 98.8282 7.96647 98.8352 7.99311 98.8343C8.01976 98.8335 8.04557 98.8248 8.06739 98.8095L12.5283 95.6118C12.5975 95.5624 12.6459 95.489 12.6639 95.4059L12.9175 94.2336L12.8562 89.2367Z" fill="#FF8E26"/>
<path d="M10.7168 82.0572C10.684 82.0218 10.6619 81.9779 10.6529 81.9305C10.644 81.8832 10.6485 81.8342 10.6661 81.7893L11.2061 80.4086C11.2181 80.3767 11.2362 80.3475 11.2595 80.3227C11.2829 80.2979 11.3109 80.278 11.342 80.2642C11.373 80.2503 11.4066 80.2427 11.4406 80.2419C11.4746 80.2411 11.5085 80.2471 11.5402 80.2595C11.5719 80.2719 11.6008 80.2904 11.6253 80.3141C11.6497 80.3378 11.6692 80.3661 11.6827 80.3974C11.6961 80.4286 11.7032 80.4623 11.7035 80.4963C11.7038 80.5303 11.6973 80.5641 11.6845 80.5956L11.1444 81.9763C11.1285 82.0168 11.1026 82.0525 11.0691 82.0802C11.0356 82.108 10.9957 82.1267 10.9529 82.1348C10.9102 82.1429 10.8662 82.14 10.8249 82.1265C10.7836 82.1129 10.7464 82.0891 10.7168 82.0572V82.0572Z" fill="#FF8E26"/>
<path d="M12.7457 83.4964C12.6994 83.4464 12.675 83.3801 12.6776 83.312C12.6803 83.244 12.7099 83.1797 12.7599 83.1335L13.7394 82.2282C13.7637 82.2033 13.7929 82.1836 13.8251 82.1703C13.8573 82.157 13.8919 82.1503 13.9267 82.1508C13.9615 82.1513 13.9959 82.1588 14.0277 82.173C14.0596 82.1872 14.0882 82.2077 14.1118 82.2333C14.1355 82.2589 14.1537 82.289 14.1653 82.3218C14.1769 82.3547 14.1818 82.3896 14.1795 82.4243C14.1772 82.4591 14.1679 82.493 14.1521 82.5241C14.1363 82.5551 14.1144 82.5827 14.0876 82.605L13.1081 83.5102C13.0582 83.5564 12.992 83.5808 12.924 83.5783C12.8561 83.5757 12.7919 83.5463 12.7457 83.4964V83.4964Z" fill="#FF8E26"/>
<path d="M14.0206 85.6331C13.9912 85.6011 13.9703 85.5621 13.9601 85.5199C13.9498 85.4776 13.9504 85.4335 13.9618 85.3915C13.9732 85.3496 13.9951 85.3112 14.0254 85.28C14.0556 85.2488 14.0933 85.2258 14.1349 85.2131L15.5537 84.7832C15.5861 84.7735 15.6201 84.7702 15.6537 84.7736C15.6873 84.777 15.72 84.787 15.7498 84.803C15.7795 84.819 15.8059 84.8407 15.8272 84.8669C15.8486 84.8931 15.8647 84.9232 15.8744 84.9556C15.8841 84.9879 15.8874 85.0219 15.884 85.0556C15.8806 85.0892 15.8706 85.1218 15.8546 85.1516C15.8386 85.1814 15.8169 85.2077 15.7907 85.2291C15.7646 85.2505 15.7344 85.2665 15.702 85.2762L14.2832 85.7061C14.237 85.7198 14.1878 85.7202 14.1414 85.7073C14.095 85.6944 14.0531 85.6687 14.0206 85.6331V85.6331Z" fill="#FF8E26"/>
<path d="M15.265 88.2668C15.2386 88.2384 15.2192 88.2043 15.2082 88.1671C15.1886 88.1021 15.1954 88.032 15.2274 87.9721C15.2593 87.9122 15.3137 87.8674 15.3786 87.8476L16.1635 87.6101C16.196 87.5997 16.2301 87.596 16.264 87.5989C16.298 87.6019 16.3309 87.6116 16.3611 87.6275C16.3912 87.6433 16.4179 87.665 16.4395 87.6912C16.4612 87.7175 16.4774 87.7478 16.4873 87.7804C16.4972 87.8129 16.5005 87.8471 16.497 87.881C16.4935 87.9149 16.4833 87.9477 16.4671 87.9776C16.4508 88.0075 16.4287 88.0338 16.4022 88.0551C16.3756 88.0764 16.3451 88.0922 16.3124 88.1016L15.5282 88.3384C15.482 88.3524 15.4329 88.3531 15.3863 88.3404C15.3398 88.3278 15.2977 88.3023 15.265 88.2668V88.2668Z" fill="#FF8E26"/>
<path d="M8.19079 80.6099C8.15807 80.5745 8.13597 80.5305 8.12701 80.4832C8.11804 80.4358 8.12258 80.3868 8.14011 80.3419L8.43856 79.578C8.45049 79.5462 8.46865 79.517 8.49197 79.4922C8.51528 79.4674 8.54329 79.4475 8.57438 79.4336C8.60546 79.4197 8.63899 79.4122 8.67302 79.4113C8.70704 79.4105 8.74089 79.4165 8.7726 79.4289C8.8043 79.4413 8.83322 79.4599 8.85768 79.4835C8.88214 79.5072 8.90165 79.5355 8.91508 79.5668C8.9285 79.5981 8.93558 79.6317 8.93589 79.6657C8.93621 79.6998 8.92975 79.7335 8.9169 79.7651L8.61845 80.5289C8.59358 80.5921 8.54471 80.6428 8.48255 80.6699C8.42038 80.6971 8.34999 80.6985 8.28677 80.6739C8.25028 80.6602 8.21744 80.6383 8.19079 80.6099V80.6099Z" fill="#FF8E26"/>
<path d="M7.05417 83.6138L7.40235 83.4741C7.60207 83.3941 7.81647 83.3574 8.03142 83.3663C8.24636 83.3753 8.45698 83.4296 8.64939 83.5258C8.84181 83.6221 9.01165 83.7579 9.14774 83.9246C9.28382 84.0912 9.38306 84.2847 9.43892 84.4925C9.48187 84.6521 9.58211 84.7904 9.7205 84.8808C9.85889 84.9713 10.0257 85.0076 10.1892 84.9828C10.2802 84.9692 10.3675 84.9369 10.4456 84.8881C10.5236 84.8393 10.5908 84.775 10.643 84.6992C10.6952 84.6233 10.7312 84.5375 10.7488 84.4472C10.7664 84.3568 10.7653 84.2638 10.7455 84.1739L10.6899 83.9203C10.588 83.4551 10.3699 83.0233 10.056 82.6653C9.74205 82.3072 9.34251 82.0345 8.89466 81.8727C8.46722 81.7182 8.00875 81.6693 7.55835 81.7303L1.6541 82.5305C1.58457 82.5397 1.51952 82.57 1.46778 82.6173C1.41603 82.6646 1.38009 82.7267 1.36483 82.7952C1.34956 82.8636 1.3557 82.9351 1.38243 82.9999C1.40915 83.0648 1.45516 83.1198 1.51423 83.1576L1.55694 83.1852L7.05417 83.6138Z" fill="#FF8E26"/>
<path d="M6.92893 82.7902C7.47889 82.5479 8.09868 82.5162 8.67052 82.7009C8.69465 82.7089 8.71828 82.7173 8.7409 82.7267C9.18873 82.8885 9.58827 83.1612 9.90223 83.5192C10.2162 83.8772 10.4344 84.3089 10.5363 84.774L10.5445 84.8131C10.4459 84.9051 10.3218 84.9651 10.1885 84.9852C10.025 85.0099 9.85809 84.9735 9.71969 84.883C9.58129 84.7925 9.4811 84.6541 9.43824 84.4944C9.38239 84.2866 9.28315 84.0931 9.14706 83.9265C9.01098 83.7598 8.84113 83.6239 8.64872 83.5277C8.4563 83.4315 8.24569 83.3771 8.03074 83.3682C7.81579 83.3593 7.6014 83.396 7.40167 83.476L7.05349 83.6157L5.60534 83.3634L6.92893 82.7902Z" fill="#FF8E26"/>
<path d="M7.0274 82.9309C7.47748 82.8696 7.93572 82.918 8.36303 83.0721C8.8108 83.2341 9.21026 83.5068 9.52417 83.8648C9.83807 84.2229 10.0562 84.6546 10.1582 85.1197L10.214 85.374C10.2337 85.4638 10.2347 85.5566 10.217 85.6467C10.1993 85.7368 10.1634 85.8224 10.1113 85.8981C10.0593 85.9737 9.99229 86.0379 9.91445 86.0867C9.83662 86.1355 9.74961 86.1677 9.6588 86.1815C9.49544 86.206 9.32879 86.1695 9.19057 86.0791C9.05235 85.9886 8.95223 85.8505 8.90926 85.691C8.85347 85.4832 8.75427 85.2897 8.61821 85.123C8.48215 84.9564 8.31231 84.8205 8.1199 84.7243C7.92749 84.6281 7.71687 84.5738 7.50193 84.5649C7.28699 84.556 7.07261 84.5928 6.87292 84.6729L6.52451 84.8123C6.10143 84.9822 5.75584 85.3021 5.55383 85.7108C5.35183 86.1195 5.3076 86.5884 5.42961 87.0276L6.04587 89.1767C6.08233 89.3077 6.07867 89.4466 6.03538 89.5756C5.99208 89.7045 5.91114 89.8175 5.80299 89.8999C5.49736 90.133 5.04466 90.0509 4.82007 89.7373L3.55514 87.9657C3.32811 87.6481 3.02674 87.3909 2.67737 87.2167C2.328 87.0425 1.94127 86.9565 1.55099 86.9662L0.456752 86.994L-2.77853 87.1762C-2.80514 87.1778 -2.83164 87.1716 -2.85477 87.1584C-2.8779 87.1451 -2.89666 87.1254 -2.90873 87.1016C-2.9208 87.0779 -2.92567 87.0511 -2.92273 87.0246C-2.91979 86.9981 -2.90917 86.9731 -2.89218 86.9525L0.647763 82.7558C0.70244 82.6907 0.779435 82.6482 0.863719 82.6368L2.05315 82.4777L7.0274 82.9309Z" fill="#FF8E26"/>
</g>
<g clip-path="url(#clip3_1312_19205)">
<path d="M17.5873 58.0139C17.5685 57.7011 17.3091 57.4573 16.9959 57.4579H14.6299V55.6835C14.6299 54.0501 13.3059 52.7261 11.6726 52.7261C10.0392 52.7261 8.71516 54.0501 8.71516 55.6835V57.4579H6.34925C6.03596 57.4573 5.77656 57.7011 5.75778 58.0139L5.23728 67.4125C5.18175 68.3909 5.9299 69.2291 6.90831 69.2846C6.94273 69.2866 6.97722 69.2875 7.01171 69.2874H16.3393C17.3193 69.289 18.115 68.4959 18.1166 67.5159C18.1167 67.4814 18.1157 67.4469 18.1137 67.4125L17.5873 58.0139ZM9.89812 55.6835C9.89812 54.7035 10.6925 53.909 11.6726 53.909C12.6526 53.909 13.447 54.7035 13.447 55.6835V57.4579H9.89812V55.6835Z" fill="#FF8E26"/>
</g>
<g clip-path="url(#clip4_1312_19205)">
<path d="M30.5913 52.4068C30.5858 52.3156 30.5101 52.2445 30.4187 52.2446H29.7287V51.7271C29.7287 51.2507 29.3425 50.8645 28.8661 50.8645C28.3897 50.8645 28.0035 51.2507 28.0035 51.7271V52.2446H27.3135C27.2221 52.2445 27.1464 52.3156 27.1409 52.4068L26.9891 55.1481C26.9729 55.4334 27.1911 55.6779 27.4765 55.6941C27.4866 55.6947 27.4966 55.695 27.5067 55.695H30.2273C30.5131 55.6954 30.7452 55.4641 30.7456 55.1782C30.7457 55.1682 30.7454 55.1581 30.7448 55.1481L30.5913 52.4068ZM28.3486 51.7271C28.3486 51.4412 28.5803 51.2095 28.8661 51.2095C29.1519 51.2095 29.3837 51.4412 29.3837 51.7271V52.2446H28.3486V51.7271Z" fill="#FF8E26"/>
</g>
<g clip-path="url(#clip5_1312_19205)">
<path d="M66.5761 91.0605C66.5593 90.7807 66.3272 90.5626 66.0469 90.5631H63.93V88.9754C63.93 87.514 62.7453 86.3293 61.2839 86.3293C59.8225 86.3293 58.6378 87.514 58.6378 88.9754V90.5631H56.521C56.2406 90.5626 56.0085 90.7807 55.9917 91.0605L55.526 99.4698C55.4764 100.345 56.1457 101.095 57.0212 101.145C57.052 101.147 57.0828 101.147 57.1137 101.147H65.4594C66.3363 101.149 67.0482 100.439 67.0496 99.5623C67.0497 99.5315 67.0488 99.5006 67.0471 99.4698L66.5761 91.0605ZM59.6963 88.9754C59.6963 88.0986 60.4071 87.3878 61.2839 87.3878C62.1608 87.3878 62.8716 88.0986 62.8716 88.9754V90.5631H59.6963V88.9754Z" fill="#FF8E26"/>
</g>
<path d="M86.4287 89.0849C87.077 89.0849 87.6986 88.5179 87.6684 87.8524C87.6384 87.1851 87.1237 86.6204 86.4287 86.6204C85.7799 86.6204 85.1588 87.1869 85.1885 87.8524C85.2188 88.5202 85.7337 89.0849 86.4287 89.0849V89.0849Z" fill="#FF8E26"/>
<path d="M82.0554 90.186C82.704 90.186 83.3253 89.6194 83.2954 88.954C83.2654 88.2862 82.7507 87.7219 82.0554 87.7219C81.4069 87.7219 80.7855 88.2885 80.8155 88.954C80.8457 89.6217 81.3604 90.186 82.0554 90.186V90.186Z" fill="#FF8E26"/>
<path d="M85.3189 93.4296C85.9677 93.4296 86.5888 92.8631 86.5591 92.1976C86.5288 91.5298 86.0139 90.9653 85.3189 90.9653C84.6706 90.9653 84.049 91.5319 84.0792 92.1976C84.1092 92.8651 84.6238 93.4296 85.3189 93.4296V93.4296Z" fill="#FF8E26"/>
</g>
<path d="M54.1109 70.4543C53.6877 70.8776 53.0057 70.9292 52.521 70.5522L32.9346 55.3185C32.4096 54.9102 32.3151 54.1535 32.7234 53.6285C33.1314 53.104 33.8884 53.0089 34.4134 53.4173L53.9997 68.651C54.5688 69.0936 54.6268 69.9385 54.1109 70.4543Z" fill="white"/>
<path d="M80.5095 55.2181C80.4264 55.3013 81.8383 54.1966 60.8099 70.5519C60.2849 70.9602 59.5282 70.8656 59.1198 70.3406C58.7115 69.8156 58.8066 69.0591 59.3311 68.6506L78.9174 53.4169C79.4425 53.0086 80.1991 53.1032 80.6075 53.6281C80.9844 54.1128 80.9327 54.795 80.5095 55.2181V55.2181Z" fill="white"/>
<path d="M52.8647 49.7415C52.4172 50.189 51.6926 50.215 51.2136 49.789C48.1244 47.042 43.4116 47.183 40.4846 50.11L36.2267 54.3679C34.5833 56.0114 31.9091 56.0114 30.2656 54.3679C29.7954 53.8977 29.7954 53.1351 30.2656 52.6648C30.7359 52.1945 31.4985 52.1945 31.9688 52.6648C32.6731 53.3691 33.8192 53.3691 34.5235 52.6648L38.7814 48.4069C42.6092 44.5791 48.7731 44.3956 52.8141 47.9891C53.3305 48.4482 53.3569 49.2493 52.8647 49.7415V49.7415Z" fill="white"/>
<path d="M83.0627 54.3682C81.4192 56.0117 78.7451 56.0116 77.1016 54.3682L72.8437 50.1103C69.9167 47.1833 65.204 47.0422 62.1148 49.7893C61.6177 50.2313 60.8565 50.1866 60.4145 49.6896C59.9726 49.1926 60.0171 48.4324 60.5142 47.9894C64.5553 44.3959 70.7192 44.5794 74.5469 48.4071L78.8048 52.665C79.5091 53.3694 80.6552 53.3694 81.3595 52.665C81.8299 52.1947 82.5924 52.1948 83.0627 52.665C83.533 53.1353 83.533 53.8979 83.0627 54.3682Z" fill="white"/>
<path d="M62.5024 48.6739C62.8729 50.712 61.2858 52.5918 59.2211 52.5906L54.1116 52.5906C52.033 52.5912 50.4626 50.698 50.8304 48.6749C51.1039 47.1127 52.4653 45.9239 54.1116 45.9249L59.2211 45.9249C60.8418 45.9243 62.2203 47.0804 62.5024 48.6739Z" fill="white"/>
<path d="M56.7852 46.6269C56.1176 46.627 55.7839 46.2937 55.4608 45.9594L55.4609 34.7812C55.4608 34.116 56 33.5768 56.6652 33.5769C57.3303 33.5768 57.8695 34.116 57.8695 34.7812L57.8695 45.9594C57.8695 46.2919 57.119 46.6269 56.7852 46.6269Z" fill="white"/>
<path d="M57.5182 66.2899C56.7667 67.0414 55.4623 66.5153 55.4623 65.4383L55.4623 52.6356C55.4623 51.9706 56.1219 51.9681 56.787 51.9681C57.4522 51.9681 57.871 51.9705 57.871 52.6356L57.871 65.4384C57.871 65.7709 57.7362 66.072 57.5182 66.2899Z" fill="white"/>
<path d="M57.5178 27.117C62.6585 32.2576 62.2698 31.8615 62.4 32.0162C63.6072 33.4341 63.5406 35.571 62.2015 36.9101C60.7927 38.3189 58.5009 38.3189 57.092 36.9101L56.6663 36.4843L56.2405 36.9101C53.8921 39.2585 49.885 37.4422 50.0809 34.1398C50.1309 33.2882 50.4811 32.4505 51.131 31.8006L55.8147 27.117C56.2852 26.6465 57.0473 26.6465 57.5178 27.117V27.117Z" fill="white"/>
<path d="M57.5166 27.117C62.6572 32.2577 62.2685 31.8615 62.3988 32.0163C62.2171 35.108 58.4376 36.5538 56.2392 34.3554L55.8134 33.9297L55.3876 34.3554C53.8856 35.8574 51.4206 35.7327 50.0796 34.1399C50.1296 33.2883 50.4799 32.4506 51.1297 31.8007L55.8134 27.117C56.2839 26.6465 57.0461 26.6465 57.5166 27.117V27.117Z" fill="white"/>
<path d="M57.5188 64.5869L60.9251 67.9933C61.1508 68.2189 61.2775 68.5255 61.2775 68.8448L61.2774 75.6575C61.2774 76.7257 59.9784 77.2655 59.222 76.5091L56.6672 73.9543L54.1125 76.5091C53.3564 77.2651 52.0558 76.7294 52.057 75.6575L52.057 68.8448C52.057 68.5255 52.1837 68.2189 52.4093 67.9933L55.8156 64.5869C56.2861 64.1165 57.0483 64.1165 57.5188 64.5869Z" fill="white"/>
<path d="M57.5149 64.5867L60.9212 67.9931C61.1468 68.2187 61.2735 68.5253 61.2735 68.8446L61.2735 71.3994C61.2735 72.4676 59.9745 73.0074 59.218 72.251L56.6633 69.6962L54.1085 72.251C53.3525 73.007 52.0519 72.4713 52.053 71.3994L52.053 68.8446C52.053 68.5253 52.1797 68.2187 52.4054 67.9931L55.8117 64.5867C56.2822 64.1162 57.0444 64.1162 57.5149 64.5867Z" fill="white"/>
<path d="M175.682 50.6617C176.506 50.8089 177.205 51.2431 177.779 51.9643C178.353 52.6855 178.64 53.5024 178.64 54.4149C178.64 55.195 178.434 55.9015 178.022 56.5344C177.625 57.1526 177.043 57.6456 176.278 58.0136C175.513 58.3668 174.622 58.5435 173.607 58.5435H167.469V43.1995H173.32C174.365 43.1995 175.262 43.3761 176.013 43.7294C176.764 44.0826 177.33 44.561 177.713 45.1644C178.096 45.7531 178.287 46.4155 178.287 47.1514C178.287 48.0345 178.052 48.7704 177.581 49.3592C177.11 49.9479 176.477 50.3821 175.682 50.6617ZM169.986 49.6462H173.099C173.923 49.6462 174.563 49.4622 175.02 49.0942C175.491 48.7116 175.726 48.167 175.726 47.4605C175.726 46.7687 175.491 46.2315 175.02 45.8488C174.563 45.4514 173.923 45.2527 173.099 45.2527H169.986V49.6462ZM173.386 56.4902C174.24 56.4902 174.909 56.2842 175.395 55.8721C175.881 55.4599 176.123 54.8859 176.123 54.15C176.123 53.3994 175.866 52.8033 175.351 52.3617C174.836 51.9202 174.151 51.6994 173.298 51.6994H169.986V56.4902H173.386ZM192.392 46.3787V58.5435H189.875V57.1084C189.478 57.6088 188.955 58.0062 188.308 58.3006C187.675 58.5803 186.998 58.7201 186.277 58.7201C185.32 58.7201 184.459 58.5214 183.694 58.124C182.943 57.7266 182.347 57.1378 181.905 56.3578C181.478 55.5777 181.265 54.6357 181.265 53.5318V46.3787H183.76V53.1565C183.76 54.2457 184.032 55.0846 184.577 55.6734C185.121 56.2474 185.864 56.5344 186.806 56.5344C187.748 56.5344 188.492 56.2474 189.036 55.6734C189.596 55.0846 189.875 54.2457 189.875 53.1565V46.3787H192.392ZM197.943 56.4902H203.462V58.5435H195.028V56.4902L200.57 48.4319H195.028V46.3787H203.462V48.4319L197.943 56.4902ZM208.335 56.4902H213.854V58.5435H205.42V56.4902L210.962 48.4319H205.42V46.3787H213.854V48.4319L208.335 56.4902Z" fill="white"/>
<path d="M313.35 46.4503C312.542 46.4503 311.811 46.3118 311.158 46.035C310.515 45.7581 310.006 45.3594 309.629 44.8389C309.253 44.3184 309.059 43.7038 309.048 42.995H311.54C311.573 43.4712 311.739 43.8478 312.038 44.1246C312.348 44.4015 312.769 44.5399 313.301 44.5399C313.843 44.5399 314.27 44.4126 314.58 44.1579C314.89 43.8921 315.045 43.5488 315.045 43.1279C315.045 42.7846 314.94 42.5022 314.729 42.2807C314.519 42.0593 314.253 41.8876 313.932 41.7658C313.622 41.6329 313.19 41.4889 312.636 41.3339C311.883 41.1124 311.268 40.8964 310.792 40.686C310.327 40.4645 309.923 40.1378 309.58 39.7059C309.247 39.263 309.081 38.676 309.081 37.9451C309.081 37.2585 309.253 36.6605 309.596 36.1511C309.939 35.6416 310.421 35.254 311.041 34.9882C311.662 34.7114 312.37 34.5729 313.168 34.5729C314.364 34.5729 315.333 34.8664 316.075 35.4534C316.828 36.0292 317.243 36.8377 317.321 37.8787H314.762C314.74 37.48 314.569 37.1533 314.247 36.8986C313.937 36.6328 313.522 36.4999 313.002 36.4999C312.547 36.4999 312.182 36.6162 311.905 36.8487C311.639 37.0813 311.506 37.4191 311.506 37.8621C311.506 38.1721 311.606 38.4324 311.805 38.6428C312.016 38.8421 312.271 39.0083 312.57 39.1411C312.88 39.263 313.312 39.4069 313.865 39.573C314.618 39.7945 315.233 40.016 315.709 40.2375C316.185 40.459 316.595 40.7912 316.938 41.2342C317.282 41.6772 317.453 42.2586 317.453 42.9784C317.453 43.5986 317.293 44.1745 316.972 44.706C316.651 45.2376 316.18 45.664 315.56 45.9851C314.94 46.2952 314.203 46.4503 313.35 46.4503ZM321.795 36.6162V39.5232H325.699V41.3671H321.795V44.4403H326.197V46.334H319.47V34.7225H326.197V36.6162H321.795ZM338.228 46.334H335.902L330.636 38.377V46.334H328.311V34.7225H330.636L335.902 42.696V34.7225H338.228V46.334ZM344.579 34.7391C345.798 34.7391 346.866 34.9772 347.785 35.4534C348.716 35.9296 349.43 36.6106 349.928 37.4966C350.438 38.3715 350.693 39.3903 350.693 40.5531C350.693 41.716 350.438 42.7348 349.928 43.6097C349.43 44.4735 348.716 45.1435 347.785 45.6197C346.866 46.0959 345.798 46.334 344.579 46.334H340.526V34.7391H344.579ZM344.496 44.3572C345.715 44.3572 346.656 44.025 347.32 43.3605C347.985 42.696 348.317 41.7602 348.317 40.5531C348.317 39.346 347.985 38.4047 347.32 37.7292C346.656 37.0425 345.715 36.6992 344.496 36.6992H342.852V44.3572H344.496ZM363.501 44.1246H358.883L358.119 46.334H355.677L359.847 34.7225H362.555L366.724 46.334H364.266L363.501 44.1246ZM362.87 42.2641L361.192 37.4135L359.515 42.2641H362.87ZM378.819 40.387C379.472 40.5088 380.01 40.8355 380.43 41.3671C380.851 41.8987 381.062 42.5078 381.062 43.1944C381.062 43.8146 380.907 44.3627 380.596 44.8389C380.297 45.3041 379.86 45.6695 379.284 45.9353C378.708 46.2011 378.027 46.334 377.241 46.334H372.241V34.7391H377.025C377.811 34.7391 378.487 34.8664 379.052 35.1211C379.627 35.3758 380.059 35.7302 380.347 36.1843C380.646 36.6383 380.796 37.1533 380.796 37.7292C380.796 38.4047 380.613 38.9695 380.248 39.4235C379.893 39.8776 379.417 40.1988 378.819 40.387ZM374.566 39.5232H376.693C377.246 39.5232 377.673 39.4014 377.972 39.1578C378.271 38.903 378.42 38.5431 378.42 38.078C378.42 37.6129 378.271 37.253 377.972 36.9982C377.673 36.7435 377.246 36.6162 376.693 36.6162H374.566V39.5232ZM376.909 44.4403C377.473 44.4403 377.911 44.3074 378.221 44.0416C378.542 43.7758 378.703 43.3993 378.703 42.912C378.703 42.4136 378.537 42.026 378.204 41.7492C377.872 41.4612 377.424 41.3173 376.859 41.3173H374.566V44.4403H376.909ZM385.207 34.7391V41.9153C385.207 42.7016 385.412 43.3051 385.822 43.726C386.232 44.1357 386.808 44.3406 387.55 44.3406C388.303 44.3406 388.884 44.1357 389.294 43.726C389.704 43.3051 389.909 42.7016 389.909 41.9153V34.7391H392.251V41.8987C392.251 42.8843 392.035 43.7204 391.603 44.407C391.182 45.0826 390.612 45.592 389.892 45.9353C389.183 46.2786 388.391 46.4503 387.517 46.4503C386.653 46.4503 385.866 46.2786 385.158 45.9353C384.46 45.592 383.906 45.0826 383.496 44.407C383.087 43.7204 382.882 42.8843 382.882 41.8987V34.7391H385.207ZM396.873 44.3738H402.089V46.334H394.182V44.5399L399.365 36.6992H394.182V34.7391H402.089V36.5331L396.873 44.3738ZM406.444 44.3738H411.66V46.334H403.753V44.5399L408.936 36.6992H403.753V34.7391H411.66V36.5331L406.444 44.3738ZM425.489 34.7391V36.6162H422.399V46.334H420.073V36.6162H416.984V34.7391H425.489ZM432.568 46.4503C431.483 46.4503 430.486 46.1956 429.578 45.6861C428.67 45.1767 427.95 44.4735 427.418 43.5765C426.887 42.6684 426.621 41.644 426.621 40.5033C426.621 39.3737 426.887 38.3604 427.418 37.4634C427.95 36.5553 428.67 35.8465 429.578 35.3371C430.486 34.8277 431.483 34.5729 432.568 34.5729C433.664 34.5729 434.661 34.8277 435.558 35.3371C436.466 35.8465 437.18 36.5553 437.701 37.4634C438.232 38.3604 438.498 39.3737 438.498 40.5033C438.498 41.644 438.232 42.6684 437.701 43.5765C437.18 44.4735 436.466 45.1767 435.558 45.6861C434.65 46.1956 433.653 46.4503 432.568 46.4503ZM432.568 44.3738C433.266 44.3738 433.88 44.2188 434.412 43.9087C434.943 43.5875 435.359 43.1335 435.658 42.5465C435.957 41.9596 436.106 41.2785 436.106 40.5033C436.106 39.7281 435.957 39.0526 435.658 38.4767C435.359 37.8897 434.943 37.4412 434.412 37.1311C433.88 36.8211 433.266 36.666 432.568 36.666C431.87 36.666 431.25 36.8211 430.707 37.1311C430.176 37.4412 429.761 37.8897 429.462 38.4767C429.163 39.0526 429.013 39.7281 429.013 40.5033C429.013 41.2785 429.163 41.9596 429.462 42.5465C429.761 43.1335 430.176 43.5875 430.707 43.9087C431.25 44.2188 431.87 44.3738 432.568 44.3738ZM448.19 46.4503C447.382 46.4503 446.651 46.3118 445.997 46.035C445.355 45.7581 444.846 45.3594 444.469 44.8389C444.093 44.3184 443.899 43.7038 443.888 42.995H446.379C446.413 43.4712 446.579 43.8478 446.878 44.1246C447.188 44.4015 447.609 44.5399 448.14 44.5399C448.683 44.5399 449.109 44.4126 449.419 44.1579C449.729 43.8921 449.884 43.5488 449.884 43.1279C449.884 42.7846 449.779 42.5022 449.569 42.2807C449.358 42.0593 449.093 41.8876 448.772 41.7658C448.461 41.6329 448.03 41.4889 447.476 41.3339C446.723 41.1124 446.108 40.8964 445.632 40.686C445.167 40.4645 444.763 40.1378 444.419 39.7059C444.087 39.263 443.921 38.676 443.921 37.9451C443.921 37.2585 444.093 36.6605 444.436 36.1511C444.779 35.6416 445.261 35.254 445.881 34.9882C446.501 34.7114 447.21 34.5729 448.007 34.5729C449.203 34.5729 450.172 34.8664 450.914 35.4534C451.667 36.0292 452.083 36.8377 452.16 37.8787H449.602C449.58 37.48 449.408 37.1533 449.087 36.8986C448.777 36.6328 448.362 36.4999 447.841 36.4999C447.387 36.4999 447.022 36.6162 446.745 36.8487C446.479 37.0813 446.346 37.4191 446.346 37.8621C446.346 38.1721 446.446 38.4324 446.645 38.6428C446.856 38.8421 447.11 39.0083 447.409 39.1411C447.719 39.263 448.151 39.4069 448.705 39.573C449.458 39.7945 450.073 40.016 450.549 40.2375C451.025 40.459 451.435 40.7912 451.778 41.2342C452.122 41.6772 452.293 42.2586 452.293 42.9784C452.293 43.5986 452.133 44.1745 451.811 44.706C451.49 45.2376 451.02 45.664 450.399 45.9851C449.779 46.2952 449.043 46.4503 448.19 46.4503ZM459.692 46.4503C458.606 46.4503 457.61 46.1956 456.701 45.6861C455.793 45.1767 455.074 44.4735 454.542 43.5765C454.01 42.6684 453.745 41.644 453.745 40.5033C453.745 39.3737 454.01 38.3604 454.542 37.4634C455.074 36.5553 455.793 35.8465 456.701 35.3371C457.61 34.8277 458.606 34.5729 459.692 34.5729C460.788 34.5729 461.785 34.8277 462.682 35.3371C463.59 35.8465 464.304 36.5553 464.825 37.4634C465.356 38.3604 465.622 39.3737 465.622 40.5033C465.622 41.644 465.356 42.6684 464.825 43.5765C464.304 44.4735 463.59 45.1767 462.682 45.6861C461.774 46.1956 460.777 46.4503 459.692 46.4503ZM459.692 44.3738C460.389 44.3738 461.004 44.2188 461.535 43.9087C462.067 43.5875 462.482 43.1335 462.781 42.5465C463.08 41.9596 463.23 41.2785 463.23 40.5033C463.23 39.7281 463.08 39.0526 462.781 38.4767C462.482 37.8897 462.067 37.4412 461.535 37.1311C461.004 36.8211 460.389 36.666 459.692 36.666C458.994 36.666 458.374 36.8211 457.831 37.1311C457.3 37.4412 456.884 37.8897 456.585 38.4767C456.286 39.0526 456.137 39.7281 456.137 40.5033C456.137 41.2785 456.286 41.9596 456.585 42.5465C456.884 43.1335 457.3 43.5875 457.831 43.9087C458.374 44.2188 458.994 44.3738 459.692 44.3738ZM479.994 34.7391V46.334H477.668V38.7923L474.562 46.334H472.801L469.678 38.7923V46.334H467.352V34.7391H469.993L473.681 43.3605L477.369 34.7391H479.994ZM484.618 36.6162V39.5232H488.522V41.3671H484.618V44.4403H489.021V46.334H482.293V34.7225H489.021V36.6162H484.618ZM496.516 46.4503C495.431 46.4503 494.434 46.1956 493.526 45.6861C492.618 45.1767 491.898 44.4735 491.367 43.5765C490.835 42.6684 490.569 41.644 490.569 40.5033C490.569 39.3737 490.835 38.3604 491.367 37.4634C491.898 36.5553 492.618 35.8465 493.526 35.3371C494.434 34.8277 495.431 34.5729 496.516 34.5729C497.613 34.5729 498.609 34.8277 499.506 35.3371C500.414 35.8465 501.129 36.5553 501.649 37.4634C502.181 38.3604 502.447 39.3737 502.447 40.5033C502.447 41.644 502.181 42.6684 501.649 43.5765C501.129 44.4735 500.414 45.1767 499.506 45.6861C498.598 46.1956 497.601 46.4503 496.516 46.4503ZM496.516 44.3738C497.214 44.3738 497.829 44.2188 498.36 43.9087C498.892 43.5875 499.307 43.1335 499.606 42.5465C499.905 41.9596 500.054 41.2785 500.054 40.5033C500.054 39.7281 499.905 39.0526 499.606 38.4767C499.307 37.8897 498.892 37.4412 498.36 37.1311C497.829 36.8211 497.214 36.666 496.516 36.666C495.819 36.666 495.198 36.8211 494.656 37.1311C494.124 37.4412 493.709 37.8897 493.41 38.4767C493.111 39.0526 492.961 39.7281 492.961 40.5033C492.961 41.2785 493.111 41.9596 493.41 42.5465C493.709 43.1335 494.124 43.5875 494.656 43.9087C495.198 44.2188 495.819 44.3738 496.516 44.3738ZM514.094 46.334H511.768L506.502 38.377V46.334H504.177V34.7225H506.502L511.768 42.696V34.7225H514.094V46.334ZM518.718 36.6162V39.5232H522.622V41.3671H518.718V44.4403H523.12V46.334H516.392V34.7225H523.12V36.6162H518.718ZM363.737 71.4503C362.651 71.4503 361.655 71.1956 360.747 70.6861C359.838 70.1767 359.119 69.4735 358.587 68.5765C358.056 67.6684 357.79 66.644 357.79 65.5033C357.79 64.3737 358.056 63.3604 358.587 62.4634C359.119 61.5553 359.838 60.8465 360.747 60.3371C361.655 59.8277 362.651 59.5729 363.737 59.5729C364.833 59.5729 365.83 59.8277 366.727 60.3371C367.635 60.8465 368.349 61.5553 368.87 62.4634C369.401 63.3604 369.667 64.3737 369.667 65.5033C369.667 66.644 369.401 67.6684 368.87 68.5765C368.349 69.4735 367.635 70.1767 366.727 70.6861C365.819 71.1956 364.822 71.4503 363.737 71.4503ZM363.737 69.3738C364.434 69.3738 365.049 69.2188 365.581 68.9087C366.112 68.5875 366.527 68.1335 366.826 67.5465C367.125 66.9596 367.275 66.2785 367.275 65.5033C367.275 64.7281 367.125 64.0526 366.826 63.4767C366.527 62.8897 366.112 62.4412 365.581 62.1311C365.049 61.8211 364.434 61.666 363.737 61.666C363.039 61.666 362.419 61.8211 361.876 62.1311C361.345 62.4412 360.929 62.8897 360.63 63.4767C360.331 64.0526 360.182 64.7281 360.182 65.5033C360.182 66.2785 360.331 66.9596 360.63 67.5465C360.929 68.1335 361.345 68.5875 361.876 68.9087C362.419 69.2188 363.039 69.3738 363.737 69.3738ZM373.69 59.7391V66.9153C373.69 67.7016 373.895 68.3051 374.304 68.726C374.714 69.1357 375.29 69.3406 376.032 69.3406C376.785 69.3406 377.366 69.1357 377.776 68.726C378.186 68.3051 378.391 67.7016 378.391 66.9153V59.7391H380.733V66.8987C380.733 67.8843 380.517 68.7204 380.085 69.407C379.664 70.0826 379.094 70.592 378.374 70.9353C377.665 71.2786 376.874 71.4503 375.999 71.4503C375.135 71.4503 374.349 71.2786 373.64 70.9353C372.942 70.592 372.388 70.0826 371.979 69.407C371.569 68.7204 371.364 67.8843 371.364 66.8987V59.7391H373.69ZM392.918 71.334L390.36 66.8156H389.264V71.334H386.938V59.7391H391.29C392.187 59.7391 392.952 59.8996 393.583 60.2208C394.214 60.5309 394.685 60.9573 394.995 61.4999C395.316 62.0315 395.477 62.6295 395.477 63.294C395.477 64.0581 395.255 64.7502 394.812 65.3704C394.369 65.9795 393.71 66.4003 392.835 66.6329L395.609 71.334H392.918ZM389.264 65.0714H391.207C391.839 65.0714 392.309 64.9219 392.619 64.6229C392.929 64.3128 393.085 63.8864 393.085 63.3438C393.085 62.8122 392.929 62.4025 392.619 62.1145C392.309 61.8155 391.839 61.666 391.207 61.666H389.264V65.0714ZM399.906 61.6162V64.5232H403.809V66.3671H399.906V69.4403H404.308V71.334H397.58V59.7225H404.308V61.6162H399.906ZM413.531 69.1246H408.913L408.149 71.334H405.707L409.876 59.7225H412.584L416.754 71.334H414.295L413.531 69.1246ZM412.9 67.2641L411.222 62.4135L409.544 67.2641H412.9ZM420.638 69.4901H424.458V71.334H418.312V59.7391H420.638V69.4901ZM428.262 69.4901H432.083V71.334H425.937V59.7391H428.262V69.4901ZM442.781 59.7391L438.86 67.2974V71.334H436.535V67.2974L432.598 59.7391H435.222L437.714 65.0382L440.189 59.7391H442.781ZM450.406 69.4901H454.226V71.334H448.08V59.7391H450.406V69.4901ZM458.03 59.7391V71.334H455.705V59.7391H458.03ZM466.873 71.334L462.654 66.1678V71.334H460.328V59.7391H462.654V64.9385L466.873 59.7391H469.68L464.896 65.4867L469.813 71.334H466.873ZM473.668 61.6162V64.5232H477.572V66.3671H473.668V69.4403H478.071V71.334H471.343V59.7225H478.071V61.6162H473.668Z" fill="white"/>
<defs>
<filter id="filter0_ddd_1312_19205" x="0.437624" y="0.882189" width="553.32" height="102.799" filterUnits="userSpaceOnUse" color-interpolation-filters="sRGB">
<feFlood flood-opacity="0" result="BackgroundImageFix"/>
<feColorMatrix in="SourceAlpha" type="matrix" values="0 0 0 0 0 0 0 0 0 0 0 0 0 0 0 0 0 0 127 0" result="hardAlpha"/>
<feOffset dy="0.689926"/>
<feGaussianBlur stdDeviation="2.7597"/>
<feColorMatrix type="matrix" values="0 0 0 0 0 0 0 0 0 0 0 0 0 0 0 0 0 0 0.1 0"/>
<feBlend mode="normal" in2="BackgroundImageFix" result="effect1_dropShadow_1312_19205"/>
<feColorMatrix in="SourceAlpha" type="matrix" values="0 0 0 0 0 0 0 0 0 0 0 0 0 0 0 0 0 0 127 0" result="hardAlpha"/>
<feOffset dy="1.37985"/>
<feGaussianBlur stdDeviation="1.37985"/>
<feColorMatrix type="matrix" values="0 0 0 0 0 0 0 0 0 0 0 0 0 0 0 0 0 0 0.12 0"/>
<feBlend mode="normal" in2="effect1_dropShadow_1312_19205" result="effect2_dropShadow_1312_19205"/>
<feColorMatrix in="SourceAlpha" type="matrix" values="0 0 0 0 0 0 0 0 0 0 0 0 0 0 0 0 0 0 127 0" result="hardAlpha"/>
<feOffset dy="0.689926"/>
<feGaussianBlur stdDeviation="0.689926"/>
<feColorMatrix type="matrix" values="0 0 0 0 0 0 0 0 0 0 0 0 0 0 0 0 0 0 0.16 0"/>
<feBlend mode="normal" in2="effect2_dropShadow_1312_19205" result="effect3_dropShadow_1312_19205"/>
<feBlend mode="normal" in="SourceGraphic" in2="effect3_dropShadow_1312_19205" result="shape"/>
</filter>
<clipPath id="clip0_1312_19205">
<rect width="111.768" height="91.7601" fill="white" transform="translate(5.95703 5.71167)"/>
</clipPath>
<clipPath id="clip1_1312_19205">
<rect width="17.5095" height="17.5095" fill="white" transform="translate(86.4883 5.71167)"/>
</clipPath>
<clipPath id="clip2_1312_19205">
<rect width="17.5095" height="17.5095" fill="white" transform="translate(12.248 72.0325) rotate(47.2539)"/>
</clipPath>
<clipPath id="clip3_1312_19205">
<rect width="13.19" height="16.6611" fill="white" transform="translate(4.92578 52.6265)"/>
</clipPath>
<clipPath id="clip4_1312_19205">
<rect width="3.84712" height="4.85953" fill="white" transform="translate(26.9023 50.8354)"/>
</clipPath>
<clipPath id="clip5_1312_19205">
<rect width="11.8016" height="14.9073" fill="white" transform="translate(55.248 86.2402)"/>
</clipPath>
</defs>
</svg>
