<svg width="553" height="104" viewBox="0 0 553 104" fill="none" xmlns="http://www.w3.org/2000/svg">
<g filter="url(#filter0_ddd_1312_18414)">
<rect x="5.84766" y="5.24854" width="541.592" height="91.7601" rx="2.7597" fill="#FF8787"/>
</g>
<g clip-path="url(#clip0_1312_18414)">
<path d="M88.8964 77.6438C88.5769 77.6438 88.2576 77.5221 88.014 77.2785L84.6507 73.9152C84.4165 73.6811 84.2852 73.3638 84.2852 73.0331C84.2852 72.7021 84.4165 72.3849 84.6507 72.1507L88.014 68.7874C88.2479 68.5538 88.5653 68.4219 88.8964 68.4219C89.2269 68.4219 89.5443 68.5533 89.7782 68.7874L93.1415 72.1507C93.3757 72.3849 93.5071 72.7021 93.5071 73.0331C93.5071 73.3638 93.3757 73.6813 93.1415 73.9152L89.7782 77.2785C89.5346 77.5221 89.2154 77.6438 88.8964 77.6438Z" fill="#FF4C4C"/>
<path d="M70.8471 19.3301C70.5281 19.3301 70.2088 19.2084 69.9652 18.9645L66.6019 15.6012C66.1145 15.114 66.1145 14.3242 66.6019 13.837L69.9652 10.4737C70.1991 10.2395 70.5166 10.1082 70.8471 10.1082C71.1781 10.1082 71.4956 10.2395 71.7295 10.4737L75.0928 13.837C75.3269 14.0706 75.4583 14.3883 75.4583 14.7189C75.4583 15.0499 75.3269 15.3673 75.0928 15.601L71.7295 18.9645C71.4859 19.2084 71.1663 19.3301 70.8471 19.3301Z" fill="#FF4C4C"/>
<path d="M48.4701 11.846C46.4608 11.846 44.8262 10.2114 44.8262 8.20232C44.8262 6.19297 46.4608 4.55859 48.4701 4.55859C50.4792 4.55859 52.1134 6.19297 52.1134 8.20232C52.1134 10.2114 50.4792 11.846 48.4701 11.846Z" fill="#FF4C4C"/>
<path d="M82.7268 45.1683C78.9941 45.1683 75.957 42.1312 75.957 38.3985C75.957 34.6652 78.9941 31.6287 82.7268 31.6287C86.4596 31.6287 89.4962 34.6652 89.4962 38.3985C89.4962 42.1312 86.4596 45.1683 82.7268 45.1683V45.1683Z" fill="#FF4C4C"/>
<path d="M112.612 63.9748C113.265 63.9748 113.89 63.4012 113.86 62.7271C113.829 62.0513 113.311 61.4795 112.612 61.4795C111.959 61.4795 111.334 62.0533 111.364 62.7271C111.395 63.403 111.912 63.9748 112.612 63.9748Z" fill="#FF4C4C"/>
<path d="M113.727 68.3739C114.38 68.3739 115.005 67.8001 114.975 67.1263C114.944 66.4502 114.427 65.8787 113.727 65.8787C113.074 65.8787 112.449 66.4523 112.48 67.1263C112.51 67.8021 113.028 68.3739 113.727 68.3739V68.3739Z" fill="#FF4C4C"/>
<path d="M117.008 65.09C117.661 65.09 118.286 64.5159 118.256 63.8421C118.226 63.1663 117.708 62.5947 117.008 62.5947C116.356 62.5947 115.731 63.1683 115.761 63.8421C115.791 64.5182 116.309 65.09 117.008 65.09V65.09Z" fill="#FF4C4C"/>
<path d="M31.3852 79.2475C32.0377 79.2475 32.663 78.6736 32.6328 77.9998C32.6024 77.324 32.0845 76.7522 31.3852 76.7522C30.7328 76.7522 30.1074 77.3263 30.1378 77.9998C30.1679 78.6759 30.6856 79.2475 31.3852 79.2475V79.2475Z" fill="#FF4C4C"/>
<path d="M32.5009 83.6466C33.1534 83.6466 33.7787 83.0728 33.7483 82.399C33.7181 81.7229 33.2002 81.1516 32.5009 81.1516C31.848 81.1516 31.2231 81.7252 31.253 82.399C31.2834 83.0751 31.8013 83.6466 32.5009 83.6466Z" fill="#FF4C4C"/>
<path d="M35.7856 80.3624C36.4384 80.3624 37.0633 79.7889 37.0334 79.1151C37.0033 78.439 36.4854 77.8674 35.7856 77.8674C35.1332 77.8674 34.5078 78.441 34.5382 79.1151C34.5683 79.7909 35.0862 80.3624 35.7856 80.3624Z" fill="#FF4C4C"/>
<path d="M16.6987 7.08376C18.2796 7.08376 19.7948 5.69426 19.7211 4.06203C19.648 2.42423 18.3935 1.03906 16.6987 1.03906C15.1179 1.03906 13.6033 2.4298 13.6764 4.06203C13.7501 5.6986 15.0046 7.08376 16.6987 7.08376Z" fill="#FF4C4C"/>
<path d="M6.04442 9.78542C7.62464 9.78542 9.13984 8.39468 9.06615 6.76245C8.99309 5.12589 7.73857 3.74072 6.04442 3.74072C4.46359 3.74072 2.94901 5.13022 3.02207 6.76245C3.09576 8.40026 4.35027 9.78542 6.04442 9.78542Z" fill="#FF4C4C"/>
<path d="M13.9989 17.7409C15.5804 17.7409 17.0943 16.3514 17.0213 14.7191C16.9482 13.0813 15.6931 11.6968 13.9989 11.6968C12.4187 11.6968 10.9035 13.0869 10.9772 14.7191C11.0503 16.3569 12.3048 17.7409 13.9989 17.7409Z" fill="#FF4C4C"/>
<path d="M113.07 53.213C112.825 52.603 112.131 52.3069 111.521 52.5518C110.22 53.0745 108.464 52.8974 106.938 52.0905C106.377 51.7934 105.873 51.4307 105.443 51.0197C106.596 50.5443 107.502 49.7445 108.06 48.6898L108.074 48.6642C108.525 47.8119 108.661 46.8494 108.458 45.9538C108.242 45.0059 107.65 44.2151 106.835 43.7834C105.189 42.9121 103.065 43.6846 102.102 45.5054L102.089 45.5308C101.531 46.5855 101.38 47.7846 101.636 49.0054C101.054 48.8815 100.47 48.6688 99.9086 48.372C99.4798 48.1451 98.7264 47.5049 98.1558 46.8826C97.7109 46.3979 96.9582 46.3653 96.4738 46.8099C95.9893 47.2541 95.9564 48.0073 96.4011 48.4917C96.9906 49.135 97.9717 50.0409 98.7956 50.4768C100.059 51.1451 101.424 51.4995 102.745 51.5139C103.501 52.5981 104.561 53.5267 105.825 54.1953C107.122 54.8812 108.527 55.2317 109.868 55.2317C110.76 55.2317 111.624 55.0763 112.409 54.7617C113.019 54.5163 113.315 53.8231 113.07 53.213V53.213ZM104.194 46.6441L104.207 46.6187C104.472 46.1172 104.947 45.8035 105.369 45.8035C105.493 45.8035 105.613 45.8306 105.721 45.8879C105.998 46.0343 106.1 46.3223 106.136 46.4811C106.212 46.817 106.151 47.2068 105.969 47.551L105.956 47.5763C105.601 48.2461 104.948 48.731 104.091 48.9689C103.806 48.1266 103.839 47.3139 104.194 46.6441Z" fill="#FF4C4C"/>
<path d="M37.4215 92.6764C37.6518 92.4899 38.1922 92.2205 38.6785 92.0493C39.0574 91.9162 39.2564 91.5012 39.1231 91.1223C38.9899 90.7437 38.5748 90.5447 38.1961 90.6778C37.6932 90.8548 36.9491 91.1883 36.507 91.5462C35.8284 92.095 35.3021 92.7763 34.9768 93.5149C34.1868 93.6789 33.4106 94.0517 32.7322 94.6006C31.572 95.5394 30.8626 96.8706 30.8342 98.1617C30.8252 98.563 31.1435 98.8956 31.5449 98.9043C31.5506 98.9045 31.556 98.9045 31.5613 98.9045C31.9554 98.9045 32.2791 98.5893 32.2879 98.1936C32.3066 97.3377 32.8273 96.394 33.6467 95.7309C33.9482 95.487 34.2727 95.2909 34.6068 95.1483C34.5973 95.9101 34.8287 96.6107 35.2875 97.1779L35.298 97.1907C36.0891 98.1686 37.4521 98.3817 38.3362 97.6663C38.7744 97.3117 39.0358 96.7682 39.0535 96.1749C39.0702 95.6145 38.8752 95.0537 38.5047 94.5957L38.4938 94.5823C38.0353 94.0157 37.3985 93.6432 36.6513 93.4939C36.8606 93.1969 37.1201 92.9203 37.4215 92.6764ZM37.3636 95.4971L37.3746 95.5103C37.5242 95.6953 37.6064 95.9216 37.6 96.1316C37.5971 96.2312 37.57 96.4159 37.4215 96.5361C37.1651 96.7436 36.7102 96.6246 36.4276 96.2755L36.4171 96.2627C36.126 95.9028 36.0107 95.4198 36.0827 94.8813C36.6241 94.9233 37.0724 95.1371 37.3636 95.4971Z" fill="#FF4C4C"/>
<path d="M24.1369 23.9954C21.7189 24.1874 19.572 25.4902 18.2221 27.5001C17.5417 28.5133 17.1795 29.6641 17.0422 30.868C16.8965 32.1517 17.2891 36.2632 15.4204 36.5321C14.7757 36.6248 14.1416 37.0796 14.173 37.7797C14.2019 38.4238 14.7226 39.0664 15.4204 39.0273C16.7692 38.9512 17.8489 38.1945 18.5646 37.0719C19.2895 35.9342 19.4572 34.592 19.4728 33.271C19.4879 31.9955 19.4749 30.8187 19.9007 29.6014C20.6274 27.9919 22.1935 26.7897 23.9365 26.504C24.6482 26.462 25.4198 26.0648 25.3843 25.243C25.3565 24.6112 24.8337 23.9399 24.1369 23.9954V23.9954Z" fill="#FF4C4C"/>
<path fill-rule="evenodd" clip-rule="evenodd" d="M106.373 93.823L104.908 91.9178L102.703 92.0796L102.468 89.8806L100.59 88.7151L101.692 86.7982L100.857 84.7506L102.875 83.8479L103.403 81.7003L105.567 82.1569L107.274 80.4657L108.738 82.3708L110.944 82.209L111.178 84.4081L113.057 85.5736L111.955 87.4905L112.789 89.538L110.771 90.4407L110.243 92.5883L108.08 92.1318L106.373 93.823ZM108.535 85.1327L108.537 85.1311L109.053 85.7217L105.121 89.1566L104.605 88.566L106.863 86.5938L106.863 86.5908L108.534 85.1311L108.535 85.1327ZM107.116 88.736C107.16 88.0886 107.722 87.5975 108.369 87.6412C109.017 87.6849 109.508 88.247 109.464 88.8944C109.42 89.5417 108.858 90.0328 108.211 89.9892C107.564 89.9455 107.072 89.3833 107.116 88.736ZM107.899 88.7888C107.884 89.0046 108.048 89.192 108.264 89.2065C108.479 89.2211 108.667 89.0574 108.681 88.8416C108.696 88.6258 108.532 88.4384 108.316 88.4239C108.101 88.4093 107.913 88.573 107.899 88.7888ZM105.447 84.2991C104.8 84.2555 104.238 84.7466 104.194 85.3939C104.151 86.0413 104.642 86.6034 105.289 86.6471C105.936 86.6908 106.499 86.1997 106.542 85.5523C106.586 84.905 106.095 84.3428 105.447 84.2991ZM105.342 85.8644C105.126 85.8499 104.962 85.6625 104.977 85.4467C104.991 85.2309 105.179 85.0672 105.395 85.0818C105.61 85.0963 105.774 85.2837 105.76 85.4995C105.745 85.7153 105.558 85.879 105.342 85.8644Z" fill="#FF4C4C"/>
<path fill-rule="evenodd" clip-rule="evenodd" d="M42.8955 37.38L40.4817 34.6433L37.157 35.1138L36.5765 31.806L33.6113 30.2321L35.0852 27.2152L33.6114 24.1982L36.5766 22.6243L37.157 19.3165L40.4817 19.7871L42.8955 17.0503L45.3093 19.7871L48.6339 19.3165L49.2144 22.6243L52.1796 24.1982L50.7057 27.2152L52.1796 30.2321L49.2144 31.806L48.6339 35.1138L45.3093 34.6433L42.8955 37.38ZM39.6682 29.5963L45.2743 23.9902L45.2757 23.9916L45.2769 23.9904L46.1191 24.8326L42.8945 28.0572V28.0541L40.5103 30.4384L39.6682 29.5963ZM43.4902 29.5972C43.4902 28.612 44.2917 27.8105 45.277 27.8105C46.2623 27.8105 47.0638 28.612 47.0638 29.5972C47.0638 30.5825 46.2623 31.384 45.277 31.384C44.2917 31.384 43.4902 30.5825 43.4902 29.5972ZM44.6814 29.5972C44.6814 29.9257 44.9486 30.1928 45.277 30.1928C45.6054 30.1928 45.8726 29.9257 45.8726 29.5972C45.8726 29.2688 45.6054 29.0017 45.277 29.0017C44.9486 29.0017 44.6814 29.2688 44.6814 29.5972ZM40.5114 23.0454C39.5261 23.0454 38.7246 23.847 38.7246 24.8322C38.7246 25.8175 39.5261 26.619 40.5114 26.619C41.4967 26.619 42.2982 25.8175 42.2982 24.8322C42.2982 23.847 41.4967 23.0454 40.5114 23.0454ZM40.5114 25.4278C40.183 25.4278 39.9158 25.1606 39.9158 24.8322C39.9158 24.5038 40.183 24.2366 40.5114 24.2366C40.8398 24.2366 41.107 24.5038 41.107 24.8322C41.107 25.1606 40.8398 25.4278 40.5114 25.4278Z" fill="#FF4C4C"/>
<g clip-path="url(#clip1_1312_18414)">
<path d="M99.5893 16.9227L99.4556 16.5722C99.3788 16.3713 99.2602 16.1889 99.1078 16.0371C98.9553 15.8853 98.7725 15.7675 98.5712 15.6915C98.3699 15.6155 98.1549 15.583 97.9401 15.5962C97.7254 15.6094 97.5159 15.6679 97.3254 15.7679C97.179 15.8447 97.0095 15.8649 96.8491 15.8246C96.6888 15.7844 96.5489 15.6865 96.4561 15.5497C96.4043 15.4735 96.3688 15.3876 96.3516 15.2971C96.3345 15.2067 96.3361 15.1137 96.3564 15.0239C96.3767 14.9341 96.4152 14.8494 96.4696 14.7751C96.524 14.7009 96.5931 14.6386 96.6726 14.5921L96.8966 14.4608C97.3073 14.2199 97.7724 14.087 98.2485 14.0745C98.7245 14.062 99.1959 14.1703 99.6187 14.3893C100.022 14.5984 100.369 14.9019 100.63 15.274L104.05 20.1531C104.091 20.2104 104.113 20.2787 104.113 20.3488C104.113 20.4189 104.092 20.4875 104.052 20.5451C104.012 20.6028 103.956 20.6468 103.89 20.6712C103.824 20.6956 103.752 20.6992 103.685 20.6815L103.635 20.6688L99.5893 16.9227Z" fill="#FF4C4C"/>
<path d="M100.281 16.457C100.086 15.8887 99.6887 15.412 99.1649 15.1174C99.1426 15.1051 99.1204 15.0935 99.0982 15.0832C98.6754 14.8642 98.204 14.7559 97.7279 14.7683C97.2519 14.7807 96.7868 14.9136 96.376 15.1544L96.3418 15.1749C96.3412 15.3097 96.3813 15.4416 96.4571 15.5531C96.5499 15.69 96.6899 15.7878 96.8503 15.828C97.0107 15.8682 97.1803 15.8479 97.3267 15.771C97.5172 15.671 97.7267 15.6125 97.9414 15.5993C98.1562 15.5861 98.3712 15.6186 98.5725 15.6946C98.7738 15.7706 98.9566 15.8884 99.1091 16.0402C99.2615 16.192 99.3801 16.3744 99.4569 16.5753L99.5906 16.9258L100.759 17.8211L100.281 16.457Z" fill="#FF4C4C"/>
<path d="M100.108 16.4785C99.8477 16.1063 99.5011 15.8027 99.0979 15.5934C98.6751 15.3745 98.2036 15.2663 97.7276 15.2788C97.2516 15.2913 96.7866 15.4241 96.3758 15.6649L96.1511 15.7966C96.0719 15.8431 96.003 15.9053 95.9488 15.9795C95.8946 16.0536 95.8562 16.1381 95.836 16.2277C95.8157 16.3172 95.814 16.41 95.8311 16.5003C95.8481 16.5905 95.8834 16.6764 95.9349 16.7524C96.0279 16.889 96.1677 16.9866 96.328 17.0267C96.4882 17.0668 96.6576 17.0466 96.8039 16.9699C96.9944 16.8699 97.2038 16.8113 97.4186 16.7981C97.6333 16.7849 97.8484 16.8174 98.0496 16.8934C98.2509 16.9694 98.4337 17.0872 98.5861 17.2391C98.7385 17.3909 98.857 17.5733 98.9338 17.7742L99.0678 18.1248C99.2303 18.5508 99.2299 19.0217 99.0669 19.4475C98.9038 19.8732 98.5896 20.2239 98.1842 20.4325L96.1877 21.4393C96.0667 21.5014 95.9672 21.5984 95.9019 21.7177C95.8366 21.837 95.8086 21.9731 95.8214 22.1085C95.8577 22.4912 96.2253 22.7679 96.608 22.72L98.7676 22.4464C99.1549 22.3976 99.5483 22.4443 99.9134 22.5826C100.278 22.7209 100.604 22.9466 100.862 23.2398L101.585 24.063L103.646 26.5611C103.663 26.5818 103.686 26.597 103.711 26.605C103.737 26.613 103.764 26.6134 103.789 26.6061C103.815 26.5989 103.838 26.5843 103.856 26.5641C103.873 26.544 103.884 26.5192 103.888 26.4928L104.567 21.0463C104.578 20.962 104.557 20.8766 104.508 20.8069L103.819 19.8251L100.108 16.4785Z" fill="#FF4C4C"/>
<path d="M93.3806 13.1764C93.3324 13.1764 93.2851 13.1629 93.2442 13.1373C93.2033 13.1117 93.1705 13.0751 93.1494 13.0317L92.502 11.698C92.4867 11.6676 92.4776 11.6345 92.4752 11.6005C92.4729 11.5666 92.4772 11.5325 92.4882 11.5002C92.4991 11.468 92.5163 11.4382 92.5388 11.4127C92.5613 11.3872 92.5886 11.3663 92.6193 11.3515C92.6499 11.3366 92.6831 11.328 92.7171 11.3261C92.7511 11.3242 92.7851 11.3291 92.8172 11.3404C92.8493 11.3518 92.8788 11.3694 92.904 11.3923C92.9292 11.4152 92.9496 11.4428 92.9641 11.4737L93.6114 12.8074C93.6303 12.8465 93.639 12.8898 93.6366 12.9333C93.6343 12.9767 93.6209 13.0188 93.5979 13.0556C93.5748 13.0925 93.5428 13.1229 93.5048 13.144C93.4668 13.1651 93.4241 13.1763 93.3806 13.1764V13.1764Z" fill="#FF4C4C"/>
<path d="M95.8138 12.6629C95.7457 12.6629 95.6804 12.6358 95.6322 12.5877C95.584 12.5395 95.557 12.4742 95.557 12.4061V11.0723C95.5552 11.0375 95.5605 11.0027 95.5726 10.97C95.5846 10.9374 95.6032 10.9075 95.6272 10.8822C95.6512 10.857 95.6801 10.8368 95.7121 10.8231C95.7441 10.8093 95.7786 10.8022 95.8135 10.8022C95.8483 10.8022 95.8828 10.8093 95.9148 10.8231C95.9468 10.8368 95.9757 10.857 95.9997 10.8822C96.0237 10.9075 96.0423 10.9374 96.0544 10.97C96.0665 11.0027 96.0718 11.0375 96.07 11.0723V12.4061C96.07 12.4741 96.043 12.5393 95.995 12.5874C95.947 12.6356 95.8818 12.6627 95.8138 12.6629V12.6629Z" fill="#FF4C4C"/>
<path d="M98.2486 13.1764C98.2051 13.1763 98.1624 13.1651 98.1244 13.144C98.0864 13.1229 98.0544 13.0925 98.0313 13.0556C98.0083 13.0188 97.9949 12.9767 97.9926 12.9332C97.9902 12.8898 97.9989 12.8465 98.0178 12.8074L98.6651 11.4737C98.68 11.4433 98.7006 11.4161 98.7259 11.3937C98.7513 11.3713 98.7807 11.3541 98.8127 11.3431C98.8447 11.3321 98.8785 11.3275 98.9122 11.3296C98.946 11.3316 98.979 11.3403 99.0094 11.3552C99.0397 11.37 99.0669 11.3906 99.0893 11.416C99.1117 11.4413 99.1289 11.4708 99.1399 11.5027C99.1509 11.5347 99.1555 11.5685 99.1534 11.6022C99.1514 11.636 99.1427 11.669 99.1278 11.6994L98.4805 13.0331C98.4592 13.0763 98.4261 13.1127 98.3851 13.138C98.3441 13.1634 98.2968 13.1767 98.2486 13.1764V13.1764Z" fill="#FF4C4C"/>
<path d="M101.028 14.0502C100.989 14.0503 100.951 14.0414 100.916 14.0243C100.855 13.9946 100.808 13.9419 100.786 13.8778C100.763 13.8137 100.767 13.7434 100.797 13.6823L101.155 12.9446C101.17 12.9138 101.19 12.8861 101.215 12.8633C101.241 12.8404 101.27 12.8228 101.302 12.8114C101.334 12.8 101.368 12.7951 101.402 12.797C101.436 12.7989 101.469 12.8076 101.5 12.8224C101.531 12.8373 101.558 12.8581 101.581 12.8836C101.603 12.9092 101.62 12.9389 101.631 12.9712C101.642 13.0034 101.646 13.0375 101.644 13.0715C101.642 13.1054 101.633 13.1386 101.617 13.169L101.259 13.9056C101.238 13.949 101.205 13.9855 101.164 14.0111C101.123 14.0367 101.076 14.0503 101.028 14.0502V14.0502Z" fill="#FF4C4C"/>
<path d="M90.6014 14.0503C90.5532 14.0503 90.5059 14.0367 90.465 14.0111C90.4242 13.9856 90.3913 13.949 90.3702 13.9056L90.0118 13.168C89.9965 13.1376 89.9874 13.1044 89.985 13.0705C89.9826 13.0365 89.987 13.0024 89.9979 12.9702C90.0088 12.9379 90.026 12.9082 90.0485 12.8827C90.071 12.8571 90.0984 12.8363 90.129 12.8215C90.1596 12.8066 90.1929 12.7979 90.2269 12.7961C90.2609 12.7942 90.2949 12.799 90.327 12.8104C90.3591 12.8218 90.3886 12.8394 90.4138 12.8623C90.439 12.8852 90.4594 12.9128 90.4738 12.9436L90.8322 13.6813C90.8617 13.7424 90.8658 13.8127 90.8435 13.8768C90.8213 13.9409 90.7745 13.9936 90.7136 14.0233C90.6787 14.0408 90.6404 14.05 90.6014 14.0503V14.0503Z" fill="#FF4C4C"/>
<path d="M92.0412 16.9227L92.1749 16.5722C92.2517 16.3713 92.3703 16.1889 92.5227 16.0371C92.6752 15.8853 92.8581 15.7675 93.0593 15.6915C93.2606 15.6155 93.4757 15.583 93.6904 15.5962C93.9051 15.6094 94.1146 15.6679 94.3051 15.7679C94.4515 15.8447 94.621 15.8649 94.7814 15.8246C94.9417 15.7844 95.0816 15.6865 95.1744 15.5497C95.2262 15.4735 95.2617 15.3876 95.2789 15.2971C95.2961 15.2067 95.2944 15.1137 95.2741 15.0239C95.2538 14.9341 95.2153 14.8494 95.1609 14.7751C95.1065 14.7009 95.0374 14.6386 94.9579 14.5921L94.7339 14.4608C94.3232 14.2199 93.8581 14.087 93.3821 14.0745C92.906 14.062 92.4346 14.1703 92.0118 14.3893C91.6082 14.5984 91.2611 14.9019 91.0002 15.274L87.5803 20.1531C87.5399 20.2104 87.5179 20.2787 87.5176 20.3488C87.5172 20.4189 87.5384 20.4875 87.5783 20.5451C87.6182 20.6028 87.6749 20.6468 87.7407 20.6712C87.8064 20.6956 87.8781 20.6992 87.9459 20.6815L87.9952 20.6688L92.0412 16.9227Z" fill="#FF4C4C"/>
<path d="M91.3505 16.457C91.5458 15.8887 91.9432 15.412 92.467 15.1174C92.4893 15.1051 92.5115 15.0935 92.5337 15.0832C92.9565 14.8642 93.4279 14.7559 93.904 14.7683C94.38 14.7807 94.8451 14.9136 95.2559 15.1544L95.2901 15.1749C95.2907 15.3097 95.2506 15.4416 95.1748 15.5531C95.082 15.69 94.942 15.7878 94.7816 15.828C94.6212 15.8682 94.4516 15.8479 94.3052 15.771C94.1147 15.671 93.9052 15.6125 93.6905 15.5993C93.4757 15.5861 93.2607 15.6186 93.0594 15.6946C92.8581 15.7706 92.6753 15.8884 92.5228 16.0402C92.3704 16.192 92.2518 16.3744 92.175 16.5753L92.0413 16.9258L90.873 17.8181L91.3505 16.457Z" fill="#FF4C4C"/>
<path d="M91.5221 16.4785C91.7825 16.1063 92.1291 15.8027 92.5323 15.5934C92.9551 15.3745 93.4266 15.2663 93.9026 15.2788C94.3786 15.2913 94.8436 15.4241 95.2545 15.6649L95.4791 15.7966C95.5583 15.8431 95.6272 15.9053 95.6814 15.9795C95.7356 16.0536 95.774 16.1381 95.7942 16.2277C95.8145 16.3172 95.8162 16.41 95.7991 16.5003C95.7821 16.5905 95.7468 16.6764 95.6953 16.7524C95.6024 16.889 95.4625 16.9866 95.3022 17.0267C95.142 17.0668 94.9726 17.0466 94.8263 16.9699C94.6358 16.8699 94.4264 16.8113 94.2116 16.7981C93.9969 16.7849 93.7818 16.8174 93.5806 16.8934C93.3793 16.9694 93.1965 17.0872 93.0441 17.2391C92.8917 17.3909 92.7732 17.5733 92.6964 17.7742L92.5624 18.1248C92.3999 18.5508 92.4003 19.0217 92.5633 19.4475C92.7264 19.8732 93.0406 20.2239 93.446 20.4325L95.4425 21.4386C95.5635 21.5007 95.663 21.5977 95.7283 21.717C95.7936 21.8363 95.8217 21.9725 95.8088 22.1078C95.7726 22.4905 95.4049 22.7672 95.0222 22.7193L92.8626 22.4457C92.4753 22.3969 92.0819 22.4436 91.7168 22.582C91.3517 22.7203 91.0261 22.9459 90.7683 23.2391L90.0461 24.0616L87.9839 26.5611C87.967 26.5818 87.9445 26.597 87.919 26.605C87.8936 26.613 87.8664 26.6134 87.8407 26.6061C87.8151 26.5989 87.7921 26.5843 87.7747 26.5641C87.7572 26.544 87.746 26.5192 87.7425 26.4928L87.0633 21.0446C87.0525 20.9602 87.0736 20.8749 87.1224 20.8052L87.8129 19.8237L91.5221 16.4785Z" fill="#FF4C4C"/>
</g>
<g clip-path="url(#clip2_1312_18414)">
<path d="M12.7538 88.6938L12.9205 88.3577C13.0159 88.1648 13.0694 87.954 13.0774 87.739C13.0854 87.524 13.0477 87.3098 12.9669 87.1104C12.8861 86.911 12.764 86.731 12.6086 86.5823C12.4532 86.4335 12.268 86.3194 12.0653 86.2474C11.9095 86.192 11.7796 86.0812 11.7003 85.9361C11.621 85.7911 11.5979 85.6219 11.6355 85.4609C11.6562 85.3712 11.6952 85.2867 11.75 85.2127C11.8048 85.1387 11.8742 85.0768 11.9539 85.0308C12.0336 84.9847 12.122 84.9556 12.2134 84.9451C12.3049 84.9346 12.3975 84.9431 12.4856 84.9699L12.7341 85.0453C13.1898 85.1834 13.6031 85.4347 13.9354 85.7758C14.2677 86.1169 14.5081 86.5366 14.6342 86.9958C14.7547 87.4341 14.7673 87.895 14.6712 88.3392L13.4093 94.1623C13.3948 94.2309 13.3595 94.2934 13.3082 94.3412C13.257 94.3891 13.1922 94.42 13.1228 94.4299C13.0534 94.4397 12.9826 94.428 12.92 94.3962C12.8575 94.3645 12.8062 94.3143 12.7732 94.2524L12.749 94.2077L12.7538 88.6938Z" fill="#FF4C4C"/>
<path d="M13.566 88.8855C13.8508 88.3562 13.9311 87.7409 13.7919 87.1563C13.7858 87.1316 13.7793 87.1074 13.7717 87.0841C13.6456 86.6249 13.4052 86.2052 13.0729 85.864C12.7407 85.5229 12.3275 85.2715 11.8718 85.1333L11.8335 85.1221C11.7341 85.2131 11.6645 85.3321 11.634 85.4634C11.5965 85.6245 11.6196 85.7938 11.699 85.9388C11.7784 86.0839 11.9084 86.1947 12.0643 86.25C12.267 86.322 12.4522 86.4361 12.6076 86.5849C12.763 86.7336 12.8851 86.9136 12.9659 87.113C13.0467 87.3124 13.0844 87.5266 13.0764 87.7416C13.0684 87.9566 13.0149 88.1674 12.9195 88.3603L12.7528 88.6964L12.8885 90.1622L13.566 88.8855Z" fill="#FF4C4C"/>
<path d="M13.4343 88.7738C13.5308 88.33 13.5186 87.8693 13.3986 87.4312C13.2723 86.9721 13.0318 86.5525 12.6995 86.2114C12.3673 85.8703 11.954 85.6189 11.4984 85.4806L11.2492 85.405C11.1613 85.3784 11.0689 85.3701 10.9776 85.3806C10.8864 85.3912 10.7983 85.4203 10.7187 85.4662C10.6392 85.5122 10.5699 85.5739 10.5152 85.6477C10.4605 85.7214 10.4214 85.8056 10.4005 85.8951C10.3633 86.056 10.3866 86.225 10.4659 86.3699C10.5452 86.5148 10.675 86.6255 10.8306 86.6809C11.0334 86.7528 11.2186 86.8669 11.374 87.0156C11.5294 87.1644 11.6515 87.3444 11.7323 87.5437C11.8131 87.7431 11.8507 87.9574 11.8427 88.1723C11.8346 88.3873 11.7811 88.5981 11.6856 88.7909L11.5192 89.1273C11.3166 89.5357 10.9705 89.8551 10.5472 90.0243C10.1239 90.1936 9.653 90.2008 9.22468 90.0447L7.13019 89.2619C7.00245 89.2152 6.86365 89.208 6.73173 89.241C6.5998 89.274 6.48081 89.3458 6.39011 89.4472C6.13369 89.7335 6.18004 90.1913 6.47494 90.4398L8.1417 91.8401C8.44048 92.0914 8.67316 92.412 8.81939 92.774C8.96563 93.136 9.02096 93.5283 8.98056 93.9166L8.867 95.0065L8.43141 98.2158C8.42771 98.2422 8.43182 98.2691 8.44321 98.2932C8.4546 98.3173 8.47279 98.3375 8.49553 98.3514C8.51828 98.3653 8.54459 98.3723 8.57124 98.3714C8.59788 98.3706 8.6237 98.362 8.64551 98.3466L13.1064 95.1489C13.1757 95.0995 13.224 95.0261 13.2421 94.943L13.4956 93.7707L13.4343 88.7738Z" fill="#FF4C4C"/>
<path d="M11.2968 81.5941C11.2641 81.5587 11.242 81.5148 11.233 81.4674C11.224 81.42 11.2286 81.3711 11.2462 81.3262L11.7862 79.9455C11.7982 79.9136 11.8163 79.8844 11.8396 79.8596C11.8629 79.8348 11.891 79.8149 11.922 79.801C11.9531 79.7871 11.9866 79.7796 12.0207 79.7788C12.0547 79.778 12.0885 79.7839 12.1203 79.7963C12.152 79.8087 12.1809 79.8273 12.2053 79.851C12.2298 79.8746 12.2493 79.9029 12.2627 79.9342C12.2762 79.9655 12.2832 79.9991 12.2835 80.0332C12.2839 80.0672 12.2774 80.101 12.2646 80.1325L11.7245 81.5132C11.7086 81.5536 11.6827 81.5894 11.6492 81.6171C11.6157 81.6448 11.5757 81.6636 11.533 81.6717C11.4903 81.6798 11.4462 81.6769 11.4049 81.6633C11.3636 81.6498 11.3264 81.6259 11.2968 81.5941V81.5941Z" fill="#FF4C4C"/>
<path d="M13.3257 83.0333C13.2795 82.9833 13.255 82.917 13.2577 82.8489C13.2604 82.7808 13.29 82.7166 13.34 82.6704L14.3195 81.7651C14.3438 81.7402 14.373 81.7204 14.4052 81.7071C14.4374 81.6938 14.4719 81.6872 14.5068 81.6877C14.5416 81.6881 14.576 81.6957 14.6078 81.7099C14.6396 81.7241 14.6683 81.7446 14.6919 81.7702C14.7156 81.7957 14.7337 81.8259 14.7454 81.8587C14.757 81.8916 14.7618 81.9264 14.7596 81.9612C14.7573 81.996 14.748 82.0299 14.7322 82.061C14.7164 82.092 14.6944 82.1195 14.6677 82.1418L13.6882 83.0471C13.6383 83.0932 13.5721 83.1177 13.5041 83.1151C13.4362 83.1125 13.372 83.0831 13.3257 83.0333V83.0333Z" fill="#FF4C4C"/>
<path d="M14.6007 85.1699C14.5712 85.1379 14.5504 85.099 14.5401 85.0567C14.5299 85.0145 14.5305 84.9703 14.5419 84.9284C14.5533 84.8865 14.5752 84.8481 14.6054 84.8169C14.6357 84.7857 14.6734 84.7627 14.715 84.75L16.1338 84.3201C16.1662 84.3104 16.2002 84.3071 16.2338 84.3105C16.2674 84.3139 16.3001 84.3239 16.3298 84.3399C16.3596 84.3559 16.3859 84.3776 16.4073 84.4038C16.4287 84.4299 16.4447 84.4601 16.4545 84.4924C16.4642 84.5248 16.4675 84.5588 16.4641 84.5924C16.4607 84.6261 16.4507 84.6587 16.4347 84.6885C16.4187 84.7182 16.397 84.7446 16.3708 84.766C16.3446 84.7873 16.3145 84.8034 16.2821 84.8131L14.8633 85.243C14.8171 85.2567 14.7679 85.2571 14.7215 85.2442C14.675 85.2312 14.6332 85.2055 14.6007 85.1699V85.1699Z" fill="#FF4C4C"/>
<path d="M15.8451 87.8035C15.8187 87.775 15.7993 87.7409 15.7883 87.7037C15.7686 87.6387 15.7755 87.5686 15.8075 87.5087C15.8394 87.4489 15.8938 87.4041 15.9586 87.3842L16.7436 87.1467C16.7761 87.1364 16.8102 87.1326 16.8441 87.1356C16.878 87.1386 16.911 87.1483 16.9411 87.1641C16.9713 87.1799 16.9979 87.2016 17.0196 87.2279C17.0413 87.2541 17.0575 87.2844 17.0674 87.317C17.0773 87.3496 17.0805 87.3838 17.0771 87.4176C17.0736 87.4515 17.0634 87.4843 17.0471 87.5142C17.0309 87.5441 17.0088 87.5705 16.9823 87.5918C16.9557 87.6131 16.9252 87.6289 16.8925 87.6383L16.1082 87.8751C16.0621 87.889 16.0129 87.8897 15.9664 87.8771C15.9199 87.8644 15.8778 87.8389 15.8451 87.8035V87.8035Z" fill="#FF4C4C"/>
<path d="M8.76696 80.1467C8.73424 80.1113 8.71214 80.0674 8.70318 80.02C8.69422 79.9727 8.69876 79.9237 8.71628 79.8788L9.01473 79.1149C9.02667 79.083 9.04482 79.0538 9.06814 79.029C9.09145 79.0042 9.11947 78.9843 9.15055 78.9705C9.18163 78.9566 9.21516 78.949 9.24919 78.9482C9.28322 78.9474 9.31707 78.9534 9.34877 78.9658C9.38047 78.9782 9.40939 78.9967 9.43385 79.0204C9.45831 79.0441 9.47782 79.0724 9.49125 79.1037C9.50468 79.1349 9.51175 79.1686 9.51207 79.2026C9.51238 79.2366 9.50592 79.2704 9.49307 79.3019L9.19462 80.0658C9.16975 80.1289 9.12088 80.1796 9.05872 80.2068C8.99655 80.234 8.92616 80.2354 8.86294 80.2108C8.82645 80.1971 8.79361 80.1752 8.76696 80.1467V80.1467Z" fill="#FF4C4C"/>
<path d="M7.6323 83.1509L7.98047 83.0112C8.1802 82.9313 8.39459 82.8945 8.60954 82.9034C8.82449 82.9124 9.0351 82.9667 9.22752 83.0629C9.41993 83.1592 9.58978 83.2951 9.72586 83.4617C9.86195 83.6283 9.96119 83.8219 10.017 84.0296C10.06 84.1893 10.1602 84.3275 10.2986 84.4179C10.437 84.5084 10.6039 84.5447 10.7673 84.5199C10.8584 84.5063 10.9456 84.474 11.0237 84.4252C11.1018 84.3764 11.169 84.3121 11.2211 84.2363C11.2733 84.1604 11.3093 84.0746 11.3269 83.9843C11.3446 83.8939 11.3434 83.8009 11.3236 83.711L11.268 83.4574C11.1661 82.9922 10.948 82.5604 10.6341 82.2024C10.3202 81.8443 9.92064 81.5716 9.47279 81.4098C9.04534 81.2553 8.58688 81.2064 8.13647 81.2674L2.23223 82.0677C2.1627 82.0768 2.09765 82.1071 2.0459 82.1544C1.99416 82.2017 1.95822 82.2638 1.94295 82.3323C1.92768 82.4007 1.93383 82.4722 1.96055 82.537C1.98728 82.6019 2.03329 82.6569 2.09235 82.6948L2.13507 82.7223L7.6323 83.1509Z" fill="#FF4C4C"/>
<path d="M7.50705 82.3273C8.05701 82.085 8.6768 82.0533 9.24865 82.238C9.27277 82.246 9.2964 82.2544 9.31902 82.2638C9.76686 82.4256 10.1664 82.6983 10.4804 83.0563C10.7943 83.4143 11.0125 83.846 11.1145 84.3112L11.1226 84.3502C11.024 84.4422 10.8999 84.5022 10.7666 84.5223C10.6031 84.547 10.4362 84.5106 10.2978 84.4201C10.1594 84.3296 10.0592 84.1912 10.0164 84.0315C9.96051 83.8237 9.86127 83.6302 9.72519 83.4636C9.5891 83.2969 9.41926 83.161 9.22684 83.0648C9.03443 82.9686 8.82381 82.9142 8.60886 82.9053C8.39392 82.8964 8.17952 82.9331 7.9798 83.0131L7.63162 83.1528L6.18347 82.9005L7.50705 82.3273Z" fill="#FF4C4C"/>
<path d="M7.60552 82.468C8.0556 82.4067 8.51384 82.4551 8.94116 82.6092C9.38892 82.7712 9.78838 83.0439 10.1023 83.4019C10.4162 83.76 10.6343 84.1917 10.7364 84.6568L10.7922 84.9111C10.8118 85.0009 10.8128 85.0937 10.7951 85.1838C10.7775 85.2739 10.7415 85.3595 10.6895 85.4352C10.6374 85.5108 10.5704 85.575 10.4926 85.6238C10.4147 85.6726 10.3277 85.7048 10.2369 85.7186C10.0736 85.7431 9.90691 85.7066 9.76869 85.6162C9.63048 85.5257 9.53035 85.3876 9.48738 85.2281C9.43159 85.0204 9.3324 84.8268 9.19634 84.6601C9.06027 84.4935 8.89044 84.3576 8.69803 84.2614C8.50561 84.1652 8.29499 84.1109 8.08005 84.102C7.86511 84.0931 7.65073 84.1299 7.45105 84.21L7.10264 84.3494C6.67956 84.5193 6.33396 84.8392 6.13196 85.2479C5.92995 85.6566 5.88573 86.1255 6.00774 86.5647L6.624 88.7138C6.66045 88.8448 6.6568 88.9838 6.6135 89.1127C6.57021 89.2416 6.48926 89.3546 6.38112 89.437C6.07549 89.6702 5.62278 89.588 5.3982 89.2744L4.13327 87.5028C3.90624 87.1852 3.60487 86.928 3.2555 86.7538C2.90613 86.5796 2.51939 86.4936 2.12911 86.5033L1.03488 86.5312L-2.2004 86.7133C-2.22701 86.715 -2.25351 86.7088 -2.27665 86.6955C-2.29978 86.6822 -2.31853 86.6625 -2.3306 86.6388C-2.34268 86.615 -2.34754 86.5882 -2.3446 86.5617C-2.34166 86.5352 -2.33104 86.5102 -2.31405 86.4896L1.22589 82.2929C1.28057 82.2278 1.35756 82.1853 1.44184 82.1739L2.63127 82.0148L7.60552 82.468Z" fill="#FF4C4C"/>
</g>
<g clip-path="url(#clip3_1312_18414)">
<path d="M18.1615 57.551C18.1428 57.2382 17.8834 56.9944 17.5701 56.995H15.2042V55.2206C15.2042 53.5872 13.8801 52.2632 12.2468 52.2632C10.6134 52.2632 9.28938 53.5872 9.28938 55.2206V56.995H6.92347C6.61017 56.9944 6.35077 57.2382 6.332 57.551L5.81149 66.9496C5.75597 67.928 6.50412 68.7662 7.48253 68.8217C7.51695 68.8237 7.55144 68.8246 7.58593 68.8246H16.9135C17.8935 68.8261 18.6892 68.033 18.6908 67.053C18.6909 67.0185 18.6899 66.984 18.688 66.9496L18.1615 57.551ZM10.4723 55.2206C10.4723 54.2406 11.2668 53.4461 12.2468 53.4461C13.2268 53.4461 14.0212 54.2406 14.0212 55.2206V56.995H10.4723V55.2206Z" fill="#FF4C4C"/>
</g>
<g clip-path="url(#clip4_1312_18414)">
<path d="M31.1655 51.9437C31.16 51.8524 31.0843 51.7813 30.993 51.7815H30.3029V51.2639C30.3029 50.7876 29.9167 50.4014 29.4403 50.4014C28.9639 50.4014 28.5777 50.7876 28.5777 51.2639V51.7815H27.8877C27.7963 51.7813 27.7206 51.8524 27.7152 51.9437L27.5633 54.6849C27.5472 54.9703 27.7654 55.2148 28.0507 55.231C28.0608 55.2316 28.0708 55.2318 28.0809 55.2318H30.8015C31.0873 55.2323 31.3194 55.0009 31.3199 54.7151C31.3199 54.705 31.3196 54.695 31.319 54.6849L31.1655 51.9437ZM28.9228 51.2639C28.9228 50.9781 29.1545 50.7464 29.4403 50.7464C29.7262 50.7464 29.9579 50.9781 29.9579 51.2639V51.7815H28.9228V51.2639Z" fill="#FF4C4C"/>
</g>
<g clip-path="url(#clip5_1312_18414)">
<path d="M67.1523 90.5974C67.1354 90.3176 66.9034 90.0994 66.623 90.0999H64.5062V88.5123C64.5062 87.0509 63.3215 85.8662 61.8601 85.8662C60.3987 85.8662 59.214 87.0509 59.214 88.5123V90.0999H57.0971C56.8168 90.0994 56.5847 90.3176 56.5679 90.5974L56.1022 99.0067C56.0525 99.8821 56.7219 100.632 57.5973 100.682C57.6281 100.683 57.659 100.684 57.6899 100.684H66.0356C66.9125 100.686 67.6244 99.976 67.6258 99.0992C67.6259 99.0683 67.625 99.0375 67.6233 99.0067L67.1523 90.5974ZM60.2724 88.5123C60.2724 87.6354 60.9832 86.9246 61.8601 86.9246C62.7369 86.9246 63.4477 87.6354 63.4477 88.5123V90.0999H60.2724V88.5123Z" fill="#FF4C4C"/>
</g>
<path d="M87.0029 89.1398C87.6512 89.1398 88.2728 88.5692 88.2426 87.8996C88.2126 87.2282 87.698 86.6599 87.0029 86.6599C86.3541 86.6599 85.733 87.23 85.7627 87.8996C85.793 88.5715 86.3079 89.1398 87.0029 89.1398V89.1398Z" fill="#FF4C4C"/>
<path d="M82.6316 90.2477C83.2801 90.2477 83.9015 89.6776 83.8715 89.008C83.8416 88.3361 83.3269 87.7683 82.6316 87.7683C81.9831 87.7683 81.3617 88.3384 81.3917 89.008C81.4219 89.6799 81.9366 90.2477 82.6316 90.2477V90.2477Z" fill="#FF4C4C"/>
<path d="M85.895 93.5116C86.5438 93.5116 87.1649 92.9415 87.1352 92.2719C87.105 91.6 86.5901 91.032 85.895 91.032C85.2467 91.032 84.6251 91.602 84.6554 92.2719C84.6853 92.9436 85.2 93.5116 85.895 93.5116V93.5116Z" fill="#FF4C4C"/>
<g clip-path="url(#clip6_1312_18414)">
<path d="M45.9328 67.9956C45.2242 67.2583 43.9836 67.1666 43.1738 67.7815L43.1525 67.7677L41.3198 69.6004C40.918 70.001 40.6977 70.5355 40.6977 71.1038C40.6735 72.2483 41.6812 73.2538 42.8245 73.2306C43.4901 73.2414 44.0828 72.9087 44.517 72.4195L45.9328 71.0037C46.2294 70.707 46.4285 70.3377 46.5111 69.9359C46.6594 69.2409 46.4401 68.4955 45.9328 67.9956V67.9956Z" fill="white"/>
<path d="M40.8321 61.7679C40.0026 60.9382 38.6546 60.9391 37.824 61.7679C37.631 61.962 36.4408 63.1514 36.2205 63.3728C34.3073 65.449 37.1499 68.2927 39.2273 66.3809C39.2273 66.3809 40.6191 64.989 40.8321 64.776C41.6622 63.9473 41.6622 62.5979 40.8321 61.7679V61.7679Z" fill="white"/>
<path d="M50.2767 72.8452C49.7084 72.8452 49.1739 73.0668 48.772 73.4686L47.1672 75.0735C47.1597 75.081 47.1522 75.0885 47.1447 75.0972C46.3405 75.8918 46.3526 77.2987 47.1672 78.0816C47.9972 78.9103 49.3466 78.9103 50.1753 78.0816L51.7814 76.4755C53.1116 75.1487 52.1554 72.8381 50.2767 72.8452Z" fill="white"/>
<path d="M64.5501 49.2406C61.2666 51.3111 56.864 50.918 54.0062 48.0601L50.2858 44.341L54.9287 39.698C49.9419 34.1018 41.173 33.7468 35.8648 39.091C30.5279 44.3917 30.87 53.1502 36.4544 58.1385C40.5213 55.8655 45.5224 59.0404 45.1933 63.6715C47.8862 63.9626 50.166 66.4034 50.2894 69.0969C52.8217 69.0427 55.3371 70.9392 55.9538 73.4407C58.062 72.8756 60.4248 73.5756 61.8686 75.2458L61.9112 75.1957C64.0044 76.4524 66.2188 73.8712 64.6401 71.9911L64.6439 71.9861C64.6114 71.9548 56.1904 63.5338 56.1904 63.5338C56.8521 62.8721 58.1839 61.5403 58.8455 60.8788L67.2026 69.2358C69.2787 71.1486 72.1231 68.3041 70.2094 66.2277L61.8536 57.8707C62.5153 57.209 63.8471 55.8772 64.5087 55.2156C66.3869 57.0937 70.9435 61.6505 72.8658 63.5727C73.6572 64.3971 75.0824 64.3967 75.8739 63.5727C76.7026 62.7427 76.7026 61.3933 75.8739 60.5646L64.5501 49.2406Z" fill="white"/>
<path d="M79.3012 39.089C74.2126 34.0016 65.9331 34.0016 60.8445 39.089C59.8551 40.079 56.5302 43.4047 55.5957 44.339L56.6597 45.4031C58.5099 47.2532 61.5193 47.2532 63.3682 45.4031L64.6964 44.0749C65.4025 44.7888 78.3648 57.729 78.7291 58.1189C84.3002 53.1287 84.6303 44.3827 79.3012 39.089V39.089Z" fill="white"/>
<path d="M58.9548 77.623C58.1247 76.7941 56.7763 76.7931 55.9467 77.623L54.3419 79.2278C53.5161 80.0194 53.5164 81.4441 54.3419 82.2359C55.1346 83.0598 56.5577 83.0593 57.35 82.2359L58.9548 80.6311C59.7789 79.8404 59.7789 78.4117 58.9548 77.623V77.623Z" fill="white"/>
</g>
</g>
<path d="M177.957 59.0349C178.09 59.0349 178.204 59.0864 178.299 59.1894L179.227 60.205C178.579 60.9703 177.788 61.5627 176.853 61.9822C175.926 62.4017 174.807 62.6114 173.497 62.6114C172.349 62.6114 171.308 62.4127 170.373 62.0153C169.446 61.6179 168.651 61.0623 167.989 60.3485C167.334 59.6346 166.826 58.781 166.466 57.7875C166.105 56.794 165.925 55.7011 165.925 54.5089C165.925 53.3168 166.112 52.2239 166.488 51.2304C166.87 50.2369 167.404 49.3833 168.088 48.6694C168.773 47.9556 169.59 47.3999 170.539 47.0026C171.496 46.6052 172.552 46.4065 173.707 46.4065C174.833 46.4065 175.834 46.5904 176.71 46.9584C177.585 47.3264 178.347 47.8157 178.995 48.4266L178.222 49.5194C178.17 49.6004 178.104 49.6666 178.023 49.7181C177.95 49.7696 177.85 49.7954 177.725 49.7954C177.585 49.7954 177.42 49.7255 177.228 49.5856C177.045 49.4458 176.798 49.2913 176.489 49.122C176.187 48.9454 175.812 48.7872 175.363 48.6473C174.914 48.5075 174.355 48.4376 173.685 48.4376C172.898 48.4376 172.176 48.5774 171.521 48.8571C170.866 49.1294 170.3 49.5268 169.821 50.0493C169.35 50.5644 168.982 51.201 168.718 51.959C168.46 52.7096 168.331 53.5596 168.331 54.5089C168.331 55.473 168.467 56.3303 168.74 57.081C169.012 57.8316 169.387 58.4682 169.866 58.9907C170.344 59.5132 170.907 59.9106 171.555 60.1829C172.202 60.4552 172.901 60.5913 173.652 60.5913C174.108 60.5913 174.517 60.5656 174.877 60.5141C175.245 60.4552 175.58 60.3706 175.882 60.2602C176.191 60.1498 176.482 60.01 176.754 59.8407C177.026 59.6641 177.295 59.4543 177.56 59.2115C177.619 59.16 177.681 59.1195 177.747 59.0901C177.814 59.0533 177.883 59.0349 177.957 59.0349ZM185.712 51.0428C186.536 51.0428 187.279 51.1789 187.942 51.4512C188.611 51.7161 189.178 52.1025 189.642 52.6103C190.113 53.1107 190.473 53.7178 190.723 54.4317C190.974 55.1382 191.099 55.933 191.099 56.8161C191.099 57.6992 190.974 58.4976 190.723 59.2115C190.473 59.9253 190.113 60.5325 189.642 61.0329C189.178 61.5333 188.611 61.9197 187.942 62.192C187.279 62.4569 186.536 62.5894 185.712 62.5894C184.88 62.5894 184.13 62.4569 183.46 62.192C182.798 61.9197 182.231 61.5333 181.76 61.0329C181.289 60.5325 180.925 59.9253 180.667 59.2115C180.417 58.4976 180.292 57.6992 180.292 56.8161C180.292 55.933 180.417 55.1382 180.667 54.4317C180.925 53.7178 181.289 53.1107 181.76 52.6103C182.231 52.1025 182.798 51.7161 183.46 51.4512C184.13 51.1789 184.88 51.0428 185.712 51.0428ZM185.712 60.9115C186.772 60.9115 187.563 60.5545 188.085 59.8407C188.608 59.1268 188.869 58.1223 188.869 56.8271C188.869 55.5319 188.608 54.5273 188.085 53.8135C187.563 53.0923 186.772 52.7317 185.712 52.7317C184.637 52.7317 183.835 53.0923 183.305 53.8135C182.783 54.5273 182.522 55.5319 182.522 56.8271C182.522 58.1223 182.783 59.1268 183.305 59.8407C183.835 60.5545 184.637 60.9115 185.712 60.9115ZM193.502 62.4348V51.2194H194.793C195.095 51.2194 195.283 51.3629 195.356 51.6499L195.511 52.7207C195.923 52.2276 196.379 51.8265 196.879 51.5174C197.387 51.201 197.98 51.0428 198.657 51.0428C199.4 51.0428 200.003 51.2488 200.467 51.6609C200.931 52.0657 201.269 52.6176 201.483 53.3168C201.645 52.9194 201.854 52.5772 202.112 52.2901C202.369 52.0031 202.656 51.7676 202.973 51.5837C203.289 51.3997 203.624 51.2635 203.977 51.1752C204.338 51.0869 204.702 51.0428 205.07 51.0428C205.666 51.0428 206.196 51.1384 206.66 51.3298C207.131 51.5137 207.528 51.786 207.852 52.1466C208.176 52.5072 208.422 52.9525 208.592 53.4823C208.761 54.0122 208.846 54.6157 208.846 55.2927V62.4348H206.682V55.2927C206.682 54.4538 206.498 53.8209 206.13 53.394C205.769 52.9672 205.24 52.7538 204.54 52.7538C204.231 52.7538 203.937 52.809 203.657 52.9194C203.378 53.0224 203.131 53.1806 202.918 53.394C202.712 53.6074 202.546 53.8724 202.421 54.1888C202.303 54.5053 202.244 54.8732 202.244 55.2927V62.4348H200.081V55.2927C200.081 54.4243 199.908 53.7841 199.562 53.3719C199.216 52.9598 198.708 52.7538 198.039 52.7538C197.575 52.7538 197.144 52.8752 196.747 53.1181C196.35 53.3609 195.985 53.6921 195.654 54.1115V62.4348H193.502ZM213.894 59.6751C214.247 60.1387 214.626 60.4625 215.031 60.6465C215.443 60.8305 215.903 60.9225 216.411 60.9225C217.397 60.9225 218.159 60.5693 218.696 59.8628C219.241 59.1489 219.513 58.1113 219.513 56.7498C219.513 56.036 219.45 55.4288 219.325 54.9284C219.207 54.4206 219.031 54.0085 218.795 53.6921C218.567 53.3683 218.284 53.1328 217.945 52.9856C217.607 52.831 217.224 52.7538 216.797 52.7538C216.172 52.7538 215.627 52.8936 215.164 53.1732C214.707 53.4529 214.284 53.8503 213.894 54.3654V59.6751ZM213.784 52.8973C214.019 52.6176 214.269 52.3637 214.534 52.1356C214.807 51.9001 215.097 51.7014 215.406 51.5395C215.715 51.3702 216.043 51.2415 216.389 51.1531C216.742 51.0575 217.117 51.0096 217.515 51.0096C218.155 51.0096 218.733 51.1347 219.248 51.385C219.77 51.6352 220.216 52.0031 220.584 52.4888C220.952 52.9746 221.235 53.5743 221.434 54.2882C221.64 55.002 221.743 55.8226 221.743 56.7498C221.743 57.5814 221.629 58.3541 221.4 59.068C221.18 59.7745 220.86 60.389 220.44 60.9115C220.028 61.434 219.52 61.8461 218.917 62.1478C218.321 62.4422 217.647 62.5894 216.897 62.5894C216.227 62.5894 215.653 62.479 215.175 62.2582C214.696 62.0374 214.269 61.7283 213.894 61.3309V66.1991H211.742V51.2194H213.033C213.335 51.2194 213.522 51.3629 213.596 51.6499L213.784 52.8973ZM230.187 57.4563C229.312 57.4857 228.568 57.5557 227.958 57.666C227.347 57.7691 226.85 57.9089 226.467 58.0855C226.085 58.2621 225.809 58.4719 225.639 58.7147C225.47 58.9502 225.385 59.2152 225.385 59.5095C225.385 59.7892 225.43 60.032 225.518 60.2381C225.614 60.4368 225.739 60.6024 225.893 60.7348C226.055 60.8599 226.243 60.9519 226.456 61.0108C226.67 61.0697 226.901 61.0991 227.152 61.0991C227.483 61.0991 227.785 61.066 228.057 60.9998C228.337 60.9335 228.598 60.8415 228.841 60.7238C229.083 60.5987 229.315 60.4478 229.536 60.2712C229.757 60.0946 229.974 59.8922 230.187 59.6641V57.4563ZM223.873 52.7869C224.499 52.1908 225.176 51.7456 225.904 51.4512C226.64 51.1568 227.446 51.0096 228.322 51.0096C228.962 51.0096 229.529 51.1163 230.022 51.3298C230.515 51.5358 230.931 51.8265 231.269 52.2018C231.608 52.5772 231.862 53.0261 232.031 53.5486C232.207 54.0711 232.296 54.6488 232.296 55.2817V62.4348H231.335C231.122 62.4348 230.96 62.4017 230.85 62.3355C230.739 62.2619 230.651 62.1294 230.585 61.9381L230.353 60.9556C230.066 61.2205 229.783 61.456 229.503 61.6621C229.223 61.8608 228.929 62.0337 228.62 62.1809C228.318 62.3207 227.994 62.4275 227.648 62.501C227.303 62.5746 226.92 62.6114 226.5 62.6114C226.059 62.6114 225.643 62.5526 225.253 62.4348C224.87 62.3097 224.536 62.122 224.248 61.8718C223.961 61.6216 223.733 61.3089 223.564 60.9335C223.402 60.5582 223.321 60.1203 223.321 59.6199C223.321 59.1784 223.439 58.7552 223.674 58.3505C223.917 57.9383 224.307 57.5704 224.845 57.2466C225.389 56.9228 226.096 56.6578 226.964 56.4518C227.84 56.2457 228.914 56.128 230.187 56.0985V55.2817C230.187 54.4354 230.007 53.8025 229.646 53.383C229.286 52.9635 228.756 52.7538 228.057 52.7538C227.586 52.7538 227.188 52.8126 226.865 52.9304C226.548 53.0481 226.272 53.1806 226.037 53.3278C225.809 53.4676 225.606 53.5964 225.43 53.7142C225.26 53.8319 225.084 53.8908 224.9 53.8908C224.753 53.8908 224.624 53.8503 224.513 53.7693C224.41 53.6884 224.326 53.5927 224.26 53.4823L223.873 52.7869ZM245.657 62.4348H243.493V52.9635H237.863V59.5316C237.863 59.9732 237.97 60.3043 238.184 60.5251C238.404 60.7385 238.684 60.8452 239.023 60.8452C239.221 60.8452 239.391 60.8195 239.53 60.768C239.678 60.7164 239.803 60.6612 239.906 60.6024C240.009 60.5361 240.097 60.4773 240.171 60.4258C240.244 60.3742 240.31 60.3485 240.369 60.3485C240.443 60.3485 240.498 60.3669 240.535 60.4037C240.579 60.4331 240.623 60.4846 240.667 60.5582L241.308 61.5959C240.954 61.9197 240.535 62.1699 240.049 62.3465C239.563 62.5231 239.059 62.6114 238.537 62.6114C237.632 62.6114 236.933 62.3575 236.439 61.8498C235.954 61.342 235.711 60.6171 235.711 59.6751V52.9635H234.408C234.283 52.9635 234.177 52.9267 234.088 52.8531C234.007 52.7722 233.967 52.6544 233.967 52.4999V51.6278L235.799 51.3739L236.274 48.0292C236.303 47.9041 236.359 47.8084 236.439 47.7422C236.528 47.6686 236.638 47.6318 236.771 47.6318H237.863V51.396H245.657V62.4348ZM246.143 47.687C246.143 47.8857 246.102 48.077 246.021 48.261C245.94 48.4376 245.83 48.5958 245.69 48.7356C245.558 48.8681 245.399 48.9748 245.215 49.0558C245.031 49.1294 244.84 49.1662 244.641 49.1662C244.443 49.1662 244.255 49.1294 244.078 49.0558C243.902 48.9748 243.744 48.8681 243.604 48.7356C243.471 48.5958 243.365 48.4376 243.284 48.261C243.21 48.077 243.173 47.8857 243.173 47.687C243.173 47.4809 243.21 47.2859 243.284 47.1019C243.365 46.9179 243.471 46.7597 243.604 46.6272C243.744 46.4874 243.902 46.3807 244.078 46.3071C244.255 46.2262 244.443 46.1857 244.641 46.1857C244.84 46.1857 245.031 46.2262 245.215 46.3071C245.399 46.3807 245.558 46.4874 245.69 46.6272C245.83 46.7597 245.94 46.9179 246.021 47.1019C246.102 47.2859 246.143 47.4809 246.143 47.687ZM250.934 59.6751C251.288 60.1387 251.67 60.4625 252.083 60.6465C252.495 60.8305 252.944 60.9225 253.429 60.9225C254.43 60.9225 255.199 60.5656 255.736 59.8517C256.281 59.1379 256.553 58.0598 256.553 56.6174C256.553 55.2853 256.314 54.3102 255.836 53.6921C255.357 53.0665 254.68 52.7538 253.805 52.7538C253.186 52.7538 252.649 52.8936 252.193 53.1732C251.744 53.4529 251.325 53.8503 250.934 54.3654V59.6751ZM250.934 52.7648C251.398 52.2497 251.924 51.8339 252.513 51.5174C253.102 51.201 253.771 51.0428 254.522 51.0428C255.177 51.0428 255.766 51.1715 256.288 51.4291C256.818 51.6793 257.267 52.0436 257.635 52.522C258.003 52.9929 258.286 53.567 258.485 54.244C258.684 54.9211 258.783 55.6864 258.783 56.5401C258.783 57.4453 258.669 58.2695 258.441 59.0128C258.22 59.7561 257.9 60.3926 257.481 60.9225C257.068 61.4524 256.564 61.8645 255.968 62.1588C255.372 62.4459 254.702 62.5894 253.959 62.5894C253.599 62.5894 253.267 62.5526 252.966 62.479C252.664 62.4127 252.384 62.3134 252.127 62.1809C251.876 62.0485 251.645 61.8866 251.431 61.6952C251.218 61.5039 251.015 61.2868 250.824 61.0439L250.725 61.9822C250.666 62.284 250.482 62.4348 250.173 62.4348H248.782V46.1415H250.934V52.7648ZM263.431 51.2194V62.4348H261.278V51.2194H263.431ZM263.839 47.7532C263.839 47.9519 263.799 48.1432 263.718 48.3272C263.637 48.5038 263.527 48.6621 263.387 48.8019C263.254 48.9343 263.096 49.0411 262.912 49.122C262.728 49.1956 262.537 49.2324 262.338 49.2324C262.139 49.2324 261.952 49.1956 261.775 49.122C261.598 49.0411 261.44 48.9343 261.3 48.8019C261.168 48.6621 261.061 48.5038 260.98 48.3272C260.907 48.1432 260.87 47.9519 260.87 47.7532C260.87 47.5471 260.907 47.3558 260.98 47.1792C261.061 46.9952 261.168 46.837 261.3 46.7045C261.44 46.5647 261.598 46.458 261.775 46.3844C261.952 46.3034 262.139 46.263 262.338 46.263C262.537 46.263 262.728 46.3034 262.912 46.3844C263.096 46.458 263.254 46.5647 263.387 46.7045C263.527 46.837 263.637 46.9952 263.718 47.1792C263.799 47.3558 263.839 47.5471 263.839 47.7532ZM268.755 46.1415V62.4348H266.592V46.1415H268.755ZM274.082 51.2194V62.4348H271.929V51.2194H274.082ZM274.49 47.7532C274.49 47.9519 274.45 48.1432 274.369 48.3272C274.288 48.5038 274.177 48.6621 274.038 48.8019C273.905 48.9343 273.747 49.0411 273.563 49.122C273.379 49.1956 273.188 49.2324 272.989 49.2324C272.79 49.2324 272.602 49.1956 272.426 49.122C272.249 49.0411 272.091 48.9343 271.951 48.8019C271.819 48.6621 271.712 48.5038 271.631 48.3272C271.557 48.1432 271.521 47.9519 271.521 47.7532C271.521 47.5471 271.557 47.3558 271.631 47.1792C271.712 46.9952 271.819 46.837 271.951 46.7045C272.091 46.5647 272.249 46.458 272.426 46.3844C272.602 46.3034 272.79 46.263 272.989 46.263C273.188 46.263 273.379 46.3034 273.563 46.3844C273.747 46.458 273.905 46.5647 274.038 46.7045C274.177 46.837 274.288 46.9952 274.369 47.1792C274.45 47.3558 274.49 47.5471 274.49 47.7532ZM280.709 62.6114C279.803 62.6114 279.104 62.3575 278.611 61.8498C278.125 61.342 277.883 60.6171 277.883 59.6751V52.9635H276.58C276.455 52.9635 276.348 52.9267 276.26 52.8531C276.179 52.7722 276.139 52.6544 276.139 52.4999V51.6278L277.96 51.3739L278.446 48.0292C278.475 47.9041 278.53 47.8084 278.611 47.7422C278.7 47.6686 278.81 47.6318 278.942 47.6318H280.035V51.396H283.214V52.9635H280.035V59.5316C280.035 59.9732 280.142 60.3043 280.355 60.5251C280.576 60.7385 280.856 60.8452 281.194 60.8452C281.393 60.8452 281.562 60.8195 281.702 60.768C281.849 60.7164 281.974 60.6612 282.077 60.6024C282.18 60.5361 282.269 60.4773 282.342 60.4258C282.416 60.3742 282.482 60.3485 282.541 60.3485C282.615 60.3485 282.67 60.3669 282.707 60.4037C282.751 60.4331 282.795 60.4846 282.839 60.5582L283.479 61.5959C283.126 61.9197 282.707 62.1699 282.221 62.3465C281.735 62.5231 281.231 62.6114 280.709 62.6114ZM295 51.2194L288.774 65.6913C288.707 65.8532 288.619 65.9783 288.509 66.0666C288.398 66.1549 288.236 66.1991 288.023 66.1991H286.422L288.476 61.7283L283.872 51.2194H285.749C285.933 51.2194 286.076 51.2635 286.18 51.3518C286.283 51.4402 286.356 51.5395 286.4 51.6499L289.248 58.3836C289.307 58.5528 289.362 58.7258 289.414 58.9024C289.473 59.0717 289.521 59.2409 289.557 59.4102C289.609 59.2336 289.664 59.0606 289.723 58.8914C289.782 58.7147 289.844 58.5418 289.911 58.3725L292.659 51.6499C292.711 51.5248 292.792 51.4218 292.902 51.3408C293.013 51.2599 293.138 51.2194 293.277 51.2194H295Z" fill="white"/>
<path d="M327.959 38.5996C327.693 38.1123 327.328 37.7413 326.862 37.4866C326.397 37.2319 325.855 37.1045 325.235 37.1045C324.548 37.1045 323.939 37.2596 323.407 37.5697C322.876 37.8797 322.46 38.3227 322.161 38.8986C321.862 39.4745 321.713 40.1389 321.713 40.892C321.713 41.6672 321.862 42.3427 322.161 42.9186C322.471 43.4945 322.898 43.9374 323.44 44.2475C323.983 44.5576 324.614 44.7127 325.334 44.7127C326.22 44.7127 326.946 44.4801 327.51 44.015C328.075 43.5388 328.446 42.8798 328.623 42.0382H324.637V40.2607H330.916V42.2874C330.761 43.0958 330.428 43.8433 329.919 44.5299C329.41 45.2165 328.751 45.7703 327.942 46.1911C327.145 46.6008 326.248 46.8057 325.251 46.8057C324.133 46.8057 323.119 46.5565 322.211 46.0582C321.314 45.5488 320.605 44.8456 320.085 43.9485C319.576 43.0515 319.321 42.0326 319.321 40.892C319.321 39.7513 319.576 38.7325 320.085 37.8354C320.605 36.9273 321.314 36.2241 322.211 35.7258C323.119 35.2163 324.127 34.9616 325.235 34.9616C326.541 34.9616 327.676 35.2828 328.64 35.9251C329.603 36.5563 330.268 37.4478 330.633 38.5996H327.959ZM334.962 36.9882V39.8953H338.866V41.7392H334.962V44.8123H339.364V46.7061H332.636V35.0945H339.364V36.9882H334.962ZM349.368 35.1111V36.9882H346.278V46.7061H343.953V36.9882H340.863V35.1111H349.368ZM362.133 44.4967H357.515L356.751 46.7061H354.309L358.478 35.0945H361.186L365.356 46.7061H362.897L362.133 44.4967ZM361.502 42.6362L359.824 37.7856L358.146 42.6362H361.502ZM374.926 35.1111C376.144 35.1111 377.212 35.3492 378.132 35.8254C379.062 36.3016 379.776 36.9827 380.274 37.8687C380.784 38.7435 381.039 39.7624 381.039 40.9252C381.039 42.088 380.784 43.1069 380.274 43.9817C379.776 44.8456 379.062 45.5156 378.132 45.9918C377.212 46.468 376.144 46.7061 374.926 46.7061H370.872V35.1111H374.926ZM374.842 44.7293C376.061 44.7293 377.002 44.397 377.666 43.7326C378.331 43.0681 378.663 42.1323 378.663 40.9252C378.663 39.7181 378.331 38.7768 377.666 38.1012C377.002 37.4146 376.061 37.0713 374.842 37.0713H373.198V44.7293H374.842ZM385.105 36.9882V39.8953H389.009V41.7392H385.105V44.8123H389.507V46.7061H382.779V35.0945H389.507V36.9882H385.105ZM399.511 35.1111V36.9882H396.421V46.7061H394.096V36.9882H391.006V35.1111H399.511ZM408.318 44.4967H403.7L402.936 46.7061H400.494L404.663 35.0945H407.371L411.54 46.7061H409.082L408.318 44.4967ZM407.687 42.6362L406.009 37.7856L404.331 42.6362H407.687ZM415.425 35.1111V46.7061H413.099V35.1111H415.425ZM420.048 44.8622H423.869V46.7061H417.722V35.1111H420.048V44.8622ZM427.672 36.9882V39.8953H431.576V41.7392H427.672V44.8123H432.074V46.7061H425.347V35.0945H432.074V36.9882H427.672ZM438.241 35.1111C439.459 35.1111 440.528 35.3492 441.447 35.8254C442.377 36.3016 443.092 36.9827 443.59 37.8687C444.1 38.7435 444.354 39.7624 444.354 40.9252C444.354 42.088 444.1 43.1069 443.59 43.9817C443.092 44.8456 442.377 45.5156 441.447 45.9918C440.528 46.468 439.459 46.7061 438.241 46.7061H434.188V35.1111H438.241ZM438.158 44.7293C439.376 44.7293 440.318 44.397 440.982 43.7326C441.647 43.0681 441.979 42.1323 441.979 40.9252C441.979 39.7181 441.647 38.7768 440.982 38.1012C440.318 37.4146 439.376 37.0713 438.158 37.0713H436.514V44.7293H438.158ZM454.057 46.8223C453.248 46.8223 452.517 46.6839 451.864 46.407C451.222 46.1302 450.712 45.7315 450.336 45.211C449.959 44.6905 449.765 44.0759 449.754 43.3671H452.246C452.279 43.8433 452.445 44.2198 452.744 44.4967C453.055 44.7736 453.475 44.912 454.007 44.912C454.55 44.912 454.976 44.7846 455.286 44.5299C455.596 44.2641 455.751 43.9208 455.751 43.5C455.751 43.1567 455.646 42.8743 455.436 42.6528C455.225 42.4313 454.959 42.2597 454.638 42.1379C454.328 42.005 453.896 41.861 453.342 41.706C452.589 41.4845 451.975 41.2685 451.499 41.0581C451.033 40.8366 450.629 40.5099 450.286 40.078C449.954 39.635 449.788 39.0481 449.788 38.3172C449.788 37.6306 449.959 37.0325 450.303 36.5231C450.646 36.0137 451.128 35.6261 451.748 35.3603C452.368 35.0834 453.077 34.945 453.874 34.945C455.07 34.945 456.039 35.2385 456.781 35.8254C457.534 36.4013 457.949 37.2097 458.027 38.2507H455.469C455.447 37.8521 455.275 37.5254 454.954 37.2706C454.644 37.0049 454.228 36.872 453.708 36.872C453.254 36.872 452.888 36.9882 452.612 37.2208C452.346 37.4534 452.213 37.7911 452.213 38.2341C452.213 38.5442 452.313 38.8045 452.512 39.0149C452.722 39.2142 452.977 39.3803 453.276 39.5132C453.586 39.635 454.018 39.779 454.572 39.9451C455.325 40.1666 455.939 40.3881 456.416 40.6096C456.892 40.8311 457.302 41.1633 457.645 41.6063C457.988 42.0493 458.16 42.6307 458.16 43.3505C458.16 43.9707 457.999 44.5465 457.678 45.0781C457.357 45.6097 456.886 46.0361 456.266 46.3572C455.646 46.6673 454.909 46.8223 454.057 46.8223ZM462.468 35.1111V42.2874C462.468 43.0736 462.673 43.6772 463.083 44.098C463.493 44.5078 464.069 44.7127 464.811 44.7127C465.564 44.7127 466.145 44.5078 466.555 44.098C466.965 43.6772 467.17 43.0736 467.17 42.2874V35.1111H469.512V42.2707C469.512 43.2564 469.296 44.0925 468.864 44.7791C468.443 45.4546 467.873 45.9641 467.153 46.3074C466.444 46.6507 465.652 46.8223 464.777 46.8223C463.914 46.8223 463.127 46.6507 462.419 46.3074C461.721 45.9641 461.167 45.4546 460.757 44.7791C460.348 44.0925 460.143 43.2564 460.143 42.2707V35.1111H462.468ZM484.4 35.1111V46.7061H482.075V39.1644L478.968 46.7061H477.207L474.084 39.1644V46.7061H471.759V35.1111H474.4L478.088 43.7326L481.776 35.1111H484.4ZM499.341 35.1111V46.7061H497.015V39.1644L493.909 46.7061H492.148L489.025 39.1644V46.7061H486.699V35.1111H489.341L493.029 43.7326L496.716 35.1111H499.341ZM508.75 44.4967H504.132L503.368 46.7061H500.926L505.095 35.0945H507.803L511.973 46.7061H509.514L508.75 44.4967ZM508.119 42.6362L506.441 37.7856L504.763 42.6362H508.119ZM519.511 46.7061L516.953 42.1877H515.857V46.7061H513.531V35.1111H517.883C518.78 35.1111 519.545 35.2717 520.176 35.5929C520.807 35.903 521.278 36.3293 521.588 36.872C521.909 37.4035 522.07 38.0016 522.07 38.666C522.07 39.4302 521.848 40.1223 521.405 40.7425C520.962 41.3516 520.303 41.7724 519.428 42.005L522.202 46.7061H519.511ZM515.857 40.4435H517.8C518.432 40.4435 518.902 40.294 519.212 39.995C519.522 39.6849 519.677 39.2585 519.677 38.7159C519.677 38.1843 519.522 37.7745 519.212 37.4866C518.902 37.1876 518.432 37.0381 517.8 37.0381H515.857V40.4435ZM533.392 35.1111L529.472 42.6694V46.7061H527.146V42.6694L523.21 35.1111H525.834L528.326 40.4102L530.801 35.1111H533.392ZM366.335 71.8223C365.249 71.8223 364.253 71.5676 363.344 71.0582C362.436 70.5488 361.716 69.8456 361.185 68.9485C360.653 68.0404 360.388 67.016 360.388 65.8754C360.388 64.7458 360.653 63.7325 361.185 62.8354C361.716 61.9273 362.436 61.2186 363.344 60.7092C364.253 60.1997 365.249 59.945 366.335 59.945C367.431 59.945 368.428 60.1997 369.325 60.7092C370.233 61.2186 370.947 61.9273 371.468 62.8354C371.999 63.7325 372.265 64.7458 372.265 65.8754C372.265 67.016 371.999 68.0404 371.468 68.9485C370.947 69.8456 370.233 70.5488 369.325 71.0582C368.417 71.5676 367.42 71.8223 366.335 71.8223ZM366.335 69.7459C367.032 69.7459 367.647 69.5908 368.178 69.2808C368.71 68.9596 369.125 68.5055 369.424 67.9186C369.723 67.3317 369.873 66.6506 369.873 65.8754C369.873 65.1002 369.723 64.4246 369.424 63.8488C369.125 63.2618 368.71 62.8133 368.178 62.5032C367.647 62.1931 367.032 62.0381 366.335 62.0381C365.637 62.0381 365.017 62.1931 364.474 62.5032C363.942 62.8133 363.527 63.2618 363.228 63.8488C362.929 64.4246 362.78 65.1002 362.78 65.8754C362.78 66.6506 362.929 67.3317 363.228 67.9186C363.527 68.5055 363.942 68.9596 364.474 69.2808C365.017 69.5908 365.637 69.7459 366.335 69.7459ZM381.155 60.1111V61.9882H376.321V64.9617H380.025V66.8056H376.321V71.7061H373.995V60.1111H381.155ZM395.981 60.1111L392.061 67.6694V71.7061H389.736V67.6694L385.799 60.1111H388.423L390.915 65.4102L393.39 60.1111H395.981ZM402.705 71.8223C401.62 71.8223 400.623 71.5676 399.715 71.0582C398.807 70.5488 398.087 69.8456 397.555 68.9485C397.024 68.0404 396.758 67.016 396.758 65.8754C396.758 64.7458 397.024 63.7325 397.555 62.8354C398.087 61.9273 398.807 61.2186 399.715 60.7092C400.623 60.1997 401.62 59.945 402.705 59.945C403.801 59.945 404.798 60.1997 405.695 60.7092C406.603 61.2186 407.317 61.9273 407.838 62.8354C408.369 63.7325 408.635 64.7458 408.635 65.8754C408.635 67.016 408.369 68.0404 407.838 68.9485C407.317 69.8456 406.603 70.5488 405.695 71.0582C404.787 71.5676 403.79 71.8223 402.705 71.8223ZM402.705 69.7459C403.403 69.7459 404.017 69.5908 404.549 69.2808C405.08 68.9596 405.496 68.5055 405.795 67.9186C406.094 67.3317 406.243 66.6506 406.243 65.8754C406.243 65.1002 406.094 64.4246 405.795 63.8488C405.496 63.2618 405.08 62.8133 404.549 62.5032C404.017 62.1931 403.403 62.0381 402.705 62.0381C402.007 62.0381 401.387 62.1931 400.844 62.5032C400.313 62.8133 399.898 63.2618 399.599 63.8488C399.3 64.4246 399.15 65.1002 399.15 65.8754C399.15 66.6506 399.3 67.3317 399.599 67.9186C399.898 68.5055 400.313 68.9596 400.844 69.2808C401.387 69.5908 402.007 69.7459 402.705 69.7459ZM412.658 60.1111V67.2874C412.658 68.0736 412.863 68.6772 413.273 69.098C413.682 69.5078 414.258 69.7127 415 69.7127C415.753 69.7127 416.335 69.5078 416.744 69.098C417.154 68.6772 417.359 68.0736 417.359 67.2874V60.1111H419.701V67.2707C419.701 68.2564 419.485 69.0925 419.053 69.7791C418.633 70.4546 418.062 70.9641 417.342 71.3074C416.634 71.6507 415.842 71.8223 414.967 71.8223C414.103 71.8223 413.317 71.6507 412.608 71.3074C411.91 70.9641 411.357 70.4546 410.947 69.7791C410.537 69.0925 410.332 68.2564 410.332 67.2707V60.1111H412.658ZM427.928 71.7061L425.37 67.1877H424.274V71.7061H421.948V60.1111H426.3C427.197 60.1111 427.962 60.2717 428.593 60.5929C429.224 60.903 429.695 61.3293 430.005 61.872C430.326 62.4035 430.487 63.0016 430.487 63.666C430.487 64.4302 430.265 65.1223 429.822 65.7425C429.379 66.3516 428.72 66.7724 427.845 67.005L430.619 71.7061H427.928ZM424.274 65.4435H426.217C426.849 65.4435 427.319 65.294 427.629 64.995C427.939 64.6849 428.094 64.2585 428.094 63.7159C428.094 63.1843 427.939 62.7745 427.629 62.4866C427.319 62.1876 426.849 62.0381 426.217 62.0381H424.274V65.4435ZM449.19 60.1111V71.7061H446.864V64.1644L443.758 71.7061H441.997L438.874 64.1644V71.7061H436.548V60.1111H439.19L442.877 68.7326L446.565 60.1111H449.19ZM458.599 69.4967H453.981L453.217 71.7061H450.775L454.944 60.0945H457.652L461.821 71.7061H459.363L458.599 69.4967ZM457.968 67.6362L456.29 62.7856L454.612 67.6362H457.968ZM471.27 60.1111V61.9882H468.181V71.7061H465.855V61.9882H462.765V60.1111H471.27ZM472.403 65.892C472.403 64.7513 472.657 63.7325 473.167 62.8354C473.687 61.9273 474.39 61.2241 475.276 60.7258C476.173 60.2163 477.176 59.9616 478.283 59.9616C479.579 59.9616 480.714 60.2939 481.688 60.9583C482.663 61.6228 483.344 62.542 483.732 63.7159H481.057C480.791 63.1621 480.415 62.7468 479.928 62.47C479.451 62.1931 478.898 62.0547 478.266 62.0547C477.591 62.0547 476.987 62.2153 476.456 62.5364C475.935 62.8465 475.526 63.2895 475.226 63.8654C474.939 64.4412 474.795 65.1168 474.795 65.892C474.795 66.6561 474.939 67.3317 475.226 67.9186C475.526 68.4945 475.935 68.943 476.456 69.2641C476.987 69.5742 477.591 69.7293 478.266 69.7293C478.898 69.7293 479.451 69.5908 479.928 69.314C480.415 69.026 480.791 68.6052 481.057 68.0515H483.732C483.344 69.2365 482.663 70.1612 481.688 70.8256C480.725 71.479 479.59 71.8057 478.283 71.8057C477.176 71.8057 476.173 71.5565 475.276 71.0582C474.39 70.5488 473.687 69.8456 473.167 68.9485C472.657 68.0515 472.403 67.0326 472.403 65.892ZM495.336 60.1111V71.7061H493.011V66.7724H488.044V71.7061H485.718V60.1111H488.044V64.8787H493.011V60.1111H495.336Z" fill="white"/>
<defs>
<filter id="filter0_ddd_1312_18414" x="0.328249" y="0.419054" width="552.631" height="102.799" filterUnits="userSpaceOnUse" color-interpolation-filters="sRGB">
<feFlood flood-opacity="0" result="BackgroundImageFix"/>
<feColorMatrix in="SourceAlpha" type="matrix" values="0 0 0 0 0 0 0 0 0 0 0 0 0 0 0 0 0 0 127 0" result="hardAlpha"/>
<feOffset dy="0.689926"/>
<feGaussianBlur stdDeviation="2.7597"/>
<feColorMatrix type="matrix" values="0 0 0 0 0 0 0 0 0 0 0 0 0 0 0 0 0 0 0.1 0"/>
<feBlend mode="normal" in2="BackgroundImageFix" result="effect1_dropShadow_1312_18414"/>
<feColorMatrix in="SourceAlpha" type="matrix" values="0 0 0 0 0 0 0 0 0 0 0 0 0 0 0 0 0 0 127 0" result="hardAlpha"/>
<feOffset dy="1.37985"/>
<feGaussianBlur stdDeviation="1.37985"/>
<feColorMatrix type="matrix" values="0 0 0 0 0 0 0 0 0 0 0 0 0 0 0 0 0 0 0.12 0"/>
<feBlend mode="normal" in2="effect1_dropShadow_1312_18414" result="effect2_dropShadow_1312_18414"/>
<feColorMatrix in="SourceAlpha" type="matrix" values="0 0 0 0 0 0 0 0 0 0 0 0 0 0 0 0 0 0 127 0" result="hardAlpha"/>
<feOffset dy="0.689926"/>
<feGaussianBlur stdDeviation="0.689926"/>
<feColorMatrix type="matrix" values="0 0 0 0 0 0 0 0 0 0 0 0 0 0 0 0 0 0 0.16 0"/>
<feBlend mode="normal" in2="effect2_dropShadow_1312_18414" result="effect3_dropShadow_1312_18414"/>
<feBlend mode="normal" in="SourceGraphic" in2="effect3_dropShadow_1312_18414" result="shape"/>
</filter>
<clipPath id="clip0_1312_18414">
<rect width="111.768" height="92.33" fill="white" transform="translate(6.53516 5.24854)"/>
</clipPath>
<clipPath id="clip1_1312_18414">
<rect width="17.5095" height="17.5095" fill="white" transform="translate(87.0645 5.24854)"/>
</clipPath>
<clipPath id="clip2_1312_18414">
<rect width="17.5095" height="17.5095" fill="white" transform="translate(12.8223 71.5693) rotate(47.2539)"/>
</clipPath>
<clipPath id="clip3_1312_18414">
<rect width="13.19" height="16.6611" fill="white" transform="translate(5.5 52.1636)"/>
</clipPath>
<clipPath id="clip4_1312_18414">
<rect width="3.84712" height="4.85953" fill="white" transform="translate(27.4766 50.3723)"/>
</clipPath>
<clipPath id="clip5_1312_18414">
<rect width="11.8016" height="14.9073" fill="white" transform="translate(55.8242 85.7771)"/>
</clipPath>
<clipPath id="clip6_1312_18414">
<rect width="51.0545" height="51.0545" fill="white" transform="translate(32.0586 33.5356)"/>
</clipPath>
</defs>
</svg>
