<svg width="75" height="76" viewBox="0 0 75 76" fill="none" xmlns="http://www.w3.org/2000/svg">
<path d="M37.5 56.6738L43.3333 43.4447L56.5625 37.6113L43.3333 31.778L37.5 18.5488L31.6667 31.778L18.4375 37.6113L31.6667 43.4447L37.5 56.6738ZM6.25 75.1113C4.58333 75.1113 3.125 74.4863 1.875 73.2363C0.625 71.9863 0 70.528 0 68.8613V6.36133C0 4.69466 0.625 3.23633 1.875 1.98633C3.125 0.736328 4.58333 0.111328 6.25 0.111328H68.75C70.4167 0.111328 71.875 0.736328 73.125 1.98633C74.375 3.23633 75 4.69466 75 6.36133V68.8613C75 70.528 74.375 71.9863 73.125 73.2363C71.875 74.4863 70.4167 75.1113 68.75 75.1113H6.25ZM6.25 68.8613H68.75V6.36133H6.25V68.8613Z" fill="url(#paint0_linear_1312_18019)"/>
<defs>
<linearGradient id="paint0_linear_1312_18019" x1="20.5402" y1="8.59122" x2="86.3335" y2="16.3874" gradientUnits="userSpaceOnUse">
<stop stop-color="#8800E1"/>
<stop offset="1" stop-color="#4A00E0" stop-opacity="0.97"/>
</linearGradient>
</defs>
</svg>
