<svg width="75" height="76" viewBox="0 0 75 76" fill="none" xmlns="http://www.w3.org/2000/svg">
<g clip-path="url(#clip0_1312_18187)">
<path d="M37.4989 75.3076L28.5939 65.2112L16.3288 66.9472L14.1872 54.7441L3.24805 48.9376L8.68555 37.8076L3.24819 26.6776L14.1874 20.8711L16.3288 8.66807L28.5939 10.4041L37.4989 0.307617L46.4038 10.4041L58.6689 8.66807L60.8104 20.8711L71.7496 26.6776L66.3122 37.8076L71.7496 48.9376L60.8104 54.7441L58.6689 66.9472L46.4038 65.2112L37.4989 75.3076Z" fill="#FF5959"/>
<path d="M46.403 65.2112L58.6681 66.9472L60.8097 54.7441L71.7487 48.9376L66.3114 37.8076L71.7487 26.6776L60.8097 20.8711L58.6681 8.66807L46.403 10.4041L37.498 0.307617V75.3076L46.403 65.2112Z" fill="#E63A57"/>
<path d="M25.5938 46.5956L46.2758 25.9136L49.3824 29.0202L28.7004 49.7022L25.5938 46.5956Z" fill="#ECF2FF"/>
<path d="M46.2871 40.005C42.6522 40.005 39.6953 42.9619 39.6953 46.5968C39.6953 50.2317 42.6522 53.1886 46.2871 53.1886C49.922 53.1886 52.8789 50.2317 52.8789 46.5968C52.8789 42.9619 49.922 40.005 46.2871 40.005ZM46.2871 48.7941C45.0755 48.7941 44.0898 47.8084 44.0898 46.5968C44.0898 45.3852 45.0755 44.3995 46.2871 44.3995C47.4987 44.3995 48.4844 45.3852 48.4844 46.5968C48.4844 47.8084 47.4987 48.7941 46.2871 48.7941Z" fill="#D9E5FF"/>
<path d="M28.709 22.4268C25.0741 22.4268 22.1172 25.3837 22.1172 29.0186C22.1172 32.6534 25.0741 35.6104 28.709 35.6104C32.3438 35.6104 35.3008 32.6534 35.3008 29.0186C35.3008 25.3837 32.3438 22.4268 28.709 22.4268ZM28.709 31.2158C27.4974 31.2158 26.5117 30.2301 26.5117 29.0186C26.5117 27.807 27.4974 26.8213 28.709 26.8213C29.9206 26.8213 30.9062 27.807 30.9062 29.0186C30.9062 30.2301 29.9206 31.2158 28.709 31.2158Z" fill="#ECF2FF"/>
<path d="M37.498 40.9147L49.3942 29.0186L46.2871 25.9115L37.498 34.7006V40.9147Z" fill="#D9E5FF"/>
</g>
<defs>
<clipPath id="clip0_1312_18187">
<rect width="75" height="75" fill="white" transform="translate(0 0.307617)"/>
</clipPath>
</defs>
</svg>
