<svg width="76" height="76" viewBox="0 0 76 76" fill="none" xmlns="http://www.w3.org/2000/svg">
<path d="M32.3575 46.376L26.5597 52.1738L22.3736 56.3584L18.7549 52.7397L22.8308 48.6622L28.7373 42.7558L32.3575 46.376Z" fill="#ECF4FF"/>
<path d="M32.3567 46.376L26.559 52.1738C25.6746 51.4826 24.822 50.7296 24.0087 49.9162C23.5997 49.5073 23.2073 49.0893 22.8301 48.6622L28.7365 42.7558L32.3567 46.376Z" fill="#D2E5FD"/>
<path d="M23.8097 55.2961C23.8097 56.2106 23.4974 57.1281 22.8636 57.8766L19.3882 61.8424L10.9823 71.4335L9.78351 71.867L9.49015 73.1361L8.99684 73.699C7.48627 75.4812 4.77601 75.5929 3.12359 73.942L1.16937 71.9877C-0.48154 70.3353 -0.36987 67.6251 1.41232 66.1145L1.8667 65.7163L2.89226 65.2272L3.57088 64.2227L13.269 55.7231L17.2348 52.2478C18.8208 50.9047 21.1704 51.0013 22.6402 52.4711C23.4174 53.2483 23.8097 54.2699 23.8097 55.2961Z" fill="#BC492E"/>
<path d="M23.8103 55.2961C23.8103 56.2106 23.4979 57.1281 22.8641 57.8766L19.3888 61.8424C19.4838 61.4515 19.5306 61.0531 19.5306 60.6532C19.5306 59.3509 19.0311 58.0516 18.0457 57.0662C16.7585 55.779 14.9355 55.3202 13.2695 55.7231L17.2353 52.2478C18.8213 50.9047 21.171 51.0013 22.6408 52.4711C23.4179 53.2483 23.8103 54.2699 23.8103 55.2961Z" fill="#C22806"/>
<path d="M66.8787 47.458C60.9843 53.3523 53.098 56.0385 45.3867 55.5178C51.8455 55.0817 58.1805 52.3956 63.1166 47.458C73.9486 36.626 73.9486 19.0651 63.1166 8.23459C58.1805 3.29696 51.8455 0.610838 45.3867 0.174721C53.098 -0.345903 60.9843 2.34022 66.8787 8.23459C77.7092 19.0651 77.7092 36.626 66.8787 47.458Z" fill="#004281"/>
<path d="M63.1125 47.458C58.1764 52.3956 51.8414 55.0817 45.3826 55.5179C38.9238 55.0817 32.5888 52.3956 27.6512 47.458C16.8207 36.626 16.8207 19.0651 27.6512 8.23461C32.5888 3.29698 38.9238 0.610861 45.3826 0.174744C51.8414 0.610861 58.1764 3.29698 63.1125 8.23461C73.9445 19.0651 73.9445 36.626 63.1125 47.458Z" fill="#0055A3"/>
<path d="M61.9262 42.5066C57.2874 47.1455 50.9961 49.1269 44.9448 48.4478C40.4373 47.9438 36.0625 45.9624 32.6053 42.5066C24.5092 34.409 24.5092 21.2818 32.6053 13.1857C36.0625 9.72995 40.4373 7.74856 44.9448 7.24454C50.9961 6.56546 57.2874 8.54685 61.9262 13.1857C70.0223 21.2818 70.0223 34.409 61.9262 42.5066Z" fill="#ECF4FF"/>
<path d="M61.9238 42.5066C57.2849 47.1455 50.9937 49.1269 44.9424 48.4478C49.4499 47.9438 53.8247 45.9624 57.2819 42.5066C65.378 34.409 65.378 21.2818 57.2819 13.1857C53.8247 9.72995 49.4499 7.74856 44.9424 7.24454C50.9937 6.56546 57.2849 8.54685 61.9238 13.1857C70.0199 21.2818 70.0199 34.409 61.9238 42.5066Z" fill="#D2E5FD"/>
<path d="M55.6242 31.7004L48.8772 38.4474C48.1815 39.1431 47.1493 39.294 46.3058 38.9017C46.0719 38.793 45.8516 38.6406 45.6569 38.4474L38.9099 31.7004C36.592 29.381 36.5256 25.6054 38.8269 23.2694C40.9154 21.1491 44.1946 20.9303 46.5306 22.6114C46.9698 22.9268 47.5658 22.9268 48.0035 22.6114C48.3656 22.3503 48.752 22.1361 49.1519 21.9655C49.5729 21.7875 50.012 21.6592 50.4572 21.5822C52.3103 21.2623 54.2857 21.8252 55.7087 23.2694C58.01 25.6054 57.9421 29.381 55.6242 31.7004Z" fill="#FD4755"/>
<path d="M55.6205 31.7004L48.8735 38.4474C48.1778 39.1431 47.1456 39.294 46.302 38.9017C46.0681 38.793 45.8478 38.6406 45.6532 38.4474L44.9424 37.7367L50.9786 31.7004C53.2965 29.381 53.3644 25.6054 51.0631 23.2694C50.4987 22.6959 49.8453 22.2613 49.1481 21.9655C49.5692 21.7875 50.0083 21.6592 50.4535 21.5822C52.3066 21.2623 54.2819 21.8252 55.705 23.2694C58.0063 25.6054 57.9384 29.381 55.6205 31.7004Z" fill="#FB2B3A"/>
<path d="M10.9814 71.4338L9.48898 73.136C9.47389 73.1254 9.4588 73.1118 9.44371 73.0967L1.92711 65.7823C1.90447 65.7612 1.88485 65.7386 1.86523 65.7159L3.56896 64.222L10.9814 71.4338Z" fill="#FE646F"/>
</svg>
