<svg width="90" height="95" viewBox="0 0 90 95" fill="none" xmlns="http://www.w3.org/2000/svg">
<path d="M45 4.34668C20.1579 4.34668 0.0195312 24.4851 0.0195312 49.3271C0.0195312 59.624 3.48193 69.1107 9.3024 76.6922L13.0909 81.0275C21.2389 89.2289 32.5259 94.3076 45 94.3076C49.6934 94.3076 54.2182 93.5877 58.4717 92.2543L79.2415 78.4919C85.9368 70.6387 89.9805 60.4559 89.9805 49.3271C89.9805 24.4851 69.8421 4.34668 45 4.34668Z" fill="#FEE903"/>
<path d="M12.4131 73.5832L9.30469 76.6914C10.4755 78.2166 11.7404 79.6655 13.0933 81.0272L16.4751 77.6454L12.4131 73.5832Z" fill="#596C97"/>
<path d="M61.7157 60.9642C61.6977 60.9824 61.681 61.0015 61.6628 61.0197L61.636 61.0465C60.7467 61.9358 59.6508 62.4058 58.467 62.4058C58.4666 62.4058 58.4665 62.4058 58.4663 62.4058C56.9893 62.4056 55.5293 61.6505 54.6558 60.4351C53.8124 59.2618 53.613 57.8277 54.094 56.397C54.7535 54.4347 55.8187 52.8718 56.3948 52.115C56.5663 51.8895 56.6382 51.6109 56.5975 51.33C56.5565 51.0476 56.406 50.7983 56.1734 50.6279C56.0002 50.501 55.7924 50.4338 55.5725 50.4338C55.28 50.4338 54.9919 50.5543 54.7819 50.7641L49.9938 55.5522C49.3341 56.2119 48.4562 56.5752 47.5217 56.5752C47.3117 56.5752 47.1005 56.5563 46.894 56.5191L46.8064 56.5033L30.7812 70.6716C33.0993 72.5683 36.3783 73.869 39.0009 74.5726C40.5802 74.9963 42.0277 75.8091 43.1839 76.9653L58.474 92.2554C66.6487 89.6926 73.8171 84.8582 79.2438 78.493L61.7157 60.9642Z" fill="#D6694B"/>
<path d="M16.9603 66.1509L12.1393 70.9719C11.4223 71.6888 11.4223 72.8513 12.1393 73.5683L16.4912 77.9202C17.2081 78.6371 18.3706 78.6371 19.0876 77.9202L23.9085 73.0992L16.9603 66.1509Z" fill="#9FACDB"/>
<path d="M15.9826 70.9719L18.8819 68.0726L16.9602 66.1509L12.1393 70.9719C11.4223 71.6888 11.4223 72.8513 12.1393 73.5683L16.4912 77.9202C17.2081 78.6371 18.3706 78.6371 19.0876 77.9202L19.711 77.2967L15.9824 73.5681C15.2657 72.8513 15.2657 71.6888 15.9826 70.9719Z" fill="#8D9CC9"/>
<path d="M48.2514 26.353L44.1993 30.9363L48.3285 35.0655C50.045 36.7819 50.045 39.5745 48.3285 41.2909C47.4972 42.1223 46.3916 42.5801 45.2159 42.5801C44.0402 42.5801 42.9346 42.1223 42.1031 41.2909L41.7094 40.8971L41.4498 41.1567C43.1663 42.8732 43.1663 45.6658 41.4498 47.3822C40.6185 48.2137 39.5129 48.6716 38.3372 48.6716C37.1615 48.6716 36.0559 48.2137 35.2244 47.3822L35.0338 47.1915L34.7742 47.4511C35.6055 48.2826 36.0634 49.388 36.0634 50.5637C36.0634 51.7395 35.6055 52.8449 34.7742 53.6764C33.9427 54.5079 32.8371 54.9657 31.6614 54.9657C30.4856 54.9657 29.38 54.5079 28.5487 53.6764L28.2891 53.936L28.8735 54.5203C29.705 55.3518 30.1629 56.4573 30.1629 57.6332C30.1629 58.8091 29.705 59.9143 28.8735 60.7458C28.0422 61.5771 26.9366 62.035 25.7608 62.035C24.5851 62.035 23.4795 61.5771 22.6482 60.7458L20.0984 58.1961L15.9136 62.9293C15.271 63.6562 15.3048 64.7575 15.9909 65.4436L24.6143 74.067C25.3004 74.7531 26.4018 74.7869 27.1286 74.1443L47.0403 56.5401C46.2873 56.4376 45.591 56.0982 45.0446 55.5516L44.2808 54.7877C43.6199 54.1267 43.2558 53.2482 43.2558 52.3136C43.2558 51.3789 43.6199 50.5004 44.2808 49.8394L53.8723 40.2478C54.5333 39.5868 55.412 39.2229 56.3466 39.2229C57.2811 39.2229 58.1598 39.5868 58.8207 40.2478L61.6619 43.0889C61.7547 43.1818 61.8432 43.2782 61.933 43.3735L63.7053 41.8067L48.2514 26.353Z" fill="#596C97"/>
<path d="M48.2882 35.0219L52.2184 30.5765L48.1314 26.4894L44.2012 30.9347L48.2882 35.0219Z" fill="#465A82"/>
<path d="M23.6162 62.9289L24.5555 61.8666C23.8424 61.6644 23.1886 61.2837 22.6501 60.7454L20.1004 58.1956L15.9156 62.9289C15.273 63.6557 15.3068 64.7571 15.9928 65.4432L24.6162 74.0666C25.3023 74.7527 26.4037 74.7864 27.1306 74.1439L29.9243 71.674L23.6935 65.4432C23.0074 64.7571 22.9736 63.6557 23.6162 62.9289Z" fill="#465A82"/>
<path d="M84.8536 5.20599C78.3224 -1.32517 67.7334 -1.32517 61.2023 5.20599C57.6439 8.7644 56.029 13.527 56.3481 18.1818L71.8777 33.7115C76.5325 34.0306 81.2951 32.4155 84.8536 28.8573C91.3845 22.3261 91.3845 11.7372 84.8536 5.20599Z" fill="#8D9CC9"/>
<path d="M63.5127 3.4077L67.4029 7.29786C73.0254 3.25623 80.5902 3.12533 86.336 6.91103C85.8847 6.31913 85.3929 5.74815 84.852 5.2071C79.0211 -0.623838 69.9581 -1.2442 63.4336 3.33628C63.4602 3.35996 63.4874 3.38236 63.5127 3.4077Z" fill="#7A84AF"/>
<path d="M64.6438 9.78309L60.891 6.03025C60.8078 5.94708 60.7355 5.85749 60.6714 5.76385C57.5511 9.18017 56.1031 13.5767 56.3272 17.9036L60.4673 22.0437C60.1664 17.6945 61.5582 13.2512 64.6438 9.78309Z" fill="#7A84AF"/>
<path d="M77.2734 29.7844C78.4902 29.7844 79.4766 28.7981 79.4766 27.5813C79.4766 26.3645 78.4902 25.3782 77.2734 25.3782C76.0567 25.3782 75.0703 26.3645 75.0703 27.5813C75.0703 28.7981 76.0567 29.7844 77.2734 29.7844Z" fill="#596C97"/>
<path d="M72.3398 24.8503C73.5566 24.8503 74.543 23.864 74.543 22.6472C74.543 21.4305 73.5566 20.4441 72.3398 20.4441C71.1231 20.4441 70.1367 21.4305 70.1367 22.6472C70.1367 23.864 71.1231 24.8503 72.3398 24.8503Z" fill="#596C97"/>
<path d="M67.4082 19.9188C68.625 19.9188 69.6113 18.9324 69.6113 17.7156C69.6113 16.4989 68.625 15.5125 67.4082 15.5125C66.1915 15.5125 65.2051 16.4989 65.2051 17.7156C65.2051 18.9324 66.1915 19.9188 67.4082 19.9188Z" fill="#596C97"/>
<path d="M62.4746 14.9856C63.6914 14.9856 64.6777 13.9992 64.6777 12.7825C64.6777 11.5657 63.6914 10.5793 62.4746 10.5793C61.2579 10.5793 60.2715 11.5657 60.2715 12.7825C60.2715 13.9992 61.2579 14.9856 62.4746 14.9856Z" fill="#596C97"/>
<path d="M70.4905 32.0666C70.8839 31.9783 71.2583 31.7833 71.5645 31.4771C72.4248 30.6168 72.4248 29.2218 71.5645 28.3615C70.7042 27.5012 69.3092 27.5012 68.4489 28.3615C68.1427 28.6677 67.9475 29.0421 67.8594 29.4355L70.4905 32.0666Z" fill="#596C97"/>
<path d="M65.5551 27.1334C65.9485 27.0451 66.3229 26.8501 66.6291 26.5439C67.4894 25.6835 67.4894 24.2886 66.6291 23.4281C65.7688 22.5676 64.3739 22.5678 63.5133 23.4281C63.2071 23.7343 63.0121 24.1087 62.9238 24.5021L65.5551 27.1334Z" fill="#596C97"/>
<path d="M60.6235 22.1997C61.0169 22.1114 61.3912 21.9164 61.6975 21.6102C62.5578 20.7499 62.5578 19.3549 61.6975 18.4944C60.8372 17.6339 59.4422 17.6341 58.5817 18.4944C58.2755 18.8007 58.0805 19.175 57.9922 19.5685L60.6235 22.1997Z" fill="#596C97"/>
<path d="M65.4235 43.7836L46.276 24.6361C45.559 23.9191 45.559 22.7566 46.276 22.0397L52.072 16.2436C52.789 15.5267 53.9515 15.5267 54.6684 16.2436L73.8158 35.3912C74.5327 36.1081 74.5327 37.2706 73.8158 37.9876L68.0197 43.7836C67.303 44.5005 66.1404 44.5005 65.4235 43.7836Z" fill="#9FACDB"/>
<path d="M51.9914 24.6361C51.2745 23.9191 51.2745 22.7566 51.9914 22.0397L56.2279 17.8033L54.6682 16.2436C53.9513 15.5267 52.7888 15.5267 52.0718 16.2436L46.276 22.0397C45.559 22.7566 45.559 23.9191 46.276 24.6361L65.4235 43.7836C66.1404 44.5005 67.3029 44.5005 68.0199 43.7836L69.5795 42.224L51.9914 24.6361Z" fill="#8D9CC9"/>
<path d="M52.8439 41.2788C52.7719 40.2617 52.3509 39.2648 51.5734 38.4872C50.9905 37.9043 50.2833 37.5245 49.5377 37.3381C49.8056 38.7259 49.4033 40.2187 48.3308 41.2913C47.4995 42.1226 46.3939 42.5805 45.2181 42.5805C44.1509 42.5805 43.1423 42.2021 42.3433 41.5107L42.0119 41.8421C43.1419 43.5504 42.9555 45.8793 41.4523 47.3824C40.621 48.2139 39.5154 48.6718 38.3396 48.6718C37.9311 48.6718 37.5314 48.6152 37.1485 48.5082C37.1444 49.6365 37.5722 50.7664 38.4333 51.6272C39.7412 52.9352 41.6682 53.2416 43.2699 52.5533C43.2645 52.4736 43.2581 52.3943 43.2581 52.3137C43.2581 51.379 43.6222 50.5005 44.2831 49.8396L52.8439 41.2788Z" fill="#8D9CC9"/>
<path d="M42.6217 45.2639C42.4427 46.0402 42.056 46.7778 41.4524 47.3817C40.7674 48.0667 39.8962 48.4974 38.9531 48.6281C39.0482 49.2297 39.3244 49.8082 39.7881 50.2718C40.8798 51.3635 42.6059 51.4332 43.7789 50.4818C43.9208 50.2518 44.0871 50.035 44.2832 49.8391L44.5054 49.6169C45.1423 48.4794 44.9798 47.0148 44.0124 46.0475C43.6144 45.6491 43.1312 45.3902 42.6217 45.2639Z" fill="white"/>
<path d="M35.5511 52.6293C35.3484 53.01 35.0881 53.3627 34.7743 53.6763C33.9428 54.5078 32.8372 54.9657 31.6615 54.9657C31.6596 54.9657 31.658 54.9655 31.6562 54.9655C31.5032 55.8846 31.7786 56.8611 32.4877 57.5701C33.6542 58.7367 35.5456 58.7367 36.7121 57.5701C37.8787 56.4036 37.8787 54.5122 36.7121 53.3457C36.3743 53.0082 35.975 52.7714 35.5511 52.6293Z" fill="#A2E62E"/>
<path d="M48.4619 34.9358L41.4045 27.8785C39.6137 26.0877 36.7102 26.0877 34.9194 27.8785C33.1287 29.6693 33.1287 32.5726 34.9194 34.3636L34.5258 33.9699C32.735 32.1792 29.8315 32.1792 28.0407 33.9699C26.2499 35.7607 26.2499 38.6642 28.0407 40.455L27.85 40.2643C26.0592 38.4735 23.1558 38.4735 21.3649 40.2643C19.5741 42.055 19.5741 44.9584 21.3649 46.7493L21.9493 47.3337C20.1585 45.543 17.2549 45.543 15.4642 47.3337C13.6734 49.1245 13.6734 52.028 15.4642 53.8188L22.5213 60.876C24.3121 62.6667 27.2156 62.6667 29.0064 60.876C30.7972 59.0852 30.7972 56.1817 29.0064 54.3909L28.422 53.8065C30.2128 55.5973 33.1164 55.5973 34.9071 53.8065C36.6979 52.0157 36.6979 49.1122 34.9071 47.3214L35.0979 47.5122C36.8887 49.303 39.7922 49.303 41.583 47.5122C43.3737 45.7214 43.3737 42.8179 41.583 41.0271L41.9766 41.4207C43.7674 43.2115 46.6709 43.2115 48.4617 41.4207C50.2525 39.63 50.2526 36.7266 48.4619 34.9358Z" fill="#D6694B"/>
<path d="M45.8033 41.4198L38.7462 34.3626C36.9554 32.5718 36.9554 29.6683 38.7462 27.8775C39.1423 27.4813 39.5933 27.1731 40.0743 26.9522C38.3812 26.1747 36.3119 26.483 34.9173 27.8775C33.1265 29.6683 33.1265 32.5717 34.9173 34.3626L41.9745 41.4198C43.369 42.8144 45.4382 43.1224 47.1314 42.3451C46.6504 42.1242 46.1995 41.816 45.8033 41.4198Z" fill="#C4573A"/>
<path d="M38.8987 47.5106L31.8415 40.4535C30.0508 38.6627 30.0508 35.7593 31.8415 33.9684C32.2412 33.5687 32.6967 33.2588 33.1825 33.0376C31.4918 32.2676 29.4295 32.5773 28.0384 33.9684C26.2476 35.7591 26.2476 38.6627 28.0384 40.4535L35.0956 47.5106C36.4867 48.9017 38.5488 49.2116 40.2397 48.4414C39.7539 48.2202 39.2984 47.9103 38.8987 47.5106Z" fill="#C4573A"/>
<path d="M32.217 53.8057L25.1599 46.7485C23.3691 44.9577 23.3691 42.0542 25.1599 40.2634C25.5605 39.8628 26.0169 39.5527 26.5038 39.3313C24.8136 38.563 22.753 38.8733 21.3626 40.2634C19.5718 42.0542 19.5718 44.9577 21.3626 46.7485L28.4198 53.8057C29.8101 55.196 31.8706 55.5061 33.5609 54.7378C33.0739 54.5163 32.6175 54.2061 32.217 53.8057Z" fill="#C4573A"/>
<path d="M26.3424 60.8749L19.2852 53.8177C17.4944 52.027 17.4944 49.1234 19.2852 47.3327C19.6823 46.9357 20.1341 46.6271 20.6162 46.4061C18.9237 45.6304 16.8561 45.9388 15.4622 47.3327C13.6714 49.1234 13.6714 52.027 15.4622 53.8177L22.5194 60.8749C23.9132 62.2687 25.9807 62.5772 27.6734 61.8015C27.1913 61.5804 26.7393 61.272 26.3424 60.8749Z" fill="#C4573A"/>
<path d="M60.8907 3.40635C60.1666 4.13045 60.1666 5.30453 60.8907 6.02862L84.0296 29.1675C84.7537 29.8916 85.9278 29.8916 86.6519 29.1675C87.376 28.4434 87.376 27.2693 86.6519 26.5452L63.513 3.40635C62.7889 2.68226 61.6148 2.68226 60.8907 3.40635Z" fill="#596C97"/>
<path d="M70.5273 6.93677C71.7441 6.93677 72.7305 5.95039 72.7305 4.73364C72.7305 3.51689 71.7441 2.53052 70.5273 2.53052C69.3106 2.53052 68.3242 3.51689 68.3242 4.73364C68.3242 5.95039 69.3106 6.93677 70.5273 6.93677Z" fill="#596C97"/>
<path d="M75.4609 11.8689C76.6777 11.8689 77.6641 10.8825 77.6641 9.66577C77.6641 8.44902 76.6777 7.46265 75.4609 7.46265C74.2442 7.46265 73.2578 8.44902 73.2578 9.66577C73.2578 10.8825 74.2442 11.8689 75.4609 11.8689Z" fill="#596C97"/>
<path d="M80.3945 16.8016C81.6113 16.8016 82.5977 15.8153 82.5977 14.5985C82.5977 13.3818 81.6113 12.3954 80.3945 12.3954C79.1778 12.3954 78.1914 13.3818 78.1914 14.5985C78.1914 15.8153 79.1778 16.8016 80.3945 16.8016Z" fill="#596C97"/>
<path d="M85.3281 21.7357C86.5449 21.7357 87.5312 20.7493 87.5312 19.5326C87.5312 18.3158 86.5449 17.3295 85.3281 17.3295C84.1114 17.3295 83.125 18.3158 83.125 19.5326C83.125 20.7493 84.1114 21.7357 85.3281 21.7357Z" fill="#596C97"/>
<path d="M76.239 0.838366C75.3787 1.69869 75.3787 3.09363 76.239 3.95414C77.0993 4.81464 78.4943 4.81446 79.3548 3.95414C79.9415 3.36737 80.1273 2.5322 79.9138 1.78736C78.7939 1.28175 77.6299 0.905929 76.4441 0.659546C76.3732 0.714808 76.3042 0.77319 76.239 0.838366Z" fill="#596C97"/>
<path d="M82.7305 9.53284C83.9472 9.53284 84.9336 8.54647 84.9336 7.32971C84.9336 6.11296 83.9472 5.12659 82.7305 5.12659C81.5137 5.12659 80.5273 6.11296 80.5273 7.32971C80.5273 8.54647 81.5137 9.53284 82.7305 9.53284Z" fill="#596C97"/>
<path d="M86.1042 10.7052C85.2439 11.5655 85.2439 12.9605 86.1042 13.821C86.9645 14.6815 88.3595 14.6813 89.22 13.821C89.2852 13.7558 89.3437 13.6868 89.399 13.6159C89.1528 12.4301 88.7768 11.2661 88.2712 10.1462C87.5262 9.93282 86.691 10.1186 86.1042 10.7052Z" fill="#596C97"/>
<path d="M58.9503 40.1175C57.5122 38.6794 55.1806 38.6794 53.7425 40.1175L44.1508 49.7092C42.7127 51.1473 42.7127 53.4789 44.1508 54.917L44.9148 55.6809C46.3529 57.119 48.6845 57.119 50.1226 55.6809L54.9107 50.8928C55.2184 50.5851 55.7128 50.5176 56.0639 50.7749C56.4647 51.0687 56.5375 51.6215 56.2475 52.0026C55.6381 52.8031 54.5806 54.3684 53.9188 56.3373C52.3279 61.0694 58.2345 64.7055 61.7645 61.1754L61.7914 61.1484C66.8144 56.1254 66.8144 47.9816 61.7914 42.9584L58.9503 40.1175Z" fill="#C4573A"/>
<path d="M49.0469 56.2383L48.283 55.4744C46.8449 54.0363 46.8449 51.7046 48.283 50.2666L57.8747 40.6749C58.1578 40.3918 58.4763 40.1665 58.815 39.9949C57.3696 38.6845 55.1371 38.7226 53.7425 40.1171L44.1508 49.7088C42.7127 51.1469 42.7127 53.4785 44.1508 54.9166L44.9148 55.6805C46.0698 56.8355 47.8003 57.0608 49.1822 56.3606C49.1371 56.3196 49.0902 56.2818 49.0469 56.2383Z" fill="#A74B30"/>
</svg>
