<svg width="81" height="81" viewBox="0 0 81 81" fill="none" xmlns="http://www.w3.org/2000/svg">
<path fill-rule="evenodd" clip-rule="evenodd" d="M54.9301 0.129883C55.3834 0.129883 55.8052 0.364236 56.0476 0.751094C56.2907 1.13795 56.32 1.62386 56.1252 2.03778L45.1146 25.5195H64.1903C64.4887 25.5195 64.7783 25.6216 65.0121 25.809C65.5846 26.2678 65.6805 27.1087 65.2262 27.687L24.2171 79.8025C23.8568 80.2606 23.2436 80.4286 22.7036 80.2175C22.0221 79.9509 21.6836 79.1768 21.9474 78.4885L37.1255 38.8825H21.8582C21.7777 38.8825 21.6975 38.875 21.6185 38.8603C20.9 38.7265 20.4247 38.0294 20.5574 37.3035L27.1717 1.22347C27.2875 0.589736 27.8347 0.129716 28.4726 0.129883H54.9301ZM78.3698 1.10767L69.4219 10.0556L71.2295 11.8632L80.1774 2.9153L78.3698 1.10767ZM13.6889 39.241H0V41.1965H13.6889V39.241ZM66.4902 39.241H80.1791V41.1965H66.4902V39.241ZM0 76.5443L8.94792 67.5964L10.7556 69.4041L1.80764 78.352L0 76.5443ZM71.2295 68.5742L69.4219 70.3819L78.3698 79.3298L80.1774 77.5221L71.2295 68.5742ZM0 2.91531L1.80764 1.10767L10.7556 10.0556L8.94792 11.8632L0 2.91531Z" fill="url(#paint0_linear_1312_18063)"/>
<defs>
<linearGradient id="paint0_linear_1312_18063" x1="-1.63416e-07" y1="14.7778" x2="81.739" y2="16.7849" gradientUnits="userSpaceOnUse">
<stop offset="0.0500767" stop-color="#FA7558"/>
<stop offset="1" stop-color="#F95A63"/>
</linearGradient>
</defs>
</svg>
