<svg width="97" height="88" viewBox="0 0 97 88" fill="none" xmlns="http://www.w3.org/2000/svg">
<rect y="13.5214" width="96.9961" height="27.7794" rx="7.0736" fill="#E83E3E"/>
<path d="M79.0127 13.5214H89.927C93.8337 13.5214 97.0007 16.6884 97.0007 20.595V34.2272C97.0007 38.1338 93.8337 41.3008 89.927 41.3008H79.0127V13.5214Z" fill="#CD2727"/>
<path d="M8.37207 41.3012H88.7307V72.964C88.7307 80.7773 82.3968 87.1113 74.5835 87.1113H22.5193C14.706 87.1113 8.37207 80.7773 8.37207 72.964V41.3012Z" fill="#E83E3E"/>
<rect x="41.9922" y="41.4109" width="17.988" height="45.7002" fill="#FFCE36"/>
<rect x="38.876" y="13.5214" width="24.2257" height="27.7794" fill="#FFCE36"/>
<path d="M21.9258 3.84444C21.9258 1.89112 23.5093 0.307644 25.4626 0.307644H41.8897C45.5386 0.307644 48.4967 3.2657 48.4967 6.91465V13.5217H28.5328C24.8838 13.5217 21.9258 10.5636 21.9258 6.91465V3.84444Z" fill="#FFC73A"/>
<path d="M75.0742 4.24033C75.0742 2.28701 73.4907 0.703529 71.5374 0.703529H55.1103C51.4614 0.703529 48.5033 3.66159 48.5033 7.31053V13.9175H68.4672C72.1162 13.9175 75.0742 10.9595 75.0742 7.31053V4.24033Z" fill="#FFC73A"/>
<rect x="34.8994" y="7.57125" width="11.3666" height="22.9294" transform="rotate(31.7489 34.8994 7.57125)" fill="#FFCE36"/>
<path d="M28.3124 23.6278L27.4827 30.2256L22.74 27.2565L28.3124 23.6278Z" fill="#E83E3E"/>
<path d="M33.1324 26.3921L32.4334 33.0717L27.4292 29.9389L33.1324 26.3921Z" fill="#E83E3E"/>
<rect width="11.3666" height="22.9294" transform="matrix(-0.850363 0.526197 0.526197 0.850363 65.418 7.57105)" fill="#FFCE36"/>
<path d="M72.005 23.6277L72.8346 30.2254L77.5774 27.2563L72.005 23.6277Z" fill="#E83E3E"/>
<path d="M67.185 26.392L67.8839 33.0716L72.8882 29.9388L67.185 26.392Z" fill="#E83E3E"/>
<path d="M88.743 41.4741L79.0029 41.4109L79.0996 86.3959C83.6653 84.8497 87.7485 81.567 88.743 75.2886V41.4741Z" fill="#CD2727"/>
<path d="M8.27637 41.1924H88.6005" stroke="#CD2727" stroke-width="0.707361"/>
</svg>
