<svg width="94" height="95" viewBox="0 0 94 95" fill="none" xmlns="http://www.w3.org/2000/svg">
<path d="M47 0.111328C21.0442 0.111328 0 21.1556 0 47.1113C0 73.0671 21.0442 94.1113 47 94.1113C72.9557 94.1113 94 73.0671 94 47.1113C94 21.1556 72.9557 0.111328 47 0.111328ZM65.5297 51.7056C62.7332 55.0778 58.703 58.5088 54.05 62.4803C52.4637 63.8316 50.6542 65.3708 48.786 67.0041C48.2925 67.4388 47.658 67.6738 47 67.6738C46.342 67.6738 45.7075 67.4388 45.214 67.0041C43.3457 65.3708 41.5362 63.8316 39.95 62.4803C35.297 58.5088 31.2667 55.0778 28.4702 51.7056C25.3447 47.9338 23.8877 44.3501 23.8877 40.4491C23.8877 36.6421 25.192 33.1406 27.5537 30.5791C29.9507 27.9823 33.229 26.5488 36.801 26.5488C39.4682 26.5488 41.9122 27.3948 44.0625 29.0633C45.1552 29.8976 46.1305 30.9316 47 32.1301C47.8695 30.9316 48.8565 29.8976 49.9375 29.0633C52.0877 27.3948 54.5317 26.5488 57.199 26.5488C60.771 26.5488 64.0492 27.9823 66.4462 30.5791C68.808 33.1406 70.1122 36.6421 70.1122 40.4491C70.1122 44.3501 68.6552 47.9338 65.5297 51.7056Z" fill="#F43756"/>
</svg>
