<svg width="554" height="104" viewBox="0 0 554 104" fill="none" xmlns="http://www.w3.org/2000/svg">
<g filter="url(#filter0_ddd_1312_18517)">
<rect x="6.10742" y="5.71191" width="542.282" height="91.7601" rx="2.7597" fill="#8F93FE"/>
</g>
<g clip-path="url(#clip0_1312_18517)">
<path d="M88.4725 77.6601C88.153 77.6601 87.8338 77.5392 87.5902 77.2971L84.2269 73.9545C83.9927 73.7218 83.8613 73.4066 83.8613 73.0779C83.8613 72.7489 83.9927 72.4336 84.2269 72.2009L87.5902 68.8584C87.8241 68.6262 88.1415 68.4951 88.4725 68.4951C88.803 68.4951 89.1205 68.6257 89.3544 68.8584L92.7177 72.2009C92.9519 72.4336 93.0832 72.7489 93.0832 73.0779C93.0832 73.4066 92.9519 73.7221 92.7177 73.9545L89.3544 77.2971C89.1108 77.5392 88.7915 77.6601 88.4725 77.6601Z" fill="#4550B4"/>
<path d="M70.4213 19.7065C70.1023 19.7065 69.7831 19.5856 69.5395 19.3432L66.1761 16.0007C65.6887 15.5165 65.6887 14.7315 66.1761 14.2473L69.5395 10.9048C69.7733 10.6721 70.0908 10.5415 70.4213 10.5415C70.7523 10.5415 71.0698 10.6721 71.3037 10.9048L74.667 14.2473C74.9011 14.4795 75.0325 14.7953 75.0325 15.1237C75.0325 15.4527 74.9011 15.7682 74.667 16.0004L71.3037 19.3432C71.0601 19.5856 70.7406 19.7065 70.4213 19.7065Z" fill="#4550B4"/>
<path d="M48.0424 12.2686C46.0331 12.2686 44.3984 10.6441 44.3984 8.64736C44.3984 6.65041 46.0331 5.02612 48.0424 5.02612C50.0515 5.02612 51.6856 6.65041 51.6856 8.64736C51.6856 10.6441 50.0515 12.2686 48.0424 12.2686Z" fill="#4550B4"/>
<path d="M82.2991 45.3852C78.5663 45.3852 75.5293 42.367 75.5293 38.6572C75.5293 34.947 78.5663 31.9292 82.2991 31.9292C86.0319 31.9292 89.0684 34.947 89.0684 38.6572C89.0684 42.367 86.0319 45.3852 82.2991 45.3852V45.3852Z" fill="#4550B4"/>
<path d="M112.184 64.0758C112.837 64.0758 113.462 63.5058 113.432 62.8359C113.401 62.1642 112.884 61.5959 112.184 61.5959C111.532 61.5959 110.906 62.1663 110.937 62.8359C110.967 63.5075 111.485 64.0758 112.184 64.0758Z" fill="#4550B4"/>
<path d="M113.298 68.4479C113.95 68.4479 114.575 67.8776 114.545 67.2079C114.515 66.536 113.997 65.968 113.298 65.968C112.645 65.968 112.02 66.5381 112.05 67.2079C112.08 67.8796 112.598 68.4479 113.298 68.4479V68.4479Z" fill="#4550B4"/>
<path d="M116.585 65.1842C117.237 65.1842 117.862 64.6137 117.832 63.944C117.802 63.2724 117.284 62.7043 116.585 62.7043C115.932 62.7043 115.307 63.2744 115.337 63.944C115.367 64.6159 115.886 65.1842 116.585 65.1842V65.1842Z" fill="#4550B4"/>
<path d="M30.9574 79.2543C31.61 79.2543 32.2352 78.684 32.2051 78.0143C32.1746 77.3427 31.6568 76.7744 30.9574 76.7744C30.3051 76.7744 29.6796 77.345 29.7101 78.0143C29.7402 78.6863 30.2578 79.2543 30.9574 79.2543V79.2543Z" fill="#4550B4"/>
<path d="M32.0731 83.6263C32.7257 83.6263 33.3509 83.056 33.3205 82.3864C33.2904 81.7145 32.7725 81.1467 32.0731 81.1467C31.4203 81.1467 30.7953 81.7168 30.8253 82.3864C30.8557 83.0583 31.3735 83.6263 32.0731 83.6263Z" fill="#4550B4"/>
<path d="M35.3539 80.3624C36.0067 80.3624 36.6317 79.7924 36.6018 79.1227C36.5716 78.4508 36.0538 77.8828 35.3539 77.8828C34.7016 77.8828 34.0761 78.4529 34.1065 79.1227C34.1367 79.7944 34.6546 80.3624 35.3539 80.3624Z" fill="#4550B4"/>
<path d="M16.271 7.53596C17.8518 7.53596 19.367 6.15503 19.2933 4.53288C19.2203 2.90518 17.9658 1.52856 16.271 1.52856C14.6902 1.52856 13.1756 2.91072 13.2486 4.53288C13.3223 6.15934 14.5768 7.53596 16.271 7.53596Z" fill="#4550B4"/>
<path d="M5.61669 10.2208C7.19691 10.2208 8.71211 8.83861 8.63842 7.21646C8.56536 5.59 7.31084 4.21338 5.61669 4.21338C4.03585 4.21338 2.52127 5.5943 2.59434 7.21646C2.66802 8.84415 3.92254 10.2208 5.61669 10.2208Z" fill="#4550B4"/>
<path d="M13.5712 18.1271C15.1526 18.1271 16.6666 16.7462 16.5935 15.1241C16.5205 13.4964 15.2653 12.1204 13.5712 12.1204C11.991 12.1204 10.4758 13.5019 10.5495 15.1241C10.6225 16.7518 11.877 18.1271 13.5712 18.1271Z" fill="#4550B4"/>
<path d="M112.644 53.3804C112.399 52.7741 111.706 52.4798 111.095 52.7232C109.795 53.2427 108.038 53.0667 106.513 52.2648C105.951 51.9696 105.447 51.6091 105.017 51.2006C106.17 50.7282 107.077 49.9333 107.635 48.8851L107.648 48.8596C108.099 48.0127 108.235 47.0561 108.032 46.1659C107.816 45.2239 107.225 44.438 106.409 44.009C104.763 43.1431 102.639 43.9108 101.676 45.7204L101.663 45.7456C101.105 46.7938 100.954 47.9855 101.21 49.1988C100.628 49.0756 100.044 48.8643 99.4829 48.5692C99.054 48.3438 98.3006 47.7075 97.7301 47.0891C97.2851 46.6074 96.5324 46.5749 96.048 47.0168C95.5636 47.4583 95.5306 48.2068 95.9753 48.6883C96.5649 49.3275 97.5459 50.2278 98.3699 50.661C99.6329 51.3252 100.998 51.6775 102.319 51.6918C103.075 52.7693 104.136 53.6922 105.399 54.3566C106.696 55.0383 108.101 55.3866 109.442 55.3866C110.335 55.3866 111.199 55.2322 111.983 54.9195C112.593 54.6756 112.889 53.9867 112.644 53.3804V53.3804ZM103.768 46.852L103.781 46.8268C104.047 46.3284 104.521 46.0166 104.943 46.0166C105.067 46.0166 105.187 46.0435 105.295 46.1005C105.572 46.2459 105.674 46.5322 105.71 46.69C105.786 47.0238 105.725 47.4112 105.544 47.7533L105.53 47.7785C105.175 48.4441 104.522 48.9261 103.666 49.1624C103.38 48.3254 103.413 47.5176 103.768 46.852Z" fill="#4550B4"/>
<path d="M36.9938 92.6001C37.2241 92.4147 37.7644 92.147 38.2508 91.9769C38.6297 91.8445 38.8287 91.4321 38.6954 91.0556C38.5622 90.6793 38.1471 90.4815 37.7683 90.6139C37.2655 90.7897 36.5214 91.1211 36.0793 91.4768C35.4007 92.0223 34.8743 92.6994 34.549 93.4334C33.759 93.5964 32.9829 93.9669 32.3044 94.5124C31.1443 95.4454 30.4349 96.7685 30.4064 98.0515C30.3975 98.4503 30.7158 98.7809 31.1172 98.7896C31.1229 98.7897 31.1282 98.7897 31.1336 98.7897C31.5277 98.7897 31.8513 98.4765 31.8601 98.0832C31.8789 97.2327 32.3996 96.2948 33.219 95.6358C33.5204 95.3933 33.845 95.1985 34.1791 95.0567C34.1695 95.8138 34.401 96.5101 34.8597 97.0738L34.8703 97.0866C35.6613 98.0583 37.0243 98.2702 37.9085 97.5592C38.3467 97.2068 38.6081 96.6666 38.6258 96.077C38.6425 95.52 38.4475 94.9627 38.0769 94.5075L38.0661 94.4942C37.6076 93.9311 36.9707 93.5609 36.2236 93.4126C36.4329 93.1174 36.6923 92.8425 36.9938 92.6001ZM36.9359 95.4034L36.9469 95.4165C37.0964 95.6004 37.1786 95.8252 37.1722 96.0339C37.1694 96.133 37.1423 96.3165 36.9938 96.436C36.7373 96.6422 36.2824 96.5239 35.9999 96.1769L35.9893 96.1642C35.6983 95.8066 35.583 95.3265 35.6549 94.7914C36.1964 94.8332 36.6447 95.0456 36.9359 95.4034Z" fill="#4550B4"/>
<path d="M23.7092 24.343C21.2911 24.5338 19.1443 25.8286 17.7944 27.8261C17.114 28.8331 16.7518 29.9767 16.6145 31.1732C16.4688 32.449 16.8614 36.5351 14.9926 36.8023C14.348 36.8945 13.7138 37.3465 13.7453 38.0423C13.7741 38.6824 14.2948 39.3211 14.9926 39.2822C16.3415 39.2065 17.4212 38.4545 18.1369 37.3388C18.8618 36.2081 19.0295 34.8742 19.0451 33.5614C19.0602 32.2938 19.0471 31.1242 19.473 29.9145C20.1997 28.3148 21.7658 27.1201 23.5088 26.8361C24.2204 26.7945 24.9921 26.3997 24.9566 25.583C24.9287 24.955 24.406 24.2879 23.7092 24.343V24.343Z" fill="#4550B4"/>
<path fill-rule="evenodd" clip-rule="evenodd" d="M105.941 93.7437L104.479 91.8503L102.275 92.0127L102.042 89.8262L100.166 88.6685L101.268 86.7616L100.436 84.7261L102.453 83.827L102.982 81.6911L105.144 82.1435L106.851 80.4606L108.314 82.354L110.517 82.1916L110.75 84.3781L112.627 85.5358L111.524 87.4427L112.357 89.4782L110.339 90.3773L109.81 92.5132L107.648 92.0608L105.941 93.7437ZM108.107 85.1021L108.108 85.1013L108.623 85.6873L107.983 86.2423L106.36 87.6526L106.36 87.6518L104.69 89.102L104.175 88.5161L106.435 86.5537L106.435 86.5525L108.106 85.101L108.107 85.1021ZM106.684 88.6848C106.728 88.041 107.29 87.5523 107.937 87.5953C108.584 87.6383 109.074 88.1969 109.03 88.8407C108.986 89.4845 108.424 89.9732 107.777 89.9302C107.13 89.8872 106.64 89.3286 106.684 88.6848ZM107.466 88.7368C107.451 88.9513 107.615 89.1376 107.83 89.1519C108.046 89.1662 108.233 89.0033 108.248 88.7887C108.263 88.5742 108.099 88.3879 107.884 88.3736C107.668 88.3593 107.481 88.5222 107.466 88.7368ZM105.017 84.2739C104.37 84.2309 103.808 84.7197 103.764 85.3634C103.72 86.0072 104.21 86.5659 104.857 86.6089C105.504 86.6519 106.066 86.1631 106.11 85.5194C106.154 84.8756 105.664 84.3169 105.017 84.2739ZM104.91 85.8306C104.695 85.8162 104.531 85.63 104.546 85.4154C104.561 85.2008 104.748 85.0379 104.964 85.0522C105.179 85.0666 105.343 85.2528 105.328 85.4674C105.313 85.682 105.126 85.8449 104.91 85.8306Z" fill="#4550B4"/>
<path fill-rule="evenodd" clip-rule="evenodd" d="M42.4677 37.6449L40.0539 34.925L36.7293 35.3927L36.1488 32.1053L33.1836 30.5411L34.6575 27.5428L33.1836 24.5445L36.1488 22.9803L36.7293 19.6929L40.0539 20.1606L42.4677 17.4407L44.8815 20.1606L48.2062 19.6929L48.7866 22.9803L51.7518 24.5445L50.278 27.5428L51.7518 30.5411L48.7866 32.1053L48.2062 35.3927L44.8815 34.925L42.4677 37.6449ZM44.8525 24.3393L44.8542 24.3377L45.6963 25.1746L40.0901 30.7461L39.248 29.9092L42.4688 26.7084V26.7056L44.8511 24.338L44.8525 24.3393ZM43.0684 29.9102C43.0684 28.931 43.8699 28.1345 44.8552 28.1345C45.8404 28.1345 46.6419 28.931 46.6419 29.9102C46.6419 30.8894 45.8404 31.686 44.8552 31.686C43.8699 31.686 43.0684 30.8894 43.0684 29.9102ZM44.2596 29.9102C44.2596 30.2366 44.5267 30.5021 44.8552 30.5021C45.1836 30.5021 45.4508 30.2366 45.4508 29.9102C45.4508 29.5838 45.1836 29.3183 44.8552 29.3183C44.5267 29.3183 44.2596 29.5838 44.2596 29.9102ZM40.0895 23.3988C39.1043 23.3988 38.3027 24.1954 38.3027 25.1746C38.3027 26.1538 39.1043 26.9504 40.0895 26.9504C41.0748 26.9504 41.8763 26.1538 41.8763 25.1746C41.8763 24.1954 41.0748 23.3988 40.0895 23.3988ZM40.0895 25.7665C39.7611 25.7665 39.4939 25.501 39.4939 25.1746C39.4939 24.8482 39.7611 24.5827 40.0895 24.5827C40.4179 24.5827 40.6851 24.8482 40.6851 25.1746C40.6851 25.501 40.4179 25.7665 40.0895 25.7665Z" fill="#4550B4"/>
<g clip-path="url(#clip1_1312_18517)">
<path d="M99.1675 17.3859L99.0337 17.0353C98.9569 16.8344 98.8383 16.652 98.6859 16.5002C98.5335 16.3484 98.3506 16.2307 98.1493 16.1547C97.9481 16.0787 97.733 16.0462 97.5183 16.0593C97.3035 16.0725 97.094 16.131 96.9035 16.231C96.7571 16.3078 96.5876 16.328 96.4272 16.2878C96.2669 16.2475 96.127 16.1496 96.0342 16.0128C95.9825 15.9367 95.9469 15.8507 95.9297 15.7603C95.9126 15.6698 95.9142 15.5768 95.9345 15.487C95.9548 15.3972 95.9933 15.3126 96.0477 15.2383C96.1021 15.164 96.1712 15.1017 96.2507 15.0552L96.4747 14.9239C96.8854 14.683 97.3505 14.5501 97.8266 14.5376C98.3026 14.5251 98.774 14.6334 99.1969 14.8525C99.6005 15.0615 99.9475 15.365 100.208 15.7372L103.628 20.6162C103.669 20.6735 103.691 20.7418 103.691 20.8119C103.691 20.8821 103.67 20.9506 103.63 21.0083C103.59 21.0659 103.534 21.11 103.468 21.1343C103.402 21.1587 103.331 21.1623 103.263 21.1446L103.213 21.1319L99.1675 17.3859Z" fill="#4550B4"/>
<path d="M99.8596 16.9204C99.6642 16.3521 99.2668 15.8753 98.743 15.5808C98.7208 15.5685 98.6985 15.5569 98.6763 15.5466C98.2535 15.3276 97.7821 15.2192 97.3061 15.2317C96.83 15.2441 96.3649 15.3769 95.9541 15.6177L95.9199 15.6383C95.9193 15.7731 95.9595 15.9049 96.0352 16.0165C96.128 16.1534 96.268 16.2512 96.4284 16.2914C96.5888 16.3316 96.7585 16.3113 96.9048 16.2343C97.0953 16.1343 97.3048 16.0758 97.5196 16.0627C97.7343 16.0495 97.9494 16.082 98.1506 16.158C98.3519 16.234 98.5348 16.3518 98.6872 16.5036C98.8396 16.6554 98.9582 16.8377 99.035 17.0387L99.1688 17.3892L100.337 18.2845L99.8596 16.9204Z" fill="#4550B4"/>
<path d="M99.6863 16.9419C99.4258 16.5697 99.0793 16.266 98.6761 16.0568C98.2532 15.8379 97.7818 15.7297 97.3058 15.7422C96.8298 15.7547 96.3647 15.8875 95.9539 16.1283L95.7292 16.2599C95.65 16.3064 95.5812 16.3687 95.527 16.4428C95.4728 16.517 95.4343 16.6015 95.4141 16.691C95.3938 16.7806 95.3922 16.8734 95.4092 16.9637C95.4262 17.0539 95.4616 17.1397 95.5131 17.2158C95.606 17.3524 95.7459 17.45 95.9061 17.4901C96.0664 17.5302 96.2357 17.51 96.382 17.4333C96.5725 17.3332 96.782 17.2747 96.9967 17.2615C97.2114 17.2483 97.4265 17.2808 97.6277 17.3568C97.829 17.4328 98.0118 17.5506 98.1642 17.7024C98.3167 17.8543 98.4351 18.0367 98.5119 18.2376L98.646 18.5882C98.8084 19.0142 98.808 19.4851 98.645 19.9108C98.482 20.3366 98.1677 20.6873 97.7623 20.8959L95.7658 21.9027C95.6448 21.9648 95.5453 22.0618 95.48 22.1811C95.4147 22.3004 95.3867 22.4365 95.3995 22.5719C95.4358 22.9546 95.8034 23.2313 96.1861 23.1834L98.3457 22.9098C98.733 22.8609 99.1265 22.9077 99.4915 23.046C99.8566 23.1843 100.182 23.41 100.44 23.7032L101.163 24.5263L103.224 27.0245C103.241 27.0452 103.264 27.0604 103.289 27.0684C103.315 27.0764 103.342 27.0768 103.368 27.0695C103.393 27.0622 103.416 27.0476 103.434 27.0275C103.451 27.0074 103.462 26.9826 103.466 26.9561L104.145 21.5097C104.156 21.4253 104.135 21.34 104.086 21.2703L103.397 20.2885L99.6863 16.9419Z" fill="#4550B4"/>
<path d="M92.9587 13.64C92.9105 13.64 92.8632 13.6265 92.8223 13.6009C92.7815 13.5753 92.7486 13.5387 92.7275 13.4954L92.0802 12.1616C92.0649 12.1312 92.0558 12.0981 92.0534 12.0641C92.051 12.0302 92.0554 11.9961 92.0663 11.9638C92.0772 11.9316 92.0944 11.9018 92.1169 11.8763C92.1394 11.8508 92.1668 11.83 92.1974 11.8151C92.228 11.8002 92.2613 11.7916 92.2953 11.7897C92.3292 11.7878 92.3633 11.7927 92.3953 11.8041C92.4274 11.8154 92.4569 11.8331 92.4821 11.8559C92.5074 11.8788 92.5278 11.9065 92.5422 11.9373L93.1896 13.271C93.2085 13.3102 93.2171 13.3535 93.2148 13.3969C93.2124 13.4403 93.1991 13.4824 93.176 13.5192C93.1529 13.5561 93.1209 13.5865 93.0829 13.6076C93.0449 13.6288 93.0022 13.6399 92.9587 13.64V13.64Z" fill="#4550B4"/>
<path d="M95.3919 13.1263C95.3238 13.1263 95.2585 13.0992 95.2103 13.051C95.1622 13.0029 95.1351 12.9376 95.1351 12.8694V11.5357C95.1333 11.5009 95.1386 11.4661 95.1507 11.4334C95.1628 11.4007 95.1814 11.3709 95.2054 11.3456C95.2294 11.3203 95.2582 11.3002 95.2903 11.2865C95.3223 11.2727 95.3568 11.2656 95.3916 11.2656C95.4264 11.2656 95.4609 11.2727 95.4929 11.2865C95.5249 11.3002 95.5538 11.3203 95.5778 11.3456C95.6018 11.3709 95.6204 11.4007 95.6325 11.4334C95.6446 11.4661 95.6499 11.5009 95.6481 11.5357V12.8694C95.6481 12.9374 95.6211 13.0027 95.5731 13.0508C95.5251 13.0989 95.4599 13.1261 95.3919 13.1263V13.1263Z" fill="#4550B4"/>
<path d="M97.8267 13.6398C97.7833 13.6396 97.7405 13.6285 97.7025 13.6074C97.6645 13.5863 97.6325 13.5558 97.6095 13.519C97.5864 13.4821 97.5731 13.44 97.5707 13.3966C97.5683 13.3532 97.577 13.3099 97.5959 13.2708L98.2433 11.937C98.2581 11.9067 98.2788 11.8795 98.3041 11.8571C98.3294 11.8347 98.3589 11.8175 98.3908 11.8065C98.4228 11.7955 98.4566 11.7909 98.4904 11.793C98.5241 11.795 98.5571 11.8037 98.5875 11.8185C98.6179 11.8334 98.645 11.854 98.6674 11.8793C98.6898 11.9047 98.707 11.9341 98.718 11.9661C98.729 11.9981 98.7336 12.0319 98.7316 12.0656C98.7295 12.0994 98.7208 12.1324 98.706 12.1627L98.0586 13.4965C98.0373 13.5397 98.0042 13.5761 97.9632 13.6014C97.9222 13.6268 97.8749 13.64 97.8267 13.6398V13.6398Z" fill="#4550B4"/>
<path d="M100.606 14.5136C100.567 14.5137 100.529 14.5048 100.494 14.4876C100.433 14.458 100.386 14.4053 100.364 14.3412C100.342 14.2771 100.346 14.2068 100.375 14.1456L100.733 13.408C100.748 13.3772 100.768 13.3495 100.793 13.3266C100.819 13.3038 100.848 13.2861 100.88 13.2748C100.912 13.2634 100.946 13.2585 100.98 13.2604C101.014 13.2623 101.048 13.2709 101.078 13.2858C101.109 13.3007 101.136 13.3215 101.159 13.347C101.181 13.3725 101.198 13.4023 101.209 13.4345C101.22 13.4668 101.225 13.5009 101.222 13.5348C101.22 13.5688 101.211 13.6019 101.195 13.6323L100.837 14.369C100.816 14.4123 100.783 14.4489 100.742 14.4745C100.701 14.5001 100.654 14.5136 100.606 14.5136V14.5136Z" fill="#4550B4"/>
<path d="M90.1795 14.5137C90.1313 14.5137 90.084 14.5001 90.0432 14.4745C90.0023 14.4489 89.9694 14.4124 89.9483 14.369L89.5899 13.6314C89.5746 13.601 89.5655 13.5678 89.5631 13.5339C89.5607 13.4999 89.5651 13.4658 89.576 13.4336C89.5869 13.4013 89.6042 13.3716 89.6267 13.346C89.6492 13.3205 89.6765 13.2997 89.7071 13.2848C89.7378 13.27 89.771 13.2613 89.805 13.2594C89.839 13.2575 89.873 13.2624 89.9051 13.2738C89.9372 13.2852 89.9667 13.3028 89.9919 13.3257C90.0171 13.3485 90.0375 13.3762 90.052 13.407L90.4104 14.1447C90.4398 14.2058 90.4439 14.2761 90.4216 14.3402C90.3994 14.4043 90.3527 14.4569 90.2917 14.4867C90.2569 14.5042 90.2185 14.5134 90.1795 14.5137V14.5137Z" fill="#4550B4"/>
<path d="M91.6193 17.3859L91.753 17.0353C91.8299 16.8344 91.9484 16.652 92.1009 16.5002C92.2533 16.3484 92.4362 16.2307 92.6374 16.1547C92.8387 16.0787 93.0538 16.0462 93.2685 16.0593C93.4832 16.0725 93.6927 16.131 93.8832 16.231C94.0296 16.3078 94.1992 16.328 94.3595 16.2878C94.5199 16.2475 94.6598 16.1496 94.7525 16.0128C94.8043 15.9367 94.8399 15.8507 94.857 15.7603C94.8742 15.6698 94.8726 15.5768 94.8523 15.487C94.832 15.3972 94.7934 15.3126 94.739 15.2383C94.6846 15.164 94.6155 15.1017 94.5361 15.0552L94.3121 14.9239C93.9013 14.683 93.4362 14.5501 92.9602 14.5376C92.4842 14.5251 92.0127 14.6334 91.5899 14.8525C91.1863 15.0615 90.8392 15.365 90.5783 15.7372L87.1585 20.6162C87.118 20.6735 87.0961 20.7418 87.0957 20.8119C87.0953 20.8821 87.1166 20.9506 87.1565 21.0083C87.1964 21.0659 87.253 21.11 87.3188 21.1343C87.3845 21.1587 87.4562 21.1623 87.5241 21.1446L87.5733 21.1319L91.6193 17.3859Z" fill="#4550B4"/>
<path d="M90.9266 16.9204C91.122 16.3521 91.5194 15.8753 92.0432 15.5808C92.0654 15.5685 92.0877 15.5569 92.1099 15.5466C92.5327 15.3276 93.0041 15.2192 93.4801 15.2317C93.9562 15.2441 94.4213 15.3769 94.8321 15.6177L94.8663 15.6383C94.8669 15.7731 94.8267 15.9049 94.751 16.0165C94.6582 16.1534 94.5182 16.2512 94.3578 16.2914C94.1973 16.3316 94.0277 16.3113 93.8814 16.2343C93.6909 16.1343 93.4814 16.0758 93.2666 16.0627C93.0519 16.0495 92.8368 16.082 92.6356 16.158C92.4343 16.234 92.2514 16.3518 92.099 16.5036C91.9465 16.6554 91.828 16.8377 91.7511 17.0387L91.6174 17.3892L90.4492 18.2814L90.9266 16.9204Z" fill="#4550B4"/>
<path d="M91.1002 16.9419C91.3606 16.5697 91.7072 16.266 92.1104 16.0568C92.5333 15.8379 93.0047 15.7297 93.4807 15.7422C93.9567 15.7547 94.4218 15.8875 94.8326 16.1283L95.0573 16.2599C95.1365 16.3064 95.2053 16.3687 95.2595 16.4428C95.3137 16.517 95.3521 16.6015 95.3724 16.691C95.3926 16.7806 95.3943 16.8734 95.3773 16.9637C95.3602 17.0539 95.3249 17.1397 95.2734 17.2158C95.1805 17.3524 95.0406 17.45 94.8803 17.4901C94.7201 17.5302 94.5507 17.51 94.4044 17.4333C94.214 17.3332 94.0045 17.2747 93.7898 17.2615C93.575 17.2483 93.36 17.2808 93.1587 17.3568C92.9575 17.4328 92.7746 17.5506 92.6222 17.7024C92.4698 17.8543 92.3513 18.0367 92.2745 18.2376L92.1405 18.5882C91.9781 19.0142 91.9784 19.4851 92.1414 19.9108C92.3045 20.3366 92.6188 20.6873 93.0242 20.8959L95.0207 21.902C95.1416 21.9641 95.2412 22.0611 95.3065 22.1804C95.3717 22.2997 95.3998 22.4358 95.3869 22.5712C95.3507 22.9539 94.983 23.2306 94.6004 23.1827L92.4407 22.9091C92.0534 22.8603 91.66 22.907 91.2949 23.0453C90.9298 23.1836 90.6042 23.4093 90.3464 23.7025L89.6242 24.525L87.562 27.0245C87.5451 27.0452 87.5226 27.0604 87.4972 27.0684C87.4717 27.0764 87.4445 27.0768 87.4189 27.0695C87.3932 27.0622 87.3703 27.0476 87.3528 27.0275C87.3353 27.0074 87.3241 26.9826 87.3206 26.9561L86.6414 21.508C86.6307 21.4236 86.6518 21.3383 86.7006 21.2686L87.391 20.2871L91.1002 16.9419Z" fill="#4550B4"/>
</g>
<g clip-path="url(#clip2_1312_18517)">
<path d="M12.3261 89.1572L12.4928 88.821C12.5882 88.6282 12.6416 88.4174 12.6496 88.2024C12.6576 87.9874 12.62 87.7732 12.5392 87.5738C12.4584 87.3744 12.3363 87.1944 12.1809 87.0457C12.0254 86.8969 11.8403 86.7827 11.6376 86.7107C11.4818 86.6554 11.3519 86.5446 11.2726 86.3995C11.1933 86.2544 11.1702 86.0852 11.2077 85.9242C11.2285 85.8346 11.2675 85.7501 11.3223 85.6761C11.377 85.6021 11.4465 85.5402 11.5262 85.4941C11.6059 85.4481 11.6942 85.4189 11.7857 85.4085C11.8772 85.398 11.9698 85.4064 12.0579 85.4333L12.3063 85.5086C12.7621 85.6468 13.1754 85.8981 13.5076 86.2392C13.8399 86.5803 14.0804 87 14.2065 87.4592C14.3269 87.8975 14.3396 88.3584 14.2434 88.8026L12.9816 94.6257C12.967 94.6943 12.9317 94.7567 12.8805 94.8046C12.8292 94.8525 12.7645 94.8834 12.6951 94.8933C12.6256 94.9031 12.5548 94.8913 12.4923 94.8596C12.4298 94.8279 12.3785 94.7777 12.3454 94.7158L12.3213 94.6711L12.3261 89.1572Z" fill="#4550B4"/>
<path d="M13.1403 89.3488C13.425 88.8196 13.5053 88.2042 13.3661 87.6196C13.3601 87.595 13.3535 87.5707 13.3459 87.5475C13.2198 87.0883 12.9794 86.6686 12.6472 86.3274C12.3149 85.9863 11.9017 85.7349 11.446 85.5967L11.4077 85.5855C11.3083 85.6765 11.2387 85.7955 11.2082 85.9268C11.1707 86.0879 11.1939 86.2571 11.2732 86.4022C11.3526 86.5473 11.4827 86.6581 11.6385 86.7133C11.8412 86.7854 12.0264 86.8995 12.1818 87.0483C12.3372 87.197 12.4593 87.377 12.5401 87.5764C12.6209 87.7758 12.6586 87.99 12.6506 88.205C12.6426 88.42 12.5891 88.6308 12.4937 88.8236L12.3271 89.1598L12.4627 90.6256L13.1403 89.3488Z" fill="#4550B4"/>
<path d="M13.0065 89.2372C13.1031 88.7933 13.0908 88.3327 12.9708 87.8946C12.8445 87.4355 12.604 87.0158 12.2718 86.6748C11.9395 86.3337 11.5263 86.0823 11.0706 85.944L10.8215 85.8684C10.7335 85.8418 10.6411 85.8335 10.5499 85.844C10.4586 85.8545 10.3705 85.8837 10.291 85.9296C10.2114 85.9755 10.1422 86.0373 10.0874 86.111C10.0327 86.1848 9.99371 86.269 9.97281 86.3585C9.93558 86.5194 9.95883 86.6884 10.0381 86.8333C10.1175 86.9782 10.2473 87.0889 10.4029 87.1442C10.6056 87.2162 10.7908 87.3303 10.9462 87.479C11.1017 87.6278 11.2238 87.8077 11.3046 88.0071C11.3854 88.2065 11.423 88.4207 11.4149 88.6357C11.4069 88.8507 11.3533 89.0615 11.2579 89.2543L11.0914 89.5907C10.8888 89.9991 10.5428 90.3185 10.1195 90.4877C9.69614 90.657 9.22527 90.6642 8.79694 90.5081L6.70246 89.7253C6.57471 89.6786 6.43592 89.6714 6.30399 89.7044C6.17207 89.7374 6.05308 89.8092 5.96237 89.9106C5.70595 90.1969 5.75231 90.6547 6.04721 90.9032L7.71397 92.3035C8.01275 92.5548 8.24543 92.8754 8.39166 93.2374C8.53789 93.5994 8.59323 93.9917 8.55283 94.38L8.43927 95.4699L8.00367 98.6791C7.99998 98.7055 8.00408 98.7324 8.01547 98.7565C8.02687 98.7806 8.04505 98.8009 8.0678 98.8148C8.09055 98.8287 8.11686 98.8357 8.1435 98.8348C8.17015 98.834 8.19596 98.8253 8.21778 98.81L12.6787 95.6123C12.7479 95.5629 12.7963 95.4895 12.8143 95.4063L13.0679 94.2341L13.0065 89.2372Z" fill="#4550B4"/>
<path d="M10.8672 82.0577C10.8344 82.0223 10.8123 81.9784 10.8033 81.931C10.7944 81.8836 10.7989 81.8347 10.8165 81.7898L11.3565 80.4091C11.3685 80.3772 11.3866 80.348 11.4099 80.3232C11.4333 80.2984 11.4613 80.2785 11.4923 80.2646C11.5234 80.2508 11.557 80.2432 11.591 80.2424C11.625 80.2416 11.6589 80.2476 11.6906 80.26C11.7223 80.2724 11.7512 80.2909 11.7756 80.3146C11.8001 80.3383 11.8196 80.3666 11.833 80.3978C11.8465 80.4291 11.8535 80.4628 11.8539 80.4968C11.8542 80.5308 11.8477 80.5646 11.8349 80.5961L11.2948 81.9768C11.2789 82.0172 11.253 82.053 11.2195 82.0807C11.186 82.1085 11.146 82.1272 11.1033 82.1353C11.0606 82.1434 11.0166 82.1405 10.9753 82.127C10.9339 82.1134 10.8968 82.0896 10.8672 82.0577V82.0577Z" fill="#4550B4"/>
<path d="M12.8961 83.4969C12.8498 83.4469 12.8253 83.3806 12.828 83.3125C12.8307 83.2444 12.8603 83.1802 12.9103 83.134L13.8898 82.2287C13.9141 82.2038 13.9433 82.1841 13.9755 82.1708C14.0077 82.1574 14.0422 82.1508 14.0771 82.1513C14.1119 82.1518 14.1463 82.1593 14.1781 82.1735C14.21 82.1877 14.2386 82.2082 14.2622 82.2338C14.2859 82.2594 14.3041 82.2895 14.3157 82.3223C14.3273 82.3552 14.3322 82.39 14.3299 82.4248C14.3276 82.4596 14.3183 82.4935 14.3025 82.5246C14.2867 82.5556 14.2647 82.5831 14.238 82.6054L13.2585 83.5107C13.2086 83.5569 13.1424 83.5813 13.0744 83.5788C13.0065 83.5762 12.9423 83.5467 12.8961 83.4969V83.4969Z" fill="#4550B4"/>
<path d="M14.171 85.6336C14.1416 85.6016 14.1207 85.5626 14.1105 85.5204C14.1002 85.4781 14.1008 85.434 14.1122 85.392C14.1236 85.3501 14.1455 85.3117 14.1757 85.2805C14.206 85.2493 14.2437 85.2263 14.2853 85.2136L15.7041 84.7837C15.7365 84.774 15.7705 84.7707 15.8041 84.7741C15.8377 84.7775 15.8704 84.7875 15.9001 84.8035C15.9299 84.8195 15.9563 84.8412 15.9776 84.8674C15.999 84.8936 16.015 84.9237 16.0248 84.9561C16.0345 84.9884 16.0378 85.0224 16.0344 85.056C16.031 85.0897 16.021 85.1223 16.005 85.1521C15.989 85.1819 15.9673 85.2082 15.9411 85.2296C15.9149 85.251 15.8848 85.267 15.8524 85.2767L14.4336 85.7066C14.3874 85.7203 14.3382 85.7207 14.2918 85.7078C14.2454 85.6949 14.2035 85.6692 14.171 85.6336V85.6336Z" fill="#4550B4"/>
<path d="M15.4154 88.2673C15.389 88.2389 15.3696 88.2048 15.3586 88.1676C15.3389 88.1026 15.3458 88.0325 15.3778 87.9726C15.4097 87.9127 15.4641 87.8679 15.529 87.8481L16.3139 87.6106C16.3464 87.6002 16.3805 87.5964 16.4144 87.5994C16.4483 87.6024 16.4813 87.6121 16.5114 87.628C16.5416 87.6438 16.5682 87.6655 16.5899 87.6917C16.6116 87.718 16.6278 87.7483 16.6377 87.7808C16.6476 87.8134 16.6509 87.8476 16.6474 87.8815C16.6439 87.9154 16.6337 87.9482 16.6175 87.9781C16.6012 88.008 16.5791 88.0343 16.5526 88.0556C16.526 88.0769 16.4955 88.0927 16.4628 88.1021L15.6786 88.3389C15.6324 88.3529 15.5832 88.3536 15.5367 88.3409C15.4902 88.3283 15.4481 88.3028 15.4154 88.2673V88.2673Z" fill="#4550B4"/>
<path d="M8.34118 80.6104C8.30846 80.5749 8.28636 80.531 8.2774 80.4837C8.26844 80.4363 8.27298 80.3873 8.2905 80.3424L8.58895 79.5785C8.60089 79.5466 8.61904 79.5175 8.64236 79.4927C8.66567 79.4679 8.69369 79.448 8.72477 79.4341C8.75585 79.4202 8.78938 79.4126 8.82341 79.4118C8.85744 79.411 8.89128 79.417 8.92299 79.4294C8.95469 79.4418 8.98361 79.4604 9.00807 79.484C9.03253 79.5077 9.05204 79.536 9.06547 79.5673C9.07889 79.5986 9.08597 79.6322 9.08628 79.6662C9.0866 79.7003 9.08014 79.734 9.06729 79.7655L8.76884 80.5294C8.74397 80.5925 8.6951 80.6432 8.63294 80.6704C8.57077 80.6976 8.50038 80.699 8.43716 80.6744C8.40067 80.6607 8.36783 80.6388 8.34118 80.6104V80.6104Z" fill="#4550B4"/>
<path d="M7.20456 83.6143L7.55274 83.4746C7.75246 83.3946 7.96686 83.3579 8.18181 83.3668C8.39675 83.3757 8.60737 83.4301 8.79978 83.5263C8.9922 83.6225 9.16204 83.7584 9.29813 83.9251C9.43421 84.0917 9.53345 84.2852 9.58931 84.493C9.63226 84.6526 9.7325 84.7909 9.87089 84.8813C10.0093 84.9717 10.1761 85.008 10.3396 84.9833C10.4306 84.9696 10.5179 84.9374 10.596 84.8886C10.674 84.8398 10.7412 84.7755 10.7934 84.6996C10.8456 84.6238 10.8816 84.538 10.8992 84.4477C10.9168 84.3573 10.9157 84.2643 10.8958 84.1744L10.8402 83.9208C10.7384 83.4556 10.5203 83.0238 10.2064 82.6657C9.89244 82.3077 9.4929 82.035 9.04505 81.8732C8.61761 81.7187 8.15914 81.6698 7.70874 81.7308L1.80449 82.531C1.73496 82.5402 1.66991 82.5704 1.61817 82.6178C1.56642 82.6651 1.53048 82.7272 1.51522 82.7957C1.49995 82.8641 1.50609 82.9356 1.53282 83.0004C1.55954 83.0653 1.60555 83.1203 1.66462 83.1581L1.70734 83.1857L7.20456 83.6143Z" fill="#4550B4"/>
<path d="M7.07932 82.7907C7.62928 82.5484 8.24907 82.5166 8.82091 82.7014C8.84504 82.7094 8.86867 82.7178 8.89129 82.7272C9.33912 82.889 9.73866 83.1617 10.0526 83.5197C10.3666 83.8777 10.5847 84.3094 10.6867 84.7745L10.6949 84.8136C10.5963 84.9056 10.4722 84.9655 10.3389 84.9857C10.1754 85.0104 10.0085 84.974 9.87008 84.8835C9.73168 84.7929 9.63149 84.6546 9.58863 84.4949C9.53278 84.2871 9.43354 84.0936 9.29745 83.9269C9.16137 83.7603 8.99152 83.6244 8.79911 83.5282C8.60669 83.432 8.39608 83.3776 8.18113 83.3687C7.96618 83.3598 7.75179 83.3965 7.55206 83.4765L7.20389 83.6162L5.75573 83.3639L7.07932 82.7907Z" fill="#4550B4"/>
<path d="M7.17779 82.9314C7.62787 82.8701 8.08611 82.9185 8.51342 83.0726C8.96119 83.2345 9.36065 83.5073 9.67456 83.8653C9.98846 84.2233 10.2066 84.655 10.3086 85.1202L10.3644 85.3745C10.3841 85.4642 10.3851 85.557 10.3674 85.6472C10.3497 85.7373 10.3138 85.8229 10.2617 85.8985C10.2097 85.9742 10.1427 86.0384 10.0648 86.0872C9.98701 86.1359 9.9 86.1682 9.80919 86.182C9.64583 86.2065 9.47918 86.17 9.34096 86.0796C9.20274 85.9891 9.10262 85.851 9.05965 85.6915C9.00386 85.4837 8.90466 85.2902 8.7686 85.1235C8.63254 84.9569 8.46271 84.821 8.27029 84.7248C8.07788 84.6286 7.86726 84.5743 7.65232 84.5654C7.43738 84.5565 7.223 84.5933 7.02331 84.6733L6.6749 84.8128C6.25183 84.9827 5.90623 85.3026 5.70422 85.7113C5.50222 86.12 5.45799 86.5888 5.58 87.0281L6.19627 89.1772C6.23272 89.3082 6.22906 89.4471 6.18577 89.5761C6.14247 89.705 6.06153 89.818 5.95338 89.9004C5.64775 90.1335 5.19505 90.0513 4.97046 89.7378L3.70553 87.9662C3.47851 87.6486 3.17713 87.3914 2.82776 87.2172C2.47839 87.0429 2.09166 86.9569 1.70138 86.9667L0.607142 86.9945L-2.62814 87.1767C-2.65475 87.1783 -2.68125 87.1721 -2.70438 87.1589C-2.72751 87.1456 -2.74627 87.1259 -2.75834 87.1021C-2.77041 87.0784 -2.77528 87.0516 -2.77234 87.0251C-2.7694 86.9986 -2.75878 86.9735 -2.74179 86.953L0.798153 82.7563C0.852831 82.6912 0.929826 82.6487 1.01411 82.6373L2.20354 82.4781L7.17779 82.9314Z" fill="#4550B4"/>
</g>
<g clip-path="url(#clip3_1312_18517)">
<path d="M17.7358 58.0144C17.717 57.7016 17.4576 57.4578 17.1443 57.4584H14.7784V55.684C14.7784 54.0506 13.4543 52.7266 11.821 52.7266C10.1877 52.7266 8.8636 54.0506 8.8636 55.684V57.4584H6.49769C6.18439 57.4578 5.92499 57.7016 5.90621 58.0144L5.38571 67.4129C5.33019 68.3914 6.07833 69.2296 7.05675 69.2851C7.09117 69.287 7.12566 69.288 7.16015 69.2879H16.4877C17.4678 69.2895 18.2634 68.4964 18.265 67.5163C18.2651 67.4819 18.2641 67.4474 18.2622 67.4129L17.7358 58.0144ZM10.0466 55.684C10.0466 54.7039 10.841 53.9095 11.821 53.9095C12.801 53.9095 13.5954 54.7039 13.5954 55.684V57.4584H10.0466V55.684Z" fill="#4550B4"/>
</g>
<g clip-path="url(#clip4_1312_18517)">
<path d="M30.7417 52.407C30.7362 52.3158 30.6605 52.2447 30.5691 52.2449H29.8791V51.7273C29.8791 51.2509 29.4929 50.8647 29.0165 50.8647C28.5401 50.8647 28.1539 51.2509 28.1539 51.7273V52.2449H27.4638C27.3725 52.2447 27.2968 52.3158 27.2913 52.407L27.1395 55.1483C27.1233 55.4337 27.3415 55.6782 27.6269 55.6944C27.6369 55.6949 27.647 55.6952 27.6571 55.6952H30.3776C30.6635 55.6957 30.8956 55.4643 30.896 55.1785C30.896 55.1684 30.8958 55.1584 30.8952 55.1483L30.7417 52.407ZM28.4989 51.7273C28.4989 51.4415 28.7307 51.2098 29.0165 51.2098C29.3023 51.2098 29.534 51.4415 29.534 51.7273V52.2449H28.4989V51.7273Z" fill="#4550B4"/>
</g>
<g clip-path="url(#clip5_1312_18517)">
<path d="M66.7226 91.0608C66.7058 90.781 66.4737 90.5628 66.1933 90.5633H64.0765V88.9757C64.0765 87.5143 62.8918 86.3296 61.4304 86.3296C59.969 86.3296 58.7843 87.5143 58.7843 88.9757V90.5633H56.6674C56.3871 90.5628 56.155 90.781 56.1382 91.0608L55.6725 99.47C55.6228 100.345 56.2922 101.095 57.1677 101.145C57.1984 101.147 57.2293 101.148 57.2602 101.148H65.6059C66.4828 101.149 67.1947 100.439 67.1961 99.5626C67.1962 99.5317 67.1953 99.5008 67.1936 99.47L66.7226 91.0608ZM59.8427 88.9757C59.8427 88.0988 60.5536 87.388 61.4304 87.388C62.3072 87.388 63.018 88.0988 63.018 88.9757V90.5633H59.8427V88.9757Z" fill="#4550B4"/>
</g>
<path d="M86.5772 89.0852C87.2254 89.0852 87.8471 88.5181 87.8168 87.8526C87.7869 87.1854 87.2722 86.6206 86.5772 86.6206C85.9284 86.6206 85.3072 87.1871 85.337 87.8526C85.3672 88.5204 85.8821 89.0852 86.5772 89.0852V89.0852Z" fill="#4550B4"/>
<path d="M82.2039 90.1862C82.8524 90.1862 83.4738 89.6197 83.4438 88.9542C83.4138 88.2864 82.8992 87.7222 82.2039 87.7222C81.5553 87.7222 80.934 88.2887 80.9639 88.9542C80.9942 89.622 81.5088 90.1862 82.2039 90.1862V90.1862Z" fill="#4550B4"/>
<path d="M85.4673 93.4299C86.1161 93.4299 86.7372 92.8634 86.7075 92.1979C86.6773 91.5301 86.1623 90.9656 85.4673 90.9656C84.819 90.9656 84.1974 91.5321 84.2276 92.1979C84.2576 92.8654 84.7723 93.4299 85.4673 93.4299V93.4299Z" fill="#4550B4"/>
</g>
<path d="M55.6384 48.2017C53.1749 48.2017 52.2928 51.0358 52.2556 51.1555C52.0452 51.8564 51.3977 52.3404 50.6678 52.3404C50.6646 52.3404 50.6612 52.3404 50.6564 52.3404C49.9248 52.3355 49.2821 51.8564 49.0766 51.1555C49.0345 51.0196 48.1508 48.2017 45.6938 48.2017C43.5411 48.2017 42.3789 50.021 42.3789 51.7334C42.3789 54.239 45.0674 56.4209 49.135 59.7229C49.627 60.1211 50.1385 60.5354 50.6661 60.9691C51.1937 60.5353 51.7052 60.121 52.1972 59.7229C56.2648 56.4209 58.9533 54.239 58.9533 51.7334C58.9533 50.021 57.7911 48.2017 55.6384 48.2017Z" fill="white"/>
<path d="M73.8707 33.2847H47.3517C39.126 33.2847 32.3242 39.976 32.3242 48.2016V58.1463C32.3242 65.8119 38.2455 72.1439 45.6942 72.9709V81.3504C45.6942 82.0204 46.0972 82.6259 46.7172 82.8815C47.3286 83.1367 48.0457 82.9999 48.5236 82.5222L57.9826 73.0632H73.8707C82.0963 73.0632 88.8981 66.3719 88.8981 58.1463V48.2016C88.8981 39.976 82.0963 33.2847 73.8707 33.2847ZM54.2857 62.2964C53.4813 62.9486 52.6266 63.6431 51.7268 64.3925C51.4208 64.6482 51.0437 64.7761 50.6665 64.7761C50.2894 64.7761 49.9123 64.6483 49.6063 64.3925C48.7063 63.6431 47.8518 62.9487 47.0474 62.2964C42.4134 58.5364 39.0645 55.8188 39.0645 51.7334C39.0645 47.8941 41.9764 44.8867 45.6942 44.8867C48.059 44.8867 49.6468 46.0473 50.6665 47.2872C51.6863 46.0473 53.2741 44.8867 55.6389 44.8867C59.3567 44.8867 62.2686 47.8941 62.2686 51.7334C62.2686 55.8188 58.9197 58.5364 54.2857 62.2964ZM77.1856 59.8037H70.5558C69.6397 59.8037 68.8984 59.0624 68.8984 58.1463C68.8984 57.2301 69.6397 56.4888 70.5558 56.4888H72.2133V52.2028L71.7276 52.6884C71.0802 53.3358 70.0313 53.3358 69.3839 52.6884C68.7365 52.041 68.7365 50.9921 69.3839 50.3447L72.6988 47.0298C73.1714 46.5539 73.8836 46.4115 74.5052 46.6705C75.125 46.9262 75.5281 47.5316 75.5281 48.2016V56.4888H77.1856C78.1017 56.4888 78.843 57.2301 78.843 58.1463C78.843 59.0624 78.1017 59.8037 77.1856 59.8037Z" fill="white"/>
<path d="M183.092 45.4148V60.7588H180.576V50.2498L175.895 60.7588H174.151L169.448 50.2498V60.7588H166.932V45.4148H169.647L175.034 57.4471L180.399 45.4148H183.092ZM197.351 48.594L189.889 66.4769H187.283L189.756 60.5601L184.965 48.594H187.769L191.191 57.8666L194.746 48.594H197.351ZM203.666 60.9575C202.709 60.9575 201.848 60.7882 201.083 60.4497C200.332 60.0965 199.736 59.6255 199.294 59.0367C198.853 58.4333 198.617 57.7636 198.588 57.0277H201.193C201.237 57.5428 201.48 57.977 201.922 58.3302C202.378 58.6688 202.945 58.838 203.622 58.838C204.328 58.838 204.873 58.7056 205.255 58.4406C205.653 58.161 205.851 57.8077 205.851 57.3809C205.851 56.9246 205.631 56.5861 205.189 56.3653C204.762 56.1446 204.078 55.9017 203.136 55.6368C202.223 55.3866 201.48 55.1437 200.906 54.9082C200.332 54.6727 199.832 54.3121 199.405 53.8264C198.993 53.3407 198.787 52.7005 198.787 51.9057C198.787 51.258 198.978 50.6693 199.361 50.1394C199.743 49.5949 200.288 49.168 200.994 48.8589C201.716 48.5499 202.54 48.3953 203.467 48.3953C204.851 48.3953 205.962 48.7486 206.801 49.455C207.654 50.1468 208.111 51.0961 208.17 52.3031H205.653C205.609 51.7585 205.388 51.3243 204.99 51.0005C204.593 50.6767 204.056 50.5148 203.379 50.5148C202.716 50.5148 202.209 50.6399 201.855 50.8901C201.502 51.1403 201.326 51.4715 201.326 51.8836C201.326 52.2074 201.443 52.4797 201.679 52.7005C201.914 52.9212 202.201 53.0979 202.54 53.2303C202.878 53.3481 203.379 53.5026 204.041 53.6939C204.924 53.9294 205.645 54.1723 206.205 54.4225C206.779 54.658 207.272 55.0112 207.684 55.4822C208.096 55.9532 208.309 56.5788 208.324 57.3588C208.324 58.0506 208.133 58.6688 207.75 59.2134C207.367 59.7579 206.823 60.1848 206.116 60.4939C205.425 60.8029 204.608 60.9575 203.666 60.9575ZM213.98 50.6472V57.3809C213.98 57.8372 214.083 58.1683 214.289 58.3744C214.51 58.5657 214.878 58.6614 215.393 58.6614H216.938V60.7588H214.951C213.818 60.7588 212.95 60.4939 212.346 59.964C211.743 59.4341 211.441 58.5731 211.441 57.3809V50.6472H210.006V48.594H211.441V45.5694H213.98V48.594H216.938V50.6472H213.98ZM230.407 54.3784C230.407 54.8346 230.378 55.2467 230.319 55.6147H221.024C221.098 56.5861 221.458 57.3662 222.106 57.9549C222.754 58.5437 223.549 58.838 224.49 58.838C225.845 58.838 226.801 58.2714 227.361 57.1381H230.076C229.708 58.2567 229.038 59.1766 228.067 59.8978C227.11 60.6042 225.918 60.9575 224.49 60.9575C223.328 60.9575 222.283 60.6999 221.355 60.1848C220.443 59.6549 219.722 58.919 219.192 57.977C218.677 57.0203 218.419 55.9164 218.419 54.6654C218.419 53.4143 218.669 52.3178 219.17 51.3758C219.685 50.4191 220.399 49.6832 221.311 49.168C222.239 48.6529 223.298 48.3953 224.49 48.3953C225.639 48.3953 226.661 48.6455 227.559 49.146C228.457 49.6464 229.156 50.3529 229.657 51.2654C230.157 52.1632 230.407 53.2009 230.407 54.3784ZM227.78 53.5836C227.765 52.6563 227.434 51.913 226.787 51.3537C226.139 50.7944 225.337 50.5148 224.38 50.5148C223.512 50.5148 222.768 50.7944 222.15 51.3537C221.532 51.8983 221.164 52.6416 221.046 53.5836H227.78ZM235.401 50.3602C235.769 49.7421 236.255 49.2637 236.858 48.9252C237.476 48.5719 238.205 48.3953 239.044 48.3953V51.0005H238.404C237.417 51.0005 236.667 51.2507 236.152 51.7511C235.651 52.2515 235.401 53.1199 235.401 54.3563V60.7588H232.884V48.594H235.401V50.3602ZM252.308 48.594L244.846 66.4769H242.24L244.713 60.5601L239.922 48.594H242.726L246.148 57.8666L249.703 48.594H252.308ZM268.194 58.7276H273.382V60.7588H265.677V45.4148H268.194V58.7276ZM276.768 46.9823C276.311 46.9823 275.929 46.8278 275.62 46.5187C275.31 46.2096 275.156 45.827 275.156 45.3707C275.156 44.9144 275.31 44.5317 275.62 44.2226C275.929 43.9136 276.311 43.759 276.768 43.759C277.209 43.759 277.584 43.9136 277.894 44.2226C278.203 44.5317 278.357 44.9144 278.357 45.3707C278.357 45.827 278.203 46.2096 277.894 46.5187C277.584 46.8278 277.209 46.9823 276.768 46.9823ZM278.004 48.594V60.7588H275.487V48.594H278.004ZM286.121 54.6874L291.729 60.7588H288.329L283.825 55.5264V60.7588H281.308V44.4213H283.825V53.9147L288.241 48.594H291.729L286.121 54.6874ZM304.682 54.3784C304.682 54.8346 304.653 55.2467 304.594 55.6147H295.299C295.373 56.5861 295.733 57.3662 296.381 57.9549C297.029 58.5437 297.823 58.838 298.765 58.838C300.119 58.838 301.076 58.2714 301.635 57.1381H304.351C303.983 58.2567 303.313 59.1766 302.342 59.8978C301.385 60.6042 300.193 60.9575 298.765 60.9575C297.603 60.9575 296.558 60.6999 295.63 60.1848C294.718 59.6549 293.997 58.919 293.467 57.977C292.952 57.0203 292.694 55.9164 292.694 54.6654C292.694 53.4143 292.944 52.3178 293.445 51.3758C293.96 50.4191 294.674 49.6832 295.586 49.168C296.513 48.6529 297.573 48.3953 298.765 48.3953C299.913 48.3953 300.936 48.6455 301.834 49.146C302.732 49.6464 303.431 50.3529 303.931 51.2654C304.432 52.1632 304.682 53.2009 304.682 54.3784ZM302.055 53.5836C302.04 52.6563 301.709 51.913 301.061 51.3537C300.414 50.7944 299.612 50.5148 298.655 50.5148C297.787 50.5148 297.043 50.7944 296.425 51.3537C295.807 51.8983 295.439 52.6416 295.321 53.5836H302.055ZM311.574 60.9575C310.618 60.9575 309.757 60.7882 308.991 60.4497C308.241 60.0965 307.645 59.6255 307.203 59.0367C306.762 58.4333 306.526 57.7636 306.497 57.0277H309.102C309.146 57.5428 309.389 57.977 309.83 58.3302C310.287 58.6688 310.853 58.838 311.53 58.838C312.237 58.838 312.781 58.7056 313.164 58.4406C313.561 58.161 313.76 57.8077 313.76 57.3809C313.76 56.9246 313.539 56.5861 313.098 56.3653C312.671 56.1446 311.987 55.9017 311.045 55.6368C310.132 55.3866 309.389 55.1437 308.815 54.9082C308.241 54.6727 307.74 54.3121 307.314 53.8264C306.901 53.3407 306.695 52.7005 306.695 51.9057C306.695 51.258 306.887 50.6693 307.269 50.1394C307.652 49.5949 308.197 49.168 308.903 48.8589C309.624 48.5499 310.449 48.3953 311.376 48.3953C312.759 48.3953 313.871 48.7486 314.71 49.455C315.563 50.1468 316.019 51.0961 316.078 52.3031H313.561C313.517 51.7585 313.297 51.3243 312.899 51.0005C312.502 50.6767 311.965 50.5148 311.287 50.5148C310.625 50.5148 310.117 50.6399 309.764 50.8901C309.411 51.1403 309.234 51.4715 309.234 51.8836C309.234 52.2074 309.352 52.4797 309.588 52.7005C309.823 52.9212 310.11 53.0979 310.449 53.2303C310.787 53.3481 311.287 53.5026 311.95 53.6939C312.833 53.9294 313.554 54.1723 314.113 54.4225C314.687 54.658 315.181 55.0112 315.593 55.4822C316.005 55.9532 316.218 56.5788 316.233 57.3588C316.233 58.0506 316.042 58.6688 315.659 59.2134C315.276 59.7579 314.732 60.1848 314.025 60.4939C313.333 60.8029 312.516 60.9575 311.574 60.9575Z" fill="white"/>
<path d="M363.299 58.3245C362.491 58.3245 361.76 58.1861 361.107 57.9092C360.464 57.6324 359.955 57.2337 359.578 56.7132C359.202 56.1927 359.008 55.5781 358.997 54.8693H361.489C361.522 55.3455 361.688 55.722 361.987 55.9989C362.297 56.2758 362.718 56.4142 363.25 56.4142C363.792 56.4142 364.219 56.2868 364.529 56.0321C364.839 55.7663 364.994 55.423 364.994 55.0022C364.994 54.6589 364.889 54.3765 364.678 54.155C364.468 53.9335 364.202 53.7619 363.881 53.6401C363.571 53.5072 363.139 53.3632 362.585 53.2081C361.832 52.9867 361.217 52.7707 360.741 52.5603C360.276 52.3388 359.872 52.0121 359.529 51.5802C359.196 51.1372 359.03 50.5503 359.03 49.8194C359.03 49.1328 359.202 48.5347 359.545 48.0253C359.889 47.5159 360.37 47.1283 360.99 46.8625C361.611 46.5856 362.319 46.4472 363.117 46.4472C364.313 46.4472 365.282 46.7407 366.024 47.3276C366.777 47.9035 367.192 48.7119 367.27 49.7529H364.711C364.689 49.3543 364.518 49.0276 364.197 48.7728C363.886 48.5071 363.471 48.3742 362.951 48.3742C362.497 48.3742 362.131 48.4904 361.854 48.723C361.588 48.9556 361.456 49.2933 361.456 49.7363C361.456 50.0464 361.555 50.3067 361.755 50.5171C361.965 50.7164 362.22 50.8825 362.519 51.0154C362.829 51.1372 363.261 51.2812 363.814 51.4473C364.567 51.6688 365.182 51.8903 365.658 52.1118C366.135 52.3333 366.544 52.6655 366.888 53.1085C367.231 53.5515 367.403 54.1329 367.403 54.8527C367.403 55.4729 367.242 56.0487 366.921 56.5803C366.6 57.1119 366.129 57.5382 365.509 57.8594C364.889 58.1695 364.152 58.3245 363.299 58.3245ZM371.744 48.4904V51.3975H375.648V53.2414H371.744V56.3145H376.147V58.2083H369.419V46.5967H376.147V48.4904H371.744ZM380.586 48.4904V51.3975H384.489V53.2414H380.586V56.3145H384.988V58.2083H378.26V46.5967H384.988V48.4904H380.586ZM406.558 46.6133L403.319 58.2083H400.578L398.402 49.9523L396.126 58.2083L393.402 58.2249L390.279 46.6133H392.77L394.814 55.6168L397.172 46.6133H399.764L401.99 55.567L404.05 46.6133H406.558ZM417.695 46.6133V58.2083H415.369V53.2746H410.402V58.2083H408.077V46.6133H410.402V51.3809H415.369V46.6133H417.695ZM425.366 58.3245C424.281 58.3245 423.284 58.0698 422.376 57.5604C421.468 57.051 420.748 56.3477 420.216 55.4507C419.685 54.5426 419.419 53.5182 419.419 52.3776C419.419 51.248 419.685 50.2347 420.216 49.3376C420.748 48.4295 421.468 47.7208 422.376 47.2113C423.284 46.7019 424.281 46.4472 425.366 46.4472C426.462 46.4472 427.459 46.7019 428.356 47.2113C429.264 47.7208 429.978 48.4295 430.499 49.3376C431.03 50.2347 431.296 51.248 431.296 52.3776C431.296 53.5182 431.03 54.5426 430.499 55.4507C429.978 56.3477 429.264 57.051 428.356 57.5604C427.448 58.0698 426.451 58.3245 425.366 58.3245ZM425.366 56.2481C426.064 56.2481 426.678 56.093 427.21 55.783C427.741 55.4618 428.157 55.0077 428.456 54.4208C428.755 53.8339 428.904 53.1528 428.904 52.3776C428.904 51.6024 428.755 50.9268 428.456 50.3509C428.157 49.764 427.741 49.3155 427.21 49.0054C426.678 48.6953 426.064 48.5403 425.366 48.5403C424.668 48.5403 424.048 48.6953 423.505 49.0054C422.974 49.3155 422.558 49.764 422.259 50.3509C421.96 50.9268 421.811 51.6024 421.811 52.3776C421.811 53.1528 421.96 53.8339 422.259 54.4208C422.558 55.0077 422.974 55.4618 423.505 55.783C424.048 56.093 424.668 56.2481 425.366 56.2481ZM439.31 56.3644H443.131V58.2083H436.985V46.6133H439.31V56.3644ZM446.935 46.6133V58.2083H444.609V46.6133H446.935ZM455.777 58.2083L451.558 53.042V58.2083H449.232V46.6133H451.558V51.8128L455.777 46.6133H458.585L453.801 52.361L458.718 58.2083H455.777ZM462.573 48.4904V51.3975H466.477V53.2414H462.573V56.3145H466.975V58.2083H460.247V46.5967H466.975V48.4904H462.573ZM473.092 58.3245C472.284 58.3245 471.553 58.1861 470.899 57.9092C470.257 57.6324 469.748 57.2337 469.371 56.7132C468.994 56.1927 468.801 55.5781 468.79 54.8693H471.281C471.315 55.3455 471.481 55.722 471.78 55.9989C472.09 56.2758 472.511 56.4142 473.042 56.4142C473.585 56.4142 474.011 56.2868 474.321 56.0321C474.631 55.7663 474.786 55.423 474.786 55.0022C474.786 54.6589 474.681 54.3765 474.471 54.155C474.26 53.9335 473.995 53.7619 473.673 53.6401C473.363 53.5072 472.931 53.3632 472.378 53.2081C471.625 52.9867 471.01 52.7707 470.534 52.5603C470.069 52.3388 469.664 52.0121 469.321 51.5802C468.989 51.1372 468.823 50.5503 468.823 49.8194C468.823 49.1328 468.994 48.5347 469.338 48.0253C469.681 47.5159 470.163 47.1283 470.783 46.8625C471.403 46.5856 472.112 46.4472 472.909 46.4472C474.105 46.4472 475.074 46.7407 475.816 47.3276C476.569 47.9035 476.985 48.7119 477.062 49.7529H474.504C474.482 49.3543 474.31 49.0276 473.989 48.7728C473.679 48.5071 473.264 48.3742 472.743 48.3742C472.289 48.3742 471.924 48.4904 471.647 48.723C471.381 48.9556 471.248 49.2933 471.248 49.7363C471.248 50.0464 471.348 50.3067 471.547 50.5171C471.758 50.7164 472.012 50.8825 472.311 51.0154C472.621 51.1372 473.053 51.2812 473.607 51.4473C474.36 51.6688 474.975 51.8903 475.451 52.1118C475.927 52.3333 476.337 52.6655 476.68 53.1085C477.023 53.5515 477.195 54.1329 477.195 54.8527C477.195 55.4729 477.034 56.0487 476.713 56.5803C476.392 57.1119 475.922 57.5382 475.301 57.8594C474.681 58.1695 473.945 58.3245 473.092 58.3245ZM492.389 46.6133L488.469 54.1716V58.2083H486.143V54.1716L482.206 46.6133H484.831L487.322 51.9124L489.798 46.6133H492.389ZM499.112 58.3245C498.027 58.3245 497.03 58.0698 496.122 57.5604C495.214 57.051 494.494 56.3477 493.963 55.4507C493.431 54.5426 493.165 53.5182 493.165 52.3776C493.165 51.248 493.431 50.2347 493.963 49.3376C494.494 48.4295 495.214 47.7208 496.122 47.2113C497.03 46.7019 498.027 46.4472 499.112 46.4472C500.209 46.4472 501.205 46.7019 502.103 47.2113C503.011 47.7208 503.725 48.4295 504.245 49.3376C504.777 50.2347 505.043 51.248 505.043 52.3776C505.043 53.5182 504.777 54.5426 504.245 55.4507C503.725 56.3477 503.011 57.051 502.103 57.5604C501.194 58.0698 500.198 58.3245 499.112 58.3245ZM499.112 56.2481C499.81 56.2481 500.425 56.093 500.956 55.783C501.488 55.4618 501.903 55.0077 502.202 54.4208C502.501 53.8339 502.651 53.1528 502.651 52.3776C502.651 51.6024 502.501 50.9268 502.202 50.3509C501.903 49.764 501.488 49.3155 500.956 49.0054C500.425 48.6953 499.81 48.5403 499.112 48.5403C498.415 48.5403 497.795 48.6953 497.252 49.0054C496.72 49.3155 496.305 49.764 496.006 50.3509C495.707 50.9268 495.558 51.6024 495.558 52.3776C495.558 53.1528 495.707 53.8339 496.006 54.4208C496.305 55.0077 496.72 55.4618 497.252 55.783C497.795 56.093 498.415 56.2481 499.112 56.2481ZM509.065 46.6133V53.7896C509.065 54.5758 509.27 55.1794 509.68 55.6002C510.09 56.01 510.666 56.2149 511.408 56.2149C512.161 56.2149 512.742 56.01 513.152 55.6002C513.562 55.1794 513.766 54.5758 513.766 53.7896V46.6133H516.109V53.7729C516.109 54.7586 515.893 55.5947 515.461 56.2813C515.04 56.9568 514.47 57.4663 513.75 57.8096C513.041 58.1529 512.249 58.3245 511.374 58.3245C510.511 58.3245 509.724 58.1529 509.016 57.8096C508.318 57.4663 507.764 56.9568 507.354 56.2813C506.945 55.5947 506.74 54.7586 506.74 53.7729V46.6133H509.065Z" fill="white"/>
<defs>
<filter id="filter0_ddd_1312_18517" x="0.588015" y="0.882433" width="553.32" height="102.799" filterUnits="userSpaceOnUse" color-interpolation-filters="sRGB">
<feFlood flood-opacity="0" result="BackgroundImageFix"/>
<feColorMatrix in="SourceAlpha" type="matrix" values="0 0 0 0 0 0 0 0 0 0 0 0 0 0 0 0 0 0 127 0" result="hardAlpha"/>
<feOffset dy="0.689926"/>
<feGaussianBlur stdDeviation="2.7597"/>
<feColorMatrix type="matrix" values="0 0 0 0 0 0 0 0 0 0 0 0 0 0 0 0 0 0 0.1 0"/>
<feBlend mode="normal" in2="BackgroundImageFix" result="effect1_dropShadow_1312_18517"/>
<feColorMatrix in="SourceAlpha" type="matrix" values="0 0 0 0 0 0 0 0 0 0 0 0 0 0 0 0 0 0 127 0" result="hardAlpha"/>
<feOffset dy="1.37985"/>
<feGaussianBlur stdDeviation="1.37985"/>
<feColorMatrix type="matrix" values="0 0 0 0 0 0 0 0 0 0 0 0 0 0 0 0 0 0 0.12 0"/>
<feBlend mode="normal" in2="effect1_dropShadow_1312_18517" result="effect2_dropShadow_1312_18517"/>
<feColorMatrix in="SourceAlpha" type="matrix" values="0 0 0 0 0 0 0 0 0 0 0 0 0 0 0 0 0 0 127 0" result="hardAlpha"/>
<feOffset dy="0.689926"/>
<feGaussianBlur stdDeviation="0.689926"/>
<feColorMatrix type="matrix" values="0 0 0 0 0 0 0 0 0 0 0 0 0 0 0 0 0 0 0.16 0"/>
<feBlend mode="normal" in2="effect2_dropShadow_1312_18517" result="effect3_dropShadow_1312_18517"/>
<feBlend mode="normal" in="SourceGraphic" in2="effect3_dropShadow_1312_18517" result="shape"/>
</filter>
<clipPath id="clip0_1312_18517">
<rect width="111.768" height="91.7601" fill="white" transform="translate(6.10742 5.71191)"/>
</clipPath>
<clipPath id="clip1_1312_18517">
<rect width="17.5095" height="17.5095" fill="white" transform="translate(86.6367 5.71191)"/>
</clipPath>
<clipPath id="clip2_1312_18517">
<rect width="17.5095" height="17.5095" fill="white" transform="translate(12.3965 72.0327) rotate(47.2539)"/>
</clipPath>
<clipPath id="clip3_1312_18517">
<rect width="13.19" height="16.6611" fill="white" transform="translate(5.07422 52.627)"/>
</clipPath>
<clipPath id="clip4_1312_18517">
<rect width="3.84712" height="4.85953" fill="white" transform="translate(27.0508 50.8357)"/>
</clipPath>
<clipPath id="clip5_1312_18517">
<rect width="11.8016" height="14.9073" fill="white" transform="translate(55.3965 86.2405)"/>
</clipPath>
</defs>
</svg>
