<svg width="67" height="67" viewBox="0 0 67 67" fill="none" xmlns="http://www.w3.org/2000/svg">
<g clip-path="url(#clip0_1312_17899)">
<path d="M14.9052 10.1133H65.4168C65.418 6.62579 62.5903 3.79808 59.1028 3.79932H8.59129C5.10382 3.79808 2.27611 6.62579 2.27734 10.1133V44.1925C2.27611 47.68 5.10382 50.5077 8.59129 50.5064V16.4272C8.59005 12.9397 11.4178 10.112 14.9052 10.1133Z" fill="#D4E1F4"/>
<path d="M44.6016 19.1587L30.616 32.5283L23.1342 25.0465C22.5195 24.4318 21.5231 24.4318 20.9083 25.0465C20.2936 25.6607 20.2936 26.6571 20.9083 27.2718L29.4796 35.8431C29.7756 36.1416 30.1801 36.3068 30.6 36.3006C31.0075 36.3049 31.3997 36.1459 31.6895 35.8591L46.7955 21.4314C47.4232 20.8259 47.4411 19.8258 46.8349 19.1981C46.2288 18.5704 45.2293 18.5525 44.6016 19.1587Z" fill="#1AE5BE"/>
<path d="M59.1051 2.22131H8.5936C4.2355 2.22316 0.703022 5.75564 0.701172 10.1137V44.193C0.703022 48.5517 4.2355 52.0842 8.5936 52.0854H24.947L31.5445 62.993C31.5445 63.009 31.5606 63.009 31.5606 63.0245C32.0082 63.7342 32.7894 64.1633 33.6286 64.1608C34.4666 64.1596 35.246 63.7311 35.6961 63.0245C35.6961 63.009 35.7121 63.009 35.7121 62.993L42.3103 52.0854H59.1051C63.4632 52.0842 66.9957 48.5517 66.9976 44.193V10.1137C66.9957 5.75564 63.4632 2.22316 59.1051 2.22131ZM63.8406 44.193C63.8332 46.8055 61.717 48.9211 59.1051 48.9285H41.4101C40.8576 48.9303 40.344 49.2164 40.0529 49.6863L33.6126 60.341L27.1722 49.6863C26.8837 49.2133 26.3688 48.926 25.8151 48.9285H8.5936C5.9817 48.9211 3.86554 46.8055 3.85814 44.193V10.1137C3.86554 7.50184 5.9817 5.38568 8.5936 5.37828H59.1051C61.717 5.38568 63.8332 7.50184 63.8406 10.1137V44.193Z" fill="#0635C9"/>
</g>
<defs>
<clipPath id="clip0_1312_17899">
<rect width="66.2964" height="66.2964" fill="white" transform="translate(0.701172 0.0112305)"/>
</clipPath>
</defs>
</svg>
