<svg width="554" height="103" viewBox="0 0 554 103" fill="none" xmlns="http://www.w3.org/2000/svg">
<g filter="url(#filter0_ddd_1312_19102)">
<rect x="5.84766" y="4.96021" width="542.282" height="91.7601" rx="2.7597" fill="#4AE187"/>
</g>
<path d="M80.8737 51.0342L75.4162 43.7577C75.0694 43.2953 74.5391 43.03 73.9609 43.03C73.3828 43.03 72.8525 43.2953 72.5056 43.7577L67.0482 51.0342C66.6321 51.5891 66.5663 52.319 66.8765 52.9393C67.1866 53.5596 67.8101 53.9449 68.5035 53.9449H70.3227C70.3227 60.9664 64.6102 66.6789 57.5887 66.6789C50.5672 66.6789 44.8547 60.9664 44.8547 53.9449C44.8547 46.9234 50.5672 41.2109 57.5887 41.2109C59.7422 41.2109 61.888 41.7762 63.794 42.8456C64.5132 43.2493 65.4135 43.1186 65.9883 42.5275L68.6082 39.8337C68.9903 39.4409 69.1749 38.8965 69.1107 38.3522C69.0466 37.8079 68.7402 37.3214 68.2771 37.0283C65.0795 35.0042 61.3835 33.9343 57.5887 33.9343C46.5549 33.9343 37.5781 42.9111 37.5781 53.9449C37.5781 64.9787 46.5549 73.9554 57.5887 73.9554C68.6225 73.9554 77.5992 64.9787 77.5992 53.9449H79.4184C80.1118 53.9449 80.7353 53.5596 81.0454 52.9393C81.3556 52.319 81.2898 51.5891 80.8737 51.0342Z" fill="#F9F9F9"/>
<path d="M81.0466 52.9393C81.3568 52.319 81.2909 51.5891 80.8748 51.0342L75.4174 43.7577C75.0706 43.2953 74.5402 43.03 73.9621 43.03C73.384 43.03 72.8536 43.2953 72.5068 43.7577L67.0494 51.0342C66.6333 51.5891 66.5674 52.319 66.8776 52.9393C67.1878 53.5596 67.8112 53.9449 68.5047 53.9449H70.3238C70.3238 60.9664 64.6114 66.6789 57.5898 66.6789V73.9554C68.6237 73.9554 77.6004 64.9787 77.6004 53.9449H79.4195C80.113 53.9449 80.7365 53.5596 81.0466 52.9393Z" fill="#F9F9F9"/>
<path d="M63.7952 42.8456C64.5143 43.2493 65.4147 43.1186 65.9894 42.5275L68.6094 39.8337C68.9915 39.4409 69.1761 38.8965 69.1119 38.3522C69.0478 37.8079 68.7414 37.3214 68.2783 37.0283C65.0807 35.0042 61.3847 33.9343 57.5898 33.9343V41.2109C59.7433 41.2109 61.8892 41.7762 63.7952 42.8456Z" fill="#F9F9F9"/>
<g clip-path="url(#clip0_1312_19102)">
<path d="M88.2147 76.9084C87.8952 76.9084 87.576 76.7875 87.3324 76.5454L83.969 73.2028C83.7349 72.9701 83.6035 72.6549 83.6035 72.3262C83.6035 71.9972 83.7349 71.6819 83.969 71.4492L87.3324 68.1067C87.5662 67.8745 87.8837 67.7434 88.2147 67.7434C88.5452 67.7434 88.8627 67.874 89.0966 68.1067L92.4599 71.4492C92.694 71.6819 92.8254 71.9972 92.8254 72.3262C92.8254 72.6549 92.694 72.9704 92.4599 73.2028L89.0966 76.5454C88.853 76.7875 88.5337 76.9084 88.2147 76.9084Z" fill="#07B04B"/>
<path d="M70.1635 18.9548C69.8445 18.9548 69.5252 18.8339 69.2816 18.5915L65.9183 15.249C65.4309 14.7648 65.4309 13.9798 65.9183 13.4956L69.2816 10.1531C69.5155 9.92037 69.833 9.78979 70.1635 9.78979C70.4945 9.78979 70.812 9.92037 71.0459 10.1531L74.4092 13.4956C74.6433 13.7278 74.7747 14.0436 74.7747 14.372C74.7747 14.701 74.6433 15.0165 74.4092 15.2487L71.0459 18.5915C70.8023 18.8339 70.4828 18.9548 70.1635 18.9548Z" fill="#07B04B"/>
<path d="M47.7827 11.5169C45.7733 11.5169 44.1387 9.89234 44.1387 7.89565C44.1387 5.8987 45.7733 4.27441 47.7827 4.27441C49.7917 4.27441 51.4259 5.8987 51.4259 7.89565C51.4259 9.89234 49.7917 11.5169 47.7827 11.5169Z" fill="#07B04B"/>
<path d="M82.0413 44.6335C78.3085 44.6335 75.2715 41.6152 75.2715 37.9055C75.2715 34.1953 78.3085 31.1775 82.0413 31.1775C85.7741 31.1775 88.8106 34.1953 88.8106 37.9055C88.8106 41.6152 85.7741 44.6335 82.0413 44.6335Z" fill="#07B04B"/>
<path d="M111.924 63.3241C112.577 63.3241 113.202 62.7541 113.172 62.0842C113.142 61.4125 112.624 60.8442 111.924 60.8442C111.272 60.8442 110.646 61.4145 110.677 62.0842C110.707 62.7558 111.225 63.3241 111.924 63.3241Z" fill="#07B04B"/>
<path d="M113.038 67.6962C113.69 67.6962 114.316 67.1259 114.285 66.4562C114.255 65.7843 113.737 65.2163 113.038 65.2163C112.385 65.2163 111.76 65.7864 111.79 66.4562C111.821 67.1279 112.338 67.6962 113.038 67.6962Z" fill="#07B04B"/>
<path d="M116.325 64.4325C116.977 64.4325 117.603 63.8619 117.572 63.1923C117.542 62.5207 117.024 61.9526 116.325 61.9526C115.672 61.9526 115.047 62.5227 115.077 63.1923C115.107 63.8642 115.626 64.4325 116.325 64.4325Z" fill="#07B04B"/>
<path d="M30.6996 78.5026C31.3522 78.5026 31.9774 77.9323 31.9472 77.2626C31.9168 76.591 31.399 76.0227 30.6996 76.0227C30.0473 76.0227 29.4218 76.5933 29.4522 77.2626C29.4824 77.9346 30 78.5026 30.6996 78.5026Z" fill="#07B04B"/>
<path d="M31.8153 82.8746C32.4679 82.8746 33.0931 82.3043 33.0627 81.6347C33.0325 80.9628 32.5147 80.395 31.8153 80.395C31.1625 80.395 30.5375 80.9651 30.5674 81.6347C30.5979 82.3066 31.1157 82.8746 31.8153 82.8746Z" fill="#07B04B"/>
<path d="M35.0961 79.6107C35.7489 79.6107 36.3739 79.0407 36.344 78.371C36.3138 77.6991 35.796 77.1311 35.0961 77.1311C34.4438 77.1311 33.8183 77.7012 33.8487 78.371C33.8789 79.0427 34.3968 79.6107 35.0961 79.6107Z" fill="#07B04B"/>
<path d="M16.0132 6.78425C17.594 6.78425 19.1092 5.40332 19.0355 3.78117C18.9625 2.15347 17.7079 0.776855 16.0132 0.776855C14.4323 0.776855 12.9178 2.15901 12.9908 3.78117C13.0645 5.40763 14.319 6.78425 16.0132 6.78425Z" fill="#07B04B"/>
<path d="M5.35888 9.46906C6.9391 9.46906 8.4543 8.08691 8.38061 6.46475C8.30754 4.83829 7.05303 3.46167 5.35888 3.46167C3.77804 3.46167 2.26346 4.84259 2.33653 6.46475C2.41021 8.09244 3.66473 9.46906 5.35888 9.46906Z" fill="#07B04B"/>
<path d="M13.3134 17.3754C14.8948 17.3754 16.4088 15.9945 16.3357 14.3723C16.2627 12.7447 15.0075 11.3687 13.3134 11.3687C11.7332 11.3687 10.218 12.7502 10.2916 14.3723C10.3647 16 11.6192 17.3754 13.3134 17.3754Z" fill="#07B04B"/>
<path d="M112.386 52.6287C112.141 52.0224 111.448 51.7281 110.838 51.9715C109.537 52.491 107.781 52.315 106.255 51.5131C105.693 51.2179 105.189 50.8574 104.759 50.4489C105.913 49.9765 106.819 49.1816 107.377 48.1334L107.39 48.1079C107.841 47.2609 107.978 46.3044 107.774 45.4142C107.559 44.4722 106.967 43.6863 106.151 43.2572C104.505 42.3913 102.382 43.1591 101.419 44.9687L101.405 44.9939C100.847 46.0421 100.696 47.2338 100.952 48.4471C100.37 48.3239 99.7865 48.1125 99.225 47.8175C98.7962 47.5921 98.0428 46.9557 97.4722 46.3373C97.0273 45.8557 96.2746 45.8232 95.7902 46.2651C95.3058 46.7065 95.2728 47.4551 95.7175 47.9365C96.307 48.5758 97.2881 49.4761 98.112 49.9093C99.3751 50.5735 100.74 50.9257 102.062 50.9401C102.817 52.0176 103.878 52.9404 105.141 53.6049C106.438 54.2866 107.844 54.6349 109.184 54.6349C110.077 54.6349 110.941 54.4805 111.725 54.1678C112.335 53.9239 112.631 53.235 112.386 52.6287ZM103.51 46.1003L103.523 46.0751C103.789 45.5767 104.263 45.2649 104.685 45.2649C104.81 45.2649 104.929 45.2918 105.038 45.3488C105.314 45.4942 105.416 45.7805 105.452 45.9383C105.528 46.2721 105.468 46.6595 105.286 47.0016L105.272 47.0268C104.918 47.6924 104.265 48.1744 103.408 48.4107C103.122 47.5737 103.156 46.7659 103.51 46.1003Z" fill="#07B04B"/>
<path d="M36.734 91.8484C36.9643 91.663 37.5047 91.3952 37.991 91.2252C38.3699 91.0928 38.5689 90.6804 38.4356 90.3039C38.3024 89.9276 37.8873 89.7298 37.5086 89.8621C37.0057 90.038 36.2616 90.3694 35.8195 90.7251C35.1409 91.2706 34.6146 91.9477 34.2893 92.6817C33.4993 92.8447 32.7231 93.2152 32.0447 93.7607C30.8845 94.6937 30.1751 96.0167 30.1467 97.2998C30.1377 97.6986 30.456 98.0291 30.8574 98.0379C30.8631 98.038 30.8685 98.038 30.8738 98.038C31.2679 98.038 31.5916 97.7248 31.6004 97.3315C31.6191 96.4809 32.1398 95.5431 32.9592 94.8841C33.2607 94.6416 33.5852 94.4468 33.9193 94.305C33.9098 95.0621 34.1412 95.7584 34.6 96.3221L34.6105 96.3348C35.4016 97.3066 36.7646 97.5185 37.6487 96.8075C38.0869 96.455 38.3483 95.9149 38.366 95.3253C38.3827 94.7683 38.1877 94.211 37.8172 93.7558L37.8063 93.7425C37.3478 93.1794 36.711 92.8092 35.9639 92.6609C36.1731 92.3657 36.4326 92.0908 36.734 91.8484ZM36.6761 94.6517L36.6871 94.6648C36.8367 94.8487 36.9189 95.0735 36.9125 95.2822C36.9096 95.3813 36.8825 95.5648 36.734 95.6843C36.4776 95.8905 36.0227 95.7722 35.7401 95.4252L35.7296 95.4125C35.4385 95.0549 35.3232 94.5748 35.3952 94.0397C35.9366 94.0815 36.3849 94.2939 36.6761 94.6517Z" fill="#07B04B"/>
<path d="M23.4514 23.5913C21.0333 23.7821 18.8865 25.0769 17.5366 27.0744C16.8561 28.0814 16.4939 29.225 16.3567 30.4215C16.211 31.6973 16.6036 35.7834 14.7348 36.0506C14.0902 36.1428 13.456 36.5947 13.4875 37.2905C13.5163 37.9307 14.037 38.5693 14.7348 38.5305C16.0837 38.4548 17.1634 37.7028 17.8791 36.5871C18.604 35.4564 18.7717 34.1225 18.7873 32.8097C18.8024 31.542 18.7893 30.3725 19.2152 29.1628C19.9419 27.5631 21.508 26.3684 23.251 26.0844C23.9626 26.0427 24.7343 25.648 24.6988 24.8313C24.6709 24.2033 24.1482 23.5362 23.4514 23.5913Z" fill="#07B04B"/>
<path fill-rule="evenodd" clip-rule="evenodd" d="M105.681 92.9918L104.219 91.0984L102.015 91.2609L101.782 89.0743L99.9058 87.9166L101.009 86.0097L100.176 83.9743L102.193 83.0752L102.722 80.9393L104.884 81.3918L106.591 79.7089L108.054 81.6023L110.257 81.4399L110.49 83.6264L112.367 84.7841L111.264 86.691L112.097 88.7265L110.079 89.6255L109.55 91.7614L107.388 91.309L105.681 92.9918ZM107.847 84.3505L107.848 84.3496L108.363 84.9355L107.272 85.8826L106.1 86.9009L106.1 86.9003L104.43 88.3502L103.915 87.7643L106.175 85.8021L106.175 85.8007L107.845 84.3492L107.847 84.3505ZM106.427 87.933C106.471 87.2892 107.034 86.8005 107.68 86.8435C108.327 86.8865 108.818 87.4452 108.774 88.0889C108.73 88.7327 108.167 89.2214 107.521 89.1784C106.874 89.1354 106.383 88.5768 106.427 87.933ZM107.209 87.985C107.195 88.1996 107.358 88.3858 107.574 88.4001C107.79 88.4145 107.977 88.2515 107.992 88.037C108.006 87.8224 107.843 87.6361 107.627 87.6218C107.412 87.6075 107.224 87.7704 107.209 87.985ZM104.757 83.5221C104.11 83.4791 103.548 83.9678 103.503 84.6116C103.459 85.2553 103.95 85.814 104.597 85.857C105.244 85.9 105.806 85.4113 105.85 84.7675C105.894 84.1238 105.404 83.5651 104.757 83.5221ZM104.65 85.0787C104.434 85.0644 104.271 84.8781 104.286 84.6636C104.3 84.449 104.488 84.2861 104.703 84.3004C104.919 84.3147 105.082 84.501 105.068 84.7155C105.053 84.9301 104.866 85.093 104.65 85.0787Z" fill="#07B04B"/>
<path fill-rule="evenodd" clip-rule="evenodd" d="M42.2138 36.8932L39.8 34.1733L36.4754 34.641L35.8949 31.3536L32.9297 29.7894L34.4036 26.7911L32.9297 23.7928L35.8949 22.2286L36.4754 18.9412L39.8 19.4088L42.2138 16.689L44.6276 19.4088L47.9523 18.9412L48.5327 22.2286L51.4979 23.7928L50.0241 26.7911L51.4979 29.7894L48.5327 31.3536L47.9523 34.641L44.6276 34.1733L42.2138 36.8932ZM44.595 23.5876L44.5966 23.586L45.4387 24.4229L39.8325 29.9944L38.9904 29.1576L42.2111 25.9567V25.9539L44.5935 23.5862L44.595 23.5876ZM42.8108 29.1585C42.8108 28.1793 43.6123 27.3827 44.5975 27.3827C45.5828 27.3827 46.3843 28.1793 46.3843 29.1585C46.3843 30.1377 45.5828 30.9343 44.5975 30.9343C43.6123 30.9343 42.8108 30.1377 42.8108 29.1585ZM44.0019 29.1585C44.0019 29.4849 44.2691 29.7504 44.5975 29.7504C44.926 29.7504 45.1931 29.4849 45.1931 29.1585C45.1931 28.8321 44.926 28.5666 44.5975 28.5666C44.2691 28.5666 44.0019 28.8321 44.0019 29.1585ZM39.8319 22.6471C38.8466 22.6471 38.0451 23.4437 38.0451 24.4229C38.0451 25.4021 38.8466 26.1987 39.8319 26.1987C40.8172 26.1987 41.6187 25.4021 41.6187 24.4229C41.6187 23.4437 40.8172 22.6471 39.8319 22.6471ZM39.8319 25.0148C39.5035 25.0148 39.2363 24.7493 39.2363 24.4229C39.2363 24.0965 39.5035 23.831 39.8319 23.831C40.1603 23.831 40.4275 24.0965 40.4275 24.4229C40.4275 24.7493 40.1603 25.0148 39.8319 25.0148Z" fill="#07B04B"/>
<g clip-path="url(#clip1_1312_19102)">
<path d="M98.9077 16.6344L98.774 16.2839C98.6971 16.0829 98.5786 15.9006 98.4261 15.7488C98.2737 15.597 98.0908 15.4792 97.8896 15.4032C97.6883 15.3272 97.4732 15.2947 97.2585 15.3079C97.0438 15.321 96.8343 15.3795 96.6438 15.4795C96.4974 15.5563 96.3278 15.5765 96.1675 15.5363C96.0071 15.4961 95.8672 15.3982 95.7745 15.2613C95.7227 15.1852 95.6871 15.0993 95.67 15.0088C95.6528 14.9184 95.6544 14.8253 95.6747 14.7355C95.695 14.6458 95.7336 14.5611 95.788 14.4868C95.8424 14.4125 95.9114 14.3502 95.9909 14.3038L96.2149 14.1725C96.6257 13.9315 97.0908 13.7986 97.5668 13.7861C98.0428 13.7736 98.5143 13.882 98.9371 14.101C99.3407 14.31 99.6878 14.6136 99.9487 14.9857L103.369 19.8648C103.409 19.922 103.431 19.9903 103.431 20.0605C103.432 20.1306 103.41 20.1991 103.371 20.2568C103.331 20.3145 103.274 20.3585 103.208 20.3829C103.142 20.4073 103.071 20.4108 103.003 20.3931L102.954 20.3805L98.9077 16.6344Z" fill="#07B04B"/>
<path d="M99.5998 16.1686C99.4044 15.6003 99.0071 15.1236 98.4832 14.8291C98.461 14.8168 98.4388 14.8052 98.4165 14.7949C97.9937 14.5759 97.5223 14.4675 97.0463 14.48C96.5703 14.4924 96.1052 14.6252 95.6944 14.866L95.6602 14.8866C95.6595 15.0214 95.6997 15.1532 95.7754 15.2648C95.8682 15.4016 96.0082 15.4995 96.1687 15.5397C96.3291 15.5799 96.4987 15.5596 96.6451 15.4826C96.8356 15.3826 97.0451 15.3241 97.2598 15.311C97.4745 15.2978 97.6896 15.3303 97.8909 15.4063C98.0921 15.4823 98.275 15.6001 98.4274 15.7519C98.5799 15.9037 98.6984 16.086 98.7753 16.287L98.909 16.6375L100.078 17.5328L99.5998 16.1686Z" fill="#07B04B"/>
<path d="M99.4265 16.1901C99.1661 15.818 98.8195 15.5143 98.4163 15.3051C97.9934 15.0862 97.522 14.978 97.046 14.9905C96.57 15.003 96.1049 15.1358 95.6941 15.3766L95.4694 15.5082C95.3902 15.5547 95.3214 15.617 95.2672 15.6911C95.213 15.7653 95.1746 15.8497 95.1543 15.9393C95.1341 16.0289 95.1324 16.1217 95.1494 16.212C95.1664 16.3022 95.2018 16.388 95.2533 16.4641C95.3462 16.6006 95.4861 16.6983 95.6463 16.7384C95.8066 16.7785 95.976 16.7583 96.1223 16.6816C96.3127 16.5815 96.5222 16.523 96.7369 16.5098C96.9516 16.4966 97.1667 16.5291 97.368 16.6051C97.5692 16.6811 97.7521 16.7989 97.9045 16.9507C98.0569 17.1025 98.1754 17.285 98.2521 17.4859L98.3862 17.8364C98.5486 18.2624 98.5483 18.7334 98.3852 19.1591C98.2222 19.5849 97.9079 19.9356 97.5025 20.1441L95.506 21.1509C95.3851 21.2131 95.2855 21.3101 95.2202 21.4294C95.1549 21.5487 95.1269 21.6848 95.1398 21.8202C95.176 22.2029 95.5436 22.4795 95.9263 22.4317L98.0859 22.1581C98.4733 22.1092 98.8667 22.156 99.2318 22.2943C99.5969 22.4326 99.9225 22.6582 100.18 22.9515L100.904 23.7746L102.965 26.2728C102.982 26.2934 103.004 26.3087 103.03 26.3167C103.055 26.3247 103.082 26.3251 103.108 26.3178C103.133 26.3105 103.156 26.2959 103.174 26.2758C103.191 26.2556 103.203 26.2308 103.206 26.2044L103.886 20.758C103.896 20.6736 103.875 20.5883 103.826 20.5186L103.138 19.5368L99.4265 16.1901Z" fill="#07B04B"/>
<path d="M92.699 12.8883C92.6507 12.8883 92.6035 12.8748 92.5626 12.8492C92.5217 12.8236 92.4888 12.787 92.4678 12.7437L91.8204 11.4099C91.8051 11.3795 91.796 11.3464 91.7936 11.3124C91.7912 11.2785 91.7956 11.2444 91.8065 11.2121C91.8174 11.1799 91.8346 11.1501 91.8571 11.1246C91.8796 11.0991 91.907 11.0783 91.9376 11.0634C91.9682 11.0485 92.0015 11.0399 92.0355 11.038C92.0695 11.0361 92.1035 11.041 92.1356 11.0523C92.1677 11.0637 92.1972 11.0814 92.2224 11.1042C92.2476 11.1271 92.268 11.1548 92.2824 11.1856L92.9298 12.5193C92.9487 12.5585 92.9574 12.6018 92.955 12.6452C92.9526 12.6886 92.9393 12.7307 92.9162 12.7675C92.8932 12.8044 92.8612 12.8348 92.8232 12.8559C92.7852 12.877 92.7424 12.8882 92.699 12.8883Z" fill="#07B04B"/>
<path d="M95.1322 12.3746C95.0641 12.3746 94.9987 12.3475 94.9506 12.2993C94.9024 12.2512 94.8753 12.1858 94.8753 12.1177V10.784C94.8735 10.7492 94.8788 10.7144 94.8909 10.6817C94.903 10.649 94.9216 10.6192 94.9456 10.5939C94.9696 10.5686 94.9985 10.5485 95.0305 10.5348C95.0625 10.521 95.097 10.5139 95.1318 10.5139C95.1667 10.5139 95.2012 10.521 95.2332 10.5348C95.2652 10.5485 95.2941 10.5686 95.3181 10.5939C95.3421 10.6192 95.3607 10.649 95.3727 10.6817C95.3848 10.7144 95.3901 10.7492 95.3883 10.784V12.1177C95.3883 12.1857 95.3614 12.2509 95.3133 12.2991C95.2653 12.3472 95.2002 12.3744 95.1322 12.3746Z" fill="#07B04B"/>
<path d="M97.567 12.8881C97.5235 12.8879 97.4808 12.8768 97.4428 12.8557C97.4048 12.8345 97.3728 12.8041 97.3497 12.7673C97.3266 12.7304 97.3133 12.6883 97.3109 12.6449C97.3086 12.6015 97.3172 12.5582 97.3361 12.5191L97.9835 11.1853C97.9983 11.1549 98.019 11.1278 98.0443 11.1054C98.0696 11.083 98.0991 11.0658 98.1311 11.0548C98.163 11.0438 98.1968 11.0392 98.2306 11.0413C98.2643 11.0433 98.2973 11.052 98.3277 11.0668C98.3581 11.0816 98.3853 11.1023 98.4077 11.1276C98.4301 11.1529 98.4472 11.1824 98.4582 11.2144C98.4693 11.2464 98.4739 11.2802 98.4718 11.3139C98.4697 11.3477 98.461 11.3807 98.4462 11.411L97.7988 12.7448C97.7775 12.788 97.7445 12.8244 97.7035 12.8497C97.6625 12.875 97.6152 12.8883 97.567 12.8881Z" fill="#07B04B"/>
<path d="M100.346 13.7619C100.307 13.762 100.269 13.7531 100.234 13.7359C100.173 13.7063 100.126 13.6536 100.104 13.5895C100.082 13.5254 100.086 13.4551 100.115 13.3939L100.474 12.6563C100.488 12.6255 100.508 12.5978 100.534 12.5749C100.559 12.5521 100.588 12.5344 100.62 12.5231C100.653 12.5117 100.687 12.5068 100.721 12.5087C100.755 12.5106 100.788 12.5192 100.818 12.5341C100.849 12.549 100.876 12.5698 100.899 12.5953C100.921 12.6208 100.939 12.6506 100.95 12.6828C100.96 12.7151 100.965 12.7492 100.962 12.7831C100.96 12.8171 100.951 12.8502 100.936 12.8806L100.577 13.6173C100.556 13.6606 100.523 13.6972 100.482 13.7228C100.442 13.7484 100.394 13.7619 100.346 13.7619Z" fill="#07B04B"/>
<path d="M89.9197 13.762C89.8715 13.7619 89.8243 13.7484 89.7834 13.7228C89.7425 13.6972 89.7097 13.6607 89.6886 13.6173L89.3302 12.8796C89.3149 12.8492 89.3058 12.8161 89.3034 12.7821C89.301 12.7482 89.3054 12.7141 89.3163 12.6819C89.3272 12.6496 89.3444 12.6199 89.3669 12.5943C89.3894 12.5688 89.4168 12.548 89.4474 12.5331C89.478 12.5183 89.5113 12.5096 89.5453 12.5077C89.5792 12.5058 89.6133 12.5107 89.6453 12.5221C89.6774 12.5334 89.7069 12.5511 89.7321 12.5739C89.7574 12.5968 89.7778 12.6245 89.7922 12.6553L90.1506 13.393C90.1801 13.4541 90.1841 13.5244 90.1619 13.5885C90.1396 13.6526 90.0929 13.7052 90.0319 13.7349C89.9971 13.7524 89.9587 13.7617 89.9197 13.762Z" fill="#07B04B"/>
<path d="M91.3595 16.6344L91.4932 16.2839C91.5701 16.0829 91.6886 15.9006 91.8411 15.7488C91.9935 15.597 92.1764 15.4792 92.3777 15.4032C92.5789 15.3272 92.794 15.2947 93.0087 15.3079C93.2235 15.321 93.433 15.3795 93.6235 15.4795C93.7698 15.5563 93.9394 15.5765 94.0997 15.5363C94.2601 15.4961 94.4 15.3982 94.4928 15.2613C94.5445 15.1852 94.5801 15.0993 94.5973 15.0088C94.6144 14.9184 94.6128 14.8253 94.5925 14.7355C94.5722 14.6458 94.5336 14.5611 94.4793 14.4868C94.4249 14.4125 94.3558 14.3502 94.2763 14.3038L94.0523 14.1725C93.6415 13.9315 93.1764 13.7986 92.7004 13.7861C92.2244 13.7736 91.7529 13.882 91.3301 14.101C90.9265 14.31 90.5795 14.6136 90.3185 14.9857L86.8987 19.8648C86.8582 19.922 86.8363 19.9903 86.8359 20.0605C86.8356 20.1306 86.8568 20.1991 86.8967 20.2568C86.9366 20.3145 86.9933 20.3585 87.059 20.3829C87.1248 20.4073 87.1964 20.4108 87.2643 20.3931L87.3135 20.3805L91.3595 16.6344Z" fill="#07B04B"/>
<path d="M90.6669 16.1686C90.8622 15.6003 91.2596 15.1236 91.7834 14.8291C91.8057 14.8168 91.8279 14.8052 91.8501 14.7949C92.2729 14.5759 92.7444 14.4675 93.2204 14.48C93.6964 14.4924 94.1615 14.6252 94.5723 14.866L94.6065 14.8866C94.6071 15.0214 94.567 15.1532 94.4913 15.2648C94.3984 15.4016 94.2584 15.4995 94.098 15.5397C93.9376 15.5799 93.768 15.5596 93.6216 15.4826C93.4311 15.3826 93.2216 15.3241 93.0069 15.311C92.7922 15.2978 92.5771 15.3303 92.3758 15.4063C92.1745 15.4823 91.9917 15.6001 91.8392 15.7519C91.6868 15.9037 91.5682 16.086 91.4914 16.287L91.3577 16.6375L90.1895 17.5297L90.6669 16.1686Z" fill="#07B04B"/>
<path d="M90.8404 16.1901C91.1008 15.818 91.4474 15.5143 91.8506 15.3051C92.2735 15.0862 92.7449 14.978 93.2209 14.9905C93.6969 15.003 94.162 15.1358 94.5728 15.3766L94.7975 15.5082C94.8767 15.5547 94.9455 15.617 94.9997 15.6911C95.0539 15.7653 95.0923 15.8497 95.1126 15.9393C95.1329 16.0289 95.1345 16.1217 95.1175 16.212C95.1005 16.3022 95.0651 16.388 95.0136 16.4641C94.9207 16.6006 94.7808 16.6983 94.6206 16.7384C94.4603 16.7785 94.2909 16.7583 94.1446 16.6816C93.9542 16.5815 93.7447 16.523 93.53 16.5098C93.3153 16.4966 93.1002 16.5291 92.899 16.6051C92.6977 16.6811 92.5148 16.7989 92.3624 16.9507C92.21 17.1025 92.0915 17.285 92.0148 17.4859L91.8807 17.8364C91.7183 18.2624 91.7186 18.7334 91.8817 19.1591C92.0447 19.5849 92.359 19.9356 92.7644 20.1441L94.7609 21.1503C94.8819 21.2124 94.9814 21.3094 95.0467 21.4287C95.112 21.548 95.14 21.6841 95.1272 21.8195C95.0909 22.2022 94.7233 22.4789 94.3406 22.431L92.181 22.1574C91.7936 22.1085 91.4002 22.1553 91.0352 22.2936C90.6701 22.4319 90.3444 22.6576 90.0867 22.9508L89.3644 23.7733L87.3023 26.2728C87.2854 26.2934 87.2628 26.3087 87.2374 26.3167C87.212 26.3247 87.1848 26.3251 87.1591 26.3178C87.1335 26.3105 87.1105 26.2959 87.093 26.2758C87.0756 26.2556 87.0644 26.2308 87.0608 26.2044L86.3816 20.7563C86.3709 20.6719 86.392 20.5866 86.4408 20.5169L87.1313 19.5354L90.8404 16.1901Z" fill="#07B04B"/>
</g>
<g clip-path="url(#clip2_1312_19102)">
<path d="M12.0683 88.4055L12.2349 88.0693C12.3303 87.8765 12.3838 87.6657 12.3918 87.4507C12.3998 87.2357 12.3622 87.0215 12.2814 86.8221C12.2006 86.6227 12.0784 86.4427 11.923 86.2939C11.7676 86.1452 11.5825 86.031 11.3797 85.959C11.224 85.9037 11.094 85.7929 11.0148 85.6478C10.9355 85.5027 10.9124 85.3335 10.9499 85.1725C10.9707 85.0828 11.0097 84.9984 11.0645 84.9244C11.1192 84.8504 11.1886 84.7885 11.2684 84.7424C11.3481 84.6964 11.4364 84.6672 11.5279 84.6568C11.6193 84.6463 11.712 84.6547 11.8001 84.6816L12.0485 84.7569C12.5043 84.895 12.9175 85.1464 13.2498 85.4875C13.5821 85.8286 13.8226 86.2483 13.9487 86.7075C14.0691 87.1458 14.0818 87.6067 13.9856 88.0509L12.7238 93.874C12.7092 93.9426 12.6739 94.005 12.6227 94.0529C12.5714 94.1008 12.5067 94.1317 12.4372 94.1415C12.3678 94.1514 12.297 94.1396 12.2345 94.1079C12.172 94.0762 12.1207 94.026 12.0876 93.9641L12.0635 93.9194L12.0683 88.4055Z" fill="#07B04B"/>
<path d="M12.8805 88.5969C13.1652 88.0677 13.2456 87.4523 13.1063 86.8677C13.1003 86.843 13.0937 86.8188 13.0862 86.7955C12.96 86.3363 12.7196 85.9166 12.3874 85.5755C12.0552 85.2343 11.6419 84.9829 11.1863 84.8447L11.148 84.8335C11.0485 84.9246 10.979 85.0436 10.9484 85.1749C10.9109 85.3359 10.9341 85.5052 11.0135 85.6503C11.0928 85.7953 11.2229 85.9061 11.3788 85.9614C11.5815 86.0334 11.7666 86.1475 11.922 86.2963C12.0775 86.4451 12.1996 86.6251 12.2804 86.8244C12.3612 87.0238 12.3988 87.2381 12.3908 87.453C12.3828 87.668 12.3293 87.8789 12.2339 88.0717L12.0673 88.4078L12.203 89.8737L12.8805 88.5969Z" fill="#07B04B"/>
<path d="M12.7468 88.4852C12.8433 88.0414 12.8311 87.5807 12.7111 87.1426C12.5848 86.6835 12.3443 86.2639 12.012 85.9228C11.6798 85.5817 11.2665 85.3303 10.8109 85.1921L10.5617 85.1164C10.4738 85.0898 10.3814 85.0815 10.2901 85.0921C10.1989 85.1026 10.1108 85.1317 10.0312 85.1776C9.95168 85.2236 9.88241 85.2853 9.82768 85.3591C9.77296 85.4329 9.73394 85.5171 9.71305 85.6065C9.67582 85.7674 9.69907 85.9364 9.77838 86.0813C9.85769 86.2262 9.98752 86.3369 10.1431 86.3923C10.3459 86.4642 10.5311 86.5783 10.6865 86.7271C10.8419 86.8758 10.964 87.0558 11.0448 87.2552C11.1256 87.4545 11.1632 87.6688 11.1552 87.8838C11.1471 88.0987 11.0936 88.3096 10.9981 88.5023L10.8317 88.8387C10.6291 89.2471 10.283 89.5665 9.85969 89.7358C9.43637 89.905 8.9655 89.9123 8.53718 89.7561L6.44269 88.9733C6.31495 88.9267 6.17615 88.9194 6.04423 88.9524C5.9123 88.9855 5.79331 89.0573 5.70261 89.1586C5.44619 89.445 5.49254 89.9027 5.78745 90.1513L7.4542 91.5515C7.75298 91.8028 7.98566 92.1235 8.13189 92.4854C8.27813 92.8474 8.33346 93.2397 8.29306 93.628L8.1795 94.7179L7.74391 97.9272C7.74021 97.9536 7.74432 97.9805 7.75571 98.0046C7.7671 98.0287 7.78529 98.0489 7.80803 98.0628C7.83078 98.0767 7.85709 98.0837 7.88374 98.0828C7.91038 98.082 7.9362 98.0734 7.95801 98.0581L12.4189 94.8603C12.4882 94.8109 12.5365 94.7375 12.5546 94.6544L12.8081 93.4822L12.7468 88.4852Z" fill="#07B04B"/>
<path d="M10.6074 81.3058C10.5746 81.2704 10.5525 81.2265 10.5436 81.1791C10.5346 81.1317 10.5391 81.0827 10.5567 81.0378L11.0968 79.6571C11.1087 79.6253 11.1269 79.5961 11.1502 79.5713C11.1735 79.5465 11.2015 79.5266 11.2326 79.5127C11.2637 79.4988 11.2972 79.4913 11.3312 79.4904C11.3652 79.4896 11.3991 79.4956 11.4308 79.508C11.4625 79.5204 11.4914 79.539 11.5159 79.5626C11.5403 79.5863 11.5599 79.6146 11.5733 79.6459C11.5867 79.6772 11.5938 79.7108 11.5941 79.7448C11.5944 79.7789 11.588 79.8126 11.5751 79.8442L11.0351 81.2248C11.0191 81.2653 10.9932 81.3011 10.9597 81.3288C10.9263 81.3565 10.8863 81.3753 10.8436 81.3834C10.8009 81.3914 10.7568 81.3886 10.7155 81.375C10.6742 81.3614 10.637 81.3376 10.6074 81.3058Z" fill="#07B04B"/>
<path d="M12.6363 82.745C12.5901 82.695 12.5656 82.6286 12.5683 82.5606C12.5709 82.4925 12.6005 82.4283 12.6506 82.3821L13.63 81.4768C13.6544 81.4518 13.6835 81.4321 13.7157 81.4188C13.7479 81.4055 13.7825 81.3989 13.8173 81.3993C13.8522 81.3998 13.8865 81.4074 13.9184 81.4215C13.9502 81.4357 13.9788 81.4562 14.0024 81.4818C14.0261 81.5074 14.0443 81.5375 14.0559 81.5704C14.0676 81.6032 14.0724 81.6381 14.0701 81.6729C14.0679 81.7076 14.0585 81.7416 14.0427 81.7726C14.0269 81.8037 14.005 81.8312 13.9782 81.8535L12.9988 82.7588C12.9488 82.8049 12.8826 82.8294 12.8147 82.8268C12.7467 82.8242 12.6826 82.7948 12.6363 82.745Z" fill="#07B04B"/>
<path d="M13.9112 84.8816C13.8818 84.8496 13.861 84.8107 13.8507 84.7684C13.8404 84.7262 13.841 84.682 13.8524 84.6401C13.8638 84.5981 13.8857 84.5598 13.916 84.5285C13.9462 84.4973 13.9839 84.4743 14.0255 84.4616L15.4444 84.0318C15.4767 84.022 15.5107 84.0188 15.5443 84.0222C15.578 84.0255 15.6106 84.0355 15.6404 84.0515C15.6702 84.0675 15.6965 84.0892 15.7179 84.1154C15.7393 84.1416 15.7553 84.1717 15.765 84.2041C15.7748 84.2365 15.778 84.2705 15.7746 84.3041C15.7712 84.3377 15.7613 84.3704 15.7453 84.4001C15.7292 84.4299 15.7075 84.4562 15.6814 84.4776C15.6552 84.499 15.625 84.515 15.5927 84.5248L14.1738 84.9546C14.1276 84.9683 14.0785 84.9687 14.032 84.9558C13.9856 84.9429 13.9437 84.9172 13.9112 84.8816Z" fill="#07B04B"/>
<path d="M15.1557 87.5154C15.1293 87.487 15.1098 87.4528 15.0988 87.4156C15.0792 87.3507 15.0861 87.2805 15.118 87.2207C15.1499 87.1608 15.2043 87.116 15.2692 87.0961L16.0542 86.8586C16.0866 86.8483 16.1208 86.8445 16.1547 86.8475C16.1886 86.8505 16.2216 86.8602 16.2517 86.876C16.2818 86.8919 16.3085 86.9135 16.3302 86.9398C16.3518 86.966 16.3681 86.9963 16.3779 87.0289C16.3878 87.0615 16.3911 87.0957 16.3876 87.1295C16.3841 87.1634 16.374 87.1962 16.3577 87.2261C16.3414 87.256 16.3194 87.2824 16.2928 87.3037C16.2663 87.325 16.2357 87.3408 16.203 87.3502L15.4188 87.587C15.3726 87.6009 15.3235 87.6016 15.2769 87.589C15.2304 87.5763 15.1884 87.5508 15.1557 87.5154Z" fill="#07B04B"/>
<path d="M8.08141 79.8584C8.04869 79.823 8.02659 79.7791 8.01763 79.7317C8.00867 79.6843 8.01321 79.6354 8.03073 79.5905L8.32918 78.8266C8.34112 78.7947 8.35927 78.7655 8.38259 78.7407C8.40591 78.7159 8.43392 78.696 8.465 78.6821C8.49608 78.6682 8.52961 78.6607 8.56364 78.6599C8.59767 78.6591 8.63152 78.665 8.66322 78.6774C8.69492 78.6898 8.72384 78.7084 8.7483 78.7321C8.77276 78.7558 8.79227 78.784 8.8057 78.8153C8.81913 78.8466 8.8262 78.8802 8.82652 78.9143C8.82683 78.9483 8.82038 78.9821 8.80753 79.0136L8.50908 79.7775C8.4842 79.8406 8.43534 79.8913 8.37317 79.9185C8.31101 79.9456 8.24061 79.9471 8.17739 79.9224C8.14091 79.9088 8.10806 79.8868 8.08141 79.8584Z" fill="#07B04B"/>
<path d="M6.9448 82.8624L7.29298 82.7226C7.4927 82.6427 7.70709 82.606 7.92204 82.6149C8.13699 82.6238 8.3476 82.6781 8.54002 82.7744C8.73243 82.8706 8.90228 83.0065 9.03836 83.1731C9.17445 83.3397 9.27369 83.5333 9.32954 83.741C9.3725 83.9007 9.47274 84.0389 9.61113 84.1293C9.74952 84.2198 9.91636 84.2561 10.0798 84.2313C10.1709 84.2177 10.2581 84.1855 10.3362 84.1367C10.4143 84.0879 10.4815 84.0236 10.5336 83.9477C10.5858 83.8718 10.6218 83.7861 10.6394 83.6957C10.6571 83.6054 10.6559 83.5123 10.6361 83.4224L10.5805 83.1688C10.4786 82.7036 10.2605 82.2719 9.9466 81.9138C9.63267 81.5557 9.23314 81.283 8.78529 81.1212C8.35784 80.9667 7.89938 80.9179 7.44897 80.9788L1.54473 81.7791C1.4752 81.7882 1.41015 81.8185 1.3584 81.8658C1.30666 81.9132 1.27072 81.9753 1.25545 82.0437C1.24018 82.1122 1.24633 82.1836 1.27305 82.2485C1.29978 82.3133 1.34579 82.3684 1.40485 82.4062L1.44757 82.4338L6.9448 82.8624Z" fill="#07B04B"/>
<path d="M6.81955 82.0387C7.36951 81.7964 7.9893 81.7647 8.56115 81.9495C8.58527 81.9574 8.6089 81.9659 8.63152 81.9752C9.07936 82.1371 9.4789 82.4097 9.79286 82.7677C10.1068 83.1257 10.325 83.5575 10.427 84.0226L10.4351 84.0616C10.3365 84.1536 10.2124 84.2136 10.0791 84.2337C9.91561 84.2584 9.74871 84.2221 9.61031 84.1315C9.47192 84.041 9.37172 83.9027 9.32886 83.7429C9.27301 83.5352 9.17377 83.3416 9.03769 83.175C8.9016 83.0084 8.73176 82.8725 8.53934 82.7763C8.34693 82.68 8.13631 82.6257 7.92136 82.6168C7.70642 82.6078 7.49202 82.6446 7.2923 82.7245L6.94412 82.8642L5.49597 82.6119L6.81955 82.0387Z" fill="#07B04B"/>
<path d="M6.91802 82.1795C7.3681 82.1181 7.82634 82.1665 8.25366 82.3206C8.70142 82.4826 9.10088 82.7553 9.41479 83.1134C9.7287 83.4714 9.94683 83.9031 10.0489 84.3682L10.1047 84.6226C10.1243 84.7123 10.1253 84.8051 10.1076 84.8952C10.09 84.9854 10.054 85.0709 10.002 85.1466C9.94992 85.2223 9.88291 85.2865 9.80508 85.3352C9.72724 85.384 9.64023 85.4163 9.54943 85.4301C9.38607 85.4545 9.21941 85.4181 9.08119 85.3276C8.94298 85.2372 8.84285 85.099 8.79988 84.9395C8.74409 84.7318 8.6449 84.5382 8.50884 84.3716C8.37277 84.2049 8.20294 84.069 8.01053 83.9728C7.81811 83.8766 7.60749 83.8223 7.39255 83.8134C7.17761 83.8046 6.96323 83.8414 6.76355 83.9214L6.41514 84.0609C5.99206 84.2307 5.64646 84.5506 5.44446 84.9593C5.24245 85.368 5.19823 85.8369 5.32024 86.2762L5.9365 88.4252C5.97295 88.5562 5.9693 88.6952 5.926 88.8241C5.88271 88.953 5.80176 89.066 5.69362 89.1485C5.38799 89.3816 4.93528 89.2994 4.7107 88.9859L3.44577 87.2142C3.21874 86.8966 2.91737 86.6394 2.568 86.4652C2.21863 86.291 1.83189 86.205 1.44161 86.2147L0.347377 86.2426L-2.8879 86.4248C-2.91451 86.4264 -2.94101 86.4202 -2.96415 86.4069C-2.98728 86.3937 -3.00603 86.3739 -3.0181 86.3502C-3.03018 86.3264 -3.03504 86.2996 -3.0321 86.2731C-3.02916 86.2466 -3.01854 86.2216 -3.00155 86.201L0.538388 82.0044C0.593065 81.9392 0.67006 81.8968 0.754344 81.8853L1.94377 81.7262L6.91802 82.1795Z" fill="#07B04B"/>
</g>
<g clip-path="url(#clip3_1312_19102)">
<path d="M17.478 57.2624C17.4592 56.9497 17.1998 56.7059 16.8865 56.7064H14.5206V54.932C14.5206 53.2987 13.1965 51.9746 11.5632 51.9746C9.92985 51.9746 8.60579 53.2987 8.60579 54.932V56.7064H6.23988C5.92658 56.7059 5.66718 56.9497 5.6484 57.2624L5.1279 66.661C5.07238 67.6394 5.82052 68.4776 6.79894 68.5331C6.83335 68.5351 6.86784 68.5361 6.90233 68.536H16.2299C17.2099 68.5376 18.0056 67.7444 18.0072 66.7644C18.0073 66.7299 18.0063 66.6954 18.0044 66.661L17.478 57.2624ZM9.78874 54.932C9.78874 53.952 10.5832 53.1576 11.5632 53.1576C12.5432 53.1576 13.3376 53.952 13.3376 54.932V56.7064H9.78874V54.932Z" fill="#07B04B"/>
</g>
<g clip-path="url(#clip4_1312_19102)">
<path d="M30.4819 51.6553C30.4764 51.5641 30.4008 51.493 30.3094 51.4932H29.6193V50.9756C29.6193 50.4992 29.2331 50.113 28.7567 50.113C28.2803 50.113 27.8941 50.4992 27.8941 50.9756V51.4932H27.2041C27.1127 51.493 27.037 51.5641 27.0316 51.6553L26.8798 54.3966C26.8636 54.682 27.0818 54.9265 27.3671 54.9427C27.3772 54.9432 27.3872 54.9435 27.3973 54.9435H30.1179C30.4037 54.944 30.6358 54.7126 30.6363 54.4268C30.6363 54.4167 30.636 54.4066 30.6354 54.3966L30.4819 51.6553ZM28.2392 50.9756C28.2392 50.6898 28.4709 50.4581 28.7567 50.4581C29.0426 50.4581 29.2743 50.6898 29.2743 50.9756V51.4932H28.2392V50.9756Z" fill="#07B04B"/>
</g>
<g clip-path="url(#clip5_1312_19102)">
<path d="M66.4667 90.3091C66.4499 90.0293 66.2178 89.8111 65.9375 89.8116H63.8206V88.224C63.8206 86.7626 62.6359 85.5779 61.1745 85.5779C59.7131 85.5779 58.5285 86.7626 58.5285 88.224V89.8116H56.4116C56.1313 89.8111 55.8992 90.0293 55.8824 90.3091L55.4167 98.7183C55.367 99.5938 56.0364 100.344 56.9118 100.393C56.9426 100.395 56.9734 100.396 57.0043 100.396H65.3501C66.2269 100.397 66.9388 99.6877 66.9403 98.8108C66.9403 98.78 66.9395 98.7491 66.9377 98.7183L66.4667 90.3091ZM59.5869 88.224C59.5869 87.3471 60.2977 86.6363 61.1745 86.6363C62.0514 86.6363 62.7622 87.3471 62.7622 88.224V89.8116H59.5869V88.224Z" fill="#07B04B"/>
</g>
<path d="M85.2861 85.4017C85.9344 85.4017 86.556 84.8312 86.5258 84.1616C86.4958 83.4901 85.9812 82.9219 85.2861 82.9219C84.6373 82.9219 84.0162 83.4919 84.0459 84.1616C84.0762 84.8335 84.5911 85.4017 85.2861 85.4017Z" fill="#07B04B"/>
<path d="M80.9148 86.5096C81.5633 86.5096 82.1847 85.9396 82.1547 85.27C82.1248 84.598 81.6101 84.0303 80.9148 84.0303C80.2663 84.0303 79.6449 84.6003 79.6749 85.27C79.7051 85.9419 80.2198 86.5096 80.9148 86.5096Z" fill="#07B04B"/>
<path d="M84.1782 89.7736C84.827 89.7736 85.4481 89.2035 85.4184 88.5339C85.3882 87.862 84.8733 87.2939 84.1782 87.2939C83.5299 87.2939 82.9083 87.864 82.9386 88.5339C82.9685 89.2055 83.4832 89.7736 84.1782 89.7736Z" fill="#07B04B"/>
</g>
<path d="M338.313 33.5142V40.6904C338.313 41.4767 338.518 42.0803 338.927 42.5011C339.337 42.9109 339.913 43.1157 340.655 43.1157C341.408 43.1157 341.989 42.9109 342.399 42.5011C342.809 42.0803 343.014 41.4767 343.014 40.6904V33.5142H345.356V40.6738C345.356 41.6594 345.14 42.4956 344.708 43.1822C344.287 43.8577 343.717 44.3671 342.997 44.7105C342.288 45.0538 341.497 45.2254 340.622 45.2254C339.758 45.2254 338.972 45.0538 338.263 44.7105C337.565 44.3671 337.012 43.8577 336.602 43.1822C336.192 42.4956 335.987 41.6594 335.987 40.6738V33.5142H338.313ZM357.52 45.1091H355.195L349.929 37.1522V45.1091H347.603V33.4976H349.929L355.195 41.4712V33.4976H357.52V45.1091ZM363.872 33.5142C365.09 33.5142 366.159 33.7523 367.078 34.2285C368.008 34.7047 368.722 35.3858 369.221 36.2717C369.73 37.1466 369.985 38.1655 369.985 39.3283C369.985 40.4911 369.73 41.5099 369.221 42.3848C368.722 43.2486 368.008 43.9186 367.078 44.3948C366.159 44.871 365.09 45.1091 363.872 45.1091H359.818V33.5142H363.872ZM363.789 43.1323C365.007 43.1323 365.948 42.8001 366.613 42.1356C367.277 41.4712 367.609 40.5354 367.609 39.3283C367.609 38.1212 367.277 37.1798 366.613 36.5043C365.948 35.8177 365.007 35.4744 363.789 35.4744H362.144V43.1323H363.789ZM377.108 45.2254C376.023 45.2254 375.026 44.9707 374.118 44.4613C373.21 43.9519 372.49 43.2486 371.958 42.3516C371.427 41.4435 371.161 40.4191 371.161 39.2784C371.161 38.1489 371.427 37.1355 371.958 36.2385C372.49 35.3304 373.21 34.6217 374.118 34.1122C375.026 33.6028 376.023 33.3481 377.108 33.3481C378.204 33.3481 379.201 33.6028 380.098 34.1122C381.006 34.6217 381.72 35.3304 382.241 36.2385C382.772 37.1355 383.038 38.1489 383.038 39.2784C383.038 40.4191 382.772 41.4435 382.241 42.3516C381.72 43.2486 381.006 43.9519 380.098 44.4613C379.19 44.9707 378.193 45.2254 377.108 45.2254ZM377.108 43.149C377.805 43.149 378.42 42.9939 378.952 42.6838C379.483 42.3627 379.899 41.9086 380.198 41.3217C380.497 40.7347 380.646 40.0537 380.646 39.2784C380.646 38.5032 380.497 37.8277 380.198 37.2518C379.899 36.6649 379.483 36.2164 378.952 35.9063C378.42 35.5962 377.805 35.4412 377.108 35.4412C376.41 35.4412 375.79 35.5962 375.247 35.9063C374.716 36.2164 374.3 36.6649 374.001 37.2518C373.702 37.8277 373.553 38.5032 373.553 39.2784C373.553 40.0537 373.702 40.7347 374.001 41.3217C374.3 41.9086 374.716 42.3627 375.247 42.6838C375.79 42.9939 376.41 43.149 377.108 43.149ZM397.946 33.5142L394.026 41.0725V45.1091H391.7V41.0725L387.763 33.5142H390.388L392.88 38.8133L395.355 33.5142H397.946ZM404.669 45.2254C403.584 45.2254 402.587 44.9707 401.679 44.4613C400.771 43.9519 400.051 43.2486 399.52 42.3516C398.988 41.4435 398.723 40.4191 398.723 39.2784C398.723 38.1489 398.988 37.1355 399.52 36.2385C400.051 35.3304 400.771 34.6217 401.679 34.1122C402.587 33.6028 403.584 33.3481 404.669 33.3481C405.766 33.3481 406.763 33.6028 407.66 34.1122C408.568 34.6217 409.282 35.3304 409.802 36.2385C410.334 37.1355 410.6 38.1489 410.6 39.2784C410.6 40.4191 410.334 41.4435 409.802 42.3516C409.282 43.2486 408.568 43.9519 407.66 44.4613C406.751 44.9707 405.755 45.2254 404.669 45.2254ZM404.669 43.149C405.367 43.149 405.982 42.9939 406.513 42.6838C407.045 42.3627 407.46 41.9086 407.759 41.3217C408.058 40.7347 408.208 40.0537 408.208 39.2784C408.208 38.5032 408.058 37.8277 407.759 37.2518C407.46 36.6649 407.045 36.2164 406.513 35.9063C405.982 35.5962 405.367 35.4412 404.669 35.4412C403.972 35.4412 403.352 35.5962 402.809 35.9063C402.277 36.2164 401.862 36.6649 401.563 37.2518C401.264 37.8277 401.115 38.5032 401.115 39.2784C401.115 40.0537 401.264 40.7347 401.563 41.3217C401.862 41.9086 402.277 42.3627 402.809 42.6838C403.352 42.9939 403.972 43.149 404.669 43.149ZM414.622 33.5142V40.6904C414.622 41.4767 414.827 42.0803 415.237 42.5011C415.647 42.9109 416.223 43.1157 416.965 43.1157C417.718 43.1157 418.299 42.9109 418.709 42.5011C419.119 42.0803 419.324 41.4767 419.324 40.6904V33.5142H421.666V40.6738C421.666 41.6594 421.45 42.4956 421.018 43.1822C420.597 43.8577 420.027 44.3671 419.307 44.7105C418.598 45.0538 417.806 45.2254 416.931 45.2254C416.068 45.2254 415.281 45.0538 414.573 44.7105C413.875 44.3671 413.321 43.8577 412.911 43.1822C412.502 42.4956 412.297 41.6594 412.297 40.6738V33.5142H414.622ZM429.893 45.1091L427.335 40.5908H426.238V45.1091H423.913V33.5142H428.265C429.162 33.5142 429.926 33.6748 430.557 33.9959C431.189 34.306 431.659 34.7324 431.969 35.275C432.291 35.8066 432.451 36.4046 432.451 37.0691C432.451 37.8332 432.23 38.5254 431.787 39.1456C431.344 39.7546 430.685 40.1755 429.81 40.408L432.584 45.1091H429.893ZM426.238 38.8465H428.182C428.813 38.8465 429.284 38.697 429.594 38.398C429.904 38.0879 430.059 37.6616 430.059 37.1189C430.059 36.5874 429.904 36.1776 429.594 35.8897C429.284 35.5907 428.813 35.4412 428.182 35.4412H426.238V38.8465ZM440.838 33.5142V45.1091H438.513V33.5142H440.838ZM455.778 33.5142V45.1091H453.452V37.5674L450.346 45.1091H448.585L445.462 37.5674V45.1091H443.136V33.5142H445.777L449.465 42.1356L453.153 33.5142H455.778ZM466.532 37.1023C466.532 37.7225 466.383 38.3039 466.084 38.8465C465.796 39.3892 465.336 39.8266 464.705 40.1589C464.085 40.4911 463.299 40.6572 462.346 40.6572H460.403V45.1091H458.077V33.5142H462.346C463.243 33.5142 464.007 33.6693 464.639 33.9793C465.27 34.2894 465.74 34.7158 466.051 35.2584C466.372 35.8011 466.532 36.4157 466.532 37.1023ZM462.246 38.7801C462.889 38.7801 463.365 38.6361 463.675 38.3482C463.985 38.0492 464.14 37.6339 464.14 37.1023C464.14 35.9727 463.509 35.4079 462.246 35.4079H460.403V38.7801H462.246ZM470.476 33.5142V40.6904C470.476 41.4767 470.681 42.0803 471.09 42.5011C471.5 42.9109 472.076 43.1157 472.818 43.1157C473.571 43.1157 474.153 42.9109 474.562 42.5011C474.972 42.0803 475.177 41.4767 475.177 40.6904V33.5142H477.519V40.6738C477.519 41.6594 477.303 42.4956 476.871 43.1822C476.45 43.8577 475.88 44.3671 475.16 44.7105C474.452 45.0538 473.66 45.2254 472.785 45.2254C471.921 45.2254 471.135 45.0538 470.426 44.7105C469.728 44.3671 469.175 43.8577 468.765 43.1822C468.355 42.4956 468.15 41.6594 468.15 40.6738V33.5142H470.476ZM482.092 43.2652H485.912V45.1091H479.766V33.5142H482.092V43.2652ZM491.394 45.2254C490.586 45.2254 489.855 45.087 489.201 44.8101C488.559 44.5333 488.05 44.1346 487.673 43.6141C487.296 43.0936 487.103 42.479 487.092 41.7702H489.583C489.617 42.2464 489.783 42.6229 490.082 42.8998C490.392 43.1766 490.813 43.3151 491.344 43.3151C491.887 43.3151 492.313 43.1877 492.623 42.933C492.933 42.6672 493.088 42.3239 493.088 41.9031C493.088 41.5598 492.983 41.2774 492.773 41.0559C492.562 40.8344 492.297 40.6628 491.975 40.5409C491.665 40.408 491.233 40.2641 490.68 40.109C489.927 39.8875 489.312 39.6716 488.836 39.4612C488.371 39.2397 487.966 38.913 487.623 38.4811C487.291 38.0381 487.125 37.4512 487.125 36.7203C487.125 36.0336 487.296 35.4356 487.64 34.9262C487.983 34.4168 488.465 34.0292 489.085 33.7634C489.705 33.4865 490.414 33.3481 491.211 33.3481C492.407 33.3481 493.376 33.6416 494.118 34.2285C494.871 34.8044 495.287 35.6128 495.364 36.6538H492.806C492.784 36.2551 492.612 35.9284 492.291 35.6737C491.981 35.4079 491.566 35.275 491.045 35.275C490.591 35.275 490.226 35.3913 489.949 35.6239C489.683 35.8565 489.55 36.1942 489.55 36.6372C489.55 36.9473 489.65 37.2075 489.849 37.4179C490.06 37.6173 490.314 37.7834 490.613 37.9163C490.923 38.0381 491.355 38.1821 491.909 38.3482C492.662 38.5697 493.277 38.7912 493.753 39.0127C494.229 39.2341 494.639 39.5664 494.982 40.0094C495.325 40.4523 495.497 41.0337 495.497 41.7536C495.497 42.3737 495.337 42.9496 495.015 43.4812C494.694 44.0128 494.224 44.4391 493.603 44.7603C492.983 45.0704 492.247 45.2254 491.394 45.2254ZM499.839 33.5142V45.1091H497.513V33.5142H499.839ZM512.552 33.5142L508.3 45.1091H505.476L501.223 33.5142H503.715L506.904 42.7337L510.077 33.5142H512.552ZM516.272 35.3913V38.2984H520.176V40.1423H516.272V43.2154H520.674V45.1091H513.947V33.4976H520.674V35.3913H516.272ZM402.991 70.2254C402.182 70.2254 401.451 70.087 400.798 69.8101C400.156 69.5333 399.646 69.1346 399.27 68.6141C398.893 68.0936 398.699 67.479 398.688 66.7702H401.18C401.213 67.2464 401.379 67.6229 401.678 67.8998C401.988 68.1766 402.409 68.3151 402.941 68.3151C403.483 68.3151 403.91 68.1877 404.22 67.933C404.53 67.6672 404.685 67.3239 404.685 66.9031C404.685 66.5598 404.58 66.2774 404.369 66.0559C404.159 65.8344 403.893 65.6628 403.572 65.5409C403.262 65.408 402.83 65.2641 402.276 65.109C401.523 64.8875 400.909 64.6716 400.432 64.4612C399.967 64.2397 399.563 63.913 399.22 63.4811C398.888 63.0381 398.721 62.4512 398.721 61.7203C398.721 61.0336 398.893 60.4356 399.236 59.9262C399.58 59.4168 400.061 59.0292 400.682 58.7634C401.302 58.4865 402.011 58.3481 402.808 58.3481C404.004 58.3481 404.973 58.6416 405.715 59.2285C406.468 59.8044 406.883 60.6128 406.961 61.6538H404.403C404.38 61.2551 404.209 60.9284 403.888 60.6737C403.578 60.4079 403.162 60.275 402.642 60.275C402.188 60.275 401.822 60.3913 401.545 60.6239C401.28 60.8565 401.147 61.1942 401.147 61.6372C401.147 61.9473 401.246 62.2075 401.446 62.4179C401.656 62.6173 401.911 62.7834 402.21 62.9163C402.52 63.0381 402.952 63.1821 403.506 63.3482C404.259 63.5697 404.873 63.7912 405.349 64.0127C405.826 64.2341 406.235 64.5664 406.579 65.0094C406.922 65.4523 407.094 66.0337 407.094 66.7536C407.094 67.3737 406.933 67.9496 406.612 68.4812C406.291 69.0128 405.82 69.4391 405.2 69.7603C404.58 70.0704 403.843 70.2254 402.991 70.2254ZM424.609 58.5142L421.369 70.1091H418.628L416.452 61.8531L414.176 70.1091L411.452 70.1257L408.329 58.5142H410.821L412.864 67.5177L415.223 58.5142H417.814L420.04 67.4679L422.1 58.5142H424.609ZM428.453 58.5142V70.1091H426.127V58.5142H428.453ZM439.206 62.1023C439.206 62.7225 439.056 63.3039 438.757 63.8465C438.469 64.3892 438.01 64.8266 437.379 65.1589C436.758 65.4911 435.972 65.6572 435.02 65.6572H433.076V70.1091H430.75V58.5142H435.02C435.917 58.5142 436.681 58.6693 437.312 58.9793C437.943 59.2894 438.414 59.7158 438.724 60.2584C439.045 60.8011 439.206 61.4157 439.206 62.1023ZM434.92 63.7801C435.562 63.7801 436.039 63.6361 436.349 63.3482C436.659 63.0492 436.814 62.6339 436.814 62.1023C436.814 60.9727 436.182 60.4079 434.92 60.4079H433.076V63.7801H434.92ZM443.183 60.3913V63.2984H447.086V65.1423H443.183V68.2154H447.585V70.1091H440.857V58.4976H447.585V60.3913H443.183ZM453.702 70.2254C452.893 70.2254 452.162 70.087 451.509 69.8101C450.866 69.5333 450.357 69.1346 449.981 68.6141C449.604 68.0936 449.41 67.479 449.399 66.7702H451.891C451.924 67.2464 452.09 67.6229 452.389 67.8998C452.699 68.1766 453.12 68.3151 453.652 68.3151C454.194 68.3151 454.621 68.1877 454.931 67.933C455.241 67.6672 455.396 67.3239 455.396 66.9031C455.396 66.5598 455.291 66.2774 455.08 66.0559C454.87 65.8344 454.604 65.6628 454.283 65.5409C453.973 65.408 453.541 65.2641 452.987 65.109C452.234 64.8875 451.62 64.6716 451.143 64.4612C450.678 64.2397 450.274 63.913 449.931 63.4811C449.598 63.0381 449.432 62.4512 449.432 61.7203C449.432 61.0336 449.604 60.4356 449.947 59.9262C450.291 59.4168 450.772 59.0292 451.392 58.7634C452.013 58.4865 452.721 58.3481 453.519 58.3481C454.715 58.3481 455.684 58.6416 456.426 59.2285C457.179 59.8044 457.594 60.6128 457.672 61.6538H455.114C455.091 61.2551 454.92 60.9284 454.599 60.6737C454.288 60.4079 453.873 60.275 453.353 60.275C452.899 60.275 452.533 60.3913 452.256 60.6239C451.991 60.8565 451.858 61.1942 451.858 61.6372C451.858 61.9473 451.957 62.2075 452.157 62.4179C452.367 62.6173 452.622 62.7834 452.921 62.9163C453.231 63.0381 453.663 63.1821 454.216 63.3482C454.97 63.5697 455.584 63.7912 456.06 64.0127C456.537 64.2341 456.946 64.5664 457.29 65.0094C457.633 65.4523 457.805 66.0337 457.805 66.7536C457.805 67.3737 457.644 67.9496 457.323 68.4812C457.002 69.0128 456.531 69.4391 455.911 69.7603C455.291 70.0704 454.554 70.2254 453.702 70.2254Z" fill="#FFFCFC"/>
<path d="M174.148 42.9133C173.117 42.9133 172.19 42.7367 171.366 42.3835C170.542 42.0155 169.894 41.5004 169.423 40.838C168.952 40.1757 168.717 39.403 168.717 38.5199H171.41C171.469 39.1822 171.727 39.7268 172.183 40.1536C172.654 40.5805 173.309 40.7939 174.148 40.7939C175.016 40.7939 175.693 40.5878 176.179 40.1757C176.665 39.7489 176.907 39.2043 176.907 38.542C176.907 38.0268 176.753 37.6073 176.444 37.2835C176.149 36.9597 175.774 36.7095 175.318 36.5329C174.876 36.3563 174.258 36.1649 173.463 35.9589C172.462 35.6939 171.646 35.429 171.013 35.1641C170.394 34.8844 169.865 34.4576 169.423 33.8836C168.982 33.3096 168.761 32.5442 168.761 31.5875C168.761 30.7044 168.982 29.9317 169.423 29.2694C169.865 28.607 170.483 28.0992 171.278 27.746C172.072 27.3928 172.992 27.2161 174.037 27.2161C175.524 27.2161 176.738 27.5915 177.68 28.3421C178.637 29.078 179.167 30.0936 179.27 31.3888H176.488C176.444 30.8295 176.179 30.3512 175.693 29.9538C175.207 29.5564 174.567 29.3577 173.772 29.3577C173.051 29.3577 172.462 29.5416 172.006 29.9096C171.55 30.2776 171.322 30.8074 171.322 31.4992C171.322 31.9702 171.462 32.3602 171.741 32.6693C172.036 32.9637 172.404 33.1992 172.845 33.3758C173.287 33.5524 173.89 33.7438 174.655 33.9498C175.671 34.2295 176.495 34.5091 177.128 34.7888C177.776 35.0684 178.32 35.5026 178.762 36.0913C179.218 36.6654 179.446 37.4381 179.446 38.4095C179.446 39.1896 179.233 39.9255 178.806 40.6173C178.394 41.309 177.783 41.8683 176.974 42.2952C176.179 42.7073 175.237 42.9133 174.148 42.9133ZM193.565 36.3784C193.565 36.8346 193.536 37.2467 193.477 37.6147H184.182C184.256 38.5861 184.617 39.3662 185.264 39.9549C185.912 40.5437 186.707 40.838 187.649 40.838C189.003 40.838 189.959 40.2714 190.519 39.1381H193.234C192.866 40.2567 192.196 41.1766 191.225 41.8978C190.268 42.6042 189.076 42.9575 187.649 42.9575C186.486 42.9575 185.441 42.6999 184.513 42.1848C183.601 41.6549 182.88 40.919 182.35 39.977C181.835 39.0203 181.577 37.9164 181.577 36.6654C181.577 35.4143 181.827 34.3178 182.328 33.3758C182.843 32.4191 183.557 31.6832 184.469 31.168C185.397 30.6529 186.456 30.3953 187.649 30.3953C188.797 30.3953 189.819 30.6455 190.717 31.146C191.615 31.6464 192.314 32.3529 192.815 33.2654C193.315 34.1632 193.565 35.2009 193.565 36.3784ZM190.938 35.5836C190.923 34.6563 190.592 33.913 189.945 33.3537C189.297 32.7944 188.495 32.5148 187.538 32.5148C186.67 32.5148 185.926 32.7944 185.308 33.3537C184.69 33.8983 184.322 34.6416 184.204 35.5836H190.938ZM195.203 36.6654C195.203 35.4143 195.453 34.3178 195.954 33.3758C196.469 32.4191 197.175 31.6832 198.073 31.168C198.971 30.6529 200.001 30.3953 201.164 30.3953C202.636 30.3953 203.85 30.7486 204.807 31.455C205.778 32.1468 206.433 33.1403 206.772 34.4355H204.056C203.836 33.8321 203.482 33.3611 202.997 33.0226C202.511 32.684 201.9 32.5148 201.164 32.5148C200.134 32.5148 199.31 32.8827 198.691 33.6186C198.088 34.3399 197.786 35.3554 197.786 36.6654C197.786 37.9753 198.088 38.9982 198.691 39.7342C199.31 40.4701 200.134 40.838 201.164 40.838C202.621 40.838 203.585 40.1978 204.056 38.9173H206.772C206.419 40.1536 205.756 41.1398 204.785 41.8757C203.813 42.5969 202.607 42.9575 201.164 42.9575C200.001 42.9575 198.971 42.6999 198.073 42.1848C197.175 41.6549 196.469 40.919 195.954 39.977C195.453 39.0203 195.203 37.9164 195.203 36.6654ZM214.557 42.9575C213.409 42.9575 212.371 42.6999 211.444 42.1848C210.516 41.6549 209.788 40.919 209.258 39.977C208.728 39.0203 208.463 37.9164 208.463 36.6654C208.463 35.429 208.736 34.3325 209.28 33.3758C209.825 32.4191 210.568 31.6832 211.51 31.168C212.452 30.6529 213.504 30.3953 214.667 30.3953C215.83 30.3953 216.882 30.6529 217.824 31.168C218.766 31.6832 219.509 32.4191 220.054 33.3758C220.599 34.3325 220.871 35.429 220.871 36.6654C220.871 37.9017 220.591 38.9982 220.032 39.9549C219.473 40.9116 218.707 41.6549 217.736 42.1848C216.779 42.6999 215.719 42.9575 214.557 42.9575ZM214.557 40.7718C215.204 40.7718 215.808 40.6173 216.367 40.3082C216.941 39.9991 217.405 39.5355 217.758 38.9173C218.111 38.2991 218.288 37.5485 218.288 36.6654C218.288 35.7823 218.119 35.039 217.78 34.4355C217.441 33.8173 216.993 33.3537 216.433 33.0446C215.874 32.7355 215.27 32.581 214.623 32.581C213.975 32.581 213.372 32.7355 212.813 33.0446C212.268 33.3537 211.834 33.8173 211.51 34.4355C211.186 35.039 211.024 35.7823 211.024 36.6654C211.024 37.9753 211.355 38.9909 212.018 39.7121C212.695 40.4186 213.541 40.7718 214.557 40.7718ZM229.496 30.3953C230.453 30.3953 231.307 30.594 232.057 30.9914C232.823 31.3888 233.419 31.9775 233.846 32.7576C234.273 33.5377 234.486 34.4797 234.486 35.5836V42.7588H231.991V35.9589C231.991 34.8697 231.719 34.0381 231.174 33.4641C230.63 32.8754 229.887 32.581 228.945 32.581C228.003 32.581 227.252 32.8754 226.693 33.4641C226.148 34.0381 225.876 34.8697 225.876 35.9589V42.7588H223.359V30.594H225.876V31.9849C226.288 31.4845 226.81 31.0944 227.443 30.8148C228.091 30.5351 228.775 30.3953 229.496 30.3953ZM236.857 36.6212C236.857 35.3996 237.108 34.3178 237.608 33.3758C238.123 32.4338 238.815 31.7053 239.683 31.1901C240.567 30.6602 241.545 30.3953 242.62 30.3953C243.415 30.3953 244.195 30.5719 244.96 30.9252C245.74 31.2637 246.358 31.72 246.814 32.294V26.4213H249.353V42.7588H246.814V40.9263C246.402 41.5151 245.828 42.0008 245.092 42.3835C244.371 42.7661 243.54 42.9575 242.598 42.9575C241.538 42.9575 240.567 42.6926 239.683 42.1627C238.815 41.6181 238.123 40.8675 237.608 39.9108C237.108 38.9394 236.857 37.8428 236.857 36.6212ZM246.814 36.6654C246.814 35.8264 246.638 35.0979 246.285 34.4797C245.946 33.8615 245.497 33.3905 244.938 33.0667C244.379 32.7429 243.775 32.581 243.128 32.581C242.48 32.581 241.876 32.7429 241.317 33.0667C240.758 33.3758 240.302 33.8394 239.948 34.4576C239.61 35.0611 239.441 35.7823 239.441 36.6212C239.441 37.4602 239.61 38.1961 239.948 38.829C240.302 39.4619 240.758 39.9476 241.317 40.2861C241.891 40.6099 242.495 40.7718 243.128 40.7718C243.775 40.7718 244.379 40.6099 244.938 40.2861C245.497 39.9623 245.946 39.4913 246.285 38.8731C246.638 38.2402 246.814 37.5043 246.814 36.6654ZM166.248 68.0537C166.248 66.5524 166.594 65.2057 167.286 64.0135C167.992 62.8213 168.941 61.894 170.134 61.2317C171.34 60.5547 172.658 60.2161 174.085 60.2161C175.719 60.2161 177.169 60.6209 178.435 61.4304C179.715 62.2252 180.642 63.3585 181.216 64.8304H178.192C177.794 64.0208 177.243 63.4174 176.536 63.02C175.83 62.6226 175.013 62.4239 174.085 62.4239C173.07 62.4239 172.165 62.652 171.37 63.1083C170.575 63.5646 169.95 64.2195 169.493 65.0732C169.052 65.9269 168.831 66.9204 168.831 68.0537C168.831 69.187 169.052 70.1805 169.493 71.0342C169.95 71.8878 170.575 72.5502 171.37 73.0212C172.165 73.4774 173.07 73.7056 174.085 73.7056C175.013 73.7056 175.83 73.5069 176.536 73.1095C177.243 72.7121 177.794 72.1086 178.192 71.2991H181.216C180.642 72.7709 179.715 73.9043 178.435 74.6991C177.169 75.4939 175.719 75.8913 174.085 75.8913C172.643 75.8913 171.326 75.5601 170.134 74.8978C168.941 74.2207 167.992 73.2861 167.286 72.0939C166.594 70.9017 166.248 69.555 166.248 68.0537ZM190.455 63.3953C191.382 63.3953 192.206 63.594 192.927 63.9914C193.663 64.3888 194.237 64.9775 194.649 65.7576C195.076 66.5377 195.29 67.4797 195.29 68.5836V75.7588H192.795V68.9589C192.795 67.8697 192.523 67.0381 191.978 66.4641C191.433 65.8754 190.69 65.581 189.748 65.581C188.806 65.581 188.056 65.8754 187.496 66.4641C186.952 67.0381 186.679 67.8697 186.679 68.9589V75.7588H184.162V59.4213H186.679V65.007C187.106 64.4918 187.643 64.0944 188.291 63.8148C188.953 63.5351 189.675 63.3953 190.455 63.3953ZM197.661 69.6212C197.661 68.3996 197.911 67.3178 198.412 66.3758C198.927 65.4338 199.619 64.7053 200.487 64.1901C201.37 63.6602 202.342 63.3953 203.401 63.3953C204.358 63.3953 205.19 63.5867 205.896 63.9693C206.617 64.3373 207.191 64.8009 207.618 65.3602V63.594H210.157V75.7588H207.618V73.9484C207.191 74.5224 206.61 75.0008 205.874 75.3835C205.138 75.7661 204.299 75.9575 203.357 75.9575C202.312 75.9575 201.355 75.6926 200.487 75.1627C199.619 74.6181 198.927 73.8675 198.412 72.9108C197.911 71.9394 197.661 70.8428 197.661 69.6212ZM207.618 69.6654C207.618 68.8264 207.441 68.0979 207.088 67.4797C206.75 66.8615 206.301 66.3905 205.741 66.0667C205.182 65.7429 204.579 65.581 203.931 65.581C203.283 65.581 202.68 65.7429 202.121 66.0667C201.561 66.3758 201.105 66.8394 200.752 67.4576C200.413 68.0611 200.244 68.7823 200.244 69.6212C200.244 70.4602 200.413 71.1961 200.752 71.829C201.105 72.4619 201.561 72.9476 202.121 73.2861C202.695 73.6099 203.298 73.7718 203.931 73.7718C204.579 73.7718 205.182 73.6099 205.741 73.2861C206.301 72.9623 206.75 72.4913 207.088 71.8731C207.441 71.2402 207.618 70.5043 207.618 69.6654ZM219.6 63.3953C220.557 63.3953 221.411 63.594 222.161 63.9914C222.927 64.3888 223.523 64.9775 223.95 65.7576C224.376 66.5377 224.59 67.4797 224.59 68.5836V75.7588H222.095V68.9589C222.095 67.8697 221.823 67.0381 221.278 66.4641C220.734 65.8754 219.99 65.581 219.048 65.581C218.106 65.581 217.356 65.8754 216.796 66.4641C216.252 67.0381 215.98 67.8697 215.98 68.9589V75.7588H213.463V63.594H215.98V64.9849C216.392 64.4845 216.914 64.0944 217.547 63.8148C218.195 63.5351 218.879 63.3953 219.6 63.3953ZM226.961 69.6654C226.961 68.4143 227.212 67.3178 227.712 66.3758C228.227 65.4191 228.934 64.6832 229.831 64.168C230.729 63.6529 231.76 63.3953 232.922 63.3953C234.394 63.3953 235.608 63.7486 236.565 64.455C237.537 65.1468 238.191 66.1403 238.53 67.4355H235.814C235.594 66.8321 235.24 66.3611 234.755 66.0226C234.269 65.684 233.658 65.5148 232.922 65.5148C231.892 65.5148 231.068 65.8827 230.45 66.6186C229.846 67.3399 229.544 68.3554 229.544 69.6654C229.544 70.9753 229.846 71.9982 230.45 72.7342C231.068 73.4701 231.892 73.838 232.922 73.838C234.379 73.838 235.343 73.1978 235.814 71.9173H238.53C238.177 73.1536 237.514 74.1398 236.543 74.8757C235.572 75.5969 234.365 75.9575 232.922 75.9575C231.76 75.9575 230.729 75.6999 229.831 75.1848C228.934 74.6549 228.227 73.919 227.712 72.977C227.212 72.0203 226.961 70.9164 226.961 69.6654ZM252.187 69.3784C252.187 69.8346 252.158 70.2467 252.099 70.6147H242.804C242.878 71.5861 243.239 72.3662 243.886 72.9549C244.534 73.5437 245.329 73.838 246.271 73.838C247.625 73.838 248.581 73.2714 249.141 72.1381H251.856C251.488 73.2567 250.819 74.1766 249.847 74.8978C248.891 75.6042 247.698 75.9575 246.271 75.9575C245.108 75.9575 244.063 75.6999 243.136 75.1848C242.223 74.6549 241.502 73.919 240.972 72.977C240.457 72.0203 240.199 70.9164 240.199 69.6654C240.199 68.4143 240.45 67.3178 240.95 66.3758C241.465 65.4191 242.179 64.6832 243.091 64.168C244.019 63.6529 245.078 63.3953 246.271 63.3953C247.419 63.3953 248.442 63.6455 249.339 64.146C250.237 64.6464 250.936 65.3529 251.437 66.2654C251.937 67.1632 252.187 68.2009 252.187 69.3784ZM249.56 68.5836C249.545 67.6563 249.214 66.913 248.567 66.3537C247.919 65.7944 247.117 65.5148 246.16 65.5148C245.292 65.5148 244.549 65.7944 243.93 66.3537C243.312 66.8983 242.944 67.6416 242.827 68.5836H249.56Z" fill="white"/>
<defs>
<filter id="filter0_ddd_1312_19102" x="0.328249" y="0.130724" width="553.32" height="102.799" filterUnits="userSpaceOnUse" color-interpolation-filters="sRGB">
<feFlood flood-opacity="0" result="BackgroundImageFix"/>
<feColorMatrix in="SourceAlpha" type="matrix" values="0 0 0 0 0 0 0 0 0 0 0 0 0 0 0 0 0 0 127 0" result="hardAlpha"/>
<feOffset dy="0.689926"/>
<feGaussianBlur stdDeviation="2.7597"/>
<feColorMatrix type="matrix" values="0 0 0 0 0 0 0 0 0 0 0 0 0 0 0 0 0 0 0.1 0"/>
<feBlend mode="normal" in2="BackgroundImageFix" result="effect1_dropShadow_1312_19102"/>
<feColorMatrix in="SourceAlpha" type="matrix" values="0 0 0 0 0 0 0 0 0 0 0 0 0 0 0 0 0 0 127 0" result="hardAlpha"/>
<feOffset dy="1.37985"/>
<feGaussianBlur stdDeviation="1.37985"/>
<feColorMatrix type="matrix" values="0 0 0 0 0 0 0 0 0 0 0 0 0 0 0 0 0 0 0.12 0"/>
<feBlend mode="normal" in2="effect1_dropShadow_1312_19102" result="effect2_dropShadow_1312_19102"/>
<feColorMatrix in="SourceAlpha" type="matrix" values="0 0 0 0 0 0 0 0 0 0 0 0 0 0 0 0 0 0 127 0" result="hardAlpha"/>
<feOffset dy="0.689926"/>
<feGaussianBlur stdDeviation="0.689926"/>
<feColorMatrix type="matrix" values="0 0 0 0 0 0 0 0 0 0 0 0 0 0 0 0 0 0 0.16 0"/>
<feBlend mode="normal" in2="effect2_dropShadow_1312_19102" result="effect3_dropShadow_1312_19102"/>
<feBlend mode="normal" in="SourceGraphic" in2="effect3_dropShadow_1312_19102" result="shape"/>
</filter>
<clipPath id="clip0_1312_19102">
<rect width="111.768" height="91.7601" fill="white" transform="translate(5.84766 4.96021)"/>
</clipPath>
<clipPath id="clip1_1312_19102">
<rect width="17.5095" height="17.5095" fill="white" transform="translate(86.3789 4.96021)"/>
</clipPath>
<clipPath id="clip2_1312_19102">
<rect width="17.5095" height="17.5095" fill="white" transform="translate(12.1387 71.281) rotate(47.2539)"/>
</clipPath>
<clipPath id="clip3_1312_19102">
<rect width="13.19" height="16.6611" fill="white" transform="translate(4.81641 51.875)"/>
</clipPath>
<clipPath id="clip4_1312_19102">
<rect width="3.84712" height="4.85953" fill="white" transform="translate(26.793 50.084)"/>
</clipPath>
<clipPath id="clip5_1312_19102">
<rect width="11.8016" height="14.9073" fill="white" transform="translate(55.1387 85.4888)"/>
</clipPath>
</defs>
</svg>
