<svg width="102" height="103" viewBox="0 0 102 103" fill="none" xmlns="http://www.w3.org/2000/svg">
<g clip-path="url(#clip0_1312_18096)">
<path d="M45.8536 88.2885C45.3376 88.2885 44.8216 88.1551 44.3594 87.8881C37.793 84.0972 26.9071 75.7718 17.389 65.7184C9.45632 57.3391 0 45.0521 0 34.1C0 20.2404 11.2758 8.9646 25.1352 8.9646C30.34 8.9646 35.3342 10.5422 39.5782 13.5269C42.0541 15.2681 44.17 17.4097 45.8536 19.8581C47.537 17.4097 49.6529 15.2681 52.1288 13.5269C56.3727 10.5422 61.3669 8.9646 66.5717 8.9646C80.4314 8.9646 91.7072 20.2404 91.7072 34.1C91.7072 38.8554 89.7227 44.402 85.8091 50.586C82.6622 55.5585 78.285 60.9485 72.7991 66.6068C62.7929 76.9271 51.8923 85.2642 47.3477 87.8881C46.8855 88.1551 46.3696 88.2885 45.8536 88.2885Z" fill="#FF3F5C"/>
<path d="M66.5717 8.9646C61.3669 8.9646 56.3727 10.5422 52.1287 13.5269C49.6528 15.2681 47.5369 17.4097 45.8535 19.8581V88.2883C46.3695 88.2883 46.8855 88.1548 47.3477 87.8879C51.8922 85.264 62.7929 76.9267 72.799 66.6065C78.2849 60.9483 82.6622 55.5583 85.809 50.5858C89.7229 44.4018 91.7071 38.8552 91.7071 34.0998C91.7071 20.2404 80.4313 8.9646 66.5717 8.9646Z" fill="#BF065A"/>
<path d="M75.1055 90.6624C88.3085 90.6624 99.0117 79.9592 99.0117 66.7561C99.0117 53.553 88.3085 42.8499 75.1055 42.8499C61.9024 42.8499 51.1992 53.553 51.1992 66.7561C51.1992 79.9592 61.9024 90.6624 75.1055 90.6624Z" fill="#FFF4F4"/>
<path fill-rule="evenodd" clip-rule="evenodd" d="M75.1055 42.8499V90.6624C88.2726 90.6624 99.0117 79.9233 99.0117 66.7561C99.0117 53.5889 88.2726 42.8499 75.1055 42.8499Z" fill="#F6EFEA"/>
<path d="M78.9155 73.5544C78.1507 73.5544 77.3859 73.2626 76.8026 72.6791L72.9926 68.869C72.4322 68.3086 72.1172 67.5486 72.1172 66.7561V59.385C72.1172 57.7347 73.4551 56.3967 75.1055 56.3967C76.7558 56.3967 78.0938 57.7347 78.0938 59.385V65.5184L81.0284 68.4531C82.1955 69.6199 82.1955 71.5121 81.0284 72.6791C80.4451 73.2626 79.6803 73.5544 78.9155 73.5544Z" fill="#392E6E"/>
<path d="M75.1055 39.8616C60.2758 39.8616 48.2109 51.9265 48.2109 66.7561C48.2109 81.5857 60.2758 93.6506 75.1055 93.6506C89.9351 93.6506 102 81.5857 102 66.7561C102 51.9265 89.9351 39.8616 75.1055 39.8616ZM91.8524 79.2768L91.5874 79.0118C90.4206 77.845 88.5284 77.845 87.3614 79.0118C86.1944 80.1787 86.1944 82.0708 87.3614 83.2379L87.6266 83.503C84.8887 85.5552 81.6329 86.9515 78.0942 87.4599V87.0766C78.0942 85.4263 76.7562 84.0883 75.1059 84.0883C73.4555 84.0883 72.1176 85.4263 72.1176 87.0766V87.4599C68.5789 86.9515 65.3228 85.5554 62.585 83.503L62.8503 83.2377C64.0172 82.0708 64.017 80.1787 62.8499 79.0116C61.6831 77.8448 59.7909 77.8448 58.6239 79.012L58.3589 79.277C56.3068 76.5391 54.9105 73.2833 54.4021 69.7444H54.7852C56.4355 69.7444 57.7734 68.4064 57.7734 66.7561C57.7734 65.1058 56.4355 63.7678 54.7852 63.7678H54.4019C54.9103 60.2291 56.3064 56.9733 58.3585 54.2354L58.6235 54.5004C59.207 55.0839 59.9718 55.3757 60.7364 55.3757C61.501 55.3757 62.266 55.0839 62.8493 54.5004C64.0164 53.3335 64.0164 51.4414 62.8493 50.2743L62.5842 50.0092C65.322 47.957 68.5779 46.5607 72.1166 46.0523V46.4354C72.1166 48.0857 73.4545 49.4237 75.1049 49.4237C76.7552 49.4237 78.0932 48.0857 78.0932 46.4354V46.0523C81.6319 46.5607 84.8879 47.9568 87.6258 50.009L87.3608 50.2739C86.1938 51.4408 86.1938 53.3329 87.3608 54.5C87.9443 55.0835 88.7091 55.3753 89.4737 55.3753C90.2383 55.3753 91.0033 55.0835 91.5866 54.5L91.8518 54.2348C93.904 56.9727 95.3003 60.2285 95.8087 63.7672H95.4256C93.7753 63.7672 92.4373 65.1052 92.4373 66.7555C92.4373 68.4058 93.7753 69.7438 95.4256 69.7438H95.8087C95.3007 73.2829 93.9045 76.5389 91.8524 79.2768Z" fill="#B8DC38"/>
<path d="M81.0284 68.4532L78.0937 65.5184V59.385C78.0937 57.7347 76.7558 56.3967 75.1055 56.3967V70.9821L76.8024 72.6791C77.3859 73.2626 78.1507 73.5544 78.9153 73.5544C79.6799 73.5544 80.4449 73.2626 81.0282 72.6791C82.1957 71.5123 82.1957 69.6201 81.0284 68.4532Z" fill="#2B2256"/>
<path d="M75.1055 39.8616V49.4239C76.7558 49.4237 78.0936 48.0859 78.0936 46.4356V46.0525C81.6323 46.5609 84.8883 47.957 87.6262 50.0092L87.3612 50.2741C86.1942 51.441 86.1942 53.3331 87.3612 54.5002C87.9447 55.0837 88.7095 55.3755 89.4741 55.3755C90.2387 55.3755 91.0037 55.0837 91.587 54.5002L91.8522 54.235C93.9044 56.9729 95.3007 60.2287 95.8091 63.7674H95.426C93.7757 63.7674 92.4377 65.1054 92.4377 66.7557C92.4377 68.406 93.7757 69.744 95.426 69.744H95.8091C95.3007 73.2827 93.9046 76.5387 91.8524 79.2766L91.5874 79.0116C90.4206 77.8448 88.5284 77.8448 87.3614 79.0116C86.1944 80.1785 86.1944 82.0706 87.3614 83.2377L87.6266 83.5028C84.8887 85.555 81.6329 86.9513 78.0942 87.4597V87.0764C78.0942 85.4261 76.7562 84.0881 75.1059 84.0881C75.1059 84.0881 75.1059 84.0881 75.1057 84.0881V93.6506C89.9353 93.6506 102 81.5857 102 66.7561C102 51.9265 89.9351 39.8616 75.1055 39.8616Z" fill="#00CC71"/>
</g>
<defs>
<clipPath id="clip0_1312_18096">
<rect width="102" height="102" fill="white" transform="translate(0 0.307617)"/>
</clipPath>
</defs>
</svg>
