<svg width="76" height="77" viewBox="0 0 76 77" fill="none" xmlns="http://www.w3.org/2000/svg">
<path d="M57.437 70.5534V6.09509C59.1633 6.09509 60.5197 6.55325 61.5061 7.46957C62.4926 8.38589 62.9858 9.82357 62.9858 11.7826V64.8659C62.9858 66.825 62.4926 68.2626 61.5061 69.179C60.5197 70.0953 59.1633 70.5534 57.437 70.5534ZM5.64839 76.2409C4.10706 76.2409 2.79693 75.688 1.718 74.5821C0.639074 73.4762 0.0996094 72.1333 0.0996094 70.5534V6.09509C0.0996094 4.51523 0.639074 3.17235 1.718 2.06645C2.79693 0.960544 4.10706 0.407593 5.64839 0.407593H42.6403C44.1816 0.407593 45.4917 0.960544 46.5707 2.06645C47.6496 3.17235 48.189 4.51523 48.189 6.09509V70.5534C48.189 72.1333 47.6496 73.4762 46.5707 74.5821C45.4917 75.688 44.1816 76.2409 42.6403 76.2409H5.64839ZM72.2338 64.7711V11.9722C73.4668 11.9722 74.3916 12.2408 75.0082 12.7779C75.6247 13.3151 75.9329 14.3104 75.9329 15.7638V60.9795C75.9329 62.4329 75.6247 63.4283 75.0082 63.9654C74.3916 64.5026 73.4668 64.7711 72.2338 64.7711ZM5.64839 70.5534H42.6403V6.09509H5.64839V70.5534Z" fill="url(#paint0_linear_1312_17776)"/>
<defs>
<linearGradient id="paint0_linear_1312_17776" x1="0.0996092" y1="14.2618" x2="77.4083" y2="16.1601" gradientUnits="userSpaceOnUse">
<stop offset="0.0500767" stop-color="#FA7558"/>
<stop offset="1" stop-color="#F95A63"/>
</linearGradient>
</defs>
</svg>
