<svg width="83" height="86" viewBox="0 0 83 86" fill="none" xmlns="http://www.w3.org/2000/svg">
<path d="M70.7561 51.404L64.1653 47.6911L60.2148 64.6235L77.0209 81.5559L80.9249 83.7552C81.9724 84.3454 83.1844 83.3029 82.7578 82.179L71.3271 52.0677C71.2203 51.7866 71.0182 51.5516 70.7561 51.404Z" fill="#FFBE3B"/>
<path d="M56.2932 43.2557L49.2227 58.3773L62.7211 73.499L77.0218 81.5558L64.1664 47.691L56.2932 43.2557Z" fill="#FFD45E"/>
<path d="M56.2911 43.2557L41.4214 51.6324L33.708 68.47L41.4214 85.3076C41.6389 85.3076 41.8566 85.2524 42.0523 85.142L62.7189 73.499L56.2911 43.2557Z" fill="#FFE88C"/>
<path d="M26.5542 43.2557L13.0596 58.3773L20.1264 73.499L40.7929 85.142C40.9888 85.2524 41.2064 85.3076 41.4239 85.3076V51.6324L26.5542 43.2557Z" fill="#FFD45E"/>
<path d="M26.5532 43.2557L20.1254 73.499L1.92066 83.7552C0.87318 84.3453 -0.338848 83.3028 0.0877868 82.1789L11.5183 52.0678C11.6251 51.7865 11.827 51.5517 12.0893 51.4039L26.5532 43.2557Z" fill="#FFE88C"/>
<path d="M41.4238 0.307617V64.5857C42.3398 64.5857 43.1417 64.1053 43.5971 63.3842C43.6002 63.3842 61.0113 35.7737 61.0113 35.7737C63.2604 32.2048 64.564 27.9787 64.564 23.4477C64.564 10.6679 54.2037 0.307617 41.4238 0.307617Z" fill="#FC5E32"/>
<path d="M43.1126 63.3842C43.115 63.3842 56.6571 35.7737 56.6571 35.7737C58.4063 32.2048 59.4202 27.9787 59.4202 23.4477C59.4202 10.6679 51.3623 0.307617 41.4223 0.307617C28.6423 0.307617 18.2822 10.6679 18.2822 23.4477C18.2822 27.9787 19.5856 32.205 21.8364 35.7737C21.8347 35.7737 39.2458 63.3842 39.2458 63.3842C39.7043 64.1053 40.5063 64.5857 41.4222 64.5857C42.1347 64.5857 42.7585 64.1053 43.1126 63.3842Z" fill="#FF7D4A"/>
<path d="M41.423 36.3033C48.523 36.3033 54.2786 30.5476 54.2786 23.4477C54.2786 16.3477 48.523 10.592 41.423 10.592C34.323 10.592 28.5674 16.3477 28.5674 23.4477C28.5674 30.5476 34.323 36.3033 41.423 36.3033Z" fill="white"/>
<path d="M41.4238 15.7343V31.1611C45.6838 31.1611 49.1372 27.7077 49.1372 23.4477C49.1372 19.1877 45.6838 15.7343 41.4238 15.7343Z" fill="#FF7D4A"/>
<path d="M43.9925 23.4477C43.9925 19.1877 42.8413 15.7343 41.4214 15.7343C37.1614 15.7343 33.708 19.1877 33.708 23.4477C33.708 27.7077 37.1614 31.1611 41.4214 31.1611C42.8413 31.1611 43.9925 27.7077 43.9925 23.4477Z" fill="#FF9A6B"/>
</svg>
